<?xml version="1.0" encoding="UTF-8"?>
<svg id="iconos" xmlns="http://www.w3.org/2000/svg" viewBox="0 0 50 50">
  <defs>
    <style>
      .cls-1 {
        fill: #2e3135;
        stroke-width: 0px;
      }
    </style>
  </defs>
  <path class="cls-1" d="m24.99,47.5c-1.47,0-2.95-.55-4.07-1.66l-3.58-3.54c-.87-.87-2.09-1.37-3.34-1.37h-1.57c-4.33,0-7.85-3.5-7.85-7.79V10.29c0-4.3,3.52-7.79,7.85-7.79h25.13c4.33,0,7.85,3.5,7.85,7.79v22.85c0,4.3-3.52,7.79-7.85,7.79h-1.59c-1.27,0-2.45.48-3.33,1.36l-3.59,3.55c-1.12,1.11-2.6,1.66-4.07,1.66ZM12.43,5.64c-2.6,0-4.71,2.09-4.71,4.65v22.85c0,2.56,2.11,4.65,4.71,4.65h1.57c2.08,0,4.1.83,5.55,2.28l3.58,3.53c1.02,1.01,2.69,1.01,3.72,0l3.58-3.54c1.46-1.47,3.44-2.28,5.54-2.28h1.59c2.6,0,4.71-2.09,4.71-4.65V10.29c0-2.56-2.11-4.65-4.71-4.65H12.43Z"/>
  <path class="cls-1" d="m21.61,30.27h-5.61c-.91,0-1.78-.44-2.32-1.18-.52-.71-.66-1.6-.39-2.43.74-2.25,2.54-3.47,4.13-4.55,1.67-1.14,2.62-1.84,2.62-3.07,0-1.09-.88-1.97-1.97-1.97s-1.97.88-1.97,1.97c0,.87-.7,1.57-1.57,1.57s-1.57-.7-1.57-1.57c0-2.82,2.29-5.11,5.11-5.11s5.11,2.29,5.11,5.11-2.21,4.45-3.99,5.66c-1.1.75-2.15,1.46-2.69,2.42h5.11c.87,0,1.57.7,1.57,1.57s-.7,1.57-1.57,1.57Z"/>
  <path class="cls-1" d="m33.46,30.25c-.87,0-1.57-.7-1.57-1.57v-1.44h-4.1c-1.04,0-2-.55-2.51-1.44-.51-.87-.51-2.01,0-2.89,1.43-2.45,3.07-5.22,4.59-7.66.67-1.05,1.95-1.54,3.14-1.21,1.19.34,2.03,1.44,2.03,2.69v7.37h.44c.87,0,1.57.7,1.57,1.57s-.7,1.57-1.57,1.57h-.44v1.44c0,.87-.7,1.57-1.57,1.57Zm-5.24-6.16h3.67v-6.15c-1.23,2-2.51,4.17-3.67,6.15Z"/>
</svg>