<?xml version="1.0" encoding="UTF-8"?>
<svg id="iconos" xmlns="http://www.w3.org/2000/svg" viewBox="0 0 50 50">
  <defs>
    <style>
      .cls-1 {
        fill: #2e3135;
        stroke-width: 0px;
      }
    </style>
  </defs>
  <path class="cls-1" d="m45.93,20.29c-.87,0-1.57-.7-1.57-1.57v-4.19c0-5.4-3.49-8.9-8.9-8.9H14.53c-5.4,0-8.9,3.49-8.9,8.9v4.19c0,.87-.7,1.57-1.57,1.57s-1.57-.7-1.57-1.57v-4.19C2.5,7.34,7.34,2.5,14.53,2.5h20.93c7.2,0,12.03,4.84,12.03,12.03v4.19c0,.87-.7,1.57-1.57,1.57Z"/>
  <path class="cls-1" d="m35.47,47.5H14.53c-7.2,0-12.03-4.84-12.03-12.03v-4.19c0-.87.7-1.57,1.57-1.57s1.57.7,1.57,1.57v4.19c0,5.4,3.49,8.9,8.9,8.9h20.93c5.4,0,8.9-3.49,8.9-8.9v-4.19c0-.87.7-1.57,1.57-1.57s1.57.7,1.57,1.57v4.19c0,7.2-4.84,12.03-12.03,12.03Z"/>
  <path class="cls-1" d="m25,27.26c-.27,0-.54-.07-.79-.21l-11.09-6.43c-.75-.44-1.01-1.4-.57-2.15.44-.75,1.4-1.01,2.15-.57l10.31,5.97,10.22-5.93c.75-.44,1.71-.18,2.15.57.43.75.18,1.71-.57,2.14l-11.01,6.39c-.24.14-.52.21-.79.21Z"/>
  <path class="cls-1" d="m25,38.65c-.87,0-1.57-.7-1.57-1.57v-11.41c0-.87.7-1.57,1.57-1.57s1.57.7,1.57,1.57v11.41c0,.87-.7,1.57-1.57,1.57Z"/>
  <path class="cls-1" d="m25,39.14c-1.2,0-2.41-.27-3.36-.8l-6.7-3.72c-2-1.09-3.57-3.76-3.57-6.06v-7.1c0-2.29,1.57-4.95,3.57-6.06l6.69-3.72c1.92-1.1,4.82-1.1,6.76,0l6.69,3.72c2,1.1,3.57,3.76,3.57,6.06v7.1c0,2.29-1.57,4.95-3.57,6.06l-6.7,3.72c-.97.53-2.17.8-3.38.8Zm0-25.14c-.67,0-1.34.14-1.81.41,0,0-.01,0-.02.01l-6.7,3.72c-1.02.57-1.96,2.15-1.96,3.32v7.1c0,1.18.93,2.75,1.95,3.31l6.71,3.73c.96.54,2.72.53,3.69,0l6.69-3.72c1.03-.57,1.96-2.15,1.96-3.32v-7.1c0-1.18-.93-2.75-1.95-3.31l-6.71-3.73c-.49-.28-1.18-.42-1.86-.42Zm-2.59-.95h.02-.02Z"/>
</svg>