<?xml version="1.0" encoding="UTF-8"?>
<svg id="iconos" xmlns="http://www.w3.org/2000/svg" viewBox="0 0 50 50">
  <defs>
    <style>
      .cls-1 {
        fill: #2e3135;
        stroke-width: 0px;
      }
    </style>
  </defs>
  <path class="cls-1" d="m31.28,47.5h-12.56c-11.37,0-16.22-4.85-16.22-16.22v-12.56C2.5,7.35,7.35,2.5,18.72,2.5h12.56c11.37,0,16.22,4.85,16.22,16.22v12.56c0,11.37-4.85,16.22-16.22,16.22ZM18.72,5.64c-9.66,0-13.08,3.42-13.08,13.08v12.56c0,9.66,3.42,13.08,13.08,13.08h12.56c9.66,0,13.08-3.42,13.08-13.08v-12.56c0-9.66-3.42-13.08-13.08-13.08h-12.56Z"/>
  <path class="cls-1" d="m25,27.26c-.27,0-.54-.07-.79-.21l-11.09-6.43c-.75-.43-1.01-1.4-.57-2.15.44-.75,1.4-1.01,2.15-.57l10.31,5.97,10.22-5.93c.75-.43,1.71-.18,2.15.57.43.75.18,1.71-.57,2.15l-11.01,6.38c-.24.14-.52.21-.79.21Z"/>
  <path class="cls-1" d="m25,38.65c-.87,0-1.57-.7-1.57-1.57v-11.41c0-.87.7-1.57,1.57-1.57s1.57.7,1.57,1.57v11.41c0,.87-.7,1.57-1.57,1.57Z"/>
  <path class="cls-1" d="m25,39.14c-1.2,0-2.41-.27-3.36-.8l-6.7-3.73c-2-1.09-3.57-3.76-3.57-6.06v-7.1c0-2.29,1.57-4.95,3.57-6.06l6.69-3.72c1.9-1.09,4.8-1.1,6.74-.03l6.7,3.73c2,1.09,3.57,3.76,3.57,6.06v7.12c0,2.29-1.57,4.95-3.57,6.06l-6.7,3.73c-.97.53-2.17.8-3.38.8Zm.02-25.14c-.68,0-1.36.14-1.84.41,0,0-.01,0-.02.01l-6.7,3.73c-1.02.57-1.96,2.15-1.96,3.32v7.1c0,1.17.93,2.75,1.95,3.31l6.71,3.73c.96.53,2.72.53,3.69,0l6.69-3.72c1.02-.57,1.96-2.15,1.96-3.32v-7.12c0-1.18-.93-2.75-1.95-3.31l-6.71-3.73c-.48-.27-1.16-.4-1.83-.4Zm-2.62-.95h.02-.02Z"/>
</svg>