<?xml version="1.0" encoding="UTF-8"?>
<svg id="iconos" xmlns="http://www.w3.org/2000/svg" viewBox="0 0 50 50">
  <defs>
    <style>
      .cls-1 {
        fill: #2e3135;
        stroke-width: 0px;
      }
    </style>
  </defs>
  <path class="cls-1" d="m25,25.52c-.92,0-1.83-.22-2.67-.67l-13.66-7.37c-1.25-.67-2.02-2-2.02-3.47,0-1.47.77-2.8,2.02-3.47l13.66-7.36c1.68-.9,3.68-.9,5.35,0,0,0,0,0,0,0l13.66,7.36c1.25.67,2.02,2,2.02,3.47,0,1.47-.78,2.8-2.02,3.47l-13.66,7.36c-.84.45-1.76.67-2.68.67Zm0-19.87c-.41,0-.81.1-1.19.3l-13.65,7.36c-.34.18-.37.58-.37.7s.03.52.37.7l13.66,7.36c.75.4,1.62.4,2.37,0l13.65-7.36c.34-.18.37-.58.37-.7s-.03-.52-.37-.7l-13.65-7.36c-.38-.2-.78-.3-1.19-.3Z"/>
  <path class="cls-1" d="m20.35,47.5c-.6,0-1.2-.14-1.76-.42l-12.69-6.36c-2.13-1.08-3.45-3.22-3.45-5.58v-12c0-1.36.69-2.6,1.85-3.32,1.16-.72,2.58-.78,3.81-.17h0l12.69,6.36c2.13,1.08,3.45,3.22,3.45,5.58v12c0,1.36-.69,2.6-1.85,3.32-.63.39-1.34.59-2.05.59ZM6.35,22.39c-.19,0-.33.07-.4.12-.13.08-.35.27-.35.64v12c0,1.16.67,2.24,1.72,2.77l12.69,6.35c.35.17.64.04.75-.03.13-.08.35-.27.35-.64v-12c0-1.15-.67-2.24-1.72-2.77l-12.68-6.35c-.12-.06-.24-.08-.35-.08Z"/>
  <path class="cls-1" d="m29.65,47.5c-.71,0-1.42-.2-2.05-.59-1.16-.71-1.85-1.95-1.85-3.32v-12c0-2.36,1.32-4.5,3.44-5.58l12.7-6.36h0c1.22-.61,2.65-.55,3.81.17,1.16.71,1.85,1.95,1.85,3.32v12c0,2.36-1.32,4.5-3.44,5.58l-12.7,6.36c-.56.28-1.16.42-1.76.42Zm13.65-25.03l-12.69,6.36c-1.04.53-1.71,1.61-1.71,2.77v12c0,.37.22.56.35.64.11.07.4.2.75.03l12.69-6.36c1.04-.53,1.71-1.61,1.71-2.77v-12c0-.37-.22-.56-.35-.64-.11-.07-.4-.21-.75-.03h0Z"/>
</svg>