<?xml version="1.0" encoding="UTF-8"?>
<svg id="iconos" xmlns="http://www.w3.org/2000/svg" viewBox="0 0 50 50">
  <defs>
    <style>
      .cls-1 {
        fill: #2e3135;
        stroke-width: 0px;
      }
    </style>
  </defs>
  <path class="cls-1" d="m19.5,47.5h-9.94c-4.81,0-7.05-2.24-7.05-7.05v-9.94c0-4.83,2.24-7.08,7.05-7.08h4.98c.87,0,1.57.7,1.57,1.57v4.96c0,3.05.88,3.93,3.91,3.93h4.98c.87,0,1.57.7,1.57,1.57v4.98c0,4.81-2.25,7.05-7.07,7.05Zm-9.94-20.93c-3.04,0-3.91.88-3.91,3.94v9.94c0,3.04.88,3.91,3.91,3.91h9.94c3.05,0,3.93-.88,3.93-3.91v-3.41h-3.41c-4.81,0-7.05-2.25-7.05-7.07v-3.39h-3.41Z"/>
  <path class="cls-1" d="m29.96,37.03h-9.94c-4.81,0-7.05-2.25-7.05-7.07v-9.94c0-4.81,2.24-7.05,7.05-7.05h4.98c.87,0,1.57.7,1.57,1.57v4.96c0,3.05.88,3.93,3.91,3.93h4.98c.87,0,1.57.7,1.57,1.57v4.96c0,4.83-2.25,7.07-7.07,7.07Zm-9.94-20.93c-3.04,0-3.91.88-3.91,3.91v9.94c0,3.05.88,3.93,3.91,3.93h9.94c3.05,0,3.93-.88,3.93-3.93v-3.39h-3.41c-4.81,0-7.05-2.25-7.05-7.07v-3.39h-3.41Z"/>
  <path class="cls-1" d="m40.43,26.57h-9.94c-4.81,0-7.05-2.25-7.05-7.07v-9.94c0-4.81,2.24-7.05,7.05-7.05h9.94c4.83,0,7.07,2.24,7.07,7.05v9.94c0,4.83-2.25,7.07-7.07,7.07ZM30.48,5.64c-3.04,0-3.91.88-3.91,3.91v9.94c0,3.05.88,3.93,3.91,3.93h9.94c3.05,0,3.93-.88,3.93-3.93v-9.94c0-3.04-.88-3.91-3.93-3.91h-9.94Z"/>
</svg>