<?xml version="1.0" encoding="UTF-8"?>
<svg id="iconos" xmlns="http://www.w3.org/2000/svg" viewBox="0 0 50 50">
  <defs>
    <style>
      .cls-1 {
        fill: #1e1f22;
        stroke-width: 0px;
      }
    </style>
  </defs>
  <path class="cls-1" d="m33.37,34.94c-.6,0-1.18-.35-1.44-.93l-6.94-15.61-6.94,15.61c-.35.79-1.28,1.15-2.07.8-.79-.35-1.15-1.28-.8-2.07l8.37-18.84c.5-1.13,2.36-1.13,2.87,0l8.37,18.84c.35.79,0,1.72-.8,2.07-.21.09-.42.13-.64.13Z"/>
  <path class="cls-1" d="m25,26.57h-8.37c-.87,0-1.57-.7-1.57-1.57s.7-1.57,1.57-1.57h8.37c.87,0,1.57.7,1.57,1.57s-.7,1.57-1.57,1.57Z"/>
  <path class="cls-1" d="m25,47.5c-12.41,0-22.5-10.09-22.5-22.5S12.59,2.5,25,2.5s22.5,10.09,22.5,22.5-10.09,22.5-22.5,22.5Zm0-41.86C14.32,5.64,5.64,14.32,5.64,25s8.68,19.36,19.36,19.36,19.36-8.68,19.36-19.36S35.68,5.64,25,5.64Z"/>
</svg>