<?xml version="1.0" encoding="UTF-8"?>
<svg id="iconos" xmlns="http://www.w3.org/2000/svg" viewBox="0 0 50 50">
  <defs>
    <style>
      .cls-1 {
        fill: #1e1f22;
        stroke-width: 0px;
      }
    </style>
  </defs>
  <path class="cls-1" d="m21.55,13.46c-2.94,0-5.34-2.4-5.34-5.34s2.4-5.34,5.34-5.34,5.34,2.4,5.34,5.34-2.4,5.34-5.34,5.34Zm0-9.65c-2.37,0-4.31,1.93-4.31,4.31s1.93,4.31,4.31,4.31,4.31-1.93,4.31-4.31-1.93-4.31-4.31-4.31Z"/>
  <path class="cls-1" d="m40.51,44.81c-.22,0-.42-.14-.49-.36l-4.1-12.96c-.19-.59-.72-.98-1.34-.98h-8.27c-1,0-1.81-.81-1.81-1.81v-11.76c0-.43-.35-.78-.78-.78h-4.82c-.63,0-1.23.24-1.68.69l-5.1,5.05c-.34.34-.35.89,0,1.24l7.05,7.17c.2.2.2.53,0,.73-.2.2-.53.2-.73,0l-7.05-7.17c-.74-.75-.72-1.96.02-2.69l5.1-5.05c.64-.64,1.5-.99,2.41-.99h4.82c1,0,1.81.81,1.81,1.81v11.76c0,.43.35.78.78.78h8.27c1.07,0,2.01.69,2.33,1.71l4.1,12.96c.09.27-.06.56-.34.65-.05.02-.1.02-.16.02Z"/>
  <path class="cls-1" d="m22.2,47.23c-7.29,0-13.22-5.93-13.22-13.22,0-1.85.37-3.63,1.11-5.3.12-.26.42-.38.68-.26.26.11.38.42.26.68-.67,1.54-1.02,3.18-1.02,4.88,0,6.72,5.47,12.19,12.19,12.19,5.48,0,10.32-3.69,11.76-8.97.08-.27.36-.43.63-.36.28.07.44.36.36.63-1.57,5.73-6.81,9.74-12.76,9.74Z"/>
</svg>