<?xml version="1.0" encoding="UTF-8"?>
<svg id="iconos" xmlns="http://www.w3.org/2000/svg" viewBox="0 0 50 50">
  <defs>
    <style>
      .cls-1 {
        fill: #1e1f22;
        stroke-width: 0px;
      }
    </style>
  </defs>
  <path class="cls-1" d="m25,47.5c-12.41,0-22.5-10.09-22.5-22.5S12.59,2.5,25,2.5s22.5,10.09,22.5,22.5-10.09,22.5-22.5,22.5Zm0-43.95C13.17,3.54,3.54,13.17,3.54,25s9.63,21.45,21.46,21.45,21.46-9.62,21.46-21.45S36.83,3.54,25,3.54Z"/>
  <path class="cls-1" d="m25,15.37c-1.81,0-3.28-1.47-3.28-3.28s1.47-3.28,3.28-3.28,3.28,1.47,3.28,3.28-1.47,3.28-3.28,3.28Zm0-5.52c-1.23,0-2.24,1-2.24,2.24s1,2.24,2.24,2.24,2.24-1,2.24-2.24-1-2.24-2.24-2.24Z"/>
  <path class="cls-1" d="m29.37,41.05c-.99,0-1.88-.63-2.21-1.56-.96-2.71-1.68-5.46-2.16-8.32-.48,2.86-1.2,5.61-2.16,8.32-.42,1.18-1.79,1.86-2.99,1.42-1.22-.43-1.86-1.77-1.42-2.99,2.18-6.17,2.6-11.36,2.68-16.05-2.87-.26-5.77-.8-8.62-1.63-.6-.17-1.1-.57-1.4-1.12s-.37-1.18-.2-1.78c.36-1.24,1.65-1.96,2.9-1.6,7.3,2.12,14.71,2.16,22.02.11.28-.07.57.09.64.36.08.28-.09.56-.36.64-7.49,2.1-15.1,2.06-22.59-.12-.33-.1-.68-.06-.99.11-.3.17-.52.44-.62.77-.1.33-.06.68.11.99.17.3.44.52.77.62,2.95.86,5.94,1.41,8.9,1.64.27.02.48.25.48.53-.06,4.91-.44,10.35-2.75,16.87-.24.68.12,1.42.79,1.66.66.23,1.43-.13,1.66-.79,1.37-3.88,2.23-7.82,2.62-12.07.02-.27.25-.47.52-.47s.5.21.52.47c.39,4.25,1.25,8.2,2.62,12.07.23.66.99,1.02,1.66.79.67-.24,1.03-.98.79-1.66-1.57-4.42-2.63-8.98-2.75-16.87,0-.28.21-.51.48-.53,2.97-.23,5.96-.78,8.9-1.64.33-.1.61-.32.78-.62.17-.3.21-.65.11-.99-.09-.31-.29-.58-.57-.75-.24-.15-.32-.47-.17-.72.15-.25.47-.33.72-.17.5.3.86.78,1.02,1.34.18.6.1,1.23-.2,1.78s-.8.95-1.4,1.12c-2.84.83-5.74,1.37-8.62,1.63.15,7.45,1.18,11.82,2.68,16.05.43,1.22-.21,2.56-1.42,2.99-.26.09-.52.14-.78.14Z"/>
</svg>