<?xml version="1.0" encoding="UTF-8"?>
<svg id="iconos" xmlns="http://www.w3.org/2000/svg" viewBox="0 0 50 50">
  <defs>
    <style>
      .cls-1 {
        fill: #2e3135;
        stroke-width: 0px;
      }
    </style>
  </defs>
  <path class="cls-1" d="m31.28,47.5h-12.56c-11.37,0-16.22-4.85-16.22-16.22v-12.56C2.5,7.35,7.35,2.5,18.72,2.5h12.56c11.37,0,16.22,4.85,16.22,16.22v12.56c0,11.37-4.85,16.22-16.22,16.22ZM18.72,5.64c-9.66,0-13.08,3.42-13.08,13.08v12.56c0,9.66,3.42,13.08,13.08,13.08h12.56c9.66,0,13.08-3.42,13.08-13.08v-12.56c0-9.66-3.42-13.08-13.08-13.08h-12.56Z"/>
  <path class="cls-1" d="m15.22,31.78c-.33,0-.67-.11-.96-.33-.69-.53-.82-1.51-.29-2.2l4.98-6.47c.6-.78,1.47-1.28,2.44-1.4.97-.12,1.94.14,2.71.74l3.84,3.02c.23.17.57.14.75-.1l4.83-6.22c.53-.69,1.52-.81,2.2-.28.69.53.81,1.52.28,2.2l-4.84,6.24c-1.25,1.58-3.56,1.87-5.15.64l-3.84-3.02c-.14-.11-.31-.11-.39-.1-.1.01-.24.06-.35.2l-4.98,6.47c-.31.4-.77.61-1.24.61Z"/>
</svg>