<?xml version="1.0" encoding="UTF-8"?>
<svg id="iconos" xmlns="http://www.w3.org/2000/svg" viewBox="0 0 50 50">
  <defs>
    <style>
      .cls-1 {
        fill: #2e3135;
        stroke-width: 0px;
      }
    </style>
  </defs>
  <path class="cls-1" d="m33.37,26.57h-16.74c-.87,0-1.57-.7-1.57-1.57s.7-1.57,1.57-1.57h16.74c.87,0,1.57.7,1.57,1.57s-.7,1.57-1.57,1.57Z"/>
  <path class="cls-1" d="m25,34.94c-.87,0-1.57-.7-1.57-1.57v-16.74c0-.87.7-1.57,1.57-1.57s1.57.7,1.57,1.57v16.74c0,.87-.7,1.57-1.57,1.57Z"/>
  <path class="cls-1" d="m31.28,47.5h-12.56c-11.37,0-16.22-4.85-16.22-16.22v-12.56C2.5,7.35,7.35,2.5,18.72,2.5h12.56c11.37,0,16.22,4.85,16.22,16.22v12.56c0,11.37-4.85,16.22-16.22,16.22ZM18.72,5.64c-9.66,0-13.08,3.42-13.08,13.08v12.56c0,9.66,3.42,13.08,13.08,13.08h12.56c9.66,0,13.08-3.42,13.08-13.08v-12.56c0-9.66-3.42-13.08-13.08-13.08h-12.56Z"/>
</svg>