<?xml version="1.0" encoding="UTF-8"?>
<svg id="iconos" xmlns="http://www.w3.org/2000/svg" viewBox="0 0 50 50">
  <defs>
    <style>
      .cls-1 {
        fill: #2e3135;
        stroke-width: 0px;
      }
    </style>
  </defs>
  <path class="cls-1" d="m25,47.5c-12.41,0-22.5-10.09-22.5-22.5S12.59,2.5,25,2.5s22.5,10.09,22.5,22.5-10.09,22.5-22.5,22.5Zm0-41.86C14.32,5.64,5.64,14.32,5.64,25s8.68,19.36,19.36,19.36,19.36-8.68,19.36-19.36S35.68,5.64,25,5.64Z"/>
  <path class="cls-1" d="m33.37,26.57h-16.74c-.87,0-1.57-.7-1.57-1.57s.7-1.57,1.57-1.57h16.74c.87,0,1.57.7,1.57,1.57s-.7,1.57-1.57,1.57Z"/>
  <path class="cls-1" d="m25,34.94c-.87,0-1.57-.7-1.57-1.57v-16.74c0-.87.7-1.57,1.57-1.57s1.57.7,1.57,1.57v16.74c0,.87-.7,1.57-1.57,1.57Z"/>
</svg>