<?xml version="1.0" encoding="UTF-8"?>
<svg id="iconos" xmlns="http://www.w3.org/2000/svg" viewBox="0 0 50 50">
  <defs>
    <style>
      .cls-1 {
        fill: #2e3135;
        stroke-width: 0px;
      }
    </style>
  </defs>
  <path class="cls-1" d="m16.63,34.94h-5.38c-5.64,0-8.75-3.11-8.75-8.75v-14.94C2.5,5.61,5.61,2.5,11.25,2.5h9.57c5.64,0,8.75,3.11,8.75,8.75,0,.87-.7,1.57-1.57,1.57s-1.57-.7-1.57-1.57c0-3.93-1.68-5.61-5.61-5.61h-9.57c-3.93,0-5.61,1.68-5.61,5.61v14.94c0,3.93,1.68,5.61,5.61,5.61h5.38c.87,0,1.57.7,1.57,1.57s-.7,1.57-1.57,1.57Z"/>
  <path class="cls-1" d="m38.75,47.5h-9.57c-5.64,0-8.75-3.11-8.75-8.75v-14.94c0-5.64,3.11-8.75,8.75-8.75h9.57c5.64,0,8.75,3.11,8.75,8.75v14.94c0,5.64-3.11,8.75-8.75,8.75Zm-9.57-29.3c-3.93,0-5.61,1.68-5.61,5.61v14.94c0,3.93,1.68,5.61,5.61,5.61h9.57c3.93,0,5.61-1.68,5.61-5.61v-14.94c0-3.93-1.68-5.61-5.61-5.61h-9.57Z"/>
  <path class="cls-1" d="m37.83,32.85h-6.82c-.87,0-1.57-.7-1.57-1.57s.7-1.57,1.57-1.57h6.82c.87,0,1.57.7,1.57,1.57s-.7,1.57-1.57,1.57Z"/>
  <path class="cls-1" d="m34.42,36.26c-.87,0-1.57-.7-1.57-1.57v-6.82c0-.87.7-1.57,1.57-1.57s1.57.7,1.57,1.57v6.82c0,.87-.7,1.57-1.57,1.57Z"/>
</svg>