<?xml version="1.0" encoding="UTF-8"?>
<svg xmlns="http://www.w3.org/2000/svg" viewBox="0 0 50 50">
  <defs>
    <style>
      .cls-1 {
        fill: none;
        stroke: #000;
        stroke-miterlimit: 10;
        stroke-width: .21px;
      }

      .cls-2 {
        fill: #008acc;
        stroke-width: 0px;
      }
    </style>
  </defs>
  <g id="iconos">
    <g>
      <path class="cls-2" d="m15.38,24.17c-.05-.14-.09-.26-.11-.34-.03-.09-.04-.13-.04-.13,0,0-.01.04-.04.13-.03.09-.07.2-.12.34s-.1.26-.14.36l-.26.69h1.09l-.25-.69c-.03-.1-.08-.22-.12-.36Z"/>
      <path class="cls-2" d="m35.6,24.62c-.12-.11-.28-.16-.48-.16s-.37.05-.49.17c-.13.11-.2.26-.21.45h1.37c0-.19-.07-.34-.19-.45Z"/>
      <path class="cls-2" d="m18.73,24.5c-.23,0-.42.08-.56.23-.14.15-.21.36-.21.61s.07.45.21.61c.14.16.33.23.56.23s.42-.08.56-.23c.14-.16.22-.36.22-.61s-.07-.45-.21-.6c-.14-.15-.33-.22-.56-.22Z"/>
      <path class="cls-2" d="m25.18,24.5c-.23,0-.42.08-.56.23-.14.15-.21.36-.21.61s.07.45.21.61c.14.16.33.23.56.23s.42-.08.56-.23c.14-.16.22-.36.22-.61s-.07-.45-.21-.6c-.14-.15-.33-.22-.56-.22Z"/>
      <path class="cls-2" d="m46.78,23.33L26.67,3.22c-.92-.92-2.41-.92-3.33,0L3.22,23.33c-.92.92-.92,2.41,0,3.33l20.12,20.12c.92.92,2.41.92,3.33,0l20.12-20.12c.92-.92.92-2.41,0-3.33Zm-30.51,3.38l-.32-.9h-1.5l-.33.9h-.74l1.47-3.93h.73l1.46,3.93h-.76Zm3.92,0h-.57l-.05-.4c-.09.14-.22.26-.4.35s-.37.13-.58.13c-.39,0-.71-.14-.96-.4-.25-.27-.37-.62-.37-1.06s.12-.79.37-1.05.57-.4.96-.4c.41,0,.72.12.92.37v-1.76h.68v4.21Zm2.19,0h-.68l-1.08-2.74h.73l.31.83.4,1.17c.18-.5.32-.89.43-1.17l.33-.83h.71l-1.14,2.74Zm4.26,0h-.66v-.38c-.09.14-.23.25-.4.34-.18.09-.37.13-.58.13-.39,0-.7-.13-.94-.4-.24-.26-.36-.61-.36-1.04s.13-.79.38-1.06c.25-.27.58-.4.98-.4.21,0,.4.04.56.11.17.08.3.18.39.32l.06-.35h.57v2.74Zm3.27,0h-.69v-1.53c0-.45-.18-.67-.55-.67-.19,0-.35.06-.45.18-.11.11-.16.27-.16.46v1.57h-.68v-2.74h.57l.05.33c.09-.13.21-.23.36-.3.16-.08.33-.11.51-.11.32,0,.57.1.75.3.18.2.28.48.28.83v1.69Zm1.46-.76c.13.15.31.23.54.23.18,0,.33-.04.45-.13.12-.09.2-.2.23-.34h.7c-.04.33-.19.58-.44.79-.25.2-.56.3-.93.3-.44,0-.79-.14-1.05-.4-.27-.27-.4-.62-.4-1.06s.13-.79.4-1.05c.27-.27.62-.4,1.05-.4.37,0,.69.1.94.29.25.2.39.46.43.79h-.7c-.04-.16-.12-.27-.24-.36-.12-.09-.26-.13-.44-.13-.22,0-.4.08-.54.23-.14.15-.21.36-.21.62s.07.46.2.61Zm4.65.58c-.25.17-.54.26-.88.26-.43,0-.77-.14-1.03-.4-.26-.27-.39-.62-.39-1.06s.13-.79.39-1.05c.26-.26.6-.39,1.01-.39s.73.12.98.36c.25.25.37.56.37.94,0,.14-.01.25-.03.34h-2.05c.01.21.08.38.22.5.14.13.31.19.53.19.16,0,.3-.04.42-.1s.2-.16.25-.27h.67c-.06.28-.22.51-.46.68Z"/>
    </g>
  </g>
  <g id="guias">
    <rect class="cls-1" x="47.5" y="47.5" width="2.5" height="2.5"/>
    <rect class="cls-1" x="47.5" width="2.5" height="2.5"/>
    <rect class="cls-1" y="47.5" width="2.5" height="2.5"/>
    <rect class="cls-1" width="2.5" height="2.5"/>
  </g>
</svg>