<?xml version="1.0" encoding="UTF-8"?>
<svg xmlns="http://www.w3.org/2000/svg" viewBox="0 0 50 50">
  <defs>
    <style>
      .cls-1 {
        fill: none;
        stroke: #000;
        stroke-miterlimit: 10;
        stroke-width: .21px;
      }

      .cls-2 {
        fill: #1e1f22;
        stroke-width: 0px;
      }
    </style>
  </defs>
  <g id="iconos">
    <g id="beneficio-asistencia-icono">
      <g>
        <path class="cls-2" d="m25,33.19c-.13,0-.25-.05-.35-.14l-2.41-2.36c-.19-.19-.2-.5,0-.7s.5-.2.7,0l2.07,2.02,2.07-2.02c.19-.19.51-.19.7,0s.19.51,0,.7l-2.41,2.36c-.1.09-.22.14-.35.14Z"/>
        <path class="cls-2" d="m25,47.5c-.13,0-.25-.05-.35-.15l-3.59-3.62c-.12-.12-.17-.28-.13-.44l2.39-11.87c.05-.27.3-.44.58-.39.27.05.44.31.39.58l-2.34,11.61,3.4,3.43c.19.19.19.51,0,.7-.1.09-.22.14-.35.14Z"/>
        <path class="cls-2" d="m25,47.5c-.13,0-.25-.05-.35-.14-.19-.19-.19-.51,0-.7l3.4-3.43-2.34-11.61c-.05-.27.12-.53.39-.58.27-.05.53.12.58.39l2.39,11.87c.03.16-.02.33-.13.44l-3.58,3.62c-.1.1-.22.15-.35.15Z"/>
      </g>
      <path class="cls-2" d="m31.61,42.04c-.23,0-.44-.16-.48-.39-.05-.27.12-.53.38-.58l9.03-1.87-1.16-5.81c-.25-1.28-.95-2.44-1.96-3.27-.64-.53-1.27-.86-1.87-.99l-5.4-1.57c-.16-.04-.32-.12-.47-.22-.4-.27-.67-.7-.72-1.19l-.25-2.12c-.02-.17.05-.34.19-.45,1.38-1.08,2.8-3.93,2.97-4.68.16-.67.18-2.62.19-4.19v-.66c0-.06.18-4.09-2.15-6.53-1.19-1.25-2.84-1.88-4.91-1.88s-3.72.63-4.92,1.88c-2.34,2.44-2.19,6.48-2.19,6.52,0,1.12.04,4.12.24,4.84.29,1.05,1.56,3.59,2.98,4.69.14.11.21.28.19.45l-.25,2.13c-.05.48-.32.91-.72,1.19-.14.1-.3.17-.47.22l-5.37,1.56c-.64.14-1.27.47-1.91,1-1.01.83-1.7,1.99-1.96,3.27l-1.16,5.81,9.03,1.87c.27.06.44.32.38.58s-.3.43-.58.38l-9.51-1.97c-.27-.06-.44-.31-.38-.58l1.26-6.29c.3-1.5,1.12-2.86,2.3-3.84.76-.63,1.53-1.03,2.29-1.2l5.34-1.55c.07-.02.13-.05.19-.09.17-.11.28-.29.3-.48l.22-1.86c-1.52-1.32-2.8-3.89-3.11-5.04-.27-.98-.27-4.66-.27-5.08,0-.16-.17-4.47,2.46-7.22,1.39-1.45,3.28-2.19,5.64-2.19s4.25.74,5.63,2.19c2.62,2.75,2.43,7.05,2.42,7.23v.64c-.03,1.79-.04,3.64-.23,4.41-.22.92-1.63,3.73-3.11,5.05l.22,1.86c.02.2.13.37.29.48.06.04.12.07.19.09l5.38,1.56c.73.16,1.5.56,2.26,1.19,1.18.97,2,2.34,2.3,3.84l1.26,6.29c.05.27-.12.53-.38.58l-9.51,1.97s-.07,0-.1,0Z"/>
      <path class="cls-2" d="m28.57,11.51c-.38,0-.77-.02-1.17-.07-1.42-.16-2.61-.73-3.76-1.29-.3-.15-.61-.3-.93-.44-1.19-.54-2.19-.67-2.98-.39-.58.21-1.08.63-1.31,1.12-.12.25-.42.35-.66.23-.25-.12-.35-.42-.23-.66.35-.72,1.05-1.32,1.86-1.62,1.04-.38,2.3-.24,3.73.42.32.15.64.3.95.45,1.12.55,2.18,1.06,3.44,1.2,1.64.18,3-.04,4.28-.69.24-.12.54-.03.66.22s.03.54-.22.66c-1.14.58-2.33.86-3.66.86Z"/>
      <path class="cls-2" d="m25,30.01c-.12,0-.24-.04-.33-.13l-4.38-3.92c-.2-.18-.22-.49-.04-.7.19-.2.5-.22.7-.04l4.05,3.63,4.05-3.63c.2-.18.51-.16.7.04.18.2.16.52-.04.7l-4.38,3.92c-.09.08-.21.13-.33.13Z"/>
      <path class="cls-2" d="m32,36.63c-.23,0-.44-.17-.49-.4-.05-.27.13-.53.4-.58l4.96-.93c.28-.05.53.13.58.4.05.27-.13.53-.4.58l-4.96.93s-.06,0-.09,0Z"/>
      <g>
        <path class="cls-2" d="m15.27,14.5c-.26,0-.48-.21-.49-.47,0-.22-.21-5.38,3.01-8.75,1.76-1.84,4.19-2.78,7.22-2.78s5.47.93,7.22,2.78c3.2,3.37,2.97,8.52,2.96,8.73-.01.27-.25.47-.52.47-.27-.02-.48-.25-.47-.52,0-.05.21-4.95-2.69-8-1.56-1.64-3.74-2.47-6.5-2.47s-4.94.83-6.51,2.47c-2.92,3.06-2.74,7.98-2.74,8.02.01.27-.2.5-.47.52h-.02Z"/>
        <path class="cls-2" d="m15.38,19.53h-.5c-1.06,0-1.93-.86-1.93-1.93v-2.17c0-1.06.86-1.93,1.93-1.93h.5c1.06,0,1.93.86,1.93,1.93v2.17c0,1.06-.86,1.93-1.93,1.93Zm-.5-5.04c-.52,0-.94.42-.94.94v2.17c0,.52.42.94.94.94h.5c.52,0,.94-.42.94-.94v-2.17c0-.52-.42-.94-.94-.94h-.5Z"/>
        <path class="cls-2" d="m35.41,19.53h-.51c-1.06,0-1.93-.86-1.93-1.93v-2.17c0-1.06.86-1.93,1.93-1.93h.51c1.06,0,1.93.86,1.93,1.93v2.17c0,1.06-.86,1.93-1.93,1.93Zm-.51-5.04c-.52,0-.94.42-.94.94v2.17c0,.52.42.94.94.94h.51c.52,0,.94-.42.94-.94v-2.17c0-.52-.42-.94-.94-.94h-.51Z"/>
      </g>
      <path class="cls-2" d="m29.33,22.56c-1.54,0-3.31-.32-4.64-1.28-.22-.16-.27-.47-.11-.69.16-.22.47-.27.69-.11,2.07,1.5,5.53,1.13,6.56.73.99-.38,2.44-1.93,2.62-2.36.1-.25.39-.38.64-.27.25.1.37.39.27.64-.3.73-1.98,2.44-3.18,2.91-.6.23-1.66.42-2.85.42Z"/>
      <path class="cls-2" d="m24.98,22.17c-.71,0-1.29-.58-1.29-1.29s.58-1.29,1.29-1.29,1.29.58,1.29,1.29-.58,1.29-1.29,1.29Zm0-1.58c-.16,0-.3.13-.3.3,0,.33.6.33.6,0,0-.16-.14-.3-.3-.3Z"/>
    </g>
  </g>
  <g id="guias">
    <rect class="cls-1" x="47.5" y="47.5" width="2.5" height="2.5"/>
    <rect class="cls-1" x="47.5" width="2.5" height="2.5"/>
    <rect class="cls-1" y="47.5" width="2.5" height="2.5"/>
    <rect class="cls-1" width="2.5" height="2.5"/>
  </g>
</svg>