<?xml version="1.0" encoding="UTF-8"?>
<svg id="iconos" xmlns="http://www.w3.org/2000/svg" viewBox="0 0 50 50">
  <defs>
    <style>
      .cls-1 {
        fill: #2e3135;
        stroke-width: 0px;
      }
    </style>
  </defs>
  <path class="cls-1" d="m25,28.66c-1.64,0-3.2-.63-4.38-1.81-1.53-1.53-2.14-3.73-1.63-5.87.54-2.2,2.3-3.95,4.48-4.49,2.16-.52,4.36.1,5.89,1.63,1.53,1.53,2.14,3.72,1.63,5.87-.52,2.19-2.28,3.96-4.49,4.49-.5.12-1.01.18-1.51.18Zm0-9.21c-.26,0-.52.03-.78.09-1.03.26-1.91,1.13-2.17,2.18-.26,1.08.03,2.15.8,2.91.76.76,1.83,1.05,2.93.79,1.05-.26,1.92-1.12,2.16-2.16,0,0,0,0,0,0,.26-1.1-.03-2.16-.8-2.93-.58-.58-1.34-.89-2.15-.89Z"/>
  <path class="cls-1" d="m12.48,37.51c-.38,0-.76-.14-1.07-.42-4.06-3.75-6.39-9.08-6.39-14.62C5.02,11.46,13.98,2.5,25,2.5s19.98,8.96,19.98,19.98c0,5.57-2.25,10.74-6.32,14.55-.63.59-1.63.56-2.22-.07-.59-.63-.56-1.63.07-2.22,3.43-3.21,5.32-7.56,5.32-12.25,0-9.28-7.55-16.84-16.84-16.84S8.16,13.19,8.16,22.48c0,4.66,1.96,9.15,5.38,12.31.64.59.67,1.58.09,2.22-.31.33-.73.5-1.15.5Z"/>
  <path class="cls-1" d="m33.38,31.92c-.38,0-.77-.14-1.07-.42-.63-.59-.67-1.58-.08-2.22,1.74-1.87,2.7-4.29,2.7-6.81,0-5.47-4.45-9.92-9.92-9.92s-9.93,4.45-9.93,9.92c0,2.53.96,4.95,2.7,6.8.59.63.56,1.63-.07,2.22-.63.59-1.63.56-2.22-.07-2.29-2.44-3.55-5.61-3.55-8.95,0-7.2,5.86-13.07,13.07-13.07s13.06,5.86,13.06,13.07c0,3.31-1.26,6.49-3.54,8.94-.31.33-.73.5-1.15.5Z"/>
  <path class="cls-1" d="m27.99,47.5h-6.01c-2.38,0-4.49-1.33-5.52-3.47-1.03-2.14-.75-4.63.73-6.5l3.02-3.75c1.17-1.46,2.91-2.3,4.78-2.3h.02c1.87,0,3.6.85,4.75,2.31l3.01,3.74c1.49,1.84,1.78,4.32.76,6.47-1.03,2.16-3.15,3.5-5.54,3.5Zm-3-12.87c-.91,0-1.76.41-2.33,1.12,0,0,0,0,0,0l-3.02,3.75c-.73.92-.87,2.11-.36,3.17.51,1.06,1.52,1.69,2.69,1.69h6.01c1.19,0,2.2-.64,2.71-1.71.51-1.06.37-2.24-.37-3.15l-3.02-3.75c-.57-.72-1.4-1.12-2.31-1.13h0Zm-3.56.14h.02-.02Z"/>
</svg>