<?xml version="1.0" encoding="UTF-8"?>
<svg id="iconos" xmlns="http://www.w3.org/2000/svg" viewBox="0 0 50 50">
  <defs>
    <style>
      .cls-1 {
        fill: #2e3135;
        stroke-width: 0px;
      }
    </style>
  </defs>
  <path class="cls-1" d="m31.53,47.5h-13.06c-8.42,0-13.48-1.66-14.41-10.13-.18-1.21-.26-2.66-.26-4.53v-15.7c0-1.8.08-3.28.25-4.54.95-8.5,5.81-10.11,14.43-10.11h13.08c8.63,0,13.48,1.62,14.41,10.15.21,1.42.24,3.08.24,4.5v15.7c0,1.82-.08,3.27-.24,4.55-.96,8.48-5.81,10.1-14.43,10.1ZM18.47,5.64c-8.9,0-10.7,1.93-11.31,7.36-.15,1.14-.22,2.49-.22,4.16v15.7c0,1.71.08,3.02.24,4.13.6,5.46,2.4,7.38,11.3,7.38h13.06c8.9,0,10.7-1.92,11.31-7.33.15-1.16.22-2.52.22-4.18v-15.7c0-1.31-.02-2.82-.21-4.1-.6-5.48-2.4-7.41-11.3-7.41h-13.08Z"/>
  <path class="cls-1" d="m44.32,20.12h-8.58c-.87,0-1.57-.7-1.57-1.57s.7-1.57,1.57-1.57h8.58c.87,0,1.57.7,1.57,1.57s-.7,1.57-1.57,1.57Z"/>
  <path class="cls-1" d="m14.26,20.12H5.68c-.87,0-1.57-.7-1.57-1.57s.7-1.57,1.57-1.57h8.58c.87,0,1.57.7,1.57,1.57s-.7,1.57-1.57,1.57Z"/>
  <path class="cls-1" d="m31.45,24.41h-12.89c-1.56,0-3.08-.64-4.16-1.75-1.09-1.06-1.7-2.53-1.7-4.11,0-3.23,2.63-5.86,5.86-5.86h12.87c1.56,0,3.08.64,4.16,1.75,1.1,1.07,1.72,2.54,1.72,4.11,0,3.23-2.63,5.86-5.86,5.86Zm-12.89-8.58c-1.5,0-2.72,1.22-2.72,2.72,0,.73.28,1.4.78,1.89.53.54,1.22.83,1.94.83h12.89c1.5,0,2.72-1.22,2.72-2.72,0-.71-.29-1.38-.8-1.89-.53-.54-1.22-.83-1.94-.83h-12.87Z"/>
</svg>