<?xml version="1.0" encoding="UTF-8"?>
<svg id="iconos" xmlns="http://www.w3.org/2000/svg" viewBox="0 0 50 50">
  <defs>
    <style>
      .cls-1 {
        fill: #2e3135;
        stroke-width: 0px;
      }
    </style>
  </defs>
  <path class="cls-1" d="m17.7,47.5c-.49,0-.98-.1-1.44-.29-1-.42-1.77-1.26-2.09-2.31l-.93-2.81c-.42-1.28-.04-2.89.9-3.83l4.84-4.86c.05-.07.14-.29.15-.4v-5.26l-9.73,4.2c-1.3.56-2.62.49-3.63-.18-1.01-.67-1.59-1.85-1.59-3.25v-2.75c0-2.09,1.49-4.32,3.39-5.09l11.54-4.98v-6.05c0-2.59,1.82-5.55,4.13-6.73,1.1-.55,2.39-.55,3.47,0,2.33,1.19,4.15,4.14,4.15,6.72v6.05l11.59,5c1.91.8,3.36,2.99,3.36,5.09v2.75c0,1.4-.58,2.58-1.59,3.25-1.01.67-2.33.74-3.62.18l-9.73-4.2v5.27c0,.09.09.29.15.37l4.86,4.88c.94.94,1.32,2.59.89,3.85l-.93,2.82c-.36,1.04-1.14,1.87-2.14,2.28-1,.41-2.12.36-3.08-.11-.11-.06-.22-.13-.31-.21l-4.97-4.18c-.16-.13-.51-.14-.66,0l-4.98,4.19c-.09.08-.19.15-.3.2-.53.27-1.11.41-1.69.41Zm.97-1.83h.02-.02Zm1.12-21.43c.49,0,.96.13,1.37.4.75.49,1.18,1.33,1.18,2.31v6.08c0,.91-.45,2-1.08,2.64l-4.84,4.86c-.09.11-.17.43-.13.57l.94,2.84c.07.22.21.3.29.33.06.03.18.06.32.02l4.78-4.02c1.34-1.15,3.45-1.15,4.8,0l4.76,4.01c.14.03.25,0,.32-.03.09-.04.25-.13.32-.34l.93-2.82c.04-.14-.04-.46-.13-.57l-4.84-4.86c-.64-.6-1.11-1.7-1.11-2.64v-6.08c0-.96.41-1.79,1.14-2.28.73-.49,1.66-.55,2.56-.18l10.5,4.53c.33.14.54.12.6.09.06-.04.15-.23.15-.58v-2.75c0-.8-.68-1.85-1.41-2.15l-11.94-5.15c-.93-.41-1.61-1.43-1.61-2.45v-6.4c0-1.41-1.12-3.21-2.39-3.87-.17-.09-.39-.09-.58,0-1.24.63-2.38,2.49-2.38,3.88v6.4c0,1.01-.67,2.04-1.6,2.45l-11.91,5.14c-.74.3-1.42,1.35-1.42,2.14v2.75c0,.35.09.54.15.58.06.04.28.05.6-.09l10.47-4.52c.39-.17.79-.26,1.18-.26Z"/>
</svg>