<?xml version="1.0" encoding="UTF-8"?>
<svg id="iconos" xmlns="http://www.w3.org/2000/svg" viewBox="0 0 50 50">
  <defs>
    <style>
      .cls-1 {
        fill: #2e3135;
        stroke-width: 0px;
      }
    </style>
  </defs>
  <path class="cls-1" d="m17.9,41.2c-3.05,0-5.52-2.48-5.52-5.53v-14.21h-.4c-5.23,0-9.48-4.25-9.48-9.48S6.75,2.5,11.98,2.5h3.96c4.13,0,7.49,3.36,7.49,7.49v25.68c0,3.05-2.48,5.53-5.53,5.53ZM11.98,5.64c-3.5,0-6.34,2.85-6.34,6.34s2.85,6.34,6.34,6.34h1.97c.87,0,1.57.7,1.57,1.57v15.78c0,1.32,1.07,2.39,2.39,2.39s2.39-1.07,2.39-2.39V9.99c0-2.4-1.95-4.35-4.35-4.35h-3.96Z"/>
  <path class="cls-1" d="m11.98,15.52c-1.95,0-3.54-1.59-3.54-3.54s1.59-3.54,3.54-3.54c.87,0,1.57.7,1.57,1.57s-.7,1.57-1.57,1.57c-.22,0-.4.17-.4.4s.17.4.4.4c.87,0,1.57.7,1.57,1.57s-.7,1.57-1.57,1.57Z"/>
  <path class="cls-1" d="m32.09,41.2c-3.05,0-5.52-2.48-5.52-5.53V9.99c0-4.13,3.36-7.49,7.49-7.49h3.96c5.23,0,9.48,4.25,9.48,9.48s-4.25,9.48-9.48,9.48h-.4v14.21c0,3.05-2.48,5.53-5.52,5.53Zm1.97-35.56c-2.4,0-4.35,1.95-4.35,4.35v25.68c0,1.32,1.07,2.39,2.39,2.39s2.39-1.07,2.39-2.39v-15.78c0-.87.7-1.57,1.57-1.57h1.97c3.5,0,6.34-2.85,6.34-6.34s-2.85-6.34-6.34-6.34h-3.96Z"/>
  <path class="cls-1" d="m38.02,15.52c-.87,0-1.57-.7-1.57-1.57s.7-1.57,1.57-1.57c.22,0,.4-.17.4-.4s-.17-.4-.4-.4c-.87,0-1.57-.7-1.57-1.57s.7-1.57,1.57-1.57c1.95,0,3.54,1.59,3.54,3.54s-1.59,3.54-3.54,3.54Z"/>
  <path class="cls-1" d="m17.67,47.5c-.87,0-1.57-.7-1.57-1.57v-6.28c0-.87.7-1.57,1.57-1.57s1.57.7,1.57,1.57v6.28c0,.87-.7,1.57-1.57,1.57Z"/>
  <path class="cls-1" d="m32.33,47.5c-.87,0-1.57-.7-1.57-1.57v-6.28c0-.87.7-1.57,1.57-1.57s1.57.7,1.57,1.57v6.28c0,.87-.7,1.57-1.57,1.57Z"/>
</svg>