<?xml version="1.0" encoding="UTF-8"?>
<svg id="iconos" xmlns="http://www.w3.org/2000/svg" viewBox="0 0 50 50">
  <defs>
    <style>
      .cls-1 {
        fill: #2e3135;
        stroke-width: 0px;
      }
    </style>
  </defs>
  <path class="cls-1" d="m30.15,41.38c-.48,0-.96-.11-1.39-.34-.11-.06-.21-.12-.3-.2l-3.5-2.97-3.43,2.97c-.1.08-.2.15-.31.2-.81.4-1.74.44-2.56.09-.83-.35-1.47-1.04-1.75-1.91l-.67-2c-.36-1.03-.05-2.37.74-3.15l3.51-3.44-.02-3.03-6.3,2.71c-1.06.45-2.14.39-2.98-.16-.84-.55-1.32-1.52-1.32-2.66v-1.95c0-1.64,1.14-3.36,2.64-4.02l7.93-3.42v-3.99c0-2.05,1.37-4.26,3.18-5.15.89-.45,1.93-.45,2.84,0,1.82.94,3.17,3.15,3.17,5.15v3.99l7.92,3.42c1.5.64,2.64,2.36,2.64,4.02v1.95c0,1.14-.49,2.11-1.33,2.66-.84.56-1.93.61-2.98.16l-6.28-2.7v3.08l3.42,3.41c.78.78,1.09,2.12.72,3.17l-.66,1.99c-.29.86-.93,1.55-1.77,1.89-.37.15-.77.23-1.16.23Zm-9.63-1.73h.02-.02Zm4.48-4.87c.71,0,1.41.22,1.97.67l3.24,2.75.56-1.94-3.41-3.4c-.54-.54-.9-1.41-.9-2.17v-3.87c0-.95.41-1.76,1.11-2.24.71-.48,1.64-.54,2.52-.18l6.95,2.98v-1.85c.01-.39-.37-.98-.72-1.13l-8.26-3.56c-.9-.37-1.58-1.39-1.58-2.4v-4.33c0-.82-.71-1.97-1.45-2.35-.76.37-1.46,1.51-1.46,2.35v4.33c0,.99-.66,2-1.57,2.4l-8.26,3.56c-.35.15-.75.76-.75,1.13v1.83l6.94-2.96c.85-.38,1.77-.33,2.5.14.73.48,1.15,1.3,1.15,2.26v3.87c0,.77-.36,1.64-.9,2.18l-3.5,3.44.67,1.84,3.16-2.67c.55-.46,1.27-.69,1.98-.69Zm4.28-16.82h.03s-.02,0-.03,0Z"/>
  <path class="cls-1" d="m31.28,47.5h-12.56c-11.37,0-16.22-4.85-16.22-16.22v-12.56C2.5,7.35,7.35,2.5,18.72,2.5h12.56c11.37,0,16.22,4.85,16.22,16.22v12.56c0,11.37-4.85,16.22-16.22,16.22ZM18.72,5.64c-9.66,0-13.08,3.42-13.08,13.08v12.56c0,9.66,3.42,13.08,13.08,13.08h12.56c9.66,0,13.08-3.42,13.08-13.08v-12.56c0-9.66-3.42-13.08-13.08-13.08h-12.56Z"/>
</svg>