<?xml version="1.0" encoding="UTF-8"?>
<svg id="iconos" xmlns="http://www.w3.org/2000/svg" viewBox="0 0 50 50">
  <defs>
    <style>
      .cls-1 {
        fill: #2e3135;
        stroke-width: 0px;
      }
    </style>
  </defs>
  <path class="cls-1" d="m45.93,47.5H4.07c-.87,0-1.57-.7-1.57-1.57s.7-1.57,1.57-1.57h41.86c.87,0,1.57.7,1.57,1.57s-.7,1.57-1.57,1.57Z"/>
  <path class="cls-1" d="m43.84,47.5H6.16c-.87,0-1.57-.7-1.57-1.57v-14.65c0-11.25,9.15-20.41,20.41-20.41s20.41,9.15,20.41,20.41v14.65c0,.87-.7,1.57-1.57,1.57Zm-36.1-3.14h34.53v-13.08c0-9.52-7.75-17.27-17.27-17.27S7.73,21.76,7.73,31.28v13.08Z"/>
  <path class="cls-1" d="m25,7.73c-.87,0-1.57-.7-1.57-1.57v-2.09c0-.87.7-1.57,1.57-1.57s1.57.7,1.57,1.57v2.09c0,.87-.7,1.57-1.57,1.57Z"/>
  <path class="cls-1" d="m10.35,11.92c-.4,0-.8-.15-1.11-.46l-2.09-2.09c-.61-.61-.61-1.61,0-2.22s1.61-.61,2.22,0l2.09,2.09c.61.61.61,1.61,0,2.22-.31.31-.71.46-1.11.46Z"/>
  <path class="cls-1" d="m39.65,11.92c-.4,0-.8-.15-1.11-.46-.61-.61-.61-1.61,0-2.22l2.09-2.09c.61-.61,1.61-.61,2.22,0s.61,1.61,0,2.22l-2.09,2.09c-.31.31-.71.46-1.11.46Z"/>
</svg>