<?xml version="1.0" encoding="UTF-8"?>
<svg id="iconos" xmlns="http://www.w3.org/2000/svg" viewBox="0 0 50 50">
  <defs>
    <style>
      .cls-1 {
        fill: #2e3135;
        stroke-width: 0px;
      }
    </style>
  </defs>
  <path class="cls-1" d="m16.67,42.27h-2.18c-4.2,0-6.24-1.95-6.24-5.97V13.7c0-4.01,2.04-5.97,6.24-5.97h2.18c4.2,0,6.24,1.95,6.24,5.97v22.6c0,4.01-2.04,5.97-6.24,5.97Zm-2.18-31.4c-2.63,0-3.1.74-3.1,2.83v22.6c0,2.09.47,2.83,3.1,2.83h2.18c2.63,0,3.1-.74,3.1-2.83V13.7c0-2.09-.47-2.83-3.1-2.83h-2.18Z"/>
  <path class="cls-1" d="m34.46,38.08h-2.18c-4.2,0-6.24-1.95-6.24-5.97v-14.23c0-4.01,2.04-5.97,6.24-5.97h2.18c4.2,0,6.24,1.95,6.24,5.97v14.23c0,4.01-2.04,5.97-6.24,5.97Zm-2.18-23.02c-2.63,0-3.1.74-3.1,2.83v14.23c0,2.09.47,2.83,3.1,2.83h2.18c2.63,0,3.1-.74,3.1-2.83v-14.23c0-2.09-.47-2.83-3.1-2.83h-2.18Z"/>
  <path class="cls-1" d="m9.09,26.57h-5.02c-.87,0-1.57-.7-1.57-1.57s.7-1.57,1.57-1.57h5.02c.87,0,1.57.7,1.57,1.57s-.7,1.57-1.57,1.57Z"/>
  <path class="cls-1" d="m27.09,26.57h-4.19c-.87,0-1.57-.7-1.57-1.57s.7-1.57,1.57-1.57h4.19c.87,0,1.57.7,1.57,1.57s-.7,1.57-1.57,1.57Z"/>
  <path class="cls-1" d="m45.93,26.57h-5.63c-.87,0-1.57-.7-1.57-1.57s.7-1.57,1.57-1.57h5.63c.87,0,1.57.7,1.57,1.57s-.7,1.57-1.57,1.57Z"/>
</svg>