<?xml version="1.0" encoding="UTF-8"?>
<svg id="iconos" xmlns="http://www.w3.org/2000/svg" viewBox="0 0 50 50">
  <defs>
    <style>
      .cls-1 {
        fill: #2e3135;
        stroke-width: 0px;
      }
    </style>
  </defs>
  <path class="cls-1" d="m35.25,41.76H10.56c-.87,0-1.57-.7-1.57-1.57s.7-1.57,1.57-1.57h24.7c2.09,0,2.83-.47,2.83-3.1v-2.18c0-2.63-.74-3.1-2.83-3.1H10.56c-.87,0-1.57-.7-1.57-1.57s.7-1.57,1.57-1.57h24.7c4.01,0,5.97,2.04,5.97,6.24v2.18c0,4.2-1.95,6.24-5.97,6.24Z"/>
  <path class="cls-1" d="m24.79,23.97h-14.23c-.87,0-1.57-.7-1.57-1.57s.7-1.57,1.57-1.57h14.23c2.09,0,2.83-.47,2.83-3.1v-2.18c0-2.63-.74-3.1-2.83-3.1h-14.23c-.87,0-1.57-.7-1.57-1.57s.7-1.57,1.57-1.57h14.23c4.01,0,5.97,2.04,5.97,6.24v2.18c0,4.2-1.95,6.24-5.97,6.24Z"/>
  <path class="cls-1" d="m10.35,47.5c-.87,0-1.57-.7-1.57-1.57V4.07c0-.87.7-1.57,1.57-1.57s1.57.7,1.57,1.57v41.86c0,.87-.7,1.57-1.57,1.57Z"/>
</svg>