<?xml version="1.0" encoding="UTF-8"?>
<svg id="iconos" xmlns="http://www.w3.org/2000/svg" viewBox="0 0 50 50">
  <defs>
    <style>
      .cls-1 {
        fill: #2e3135;
        stroke-width: 0px;
      }
    </style>
  </defs>
  <path class="cls-1" d="m39.44,41.76H14.74c-4.01,0-5.96-2.04-5.96-6.24v-2.18c0-4.2,1.95-6.24,5.96-6.24h24.7c.87,0,1.57.7,1.57,1.57s-.7,1.57-1.57,1.57H14.74c-2.08,0-2.82.47-2.82,3.1v2.18c0,2.63.74,3.1,2.82,3.1h24.7c.87,0,1.57.7,1.57,1.57s-.7,1.57-1.57,1.57Z"/>
  <path class="cls-1" d="m39.44,23.97h-14.23c-4.01,0-5.96-2.04-5.96-6.24v-2.18c0-4.2,1.95-6.24,5.96-6.24h14.23c.87,0,1.57.7,1.57,1.57s-.7,1.57-1.57,1.57h-14.23c-2.08,0-2.82.47-2.82,3.1v2.18c0,2.63.74,3.1,2.82,3.1h14.23c.87,0,1.57.7,1.57,1.57s-.7,1.57-1.57,1.57Z"/>
  <path class="cls-1" d="m39.65,47.5c-.87,0-1.57-.7-1.57-1.57V4.07c0-.87.7-1.57,1.57-1.57s1.57.7,1.57,1.57v41.86c0,.87-.7,1.57-1.57,1.57Z"/>
</svg>