<?xml version="1.0" encoding="UTF-8"?>
<svg id="iconos" xmlns="http://www.w3.org/2000/svg" viewBox="0 0 50 50">
  <defs>
    <style>
      .cls-1 {
        fill: #2e3135;
        stroke-width: 0px;
      }
    </style>
  </defs>
  <path class="cls-1" d="m35.53,41.22h-2.18c-4.2,0-6.24-1.95-6.24-5.97V10.56c0-.87.7-1.57,1.57-1.57s1.57.7,1.57,1.57v24.7c0,2.09.47,2.83,3.1,2.83h2.18c2.63,0,3.1-.74,3.1-2.83V10.56c0-.87.7-1.57,1.57-1.57s1.57.7,1.57,1.57v24.7c0,4.01-2.04,5.97-6.24,5.97Z"/>
  <path class="cls-1" d="m17.74,30.76h-2.18c-4.2,0-6.24-1.95-6.24-5.97v-14.23c0-.87.7-1.57,1.57-1.57s1.57.7,1.57,1.57v14.23c0,2.09.47,2.83,3.1,2.83h2.18c2.63,0,3.1-.74,3.1-2.83v-14.23c0-.87.7-1.57,1.57-1.57s1.57.7,1.57,1.57v14.23c0,4.01-2.04,5.97-6.24,5.97Z"/>
  <path class="cls-1" d="m45.93,11.92H4.07c-.87,0-1.57-.7-1.57-1.57s.7-1.57,1.57-1.57h41.86c.87,0,1.57.7,1.57,1.57s-.7,1.57-1.57,1.57Z"/>
</svg>