<?xml version="1.0" encoding="UTF-8"?>
<svg id="iconos" xmlns="http://www.w3.org/2000/svg" viewBox="0 0 50 50">
  <defs>
    <style>
      .cls-1 {
        fill: #2e3135;
        stroke-width: 0px;
      }
    </style>
  </defs>
  <path class="cls-1" d="m36.3,41.74H13.7c-4.01,0-5.97-2.04-5.97-6.24v-2.18c0-4.2,1.95-6.24,5.97-6.24h22.6c4.01,0,5.96,2.04,5.96,6.24v2.18c0,4.2-1.95,6.24-5.96,6.24Zm-22.6-11.51c-2.09,0-2.83.47-2.83,3.1v2.18c0,2.63.74,3.1,2.83,3.1h22.6c2.08,0,2.82-.47,2.82-3.1v-2.18c0-2.63-.74-3.1-2.82-3.1H13.7Z"/>
  <path class="cls-1" d="m32.12,23.95h-14.23c-4.01,0-5.97-2.04-5.97-6.24v-2.18c0-4.2,1.95-6.24,5.97-6.24h14.23c4.01,0,5.96,2.04,5.96,6.24v2.18c0,4.2-1.95,6.24-5.96,6.24Zm-14.23-11.51c-2.09,0-2.83.47-2.83,3.1v2.18c0,2.63.74,3.1,2.83,3.1h14.23c2.08,0,2.82-.47,2.82-3.1v-2.18c0-2.63-.74-3.1-2.82-3.1h-14.23Z"/>
  <path class="cls-1" d="m25,47.5c-.87,0-1.57-.7-1.57-1.57v-5.02c0-.87.7-1.57,1.57-1.57s1.57.7,1.57,1.57v5.02c0,.87-.7,1.57-1.57,1.57Z"/>
  <path class="cls-1" d="m25,28.66c-.87,0-1.57-.7-1.57-1.57v-4.19c0-.87.7-1.57,1.57-1.57s1.57.7,1.57,1.57v4.19c0,.87-.7,1.57-1.57,1.57Z"/>
  <path class="cls-1" d="m25,11.27c-.87,0-1.57-.7-1.57-1.57v-5.63c0-.87.7-1.57,1.57-1.57s1.57.7,1.57,1.57v5.63c0,.87-.7,1.57-1.57,1.57Z"/>
</svg>