<?xml version="1.0" encoding="UTF-8"?>
<svg id="iconos" xmlns="http://www.w3.org/2000/svg" viewBox="0 0 50 50">
  <defs>
    <style>
      .cls-1 {
        fill: #1e1f22;
        stroke-width: 0px;
      }
    </style>
  </defs>
  <path class="cls-1" d="m21,47.5c-1.93,0-3.5-1.57-3.5-3.5v-6c0-.83.67-1.5,1.5-1.5h4c.83,0,1.5.67,1.5,1.5v6c0,1.93-1.57,3.5-3.5,3.5Zm-.5-8v4.5c0,.16.12.5.5.5s.5-.34.5-.5v-4.5h-1Z"/>
  <path class="cls-1" d="m29,47.5c-1.93,0-3.5-1.57-3.5-3.5v-6c0-.83.67-1.5,1.5-1.5h4c.83,0,1.5.67,1.5,1.5v6c0,1.93-1.57,3.5-3.5,3.5Zm-.5-8v4.5c0,.16.12.5.5.5s.5-.34.5-.5v-4.5h-1Z"/>
  <path class="cls-1" d="m31,39.5h-12c-3.03,0-5.5-2.47-5.5-5.5v-10c0-3.03,2.47-5.5,5.5-5.5h12c3.03,0,5.5,2.47,5.5,5.5v10c0,3.03-2.47,5.5-5.5,5.5Zm-12-18c-1.38,0-2.5,1.12-2.5,2.5v10c0,1.38,1.12,2.5,2.5,2.5h12c1.38,0,2.5-1.12,2.5-2.5v-10c0-1.38-1.12-2.5-2.5-2.5h-12Z"/>
  <path class="cls-1" d="m9,35.5c-2.03,0-3.5-1.47-3.5-3.5v-8c0-2.03,1.47-3.5,3.5-3.5s3.5,1.47,3.5,3.5v8c0,2.03-1.47,3.5-3.5,3.5Zm0-12c-.37,0-.5.13-.5.5v8c0,.37.13.5.5.5s.5-.13.5-.5v-8c0-.37-.13-.5-.5-.5Z"/>
  <path class="cls-1" d="m41,35.5c-2.03,0-3.5-1.47-3.5-3.5v-8c0-2.03,1.47-3.5,3.5-3.5s3.5,1.47,3.5,3.5v8c0,2.03-1.47,3.5-3.5,3.5Zm0-12c-.37,0-.5.13-.5.5v8c0,.37.13.5.5.5s.5-.13.5-.5v-8c0-.37-.13-.5-.5-.5Z"/>
  <path class="cls-1" d="m27,39.5h-4c-.83,0-1.5-.67-1.5-1.5s.67-1.5,1.5-1.5h4c.83,0,1.5.67,1.5,1.5s-.67,1.5-1.5,1.5Z"/>
  <path class="cls-1" d="m29.8,17.5h-9.6c-2.64,0-4.7-2.17-4.7-4.93,0-5.55,4.26-10.07,9.5-10.07s9.5,4.52,9.5,10.07c0,2.76-2.06,4.93-4.7,4.93Zm-4.8-12c-3.58,0-6.5,3.17-6.5,7.07,0,1.1.73,1.93,1.7,1.93h9.6c.97,0,1.7-.83,1.7-1.93,0-3.9-2.92-7.07-6.5-7.07Z"/>
</svg>