<?xml version="1.0" encoding="UTF-8"?>
<svg id="iconos" xmlns="http://www.w3.org/2000/svg" viewBox="0 0 50 50">
  <defs>
    <style>
      .cls-1 {
        fill: #1e1f22;
        stroke-width: 0px;
      }
    </style>
  </defs>
  <path class="cls-1" d="m43.63,21.96c-.87,0-1.57-.7-1.57-1.57v-6.14L25,5.82,7.94,14.25v6.14c0,.87-.7,1.57-1.57,1.57s-1.57-.7-1.57-1.57v-7.12c0-.6.34-1.14.87-1.41L24.3,2.66c.44-.22.95-.22,1.39,0l18.63,9.21c.54.26.87.81.87,1.41v7.12c0,.87-.7,1.57-1.57,1.57Z"/>
  <path class="cls-1" d="m25,47.5c-.24,0-.48-.06-.69-.16l-18.63-9.21c-.54-.26-.87-.81-.87-1.41v-7.12c0-.87.7-1.57,1.57-1.57s1.57.7,1.57,1.57v6.14l17.06,8.43,17.06-8.43v-6.14c0-.87.7-1.57,1.57-1.57s1.57.7,1.57,1.57v7.12c0,.6-.34,1.14-.87,1.41l-18.63,9.21c-.22.11-.46.16-.69.16Z"/>
  <path class="cls-1" d="m25,47.5c-.87,0-1.57-.7-1.57-1.57v-11.72c0-.87.7-1.57,1.57-1.57s1.57.7,1.57,1.57v11.72c0,.87-.7,1.57-1.57,1.57Z"/>
  <path class="cls-1" d="m25,35.78c-5.94,0-10.78-4.84-10.78-10.78s4.83-10.78,10.78-10.78,10.78,4.83,10.78,10.78-4.84,10.78-10.78,10.78Zm0-18.42c-4.21,0-7.64,3.43-7.64,7.64s3.43,7.64,7.64,7.64,7.64-3.43,7.64-7.64-3.43-7.64-7.64-7.64Z"/>
</svg>