<?xml version="1.0" encoding="UTF-8"?>
<svg xmlns="http://www.w3.org/2000/svg" viewBox="0 0 50 50">
  <defs>
    <style>
      .cls-1 {
        fill: none;
        stroke: #000;
        stroke-miterlimit: 10;
        stroke-width: .21px;
      }

      .cls-2 {
        fill: #1e1f22;
        stroke-width: 0px;
      }
    </style>
  </defs>
  <g id="iconos">
    <g>
      <g>
        <path class="cls-2" d="m33.66,47.5h-17.32c-2.48,0-4.51-2.02-4.51-4.51V7.01c0-2.48,2.02-4.51,4.51-4.51h17.32c2.48,0,4.51,2.02,4.51,4.51v35.98c0,2.48-2.02,4.51-4.51,4.51ZM16.34,3.55c-1.91,0-3.46,1.55-3.46,3.46v35.98c0,1.91,1.55,3.46,3.46,3.46h17.32c1.91,0,3.46-1.55,3.46-3.46V7.01c0-1.91-1.55-3.46-3.46-3.46h-17.32Z"/>
        <path class="cls-2" d="m25.4,43.6h-.8c-.29,0-.52-.24-.52-.52s.24-.52.52-.52h.8c.29,0,.52.24.52.52s-.24.52-.52.52Z"/>
        <path class="cls-2" d="m29.39,7.93h-8.86c-1.17,0-2.12-.95-2.12-2.12v-.27c0-.29.24-.52.52-.52s.52.24.52.52v.27c0,.59.48,1.07,1.07,1.07h8.86c.59,0,1.07-.48,1.07-1.07v-.27c0-.29.24-.52.52-.52s.52.24.52.52v.27c0,1.17-.95,2.12-2.12,2.12Z"/>
      </g>
      <g>
        <polygon class="cls-2" points="17.8 26.99 25 34.18 32.2 26.99 30.53 25.31 25 30.83 21.15 26.99 25 23.13 26.64 24.78 28.32 23.1 25 19.78 17.8 26.99"/>
        <polygon class="cls-2" points="32.2 23.1 25 15.9 17.8 23.1 19.47 24.78 25 19.25 28.85 23.1 25 26.95 23.36 25.31 21.68 26.99 25 30.3 32.2 23.1"/>
      </g>
    </g>
  </g>
  <g id="guias">
    <rect class="cls-1" x="47.5" y="47.5" width="2.5" height="2.5"/>
    <rect class="cls-1" x="47.5" width="2.5" height="2.5"/>
    <rect class="cls-1" y="47.5" width="2.5" height="2.5"/>
    <rect class="cls-1" width="2.5" height="2.5"/>
  </g>
</svg>