<?xml version="1.0" encoding="UTF-8"?>
<svg id="iconos" xmlns="http://www.w3.org/2000/svg" viewBox="0 0 50 50">
  <defs>
    <style>
      .cls-1 {
        fill: #1e1f22;
        stroke-width: 0px;
      }
    </style>
  </defs>
  <path class="cls-1" d="m32.13,47.5c-1.54,0-2.39-.28-3.42-.79l-.18-.07c-.86-.35-1.49-.61-2.89-.61s-2.21.34-3.18.73c-.07.03-.13.05-.2.07-.21.05-.4.12-.59.19-.61.21-1.37.48-2.51.48-3.56,0-6-3.25-7.95-5.86-4.52-6.88-5.42-15.81-2.15-20.84,2.03-3.39,5.6-5.53,9.27-5.53,1.73,0,3.18.49,4.47.92l.77.27c1.69.61,2.6.7,4.43-.03,1.37-.46,2.83-.95,4.97-.95,3.36,0,6.49,1.6,8.58,4.39.28.37.38.84.28,1.29-.1.45-.4.83-.81,1.04-2.34,1.21-3.65,3.49-3.51,6.09.15,2.74,1.88,5.14,4.41,6.12.4.16.72.47.89.86s.16.84-.02,1.24c-.9,2.03-1.58,3.15-2.62,4.8-.02.03-.04.06-.06.09l-.29.39c-1.74,2.4-4.11,5.69-7.68,5.69Zm-6.49-4.6c2.02,0,3.11.45,4.08.84l.27.11c.76.37,1.15.52,2.14.52,1.96,0,3.72-2.43,5.14-4.39l.26-.36c.75-1.2,1.24-2.01,1.74-3-2.85-1.7-4.72-4.74-4.9-8.14-.17-3.19,1.12-6.05,3.52-7.96-1.38-1.22-3.1-1.89-4.92-1.89-1.63,0-2.68.35-3.9.76-1.23.49-2.25.71-3.43.71-1.27,0-2.18-.33-3.14-.67l-.7-.25c-1.17-.39-2.27-.75-3.48-.75-2.58,0-5.11,1.55-6.61,4.05-2.3,3.54-2.14,10.98,2.06,17.38,1.48,1.97,3.39,4.52,5.39,4.52.6,0,.96-.13,1.46-.3.25-.09.5-.18.77-.25,1.09-.44,2.34-.91,4.26-.91Zm13.19-2.41h.02-.02Zm-14-25.62c-.19,0-.39-.01-.58-.03-.7-.06-1.28-.59-1.4-1.28-.43-2.35.3-4.8,2.17-7.29,1.81-2.07,4.51-3.51,6.96-3.76.8-.09,1.56.47,1.7,1.28.59,3.22-1.11,6.08-2.17,7.5-1.38,1.83-3.93,3.58-6.68,3.58Zm5.74-8.8c-1.16.46-2.3,1.24-3.11,2.17-.87,1.16-1.39,2.27-1.54,3.33,1.26-.36,2.4-1.27,3.08-2.17.54-.72,1.31-1.95,1.57-3.33Z"/>
</svg>