<?xml version="1.0" encoding="UTF-8"?>
<svg id="iconos" xmlns="http://www.w3.org/2000/svg" viewBox="0 0 50 50">
  <defs>
    <style>
      .cls-1 {
        fill: #1e1f22;
        stroke-width: 0px;
      }
    </style>
  </defs>
  <g id="consignacion-nacional-icono">
    <g>
      <path class="cls-1" d="m28.08,13.16H3.03c-.24,0-.45-.16-.51-.4s.05-.48.26-.59l12.53-6.95c.16-.09.35-.09.51,0l12.53,6.95c.21.12.32.36.26.59s-.27.4-.51.4Zm-23.01-1.06h20.97l-10.49-5.81-10.49,5.81Z"/>
      <path class="cls-1" d="m26.28,14.73H4.83c-.29,0-.53-.24-.53-.53v-1.56c0-.29.24-.53.53-.53s.53.24.53.53v1.04h20.39v-1.04c0-.29.24-.53.53-.53s.53.24.53.53v1.56c0,.29-.24.53-.53.53Z"/>
      <path class="cls-1" d="m4.83,27.95c-.29,0-.53-.24-.53-.53v-1.99c0-.29.24-.53.53-.53h11.69c.29,0,.53.24.53.53s-.24.53-.53.53H5.36v1.46c0,.29-.24.53-.53.53Z"/>
      <path class="cls-1" d="m8.12,16.75c-.48,0-.89-.28-1.09-.68h-.43c-.2.4-.61.68-1.09.68-.67,0-1.21-.54-1.21-1.21v-1.34c0-.29.24-.53.53-.53h3.97c.29,0,.53.24.53.53v1.34c0,.67-.54,1.21-1.21,1.21Zm-1.92-1.74h1.24c.29,0,.53.24.53.53,0,.17.31.17.31,0v-.81h-2.92v.81c0,.17.31.17.31,0,0-.29.24-.53.53-.53Z"/>
      <path class="cls-1" d="m8.8,25.96h-3.97c-.29,0-.53-.24-.53-.53v-1.33c0-.67.54-1.21,1.21-1.21.48,0,.89.28,1.09.68h.43c.2-.4.61-.68,1.09-.68.67,0,1.21.54,1.21,1.21v1.33c0,.29-.24.53-.53.53Zm-3.44-1.06h2.92v-.81c0-.17-.31-.17-.31,0,0,.29-.24.53-.53.53h-1.24c-.29,0-.53-.24-.53-.53,0-.17-.31-.17-.31,0v.81Z"/>
      <path class="cls-1" d="m16.86,25.96h-3.29c-.29,0-.53-.24-.53-.53v-1.33c0-.67.54-1.21,1.21-1.21.48,0,.89.28,1.09.68h.43c.2-.4.61-.68,1.09-.68.67,0,1.21.54,1.21,1.21v.69c0,.35-.39.61-.7.5.01.05.02.09.02.14,0,.29-.24.53-.53.53Zm-2.76-1.06h2.76c.06,0,.12.01.17.03-.01-.05-.02-.09-.02-.14v-.69c0-.17-.31-.17-.31,0,0,.29-.24.53-.53.53h-1.24c-.29,0-.53-.24-.53-.53,0-.17-.31-.17-.31,0v.81Z"/>
      <path class="cls-1" d="m16.86,16.75c-.48,0-.89-.28-1.09-.68h-.43c-.2.4-.61.68-1.09.68-.67,0-1.21-.54-1.21-1.21v-1.34c0-.29.24-.53.53-.53h3.97c.29,0,.53.24.53.53v1.34c0,.67-.54,1.21-1.21,1.21Zm-1.93-1.74h1.24c.29,0,.53.24.53.53,0,.17.31.17.31,0v-.81h-2.92v.81c0,.17.31.17.31,0,0-.29.24-.53.53-.53Z"/>
      <path class="cls-1" d="m25.6,16.75c-.48,0-.89-.28-1.09-.68h-.43c-.2.4-.61.68-1.09.68-.67,0-1.21-.54-1.21-1.21v-1.34c0-.29.24-.53.53-.53h3.97c.29,0,.53.24.53.53v1.34c0,.67-.54,1.21-1.21,1.21Zm-1.92-1.74h1.24c.29,0,.53.24.53.53,0,.17.31.17.31,0v-.81h-2.92v.81c0,.17.31.17.31,0,0-.29.24-.53.53-.53Z"/>
      <g>
        <path class="cls-1" d="m5.51,23.95c-.29,0-.53-.24-.53-.53v-7.2c0-.29.24-.53.53-.53s.53.24.53.53v7.2c0,.29-.24.53-.53.53Z"/>
        <path class="cls-1" d="m8.12,23.95c-.29,0-.53-.24-.53-.53v-7.2c0-.29.24-.53.53-.53s.53.24.53.53v7.2c0,.29-.24.53-.53.53Z"/>
      </g>
      <path class="cls-1" d="m14.25,23.95c-.29,0-.53-.24-.53-.53v-7.2c0-.29.24-.53.53-.53s.53.24.53.53v7.2c0,.29-.24.53-.53.53Z"/>
      <path class="cls-1" d="m16.86,23.95c-.29,0-.53-.24-.53-.53v-7.2c0-.29.24-.53.53-.53s.53.24.53.53v7.2c0,.29-.24.53-.53.53Z"/>
      <path class="cls-1" d="m22.99,21.5c-.29,0-.53-.24-.53-.53v-4.75c0-.29.24-.53.53-.53s.53.24.53.53v4.75c0,.29-.24.53-.53.53Z"/>
      <path class="cls-1" d="m25.6,23.38c-.29,0-.53-.24-.53-.53v-6.64c0-.29.24-.53.53-.53s.53.24.53.53v6.64c0,.29-.24.53-.53.53Z"/>
      <path class="cls-1" d="m15.55,29.66H3.03c-.29,0-.53-.24-.53-.53,0-1.25.99-2.23,2.19-2.23h9.95c.29,0,.53.24.53.53s-.24.53-.53.53H4.7c-.45,0-.85.27-1.03.65h11.88c.29,0,.53.24.53.53s-.24.53-.53.53Z"/>
    </g>
    <path class="cls-1" d="m30.14,29.8c-.16,0-.32-.07-.42-.21l-.91-1.22c-.09-.13-.13-.29-.09-.45s.15-.28.29-.35c.41-.19,4.04-1.81,5.45-1.81,1.04,0,2.7.41,4.31.81.59.15,1.16.29,1.7.41,1.87.42,4.54.35,4.57.35.32.05.53.22.54.51s-.22.53-.51.54c-.11,0-2.84.07-4.83-.37-.54-.12-1.13-.27-1.72-.41-1.55-.39-3.15-.78-4.06-.78-.85,0-3.1.89-4.41,1.45l.51.68c.18.23.13.56-.11.74-.09.07-.2.11-.32.11Z"/>
    <g>
      <path class="cls-1" d="m26.18,44.84c-.16,0-.33-.08-.43-.22l-11.93-17.03c-.08-.12-.11-.26-.09-.39.02-.14.1-.26.22-.34l9.76-6.84c.24-.16.57-.11.74.13l6.06,8.65c.17.24.11.57-.13.74-.24.16-.57.11-.74-.13l-5.76-8.22-8.9,6.23,11.33,16.17,8.9-6.23-2.83-4.03c-.17-.24-.11-.57.13-.74.24-.16.57-.11.74.13l3.13,4.47c.17.24.11.57-.13.74l-9.76,6.84c-.09.06-.2.09-.3.09Z"/>
      <path class="cls-1" d="m29.23,40.1c-.08,0-.15,0-.23-.02-.34-.06-.64-.25-.84-.54-.2-.28-.28-.63-.22-.97s.25-.65.54-.85c.59-.41,1.4-.27,1.82.32.41.59.27,1.41-.33,1.82-.22.15-.48.23-.74.23Zm-.01-1.55s-.1.01-.13.04h0c-.07.05-.09.12-.1.16,0,.04-.01.11.04.18.05.08.12.1.16.11.03,0,.12.01.19-.04.12-.08.14-.24.06-.35-.04-.06-.13-.09-.22-.09Zm-.43-.4h.01-.01Z"/>
      <path class="cls-1" d="m25.1,36.9c-1.43,0-2.84-.67-3.72-1.93-.69-.99-.96-2.19-.75-3.38s.87-2.23,1.86-2.92c1.71-1.2,4-1.07,5.57.29.22.19.24.52.05.74-.19.22-.53.24-.74.05-1.2-1.05-2.96-1.14-4.27-.22-.76.53-1.27,1.33-1.43,2.24-.16.91.04,1.83.58,2.59,1.1,1.57,3.27,1.95,4.84.85.91-.64,1.45-1.64,1.48-2.76,0-.29.24-.51.53-.51h.01c.29,0,.52.25.51.54-.04,1.43-.76,2.77-1.93,3.6-.79.55-1.69.82-2.59.82Z"/>
      <g>
        <path class="cls-1" d="m24.52,33.93s-.07,0-.1,0c-.26-.03-.49-.16-.67-.38-.38-.48-.25-1.05-.25-1.07.04-.14.2-.23.32-.2.14.04.23.18.2.32,0,.01-.07.35.15.62.09.11.19.18.31.19.12,0,.26-.03.36-.12.14-.11.28-.31.15-.79-.01-.05-.03-.1-.05-.15-.1-.32-.28-.85.27-1.29.47-.38,1.09-.3,1.46.17.34.43.33.96.33.99,0,.14-.12.26-.26.26h0c-.14,0-.26-.13-.26-.27h0s0-.37-.21-.65c-.19-.23-.47-.27-.72-.08-.25.2-.2.38-.09.71.02.06.04.12.06.18.15.58.05,1.03-.32,1.34-.19.16-.42.24-.66.24Z"/>
        <path class="cls-1" d="m23.56,33.97c-.08,0-.15-.04-.21-.1-.09-.12-.07-.28.04-.37l.41-.32c.12-.09.28-.07.37.04.09.12.07.28-.04.37l-.41.32s-.11.06-.16.06Z"/>
      </g>
    </g>
    <path class="cls-1" d="m38.53,35.41c-.58,0-1.52-.35-3.01-.92-1.19-.45-2.53-.96-3.4-1.1-.32-.05-.7-.09-1.1-.13-1.99-.21-4.72-.49-4.72-2.53,0-.54.19-1.01.56-1.34.88-.81,2.46-.67,3.13-.61h.15c.06.01.2.02.42.04,1.06.08,3.88.28,6.67-.08.29-.03.55.17.59.46.04.29-.17.55-.46.59-2.89.37-5.79.16-6.88.08-.34-.02-.35-.01-.59-.04-.45-.04-1.8-.15-2.33.34-.09.09-.22.24-.22.57,0,1.08,2.18,1.31,3.78,1.48.42.05.82.09,1.15.14.98.15,2.32.66,3.61,1.16,1.04.4,2.22.85,2.63.85.92,0,3.08-.73,4.12-1.3,1.26-.69,2.41-.58,2.46-.58.29.03.5.29.47.58-.03.29-.28.52-.58.47h0s-.89-.07-1.85.45c-1.21.66-3.49,1.43-4.63,1.43Z"/>
    <path class="cls-1" d="m46.57,34.36h-.95c-.51,0-.93-.41-.93-.93v-6.12c0-.51.42-.93.93-.93h.95c.51,0,.93.41.93.93v6.12c0,.51-.41.93-.93.93Zm-.82-1.06h.69v-5.86h-.69v5.86Z"/>
  </g>
</svg>