<?xml version="1.0" encoding="UTF-8"?>
<svg id="iconos" xmlns="http://www.w3.org/2000/svg" viewBox="0 0 50 50">
  <defs>
    <style>
      .cls-1 {
        fill: #2e3135;
        stroke-width: 0px;
      }
    </style>
  </defs>
  <path class="cls-1" d="m25,34.94c-.87,0-1.57-.7-1.57-1.57s.7-1.57,1.57-1.57c7.21,0,13.08-5.87,13.08-13.08s-5.87-13.08-13.08-13.08-13.08,5.87-13.08,13.08c0,.87-.7,1.57-1.57,1.57s-1.57-.7-1.57-1.57c0-8.94,7.28-16.22,16.22-16.22s16.22,7.28,16.22,16.22-7.28,16.22-16.22,16.22Z"/>
  <path class="cls-1" d="m25,47.5c-.87,0-1.57-.7-1.57-1.57v-12.56c0-.87.7-1.57,1.57-1.57s1.57.7,1.57,1.57v12.56c0,.87-.7,1.57-1.57,1.57Z"/>
  <path class="cls-1" d="m31.28,41.22h-12.56c-.87,0-1.57-.7-1.57-1.57s.7-1.57,1.57-1.57h12.56c.87,0,1.57.7,1.57,1.57s-.7,1.57-1.57,1.57Z"/>
</svg>