<?xml version="1.0" encoding="UTF-8"?>
<svg xmlns="http://www.w3.org/2000/svg" viewBox="0 0 50 50">
  <defs>
    <style>
      .cls-1 {
        fill: #2e3135;
        stroke-width: 0px;
      }

      .cls-2 {
        fill: none;
        stroke: #000;
        stroke-miterlimit: 10;
        stroke-width: .21px;
      }
    </style>
  </defs>
  <g id="iconos">
    <g>
      <path class="cls-1" d="m39.79,47.5c-1.08,0-2.24-.32-3.38-.96l-10.21-5.67c-.6-.35-1.78-.34-2.38,0l-10.22,5.67c-2.08,1.14-4.19,1.26-5.8.3-1.61-.95-2.53-2.85-2.53-5.21V12.15c0-5.32,4.33-9.65,9.65-9.65h20.17c5.3,0,9.64,4.32,9.67,9.64v29.49c0,2.38-.93,4.29-2.54,5.24-.72.42-1.54.63-2.41.63Zm-14.78-10.03c.98,0,1.95.22,2.73.66l10.2,5.66c1.07.6,2.05.73,2.68.36.63-.37.99-1.29.99-2.53V12.15c-.02-3.59-2.94-6.51-6.53-6.51H14.9c-3.59,0-6.51,2.92-6.51,6.51v29.48c0,1.22.36,2.14.99,2.51.63.37,1.61.25,2.69-.35l10.21-5.67c.78-.44,1.75-.65,2.72-.65Z"/>
      <path class="cls-1" d="m23.09,27.61c-.4,0-.8-.15-1.11-.46l-3.14-3.14c-.61-.61-.61-1.61,0-2.22s1.61-.61,2.22,0l2.03,2.03,7.26-7.26c.61-.61,1.61-.61,2.22,0s.61,1.61,0,2.22l-8.37,8.37c-.31.31-.71.46-1.11.46Z"/>
    </g>
  </g>
  <g id="guias">
    <rect class="cls-2" x="47.5" y="47.5" width="2.5" height="2.5"/>
    <rect class="cls-2" x="47.5" width="2.5" height="2.5"/>
    <rect class="cls-2" y="47.5" width="2.5" height="2.5"/>
    <rect class="cls-2" width="2.5" height="2.5"/>
  </g>
</svg>