<?xml version="1.0" encoding="UTF-8"?>
<svg id="iconos" xmlns="http://www.w3.org/2000/svg" viewBox="0 0 50 50">
  <defs>
    <style>
      .cls-1 {
        fill: #2e3135;
        stroke-width: 0px;
      }
    </style>
  </defs>
  <path class="cls-1" d="m30.22,23.74h-10.46c-.87,0-1.57-.7-1.57-1.57s.7-1.57,1.57-1.57h10.46c.87,0,1.57.7,1.57,1.57s-.7,1.57-1.57,1.57Z"/>
  <path class="cls-1" d="m24.99,29.1c-.87,0-1.57-.7-1.57-1.57v-10.46c0-.87.7-1.57,1.57-1.57s1.57.7,1.57,1.57v10.46c0,.87-.7,1.57-1.57,1.57Z"/>
  <path class="cls-1" d="m39.79,47.5c-1.08,0-2.24-.32-3.38-.96l-10.21-5.67c-.6-.34-1.78-.34-2.39,0l-10.21,5.67c-2.08,1.14-4.19,1.26-5.81.3-1.61-.95-2.53-2.85-2.53-5.21V12.15c0-5.32,4.33-9.65,9.65-9.65h20.17c5.31,0,9.64,4.32,9.67,9.64v29.49c0,2.38-.93,4.29-2.54,5.23-.72.43-1.54.64-2.42.64Zm-14.78-10.03c.98,0,1.95.22,2.73.66l10.2,5.66c1.08.6,2.05.73,2.68.36.63-.37.99-1.29.99-2.53V12.15c-.02-3.58-2.94-6.51-6.53-6.51H14.9c-3.59,0-6.51,2.92-6.51,6.51v29.49c0,1.22.36,2.14.99,2.51.63.37,1.61.24,2.69-.35l10.21-5.67c.78-.44,1.75-.65,2.72-.65Z"/>
</svg>