<?xml version="1.0" encoding="UTF-8"?>
<svg id="iconos" xmlns="http://www.w3.org/2000/svg" viewBox="0 0 50 50">
  <defs>
    <style>
      .cls-1 {
        fill: #2e3135;
        stroke-width: 0px;
      }
    </style>
  </defs>
  <path class="cls-1" d="m33.37,47.5h-16.74c-7.65,0-12.03-4.39-12.03-12.03V14.53c0-7.65,4.39-12.03,12.03-12.03h16.74c7.65,0,12.03,4.39,12.03,12.03v20.93c0,7.65-4.39,12.03-12.03,12.03ZM16.63,5.64c-5.98,0-8.9,2.91-8.9,8.9v20.93c0,5.98,2.91,8.9,8.9,8.9h16.74c5.98,0,8.9-2.91,8.9-8.9V14.53c0-5.98-2.91-8.9-8.9-8.9h-16.74Z"/>
  <path class="cls-1" d="m31.28,23.14c-.64,0-1.27-.23-1.76-.68l-4.52-4.17-4.5,4.16c-.78.71-1.9.88-2.84.46-.96-.43-1.55-1.34-1.55-2.39V4.07c0-.87.7-1.57,1.57-1.57h14.65c.87,0,1.57.7,1.57,1.57v16.45c0,1.05-.59,1.96-1.55,2.39-.34.15-.71.23-1.07.23ZM19.24,5.64v13.7l3.98-3.67c.99-.94,2.57-.93,3.57.01l3.97,3.66V5.64h-11.51Zm5.4,12.33s0,0,0,0h0Zm.72-.01h0s0,0,0,0Z"/>
  <path class="cls-1" d="m36.51,30.76h-8.9c-.87,0-1.57-.7-1.57-1.57s.7-1.57,1.57-1.57h8.9c.87,0,1.57.7,1.57,1.57s-.7,1.57-1.57,1.57Z"/>
  <path class="cls-1" d="m36.51,39.13h-17.79c-.87,0-1.57-.7-1.57-1.57s.7-1.57,1.57-1.57h17.79c.87,0,1.57.7,1.57,1.57s-.7,1.57-1.57,1.57Z"/>
</svg>