<?xml version="1.0" encoding="UTF-8"?>
<svg id="iconos" xmlns="http://www.w3.org/2000/svg" viewBox="0 0 50 50">
  <defs>
    <style>
      .cls-1 {
        fill: #2e3135;
        stroke-width: 0px;
      }
    </style>
  </defs>
  <path class="cls-1" d="m31.28,47.5h-12.56c-11.37,0-16.22-4.85-16.22-16.22v-12.56C2.5,7.35,7.35,2.5,18.72,2.5h12.56c11.37,0,16.22,4.85,16.22,16.22v12.56c0,11.37-4.85,16.22-16.22,16.22ZM18.72,5.64c-9.66,0-13.08,3.42-13.08,13.08v12.56c0,9.66,3.42,13.08,13.08,13.08h12.56c9.66,0,13.08-3.42,13.08-13.08v-12.56c0-9.66-3.42-13.08-13.08-13.08h-12.56Z"/>
  <path class="cls-1" d="m37.56,31.8c-.87,0-1.57-.7-1.57-1.57,0-1.44-1.17-2.62-2.62-2.62h-16.74c-1.44,0-2.62,1.17-2.62,2.62,0,.87-.7,1.57-1.57,1.57s-1.57-.7-1.57-1.57v-14.13c0-3.17,2.58-5.76,5.76-5.76h16.74c3.17,0,5.76,2.58,5.76,5.76v14.13c0,.87-.7,1.57-1.57,1.57Zm-20.93-7.33h16.74c.94,0,1.83.23,2.62.63v-9c0-1.44-1.17-2.62-2.62-2.62h-16.74c-1.44,0-2.62,1.17-2.62,2.62v9c.78-.4,1.67-.63,2.62-.63Z"/>
  <path class="cls-1" d="m39.65,34.42h-2.09c-.87,0-1.57-.7-1.57-1.57s.7-1.57,1.57-1.57h2.09c.87,0,1.57.7,1.57,1.57s-.7,1.57-1.57,1.57Z"/>
  <path class="cls-1" d="m12.44,34.42h-2.09c-.87,0-1.57-.7-1.57-1.57s.7-1.57,1.57-1.57h2.09c.87,0,1.57.7,1.57,1.57s-.7,1.57-1.57,1.57Z"/>
  <path class="cls-1" d="m37.56,30.76c-.87,0-1.57-.7-1.57-1.57v-6.28c0-1.44-1.17-2.62-2.62-2.62h-16.74c-1.44,0-2.62,1.17-2.62,2.62v6.28c0,.87-.7,1.57-1.57,1.57s-1.57-.7-1.57-1.57v-6.28c0-3.17,2.58-5.76,5.76-5.76h16.74c3.17,0,5.76,2.58,5.76,5.76v6.28c0,.87-.7,1.57-1.57,1.57Z"/>
  <path class="cls-1" d="m25,39.65c-3.21,0-5.91-2.24-6.62-5.23h-5.94c-.87,0-1.57-.7-1.57-1.57v-2.62c0-3.17,2.58-5.76,5.76-5.76h16.74c3.17,0,5.76,2.58,5.76,5.76v2.62c0,.87-.7,1.57-1.57,1.57h-5.94c-.71,3-3.41,5.23-6.62,5.23Zm-10.99-8.37h5.76c.87,0,1.57.7,1.57,1.57,0,2.02,1.64,3.66,3.66,3.66s3.66-1.64,3.66-3.66c0-.87.7-1.57,1.57-1.57h5.76v-1.05c0-1.44-1.17-2.62-2.62-2.62h-16.74c-1.44,0-2.62,1.17-2.62,2.62v1.05Z"/>
</svg>