<?xml version="1.0" encoding="UTF-8"?>
<svg xmlns="http://www.w3.org/2000/svg" viewBox="0 0 50 50">
  <defs>
    <style>
      .cls-1 {
        fill: #2e3135;
        stroke-width: 0px;
      }

      .cls-2 {
        fill: none;
        stroke: #000;
        stroke-miterlimit: 10;
        stroke-width: .21px;
      }
    </style>
  </defs>
  <g id="iconos">
    <g>
      <path class="cls-1" d="m4.07,47.5c-.4,0-.8-.15-1.11-.46-.61-.61-.61-1.61,0-2.22L44.82,2.96c.61-.61,1.61-.61,2.22,0s.61,1.61,0,2.22L5.18,47.04c-.31.31-.71.46-1.11.46Z"/>
      <path class="cls-1" d="m39.39,47.49c-1.17,0-2.43-.35-3.68-1.05l-13.63-8.52c-.73-.46-.96-1.43-.5-2.16.46-.74,1.43-.96,2.16-.5l13.56,8.48c1.19.66,2.34.81,3.1.36.76-.45,1.19-1.52,1.19-2.96v-23.02c0-.87.7-1.57,1.57-1.57s1.57.7,1.57,1.57v23.02c0,2.58-1,4.64-2.74,5.67-.78.46-1.66.68-2.61.68Z"/>
      <path class="cls-1" d="m6.83,43.21c-.87,0-1.57-.7-1.57-1.57V12.15c0-5.32,4.33-9.65,9.65-9.65h20.2c2.92,0,5.66,1.31,7.5,3.6.54.67.44,1.66-.24,2.21-.67.54-1.66.44-2.21-.24-1.25-1.55-3.09-2.43-5.06-2.43H14.91c-3.59,0-6.51,2.92-6.51,6.51v29.49c0,.87-.7,1.57-1.57,1.57Z"/>
    </g>
  </g>
  <g id="guias">
    <rect class="cls-2" x="47.5" y="47.5" width="2.5" height="2.5"/>
    <rect class="cls-2" x="47.5" width="2.5" height="2.5"/>
    <rect class="cls-2" y="47.5" width="2.5" height="2.5"/>
    <rect class="cls-2" width="2.5" height="2.5"/>
  </g>
</svg>