<?xml version="1.0" encoding="UTF-8"?>
<svg id="iconos" xmlns="http://www.w3.org/2000/svg" viewBox="0 0 50 50">
  <defs>
    <style>
      .cls-1 {
        fill: #2e3135;
        stroke-width: 0px;
      }
    </style>
  </defs>
  <path class="cls-1" d="m34.42,47.5H15.58c-6.9,0-7.85-3.77-7.85-7.85v-18.38c0-.87.7-1.57,1.57-1.57s1.57.7,1.57,1.57v18.38c0,3.65.62,4.71,4.71,4.71h18.84c4.09,0,4.71-1.06,4.71-4.71v-18.38c0-.87.7-1.57,1.57-1.57s1.57.7,1.57,1.57v18.38c0,4.08-.95,7.85-7.85,7.85Z"/>
  <path class="cls-1" d="m39.65,22.38H10.35c-5.06,0-7.85-2.79-7.85-7.85v-4.19c0-5.06,2.79-7.85,7.85-7.85h29.3c5.06,0,7.85,2.79,7.85,7.85v4.19c0,5.06-2.79,7.85-7.85,7.85ZM10.35,5.64c-3.3,0-4.71,1.41-4.71,4.71v4.19c0,3.3,1.41,4.71,4.71,4.71h29.3c3.3,0,4.71-1.41,4.71-4.71v-4.19c0-3.3-1.41-4.71-4.71-4.71H10.35Z"/>
  <path class="cls-1" d="m28.81,30.76h-7.62c-.87,0-1.57-.7-1.57-1.57s.7-1.57,1.57-1.57h7.62c.87,0,1.57.7,1.57,1.57s-.7,1.57-1.57,1.57Z"/>
</svg>