<?xml version="1.0" encoding="UTF-8"?>
<svg xmlns="http://www.w3.org/2000/svg" viewBox="0 0 50 50">
  <defs>
    <style>
      .cls-1 {
        fill: #2e3135;
        stroke-width: 0px;
      }

      .cls-2 {
        fill: none;
        stroke: #000;
        stroke-miterlimit: 10;
        stroke-width: .21px;
      }
    </style>
  </defs>
  <g id="iconos">
    <g>
      <path class="cls-1" d="m29.42,36.74c-.4,0-.8-.15-1.11-.46-.61-.61-.61-1.61,0-2.22l6.36-6.36c.62-.62,1.61-.61,2.22,0s.61,1.61,0,2.22l-6.36,6.36c-.31.31-.71.46-1.11.46Z"/>
      <path class="cls-1" d="m35.78,30.38H14.22c-.87,0-1.57-.7-1.57-1.57s.7-1.57,1.57-1.57h21.56c.87,0,1.57.7,1.57,1.57s-.7,1.57-1.57,1.57Z"/>
      <path class="cls-1" d="m14.22,22.76c-.4,0-.8-.15-1.11-.46-.61-.61-.61-1.61,0-2.22l6.36-6.36c.61-.61,1.61-.61,2.22,0s.61,1.61,0,2.22l-6.36,6.36c-.31.31-.71.46-1.11.46Z"/>
      <path class="cls-1" d="m35.78,22.76H14.22c-.87,0-1.57-.7-1.57-1.57s.7-1.57,1.57-1.57h21.56c.87,0,1.57.7,1.57,1.57s-.7,1.57-1.57,1.57Z"/>
      <path class="cls-1" d="m25,47.5c-12.41,0-22.5-10.09-22.5-22.5S12.59,2.5,25,2.5s22.5,10.09,22.5,22.5-10.09,22.5-22.5,22.5Zm0-41.86C14.32,5.64,5.64,14.32,5.64,25s8.68,19.36,19.36,19.36,19.36-8.68,19.36-19.36S35.68,5.64,25,5.64Z"/>
    </g>
  </g>
  <g id="guias">
    <rect class="cls-2" x="47.5" y="47.5" width="2.5" height="2.5"/>
    <rect class="cls-2" x="47.5" width="2.5" height="2.5"/>
    <rect class="cls-2" y="47.5" width="2.5" height="2.5"/>
    <rect class="cls-2" width="2.5" height="2.5"/>
  </g>
</svg>