<?xml version="1.0" encoding="UTF-8"?>
<svg xmlns="http://www.w3.org/2000/svg" viewBox="0 0 50 50">
  <defs>
    <style>
      .cls-1 {
        fill: #2e3135;
        stroke-width: 0px;
      }

      .cls-2 {
        fill: none;
        stroke: #000;
        stroke-miterlimit: 10;
        stroke-width: .21px;
      }
    </style>
  </defs>
  <g id="iconos">
    <g>
      <path class="cls-1" d="m39.77,20.91c-.47,0-.93-.18-1.29-.53l-13.48-13.47-13.48,13.47c-.71.71-1.87.71-2.58,0s-.71-1.87,0-2.58L23.71,3.03c.71-.71,1.87-.71,2.58,0l14.77,14.76c.71.71.71,1.87,0,2.58-.36.36-.82.53-1.29.53Z"/>
      <path class="cls-1" d="m25,47.5c-1.01,0-1.82-.82-1.82-1.82V4.74c0-1.01.82-1.82,1.82-1.82s1.82.82,1.82,1.82v40.94c0,1.01-.82,1.82-1.82,1.82Z"/>
    </g>
  </g>
  <g id="guias">
    <rect class="cls-2" x="47.5" y="47.5" width="2.5" height="2.5"/>
    <rect class="cls-2" x="47.5" width="2.5" height="2.5"/>
    <rect class="cls-2" y="47.5" width="2.5" height="2.5"/>
    <rect class="cls-2" width="2.5" height="2.5"/>
  </g>
</svg>