<?xml version="1.0" encoding="UTF-8"?>
<svg xmlns="http://www.w3.org/2000/svg" viewBox="0 0 50 50">
  <defs>
    <style>
      .cls-1 {
        fill: #2e3135;
        stroke-width: 0px;
      }

      .cls-2 {
        fill: none;
        stroke: #000;
        stroke-miterlimit: 10;
        stroke-width: .21px;
      }
    </style>
  </defs>
  <g id="iconos">
    <g>
      <path class="cls-1" d="m25.29,32.99c-.87,0-1.57-.7-1.57-1.57v-4.1c0-6.14,5-11.13,11.13-11.13h4.1c.87,0,1.57.7,1.57,1.57s-.7,1.57-1.57,1.57h-4.1c-4.41,0-7.99,3.59-7.99,7.99v4.1c0,.87-.7,1.57-1.57,1.57Z"/>
      <path class="cls-1" d="m25.31,37.56c-.87,0-1.57-.7-1.57-1.57v-8.64c0-4.41-3.59-8-8-8h-4.1c-.87,0-1.57-.7-1.57-1.57s.7-1.57,1.57-1.57h4.1c6.14,0,11.14,5,11.14,11.14v8.64c0,.87-.7,1.57-1.57,1.57Z"/>
      <path class="cls-1" d="m14.83,23.12c-.4,0-.8-.15-1.11-.46l-3.77-3.77c-.29-.29-.46-.69-.46-1.11s.17-.82.46-1.11l3.77-3.77c.62-.62,1.61-.61,2.22,0s.61,1.61,0,2.22l-2.66,2.66,2.66,2.66c.61.61.61,1.61,0,2.22-.31.31-.71.46-1.11.46Z"/>
      <path class="cls-1" d="m35.17,23.12c-.4,0-.8-.15-1.11-.46-.61-.61-.61-1.61,0-2.22l2.66-2.66-2.66-2.66c-.61-.61-.61-1.61,0-2.22s1.61-.61,2.22,0l3.77,3.77c.61.61.61,1.61,0,2.22l-3.77,3.77c-.31.31-.71.46-1.11.46Z"/>
      <path class="cls-1" d="m31.28,47.5h-12.56c-11.37,0-16.22-4.85-16.22-16.22v-12.56C2.5,7.35,7.35,2.5,18.72,2.5h12.56c11.37,0,16.22,4.85,16.22,16.22v12.56c0,11.37-4.85,16.22-16.22,16.22ZM18.72,5.64c-9.66,0-13.08,3.42-13.08,13.08v12.56c0,9.66,3.42,13.08,13.08,13.08h12.56c9.66,0,13.08-3.42,13.08-13.08v-12.56c0-9.66-3.42-13.08-13.08-13.08h-12.56Z"/>
    </g>
  </g>
  <g id="guias">
    <rect class="cls-2" x="47.5" y="47.5" width="2.5" height="2.5"/>
    <rect class="cls-2" x="47.5" width="2.5" height="2.5"/>
    <rect class="cls-2" y="47.5" width="2.5" height="2.5"/>
    <rect class="cls-2" width="2.5" height="2.5"/>
  </g>
</svg>