<?xml version="1.0" encoding="UTF-8"?>
<svg xmlns="http://www.w3.org/2000/svg" viewBox="0 0 50 50">
  <defs>
    <style>
      .cls-1 {
        fill: #2e3135;
        stroke-width: 0px;
      }

      .cls-2 {
        fill: none;
        stroke: #000;
        stroke-miterlimit: 10;
        stroke-width: .21px;
      }
    </style>
  </defs>
  <g id="iconos">
    <path class="cls-1" d="m24.97,46.23c-4.47,0-8.57-2.82-11.53-7.95l-8.43-14.54c-2.93-5.16-3.3-10.12-1.05-13.99,2.25-3.86,6.74-5.99,12.66-5.99h16.81c5.92,0,10.41,2.13,12.65,6.01,2.24,3.88,1.84,8.83-1.13,13.96l-8.44,14.54c-2.96,5.13-7.06,7.95-11.53,7.95ZM16.62,8.49c-4.17,0-7.21,1.29-8.58,3.64-1.37,2.35-.99,5.64,1.07,9.26l8.42,14.52c2.09,3.61,4.73,5.6,7.45,5.6s5.36-1.99,7.45-5.6l8.44-14.54c2.08-3.61,2.48-6.89,1.13-9.24-1.36-2.35-4.4-3.65-8.56-3.65h-16.81Z"/>
  </g>
  <g id="guias">
    <rect class="cls-2" x="47.5" y="47.5" width="2.5" height="2.5"/>
    <rect class="cls-2" x="47.5" width="2.5" height="2.5"/>
    <rect class="cls-2" y="47.5" width="2.5" height="2.5"/>
    <rect class="cls-2" width="2.5" height="2.5"/>
  </g>
</svg>