<?xml version="1.0" encoding="UTF-8"?>
<svg xmlns="http://www.w3.org/2000/svg" viewBox="0 0 50 50">
  <defs>
    <style>
      .cls-1 {
        fill: #2e3135;
        stroke-width: 0px;
      }

      .cls-2 {
        fill: none;
        stroke: #000;
        stroke-miterlimit: 10;
        stroke-width: .21px;
      }
    </style>
  </defs>
  <g id="iconos">
    <path class="cls-1" d="m33.44,46.21h-16.88c-5.91,0-10.4-2.13-12.63-6s-1.83-8.82,1.13-13.94l8.43-14.52c2.96-5.12,7.05-7.94,11.52-7.94h0c4.47,0,8.56,2.82,11.52,7.95l8.42,14.52c2.96,5.12,3.36,10.08,1.13,13.95s-6.72,6-12.63,6ZM25,8.51c-2.71,0-5.35,1.98-7.44,5.59l-8.43,14.52c-2.08,3.6-2.48,6.88-1.13,9.23,1.36,2.35,4.39,3.64,8.55,3.64h16.88c4.16,0,7.19-1.3,8.55-3.64,1.36-2.35.95-5.63-1.13-9.23l-8.42-14.52c-2.09-3.61-4.73-5.59-7.44-5.59Z"/>
  </g>
  <g id="guias">
    <rect class="cls-2" x="47.5" y="47.5" width="2.5" height="2.5"/>
    <rect class="cls-2" x="47.5" width="2.5" height="2.5"/>
    <rect class="cls-2" y="47.5" width="2.5" height="2.5"/>
    <rect class="cls-2" width="2.5" height="2.5"/>
  </g>
</svg>