<?xml version="1.0" encoding="UTF-8"?>
<svg xmlns="http://www.w3.org/2000/svg" viewBox="0 0 50 50">
  <defs>
    <style>
      .cls-1 {
        fill: #2e3135;
        stroke-width: 0px;
      }

      .cls-2 {
        fill: none;
        stroke: #000;
        stroke-miterlimit: 10;
        stroke-width: .21px;
      }
    </style>
  </defs>
  <g id="iconos">
    <path class="cls-1" d="m34.75,47.5c-2.66,0-5.54-.86-8.49-2.56l-14.54-8.44c-5.13-2.97-7.95-7.06-7.95-11.53s2.82-8.57,7.95-11.53l14.54-8.43c5.16-2.93,10.12-3.3,13.99-1.05,3.86,2.25,5.99,6.74,5.99,12.66v16.81c0,5.92-2.14,10.41-6.01,12.65-1.65.95-3.5,1.43-5.48,1.43Zm-.06-40.28c-1.81,0-3.88.63-6.07,1.88l-14.52,8.42c-3.61,2.09-5.6,4.73-5.6,7.45s1.99,5.36,5.6,7.45l14.54,8.44c3.61,2.09,6.89,2.49,9.24,1.13,2.35-1.36,3.65-4.4,3.65-8.56v-16.81c0-4.17-1.29-7.21-3.65-8.58-.93-.54-2-.81-3.19-.81Z"/>
  </g>
  <g id="guias">
    <rect class="cls-2" x="47.5" y="47.5" width="2.5" height="2.5"/>
    <rect class="cls-2" x="47.5" width="2.5" height="2.5"/>
    <rect class="cls-2" y="47.5" width="2.5" height="2.5"/>
    <rect class="cls-2" width="2.5" height="2.5"/>
  </g>
</svg>