<?xml version="1.0" encoding="UTF-8"?>
<svg xmlns="http://www.w3.org/2000/svg" viewBox="0 0 50 50">
  <defs>
    <style>
      .cls-1 {
        fill: #2e3135;
        stroke-width: 0px;
      }

      .cls-2 {
        fill: none;
        stroke: #000;
        stroke-miterlimit: 10;
        stroke-width: .21px;
      }
    </style>
  </defs>
  <g id="iconos">
    <g>
      <path class="cls-1" d="m21.42,14.55c-.44,0-.89-.17-1.22-.51l-7.36-7.36-7.36,7.36c-.68.68-1.77.68-2.45,0s-.68-1.77,0-2.45L11.61,3.01c.68-.68,1.77-.68,2.45,0l8.59,8.58c.68.68.68,1.77,0,2.45-.34.34-.78.51-1.22.51Z"/>
      <path class="cls-1" d="m12.84,47.5c-.96,0-1.73-.78-1.73-1.73V4.23c0-.96.78-1.73,1.73-1.73s1.73.78,1.73,1.73v41.54c0,.96-.78,1.73-1.73,1.73Z"/>
      <path class="cls-1" d="m37.16,47.5c-.44,0-.89-.17-1.22-.51l-8.59-8.58c-.68-.68-.68-1.77,0-2.45s1.77-.68,2.45,0l7.36,7.36,7.36-7.36c.68-.68,1.77-.68,2.45,0s.68,1.77,0,2.45l-8.58,8.58c-.34.34-.78.51-1.22.51Z"/>
      <path class="cls-1" d="m37.16,47.5c-.96,0-1.73-.78-1.73-1.73V4.23c0-.96.78-1.73,1.73-1.73s1.73.78,1.73,1.73v41.54c0,.96-.78,1.73-1.73,1.73Z"/>
    </g>
  </g>
  <g id="guias">
    <rect class="cls-2" x="47.5" y="47.5" width="2.5" height="2.5"/>
    <rect class="cls-2" x="47.5" width="2.5" height="2.5"/>
    <rect class="cls-2" y="47.5" width="2.5" height="2.5"/>
    <rect class="cls-2" width="2.5" height="2.5"/>
  </g>
</svg>