<?xml version="1.0" encoding="UTF-8"?>
<svg xmlns="http://www.w3.org/2000/svg" viewBox="0 0 50 50">
  <defs>
    <style>
      .cls-1 {
        fill: #2e3135;
        stroke-width: 0px;
      }

      .cls-2 {
        fill: none;
        stroke: #000;
        stroke-miterlimit: 10;
        stroke-width: .21px;
      }
    </style>
  </defs>
  <g id="iconos">
    <g>
      <path class="cls-1" d="m25,47.5c-.87,0-1.57-.7-1.57-1.57v-4.19c0-.87.7-1.57,1.57-1.57s1.57.7,1.57,1.57v4.19c0,.87-.7,1.57-1.57,1.57Z"/>
      <path class="cls-1" d="m25,39.13c-.87,0-1.57-.7-1.57-1.57v-4.19c0-.87.7-1.57,1.57-1.57s1.57.7,1.57,1.57v4.19c0,.87-.7,1.57-1.57,1.57Z"/>
      <path class="cls-1" d="m25,30.76c-.87,0-1.57-.7-1.57-1.57v-6.28c0-8.94,7.28-16.22,16.22-16.22h6.28c.87,0,1.57.7,1.57,1.57s-.7,1.57-1.57,1.57h-6.28c-7.21,0-13.08,5.87-13.08,13.08v6.28c0,.87-.7,1.57-1.57,1.57Z"/>
      <path class="cls-1" d="m25,30.76c-.87,0-1.57-.7-1.57-1.57v-6.28c0-7.21-5.87-13.08-13.08-13.08h-6.28c-.87,0-1.57-.7-1.57-1.57s.7-1.57,1.57-1.57h6.28c8.94,0,16.22,7.28,16.22,16.22v6.28c0,.87-.7,1.57-1.57,1.57Z"/>
      <path class="cls-1" d="m8.26,14.01c-.4,0-.8-.15-1.11-.46l-4.19-4.19c-.61-.61-.61-1.61,0-2.22L7.15,2.96c.61-.61,1.61-.61,2.22,0s.61,1.61,0,2.22l-3.08,3.08,3.08,3.08c.61.61.61,1.61,0,2.22-.31.31-.71.46-1.11.46Z"/>
      <path class="cls-1" d="m41.74,14.01c-.4,0-.8-.15-1.11-.46-.61-.61-.61-1.61,0-2.22l3.08-3.08-3.08-3.08c-.61-.61-.61-1.61,0-2.22s1.61-.61,2.22,0l4.19,4.19c.61.61.61,1.61,0,2.22l-4.19,4.19c-.31.31-.71.46-1.11.46Z"/>
    </g>
  </g>
  <g id="guias">
    <rect class="cls-2" x="47.5" y="47.5" width="2.5" height="2.5"/>
    <rect class="cls-2" x="47.5" width="2.5" height="2.5"/>
    <rect class="cls-2" y="47.5" width="2.5" height="2.5"/>
    <rect class="cls-2" width="2.5" height="2.5"/>
  </g>
</svg>