<?xml version="1.0" encoding="UTF-8"?>
<svg id="iconos" xmlns="http://www.w3.org/2000/svg" viewBox="0 0 50 50">
  <defs>
    <style>
      .cls-1 {
        fill: #1e1f22;
        stroke-width: 0px;
      }
    </style>
  </defs>
  <g>
    <path class="cls-1" d="m35.04,32.22H14.35c-.29,0-.52-.23-.52-.52s.23-.52.52-.52h20.68c.29,0,.52.23.52.52s-.23.52-.52.52Z"/>
    <path class="cls-1" d="m11.32,32.22h-.73c-.29,0-.52-.23-.52-.52s.23-.52.52-.52h.73c.29,0,.52.23.52.52s-.23.52-.52.52Z"/>
  </g>
  <g>
    <path class="cls-1" d="m35.04,35.36H14.35c-.29,0-.52-.23-.52-.52s.23-.52.52-.52h20.68c.29,0,.52.23.52.52s-.23.52-.52.52Z"/>
    <path class="cls-1" d="m11.32,35.36h-.73c-.29,0-.52-.23-.52-.52s.23-.52.52-.52h.73c.29,0,.52.23.52.52s-.23.52-.52.52Z"/>
  </g>
  <g>
    <path class="cls-1" d="m35.04,38.5H14.35c-.29,0-.52-.23-.52-.52s.23-.52.52-.52h20.68c.29,0,.52.23.52.52s-.23.52-.52.52Z"/>
    <path class="cls-1" d="m11.32,38.5h-.73c-.29,0-.52-.23-.52-.52s.23-.52.52-.52h.73c.29,0,.52.23.52.52s-.23.52-.52.52Z"/>
  </g>
  <g>
    <path class="cls-1" d="m35.04,41.64H14.35c-.29,0-.52-.23-.52-.52s.23-.52.52-.52h20.68c.29,0,.52.23.52.52s-.23.52-.52.52Z"/>
    <path class="cls-1" d="m11.32,41.64h-.73c-.29,0-.52-.23-.52-.52s.23-.52.52-.52h.73c.29,0,.52.23.52.52s-.23.52-.52.52Z"/>
  </g>
  <path class="cls-1" d="m37.12,47.5H9.23c-1.15,0-2.08-.96-2.08-2.13V4.68c0-1.2,1.11-2.18,2.47-2.18h27.5c1.36,0,2.47.98,2.47,2.18v3.45c0,.29-.23.52-.52.52s-.52-.23-.52-.52v-3.45c0-.63-.64-1.14-1.42-1.14H9.63c-.78,0-1.42.51-1.42,1.14v40.69c0,.6.46,1.08,1.03,1.08h27.89c.78,0,1.42-.51,1.42-1.14v-17.08c0-.29.23-.52.52-.52s.52.23.52.52v17.08c0,1.2-1.11,2.18-2.47,2.18Z"/>
  <path class="cls-1" d="m37.15,20.13c-.62,0-1.18-.32-1.48-.87-.19-.34-.5-.48-.79-.39-.69.19-1.31.02-1.75-.41-.44-.44-.6-1.06-.44-1.66.11-.38-.02-.69-.29-.84-.62-.35-.94-.91-.94-1.53s.32-1.17.86-1.48c.34-.19.47-.5.39-.79-.19-.69-.03-1.31.41-1.75s1.07-.61,1.66-.44c.38.11.69-.02.84-.28.7-1.24,2.4-1.16,3.01-.08h0l.04.08c.15.26.46.39.75.31.68-.19,1.31-.03,1.75.41s.6,1.06.44,1.66c-.11.38.02.69.29.84.62.35.94.91.94,1.53s-.32,1.18-.86,1.49c-.34.19-.47.5-.39.79.19.69.03,1.31-.41,1.75-.44.44-1.07.6-1.66.44-.38-.11-.69.02-.84.28-.35.62-.91.95-1.53.95Zm-2.11-2.31c.63,0,1.19.32,1.49.85.33.58.95.5,1.19.08.43-.76,1.23-1.09,1.98-.88.43.12.65-.06.73-.15.17-.17.23-.41.17-.64-.23-.84.1-1.64.78-2.03.38-.21.41-.5.41-.62s-.03-.4-.33-.57c-.76-.43-1.09-1.23-.88-1.98.09-.32.03-.56-.14-.73-.09-.09-.31-.26-.64-.17-.84.23-1.64-.1-2.03-.78l-.04-.08c-.24-.42-.91-.42-1.14,0-.43.76-1.23,1.09-1.98.88-.43-.12-.65.06-.73.15-.17.17-.23.41-.17.64.23.84-.1,1.64-.78,2.03-.38.21-.41.5-.41.62s.03.4.33.57c.76.43,1.09,1.23.88,1.98-.09.32-.03.56.14.73.08.08.31.26.64.17.18-.05.36-.07.54-.07Z"/>
  <path class="cls-1" d="m39.01,26.98c-.07,0-.14-.01-.21-.04l-1.94-.84-1.3.8c-.16.1-.36.1-.53.01-.17-.09-.27-.27-.27-.46v-7.81c0-.29.23-.52.52-.52s.52.23.52.52v6.87l.73-.45c.14-.09.33-.1.48-.03l1.46.63v-5.19c0-.29.23-.52.52-.52s.52.23.52.52v5.98c0,.18-.09.34-.23.44-.09.06-.19.09-.29.09Z"/>
</svg>