<?xml version="1.0" encoding="UTF-8"?>
<svg xmlns="http://www.w3.org/2000/svg" viewBox="0 0 50 50">
  <defs>
    <style>
      .cls-1 {
        fill: #2e3135;
        stroke-width: 0px;
      }

      .cls-2 {
        fill: none;
        stroke: #000;
        stroke-miterlimit: 10;
        stroke-width: .21px;
      }
    </style>
  </defs>
  <g id="iconos">
    <g>
      <path class="cls-1" d="m25.43,36.25c-1.47,0-2.95-.56-4.07-1.68-1.09-1.09-1.68-2.53-1.68-4.07s.6-2.99,1.69-4.07l2.95-2.95c.61-.61,1.61-.61,2.22,0s.61,1.61,0,2.22l-2.95,2.95c-.49.49-.76,1.15-.76,1.85s.27,1.36.76,1.85c1.02,1.02,2.68,1.02,3.7,0l4.65-4.65c2.65-2.64,2.64-6.97,0-9.63-2.64-2.64-6.96-2.64-9.63,0l-5.06,5.06c-2.19,2.19-2.19,5.74,0,7.93.61.61.61,1.61,0,2.22s-1.61.61-2.22,0c-3.41-3.41-3.41-8.96,0-12.37l5.06-5.07c3.89-3.87,10.2-3.87,14.07,0,3.87,3.89,3.87,10.2,0,14.07l-4.65,4.65c-1.12,1.12-2.6,1.68-4.07,1.68Z"/>
      <path class="cls-1" d="m31.28,47.5h-12.56c-11.37,0-16.22-4.85-16.22-16.22v-12.56C2.5,7.35,7.35,2.5,18.72,2.5h12.56c11.37,0,16.22,4.85,16.22,16.22v12.56c0,11.37-4.85,16.22-16.22,16.22ZM18.72,5.64c-9.66,0-13.08,3.42-13.08,13.08v12.56c0,9.66,3.42,13.08,13.08,13.08h12.56c9.66,0,13.08-3.42,13.08-13.08v-12.56c0-9.66-3.42-13.08-13.08-13.08h-12.56Z"/>
    </g>
  </g>
  <g id="guias">
    <rect class="cls-2" x="47.5" y="47.5" width="2.5" height="2.5"/>
    <rect class="cls-2" x="47.5" width="2.5" height="2.5"/>
    <rect class="cls-2" y="47.5" width="2.5" height="2.5"/>
    <rect class="cls-2" width="2.5" height="2.5"/>
  </g>
</svg>