<?xml version="1.0" encoding="UTF-8"?>
<svg xmlns="http://www.w3.org/2000/svg" viewBox="0 0 50 50">
  <defs>
    <style>
      .cls-1 {
        fill: #2e3135;
        stroke-width: 0px;
      }

      .cls-2 {
        fill: none;
        stroke: #000;
        stroke-miterlimit: 10;
        stroke-width: .21px;
      }
    </style>
  </defs>
  <g id="iconos">
    <g>
      <path class="cls-1" d="m25.43,36.25c-1.47,0-2.95-.56-4.07-1.68-1.09-1.09-1.68-2.53-1.68-4.07s.6-2.99,1.69-4.07l2.95-2.95c.61-.61,1.61-.61,2.22,0s.61,1.61,0,2.22l-2.95,2.95c-.49.49-.76,1.15-.76,1.85s.27,1.36.76,1.85c1.02,1.02,2.68,1.02,3.7,0l4.65-4.65c2.65-2.64,2.64-6.97,0-9.63-2.64-2.64-6.96-2.64-9.63,0l-5.06,5.06c-2.19,2.19-2.19,5.74,0,7.93.61.61.61,1.61,0,2.22s-1.61.61-2.22,0c-3.41-3.41-3.41-8.96,0-12.37l5.06-5.07c3.89-3.87,10.2-3.87,14.07,0,3.87,3.89,3.87,10.2,0,14.07l-4.65,4.65c-1.12,1.12-2.6,1.68-4.07,1.68Z"/>
      <path class="cls-1" d="m25,47.5c-12.41,0-22.5-10.09-22.5-22.5S12.59,2.5,25,2.5s22.5,10.09,22.5,22.5-10.09,22.5-22.5,22.5Zm0-41.86C14.32,5.64,5.64,14.32,5.64,25s8.68,19.36,19.36,19.36,19.36-8.68,19.36-19.36S35.68,5.64,25,5.64Z"/>
    </g>
  </g>
  <g id="guias">
    <rect class="cls-2" x="47.5" y="47.5" width="2.5" height="2.5"/>
    <rect class="cls-2" x="47.5" width="2.5" height="2.5"/>
    <rect class="cls-2" y="47.5" width="2.5" height="2.5"/>
    <rect class="cls-2" width="2.5" height="2.5"/>
  </g>
</svg>