<?xml version="1.0" encoding="UTF-8"?>
<svg xmlns="http://www.w3.org/2000/svg" viewBox="0 0 50 50">
  <defs>
    <style>
      .cls-1 {
        fill: #2e3135;
        stroke-width: 0px;
      }

      .cls-2 {
        fill: none;
        stroke: #000;
        stroke-miterlimit: 10;
        stroke-width: .21px;
      }
    </style>
  </defs>
  <g id="iconos">
    <g>
      <path class="cls-1" d="m31.28,47.5h-12.56c-11.37,0-16.22-4.85-16.22-16.22v-12.56C2.5,7.35,7.35,2.5,18.72,2.5h12.56c11.37,0,16.22,4.85,16.22,16.22v12.56c0,11.37-4.85,16.22-16.22,16.22ZM18.72,5.64c-9.66,0-13.08,3.42-13.08,13.08v12.56c0,9.66,3.42,13.08,13.08,13.08h12.56c9.66,0,13.08-3.42,13.08-13.08v-12.56c0-9.66-3.42-13.08-13.08-13.08h-12.56Z"/>
      <path class="cls-1" d="m20.02,37.66c-3.31,0-6.01-2.69-6.01-6.01s2.69-6.01,6.01-6.01,6.01,2.69,6.01,6.01-2.69,6.01-6.01,6.01Zm0-8.87c-1.58,0-2.87,1.29-2.87,2.87s1.29,2.87,2.87,2.87,2.87-1.29,2.87-2.87-1.29-2.87-2.87-2.87Z"/>
      <path class="cls-1" d="m24.46,33.22c-.87,0-1.57-.7-1.57-1.57v-15.51c0-.87.7-1.57,1.57-1.57s1.57.7,1.57,1.57v15.51c0,.87-.7,1.57-1.57,1.57Z"/>
      <path class="cls-1" d="m32.39,23.79c-.45,0-.92-.08-1.39-.24l-4.89-1.63c-1.84-.61-3.23-2.54-3.23-4.48v-1.3c0-1.32.55-2.47,1.51-3.16.96-.68,2.22-.84,3.47-.42l4.89,1.63c1.84.61,3.23,2.54,3.23,4.48v1.3c0,1.32-.55,2.48-1.52,3.17-.6.43-1.32.65-2.08.65Zm-5.9-8.32c-.11,0-.2.02-.26.07-.13.09-.2.32-.2.61v1.3c0,.58.54,1.32,1.08,1.5l4.9,1.63c.28.1.52.1.64,0,.13-.09.2-.32.2-.61v-1.3c0-.58-.54-1.32-1.08-1.5l-4.9-1.63s0,0,0,0c-.14-.05-.27-.07-.38-.07Z"/>
    </g>
  </g>
  <g id="guias">
    <rect class="cls-2" x="47.5" y="47.5" width="2.5" height="2.5"/>
    <rect class="cls-2" x="47.5" width="2.5" height="2.5"/>
    <rect class="cls-2" y="47.5" width="2.5" height="2.5"/>
    <rect class="cls-2" width="2.5" height="2.5"/>
  </g>
</svg>