<?xml version="1.0" encoding="UTF-8"?>
<svg xmlns="http://www.w3.org/2000/svg" viewBox="0 0 50 50">
  <defs>
    <style>
      .cls-1 {
        fill: none;
        stroke: #000;
        stroke-miterlimit: 10;
        stroke-width: .21px;
      }

      .cls-2 {
        fill: #1e1f22;
        stroke-width: 0px;
      }
    </style>
  </defs>
  <g id="iconos">
    <g>
      <path class="cls-2" d="m25,47.5c-12.41,0-22.5-10.09-22.5-22.5S12.59,2.5,25,2.5s22.5,10.09,22.5,22.5-10.09,22.5-22.5,22.5Zm0-41.86C14.32,5.64,5.64,14.32,5.64,25s8.68,19.36,19.36,19.36,19.36-8.68,19.36-19.36S35.68,5.64,25,5.64Z"/>
      <path class="cls-2" d="m31.28,24.48c-.58,0-1.13-.32-1.41-.87l-4.8-9.6h-.15l-4.8,9.6c-.39.78-1.33,1.09-2.11.7-.78-.39-1.09-1.33-.7-2.11l5.23-10.47c.27-.53.81-.87,1.4-.87h2.09c.59,0,1.14.34,1.4.87l5.23,10.47c.39.77.07,1.72-.7,2.11-.23.11-.47.17-.7.17Z"/>
      <path class="cls-2" d="m25,39.13c-.28,0-.56-.07-.81-.22l-10.47-6.28c-.7-.42-.96-1.32-.6-2.05l2.09-4.19c.39-.78,1.33-1.09,2.11-.7.78.39,1.09,1.33.7,2.11l-1.44,2.89,8.41,5.05,8.41-5.05-1.44-2.89c-.39-.77-.07-1.72.7-2.11.78-.38,1.72-.08,2.11.7l2.09,4.19c.37.73.11,1.62-.6,2.05l-10.47,6.28c-.25.15-.53.22-.81.22Z"/>
    </g>
  </g>
  <g id="guias">
    <rect class="cls-1" x="47.5" y="47.5" width="2.5" height="2.5"/>
    <rect class="cls-1" x="47.5" width="2.5" height="2.5"/>
    <rect class="cls-1" y="47.5" width="2.5" height="2.5"/>
    <rect class="cls-1" width="2.5" height="2.5"/>
  </g>
</svg>