<?xml version="1.0" encoding="UTF-8"?>
<svg xmlns="http://www.w3.org/2000/svg" viewBox="0 0 50 50">
  <defs>
    <style>
      .cls-1 {
        fill: none;
        stroke: #000;
        stroke-miterlimit: 10;
        stroke-width: .21px;
      }

      .cls-2 {
        fill: #1e1f22;
        stroke-width: 0px;
      }
    </style>
  </defs>
  <g id="iconos">
    <g>
      <path class="cls-2" d="m25,47.5c-12.41,0-22.5-10.09-22.5-22.5S12.59,2.5,25,2.5s22.5,10.09,22.5,22.5-10.09,22.5-22.5,22.5Zm0-41.86C14.32,5.64,5.64,14.32,5.64,25s8.68,19.36,19.36,19.36,19.36-8.68,19.36-19.36S35.68,5.64,25,5.64Z"/>
      <path class="cls-2" d="m30.44,22.59h-10.88c-.57,0-1.09-.31-1.37-.81-.28-.5-.26-1.11.04-1.59l5.44-8.79c.29-.46.79-.74,1.33-.74h0c.54,0,1.05.28,1.33.74l5.44,8.79c.3.48.31,1.09.04,1.59-.28.5-.8.81-1.37.81Zm-8.07-3.14h5.25l-2.62-4.24-2.62,4.24Z"/>
      <path class="cls-2" d="m23.12,35.15h-10.67c-.57,0-1.09-.31-1.37-.81-.28-.5-.26-1.11.04-1.59l5.44-8.79c.29-.47.71-.74,1.35-.74.55,0,1.05.3,1.34.77l5.23,8.79c.29.49.29,1.09.02,1.58-.28.49-.8.79-1.36.79Zm-7.86-3.14h5.1l-2.5-4.2-2.6,4.2Z"/>
      <path class="cls-2" d="m37.56,35.15h-10.67c-.56,0-1.09-.3-1.36-.79-.28-.49-.27-1.09.02-1.58l5.23-8.79c.28-.47.79-.76,1.34-.77.51.01,1.06.28,1.35.74l5.44,8.79c.3.48.31,1.09.04,1.59-.28.5-.8.81-1.37.81Zm-7.91-3.14h5.1l-2.6-4.2-2.5,4.2Z"/>
    </g>
  </g>
  <g id="guias">
    <rect class="cls-1" x="47.5" y="47.5" width="2.5" height="2.5"/>
    <rect class="cls-1" x="47.5" width="2.5" height="2.5"/>
    <rect class="cls-1" y="47.5" width="2.5" height="2.5"/>
    <rect class="cls-1" width="2.5" height="2.5"/>
  </g>
</svg>