<?xml version="1.0" encoding="UTF-8"?>
<svg xmlns="http://www.w3.org/2000/svg" viewBox="0 0 50 50">
  <defs>
    <style>
      .cls-1 {
        fill: #2e3135;
        stroke-width: 0px;
      }

      .cls-2 {
        fill: none;
        stroke: #000;
        stroke-miterlimit: 10;
        stroke-width: .21px;
      }
    </style>
  </defs>
  <g id="iconos">
    <g>
      <path class="cls-1" d="m25.01,47.47c-1.32,0-2.63-.44-3.64-1.32l-3.3-2.82c-.33-.28-1.17-.59-1.62-.59h-3.66c-3.09,0-5.61-2.52-5.61-5.61v-3.58c0-.45-.29-1.28-.56-1.59l-2.84-3.34c-1.71-2.04-1.71-5.22,0-7.26l2.83-3.33c.28-.33.57-1.15.57-1.6v-3.54c0-3.1,2.52-5.61,5.61-5.61h3.62c.45,0,1.28-.3,1.63-.6l3.31-2.83s0,0,0,0c2.07-1.75,5.27-1.74,7.3.01l3.3,2.82c.34.28,1.18.59,1.64.59h3.56c3.09,0,5.61,2.52,5.61,5.61v3.56c0,.45.3,1.28.6,1.64l2.81,3.29c1.75,2.08,1.74,5.28,0,7.31l-2.82,3.3c-.28.34-.59,1.17-.59,1.62v3.56c0,3.09-2.52,5.61-5.61,5.61h-3.56c-.45,0-1.28.3-1.63.6l-3.29,2.81c-1.04.88-2.35,1.31-3.67,1.31ZM12.79,10.42c-1.36,0-2.47,1.11-2.47,2.47v3.54c0,1.19-.55,2.72-1.31,3.62l-2.84,3.34c-.71.85-.71,2.35,0,3.21l2.82,3.32c.75.87,1.32,2.43,1.32,3.63v3.58c0,1.36,1.11,2.47,2.47,2.47h3.66c1.17,0,2.74.57,3.64,1.33l3.32,2.84c.85.74,2.35.73,3.22,0l3.3-2.82c.94-.78,2.47-1.34,3.66-1.34h3.56c1.36,0,2.47-1.11,2.47-2.47v-3.56c0-1.19.56-2.72,1.33-3.64l2.84-3.32c.74-.85.73-2.35,0-3.22l-2.82-3.3c-.78-.94-1.34-2.47-1.34-3.66v-3.56c0-1.36-1.11-2.47-2.47-2.47h-3.56c-1.2,0-2.74-.56-3.67-1.33l-3.32-2.84c-.85-.74-2.35-.73-3.22,0l-3.32,2.84c-.94.78-2.47,1.34-3.66,1.34h-3.62Z"/>
      <polygon class="cls-1" points="30.89 33.92 25 20.65 19.11 33.92 16.24 32.64 23.56 16.14 26.44 16.14 33.76 32.64 30.89 33.92"/>
      <path class="cls-1" d="m28.66,29.35h-7.33c-.87,0-1.57-.7-1.57-1.57s.7-1.57,1.57-1.57h7.33c.87,0,1.57.7,1.57,1.57s-.7,1.57-1.57,1.57Z"/>
    </g>
  </g>
  <g id="guias">
    <rect class="cls-2" x="47.5" y="47.5" width="2.5" height="2.5"/>
    <rect class="cls-2" x="47.5" width="2.5" height="2.5"/>
    <rect class="cls-2" y="47.5" width="2.5" height="2.5"/>
    <rect class="cls-2" width="2.5" height="2.5"/>
  </g>
</svg>