<?xml version="1.0" encoding="UTF-8"?>
<svg id="iconos" xmlns="http://www.w3.org/2000/svg" viewBox="0 0 50 50">
  <defs>
    <style>
      .cls-1 {
        fill: #1e1f22;
        stroke-width: 0px;
      }
    </style>
  </defs>
  <g>
    <g>
      <path class="cls-1" d="m14.42,40.95h-6.9c-.29,0-.52-.24-.52-.52s.24-.52.52-.52h6.9c.29,0,.52.24.52.52s-.24.52-.52.52Z"/>
      <path class="cls-1" d="m23.69,40.95h-6.9c-.29,0-.52-.24-.52-.52s.24-.52.52-.52h6.9c.29,0,.52.24.52.52s-.24.52-.52.52Z"/>
      <path class="cls-1" d="m32.96,40.95h-6.9c-.29,0-.52-.24-.52-.52s.24-.52.52-.52h6.9c.29,0,.52.24.52.52s-.24.52-.52.52Z"/>
      <path class="cls-1" d="m42.23,40.95h-6.9c-.29,0-.52-.24-.52-.52s.24-.52.52-.52h6.9c.29,0,.52.24.52.52s-.24.52-.52.52Z"/>
      <path class="cls-1" d="m12.88,28.9h-5.06c-.49,0-.88-.39-.88-.88v-3.09c0-.49.39-.88.88-.88h5.06c.48,0,.88.39.88.88v3.09c0,.49-.39.88-.88.88Zm-5.06-4.33c-.2,0-.36.16-.36.36v3.09c0,.2.16.36.36.36h5.06c.2,0,.36-.16.36-.36v-3.09c0-.2-.16-.36-.36-.36h-5.06Z"/>
      <path class="cls-1" d="m44.01,47.47H5.99c-1.92,0-3.49-1.56-3.49-3.49v-21.67c0-1.92,1.56-3.49,3.49-3.49h38.03c1.92,0,3.49,1.56,3.49,3.49v21.67c0,1.92-1.56,3.49-3.49,3.49ZM5.99,19.87c-1.34,0-2.44,1.09-2.44,2.44v21.67c0,1.34,1.09,2.44,2.44,2.44h38.03c1.34,0,2.44-1.09,2.44-2.44v-21.67c0-1.34-1.09-2.44-2.44-2.44H5.99Z"/>
      <path class="cls-1" d="m11.23,28.09h-1.86c-.15,0-.26-.12-.26-.26v-2.65c0-.15.12-.26.26-.26h1.86c.15,0,.26.12.26.26v2.65c0,.15-.12.26-.26.26Zm-1.6-.52h1.34v-2.12h-1.34v2.12Z"/>
      <g>
        <path class="cls-1" d="m13.5,27.53h-2.27c-.15,0-.26-.12-.26-.26v-1.54c0-.15.12-.26.26-.26h2.27c.15,0,.26.12.26.26v1.54c0,.15-.12.26-.26.26Zm-2.01-.52h1.75v-1.02h-1.75v1.02Z"/>
        <path class="cls-1" d="m9.36,27.54h-2.16c-.15,0-.26-.12-.26-.26v-1.55c0-.15.12-.26.26-.26h2.16c.15,0,.26.12.26.26v1.55c0,.15-.12.26-.26.26Zm-1.9-.52h1.64v-1.02h-1.64v1.02Z"/>
      </g>
      <path class="cls-1" d="m10.3,25.44c-.15,0-.26-.12-.26-.26v-.89c0-.15.12-.26.26-.26s.26.12.26.26v.89c0,.15-.12.26-.26.26Z"/>
      <path class="cls-1" d="m10.3,28.9c-.15,0-.26-.12-.26-.26v-.81c0-.15.12-.26.26-.26s.26.12.26.26v.81c0,.15-.12.26-.26.26Z"/>
      <g>
        <polygon class="cls-1" points="36.49 26.98 39.67 30.16 42.85 26.98 42.11 26.24 39.67 28.68 37.96 26.98 39.67 25.28 40.39 26 41.13 25.26 39.67 23.8 36.49 26.98"/>
        <polygon class="cls-1" points="42.85 25.26 39.67 22.08 36.49 25.26 37.23 26 39.67 23.56 41.37 25.26 39.67 26.96 38.94 26.24 38.2 26.98 39.67 28.44 42.85 25.26"/>
      </g>
    </g>
    <path class="cls-1" d="m44.01,47.47H5.99c-1.92,0-3.49-1.56-3.49-3.49v-21.67c0-1.92,1.56-3.49,3.49-3.49h38.03c1.92,0,3.49,1.56,3.49,3.49v21.67c0,1.92-1.56,3.49-3.49,3.49ZM5.99,19.87c-1.34,0-2.44,1.09-2.44,2.44v21.67c0,1.34,1.09,2.44,2.44,2.44h38.03c1.34,0,2.44-1.09,2.44-2.44v-21.67c0-1.34-1.09-2.44-2.44-2.44H5.99Z"/>
  </g>
  <path class="cls-1" d="m44.48,17.74c-.13,0-.25-.05-.35-.14-.21-.2-.23-.53-.03-.74,2.79-3.04,2.78-7.78-.02-10.78-2.99-3.2-8.03-3.37-11.23-.37-3.13,2.93-3.37,7.76-.54,11.01.19.22.17.55-.05.74-.21.19-.55.17-.74-.05-3.2-3.67-2.93-9.14.62-12.46,3.62-3.38,9.32-3.2,12.71.42,3.18,3.4,3.19,8.75.03,12.2-.1.11-.25.17-.39.17Z"/>
  <g>
    <path class="cls-1" d="m36,12.66h1.48v.75h-2.73v-.59l1.51-1.62c.19-.2.4-.44.4-.77,0-.36-.24-.58-.6-.58-.42,0-.67.29-.63.69h-.82c-.06-.86.6-1.44,1.5-1.44.83,0,1.4.5,1.4,1.27,0,.62-.36,1.02-.6,1.29l-.91,1.01Z"/>
    <path class="cls-1" d="m41.17,11.86v.7h-.54v.86h-.81v-.86h-1.95v-.63l1.74-2.75h1.03v2.68h.54Zm-1.35,0v-1.68l-1.05,1.68h1.05Z"/>
  </g>
  <path class="cls-1" d="m46.05,17.99h-.02l-1.86-.06c-.29-.01-.52-.25-.51-.54l.06-1.69c.01-.28.24-.51.52-.51h.02c.29.01.52.25.51.54l-.04,1.16,1.34.04c.29.01.52.25.51.54-.01.28-.24.51-.52.51Z"/>
</svg>