<?xml version="1.0" encoding="UTF-8"?>
<svg xmlns="http://www.w3.org/2000/svg" viewBox="0 0 50 50">
  <defs>
    <style>
      .cls-1 {
        fill: none;
        stroke: #000;
        stroke-miterlimit: 10;
        stroke-width: .21px;
      }

      .cls-2 {
        fill: #1e1f22;
        stroke-width: 0px;
      }
    </style>
  </defs>
  <g id="iconos">
    <g>
      <path class="cls-2" d="m13.09,35.39c-.65,0-1.27-.3-1.69-.84-.62-.81-.65-1.94-.09-2.83l11.7-20.06c1.08-1.63,3.36-1.55,4.34-.08l3.09,4.11c1.31,1.97,1.4,4.3.26,6l-6.88,11.05c-.94,1.56-2.74,2.62-4.47,2.62h-5.89c-.12.02-.25.03-.37.03Zm-.43-2.86h.02-.02Zm2-.31h4.7c.64,0,1.41-.48,1.79-1.12l6.92-11.12c.52-.78.27-1.8-.18-2.49l-2.61-3.48-10.61,18.2Zm10.14-18.84s0,0,0,0h0Z"/>
      <path class="cls-2" d="m36.51,35.57h-7.95c-.96,0-1.84-.51-2.28-1.33-.44-.81-.38-1.8.13-2.57l3.93-6.63s.03-.05.04-.07c.49-.73,1.29-1.17,2.14-1.17h0c.85,0,1.65.44,2.14,1.17l4.02,6.77c.47.71.52,1.69.09,2.5-.44.82-1.31,1.33-2.28,1.33Zm-.5-2.22s.02.03.03.05l-.03-.05Zm-6.93-.04l-.02.03s.01-.02.02-.03Zm.52-.88h5.85l-2.93-4.93-2.93,4.93Z"/>
      <path class="cls-2" d="m25,47.5c-12.41,0-22.5-10.09-22.5-22.5S12.59,2.5,25,2.5s22.5,10.09,22.5,22.5-10.09,22.5-22.5,22.5Zm0-41.86C14.32,5.64,5.64,14.32,5.64,25s8.68,19.36,19.36,19.36,19.36-8.68,19.36-19.36S35.68,5.64,25,5.64Z"/>
    </g>
  </g>
  <g id="guias">
    <rect class="cls-1" x="47.5" y="47.5" width="2.5" height="2.5"/>
    <rect class="cls-1" x="47.5" width="2.5" height="2.5"/>
    <rect class="cls-1" y="47.5" width="2.5" height="2.5"/>
    <rect class="cls-1" width="2.5" height="2.5"/>
  </g>
</svg>