<?xml version="1.0" encoding="UTF-8"?>
<svg xmlns="http://www.w3.org/2000/svg" viewBox="0 0 50 50">
  <defs>
    <style>
      .cls-1 {
        fill: none;
        stroke: #000;
        stroke-miterlimit: 10;
        stroke-width: .21px;
      }

      .cls-2 {
        fill: #1e1f22;
        stroke-width: 0px;
      }
    </style>
  </defs>
  <g id="iconos">
    <g>
      <g>
        <path class="cls-2" d="m6.08,18.69c-.38-.08-.79-.11-1.21-.08-1.21.08-2.04.8-2.28,1.97l-.09.4v3.97s1.11,0,1.11,0v-1.9h3.27v1.88h1.07v-.08c0-.41,0-.81,0-1.21,0-.9.01-1.84-.02-2.75-.04-1.1-.77-1.96-1.86-2.19m.81,3.29h-3.3c0-.12.02-.25.02-.37.02-.33.03-.65.1-.95.12-.56.55-.94,1.16-1,.26-.03.51-.03.75,0,.64.07,1.1.5,1.2,1.11.04.28.05.57.06.87,0,.11,0,.22.01.34"/>
        <path class="cls-2" d="m18.69,24.94v-.68c0-.51,0-1.01,0-1.51,0-.23,0-.46-.05-.68-.12-.63-.42-1.13-.88-1.48-.9-.67-2.26-.68-3.17-.02-.89.65-1.22,1.84-.81,2.95.32.89,1,1.42,1.96,1.53.11.01.21.02.32.02.72,0,1.3-.3,1.69-.89v.76h.95Zm-1.03-2.35c0,.9-.61,1.5-1.5,1.5h0c-.44,0-.81-.15-1.08-.42-.28-.28-.42-.67-.41-1.12,0-.89.61-1.48,1.51-1.48,0,0,0,0,.01,0,.43,0,.8.15,1.06.42.27.28.42.66.41,1.11"/>
        <rect class="cls-2" x="19.67" y="18.22" width=".99" height="6.72"/>
        <path class="cls-2" d="m31.19,20.75c-.48-.46-1.14-.69-1.91-.67-1.2.03-2.18.83-2.39,1.94-.24,1.29.34,2.42,1.48,2.87,1.16.46,2.48.08,3.13-.92.01-.02.03-.04.04-.07v1.18h.39v-.08c0-.61.02-1.75,0-2.41-.02-.75-.28-1.39-.75-1.84m.35,1.87c-.02,1.21-.93,2.08-2.17,2.06-1.26-.02-2.13-.9-2.12-2.14.01-1.21.91-2.09,2.15-2.09h0c.61,0,1.16.22,1.55.62.39.39.59.94.58,1.55"/>
        <path class="cls-2" d="m37.4,20.72v-.64h-.38v.08c0,.25,0,.57,0,.9,0,.65,0,1.39-.03,1.9-.06,1.03-.72,1.68-1.78,1.73-1.13.05-1.86-.49-2.05-1.54-.03-.17-.03-.36-.03-.54v-.06c0-.66,0-1.7,0-2.39v-.08s-.39,0-.39,0v.08c0,.18,0,.37,0,.57,0,.77-.01,1.65.02,2.3.03.74.36,1.32.95,1.69.55.34,1.34.45,2.03.28.58-.15,1.03-.47,1.31-.94,0,.09,0,.17,0,.25-.01.31-.02.45-.06.74-.05.44-.26.8-.6,1.07-.44.34-1.13.47-1.77.34-.41-.08-.78-.26-1.08-.53l-.27.23c.07.08.15.16.23.22.43.34.93.51,1.5.51.3,0,.62-.05.97-.14.9-.24,1.45-.97,1.46-1.94.02-1.25.02-2.76.01-4.09"/>
        <path class="cls-2" d="m25.09,18.8h0c-.77-.07-1.56-.05-2.32-.04-.33,0-.68.01-1.02.01h-.08v6.16h.39v-.08c0-.48,0-1.26,0-1.88v-.43s.11,0,.11,0c.12,0,.23,0,.33,0,.25,0,.49,0,.74,0,.56,0,1.15,0,1.72-.05.92-.08,1.54-.77,1.57-1.76.04-1.11-.51-1.85-1.44-1.93m-.32,3.33c-.63.03-1.25.02-1.9.02-.26,0-.52,0-.79,0v-3.03h0c.26,0,.52,0,.78,0,.63,0,1.29,0,1.93.03.85.05,1.32.58,1.32,1.48,0,.92-.49,1.47-1.34,1.51"/>
        <path class="cls-2" d="m13.6,20.08h-1.1l-.02.05s-.08.2-.16.44c-.05.15-.1.29-.12.31-.29.72-.57,1.45-.87,2.2l-.31.78c-.25-.64-.57-1.42-.88-2.17-.23-.55-.45-1.09-.63-1.56l-.02-.05h-1.13l.05.11c.26.61.56,1.32.86,2.01.29.67.59,1.37.83,1.96.32.77.36.8,1.18.8h.03c.25,0,.34-.11.42-.3.29-.71.59-1.42.87-2.11l.26-.62c.08-.19.21-.52.34-.85.13-.34.27-.69.36-.89l.05-.11Z"/>
        <path class="cls-2" d="m5.08,27.49c.59,0,1.04.27,1.34.78.05.09.13.19.23.2.15.02.29.01.44.01.06,0,.11,0,.17,0h.08v-.07c-.18-1.03-1.39-1.81-2.59-1.66-1.33.16-2.17,1.17-2.09,2.52.07,1.24,1.08,2.14,2.4,2.14h.02c1.11,0,2.2-.82,2.23-1.68v-.07s-.06,0-.06,0c-.05,0-.1,0-.15,0-.13,0-.26,0-.39,0-.1.01-.21.08-.26.16-.21.38-.56.66-.99.77-.42.12-.86.06-1.23-.15-.35-.2-.6-.53-.71-.95-.12-.43-.06-.89.16-1.26.3-.5.77-.75,1.4-.75"/>
        <path class="cls-2" d="m9.77,27.82c-.97-.17-1.94.46-2.1,1.38-.1.54,0,1.05.29,1.46.26.37.66.62,1.12.7.13.02.26.03.39.03.81,0,1.54-.44,1.66-1.06v-.08s-.06,0-.06,0c-.05,0-.1,0-.15,0-.13,0-.27,0-.41,0-.07,0-.16.04-.2.09-.25.29-.57.38-1.07.3-.41-.06-.71-.37-.76-.76h2.79v-.05c.17-.99-.45-1.85-1.49-2.03m-1.28,1.37c.11-.39.44-.64.9-.67.55-.03.91.2,1.08.67h-1.98Z"/>
        <path class="cls-2" d="m20.72,27.81c-.96-.13-1.87.49-2.04,1.39-.2,1.04.37,1.95,1.35,2.16.15.03.3.05.45.05.78,0,1.49-.43,1.66-1.06l.02-.08h-.24c-.14,0-.28,0-.42,0-.07,0-.14.04-.18.09-.29.35-.68.36-1.02.32-.43-.05-.79-.4-.81-.78h2.81v-.06c.12-1.07-.51-1.88-1.56-2.03m-1.23,1.38c.07-.34.46-.65.88-.67.56-.03.93.2,1.11.67h-1.98Z"/>
        <path class="cls-2" d="m18.36,29.88h-.7l-.02.14c0,.06-.02.12-.03.18-.05.3-.25.47-.56.48-.22,0-.6-.04-.63-.43-.03-.39-.02-.78-.02-1.2,0-.15,0-.31,0-.47h1.78v-.7h-1.81v-1.11h-.75s0,.11,0,.14c0,.3,0,.61,0,.91,0,.76,0,1.54,0,2.31.02.71.42,1.15,1.15,1.26.09.01.17.02.26.02.38,0,.73-.13.98-.37.28-.28.41-.67.36-1.11v-.06Z"/>
        <path class="cls-2" d="m13.7,27.82c-.57-.08-1.08.04-1.44.33-.33.27-.52.68-.55,1.22-.02.42-.02.86-.01,1.27,0,.18,0,.66,0,.66h.77v-.37c0-.16,0-.32,0-.48,0-.36,0-.73.01-1.1.02-.46.32-.79.75-.84.56-.06.94.16,1.05.61.04.16.05.34.05.51,0,.38,0,.76,0,1.13,0,.15,0,.3,0,.45v.06h.75v-.06c0-.2,0-.39,0-.58,0-.42,0-.86,0-1.29-.02-.87-.53-1.43-1.39-1.55"/>
        <path class="cls-2" d="m24.54,27.83c-.54-.09-1.03.01-1.35.29-.31.26-.47.67-.47,1.2,0,.34,0,.69,0,1.03v.96h.77v-.31c0-.18,0-.36,0-.55,0-.41,0-.84,0-1.26,0-.41.24-.64.65-.66.49-.02.72.17.79.67,0,.04,0,.07.01.1v.1h.71v-.06c.08-.79-.36-1.38-1.12-1.51"/>
      </g>
      <path class="cls-2" d="m46.26,20.82h0s-6.92-2.47-6.92-2.47h0c-.14-.06-.29-.1-.45-.1-.58,0-1.05.47-1.05,1.05,0,.32.15.61.38.8h0s.02.01.02.01c.13.11.29.19.46.22l4.58,2.15-8.03,4.09c-1.06.36-1.83,1.36-1.83,2.54,0,1.48,1.2,2.68,2.68,2.68.71,0,1.35-.27,1.82-.72h0s8.81-6.97,8.81-6.97h0s0,0,0,0h0c.46-.35.77-.89.77-1.51,0-.81-.52-1.5-1.24-1.76Z"/>
    </g>
  </g>
  <g id="guias">
    <rect class="cls-1" x="47.5" y="47.5" width="2.5" height="2.5"/>
    <rect class="cls-1" x="47.5" width="2.5" height="2.5"/>
    <rect class="cls-1" y="47.5" width="2.5" height="2.5"/>
    <rect class="cls-1" width="2.5" height="2.5"/>
  </g>
</svg>