<?xml version="1.0" encoding="UTF-8"?>
<svg xmlns="http://www.w3.org/2000/svg" viewBox="0 0 50 50">
  <defs>
    <style>
      .cls-1 {
        fill: #2e3135;
        stroke-width: 0px;
      }

      .cls-2 {
        fill: none;
        stroke: #000;
        stroke-miterlimit: 10;
        stroke-width: .21px;
      }
    </style>
  </defs>
  <g id="iconos">
    <g>
      <path class="cls-1" d="m25,47.5c-1.25,0-2.49-.29-3.48-.86l-9.9-5.71c-4.1-2.76-4.38-3.25-4.38-7.59v-10.4c0-4.34.28-4.83,4.29-7.53l9.99-5.77c1.99-1.15,4.98-1.15,6.97,0l9.9,5.71c4.1,2.76,4.38,3.25,4.38,7.59v10.4c0,4.34-.28,4.83-4.29,7.54l-9.99,5.77c-.99.57-2.24.86-3.48.86Zm0-35.58c-.71,0-1.41.14-1.91.43l-9.9,5.71q-2.81,1.9-2.81,4.87v10.4q0,2.97,2.91,4.93l9.8,5.66c1,.58,2.83.58,3.83,0l9.89-5.71q2.81-1.9,2.81-4.88v-10.4q0-2.97-2.91-4.93l-9.8-5.66c-.5-.29-1.21-.43-1.91-.43Z"/>
      <path class="cls-1" d="m36.51,17.42c-.87,0-1.57-.7-1.57-1.57v-5.5c0-3.3-1.41-4.71-4.71-4.71h-10.46c-3.3,0-4.71,1.41-4.71,4.71v5.35c0,.87-.7,1.57-1.57,1.57s-1.57-.7-1.57-1.57v-5.35c0-5.06,2.79-7.85,7.85-7.85h10.46c5.06,0,7.85,2.79,7.85,7.85v5.5c0,.87-.7,1.57-1.57,1.57Z"/>
      <path class="cls-1" d="m28.4,36.72c-.44,0-.91-.09-1.36-.28l-2.05-.82-2.04.82c-1.1.44-2.22.34-3.07-.27-.85-.61-1.29-1.65-1.21-2.84l.13-2.19-1.4-1.69c-.76-.93-1.01-2.03-.69-3.02.32-.99,1.17-1.72,2.33-2.01l2.13-.54,1.18-1.86c.67-1.01,1.63-1.57,2.66-1.57h.02c1.03,0,1.98.58,2.62,1.56h0s1.19,1.87,1.19,1.87l2.12.54c1.15.29,2,1.03,2.33,2.01.32.99.08,2.09-.68,3.01l-1.41,1.7.13,2.19c.07,1.19-.37,2.22-1.21,2.83-.49.36-1.08.54-1.71.54Zm-3.41-4.21c.4,0,.81.07,1.15.2l2.04.81-.12-2.19c-.04-.69.23-1.55.68-2.14l1.41-1.71-2.1-.56c-.72-.19-1.46-.73-1.85-1.34l-1.19-1.86s0,0,0-.01c0,.01-.02.02-.02.03l-1.18,1.84c-.37.6-1.14,1.17-1.86,1.35l-2.12.54,1.4,1.69c.46.56.76,1.46.71,2.19l-.12,2.16,2.03-.78c.35-.14.75-.21,1.16-.21Zm5.29-5.23h0Zm-5.42-3.71h0Z"/>
    </g>
  </g>
  <g id="guias">
    <rect class="cls-2" x="47.5" y="47.5" width="2.5" height="2.5"/>
    <rect class="cls-2" x="47.5" width="2.5" height="2.5"/>
    <rect class="cls-2" y="47.5" width="2.5" height="2.5"/>
    <rect class="cls-2" width="2.5" height="2.5"/>
  </g>
</svg>