<?xml version="1.0" encoding="UTF-8"?>
<svg xmlns="http://www.w3.org/2000/svg" viewBox="0 0 50 50">
  <defs>
    <style>
      .cls-1 {
        fill: #2e3135;
        stroke-width: 0px;
      }

      .cls-2 {
        fill: none;
        stroke: #000;
        stroke-miterlimit: 10;
        stroke-width: .21px;
      }
    </style>
  </defs>
  <g id="iconos">
    <g>
      <path class="cls-1" d="m41.53,38.07c-.95,0-1.9-.25-2.77-.75l-13.02-7.5c-.6-.36-1.06-.75-1.43-1.2-.22-.27-.35-.62-.35-.97v-5.26c0-.35.12-.7.35-.97.37-.45.83-.85,1.41-1.19l13.05-7.51c1.71-1.02,3.79-1.03,5.53-.04,1.75,1,2.79,2.79,2.79,4.81v15.04c0,2-1.04,3.8-2.78,4.8-.87.5-1.83.76-2.78.76Zm-14.49-11.07c.08.06.16.11.26.17l13,7.48c.78.45,1.71.45,2.48,0,.77-.45,1.24-1.24,1.24-2.13v-15.04c0-.89-.46-1.69-1.24-2.13-.77-.44-1.69-.43-2.46.03l-13.04,7.51c-.09.05-.16.1-.24.16v3.96Z"/>
      <path class="cls-1" d="m21.48,38.07c-.95,0-1.9-.25-2.77-.75l-13.02-7.5c-1.73-1-2.77-2.79-2.77-4.78,0-2,1.03-3.81,2.76-4.83l13.04-7.5c1.71-1.02,3.79-1.03,5.53-.04,1.75,1,2.79,2.79,2.79,4.81v15.04c0,2-1.04,3.8-2.78,4.8-.87.5-1.83.76-2.78.76Zm.03-23.05c-.43,0-.86.12-1.25.35l-13.04,7.51c-.77.45-1.24,1.26-1.23,2.15,0,.9.45,1.67,1.23,2.12l13.02,7.5c.78.45,1.7.45,2.48,0,.77-.45,1.24-1.24,1.24-2.13v-15.04c0-.89-.46-1.69-1.24-2.13-.38-.21-.79-.32-1.21-.32Z"/>
    </g>
  </g>
  <g id="guias">
    <rect class="cls-2" x="47.5" y="47.5" width="2.5" height="2.5"/>
    <rect class="cls-2" x="47.5" width="2.5" height="2.5"/>
    <rect class="cls-2" y="47.5" width="2.5" height="2.5"/>
    <rect class="cls-2" width="2.5" height="2.5"/>
  </g>
</svg>