<?xml version="1.0" encoding="UTF-8"?>
<svg xmlns="http://www.w3.org/2000/svg" viewBox="0 0 50 50">
  <defs>
    <style>
      .cls-1 {
        fill: #2e3135;
        stroke-width: 0px;
      }

      .cls-2 {
        fill: none;
        stroke: #000;
        stroke-miterlimit: 10;
        stroke-width: .21px;
      }
    </style>
  </defs>
  <g id="iconos">
    <g>
      <path class="cls-1" d="m25.8,35.32h-4.79c-.87,0-1.57-.7-1.57-1.57s.7-1.57,1.57-1.57h4.79c.9,0,1.63-.73,1.63-1.63s-.73-1.63-1.63-1.63h-4.79c-.5,0-.98-.24-1.27-.65-.29-.41-.38-.93-.22-1.41l1.59-4.79c.21-.64.81-1.08,1.49-1.08h6.4c.87,0,1.57.7,1.57,1.57s-.7,1.57-1.57,1.57h-5.27l-.55,1.65h2.62c2.63,0,4.77,2.14,4.77,4.77s-2.14,4.77-4.77,4.77Z"/>
      <path class="cls-1" d="m20.86,10.81c-.35,0-.69-.11-.98-.35-.68-.54-.79-1.53-.24-2.21l4.15-5.17c.54-.68,1.54-.78,2.21-.24.68.54.79,1.53.24,2.21l-4.15,5.17c-.31.39-.76.59-1.22.59Z"/>
      <path class="cls-1" d="m25,47.5c-11.13,0-20.18-9.05-20.18-20.18,0-4.33,1.41-8.49,4.08-12.06.52-.69,1.5-.84,2.2-.31.69.52.83,1.5.31,2.2-2.26,3.01-3.45,6.53-3.45,10.17,0,9.39,7.64,17.04,17.04,17.04s17.04-7.64,17.04-17.04-7.64-17.04-17.04-17.04c-1.23,0-2.47.15-3.79.46-.83.2-1.69-.32-1.89-1.17-.2-.84.32-1.69,1.17-1.89,1.56-.37,3.03-.54,4.5-.54,11.13,0,20.18,9.05,20.18,20.18s-9.05,20.18-20.18,20.18Z"/>
    </g>
  </g>
  <g id="guias">
    <rect class="cls-2" x="47.5" y="47.5" width="2.5" height="2.5"/>
    <rect class="cls-2" x="47.5" width="2.5" height="2.5"/>
    <rect class="cls-2" y="47.5" width="2.5" height="2.5"/>
    <rect class="cls-2" width="2.5" height="2.5"/>
  </g>
</svg>