<?xml version="1.0" encoding="UTF-8"?>
<svg xmlns="http://www.w3.org/2000/svg" viewBox="0 0 50 50">
  <defs>
    <style>
      .cls-1 {
        fill: #2e3135;
        stroke-width: 0px;
      }

      .cls-2 {
        fill: none;
        stroke: #000;
        stroke-miterlimit: 10;
        stroke-width: .21px;
      }
    </style>
  </defs>
  <g id="iconos">
    <g>
      <path class="cls-1" d="m39.34,24.48h-5.65c-5.57,0-8.16-2.59-8.16-8.16v-5.65c0-5.57,2.59-8.16,8.16-8.16h5.65c5.57,0,8.16,2.59,8.16,8.16v5.65c0,5.57-2.59,8.16-8.16,8.16Zm-5.65-18.84c-3.85,0-5.02,1.17-5.02,5.02v5.65c0,3.85,1.17,5.02,5.02,5.02h5.65c3.85,0,5.02-1.17,5.02-5.02v-5.65c0-3.85-1.17-5.02-5.02-5.02h-5.65Z"/>
      <path class="cls-1" d="m16.31,47.5h-5.65c-5.57,0-8.16-2.59-8.16-8.16v-5.65c0-5.57,2.59-8.16,8.16-8.16h5.65c5.57,0,8.16,2.59,8.16,8.16v5.65c0,5.57-2.59,8.16-8.16,8.16Zm-5.65-18.84c-3.85,0-5.02,1.17-5.02,5.02v5.65c0,3.85,1.17,5.02,5.02,5.02h5.65c3.85,0,5.02-1.17,5.02-5.02v-5.65c0-3.85-1.17-5.02-5.02-5.02h-5.65Z"/>
      <path class="cls-1" d="m28.39,37.83h-5.48c-.87,0-1.57-.7-1.57-1.57v-2.58c0-3.85-1.17-5.02-5.02-5.02h-2.57c-.87,0-1.57-.7-1.57-1.57v-5.48c0-6.53,2.91-9.44,9.44-9.44h5.48c.87,0,1.57.7,1.57,1.57v2.57c0,3.85,1.17,5.02,5.02,5.02h2.57c.87,0,1.57.7,1.57,1.57v5.48c0,6.53-2.91,9.44-9.44,9.44Zm-3.91-3.14h3.91c4.77,0,6.3-1.53,6.3-6.3v-3.91h-1c-5.57,0-8.16-2.59-8.16-8.16v-1h-3.91c-4.77,0-6.3,1.53-6.3,6.3v3.91h1c5.57,0,8.16,2.59,8.16,8.16v1.01Z"/>
    </g>
  </g>
  <g id="guias">
    <rect class="cls-2" x="47.5" y="47.5" width="2.5" height="2.5"/>
    <rect class="cls-2" x="47.5" width="2.5" height="2.5"/>
    <rect class="cls-2" y="47.5" width="2.5" height="2.5"/>
    <rect class="cls-2" width="2.5" height="2.5"/>
  </g>
</svg>