<?xml version="1.0" encoding="UTF-8"?>
<svg xmlns="http://www.w3.org/2000/svg" viewBox="0 0 50 50">
  <defs>
    <style>
      .cls-1 {
        fill: #2e3135;
        stroke-width: 0px;
      }

      .cls-2 {
        fill: none;
        stroke: #000;
        stroke-miterlimit: 10;
        stroke-width: .21px;
      }
    </style>
  </defs>
  <g id="iconos">
    <g>
      <path class="cls-1" d="m31.28,47.5h-12.56c-11.37,0-16.22-4.85-16.22-16.22v-12.56C2.5,7.35,7.35,2.5,18.72,2.5h12.56c11.37,0,16.22,4.85,16.22,16.22v12.56c0,11.37-4.85,16.22-16.22,16.22ZM18.72,5.64c-9.66,0-13.08,3.42-13.08,13.08v12.56c0,9.66,3.42,13.08,13.08,13.08h12.56c9.66,0,13.08-3.42,13.08-13.08v-12.56c0-9.66-3.42-13.08-13.08-13.08h-12.56Z"/>
      <path class="cls-1" d="m29.02,33.65h-10.3c-.87,0-1.57-.7-1.57-1.57s.7-1.57,1.57-1.57h10.3c2.69,0,4.88-2.19,4.88-4.88s-2.19-4.88-4.88-4.88h-14.17c-.87,0-1.57-.7-1.57-1.57s.7-1.57,1.57-1.57h14.17c4.42,0,8.02,3.6,8.02,8.02s-3.6,8.02-8.02,8.02Z"/>
      <path class="cls-1" d="m17.82,24c-.4,0-.81-.15-1.11-.46l-3.28-3.31c-.61-.61-.61-1.6,0-2.22l3.28-3.29c.61-.61,1.6-.61,2.22,0,.61.61.61,1.61,0,2.22l-2.18,2.18,2.18,2.2c.61.61.61,1.61,0,2.22-.31.3-.71.46-1.11.46Z"/>
    </g>
  </g>
  <g id="guias">
    <rect class="cls-2" x="47.5" y="47.5" width="2.5" height="2.5"/>
    <rect class="cls-2" x="47.5" width="2.5" height="2.5"/>
    <rect class="cls-2" y="47.5" width="2.5" height="2.5"/>
    <rect class="cls-2" width="2.5" height="2.5"/>
  </g>
</svg>