<?xml version="1.0" encoding="UTF-8"?>
<svg xmlns="http://www.w3.org/2000/svg" viewBox="0 0 50 50">
  <defs>
    <style>
      .cls-1 {
        fill: #2e3135;
        stroke-width: 0px;
      }

      .cls-2 {
        fill: none;
        stroke: #000;
        stroke-miterlimit: 10;
        stroke-width: .21px;
      }
    </style>
  </defs>
  <g id="iconos">
    <g>
      <path class="cls-1" d="m19.85,34.77c-.87,0-1.57-.7-1.57-1.57v-7.08l-.4.45c-.58.65-1.57.7-2.22.12-.65-.58-.7-1.57-.12-2.22l3.14-3.5c.43-.48,1.12-.65,1.73-.42.61.23,1.01.82,1.01,1.47v11.18c0,.87-.7,1.57-1.57,1.57Z"/>
      <path class="cls-1" d="m20.86,10.81c-.35,0-.69-.11-.98-.35-.68-.54-.79-1.53-.24-2.21l4.15-5.17c.54-.68,1.54-.78,2.21-.24.68.54.79,1.53.24,2.21l-4.15,5.17c-.31.39-.76.59-1.22.59Z"/>
      <path class="cls-1" d="m25,47.5c-11.13,0-20.18-9.05-20.18-20.18,0-4.33,1.41-8.49,4.08-12.06.52-.69,1.5-.84,2.2-.31.69.52.83,1.5.31,2.2-2.26,3.01-3.45,6.53-3.45,10.17,0,9.39,7.64,17.04,17.04,17.04s17.04-7.64,17.04-17.04-7.64-17.04-17.04-17.04c-1.23,0-2.47.15-3.79.46-.83.2-1.69-.32-1.89-1.17-.2-.84.32-1.69,1.17-1.89,1.56-.37,3.03-.54,4.5-.54,11.13,0,20.18,9.05,20.18,20.18s-9.05,20.18-20.18,20.18Z"/>
      <path class="cls-1" d="m29.19,34.8c-3.17,0-5.76-2.58-5.76-5.76v-2.83c0-3.17,2.58-5.76,5.76-5.76s5.76,2.58,5.76,5.76v2.83c0,3.18-2.58,5.76-5.76,5.76Zm0-11.2c-1.44,0-2.62,1.17-2.62,2.62v2.83c0,1.44,1.17,2.62,2.62,2.62s2.62-1.17,2.62-2.62v-2.83c0-1.44-1.17-2.62-2.62-2.62Z"/>
    </g>
  </g>
  <g id="guias">
    <rect class="cls-2" x="47.5" y="47.5" width="2.5" height="2.5"/>
    <rect class="cls-2" x="47.5" width="2.5" height="2.5"/>
    <rect class="cls-2" y="47.5" width="2.5" height="2.5"/>
    <rect class="cls-2" width="2.5" height="2.5"/>
  </g>
</svg>