<?xml version="1.0" encoding="UTF-8"?>
<svg xmlns="http://www.w3.org/2000/svg" viewBox="0 0 50 50">
  <defs>
    <style>
      .cls-1 {
        fill: #2e3135;
        stroke-width: 0px;
      }

      .cls-2 {
        fill: none;
        stroke: #000;
        stroke-miterlimit: 10;
        stroke-width: .21px;
      }
    </style>
  </defs>
  <g id="iconos">
    <g>
      <path class="cls-1" d="m34.42,17.95c-.87,0-1.57-.7-1.57-1.57v-2.89c0-2.21-.94-4.33-2.58-5.82-1.66-1.5-3.81-2.2-6.04-2-3.78.35-7.08,4.19-7.08,8.22v2.03c0,.87-.7,1.57-1.57,1.57s-1.57-.7-1.57-1.57v-2.03c0-5.65,4.55-10.84,9.93-11.34,3.08-.29,6.16.72,8.45,2.8,2.29,2.08,3.61,5.05,3.61,8.15v2.89c0,.87-.7,1.57-1.57,1.57Z"/>
      <path class="cls-1" d="m31.28,47.5h-12.56c-9.67,0-11.46-4.49-11.93-8.88l-1.57-12.54c-.39-3.51.22-6.1,1.86-7.92,1.88-2.1,5-3.12,9.54-3.12h16.75c4.54,0,7.67,1.02,9.54,3.12,1.64,1.83,2.24,4.41,1.86,7.9l-1.57,12.59c-.47,4.36-2.25,8.85-11.92,8.85Zm-14.66-29.32c-3.55,0-5.97.7-7.21,2.07-1.02,1.14-1.36,2.88-1.08,5.46l1.57,12.54c.36,3.35,1.27,6.1,8.81,6.1h12.56c7.54,0,8.45-2.75,8.8-6.07l1.57-12.59c.28-2.56-.06-4.3-1.08-5.44-1.23-1.37-3.66-2.07-7.21-2.07h-16.75Z"/>
      <path class="cls-1" d="m32.34,27.08c-1.16,0-2.1-.94-2.1-2.09s.93-2.09,2.08-2.09h.02c1.16,0,2.09.94,2.09,2.09s-.94,2.09-2.09,2.09Z"/>
      <path class="cls-1" d="m17.68,27.08c-1.16,0-2.1-.94-2.1-2.09s.93-2.09,2.08-2.09h.02c1.16,0,2.09.94,2.09,2.09s-.94,2.09-2.09,2.09Z"/>
    </g>
  </g>
  <g id="guias">
    <rect class="cls-2" x="47.5" y="47.5" width="2.5" height="2.5"/>
    <rect class="cls-2" x="47.5" width="2.5" height="2.5"/>
    <rect class="cls-2" y="47.5" width="2.5" height="2.5"/>
    <rect class="cls-2" width="2.5" height="2.5"/>
  </g>
</svg>