<?xml version="1.0" encoding="UTF-8"?>
<svg xmlns="http://www.w3.org/2000/svg" viewBox="0 0 50 50">
  <defs>
    <style>
      .cls-1 {
        fill: #2e3135;
        stroke-width: 0px;
      }

      .cls-2 {
        fill: none;
        stroke: #000;
        stroke-miterlimit: 10;
        stroke-width: .21px;
      }
    </style>
  </defs>
  <g id="iconos">
    <g>
      <path class="cls-1" d="m25,38.6c-4.91,0-8.9-3.99-8.9-8.9,0-.87.7-1.57,1.57-1.57s1.57.7,1.57,1.57c0,3.17,2.58,5.76,5.76,5.76s5.76-2.58,5.76-5.76c0-.87.7-1.57,1.57-1.57s1.57.7,1.57,1.57c0,4.91-3.99,8.9-8.9,8.9Z"/>
      <path class="cls-1" d="m10.75,13.24c-.4,0-.8-.15-1.11-.46-.62-.61-.62-1.61,0-2.22l7.58-7.6c.61-.62,1.6-.62,2.22,0,.62.61.62,1.61,0,2.22l-7.58,7.6c-.31.31-.71.46-1.11.46Z"/>
      <path class="cls-1" d="m39.25,13.24c-.4,0-.81-.15-1.11-.46l-7.58-7.6c-.61-.61-.61-1.61,0-2.22.62-.61,1.61-.61,2.22,0l7.58,7.6c.61.61.61,1.61,0,2.22-.31.3-.71.46-1.11.46Z"/>
      <path class="cls-1" d="m42.18,22.07c-.15,0-.29,0-.44,0h-.46s-33.03,0-33.03,0c-1.47.01-3.14.02-4.36-1.19-.95-.94-1.4-2.4-1.4-4.57,0-5.76,4.2-5.76,6.22-5.76h32.57c2.02,0,6.22,0,6.22,5.76,0,2.17-.44,3.63-1.4,4.57-1.1,1.09-2.57,1.19-3.92,1.19ZM8.72,13.7c-2.49,0-3.08.24-3.08,2.62,0,1.69.33,2.2.47,2.34.29.29,1.17.29,2.12.28h.49s33.05,0,33.05,0c.94.01,1.83.01,2.12-.28.14-.14.47-.65.47-2.34,0-2.38-.58-2.62-3.08-2.62H8.72Z"/>
      <path class="cls-1" d="m31.05,47.5h-12.62c-7.48,0-9.18-4.46-9.82-8.35l-2.95-18.09c-.14-.86.44-1.66,1.3-1.8.86-.13,1.66.44,1.8,1.3l2.95,18.08c.61,3.71,1.86,5.72,6.72,5.72h12.62c5.38,0,5.99-1.89,6.68-5.51l3.52-18.34c.16-.85.98-1.42,1.84-1.24.85.16,1.41.99,1.24,1.84l-3.52,18.33c-.81,4.24-2.17,8.06-9.77,8.06Z"/>
    </g>
  </g>
  <g id="guias">
    <rect class="cls-2" x="47.5" y="47.5" width="2.5" height="2.5"/>
    <rect class="cls-2" x="47.5" width="2.5" height="2.5"/>
    <rect class="cls-2" y="47.5" width="2.5" height="2.5"/>
    <rect class="cls-2" width="2.5" height="2.5"/>
  </g>
</svg>