<?xml version="1.0" encoding="UTF-8"?>
<svg xmlns="http://www.w3.org/2000/svg" viewBox="0 0 50 50">
  <defs>
    <style>
      .cls-1 {
        fill: #2e3135;
        stroke-width: 0px;
      }

      .cls-2 {
        fill: none;
        stroke: #000;
        stroke-miterlimit: 10;
        stroke-width: .21px;
      }
    </style>
  </defs>
  <g id="iconos">
    <g>
      <path class="cls-1" d="m25,41.22c-5.48,0-9.95-4.46-9.95-9.95s4.46-9.95,9.95-9.95,9.95,4.46,9.95,9.95-4.46,9.95-9.95,9.95Zm0-16.75c-3.75,0-6.81,3.05-6.81,6.81s3.05,6.81,6.81,6.81,6.81-3.05,6.81-6.81-3.05-6.81-6.81-6.81Z"/>
      <path class="cls-1" d="m27.24,35.17c-.4,0-.8-.15-1.11-.46l-4.44-4.42c-.61-.61-.62-1.61,0-2.22.61-.62,1.61-.62,2.22,0l4.44,4.42c.61.61.62,1.61,0,2.22-.31.31-.71.46-1.11.46Z"/>
      <path class="cls-1" d="m22.76,35.23c-.4,0-.8-.15-1.11-.46-.61-.61-.61-1.61,0-2.22l4.44-4.44c.61-.61,1.61-.61,2.22,0s.61,1.61,0,2.22l-4.44,4.44c-.31.31-.71.46-1.11.46Z"/>
      <path class="cls-1" d="m31.28,47.5h-12.56c-9.67,0-11.46-4.49-11.93-8.88l-1.57-12.54c-.39-3.51.22-6.1,1.85-7.92,1.88-2.1,5-3.12,9.55-3.12h16.75c4.54,0,7.67,1.02,9.54,3.12,1.64,1.83,2.25,4.41,1.86,7.9l-1.57,12.58c-.47,4.36-2.25,8.85-11.92,8.85Zm-14.66-29.32c-3.55,0-5.98.7-7.21,2.07-1.02,1.14-1.36,2.88-1.08,5.46l1.57,12.54c.36,3.35,1.27,6.1,8.81,6.1h12.56c7.54,0,8.45-2.75,8.8-6.07l1.57-12.59c.28-2.56-.06-4.3-1.08-5.44-1.23-1.37-3.65-2.07-7.2-2.07h-16.75Z"/>
      <path class="cls-1" d="m34.42,17.95c-.87,0-1.57-.7-1.57-1.57v-2.89c0-2.21-.94-4.33-2.58-5.82-1.66-1.5-3.79-2.2-6.04-2-3.77.35-7.08,4.19-7.08,8.22v2.03c0,.87-.7,1.57-1.57,1.57s-1.57-.7-1.57-1.57v-2.03c0-5.64,4.55-10.84,9.92-11.35,3.09-.28,6.16.72,8.45,2.8,2.29,2.08,3.61,5.05,3.61,8.15v2.89c0,.87-.7,1.57-1.57,1.57Z"/>
    </g>
  </g>
  <g id="guias">
    <rect class="cls-2" x="47.5" y="47.5" width="2.5" height="2.5"/>
    <rect class="cls-2" x="47.5" width="2.5" height="2.5"/>
    <rect class="cls-2" y="47.5" width="2.5" height="2.5"/>
    <rect class="cls-2" width="2.5" height="2.5"/>
  </g>
</svg>