<?xml version="1.0" encoding="UTF-8"?>
<svg xmlns="http://www.w3.org/2000/svg" viewBox="0 0 50 50">
  <defs>
    <style>
      .cls-1 {
        fill: none;
        stroke: #000;
        stroke-miterlimit: 10;
        stroke-width: .21px;
      }

      .cls-2 {
        fill: #1e1f22;
        stroke-width: 0px;
      }
    </style>
  </defs>
  <g id="iconos">
    <g>
      <g>
        <path class="cls-2" d="m41.24,47.5H8.76c-.15,0-.29-.06-.39-.18-.1-.11-.15-.26-.13-.41l3.98-34.4c.03-.27.25-.46.52-.46h24.53c.27,0,.49.2.52.46l3.98,34.4c.02.15-.03.3-.13.41-.1.11-.24.18-.39.18Zm-31.9-1.05h31.31l-3.86-33.35H13.2l-3.86,33.35Z"/>
        <path class="cls-2" d="m31.69,17.88c-.29,0-.52-.23-.52-.52v-8.6c0-3.22-3.2-5.21-6.17-5.21s-6.16,1.99-6.16,5.21v8.6c0,.29-.23.52-.52.52s-.52-.23-.52-.52v-8.6c0-3.86,3.74-6.26,7.21-6.26s7.21,2.39,7.21,6.26v8.6c0,.29-.23.52-.52.52Z"/>
        <path class="cls-2" d="m20.22,17.88h-3.82c-.29,0-.52-.23-.52-.52s.23-.52.52-.52h3.82c.29,0,.52.23.52.52s-.23.52-.52.52Z"/>
        <path class="cls-2" d="m33.6,17.88h-3.82c-.29,0-.52-.23-.52-.52s.23-.52.52-.52h3.82c.29,0,.52.23.52.52s-.23.52-.52.52Z"/>
      </g>
      <g>
        <rect class="cls-2" x="15.11" y="29.46" width="3.02" height=".2" transform="translate(-14.85 42.18) rotate(-82.49)"/>
        <rect class="cls-2" x="14.49" y="29.38" width="3.02" height=".2" transform="translate(-15.31 41.48) rotate(-82.49)"/>
        <rect class="cls-2" x="13.86" y="29.29" width="3.02" height=".2" transform="translate(-15.78 40.79) rotate(-82.49)"/>
        <rect class="cls-2" x="15.74" y="29.54" width="3.02" height=".2" transform="translate(-14.39 42.87) rotate(-82.49)"/>
        <rect class="cls-2" x="17.12" y="29.59" width="3.02" height=".45" transform="translate(-13.37 44.4) rotate(-82.49)"/>
        <rect class="cls-2" x="13.14" y="29.1" width="3.02" height=".4" transform="translate(-16.31 39.99) rotate(-82.49)"/>
        <rect class="cls-2" x="16.37" y="29.62" width="3.02" height=".2" transform="translate(-13.93 43.56) rotate(-82.49)"/>
      </g>
      <path class="cls-2" d="m18.65,32.9s-.09,0-.13,0l-4.68-.62c-.27-.03-.5-.17-.67-.39s-.23-.48-.2-.74l1.55-11.78c.08-.55.56-.94,1.13-.87l4.68.62h0c.55.07.94.58.87,1.13l-1.55,11.78c-.07.5-.5.87-1,.87Zm-3.13-13.89c-.24,0-.45.18-.48.42l-1.55,11.78c-.02.13.02.25.09.36.08.1.19.17.32.19l4.68.62c.23.03.51-.15.54-.41l1.55-11.78c.03-.26-.15-.51-.42-.54l-4.68-.62s-.04,0-.06,0Zm2.16,3.28c-.05,0-.1,0-.15-.01-.31-.04-.58-.2-.77-.45-.19-.25-.27-.55-.23-.86.04-.31.2-.58.44-.77.25-.19.54-.27.86-.23.31.04.58.2.77.44.19.25.27.55.23.86-.08.58-.58,1.01-1.15,1.01Zm0-1.8c-.14,0-.27.04-.39.13-.13.1-.22.25-.24.42-.05.35.2.67.55.72.18.02.34-.02.47-.13.14-.1.22-.25.25-.42.02-.17-.02-.34-.13-.47-.1-.13-.25-.22-.42-.24-.03,0-.06,0-.09,0Z"/>
      <g>
        <path class="cls-2" d="m17.07,26.95c-.05,0-.11,0-.17-.01-.62-.09-.92-.6-.93-.62-.07-.12-.03-.29.1-.36.12-.08.28-.03.36.1,0,.01.19.31.55.36.14.02.27,0,.37-.08.1-.08.17-.2.19-.35.02-.18-.01-.43-.45-.7-.04-.03-.09-.05-.14-.08-.3-.16-.8-.44-.7-1.14.04-.28.18-.53.39-.7.22-.17.5-.24.79-.2.56.08.92.48.93.5.1.11.09.27-.02.37-.11.1-.28.08-.37-.02h0s-.25-.28-.61-.33c-.16-.03-.29.01-.4.09-.1.08-.17.21-.19.36-.05.33.12.43.43.6.06.03.12.06.17.09.52.32.75.73.7,1.21-.03.28-.17.54-.39.7-.17.13-.37.2-.59.2Z"/>
        <path class="cls-2" d="m17.4,23.7s-.02,0-.04,0c-.14-.02-.24-.15-.22-.3l.08-.57c.02-.15.15-.25.3-.22.14.02.24.15.22.3l-.08.57c-.02.13-.13.22-.26.22Z"/>
        <path class="cls-2" d="m16.86,27.46s-.02,0-.04,0c-.14-.02-.24-.16-.22-.3l.08-.53c.02-.14.13-.25.3-.22.14.02.24.16.22.3l-.08.53c-.02.13-.13.22-.26.22Z"/>
      </g>
      <path class="cls-2" d="m17.7,21.3s-.02,0-.03,0c-.14-.02-.24-.15-.22-.29l.52-3.98c.02-.14.13-.23.29-.22.14.02.24.15.22.29l-.52,3.98c-.02.13-.13.23-.26.23Z"/>
    </g>
  </g>
  <g id="guias">
    <rect class="cls-1" x="47.5" y="47.5" width="2.5" height="2.5"/>
    <rect class="cls-1" x="47.5" width="2.5" height="2.5"/>
    <rect class="cls-1" y="47.5" width="2.5" height="2.5"/>
    <rect class="cls-1" width="2.5" height="2.5"/>
  </g>
</svg>