<?xml version="1.0" encoding="UTF-8"?>
<svg xmlns="http://www.w3.org/2000/svg" viewBox="0 0 50 50">
  <defs>
    <style>
      .cls-1 {
        fill: #2e3135;
        stroke-width: 0px;
      }

      .cls-2 {
        fill: none;
        stroke: #000;
        stroke-miterlimit: 10;
        stroke-width: .21px;
      }
    </style>
  </defs>
  <g id="iconos">
    <g>
      <path class="cls-1" d="m42.23,24.44H7.77c-1.85,0-3.35-1.5-3.35-3.35v-6.36c0-1.3.91-2.63,2.11-3.11l17.23-6.89c.72-.29,1.76-.29,2.48,0h0l17.23,6.89c1.2.48,2.11,1.82,2.11,3.11v6.36c0,1.85-1.5,3.35-3.35,3.35ZM25,7.37c-.07,0-.15,0-.19.02L7.59,14.28c-.12.05-.3.32-.3.45v6.36c0,.26.22.48.48.48h34.47c.26,0,.48-.22.48-.48v-6.36c0-.13-.18-.4-.3-.45l-17.22-6.89s-.12-.02-.19-.02Z"/>
      <path class="cls-1" d="m44.15,45.5H5.85c-.79,0-1.44-.64-1.44-1.44v-5.74c0-1.85,1.5-3.35,3.35-3.35h34.47c1.85,0,3.35,1.5,3.35,3.35v5.74c0,.79-.64,1.44-1.44,1.44Zm-36.86-2.87h35.43v-4.31c0-.26-.22-.48-.48-.48H7.77c-.26,0-.48.22-.48.48v4.31Z"/>
      <path class="cls-1" d="m9.68,37.84c-.79,0-1.44-.64-1.44-1.44v-13.4c0-.79.64-1.44,1.44-1.44s1.44.64,1.44,1.44v13.4c0,.79-.64,1.44-1.44,1.44Z"/>
      <path class="cls-1" d="m17.34,37.84c-.79,0-1.44-.64-1.44-1.44v-13.4c0-.79.64-1.44,1.44-1.44s1.44.64,1.44,1.44v13.4c0,.79-.64,1.44-1.44,1.44Z"/>
      <path class="cls-1" d="m25,37.84c-.79,0-1.44-.64-1.44-1.44v-13.4c0-.79.64-1.44,1.44-1.44s1.44.64,1.44,1.44v13.4c0,.79-.64,1.44-1.44,1.44Z"/>
      <path class="cls-1" d="m32.66,37.84c-.79,0-1.44-.64-1.44-1.44v-13.4c0-.79.64-1.44,1.44-1.44s1.44.64,1.44,1.44v13.4c0,.79-.64,1.44-1.44,1.44Z"/>
      <path class="cls-1" d="m40.32,37.84c-.79,0-1.44-.64-1.44-1.44v-13.4c0-.79.64-1.44,1.44-1.44s1.44.64,1.44,1.44v13.4c0,.79-.64,1.44-1.44,1.44Z"/>
      <path class="cls-1" d="m46.06,45.5H3.94c-.79,0-1.44-.64-1.44-1.44s.64-1.44,1.44-1.44h42.13c.79,0,1.44.64,1.44,1.44s-.64,1.44-1.44,1.44Z"/>
      <path class="cls-1" d="m25,19.65c-2.38,0-4.31-1.93-4.31-4.31s1.93-4.31,4.31-4.31,4.31,1.93,4.31,4.31-1.93,4.31-4.31,4.31Zm0-5.74c-.79,0-1.44.65-1.44,1.44s.64,1.44,1.44,1.44,1.44-.65,1.44-1.44-.64-1.44-1.44-1.44Z"/>
    </g>
  </g>
  <g id="guias">
    <rect class="cls-2" x="47.5" y="47.5" width="2.5" height="2.5"/>
    <rect class="cls-2" x="47.5" width="2.5" height="2.5"/>
    <rect class="cls-2" y="47.5" width="2.5" height="2.5"/>
    <rect class="cls-2" width="2.5" height="2.5"/>
  </g>
</svg>