<?xml version="1.0" encoding="UTF-8"?>
<svg xmlns="http://www.w3.org/2000/svg" viewBox="0 0 50 50">
  <defs>
    <style>
      .cls-1 {
        fill: #2e3135;
        stroke-width: 0px;
      }

      .cls-2 {
        fill: none;
        stroke: #000;
        stroke-miterlimit: 10;
        stroke-width: .21px;
      }
    </style>
  </defs>
  <g id="iconos">
    <g>
      <path class="cls-1" d="m35.47,44.36H14.53c-7.65,0-12.03-4.39-12.03-12.03v-14.65c0-7.65,4.39-12.03,12.03-12.03h20.93c7.65,0,12.03,4.39,12.03,12.03v14.65c0,7.65-4.39,12.03-12.03,12.03ZM14.53,8.78c-5.99,0-8.9,2.91-8.9,8.9v14.65c0,5.98,2.91,8.9,8.9,8.9h20.93c5.99,0,8.9-2.91,8.9-8.9v-14.65c0-5.98-2.91-8.9-8.9-8.9H14.53Z"/>
      <path class="cls-1" d="m12.44,34.94c-.87,0-1.57-.7-1.57-1.57v-16.74c0-.87.7-1.57,1.57-1.57s1.57.7,1.57,1.57v16.74c0,.87-.7,1.57-1.57,1.57Z"/>
      <path class="cls-1" d="m18.72,26.57c-.87,0-1.57-.7-1.57-1.57v-8.37c0-.87.7-1.57,1.57-1.57s1.57.7,1.57,1.57v8.37c0,.87-.7,1.57-1.57,1.57Z"/>
      <path class="cls-1" d="m18.72,34.94c-.87,0-1.57-.7-1.57-1.57v-2.09c0-.87.7-1.57,1.57-1.57s1.57.7,1.57,1.57v2.09c0,.87-.7,1.57-1.57,1.57Z"/>
      <path class="cls-1" d="m31.28,20.29c-.87,0-1.57-.7-1.57-1.57v-2.09c0-.87.7-1.57,1.57-1.57s1.57.7,1.57,1.57v2.09c0,.87-.7,1.57-1.57,1.57Z"/>
      <path class="cls-1" d="m25,34.94c-.87,0-1.57-.7-1.57-1.57v-16.74c0-.87.7-1.57,1.57-1.57s1.57.7,1.57,1.57v16.74c0,.87-.7,1.57-1.57,1.57Z"/>
      <path class="cls-1" d="m31.28,34.94c-.87,0-1.57-.7-1.57-1.57v-8.37c0-.87.7-1.57,1.57-1.57s1.57.7,1.57,1.57v8.37c0,.87-.7,1.57-1.57,1.57Z"/>
      <path class="cls-1" d="m37.56,34.94c-.87,0-1.57-.7-1.57-1.57v-16.74c0-.87.7-1.57,1.57-1.57s1.57.7,1.57,1.57v16.74c0,.87-.7,1.57-1.57,1.57Z"/>
    </g>
  </g>
  <g id="guias">
    <rect class="cls-2" x="47.5" y="47.5" width="2.5" height="2.5"/>
    <rect class="cls-2" x="47.5" width="2.5" height="2.5"/>
    <rect class="cls-2" y="47.5" width="2.5" height="2.5"/>
    <rect class="cls-2" width="2.5" height="2.5"/>
  </g>
</svg>