<?xml version="1.0" encoding="UTF-8"?>
<svg xmlns="http://www.w3.org/2000/svg" viewBox="0 0 50 50">
  <defs>
    <style>
      .cls-1 {
        fill: none;
        stroke: #000;
        stroke-miterlimit: 10;
        stroke-width: .21px;
      }

      .cls-2 {
        fill: #1e1f22;
        stroke-width: 0px;
      }
    </style>
  </defs>
  <g id="iconos">
    <g>
      <path class="cls-2" d="m43.1,47.5H6.9c-1.38,0-2.5-1.12-2.5-2.5v-26.81c0-1.38,1.12-2.5,2.5-2.5h10.76c.29,0,.52.23.52.52s-.23.52-.52.52H6.9c-.8,0-1.46.65-1.46,1.46v26.81c0,.8.65,1.46,1.46,1.46h36.2c.8,0,1.46-.65,1.46-1.46v-26.81c0-.8-.65-1.46-1.46-1.46h-10.76c-.29,0-.52-.23-.52-.52s.23-.52.52-.52h10.76c1.38,0,2.5,1.12,2.5,2.5v26.81c0,1.38-1.12,2.5-2.5,2.5Z"/>
      <path class="cls-2" d="m25,20.82c-5.05,0-9.16-4.11-9.16-9.16S19.95,2.5,25,2.5s9.16,4.11,9.16,9.16-4.11,9.16-9.16,9.16Zm0-17.27c-4.47,0-8.11,3.64-8.11,8.11s3.64,8.11,8.11,8.11,8.11-3.64,8.11-8.11-3.64-8.11-8.11-8.11Z"/>
      <g>
        <path class="cls-2" d="m25,16.48c-1.55,0-2.46-1.14-2.5-1.19-.18-.23-.14-.56.09-.73s.56-.14.73.09c.02.03.65.78,1.68.79.42,0,.77-.13,1.02-.39.26-.27.41-.66.4-1.07-.02-.78-.49-1.33-1.51-1.78-.13-.06-.26-.11-.4-.16-.84-.31-2.11-.78-2.11-2.52,0-.72.26-1.38.74-1.85.46-.46,1.11-.72,1.82-.72h.01c1.41,0,2.44.86,2.48.9.22.19.25.51.06.74-.18.22-.52.25-.74.06,0,0-.79-.65-1.81-.65h0c-.44,0-.81.14-1.08.41-.28.27-.43.67-.43,1.11,0,.96.54,1.21,1.43,1.54.16.06.31.12.46.18,1.39.6,2.11,1.52,2.14,2.71.02.69-.24,1.36-.7,1.83-.45.46-1.06.71-1.77.71Z"/>
        <path class="cls-2" d="m25,8c-.29,0-.52-.23-.52-.52v-1.49c0-.29.23-.52.52-.52s.52.23.52.52v1.49c0,.29-.23.52-.52.52Z"/>
        <path class="cls-2" d="m24.99,17.87h0c-.29,0-.52-.23-.52-.53v-1.38c0-.29.24-.52.53-.52h0c.29,0,.52.23.52.53v1.38c0,.29-.24.52-.53.52Z"/>
      </g>
      <g>
        <g>
          <path class="cls-2" d="m38.1,29.21h-19.56c-.29,0-.52-.23-.52-.52s.23-.52.52-.52h19.56c.29,0,.52.23.52.52s-.23.52-.52.52Z"/>
          <path class="cls-2" d="m13,30.51c-.13,0-.25-.05-.35-.13l-1.1-.98c-.22-.19-.23-.52-.04-.74.2-.22.53-.23.74-.04l.69.62,1.6-1.96c.18-.22.51-.26.74-.07.22.18.26.51.07.74l-1.95,2.38c-.09.11-.22.18-.36.19-.01,0-.03,0-.04,0Z"/>
        </g>
        <g>
          <path class="cls-2" d="m38.1,37.18h-19.56c-.29,0-.52-.23-.52-.52s.23-.52.52-.52h19.56c.29,0,.52.23.52.52s-.23.52-.52.52Z"/>
          <path class="cls-2" d="m13,38.49c-.13,0-.25-.05-.35-.13l-1.1-.98c-.21-.19-.23-.52-.04-.74.2-.21.53-.23.74-.04l.69.62,1.6-1.96c.18-.22.51-.26.74-.07.22.18.26.51.07.74l-1.95,2.38c-.09.11-.22.18-.36.19-.01,0-.03,0-.04,0Z"/>
        </g>
      </g>
    </g>
  </g>
  <g id="guias">
    <g>
      <rect class="cls-1" x="47.5" y="47.5" width="2.5" height="2.5"/>
      <rect class="cls-1" x="47.5" width="2.5" height="2.5"/>
      <rect class="cls-1" y="47.5" width="2.5" height="2.5"/>
      <rect class="cls-1" width="2.5" height="2.5"/>
    </g>
  </g>
</svg>