<?xml version="1.0" encoding="UTF-8"?>
<svg xmlns="http://www.w3.org/2000/svg" viewBox="0 0 50 50">
  <defs>
    <style>
      .cls-1 {
        fill: #2e3135;
        stroke-width: 0px;
      }

      .cls-2 {
        fill: none;
        stroke: #000;
        stroke-miterlimit: 10;
        stroke-width: .21px;
      }
    </style>
  </defs>
  <g id="iconos">
    <g>
      <path class="cls-1" d="m42,31.5c-.83,0-1.5-.67-1.5-1.5s.67-1.5,1.5-1.5c1.18,0,1.45-.18,1.46-.19.04-.12.04-.81.04-1.31v-4c0-.5,0-1.18-.08-1.36-.02.03-.33-.14-1.42-.14-.83,0-1.5-.67-1.5-1.5s.67-1.5,1.5-1.5c4.16,0,4.5,2.04,4.5,4.5v4c0,2.46-.34,4.5-4.5,4.5Z"/>
      <path class="cls-1" d="m9,45.5c-.27,0-.55-.07-.8-.23-.7-.44-.91-1.37-.47-2.07L31.73,5.2c.45-.7,1.37-.91,2.07-.47.7.44.91,1.37.47,2.07L10.27,44.8c-.29.45-.77.7-1.27.7Z"/>
      <path class="cls-1" d="m11.78,40.34c-.05,0-.11,0-.16,0-6.79-.74-8.12-4.71-8.12-11.33v-8c0-8.81,2.69-11.5,11.5-11.5.83,0,1.5.67,1.5,1.5s-.67,1.5-1.5,1.5c-7.15,0-8.5,1.35-8.5,8.5v8c0,6.64,1.36,7.9,5.44,8.35.82.09,1.42.83,1.33,1.65-.08.77-.73,1.34-1.49,1.34Z"/>
      <path class="cls-1" d="m27,40.5c-.83,0-1.5-.67-1.5-1.5s.67-1.5,1.5-1.5c7.15,0,8.5-1.35,8.5-8.5v-8c0-6.64-1.35-7.91-5.4-8.35-.82-.09-1.42-.83-1.33-1.65.09-.82.83-1.45,1.65-1.33,6.75.74,8.08,4.71,8.08,11.33v8c0,8.81-2.69,11.5-11.5,11.5Z"/>
    </g>
  </g>
  <g id="guias">
    <rect class="cls-2" x="47.5" y="47.5" width="2.5" height="2.5"/>
    <rect class="cls-2" x="47.5" width="2.5" height="2.5"/>
    <rect class="cls-2" y="47.5" width="2.5" height="2.5"/>
    <rect class="cls-2" width="2.5" height="2.5"/>
  </g>
</svg>