<?xml version="1.0" encoding="UTF-8"?>
<svg xmlns="http://www.w3.org/2000/svg" viewBox="0 0 50 50">
  <defs>
    <style>
      .cls-1 {
        fill: #2e3135;
        stroke-width: 0px;
      }

      .cls-2 {
        fill: none;
        stroke: #000;
        stroke-miterlimit: 10;
        stroke-width: .21px;
      }
    </style>
  </defs>
  <g id="iconos">
    <g>
      <path class="cls-1" d="m27.09,41.22h-12.56c-9.22,0-12.03-2.81-12.03-12.03v-8.37c0-9.22,2.81-12.03,12.03-12.03h12.56c9.22,0,12.03,2.81,12.03,12.03v8.37c0,9.22-2.81,12.03-12.03,12.03ZM14.53,11.92c-7.48,0-8.9,1.41-8.9,8.9v8.37c0,7.48,1.41,8.9,8.9,8.9h12.56c7.48,0,8.9-1.41,8.9-8.9v-8.37c0-7.48-1.41-8.9-8.9-8.9h-12.56Z"/>
      <path class="cls-1" d="m42.79,31.8c-.87,0-1.57-.7-1.57-1.57s.7-1.57,1.57-1.57c1.23,0,1.52-.19,1.53-.19.04-.13.04-.85.04-1.38v-4.19c0-.52,0-1.23-.09-1.43-.02.03-.34-.14-1.48-.14-.87,0-1.57-.7-1.57-1.57s.7-1.57,1.57-1.57c4.35,0,4.71,2.13,4.71,4.71v4.19c0,2.58-.35,4.71-4.71,4.71Z"/>
    </g>
  </g>
  <g id="guias">
    <rect class="cls-2" x="47.5" y="47.5" width="2.5" height="2.5"/>
    <rect class="cls-2" x="47.5" width="2.5" height="2.5"/>
    <rect class="cls-2" y="47.5" width="2.5" height="2.5"/>
    <rect class="cls-2" width="2.5" height="2.5"/>
  </g>
</svg>