<?xml version="1.0" encoding="UTF-8"?>
<svg xmlns="http://www.w3.org/2000/svg" viewBox="0 0 50 50">
  <defs>
    <style>
      .cls-1 {
        fill: #2e3135;
        stroke-width: 0px;
      }

      .cls-2 {
        fill: none;
        stroke: #000;
        stroke-miterlimit: 10;
        stroke-width: .21px;
      }
    </style>
  </defs>
  <g id="iconos">
    <g>
      <path class="cls-1" d="m42.79,31.8c-.87,0-1.57-.7-1.57-1.57s.7-1.57,1.57-1.57c1.23,0,1.52-.19,1.53-.19.04-.13.04-.85.04-1.38v-4.19c0-.52,0-1.23-.09-1.43-.02.05-.34-.14-1.48-.14-.87,0-1.57-.7-1.57-1.57s.7-1.57,1.57-1.57c4.35,0,4.71,2.13,4.71,4.71v4.19c0,2.58-.35,4.71-4.71,4.71Z"/>
      <path class="cls-1" d="m20.81,34.94c-.36,0-.72-.12-1.02-.38-.66-.56-.74-1.55-.17-2.21l4.35-5.08c.07-.19,0-.35-.05-.44-.06-.1-.19-.26-.45-.26h-4.81c-1.33,0-2.51-.68-3.17-1.83-.66-1.15-.65-2.52.02-3.67l4.06-5.39c.52-.69,1.51-.83,2.2-.31.69.52.83,1.51.31,2.2l-3.96,5.23c-.03.07.04.27.1.37s.19.26.45.26h4.81c1.32,0,2.5.68,3.17,1.82.67,1.14.67,2.51.02,3.66-.05.09-.11.17-.17.25l-4.48,5.23c-.31.36-.75.55-1.19.55Z"/>
      <path class="cls-1" d="m14.53,41.22c-9.22,0-12.03-2.81-12.03-12.03v-8.37c0-9.22,2.81-12.03,12.03-12.03.87,0,1.57.7,1.57,1.57s-.7,1.57-1.57,1.57c-7.48,0-8.9,1.41-8.9,8.9v8.37c0,7.48,1.41,8.9,8.9,8.9.87,0,1.57.7,1.57,1.57s-.7,1.57-1.57,1.57Z"/>
      <path class="cls-1" d="m27.09,41.22c-.87,0-1.57-.7-1.57-1.57s.7-1.57,1.57-1.57c7.48,0,8.9-1.41,8.9-8.9v-8.37c0-7.48-1.41-8.9-8.9-8.9-.87,0-1.57-.7-1.57-1.57s.7-1.57,1.57-1.57c9.22,0,12.03,2.81,12.03,12.03v8.37c0,9.22-2.81,12.03-12.03,12.03Z"/>
    </g>
  </g>
  <g id="guias">
    <rect class="cls-2" x="47.5" y="47.5" width="2.5" height="2.5"/>
    <rect class="cls-2" x="47.5" width="2.5" height="2.5"/>
    <rect class="cls-2" y="47.5" width="2.5" height="2.5"/>
    <rect class="cls-2" width="2.5" height="2.5"/>
  </g>
</svg>