<?xml version="1.0" encoding="UTF-8"?>
<svg xmlns="http://www.w3.org/2000/svg" viewBox="0 0 50 50">
  <defs>
    <style>
      .cls-1 {
        fill: none;
        stroke: #000;
        stroke-miterlimit: 10;
        stroke-width: .21px;
      }

      .cls-2 {
        fill: #1e1f22;
        stroke-width: 0px;
      }
    </style>
  </defs>
  <g id="iconos">
    <g>
      <path class="cls-2" d="m18.72,39.13H6.16c-2.12,0-3.66-1.54-3.66-3.66V14.54c0-2.12,1.54-3.66,3.66-3.66h10.46c4.4,0,7.85,3.45,7.85,7.85,0,2.17-.84,4.11-2.22,5.52,2.58,1.27,4.31,3.92,4.31,7.04,0,4.4-3.45,7.85-7.85,7.85Zm-13.08-12.56v8.9c0,.39.14.52.52.52h12.56c2.68,0,4.71-2.03,4.71-4.71s-2.02-4.71-4.71-4.71H5.64Zm0-3.14h10.99c2.68,0,4.71-2.03,4.71-4.71s-2.02-4.71-4.71-4.71H6.16c-.39,0-.52.13-.52.52v8.9Z"/>
      <path class="cls-2" d="m41.12,39.13h-3.56c-5.48,0-9.94-4.46-9.94-9.94s4.46-9.94,9.94-9.94,9.94,4.46,9.94,9.94c0,.87-.7,1.57-1.57,1.57h-14.99c.71,3,3.41,5.23,6.62,5.23h3.56c.87,0,1.57.7,1.57,1.57s-.7,1.57-1.57,1.57Zm-10.18-11.51h13.24c-.71-3-3.41-5.23-6.62-5.23s-5.91,2.24-6.62,5.23Z"/>
      <path class="cls-2" d="m40.7,17.15h-6.28c-.87,0-1.57-.7-1.57-1.57s.7-1.57,1.57-1.57h6.28c.87,0,1.57.7,1.57,1.57s-.7,1.57-1.57,1.57Z"/>
    </g>
  </g>
  <g id="guias">
    <rect class="cls-1" x="47.5" y="47.5" width="2.5" height="2.5"/>
    <rect class="cls-1" x="47.5" width="2.5" height="2.5"/>
    <rect class="cls-1" y="47.5" width="2.5" height="2.5"/>
    <rect class="cls-1" width="2.5" height="2.5"/>
  </g>
</svg>