<?xml version="1.0" encoding="UTF-8"?>
<svg xmlns="http://www.w3.org/2000/svg" viewBox="0 0 50 50">
  <defs>
    <style>
      .cls-1 {
        fill: #2e3135;
        stroke-width: 0px;
      }

      .cls-2 {
        fill: none;
        stroke: #000;
        stroke-miterlimit: 10;
        stroke-width: .21px;
      }
    </style>
  </defs>
  <g id="iconos">
    <g>
      <path class="cls-1" d="m7.77,20.69c-2.9,0-5.27-2.36-5.27-5.27s2.36-5.27,5.27-5.27,5.27,2.36,5.27,5.27-2.36,5.27-5.27,5.27Zm0-7.66c-1.32,0-2.39,1.07-2.39,2.39s1.07,2.39,2.39,2.39,2.39-1.07,2.39-2.39-1.07-2.39-2.39-2.39Z"/>
      <path class="cls-1" d="m42.23,20.69c-2.9,0-5.27-2.36-5.27-5.27s2.36-5.27,5.27-5.27,5.27,2.36,5.27,5.27-2.36,5.27-5.27,5.27Zm0-7.66c-1.32,0-2.39,1.07-2.39,2.39s1.07,2.39,2.39,2.39,2.39-1.07,2.39-2.39-1.07-2.39-2.39-2.39Z"/>
      <path class="cls-1" d="m38.4,16.86h-7.66c-.79,0-1.44-.64-1.44-1.44s.64-1.44,1.44-1.44h7.66c.79,0,1.44.64,1.44,1.44s-.64,1.44-1.44,1.44Z"/>
      <path class="cls-1" d="m19.26,16.86h-7.66c-.79,0-1.44-.64-1.44-1.44s.64-1.44,1.44-1.44h7.66c.79,0,1.44.64,1.44,1.44s-.64,1.44-1.44,1.44Z"/>
      <path class="cls-1" d="m13.51,41.76h-3.83c-2.38,0-4.31-1.93-4.31-4.31v-3.83c0-2.37,1.93-4.31,4.31-4.31h3.83c2.38,0,4.31,1.93,4.31,4.31v3.83c0,1.72-1.01,3.26-2.58,3.93-.51.24-1.11.38-1.73.38Zm-3.83-9.57c-.79,0-1.44.65-1.44,1.44v3.83c0,.79.64,1.44,1.44,1.44h3.83c.19,0,.36-.04.55-.13.56-.24.89-.75.89-1.31v-3.83c0-.79-.64-1.44-1.44-1.44h-3.83Z"/>
      <path class="cls-1" d="m40.32,41.76h-3.83c-.62,0-1.22-.14-1.79-.41-1.51-.64-2.52-2.18-2.52-3.9v-3.83c0-2.37,1.93-4.31,4.31-4.31h3.83c2.38,0,4.31,1.93,4.31,4.31v3.83c0,2.37-1.93,4.31-4.31,4.31Zm-3.83-9.57c-.79,0-1.44.65-1.44,1.44v3.83c0,.56.33,1.07.83,1.28.24.11.42.16.61.16h3.83c.79,0,1.44-.65,1.44-1.44v-3.83c0-.79-.64-1.44-1.44-1.44h-3.83Z"/>
      <path class="cls-1" d="m27.87,22.61h-5.74c-2.38,0-4.31-1.93-4.31-4.31v-5.74c0-2.37,1.93-4.31,4.31-4.31h5.74c2.38,0,4.31,1.93,4.31,4.31v5.74c0,2.37-1.93,4.31-4.31,4.31Zm-5.74-11.49c-.78,0-1.44.66-1.44,1.44v5.74c0,.78.66,1.44,1.44,1.44h5.74c.78,0,1.44-.66,1.44-1.44v-5.74c0-.78-.66-1.44-1.44-1.44h-5.74Z"/>
      <path class="cls-1" d="m38.35,32.18c-.06,0-.11,0-.17,0-.79-.09-1.35-.81-1.26-1.6.03-.27.05-.52.05-.79,0-4.98-2.7-9.57-6.87-11.68-.71-.36-.99-1.22-.63-1.93.36-.71,1.23-.99,1.93-.63,5.13,2.6,8.45,8.19,8.45,14.25,0,.38-.02.74-.07,1.13-.09.73-.71,1.27-1.42,1.27Z"/>
      <path class="cls-1" d="m11.65,32.18c-.72,0-1.34-.54-1.42-1.27-.05-.38-.07-.74-.07-1.13,0-6.06,3.32-11.65,8.45-14.25.71-.35,1.57-.08,1.93.63.36.71.08,1.57-.63,1.93-4.17,2.11-6.87,6.7-6.87,11.68,0,.27.02.52.05.79.09.79-.47,1.5-1.26,1.6-.06,0-.11,0-.17,0Z"/>
    </g>
  </g>
  <g id="guias">
    <rect class="cls-2" x="47.5" y="47.5" width="2.5" height="2.5"/>
    <rect class="cls-2" x="47.5" width="2.5" height="2.5"/>
    <rect class="cls-2" y="47.5" width="2.5" height="2.5"/>
    <rect class="cls-2" width="2.5" height="2.5"/>
  </g>
</svg>