<?xml version="1.0" encoding="UTF-8"?>
<svg xmlns="http://www.w3.org/2000/svg" viewBox="0 0 50 50">
  <defs>
    <style>
      .cls-1 {
        fill: #2e3135;
        stroke-width: 0px;
      }

      .cls-2 {
        fill: none;
        stroke: #000;
        stroke-miterlimit: 10;
        stroke-width: .21px;
      }
    </style>
  </defs>
  <g id="iconos">
    <g>
      <path class="cls-1" d="m25.01,46.44c-1.72,0-3.43-.54-4.86-1.61l-10.91-8.16c-2.03-1.52-3.24-3.94-3.24-6.49V3.56h38.03v26.62c0,2.54-1.21,4.97-3.25,6.49l-10.9,8.16c-1.43,1.07-3.15,1.61-4.86,1.61ZM9.13,6.7v23.48c0,1.56.74,3.05,1.99,3.98l10.91,8.16c1.76,1.31,4.21,1.31,5.97,0l10.91-8.16c1.24-.93,1.99-2.42,1.99-3.98V6.7H9.13Z"/>
      <path class="cls-1" d="m45.93,6.7H4.07c-.87,0-1.57-.7-1.57-1.57s.7-1.57,1.57-1.57h41.86c.87,0,1.57.7,1.57,1.57s-.7,1.57-1.57,1.57Z"/>
      <path class="cls-1" d="m33.37,18.21h-16.74c-.87,0-1.57-.7-1.57-1.57s.7-1.57,1.57-1.57h16.74c.87,0,1.57.7,1.57,1.57s-.7,1.57-1.57,1.57Z"/>
      <path class="cls-1" d="m33.37,28.68h-16.74c-.87,0-1.57-.7-1.57-1.57s.7-1.57,1.57-1.57h16.74c.87,0,1.57.7,1.57,1.57s-.7,1.57-1.57,1.57Z"/>
    </g>
  </g>
  <g id="guias">
    <rect class="cls-2" x="47.5" y="47.5" width="2.5" height="2.5"/>
    <rect class="cls-2" x="47.5" width="2.5" height="2.5"/>
    <rect class="cls-2" y="47.5" width="2.5" height="2.5"/>
    <rect class="cls-2" width="2.5" height="2.5"/>
  </g>
</svg>