<?xml version="1.0" encoding="UTF-8"?>
<svg xmlns="http://www.w3.org/2000/svg" viewBox="0 0 50 50">
  <defs>
    <style>
      .cls-1 {
        fill: none;
        stroke: #000;
        stroke-miterlimit: 10;
        stroke-width: .21px;
      }

      .cls-2 {
        fill: #1e1f22;
        stroke-width: 0px;
      }
    </style>
  </defs>
  <g id="iconos">
    <g>
      <path class="cls-2" d="m17.18,22.43c-.68,0-1.36-.26-1.89-.79l-3.64-3.64c-.51-.51-.79-1.18-.79-1.89s.28-1.38.79-1.89L22.58,3.29h0c1.06-1.06,2.72-1.06,3.77,0l3.64,3.64c1.06,1.06,1.06,2.72,0,3.77l-10.93,10.93c-.53.53-1.21.79-1.89.79Zm-2.87-6.32l2.87,2.87,10.15-10.15-2.87-2.87-10.15,10.15Zm10.54-10.54h0s0,0,0,0h0Z"/>
      <path class="cls-2" d="m17.18,39.14c-.68,0-1.36-.26-1.89-.79l-3.64-3.64c-.51-.51-.79-1.18-.79-1.89s.28-1.38.79-1.89L30.93,11.65c1.02-1.02,2.75-1.02,3.77,0l3.64,3.64c.51.51.79,1.18.79,1.89s-.28,1.38-.79,1.89l-19.28,19.28c-.53.53-1.21.79-1.89.79Zm-2.87-6.32l2.87,2.87,18.51-18.51-2.87-2.87-18.51,18.51Z"/>
      <path class="cls-2" d="m25.54,47.5c-.68,0-1.36-.26-1.89-.79l-3.64-3.64c-1.06-1.06-1.06-2.72,0-3.77l19.28-19.28h0c1.06-1.06,2.71-1.05,3.77,0l3.65,3.65c.51.51.79,1.18.79,1.89s-.28,1.38-.79,1.89l-19.28,19.28c-.53.53-1.21.79-1.89.79Zm-2.87-6.32l2.87,2.87,18.51-18.51-2.87-2.87-18.51,18.51Z"/>
      <path class="cls-2" d="m8.82,30.79c-.68,0-1.36-.26-1.89-.79l-3.64-3.64c-1.06-1.06-1.06-2.71,0-3.77l3.64-3.65c1.06-1.05,2.71-1.05,3.77,0l3.65,3.65c1.06,1.06,1.06,2.72,0,3.77l-3.64,3.64c-.53.53-1.21.79-1.89.79Zm.39-3.07h.02-.02Zm-3.26-3.26l2.87,2.87,2.87-2.87-2.87-2.87-2.87,2.87Z"/>
    </g>
  </g>
  <g id="guias">
    <rect class="cls-1" x="47.5" y="47.5" width="2.5" height="2.5"/>
    <rect class="cls-1" x="47.5" width="2.5" height="2.5"/>
    <rect class="cls-1" y="47.5" width="2.5" height="2.5"/>
    <rect class="cls-1" width="2.5" height="2.5"/>
  </g>
</svg>