<?xml version="1.0" encoding="UTF-8"?>
<svg xmlns="http://www.w3.org/2000/svg" viewBox="0 0 50 50">
  <defs>
    <style>
      .cls-1 {
        fill: none;
        stroke: #000;
        stroke-miterlimit: 10;
        stroke-width: .21px;
      }

      .cls-2 {
        fill: #1e1f22;
        stroke-width: 0px;
      }
    </style>
  </defs>
  <g id="iconos">
    <g>
      <path class="cls-2" d="m33.29,22.39c-.4,0-.8-.15-1.11-.46l-7.25-7.25-7.25,7.25c-.61.61-1.6.61-2.22,0l-4.18-4.18c-.61-.61-.61-1.6,0-2.22L23.82,2.99c.61-.61,1.6-.61,2.22,0l12.54,12.54c.61.61.61,1.6,0,2.22l-4.18,4.18c-.31.31-.71.46-1.11.46Zm-8.36-11.5c.4,0,.8.15,1.11.46l7.25,7.25,1.96-1.96-10.33-10.33-10.33,10.33,1.96,1.96,7.25-7.25c.31-.31.71-.46,1.11-.46Z"/>
      <path class="cls-2" d="m24.93,47.47c-.4,0-.8-.15-1.11-.46l-12.54-12.54c-.61-.61-.61-1.6,0-2.22l4.18-4.18c.61-.61,1.6-.61,2.22,0l7.25,7.25,7.25-7.25c.61-.61,1.6-.61,2.22,0l4.18,4.18c.61.61.61,1.6,0,2.22l-12.54,12.54c-.31.31-.71.46-1.11.46Zm-10.33-14.11l10.33,10.33,10.33-10.33-1.96-1.96-7.25,7.25c-.61.61-1.6.61-2.22,0l-7.25-7.25-1.96,1.96Z"/>
      <path class="cls-2" d="m41.2,31.22c-.4,0-.8-.15-1.11-.46l-4.73-4.73c-.61-.61-.61-1.6,0-2.22l4.73-4.73c.61-.61,1.6-.61,2.22,0l4.73,4.73c.61.61.61,1.6,0,2.22l-4.73,4.73c-.31.31-.71.46-1.11.46Zm-2.51-6.3l2.51,2.51,2.51-2.51-2.51-2.51-2.51,2.51Z"/>
      <path class="cls-2" d="m8.8,31.22c-.4,0-.8-.15-1.11-.46l-4.73-4.73c-.61-.61-.61-1.6,0-2.22l4.73-4.73c.61-.61,1.6-.61,2.22,0l4.73,4.73c.61.61.61,1.6,0,2.22l-4.73,4.73c-.31.31-.71.46-1.11.46Zm-2.51-6.3l2.51,2.51,2.51-2.51-2.51-2.51-2.51,2.51Z"/>
      <path class="cls-2" d="m24.78,31.74c-.4,0-.8-.15-1.11-.46l-5.17-5.17c-.61-.61-.61-1.6,0-2.22l5.17-5.17c.61-.61,1.6-.61,2.22,0l5.17,5.17c.29.29.46.69.46,1.11s-.17.81-.46,1.11l-5.17,5.17c-.31.31-.71.46-1.11.46Zm-2.96-6.74l2.96,2.96,2.96-2.96-2.96-2.96-2.96,2.96Z"/>
    </g>
  </g>
  <g id="guias">
    <rect class="cls-1" x="47.5" y="47.5" width="2.5" height="2.5"/>
    <rect class="cls-1" x="47.5" width="2.5" height="2.5"/>
    <rect class="cls-1" y="47.5" width="2.5" height="2.5"/>
    <rect class="cls-1" width="2.5" height="2.5"/>
  </g>
</svg>