<?xml version="1.0" encoding="UTF-8"?>
<svg xmlns="http://www.w3.org/2000/svg" viewBox="0 0 50 50">
  <defs>
    <style>
      .cls-1 {
        fill: #2e3135;
        stroke-width: 0px;
      }

      .cls-2 {
        fill: none;
        stroke: #000;
        stroke-miterlimit: 10;
        stroke-width: .21px;
      }
    </style>
  </defs>
  <g id="iconos">
    <g>
      <path class="cls-1" d="m27.09,20.81H4.07c-.87,0-1.57-.7-1.57-1.57s.7-1.57,1.57-1.57h23.02c.87,0,1.57.7,1.57,1.57s-.7,1.57-1.57,1.57Z"/>
      <path class="cls-1" d="m16.63,37.56h-4.19c-.87,0-1.57-.7-1.57-1.57s.7-1.57,1.57-1.57h4.19c.87,0,1.57.7,1.57,1.57s-.7,1.57-1.57,1.57Z"/>
      <path class="cls-1" d="m30.23,37.56h-8.37c-.87,0-1.57-.7-1.57-1.57s.7-1.57,1.57-1.57h8.37c.87,0,1.57.7,1.57,1.57s-.7,1.57-1.57,1.57Z"/>
      <path class="cls-1" d="m36.64,45.93H13.36c-8.32,0-10.86-2.51-10.86-10.76v-17.2c0-8.24,2.54-10.76,10.86-10.76h14.32c.87,0,1.57.7,1.57,1.57s-.7,1.57-1.57,1.57h-14.32c-6.57,0-7.72,1.14-7.72,7.62v17.2c0,6.48,1.15,7.62,7.72,7.62h23.27c6.57,0,7.72-1.14,7.72-7.62v-10c0-.87.7-1.57,1.57-1.57s1.57.7,1.57,1.57v10c0,8.25-2.54,10.76-10.86,10.76Z"/>
      <path class="cls-1" d="m42.02,15.06h-6.55c-.87,0-1.57-.7-1.57-1.57v-5.23c0-.87.7-1.57,1.57-1.57h6.55c2.23,0,4.19,1.96,4.19,4.19s-1.88,4.19-4.19,4.19Zm-4.98-3.14h4.98c.58,0,1.05-.47,1.05-1.05,0-.46-.49-1.05-1.05-1.05h-4.98v2.09Z"/>
      <path class="cls-1" d="m42.94,20.29h-7.47c-.87,0-1.57-.7-1.57-1.57v-5.23c0-.87.7-1.57,1.57-1.57h7.47c2.52,0,4.56,1.88,4.56,4.19s-2.05,4.19-4.56,4.19Zm-5.9-3.14h5.9c.77,0,1.42-.48,1.42-1.05s-.65-1.05-1.42-1.05h-5.9v2.09Z"/>
      <path class="cls-1" d="m39.15,22.91c-.87,0-1.57-.7-1.57-1.57v-2.62c0-.87.7-1.57,1.57-1.57s1.57.7,1.57,1.57v2.62c0,.87-.7,1.57-1.57,1.57Z"/>
      <path class="cls-1" d="m39.15,9.83c-.87,0-1.57-.7-1.57-1.57v-2.62c0-.87.7-1.57,1.57-1.57s1.57.7,1.57,1.57v2.62c0,.87-.7,1.57-1.57,1.57Z"/>
      <path class="cls-1" d="m37.95,9.83h-4.58c-.87,0-1.57-.7-1.57-1.57s.7-1.57,1.57-1.57h4.58c.87,0,1.57.7,1.57,1.57s-.7,1.57-1.57,1.57Z"/>
      <path class="cls-1" d="m37.95,20.29h-4.58c-.87,0-1.57-.7-1.57-1.57s.7-1.57,1.57-1.57h4.58c.87,0,1.57.7,1.57,1.57s-.7,1.57-1.57,1.57Z"/>
    </g>
  </g>
  <g id="guias">
    <rect class="cls-2" x="47.5" y="47.5" width="2.5" height="2.5"/>
    <rect class="cls-2" x="47.5" width="2.5" height="2.5"/>
    <rect class="cls-2" y="47.5" width="2.5" height="2.5"/>
    <rect class="cls-2" width="2.5" height="2.5"/>
  </g>
</svg>