<?xml version="1.0" encoding="UTF-8"?>
<svg xmlns="http://www.w3.org/2000/svg" viewBox="0 0 50 50">
  <defs>
    <style>
      .cls-1 {
        fill: none;
        stroke: #000;
        stroke-miterlimit: 10;
        stroke-width: .21px;
      }

      .cls-2 {
        fill: #1e1f22;
        stroke-width: 0px;
      }
    </style>
  </defs>
  <g id="iconos">
    <g>
      <path class="cls-2" d="m28.36,26.78h-9.34c-.83,0-1.5-.67-1.5-1.5v-7.5c0-.83.67-1.5,1.5-1.5h9.34c2.8,0,5.25,2.45,5.25,5.25s-2.35,5.25-5.25,5.25Zm-7.85-2.99h7.85c1.24,0,2.26-1.01,2.26-2.26,0-1.04-.99-2.25-2.26-2.25h-7.85v4.51Z"/>
      <path class="cls-2" d="m29.69,34.26h-10.68c-.83,0-1.5-.67-1.5-1.5v-7.5c0-.83.67-1.5,1.5-1.5h10.68c3.18,0,5.78,2.35,5.78,5.25s-2.59,5.25-5.78,5.25Zm-9.18-2.99h9.18c1.53,0,2.78-1.01,2.78-2.26s-1.25-2.25-2.78-2.25h-9.18v4.51Z"/>
      <path class="cls-2" d="m25.55,37.99c-.83,0-1.5-.67-1.5-1.5v-3.75c0-.83.67-1.5,1.5-1.5s1.5.67,1.5,1.5v3.75c0,.83-.67,1.5-1.5,1.5Z"/>
      <path class="cls-2" d="m20.88,37.99c-.83,0-1.5-.67-1.5-1.5v-3.75c0-.83.67-1.5,1.5-1.5s1.5.67,1.5,1.5v3.75c0,.83-.67,1.5-1.5,1.5Z"/>
      <path class="cls-2" d="m25.55,19.28c-.83,0-1.5-.67-1.5-1.5v-3.75c0-.83.67-1.5,1.5-1.5s1.5.67,1.5,1.5v3.75c0,.83-.67,1.5-1.5,1.5Z"/>
      <path class="cls-2" d="m20.88,19.28c-.83,0-1.5-.67-1.5-1.5v-3.75c0-.83.67-1.5,1.5-1.5s1.5.67,1.5,1.5v3.75c0,.83-.67,1.5-1.5,1.5Z"/>
      <path class="cls-2" d="m22.56,19.28h-6.54c-.83,0-1.5-.67-1.5-1.5s.67-1.5,1.5-1.5h6.54c.83,0,1.5.67,1.5,1.5s-.67,1.5-1.5,1.5Z"/>
      <path class="cls-2" d="m22.56,34.24h-6.54c-.83,0-1.5-.67-1.5-1.5s.67-1.5,1.5-1.5h6.54c.83,0,1.5.67,1.5,1.5s-.67,1.5-1.5,1.5Z"/>
      <path class="cls-2" d="m25,46.44c-11.82,0-21.44-9.62-21.44-21.44S13.18,3.56,25,3.56s21.44,9.62,21.44,21.44-9.62,21.44-21.44,21.44Zm0-39.89C14.83,6.55,6.55,14.83,6.55,25s8.28,18.45,18.45,18.45,18.45-8.28,18.45-18.45S35.17,6.55,25,6.55Z"/>
    </g>
  </g>
  <g id="guias">
    <rect class="cls-1" x="47.5" y="47.5" width="2.5" height="2.5"/>
    <rect class="cls-1" x="47.5" width="2.5" height="2.5"/>
    <rect class="cls-1" y="47.5" width="2.5" height="2.5"/>
    <rect class="cls-1" width="2.5" height="2.5"/>
  </g>
</svg>