<?xml version="1.0" encoding="UTF-8"?>
<svg xmlns="http://www.w3.org/2000/svg" viewBox="0 0 50 50">
  <defs>
    <style>
      .cls-1 {
        fill: #2e3135;
        stroke-width: 0px;
      }

      .cls-2 {
        fill: none;
        stroke: #000;
        stroke-miterlimit: 10;
        stroke-width: .21px;
      }
    </style>
  </defs>
  <g id="iconos">
    <g>
      <path class="cls-1" d="m3.94,25.33c-.37,0-.73-.14-1.01-.42-.56-.56-.56-1.47,0-2.03l3.31-3.33c.27-.27.63-.42,1.02-.42h0c.38,0,.75.15,1.01.42l3.33,3.33c.56.56.56,1.47,0,2.03s-1.47.56-2.03,0l-2.31-2.31-2.3,2.31c-.28.28-.65.42-1.02.42Z"/>
      <path class="cls-1" d="m42.73,30.88c-.37,0-.73-.14-1.01-.42l-3.33-3.33c-.56-.56-.56-1.47,0-2.03s1.47-.56,2.03,0l2.32,2.31,2.32-2.31c.56-.56,1.47-.56,2.03,0s.56,1.47,0,2.03l-3.33,3.33c-.28.28-.65.42-1.01.42Z"/>
      <path class="cls-1" d="m42.71,30.88c-.79,0-1.44-.64-1.44-1.44v-4.44c0-8.98-7.31-16.29-16.29-16.29-4.96,0-9.59,2.23-12.72,6.11-.5.62-1.4.71-2.02.22-.62-.5-.71-1.4-.22-2.02,3.67-4.56,9.13-7.18,14.96-7.18,10.56,0,19.16,8.6,19.16,19.16v4.44c0,.79-.64,1.44-1.44,1.44Z"/>
      <path class="cls-1" d="m24.99,44.16c-10.56,0-19.16-8.6-19.16-19.16v-4.44c0-.79.64-1.44,1.44-1.44s1.44.64,1.44,1.44v4.44c0,8.98,7.31,16.29,16.29,16.29,4.96,0,9.59-2.23,12.72-6.11.5-.61,1.4-.71,2.02-.22.62.5.71,1.4.22,2.02-3.67,4.56-9.13,7.18-14.96,7.18Z"/>
      <path class="cls-1" d="m27.63,26.44h-8.38c-.79,0-1.44-.64-1.44-1.44v-6.7c0-.79.64-1.44,1.44-1.44h8.38c2.55,0,4.79,2.24,4.79,4.79s-2.15,4.79-4.79,4.79Zm-6.95-2.87h6.95c1.06,0,1.91-.86,1.91-1.91,0-.87-.85-1.91-1.91-1.91h-6.95v3.83Z"/>
      <path class="cls-1" d="m28.82,33.14h-9.57c-.79,0-1.44-.64-1.44-1.44v-6.7c0-.79.64-1.44,1.44-1.44h9.57c2.9,0,5.26,2.15,5.26,4.79s-2.36,4.79-5.26,4.79Zm-8.13-2.87h8.13c1.32,0,2.39-.86,2.39-1.91s-1.07-1.91-2.39-1.91h-8.13v3.83Z"/>
      <path class="cls-1" d="m24.61,36.49c-.79,0-1.44-.64-1.44-1.44v-3.35c0-.79.64-1.44,1.44-1.44s1.44.64,1.44,1.44v3.35c0,.79-.64,1.44-1.44,1.44Z"/>
      <path class="cls-1" d="m24.61,19.74c-.79,0-1.44-.64-1.44-1.44v-3.35c0-.79.64-1.44,1.44-1.44s1.44.64,1.44,1.44v3.35c0,.79-.64,1.44-1.44,1.44Z"/>
    </g>
  </g>
  <g id="guias">
    <rect class="cls-2" x="47.5" y="47.5" width="2.5" height="2.5"/>
    <rect class="cls-2" x="47.5" width="2.5" height="2.5"/>
    <rect class="cls-2" y="47.5" width="2.5" height="2.5"/>
    <rect class="cls-2" width="2.5" height="2.5"/>
  </g>
</svg>