<?xml version="1.0" encoding="UTF-8"?>
<svg xmlns="http://www.w3.org/2000/svg" viewBox="0 0 50 50">
  <defs>
    <style>
      .cls-1 {
        fill: #2e3135;
        stroke-width: 0px;
      }

      .cls-2 {
        fill: none;
        stroke: #000;
        stroke-miterlimit: 10;
        stroke-width: .21px;
      }
    </style>
  </defs>
  <g id="iconos">
    <g>
      <path class="cls-1" d="m18.72,34.94c-.81,0-1.53-.06-2.2-.17-7.97-1.05-14.02-7.95-14.02-16.05C2.5,9.78,9.78,2.5,18.72,2.5c8.1,0,15.01,6.05,16.06,14.07.1.63.16,1.34.16,2.15,0,8.94-7.28,16.22-16.22,16.22Zm0-29.3c-7.21,0-13.08,5.87-13.08,13.08,0,6.53,4.87,12.1,11.34,12.95.55.09,1.11.13,1.74.13,7.21,0,13.08-5.87,13.08-13.08,0-.63-.04-1.18-.12-1.69-.86-6.52-6.42-11.39-12.96-11.39Z"/>
      <path class="cls-1" d="m31.28,47.5c-8.1,0-15.01-6.05-16.06-14.07-.06-.49.11-.99.46-1.33.36-.35.86-.5,1.35-.42.51.09,1.06.13,1.69.13,7.21,0,13.08-5.87,13.08-13.08,0-.63-.04-1.19-.12-1.69-.08-.49.07-.99.42-1.35.34-.36.83-.54,1.33-.46,8.02,1.05,14.07,7.96,14.07,16.06,0,8.94-7.28,16.22-16.22,16.22Zm-12.55-12.56c1.59,5.49,6.68,9.42,12.55,9.42,7.21,0,13.08-5.87,13.08-13.08,0-5.87-3.93-10.96-9.42-12.55,0,8.94-7.27,16.2-16.21,16.21Z"/>
      <path class="cls-1" d="m32.24,33.71c-.4,0-.8-.15-1.1-.45l-2.74-2.7c-.62-.61-.63-1.6-.02-2.22.61-.62,1.6-.63,2.22-.02l2.74,2.7c.62.61.63,1.6.02,2.22-.31.31-.71.47-1.12.47Z"/>
      <path class="cls-1" d="m35.46,26.57c-.4,0-.8-.15-1.11-.46l-2.09-2.09c-.61-.61-.61-1.61,0-2.22s1.61-.61,2.22,0l2.09,2.09c.61.61.61,1.61,0,2.22-.31.31-.71.46-1.11.46Z"/>
      <path class="cls-1" d="m25,37.03c-.4,0-.8-.15-1.11-.46l-2.09-2.09c-.61-.61-.61-1.61,0-2.22s1.61-.61,2.22,0l2.09,2.09c.61.61.61,1.61,0,2.22-.31.31-.71.46-1.11.46Z"/>
    </g>
  </g>
  <g id="guias">
    <rect class="cls-2" x="47.5" y="47.5" width="2.5" height="2.5"/>
    <rect class="cls-2" x="47.5" width="2.5" height="2.5"/>
    <rect class="cls-2" y="47.5" width="2.5" height="2.5"/>
    <rect class="cls-2" width="2.5" height="2.5"/>
  </g>
</svg>