<?xml version="1.0" encoding="UTF-8"?>
<svg xmlns="http://www.w3.org/2000/svg" viewBox="0 0 50 50">
  <defs>
    <style>
      .cls-1 {
        fill: #2e3135;
        stroke-width: 0px;
      }

      .cls-2 {
        fill: none;
        stroke: #000;
        stroke-miterlimit: 10;
        stroke-width: .21px;
      }
    </style>
  </defs>
  <g id="iconos">
    <g>
      <path class="cls-1" d="m33.37,39.13c-3.5,0-6.84-1.29-9.43-3.63-.33-.3-.52-.73-.52-1.17s.19-.87.53-1.17c2.32-2.06,3.66-5.04,3.66-8.16s-1.33-6.1-3.66-8.16c-.33-.3-.53-.72-.53-1.17s.18-.87.52-1.17c2.58-2.34,5.93-3.63,9.43-3.63,7.79,0,14.13,6.34,14.13,14.13s-6.34,14.13-14.13,14.13Zm-6.02-4.95c1.77,1.17,3.86,1.81,6.02,1.81,6.06,0,10.99-4.93,10.99-10.99s-4.93-10.99-10.99-10.99c-2.16,0-4.25.63-6.02,1.81,2.18,2.53,3.4,5.79,3.4,9.18s-1.22,6.65-3.4,9.18Z"/>
      <path class="cls-1" d="m16.63,39.13c-7.79,0-14.13-6.34-14.13-14.13s6.34-14.13,14.13-14.13c3.49,0,6.84,1.29,9.43,3.63,2.98,2.64,4.7,6.48,4.7,10.5s-1.72,7.85-4.71,10.51c-2.57,2.33-5.92,3.62-9.41,3.62Zm0-25.12c-6.06,0-10.99,4.93-10.99,10.99s4.93,10.99,10.99,10.99c2.71,0,5.31-1,7.32-2.81,2.34-2.07,3.67-5.05,3.67-8.17s-1.33-6.1-3.66-8.16c-2.02-1.83-4.62-2.83-7.33-2.83Z"/>
    </g>
  </g>
  <g id="guias">
    <rect class="cls-2" x="47.5" y="47.5" width="2.5" height="2.5"/>
    <rect class="cls-2" x="47.5" width="2.5" height="2.5"/>
    <rect class="cls-2" y="47.5" width="2.5" height="2.5"/>
    <rect class="cls-2" width="2.5" height="2.5"/>
  </g>
</svg>