<?xml version="1.0" encoding="UTF-8"?>
<svg xmlns="http://www.w3.org/2000/svg" viewBox="0 0 50 50">
  <defs>
    <style>
      .cls-1 {
        fill: none;
        stroke: #000;
        stroke-miterlimit: 10;
        stroke-width: .21px;
      }

      .cls-2 {
        fill: #1e1f22;
        stroke-width: 0px;
      }
    </style>
  </defs>
  <g id="iconos">
    <g>
      <path class="cls-2" d="m31.28,39.13h-12.56c-5.06,0-7.85-2.79-7.85-7.85v-12.56c0-5.06,2.79-7.85,7.85-7.85h8.37c5.06,0,7.85,2.79,7.85,7.85v2.09c0,.39.13.52.52.52,2.12,0,3.66,1.54,3.66,3.66v6.28c0,5.06-2.79,7.85-7.85,7.85Zm-12.56-25.12c-3.3,0-4.71,1.41-4.71,4.71v12.56c0,3.3,1.41,4.71,4.71,4.71h12.56c3.3,0,4.71-1.41,4.71-4.71v-6.28c0-.39-.14-.52-.52-.52-2.12,0-3.66-1.54-3.66-3.66v-2.09c0-3.3-1.41-4.71-4.71-4.71h-8.37Z"/>
      <path class="cls-2" d="m25,22.38h-4.19c-.87,0-1.57-.7-1.57-1.57s.7-1.57,1.57-1.57h4.19c.87,0,1.57.7,1.57,1.57s-.7,1.57-1.57,1.57Z"/>
      <path class="cls-2" d="m29.19,30.76h-8.37c-.87,0-1.57-.7-1.57-1.57s.7-1.57,1.57-1.57h8.37c.87,0,1.57.7,1.57,1.57s-.7,1.57-1.57,1.57Z"/>
      <path class="cls-2" d="m31.28,47.5h-12.56c-11.37,0-16.22-4.85-16.22-16.22v-12.56C2.5,7.35,7.35,2.5,18.72,2.5h12.56c11.37,0,16.22,4.85,16.22,16.22v12.56c0,11.37-4.85,16.22-16.22,16.22ZM18.72,5.64c-9.66,0-13.08,3.42-13.08,13.08v12.56c0,9.66,3.42,13.08,13.08,13.08h12.56c9.66,0,13.08-3.42,13.08-13.08v-12.56c0-9.66-3.42-13.08-13.08-13.08h-12.56Z"/>
    </g>
  </g>
  <g id="guias">
    <rect class="cls-1" x="47.5" y="47.5" width="2.5" height="2.5"/>
    <rect class="cls-1" x="47.5" width="2.5" height="2.5"/>
    <rect class="cls-1" y="47.5" width="2.5" height="2.5"/>
    <rect class="cls-1" width="2.5" height="2.5"/>
  </g>
</svg>