<?xml version="1.0" encoding="UTF-8"?>
<svg xmlns="http://www.w3.org/2000/svg" viewBox="0 0 50 50">
  <defs>
    <style>
      .cls-1 {
        fill: #2e3135;
        stroke-width: 0px;
      }

      .cls-2 {
        fill: none;
        stroke: #000;
        stroke-miterlimit: 10;
        stroke-width: .21px;
      }
    </style>
  </defs>
  <g id="iconos">
    <g>
      <path class="cls-1" d="m26.29,37.79c-.46,0-.82-.13-1.02-.22-.45-.21-1.5-.91-1.5-2.8v-5.6l-4.84,4.44c-.64.59-1.63.55-2.22-.1-.59-.64-.54-1.63.1-2.22l6.85-6.28-6.85-6.28c-.64-.59-.68-1.58-.1-2.22.58-.64,1.58-.68,2.22-.1l4.84,4.44v-5.6c0-1.9,1.05-2.6,1.5-2.81.45-.21,1.65-.57,3.1.64l4.31,3.6c.64.53,1.02,1.3,1.03,2.11.02.8-.33,1.58-.95,2.13l-4.46,4.09,4.48,4.11c.61.54.95,1.32.93,2.12-.02.81-.39,1.58-1.04,2.11l-4.31,3.6c-.8.66-1.52.85-2.08.85Zm.62-9.8v6.09l3.48-2.9-3.48-3.19Zm3.76,3.45s0,0,0,0h0Zm0-.51h0s0,0,0,0Zm-3.77-14.99v6.09l3.48-3.19-3.48-2.9Zm3.77,3.15h0Zm-.02-.5s0,0,0,0h0Z"/>
      <path class="cls-1" d="m25,47.5c-12.41,0-22.5-10.09-22.5-22.5S12.59,2.5,25,2.5s22.5,10.09,22.5,22.5-10.09,22.5-22.5,22.5Zm0-41.86C14.32,5.64,5.64,14.32,5.64,25s8.68,19.36,19.36,19.36,19.36-8.68,19.36-19.36S35.68,5.64,25,5.64Z"/>
    </g>
  </g>
  <g id="guias">
    <rect class="cls-2" x="47.5" y="47.5" width="2.5" height="2.5"/>
    <rect class="cls-2" x="47.5" width="2.5" height="2.5"/>
    <rect class="cls-2" y="47.5" width="2.5" height="2.5"/>
    <rect class="cls-2" width="2.5" height="2.5"/>
  </g>
</svg>