<?xml version="1.0" encoding="UTF-8"?>
<svg xmlns="http://www.w3.org/2000/svg" viewBox="0 0 50 50">
  <defs>
    <style>
      .cls-1 {
        fill: #2e3135;
        stroke-width: 0px;
      }

      .cls-2 {
        fill: none;
        stroke: #000;
        stroke-miterlimit: 10;
        stroke-width: .21px;
      }
    </style>
  </defs>
  <g id="iconos">
    <g>
      <path class="cls-1" d="m26.29,37.79c-.46,0-.82-.12-1.02-.22-.45-.21-1.5-.91-1.5-2.8v-5.61l-4.84,4.44c-.64.59-1.63.54-2.22-.1-.59-.64-.54-1.63.1-2.22l6.85-6.28-6.85-6.28c-.64-.59-.68-1.58-.1-2.22.58-.64,1.58-.68,2.22-.1l4.84,4.44v-5.61c0-1.9,1.05-2.6,1.5-2.81.45-.21,1.66-.57,3.1.64l4.31,3.6c.64.53,1.02,1.3,1.03,2.11.02.81-.33,1.58-.95,2.13l-4.46,4.09,4.48,4.11c.6.54.95,1.31.93,2.12-.01.81-.39,1.58-1.04,2.11l-4.31,3.6c-.8.66-1.52.85-2.08.85Zm.62-9.8v6.08l3.47-2.9-3.47-3.18Zm3.76,3.45s0,0,0,0h0Zm0-.51h0s0,0,0,0Zm-3.76-14.99v6.08l3.47-3.18-3.47-2.9Zm3.77,3.15h0Zm-.02-.5s0,0,0,0h0Zm-3.72-3.62h0Z"/>
      <path class="cls-1" d="m31.28,47.5h-12.56c-7.2,0-12.03-4.84-12.03-12.03V14.53c0-7.2,4.84-12.03,12.03-12.03h12.56c7.2,0,12.03,4.84,12.03,12.03v20.93c0,7.2-4.84,12.03-12.03,12.03ZM18.72,5.64c-5.4,0-8.9,3.49-8.9,8.9v20.93c0,5.4,3.49,8.9,8.9,8.9h12.56c5.4,0,8.9-3.49,8.9-8.9V14.53c0-5.4-3.49-8.9-8.9-8.9h-12.56Z"/>
    </g>
  </g>
  <g id="guias">
    <rect class="cls-2" x="47.5" y="47.5" width="2.5" height="2.5"/>
    <rect class="cls-2" x="47.5" width="2.5" height="2.5"/>
    <rect class="cls-2" y="47.5" width="2.5" height="2.5"/>
    <rect class="cls-2" width="2.5" height="2.5"/>
  </g>
</svg>