<?xml version="1.0" encoding="UTF-8"?>
<svg xmlns="http://www.w3.org/2000/svg" viewBox="0 0 50 50">
  <defs>
    <style>
      .cls-1 {
        fill: #2e3135;
        stroke-width: 0px;
      }

      .cls-2 {
        fill: none;
        stroke: #000;
        stroke-miterlimit: 10;
        stroke-width: .21px;
      }
    </style>
  </defs>
  <g id="iconos">
    <path class="cls-1" d="m27.36,47.5c-.56,0-1.02-.14-1.33-.29-.75-.35-2.02-1.34-2.02-3.98v-13.5l-11.26,10.32c-.64.58-1.63.54-2.22-.1s-.54-1.63.1-2.22l13.39-12.27v-.94l-13.39-12.27c-.64-.58-.68-1.58-.1-2.22.59-.64,1.58-.68,2.22-.1l11.26,10.32V6.77c0-2.64,1.27-3.63,2.02-3.98.75-.36,2.32-.7,4.36.99l8.06,6.72c.88.74,1.4,1.79,1.43,2.89.03,1.11-.44,2.18-1.29,2.96l-9.43,8.64,9.42,8.64c.85.78,1.32,1.86,1.29,2.97-.03,1.1-.55,2.16-1.43,2.89l-8.06,6.72c-1.2.99-2.23,1.29-3.04,1.29Zm-.21-20.09v15.82c0,.76.18,1.1.24,1.16.03-.01.4-.09,1-.58l8.05-6.72c.19-.16.3-.35.3-.56,0-.2-.09-.41-.28-.58l-9.32-8.54Zm.2-21.77h-.02s-.18.37-.18,1.13v15.82l9.32-8.54c.18-.17.28-.37.27-.57,0-.2-.11-.4-.3-.56l-8.06-6.72c-.55-.46-.92-.56-1.03-.56Z"/>
  </g>
  <g id="guias">
    <rect class="cls-2" x="47.5" y="47.5" width="2.5" height="2.5"/>
    <rect class="cls-2" x="47.5" width="2.5" height="2.5"/>
    <rect class="cls-2" y="47.5" width="2.5" height="2.5"/>
    <rect class="cls-2" width="2.5" height="2.5"/>
  </g>
</svg>