<?xml version="1.0" encoding="UTF-8"?>
<svg xmlns="http://www.w3.org/2000/svg" viewBox="0 0 50 50">
  <defs>
    <style>
      .cls-1 {
        fill: #2e3135;
        stroke-width: 0px;
      }

      .cls-2 {
        fill: none;
        stroke: #000;
        stroke-miterlimit: 10;
        stroke-width: .21px;
      }
    </style>
  </defs>
  <g id="iconos">
    <g>
      <path class="cls-1" d="m25,47.5c-10.21,0-18.52-8.31-18.52-18.52-.07-11.95,11.36-21.96,16.27-25.71,1.31-1.02,3.15-1.02,4.47.01,3.84,2.96,16.33,13.56,16.3,25.73,0,10.2-8.31,18.5-18.52,18.5Zm-.02-41.86c-.11,0-.22.03-.31.11-3.55,2.71-15.11,12.38-15.05,23.22,0,8.49,6.9,15.39,15.38,15.39s15.38-6.89,15.38-15.36c.02-10.74-11.54-20.51-15.09-23.25h0c-.09-.08-.2-.11-.31-.11Z"/>
      <path class="cls-1" d="m24.98,47.5c-.87,0-1.57-.7-1.57-1.57V4.07c0-.87.7-1.57,1.57-1.57s1.57.7,1.57,1.57v41.86c0,.87-.7,1.57-1.57,1.57Z"/>
      <path class="cls-1" d="m24.98,41.14c-.58,0-1.14-.32-1.41-.88-.38-.78-.05-1.72.73-2.1l16.11-7.83c.78-.38,1.72-.05,2.1.73.38.78.05,1.72-.73,2.1l-16.11,7.83c-.22.11-.46.16-.68.16Z"/>
      <path class="cls-1" d="m24.98,30.67c-.58,0-1.14-.32-1.41-.88-.38-.78-.05-1.72.73-2.1l15.43-7.49c.79-.37,1.72-.05,2.1.73.38.78.05,1.72-.73,2.1l-15.43,7.49c-.22.11-.46.16-.68.16Z"/>
      <path class="cls-1" d="m24.98,20.21c-.58,0-1.14-.32-1.41-.88-.38-.78-.06-1.72.72-2.1l10.53-5.13c.78-.38,1.72-.05,2.1.72.38.78.06,1.72-.72,2.1l-10.53,5.13c-.22.11-.46.16-.68.16Z"/>
    </g>
  </g>
  <g id="guias">
    <rect class="cls-2" x="47.5" y="47.5" width="2.5" height="2.5"/>
    <rect class="cls-2" x="47.5" width="2.5" height="2.5"/>
    <rect class="cls-2" y="47.5" width="2.5" height="2.5"/>
    <rect class="cls-2" width="2.5" height="2.5"/>
  </g>
</svg>