<?xml version="1.0" encoding="UTF-8"?>
<svg xmlns="http://www.w3.org/2000/svg" viewBox="0 0 50 50">
  <defs>
    <style>
      .cls-1 {
        fill: #2e3135;
        stroke-width: 0px;
      }

      .cls-2 {
        fill: none;
        stroke: #000;
        stroke-miterlimit: 10;
        stroke-width: .21px;
      }
    </style>
  </defs>
  <g id="iconos">
    <g>
      <path class="cls-1" d="m31.5,30.92c-1.13,0-2.36-.38-3.61-1.13l-2.6-1.57c-.12-.07-.48-.07-.6,0l-2.58,1.57c-2.14,1.29-4.23,1.48-5.88.54-1.63-.92-2.52-2.76-2.52-5.18v-13.84c0-4.79,2.62-7.42,7.36-7.42h7.85c4.75,0,7.36,2.64,7.36,7.42v13.84c0,2.42-.9,4.26-2.52,5.18-.69.39-1.46.58-2.27.58Zm-6.5-5.7c.64,0,1.29.16,1.81.47l2.6,1.58c1.16.7,2.22.88,2.9.5.65-.37,1.03-1.33,1.03-2.62v-13.84c0-3.14-1.32-4.48-4.42-4.48h-7.85c-3.1,0-4.42,1.34-4.42,4.48v13.84c0,1.29.37,2.25,1.03,2.62.68.38,1.74.2,2.91-.5l2.58-1.57c.53-.32,1.18-.48,1.83-.48Z"/>
      <path class="cls-1" d="m30.89,46.11h-11.78c-10.67,0-15.22-4.59-15.22-15.35v-5.95c0-9.15,3.3-13.78,10.69-15.02.8-.15,1.56.41,1.7,1.21.13.8-.41,1.56-1.21,1.7-5.93.99-8.24,4.39-8.24,12.12v5.95c0,9.05,3.33,12.41,12.27,12.41h11.78c8.95,0,12.27-3.36,12.27-12.41v-5.95c0-7.85-2.4-11.27-8.56-12.17-.8-.12-1.36-.87-1.24-1.67.12-.8.87-1.35,1.67-1.24,7.66,1.13,11.08,5.78,11.08,15.09v5.95c0,10.76-4.55,15.35-15.22,15.35Z"/>
    </g>
  </g>
  <g id="guias">
    <rect class="cls-2" x="47.5" y="47.5" width="2.5" height="2.5"/>
    <rect class="cls-2" x="47.5" width="2.5" height="2.5"/>
    <rect class="cls-2" y="47.5" width="2.5" height="2.5"/>
    <rect class="cls-2" width="2.5" height="2.5"/>
  </g>
</svg>