<?xml version="1.0" encoding="UTF-8"?>
<svg xmlns="http://www.w3.org/2000/svg" viewBox="0 0 50 50">
  <defs>
    <style>
      .cls-1 {
        fill: #2e3135;
        stroke-width: 0px;
      }

      .cls-2 {
        fill: none;
        stroke: #000;
        stroke-miterlimit: 10;
        stroke-width: .21px;
      }
    </style>
  </defs>
  <g id="iconos">
    <g>
      <path class="cls-1" d="m24.99,45.86c-.62,0-1.25-.14-1.76-.43-3.86-2.11-10.66-4.34-14.93-4.91l-.61-.08c-2.72-.34-4.94-2.87-4.94-5.63V9.82c0-1.63.65-3.13,1.82-4.21,1.17-1.08,2.71-1.59,4.33-1.46,4.54.37,11.4,2.64,15.3,5.07l.5.3c.13.07.46.07.58,0l.32-.21c1.39-.86,3.12-1.71,5.02-2.48.47-.19,1.02-.13,1.45.16.43.29.68.77.68,1.28v5.55l1.73-1.15c.52-.35,1.2-.35,1.72,0l1.73,1.15v-7.9c0-.75.54-1.39,1.27-1.53.61-.11,1.2-.18,1.74-.23.04,0,.21,0,.25,0,1.51-.14,3.05.39,4.23,1.47,1.17,1.07,1.81,2.57,1.81,4.2v24.97c0,2.77-2.22,5.29-4.96,5.63l-.69.08c-4.26.57-11.08,2.82-14.87,4.91-.49.28-1.11.43-1.73.43ZM8.41,7.24c-.66,0-1.27.23-1.73.66-.53.48-.82,1.17-.82,1.92v24.99c0,1.21,1.05,2.41,2.24,2.56l.62.08c4.65.62,11.79,2.97,15.92,5.22.19.09.46.09.56.05,4.15-2.29,11.32-4.66,15.99-5.28l.7-.08c1.19-.15,2.23-1.34,2.23-2.56V9.84c0-.76-.29-1.44-.81-1.92-.53-.48-1.23-.71-2-.65-.06,0-.24,0-.29.01v9.45c0,.57-.32,1.1-.82,1.37-.51.27-1.12.24-1.59-.08l-3.28-2.18-3.28,2.18c-.47.32-1.08.35-1.59.08-.5-.27-.82-.8-.82-1.37v-6.07c-.89.42-1.7.86-2.39,1.29l-.32.21c-1.14.71-2.75.7-3.85.02l-.5-.3c-3.51-2.18-9.87-4.29-13.93-4.62-.08,0-.16-.01-.24-.01Z"/>
      <path class="cls-1" d="m25,44.12c-.86,0-1.55-.69-1.55-1.55V11.54c0-.86.69-1.55,1.55-1.55s1.55.69,1.55,1.55v31.03c0,.86-.69,1.55-1.55,1.55Z"/>
      <path class="cls-1" d="m39.48,18.28c-.3,0-.6-.09-.86-.26l-3.28-2.18-3.28,2.18c-.47.32-1.08.35-1.59.08-.5-.27-.82-.8-.82-1.37v-8.44c0-.64.39-1.21.98-1.44,2.85-1.13,5.98-2.02,8.6-2.45.45-.07.91.05,1.25.35.35.29.55.73.55,1.18v10.8c0,.57-.32,1.1-.82,1.37-.23.12-.48.18-.73.18Zm-4.14-5.85c.3,0,.6.09.86.26l1.73,1.15v-6.02c-1.66.38-3.45.91-5.17,1.54v4.48l1.73-1.15c.26-.17.56-.26.86-.26Z"/>
    </g>
  </g>
  <g id="guias">
    <rect class="cls-2" x="47.5" y="47.5" width="2.5" height="2.5"/>
    <rect class="cls-2" x="47.5" width="2.5" height="2.5"/>
    <rect class="cls-2" y="47.5" width="2.5" height="2.5"/>
    <rect class="cls-2" width="2.5" height="2.5"/>
  </g>
</svg>