<?xml version="1.0" encoding="UTF-8"?>
<svg xmlns="http://www.w3.org/2000/svg" viewBox="0 0 50 50">
  <defs>
    <style>
      .cls-1 {
        fill: #2e3135;
        stroke-width: 0px;
      }

      .cls-2 {
        fill: none;
        stroke: #000;
        stroke-miterlimit: 10;
        stroke-width: .21px;
      }
    </style>
  </defs>
  <g id="iconos">
    <g>
      <path class="cls-1" d="m24.99,46.11c-.63,0-1.26-.15-1.78-.44-3.9-2.13-10.78-4.39-15.1-4.96l-.61-.08c-2.75-.34-5-2.9-5-5.7V9.64c0-1.65.65-3.16,1.84-4.26,1.18-1.09,2.74-1.61,4.38-1.47,4.59.37,11.54,2.67,15.48,5.13l.5.3c.13.07.47.07.59,0l.32-.21c3.94-2.48,10.9-4.81,15.52-5.21.04,0,.21,0,.26,0,1.52-.14,3.09.39,4.28,1.49,1.18,1.09,1.84,2.6,1.84,4.25v25.26c0,2.8-2.25,5.36-5.02,5.7l-.7.08c-4.31.57-11.21,2.85-15.04,4.96-.49.29-1.12.43-1.75.43ZM8.22,7.03c-.67,0-1.28.23-1.75.67-.53.49-.82,1.18-.82,1.95v25.28c0,1.23,1.06,2.43,2.27,2.59l.63.09c4.7.63,11.94,3,16.11,5.29.19.09.46.1.57.05,4.2-2.32,11.45-4.71,16.18-5.34l.71-.09c1.2-.15,2.26-1.36,2.26-2.59V9.66c0-.76-.29-1.45-.82-1.94-.53-.49-1.25-.73-2.02-.66-.04,0-.21,0-.26,0-4,.35-10.45,2.51-13.96,4.72l-.34.22c-1.15.71-2.78.72-3.9.02l-.51-.3c-3.54-2.21-9.98-4.35-14.09-4.68-.08,0-.16-.01-.25-.01Z"/>
      <path class="cls-1" d="m25,44.34c-.87,0-1.57-.7-1.57-1.57V11.38c0-.87.7-1.57,1.57-1.57s1.57.7,1.57,1.57v31.4c0,.87-.7,1.57-1.57,1.57Z"/>
      <path class="cls-1" d="m16.1,19.23h-4.71c-.87,0-1.57-.7-1.57-1.57s.7-1.57,1.57-1.57h4.71c.87,0,1.57.7,1.57,1.57s-.7,1.57-1.57,1.57Z"/>
      <path class="cls-1" d="m17.67,25.51h-6.28c-.87,0-1.57-.7-1.57-1.57s.7-1.57,1.57-1.57h6.28c.87,0,1.57.7,1.57,1.57s-.7,1.57-1.57,1.57Z"/>
    </g>
  </g>
  <g id="guias">
    <rect class="cls-2" x="47.5" y="47.5" width="2.5" height="2.5"/>
    <rect class="cls-2" x="47.5" width="2.5" height="2.5"/>
    <rect class="cls-2" y="47.5" width="2.5" height="2.5"/>
    <rect class="cls-2" width="2.5" height="2.5"/>
  </g>
</svg>