<?xml version="1.0" encoding="UTF-8"?>
<svg xmlns="http://www.w3.org/2000/svg" viewBox="0 0 50 50">
  <defs>
    <style>
      .cls-1 {
        fill: none;
        stroke: #000;
        stroke-miterlimit: 10;
        stroke-width: .21px;
      }

      .cls-2 {
        fill: #1e1f22;
        stroke-width: 0px;
      }
    </style>
  </defs>
  <g id="iconos">
    <g>
      <path class="cls-2" d="m39.16,47.5H10.84c-.8,0-1.46-.65-1.46-1.46V6.39c0-.8.66-1.46,1.46-1.46h9.14c.27,0,.49.22.49.49s-.22.49-.49.49h-9.14c-.27,0-.49.22-.49.48v39.65c0,.27.22.48.49.48h28.32c.27,0,.49-.22.49-.48V6.39c0-.27-.22-.48-.49-.48h-9.14c-.27,0-.49-.22-.49-.49s.22-.49.49-.49h9.14c.8,0,1.46.65,1.46,1.46v39.65c0,.8-.66,1.46-1.46,1.46Z"/>
      <path class="cls-2" d="m29.14,10.21c-.69,0-1.27-.51-1.36-1.19-.18-1.41-1.3-2.38-2.6-2.38s-2.42.98-2.59,2.27c-.1.79-.69,1.3-1.37,1.3h-.36c-.76,0-1.37-.62-1.37-1.37V3.67c0-.65.52-1.17,1.17-1.17h8.68c.65,0,1.17.52,1.17,1.17v5.17c0,.76-.62,1.37-1.37,1.37Zm-3.96-4.55c1.79,0,3.32,1.34,3.55,3.12.08.65.81.48.81.06V3.67c0-.11-.09-.2-.2-.2h-8.68c-.11,0-.2.09-.2.2v5.17c0,.22.18.4.4.4h.36c.2,0,.37-.15.39-.35.25-1.89,1.78-3.23,3.57-3.23Z"/>
      <g>
        <path class="cls-2" d="m35.54,23.54h-15.19c-.27,0-.49-.22-.49-.49s.22-.49.49-.49h15.19c.27,0,.49.22.49.49s-.22.49-.49.49Z"/>
        <path class="cls-2" d="m14.94,24.82c-.12,0-.23-.04-.32-.12l-1.07-.96c-.2-.18-.22-.49-.04-.69.18-.2.49-.22.69-.04l.69.62,1.58-1.93c.17-.21.47-.24.68-.07.21.17.24.48.07.68l-1.9,2.32c-.08.1-.21.17-.34.18-.01,0-.02,0-.04,0Z"/>
      </g>
      <g>
        <path class="cls-2" d="m35.54,31.32h-15.19c-.27,0-.49-.22-.49-.49s.22-.49.49-.49h15.19c.27,0,.49.22.49.49s-.22.49-.49.49Z"/>
        <path class="cls-2" d="m14.94,32.6c-.12,0-.23-.04-.32-.12l-1.07-.96c-.2-.18-.22-.49-.04-.69.18-.2.49-.22.69-.04l.69.62,1.58-1.93c.17-.21.47-.24.68-.07.21.17.24.48.07.68l-1.9,2.32c-.08.1-.21.17-.34.18-.01,0-.02,0-.04,0Z"/>
      </g>
      <g>
        <path class="cls-2" d="m35.54,39.1h-15.19c-.27,0-.49-.22-.49-.49s.22-.49.49-.49h15.19c.27,0,.49.22.49.49s-.22.49-.49.49Z"/>
        <path class="cls-2" d="m14.94,40.38c-.12,0-.23-.04-.32-.12l-1.07-.96c-.2-.18-.22-.49-.04-.69.18-.2.49-.22.69-.04l.69.62,1.58-1.93c.17-.21.47-.24.68-.07.21.17.24.48.07.68l-1.9,2.32c-.08.1-.21.17-.34.18-.01,0-.02,0-.04,0Z"/>
      </g>
    </g>
  </g>
  <g id="guias">
    <rect class="cls-1" x="47.5" y="47.5" width="2.5" height="2.5"/>
    <rect class="cls-1" x="47.5" width="2.5" height="2.5"/>
    <rect class="cls-1" y="47.5" width="2.5" height="2.5"/>
    <rect class="cls-1" width="2.5" height="2.5"/>
  </g>
</svg>