<?xml version="1.0" encoding="UTF-8"?>
<svg xmlns="http://www.w3.org/2000/svg" viewBox="0 0 50 50">
  <defs>
    <style>
      .cls-1 {
        fill: #2e3135;
        stroke-width: 0px;
      }

      .cls-2 {
        fill: none;
        stroke: #000;
        stroke-miterlimit: 10;
        stroke-width: .21px;
      }
    </style>
  </defs>
  <g id="iconos">
    <g>
      <path class="cls-1" d="m30.89,46.11h-11.78c-10.67,0-15.22-4.55-15.22-15.22v-11.78c0-10.67,4.55-15.22,15.22-15.22h11.78c10.67,0,15.22,4.55,15.22,15.22v11.78c0,10.67-4.55,15.22-15.22,15.22ZM19.11,6.84c-9.06,0-12.27,3.21-12.27,12.27v11.78c0,9.06,3.21,12.27,12.27,12.27h11.78c9.06,0,12.27-3.21,12.27-12.27v-11.78c0-9.06-3.21-12.27-12.27-12.27h-11.78Z"/>
      <path class="cls-1" d="m18.49,31.54c-.82,0-1.59-.2-2.28-.59-1.61-.92-2.5-2.74-2.5-5.13V6.23c0-.81.66-1.47,1.47-1.47s1.47.66,1.47,1.47v19.6c0,1.27.37,2.21,1.01,2.57.68.39,1.75.21,2.93-.5l2.59-1.55c1.05-.63,2.57-.63,3.63,0l2.59,1.55c1.17.71,2.24.89,2.92.51.65-.37,1.02-1.31,1.02-2.58V6.23c0-.81.66-1.47,1.47-1.47s1.47.66,1.47,1.47v19.6c0,2.4-.89,4.23-2.51,5.14-1.63.92-3.78.73-5.89-.54l-2.59-1.55c-.12-.07-.48-.07-.61,0l-2.59,1.55c-1.25.74-2.48,1.12-3.61,1.12Z"/>
      <path class="cls-1" d="m30.89,46.11h-11.78c-10.67,0-15.22-4.55-15.22-15.22v-11.78c0-10.67,4.55-15.22,15.22-15.22h11.78c10.67,0,15.22,4.55,15.22,15.22v11.78c0,10.67-4.55,15.22-15.22,15.22ZM19.11,6.84c-9.06,0-12.27,3.21-12.27,12.27v11.78c0,9.06,3.21,12.27,12.27,12.27h11.78c9.06,0,12.27-3.21,12.27-12.27v-11.78c0-9.06-3.21-12.27-12.27-12.27h-11.78Z"/>
      <path class="cls-1" d="m18.49,31.54c-.82,0-1.59-.2-2.28-.59-1.61-.92-2.5-2.74-2.5-5.13V6.23c0-.81.66-1.47,1.47-1.47s1.47.66,1.47,1.47v19.6c0,1.27.37,2.21,1.01,2.57.68.39,1.75.21,2.93-.5l2.59-1.55c1.05-.63,2.57-.63,3.63,0l2.59,1.55c1.17.71,2.24.89,2.92.51.65-.37,1.02-1.31,1.02-2.58V6.23c0-.81.66-1.47,1.47-1.47s1.47.66,1.47,1.47v19.6c0,2.4-.89,4.23-2.51,5.14-1.63.92-3.78.73-5.89-.54l-2.59-1.55c-.12-.07-.48-.07-.61,0l-2.59,1.55c-1.25.74-2.48,1.12-3.61,1.12Z"/>
    </g>
  </g>
  <g id="guias">
    <rect class="cls-2" x="47.5" y="47.5" width="2.5" height="2.5"/>
    <rect class="cls-2" x="47.5" width="2.5" height="2.5"/>
    <rect class="cls-2" y="47.5" width="2.5" height="2.5"/>
    <rect class="cls-2" width="2.5" height="2.5"/>
  </g>
</svg>