<?xml version="1.0" encoding="UTF-8"?>
<svg xmlns="http://www.w3.org/2000/svg" viewBox="0 0 50 50">
  <defs>
    <style>
      .cls-1 {
        fill: #2e3135;
        stroke-width: 0px;
      }

      .cls-2 {
        fill: none;
        stroke: #000;
        stroke-miterlimit: 10;
        stroke-width: .21px;
      }
    </style>
  </defs>
  <g id="iconos">
    <g>
      <path class="cls-1" d="m7.21,39.13c-.87,0-1.57-.7-1.57-1.57V14.54c0-9.22,2.81-12.03,12.03-12.03h14.65c9.22,0,12.03,2.81,12.03,12.03v20.93c0,.33,0,.66-.02.99-.06.86-.77,1.52-1.68,1.46-.86-.06-1.52-.81-1.46-1.68.02-.26.02-.51.02-.77V14.54c0-7.48-1.41-8.89-8.89-8.89h-14.65c-7.48,0-8.89,1.41-8.89,8.89v23.02c0,.87-.7,1.57-1.57,1.57Z"/>
      <path class="cls-1" d="m35.46,47.5H14.54c-4.91,0-8.89-3.99-8.89-8.89v-1.36c0-4.16,3.38-7.54,7.53-7.54h29.62c.87,0,1.57.7,1.57,1.57v7.33c0,4.91-3.99,8.89-8.89,8.89Zm-22.29-14.65c-2.42,0-4.39,1.97-4.39,4.4v1.36c0,3.17,2.58,5.76,5.76,5.76h20.93c3.17,0,5.76-2.58,5.76-5.76v-5.76H13.17Z"/>
      <path class="cls-1" d="m33.37,16.11h-16.74c-.87,0-1.57-.7-1.57-1.57s.7-1.57,1.57-1.57h16.74c.87,0,1.57.7,1.57,1.57s-.7,1.57-1.57,1.57Z"/>
      <path class="cls-1" d="m27.09,23.43h-10.46c-.87,0-1.57-.7-1.57-1.57s.7-1.57,1.57-1.57h10.46c.87,0,1.57.7,1.57,1.57s-.7,1.57-1.57,1.57Z"/>
    </g>
  </g>
  <g id="guias">
    <rect class="cls-2" x="47.5" y="47.5" width="2.5" height="2.5"/>
    <rect class="cls-2" x="47.5" width="2.5" height="2.5"/>
    <rect class="cls-2" y="47.5" width="2.5" height="2.5"/>
    <rect class="cls-2" width="2.5" height="2.5"/>
  </g>
</svg>