<?xml version="1.0" encoding="UTF-8"?>
<svg xmlns="http://www.w3.org/2000/svg" viewBox="0 0 50 50">
  <defs>
    <style>
      .cls-1 {
        fill: #2e3135;
        stroke-width: 0px;
      }

      .cls-2 {
        fill: none;
        stroke: #000;
        stroke-miterlimit: 10;
        stroke-width: .21px;
      }
    </style>
  </defs>
  <g id="iconos">
    <g>
      <path class="cls-1" d="m31.28,47.5h-12.56c-11.37,0-16.22-4.85-16.22-16.22v-12.56C2.5,7.35,7.35,2.5,18.72,2.5h12.56c11.37,0,16.22,4.85,16.22,16.22v12.56c0,11.37-4.85,16.22-16.22,16.22ZM18.72,5.64c-9.66,0-13.08,3.42-13.08,13.08v12.56c0,9.66,3.42,13.08,13.08,13.08h12.56c9.66,0,13.08-3.42,13.08-13.08v-12.56c0-9.66-3.42-13.08-13.08-13.08h-12.56Z"/>
      <path class="cls-1" d="m25,39.56c-.46,0-.93-.1-1.33-.31-.06-.02-.11-.05-.15-.07-2.41-1.32-6.7-2.74-9.37-3.08l-.44-.07c-1.96-.22-3.63-2.1-3.63-4.18V15.73c0-1.21.48-2.32,1.35-3.12.87-.81,2.04-1.18,3.23-1.1,3.09.25,7.54,1.73,10.13,3.36l.21.13.1-.07c2.67-1.66,7.12-3.15,10.15-3.4.04,0,.17,0,.21,0,1.1-.09,2.25.3,3.12,1.1.86.8,1.34,1.91,1.34,3.12v16.1c0,2.12-1.64,3.96-3.74,4.2l-.39.06c-2.78.38-7.09,1.8-9.42,3.1-.38.24-.87.36-1.38.36Zm.04-3.13s.06.03.09.04c-.03-.02-.06-.03-.09-.04Zm-.09-.04s.01,0,.02,0c2.75-1.49,7.33-2.99,10.4-3.41l.43-.06c.55-.06,1-.57,1-1.08V15.75c0-.42-.18-.68-.33-.82-.22-.2-.51-.31-.86-.27-2.6.21-6.6,1.55-8.82,2.93l-.22.14c-.89.54-2.16.56-3.05.03l-.38-.23c-2.16-1.36-6.15-2.68-8.72-2.89-.32-.02-.63.07-.85.28-.22.2-.34.49-.34.82v16.12c0,.49.46,1.02.93,1.08l.46.08c2.95.38,7.59,1.9,10.34,3.39Z"/>
      <path class="cls-1" d="m25,38.41c-.87,0-1.57-.7-1.57-1.57v-20.01c0-.87.7-1.57,1.57-1.57s1.57.7,1.57,1.57v20.01c0,.87-.7,1.57-1.57,1.57Z"/>
    </g>
  </g>
  <g id="guias">
    <rect class="cls-2" x="47.5" y="47.5" width="2.5" height="2.5"/>
    <rect class="cls-2" x="47.5" width="2.5" height="2.5"/>
    <rect class="cls-2" y="47.5" width="2.5" height="2.5"/>
    <rect class="cls-2" width="2.5" height="2.5"/>
  </g>
</svg>