<?xml version="1.0" encoding="UTF-8"?>
<svg xmlns="http://www.w3.org/2000/svg" viewBox="0 0 50 50">
  <defs>
    <style>
      .cls-1 {
        fill: none;
        stroke: #000;
        stroke-miterlimit: 10;
        stroke-width: .21px;
      }

      .cls-2 {
        fill: #1e1f22;
        stroke-width: 0px;
      }
    </style>
  </defs>
  <g id="iconos">
    <g>
      <path class="cls-2" d="m34.57,43.67H15.43c-4.03,0-7.18-3.15-7.18-7.18v-1.53c0-1.56-.21-2.82-.65-3.84-.03-.06-.05-.13-.07-.19-.4-1.47-1.95-2.58-3.59-2.58-.79,0-1.44-.64-1.44-1.44v-3.83c0-.79.64-1.44,1.44-1.44,1.65,0,3.19-1.11,3.59-2.58.51-1.39.72-2.55.72-4.03v-1.53c0-4.03,3.15-7.18,7.18-7.18h19.15c4.03,0,7.18,3.15,7.18,7.18v1.53c0,1.56.21,2.82.65,3.84.03.06.05.12.07.19.4,1.47,1.94,2.58,3.59,2.58.79,0,1.44.64,1.44,1.44v3.83c0,.79-.64,1.44-1.44,1.44-1.61,0-3.04,1.06-3.63,2.69-.48,1.27-.68,2.44-.68,3.91v1.53c0,4.03-3.15,7.18-7.18,7.18Zm-24.3-13.59c.57,1.37.84,2.96.84,4.88v1.53c0,2.46,1.85,4.31,4.31,4.31h19.15c2.46,0,4.31-1.85,4.31-4.31v-1.53c0-1.84.26-3.31.86-4.91.83-2.29,2.67-3.92,4.89-4.41v-1.27c-2.31-.51-4.25-2.22-4.9-4.44-.57-1.36-.85-2.96-.85-4.88v-1.53c0-2.46-1.85-4.31-4.31-4.31H15.43c-2.46,0-4.31,1.85-4.31,4.31v1.53c0,1.84-.26,3.31-.86,4.91-.58,2.16-2.54,3.9-4.89,4.41v1.27c2.31.51,4.25,2.22,4.9,4.44Z"/>
      <path class="cls-2" d="m26.34,34.48h-5.55c-.79,0-1.44-.64-1.44-1.44v-16.08c0-.79.64-1.44,1.44-1.44h5.55c3.11,0,5.46,2.34,5.46,5.46,0,1.63-.64,3.04-1.69,4.02,1.05.98,1.69,2.4,1.69,4.02,0,3.11-2.34,5.46-5.46,5.46Zm-4.12-2.87h4.12c1.5,0,2.58-1.09,2.58-2.58s-1.09-2.58-2.58-2.58h-4.12v5.17Zm0-8.04h4.12c1.5,0,2.58-1.09,2.58-2.59s-1.09-2.58-2.58-2.58h-4.12v5.17Z"/>
    </g>
  </g>
  <g id="guias">
    <rect class="cls-1" x="47.5" y="47.5" width="2.5" height="2.5"/>
    <rect class="cls-1" x="47.5" width="2.5" height="2.5"/>
    <rect class="cls-1" y="47.5" width="2.5" height="2.5"/>
    <rect class="cls-1" width="2.5" height="2.5"/>
  </g>
</svg>