<?xml version="1.0" encoding="UTF-8"?>
<svg xmlns="http://www.w3.org/2000/svg" viewBox="0 0 50 50">
  <defs>
    <style>
      .cls-1 {
        fill: #2e3135;
        stroke-width: 0px;
      }

      .cls-2 {
        fill: none;
        stroke: #000;
        stroke-miterlimit: 10;
        stroke-width: .21px;
      }
    </style>
  </defs>
  <g id="iconos">
    <g>
      <path class="cls-1" d="m23.58,27.65c-.26,0-.53-.07-.77-.2L4.85,17.04c-.73-.42-.98-1.36-.56-2.09.42-.73,1.36-.97,2.09-.56l17.21,9.96,17.09-9.9c.73-.42,1.66-.17,2.09.56.42.73.17,1.66-.56,2.09l-17.85,10.34c-.24.14-.5.2-.77.2Z"/>
      <path class="cls-1" d="m23.58,46.08c-.84,0-1.53-.68-1.53-1.53v-18.46c0-.84.68-1.53,1.53-1.53s1.53.68,1.53,1.53v18.46c0,.84-.68,1.53-1.53,1.53Z"/>
      <path class="cls-1" d="m23.58,46.88c-1.85,0-3.62-.42-4.96-1.17l-10.86-6.02c-2.95-1.63-5.26-5.56-5.26-8.93v-11.52c0-3.37,2.31-7.29,5.27-8.93l10.87-6.03c2.77-1.55,7.13-1.56,9.91,0l10.86,6.02c2.95,1.64,5.27,5.56,5.27,8.93v7.45c0,.84-.68,1.53-1.53,1.53s-1.53-.68-1.53-1.53v-7.45c0-2.24-1.73-5.17-3.69-6.26l-10.87-6.03c-1.85-1.04-5.09-1.04-6.94,0l-10.88,6.03c-1.97,1.09-3.69,4.01-3.69,6.26v11.52c0,2.24,1.72,5.17,3.69,6.26l10.87,6.02c1.78,1.01,5.17,1,6.94,0,.74-.41,1.67-.15,2.08.58.41.74.15,1.67-.58,2.08-1.35.76-3.11,1.17-4.96,1.17Z"/>
      <path class="cls-1" d="m38.24,45.66c-4.43,0-8.04-3.61-8.04-8.04s3.61-8.04,8.04-8.04,8.04,3.61,8.04,8.04-3.61,8.04-8.04,8.04Zm0-13.03c-2.75,0-4.99,2.24-4.99,4.99s2.24,4.99,4.99,4.99,4.99-2.24,4.99-4.99-2.24-4.99-4.99-4.99Z"/>
      <path class="cls-1" d="m45.97,46.88c-.39,0-.78-.15-1.08-.45l-2.04-2.04c-.6-.6-.6-1.56,0-2.16s1.56-.6,2.16,0l2.04,2.04c.6.6.6,1.56,0,2.16-.3.3-.69.45-1.08.45Z"/>
    </g>
  </g>
  <g id="guias">
    <rect class="cls-2" x="47.5" y="47.5" width="2.5" height="2.5"/>
    <rect class="cls-2" x="47.5" width="2.5" height="2.5"/>
    <rect class="cls-2" y="47.5" width="2.5" height="2.5"/>
    <rect class="cls-2" width="2.5" height="2.5"/>
  </g>
</svg>