<?xml version="1.0" encoding="UTF-8"?>
<svg xmlns="http://www.w3.org/2000/svg" viewBox="0 0 50 50">
  <defs>
    <style>
      .cls-1 {
        fill: #2e3135;
        stroke-width: 0px;
      }

      .cls-2 {
        fill: none;
        stroke: #000;
        stroke-miterlimit: 10;
        stroke-width: .21px;
      }
    </style>
  </defs>
  <g id="iconos">
    <g>
      <path class="cls-1" d="m37.84,46.88c-3.34,0-6.46-1.73-8.19-4.53-.94-1.47-1.46-3.19-1.49-4.95-.07-2.94,1.19-5.72,3.46-7.61,1.73-1.43,3.8-2.2,5.99-2.25,2.59-.08,5.03.89,6.9,2.68,1.87,1.78,2.93,4.19,2.99,6.77.05,1.76-.41,3.49-1.31,5.03-.45.82-1.1,1.63-1.86,2.31-1.69,1.57-3.93,2.48-6.29,2.55-.07,0-.13,0-.19,0Zm0-16.29c-.05,0-.1,0-.16,0-1.5.03-2.92.56-4.11,1.54-1.54,1.28-2.4,3.18-2.36,5.2.02,1.21.37,2.37,1.02,3.38,1.19,1.93,3.32,3.11,5.59,3.11.04,0,.09,0,.13,0,1.63-.05,3.12-.65,4.3-1.75.52-.47.96-1.01,1.27-1.57.63-1.08.94-2.25.91-3.43h0c-.04-1.77-.77-3.42-2.04-4.64-1.24-1.19-2.86-1.83-4.57-1.83Z"/>
      <path class="cls-1" d="m36.71,40.75c-.38,0-.76-.14-1.05-.42l-2.06-1.95c-.61-.58-.64-1.55-.06-2.16.58-.61,1.55-.64,2.16-.06l1,.95,3.2-3.09c.61-.59,1.58-.57,2.16.04.59.61.57,1.57-.04,2.16l-4.25,4.11c-.3.29-.68.43-1.06.43Z"/>
      <path class="cls-1" d="m23.58,27.64c-.26,0-.53-.07-.76-.2L4.85,17.04c-.73-.42-.98-1.36-.56-2.09.42-.73,1.36-.98,2.08-.56l17.21,9.96,17.08-9.9c.73-.43,1.66-.17,2.09.56.42.73.17,1.66-.56,2.09l-17.85,10.34c-.24.14-.5.2-.77.2Z"/>
      <path class="cls-1" d="m23.58,46.08c-.84,0-1.53-.68-1.53-1.53v-18.46c0-.84.68-1.53,1.53-1.53s1.53.68,1.53,1.53v18.46c0,.84-.68,1.53-1.53,1.53Z"/>
      <path class="cls-1" d="m23.59,46.87c-1.78,0-3.57-.39-4.96-1.17l-10.86-6.02c-2.95-1.63-5.26-5.56-5.26-8.93v-11.52c0-3.37,2.31-7.29,5.26-8.93l10.87-6.02c2.77-1.55,7.13-1.56,9.91,0l10.86,6.02c2.95,1.64,5.26,5.56,5.26,8.93v11.52c0,.21,0,.37-.05.58-.11.53-.49.97-1,1.15-.51.17-1.09.06-1.5-.29-2.33-2.03-5.96-2.11-8.42-.14-1.58,1.25-2.48,3.13-2.48,5.16,0,1.21.33,2.38.95,3.39.16.29.33.51.51.73.3.35.42.81.34,1.26-.08.45-.36.84-.77,1.06l-3.72,2.06c-1.39.78-3.17,1.17-4.95,1.17Zm0-40.7c-1.27,0-2.54.26-3.46.78l-10.87,6.03c-1.97,1.09-3.69,4.01-3.69,6.26v11.52c0,2.24,1.72,5.17,3.69,6.26l10.87,6.02c1.85,1.04,5.09,1.04,6.94,0l2.28-1.26c-.75-1.36-1.16-2.95-1.16-4.58,0-2.97,1.32-5.72,3.63-7.55,2.76-2.2,6.73-2.68,9.83-1.35v-9.07c0-2.24-1.73-5.17-3.7-6.26l-10.87-6.02c-.93-.52-2.2-.78-3.48-.78Z"/>
    </g>
  </g>
  <g id="guias">
    <rect class="cls-2" x="47.5" y="47.5" width="2.5" height="2.5"/>
    <rect class="cls-2" x="47.5" width="2.5" height="2.5"/>
    <rect class="cls-2" y="47.5" width="2.5" height="2.5"/>
    <rect class="cls-2" width="2.5" height="2.5"/>
  </g>
</svg>