<?xml version="1.0" encoding="UTF-8"?>
<svg xmlns="http://www.w3.org/2000/svg" viewBox="0 0 50 50">
  <defs>
    <style>
      .cls-1 {
        fill: #2e3135;
        stroke-width: 0px;
      }

      .cls-2 {
        fill: none;
        stroke: #000;
        stroke-miterlimit: 10;
        stroke-width: .21px;
      }
    </style>
  </defs>
  <g id="iconos">
    <g>
      <path class="cls-1" d="m24.99,27.73c-.27,0-.54-.07-.79-.21L5.71,16.82c-.75-.44-1.01-1.4-.57-2.15s1.4-1,2.14-.57l17.7,10.25,17.57-10.18c.75-.44,1.71-.18,2.15.57.43.75.18,1.71-.57,2.15l-18.36,10.64c-.24.14-.52.21-.79.21Z"/>
      <path class="cls-1" d="m24.99,46.7c-.87,0-1.57-.7-1.57-1.57v-18.99c0-.87.7-1.57,1.57-1.57s1.57.7,1.57,1.57v18.99c0,.87-.7,1.57-1.57,1.57Z"/>
      <path class="cls-1" d="m25,47.5c-1.84,0-3.67-.4-5.11-1.19l-11.18-6.22c-3.03-1.68-5.41-5.71-5.41-9.18v-11.83c0-3.47,2.38-7.5,5.42-9.18l11.18-6.2c2.84-1.59,7.33-1.6,10.21-.03l11.19,6.23c3.03,1.68,5.41,5.71,5.41,9.18v11.83c0,3.47-2.38,7.5-5.42,9.18l-11.18,6.22c-1.43.79-3.27,1.19-5.11,1.19Zm.02-41.86c-1.32,0-2.64.27-3.59.8,0,0,0,0,0,0l-11.18,6.2c-2.02,1.12-3.8,4.13-3.8,6.43v11.83c0,2.31,1.77,5.32,3.8,6.43l11.18,6.22c1.91,1.06,5.26,1.06,7.17,0l11.18-6.22c2.02-1.12,3.8-4.13,3.8-6.44v-11.83c0-2.31-1.77-5.31-3.8-6.43l-11.18-6.22c-.95-.52-2.26-.78-3.56-.78Zm-4.36-.57h.02-.02Z"/>
    </g>
  </g>
  <g id="guias">
    <rect class="cls-2" x="47.5" y="47.5" width="2.5" height="2.5"/>
    <rect class="cls-2" x="47.5" width="2.5" height="2.5"/>
    <rect class="cls-2" y="47.5" width="2.5" height="2.5"/>
    <rect class="cls-2" width="2.5" height="2.5"/>
  </g>
</svg>