<?xml version="1.0" encoding="UTF-8"?>
<svg xmlns="http://www.w3.org/2000/svg" viewBox="0 0 50 50">
  <defs>
    <style>
      .cls-1 {
        fill: #2e3135;
        stroke-width: 0px;
      }

      .cls-2 {
        fill: none;
        stroke: #000;
        stroke-miterlimit: 10;
        stroke-width: .21px;
      }
    </style>
  </defs>
  <g id="iconos">
    <path class="cls-1" d="m25,47.49h0s-.24-.01-.36-.04c-.13-.03-.25-.08-.37-.14l-4.62-2.31c-.55-.28-.87-.83-.87-1.4,0-.24.05-.48.17-.7.39-.77,1.33-1.09,2.11-.7l2.37,1.19v-3.28c0-.87.7-1.57,1.57-1.57s1.57.7,1.57,1.57v3.28l2.37-1.19c.78-.39,1.72-.07,2.11.7.11.23.17.47.17.7,0,.57-.32,1.13-.87,1.4l-4.62,2.31c-.11.06-.24.11-.37.14-.12.03-.24.04-.36.04Zm13.96-6.97c-.58,0-1.13-.32-1.41-.87-.39-.78-.07-1.72.7-2.11l3.78-1.89v-4.85c0-.87.7-1.57,1.57-1.57s1.57.7,1.57,1.57v5.82c0,.59-.34,1.14-.87,1.4l-4.64,2.32c-.23.11-.47.17-.7.17Zm-27.92,0c-.24,0-.48-.05-.7-.17l-4.64-2.32c-.53-.27-.87-.81-.87-1.4v-5.82c0-.71.48-1.33,1.17-1.52.69-.19,1.41.12,1.77.74l4.64,8.14c.34.6.25,1.35-.22,1.86-.3.32-.72.49-1.14.49Zm13.96-10.46c-.87,0-1.57-.7-1.57-1.57v-4.85l-3.78-1.89c-.55-.28-.87-.83-.87-1.4,0-.24.05-.48.17-.7.39-.77,1.33-1.09,2.11-.7l3.94,1.97,3.94-1.97c.78-.39,1.72-.07,2.11.7.11.23.17.47.17.7,0,.57-.32,1.13-.87,1.4l-3.78,1.89v4.85c0,.87-.7,1.57-1.57,1.57Zm18.6-9.31c-.87,0-1.57-.7-1.57-1.57v-3.28l-2.37,1.19c-.78.39-1.72.07-2.11-.7-.11-.23-.17-.47-.17-.7,0-.57.32-1.13.87-1.4l1.84-.92-1.84-.92c-.55-.28-.87-.83-.87-1.4,0-.24.05-.48.17-.7.39-.77,1.32-1.09,2.11-.7l4.61,2.31s.1.05.15.08c.11.07.22.15.31.25,0,0,0,0,0,0,.08.08.15.17.2.27.09.14.15.3.19.46.03.12.04.24.04.36h0v5.82c0,.87-.7,1.57-1.57,1.57Zm-37.2,0c-.87,0-1.57-.7-1.57-1.57v-5.82h0c0-.12.01-.24.04-.36.04-.17.11-.33.2-.47.07-.11.15-.21.24-.29t0,0s0,0,0,0c.08-.08.17-.15.26-.21.05-.03.1-.06.16-.09l4.61-2.31c.78-.39,1.72-.07,2.11.7.11.23.17.47.17.7,0,.57-.32,1.13-.87,1.4l-1.84.92,1.84.92c.55.28.87.83.87,1.4,0,.24-.05.48-.17.7-.39.77-1.32,1.09-2.11.7l-2.37-1.19v3.28c0,.87-.7,1.57-1.57,1.57ZM29.65,7.96h-9.29c-.73,0-1.36-.5-1.53-1.21-.17-.71.17-1.44.83-1.76l4.64-2.32c.44-.22.96-.22,1.4,0l4.64,2.32c.65.32.99,1.06.83,1.76-.17.71-.8,1.21-1.53,1.21Z"/>
  </g>
  <g id="guias">
    <rect class="cls-2" x="47.5" y="47.5" width="2.5" height="2.5"/>
    <rect class="cls-2" x="47.5" width="2.5" height="2.5"/>
    <rect class="cls-2" y="47.5" width="2.5" height="2.5"/>
    <rect class="cls-2" width="2.5" height="2.5"/>
  </g>
</svg>