<?xml version="1.0" encoding="UTF-8"?>
<svg xmlns="http://www.w3.org/2000/svg" viewBox="0 0 50 50">
  <defs>
    <style>
      .cls-1 {
        fill: #2e3135;
        stroke-width: 0px;
      }

      .cls-2 {
        fill: none;
        stroke: #000;
        stroke-miterlimit: 10;
        stroke-width: .21px;
      }
    </style>
  </defs>
  <g id="iconos">
    <g>
      <path class="cls-1" d="m23.59,27.64c-.26,0-.53-.07-.76-.2L4.85,17.04c-.73-.42-.98-1.36-.56-2.09.42-.73,1.36-.98,2.08-.56l17.21,9.96,17.09-9.9c.73-.43,1.66-.17,2.09.56.42.73.17,1.66-.56,2.09l-17.85,10.34c-.24.14-.5.2-.77.2Z"/>
      <path class="cls-1" d="m23.59,46.09c-.84,0-1.53-.68-1.53-1.53v-18.46c0-.84.68-1.53,1.53-1.53s1.53.68,1.53,1.53v18.46c0,.84-.68,1.53-1.53,1.53Z"/>
      <path class="cls-1" d="m23.59,46.88c-1.79,0-3.57-.39-4.96-1.17l-10.86-6.02c-2.95-1.64-5.26-5.56-5.26-8.93v-11.52c0-3.37,2.31-7.29,5.27-8.93l10.87-6.02c2.77-1.56,7.13-1.56,9.91,0l10.86,6.02c2.95,1.64,5.27,5.56,5.27,8.93v11.52c0,.21,0,.37-.05.58-.11.53-.49.97-1,1.15-.51.18-1.09.07-1.5-.29-2.33-2.03-5.95-2.11-8.43-.14-1.57,1.25-2.48,3.13-2.48,5.16,0,1.21.33,2.38.95,3.39.16.29.33.51.51.72.3.35.43.81.35,1.27-.08.45-.36.84-.77,1.07l-3.72,2.06c-1.39.78-3.17,1.17-4.95,1.17Zm0-40.7c-1.27,0-2.54.26-3.46.78l-10.88,6.03c-1.97,1.09-3.69,4.01-3.69,6.25v11.52c0,2.24,1.73,5.17,3.69,6.26l10.87,6.02c1.85,1.04,5.09,1.04,6.94,0l2.28-1.26c-.75-1.37-1.16-2.95-1.16-4.58,0-2.96,1.32-5.71,3.63-7.54,2.77-2.21,6.73-2.69,9.83-1.35v-9.07c0-2.24-1.73-5.17-3.7-6.25l-10.87-6.02c-.93-.52-2.2-.78-3.48-.78Z"/>
      <path class="cls-1" d="m37.83,46.88c-5.33,0-9.67-4.34-9.67-9.67,0-2.96,1.32-5.71,3.63-7.54,1.72-1.37,3.86-2.12,6.04-2.12,5.33,0,9.67,4.34,9.67,9.67,0,2.77-1.2,5.42-3.29,7.25-1.78,1.56-4.05,2.41-6.38,2.41Zm0-16.28c-1.51,0-2.94.5-4.14,1.46-1.57,1.25-2.48,3.13-2.48,5.16,0,3.65,2.97,6.61,6.61,6.61,1.59,0,3.14-.59,4.37-1.66,1.43-1.25,2.25-3.06,2.25-4.96,0-3.65-2.97-6.61-6.61-6.61Z"/>
      <path class="cls-1" d="m35.8,40.77c-.52,0-1.03-.26-1.31-.74-.43-.72-.2-1.66.52-2.09l1.8-1.08v-2.19c0-.84.68-1.53,1.53-1.53s1.53.68,1.53,1.53v3.05c0,.54-.28,1.03-.74,1.31l-2.54,1.53c-.25.15-.52.22-.78.22Z"/>
    </g>
  </g>
  <g id="guias">
    <rect class="cls-2" x="47.5" y="47.5" width="2.5" height="2.5"/>
    <rect class="cls-2" x="47.5" width="2.5" height="2.5"/>
    <rect class="cls-2" y="47.5" width="2.5" height="2.5"/>
    <rect class="cls-2" width="2.5" height="2.5"/>
  </g>
</svg>