<?xml version="1.0" encoding="UTF-8"?>
<svg id="iconos" xmlns="http://www.w3.org/2000/svg" viewBox="0 0 50 50">
  <defs>
    <style>
      .cls-1 {
        fill: #1e1f22;
        stroke-width: 0px;
      }
    </style>
  </defs>
  <path class="cls-1" d="m45.68,43.52H4.32c-1.01,0-1.82-.92-1.82-2.04v-19.8c0-.29.24-.52.52-.52s.52.24.52.52v19.8c0,.54.36,1,.78,1h41.35c.42,0,.78-.46.78-1v-19.8c0-.29.24-.52.52-.52s.52.24.52.52v19.8c0,1.13-.82,2.04-1.82,2.04Z"/>
  <path class="cls-1" d="m18.6,11.73c-.29,0-.52-.24-.52-.52,0-2.6,2.32-4.72,5.18-4.72h4.13c2.08,0,3.95,1.12,4.77,2.87.12.26.01.57-.25.7-.26.12-.57.01-.7-.25-.65-1.38-2.14-2.27-3.82-2.27h-4.13c-2.28,0-4.14,1.65-4.14,3.68,0,.29-.24.52-.52.52Z"/>
  <path class="cls-1" d="m40.06,32.98H9.94c-4.1,0-7.44-3.34-7.44-7.44v-12.83c0-.85.7-1.55,1.55-1.55h41.9c.85,0,1.55.7,1.55,1.55v12.83c0,4.11-3.34,7.44-7.44,7.44ZM4.05,12.21c-.28,0-.5.22-.5.5v12.83c0,3.53,2.87,6.4,6.39,6.4h30.12c3.53,0,6.39-2.87,6.39-6.4v-12.83c0-.28-.22-.5-.5-.5H4.05Z"/>
  <path class="cls-1" d="m18.6,36.95h-3.97c-.29,0-.52-.24-.52-.52v-3.97c0-.29.24-.52.52-.52h3.97c.29,0,.52.24.52.52v3.97c0,.29-.24.52-.52.52Zm-3.45-1.05h2.93v-2.92h-2.93v2.92Z"/>
  <path class="cls-1" d="m36.02,36.95h-3.97c-.29,0-.52-.24-.52-.52v-3.97c0-.29.24-.52.52-.52h3.97c.29,0,.52.24.52.52v3.97c0,.29-.24.52-.52.52Zm-3.45-1.05h2.93v-2.92h-2.93v2.92Z"/>
</svg>