<?xml version="1.0" encoding="UTF-8"?>
<svg xmlns="http://www.w3.org/2000/svg" viewBox="0 0 50 50">
  <defs>
    <style>
      .cls-1 {
        fill: #2e3135;
        stroke-width: 0px;
      }

      .cls-2 {
        fill: none;
        stroke: #000;
        stroke-miterlimit: 10;
        stroke-width: .21px;
      }
    </style>
  </defs>
  <g id="iconos">
    <g>
      <path class="cls-1" d="m33.37,47.5h-16.74c-9.67,0-11.45-4.49-11.92-8.87l-1.57-16.76c-.38-3.46.22-6.05,1.86-7.87,1.88-2.1,5-3.12,9.54-3.12h20.93c4.54,0,7.66,1.02,9.54,3.12,1.64,1.83,2.24,4.41,1.86,7.9l-1.57,16.72c-.47,4.41-2.26,8.9-11.92,8.9ZM14.54,14.01c-3.55,0-5.97.7-7.2,2.07-1.02,1.14-1.36,2.87-1.08,5.46l1.57,16.77c.35,3.3,1.26,6.05,8.8,6.05h16.74c7.54,0,8.44-2.75,8.8-6.07l1.57-16.72c.29-2.61-.05-4.35-1.07-5.48-1.23-1.37-3.65-2.07-7.2-2.07H14.54Z"/>
      <path class="cls-1" d="m33.37,14.01c-.87,0-1.57-.7-1.57-1.57v-1.67c0-3.73,0-5.13-5.13-5.13h-3.35c-5.13,0-5.13,1.4-5.13,5.13v1.67c0,.87-.7,1.57-1.57,1.57s-1.57-.7-1.57-1.57v-1.67c0-3.68,0-8.27,8.27-8.27h3.35c8.27,0,8.27,4.58,8.27,8.27v1.67c0,.87-.7,1.57-1.57,1.57Z"/>
      <path class="cls-1" d="m25,34.94c-5.76,0-5.76-3.56-5.76-5.69v-2.16c0-2.94.72-3.66,3.66-3.66h4.19c2.94,0,3.66.72,3.66,3.66v2.09c0,2.18,0,5.76-5.76,5.76Zm-2.61-8.37c0,.17,0,.35,0,.52v2.16c0,2.16,0,2.55,2.62,2.55s2.62-.34,2.62-2.57v-2.14c0-.17,0-.36,0-.52-.17,0-.35,0-.52,0h-4.19c-.17,0-.35,0-.52,0Z"/>
      <path class="cls-1" d="m29.18,30.8c-.78,0-1.46-.58-1.56-1.37-.11-.86.5-1.65,1.36-1.75,5.53-.7,10.81-2.78,15.28-6.03.71-.51,1.68-.35,2.19.35.51.7.36,1.68-.35,2.19-4.9,3.56-10.68,5.85-16.74,6.61-.07,0-.13.01-.2.01Z"/>
      <path class="cls-1" d="m20.82,30.82c-.06,0-.12,0-.18-.01-5.74-.64-11.32-2.73-16.16-6.04-.72-.49-.9-1.47-.41-2.18.49-.71,1.47-.9,2.18-.41,4.41,3.02,9.51,4.93,14.73,5.51.86.1,1.48.87,1.38,1.73-.09.8-.77,1.4-1.56,1.4Z"/>
    </g>
  </g>
  <g id="guias">
    <rect class="cls-2" x="47.5" y="47.5" width="2.5" height="2.5"/>
    <rect class="cls-2" x="47.5" width="2.5" height="2.5"/>
    <rect class="cls-2" y="47.5" width="2.5" height="2.5"/>
    <rect class="cls-2" width="2.5" height="2.5"/>
  </g>
</svg>