<?xml version="1.0" encoding="UTF-8"?>
<svg xmlns="http://www.w3.org/2000/svg" viewBox="0 0 50 50">
  <defs>
    <style>
      .cls-1 {
        fill: #2e3135;
        stroke-width: 0px;
      }

      .cls-2 {
        fill: none;
        stroke: #000;
        stroke-miterlimit: 10;
        stroke-width: .21px;
      }
    </style>
  </defs>
  <g id="iconos">
    <g>
      <path class="cls-1" d="m25,39.55c-5.48,0-9.94-4.46-9.94-9.94s4.46-9.94,9.94-9.94,9.94,4.46,9.94,9.94-4.46,9.94-9.94,9.94Zm0-16.74c-3.75,0-6.8,3.05-6.8,6.8s3.05,6.8,6.8,6.8,6.8-3.05,6.8-6.8-3.05-6.8-6.8-6.8Z"/>
      <path class="cls-1" d="m27.24,33.5c-.4,0-.8-.15-1.11-.46l-4.44-4.42c-.62-.61-.62-1.6,0-2.22.61-.62,1.61-.62,2.22,0l4.44,4.42c.61.61.62,1.6,0,2.22-.31.31-.71.46-1.11.46Z"/>
      <path class="cls-1" d="m22.76,33.56c-.4,0-.8-.15-1.11-.46-.61-.61-.61-1.61,0-2.22l4.44-4.44c.61-.61,1.61-.61,2.22,0s.61,1.61,0,2.22l-4.44,4.44c-.31.31-.71.46-1.11.46Z"/>
      <path class="cls-1" d="m33.37,47.5h-16.74c-9.67,0-11.45-4.49-11.92-8.87l-1.57-16.76c-.38-3.46.22-6.05,1.86-7.87,1.88-2.1,5-3.12,9.54-3.12h20.93c4.54,0,7.66,1.02,9.54,3.12,1.64,1.83,2.24,4.41,1.86,7.9l-1.57,16.72c-.47,4.41-2.26,8.9-11.92,8.9ZM14.54,14.01c-3.55,0-5.97.7-7.2,2.07-1.02,1.14-1.36,2.87-1.08,5.46l1.57,16.77c.35,3.3,1.26,6.05,8.8,6.05h16.74c7.54,0,8.44-2.75,8.8-6.07l1.57-16.72c.29-2.61-.05-4.35-1.07-5.48-1.23-1.37-3.65-2.07-7.2-2.07H14.54Z"/>
      <path class="cls-1" d="m33.37,14.01c-.87,0-1.57-.7-1.57-1.57v-1.67c0-3.73,0-5.13-5.13-5.13h-3.35c-5.13,0-5.13,1.4-5.13,5.13v1.67c0,.87-.7,1.57-1.57,1.57s-1.57-.7-1.57-1.57v-1.67c0-3.68,0-8.27,8.27-8.27h3.35c8.27,0,8.27,4.58,8.27,8.27v1.67c0,.87-.7,1.57-1.57,1.57Z"/>
      <path class="cls-1" d="m33.39,30c-.7,0-1.34-.47-1.52-1.19-.21-.84.3-1.69,1.14-1.9,4.08-1.02,7.87-2.8,11.26-5.27.7-.51,1.68-.36,2.19.35.51.7.36,1.68-.35,2.19-3.72,2.71-7.88,4.65-12.35,5.78-.13.03-.26.05-.38.05Z"/>
      <path class="cls-1" d="m16.63,30.09c-.12,0-.25-.01-.37-.04-4.18-1.02-8.14-2.79-11.77-5.27-.72-.49-.9-1.47-.41-2.18.49-.72,1.47-.9,2.18-.41,3.32,2.27,6.94,3.89,10.75,4.81.84.2,1.36,1.05,1.15,1.9-.17.72-.82,1.2-1.52,1.2Z"/>
    </g>
  </g>
  <g id="guias">
    <rect class="cls-2" x="47.5" y="47.5" width="2.5" height="2.5"/>
    <rect class="cls-2" x="47.5" width="2.5" height="2.5"/>
    <rect class="cls-2" y="47.5" width="2.5" height="2.5"/>
    <rect class="cls-2" width="2.5" height="2.5"/>
  </g>
</svg>