<?xml version="1.0" encoding="UTF-8"?>
<svg xmlns="http://www.w3.org/2000/svg" viewBox="0 0 50 50">
  <defs>
    <style>
      .cls-1 {
        fill: #2e3135;
        stroke-width: 0px;
      }

      .cls-2 {
        fill: none;
        stroke: #000;
        stroke-miterlimit: 10;
        stroke-width: .21px;
      }
    </style>
  </defs>
  <g id="iconos">
    <g>
      <path class="cls-1" d="m25,39.89c-5.61,0-10.18-4.57-10.18-10.18s4.57-10.18,10.18-10.18,10.18,4.57,10.18,10.18-4.57,10.18-10.18,10.18Zm0-17.14c-3.84,0-6.96,3.12-6.96,6.96s3.12,6.96,6.96,6.96,6.96-3.12,6.96-6.96-3.12-6.96-6.96-6.96Z"/>
      <path class="cls-1" d="m23.81,33.24c-.69,0-1.37-.26-1.89-.77l-1.39-1.4c-.63-.63-.63-1.64,0-2.27s1.65-.63,2.27,0l1.02,1.02,3.44-3.17c.65-.6,1.67-.56,2.27.09.6.65.56,1.67-.09,2.27l-3.81,3.51c-.5.47-1.15.71-1.81.71Zm-.37-3.07s0,0-.01.01h.01Z"/>
      <path class="cls-1" d="m33.57,48.04h-17.14c-9.9,0-11.72-4.59-12.21-9.09l-1.61-17.16c-.39-3.55.23-6.19,1.9-8.06,1.92-2.15,5.12-3.19,9.77-3.19h21.43c4.65,0,7.85,1.04,9.77,3.19,1.67,1.87,2.3,4.52,1.9,8.09l-1.6,17.12c-.48,4.51-2.31,9.11-12.21,9.11ZM14.29,13.75c-3.63,0-6.11.71-7.37,2.12-1.04,1.17-1.39,2.94-1.1,5.59l1.61,17.17c.36,3.38,1.29,6.19,9.01,6.19h17.14c7.72,0,8.65-2.81,9.01-6.22l1.61-17.12c.3-2.67-.05-4.45-1.1-5.61-1.26-1.41-3.74-2.12-7.37-2.12H14.29Z"/>
      <path class="cls-1" d="m33.57,13.75c-.89,0-1.61-.72-1.61-1.61v-1.71c0-3.82,0-5.25-5.25-5.25h-3.43c-5.25,0-5.25,1.43-5.25,5.25v1.71c0,.89-.72,1.61-1.61,1.61s-1.61-.72-1.61-1.61v-1.71c0-3.77,0-8.47,8.46-8.47h3.43c8.47,0,8.47,4.69,8.47,8.47v1.71c0,.89-.72,1.61-1.61,1.61Z"/>
      <path class="cls-1" d="m33.59,30.12c-.72,0-1.37-.49-1.56-1.22-.22-.86.31-1.73,1.17-1.95,4.18-1.05,8.06-2.86,11.53-5.4.72-.53,1.72-.36,2.25.35.52.72.36,1.72-.35,2.25-3.81,2.78-8.06,4.77-12.64,5.92-.13.03-.26.05-.39.05Z"/>
      <path class="cls-1" d="m16.43,30.21c-.13,0-.25-.01-.38-.05-4.28-1.04-8.33-2.86-12.06-5.4-.73-.5-.92-1.5-.42-2.23.5-.73,1.5-.92,2.23-.42,3.4,2.32,7.1,3.98,11,4.93.86.21,1.39,1.08,1.18,1.94-.18.73-.84,1.23-1.56,1.23Z"/>
    </g>
  </g>
  <g id="guias">
    <rect class="cls-2" x="47.5" y="47.5" width="2.5" height="2.5"/>
    <rect class="cls-2" x="47.5" width="2.5" height="2.5"/>
    <rect class="cls-2" y="47.5" width="2.5" height="2.5"/>
    <rect class="cls-2" width="2.5" height="2.5"/>
  </g>
</svg>