<?xml version="1.0" encoding="UTF-8"?>
<svg xmlns="http://www.w3.org/2000/svg" viewBox="0 0 50 50">
  <defs>
    <style>
      .cls-1 {
        fill: #2e3135;
        stroke-width: 0px;
      }

      .cls-2 {
        fill: none;
        stroke: #000;
        stroke-miterlimit: 10;
        stroke-width: .21px;
      }
    </style>
  </defs>
  <g id="iconos">
    <g>
      <path class="cls-1" d="m12.18,17.57c-.54,0-1.06-.27-1.36-.76l-3.31-5.43c-1.67-2.76-.79-6.36,1.96-8.03,1.33-.8,2.89-1.05,4.41-.68,1.52.37,2.8,1.3,3.61,2.63l3.31,5.43c.22.36.29.79.19,1.2-.1.41-.36.76-.72.98l-7.26,4.41c-.26.16-.54.23-.83.23Zm.3-11.88c-.48,0-.95.13-1.37.38-1.25.76-1.65,2.39-.89,3.65l2.48,4.07,4.54-2.76-2.48-4.07c-.37-.6-.95-1.03-1.64-1.2-.21-.05-.43-.08-.64-.08Z"/>
      <path class="cls-1" d="m22.72,47.5c-.63,0-1.26-.09-1.88-.27-1.87-.54-3.38-1.83-4.26-3.63l-4.35-8.87c-2.33-4.7-.69-10.32,3.8-13.05l6.71-4.07c4.47-2.73,10.21-1.6,13.33,2.62l5.88,7.94c1.19,1.62,1.64,3.56,1.26,5.46-.38,1.89-1.52,3.5-3.22,4.53l-13.64,8.3c-1.12.69-2.37,1.05-3.63,1.05Zm5.26-28.19c-1.22,0-2.46.33-3.59,1.01h0l-6.71,4.07c-3.07,1.87-4.19,5.71-2.6,8.93l4.35,8.87c.48.98,1.29,1.68,2.29,1.97.98.28,2.04.13,2.96-.44l13.65-8.3c.93-.56,1.55-1.42,1.75-2.43.2-1.02-.05-2.07-.7-2.95l-5.87-7.93c-1.35-1.83-3.42-2.81-5.54-2.81Zm-4.41-.35h.02-.02Z"/>
      <path class="cls-1" d="m14.85,25.81c-.54,0-1.06-.27-1.36-.76l-4.41-7.25c-.22-.36-.29-.79-.19-1.2.1-.41.36-.76.72-.98l10.87-6.62c.75-.46,1.73-.22,2.19.53l4.41,7.25c.22.36.29.79.19,1.2s-.36.76-.72.98l-10.87,6.62c-.26.16-.54.23-.83.23Zm-2.23-8.31l2.76,4.53,8.16-4.97-2.76-4.53-8.16,4.97Z"/>
      <path class="cls-1" d="m32.36,42.54c-.54,0-1.06-.27-1.36-.76l-3.5-5.75c-.46-.75-.22-1.73.53-2.19.75-.46,1.73-.22,2.19.53l3.5,5.75c.46.75.22,1.73-.53,2.19-.26.16-.54.23-.82.23Z"/>
      <path class="cls-1" d="m26.92,45.85c-.54,0-1.06-.27-1.36-.76l-3.5-5.75c-.46-.75-.22-1.73.53-2.19.75-.46,1.73-.22,2.19.53l3.5,5.75c.46.75.22,1.73-.53,2.19-.26.16-.54.23-.82.23Z"/>
      <path class="cls-1" d="m37.79,39.23c-.54,0-1.06-.27-1.36-.76l-3.5-5.75c-.46-.75-.22-1.73.53-2.19.75-.46,1.73-.22,2.19.53l3.5,5.75c.46.75.22,1.73-.53,2.19-.26.16-.54.23-.82.23Z"/>
    </g>
  </g>
  <g id="guias">
    <rect class="cls-2" x="47.5" y="47.5" width="2.5" height="2.5"/>
    <rect class="cls-2" x="47.5" width="2.5" height="2.5"/>
    <rect class="cls-2" y="47.5" width="2.5" height="2.5"/>
    <rect class="cls-2" width="2.5" height="2.5"/>
  </g>
</svg>