<?xml version="1.0" encoding="UTF-8"?>
<svg xmlns="http://www.w3.org/2000/svg" xmlns:xlink="http://www.w3.org/1999/xlink" viewBox="0 0 50 50">
  <defs>
    <style>
      .cls-1 {
        fill: #2e3135;
      }

      .cls-1, .cls-2 {
        stroke-width: 0px;
      }

      .cls-3 {
        stroke: #000;
        stroke-miterlimit: 10;
        stroke-width: .21px;
      }

      .cls-3, .cls-2 {
        fill: none;
      }

      .cls-4 {
        clip-path: url(#clippath);
      }
    </style>
    <clipPath id="clippath">
      <rect class="cls-2" x="2.5" y="2.5" width="45" height="45"/>
    </clipPath>
  </defs>
  <g id="iconos">
    <g class="cls-4">
      <g>
        <path class="cls-1" d="m30.57,45.16h-11.25c-10.19,0-14.53-4.35-14.53-14.53v-11.25c0-10.19,4.35-14.53,14.53-14.53h3.75c.78,0,1.41.63,1.41,1.41s-.63,1.41-1.41,1.41h-3.75c-8.65,0-11.72,3.07-11.72,11.72v11.25c0,8.65,3.07,11.72,11.72,11.72h11.25c8.65,0,11.72-3.07,11.72-11.72v-3.75c0-.78.63-1.41,1.41-1.41s1.41.63,1.41,1.41v3.75c0,10.19-4.35,14.53-14.53,14.53Z"/>
        <path class="cls-1" d="m26.44,31.09c-.28,0-.55-.08-.79-.25-.38-.26-.61-.7-.61-1.16,0-.22-.01-.44-.05-.68-.13-.99-.58-1.87-1.33-2.61-.78-.78-1.72-1.25-2.74-1.39-.15,0-.39-.03-.63,0-.51.03-.93-.18-1.21-.56-.28-.38-.36-.88-.2-1.32.24-.66.57-1.23,1.01-1.72l2.31-2.9c4.01-5,12.11-11.01,18.05-13.4,1.36-.52,2.81-.22,3.81.78,1.02,1.02,1.32,2.49.78,3.83-2.39,5.96-8.38,14.05-13.36,18.05l-2.97,2.37c-.55.41-1.03.68-1.55.88-.16.07-.34.1-.51.1Zm1.41-1.41h.02-.02Zm-5.27-7.17c1.15.37,2.18,1.01,3.05,1.88.85.84,1.48,1.84,1.84,2.93l2.23-1.78c4.66-3.74,10.27-11.32,12.51-16.9,0,0,0,0,0,0,.16-.39-.03-.66-.16-.78-.08-.08-.36-.32-.79-.15-5.54,2.23-13.12,7.86-16.88,12.54l-1.81,2.27Z"/>
        <path class="cls-1" d="m16.95,37.66c-1.2,0-2.35-.47-3.22-1.34-.99-.99-1.48-2.37-1.32-3.76l.39-3.69c.41-3.81,3.52-6.62,7.39-6.7.3-.02.66,0,1.01.02,1.74.23,3.24.98,4.45,2.19s1.93,2.63,2.14,4.24c.05.37.07.73.07,1.05,0,2.03-.79,3.96-2.22,5.41-1.2,1.19-2.74,1.94-4.47,2.15l-3.72.4c-.17.02-.34.03-.51.03Zm3.55-12.69c-.07,0-.13,0-.2,0-2.15.04-4.41,1.49-4.71,4.19l-.39,3.69c-.06.55.13,1.09.51,1.47s.92.57,1.44.51l3.7-.4c1.08-.14,2.05-.6,2.79-1.34.9-.92,1.41-2.14,1.41-3.43,0-.21-.01-.44-.05-.68-.13-.99-.57-1.85-1.34-2.62s-1.71-1.25-2.73-1.38c-.1,0-.26-.01-.43-.01Z"/>
        <path class="cls-1" d="m32.16,26.37c-.78,0-1.41-.63-1.41-1.41,0-3.14-2.56-5.7-5.7-5.7-.78,0-1.41-.63-1.41-1.41s.63-1.41,1.41-1.41c4.69,0,8.51,3.82,8.51,8.51,0,.78-.63,1.41-1.41,1.41Z"/>
      </g>
    </g>
  </g>
  <g id="guias">
    <rect class="cls-3" x="47.5" y="47.5" width="2.5" height="2.5"/>
    <rect class="cls-3" x="47.5" width="2.5" height="2.5"/>
    <rect class="cls-3" y="47.5" width="2.5" height="2.5"/>
    <rect class="cls-3" width="2.5" height="2.5"/>
  </g>
</svg>