<?xml version="1.0" encoding="UTF-8"?>
<svg xmlns="http://www.w3.org/2000/svg" viewBox="0 0 50 50">
  <defs>
    <style>
      .cls-1 {
        fill: #2e3135;
        stroke-width: 0px;
      }

      .cls-2 {
        fill: none;
        stroke: #000;
        stroke-miterlimit: 10;
        stroke-width: .21px;
      }
    </style>
  </defs>
  <g id="iconos">
    <g>
      <path class="cls-1" d="m21.81,38.31c-.31,0-.62-.09-.88-.27-.43-.29-.68-.78-.68-1.3,0-.3-.01-.63-.06-.94-.2-1.5-.86-2.81-1.99-3.93-1.14-1.14-2.54-1.85-4.03-2.04h-.15c-.25-.02-.49-.04-.74-.02-.53.06-1.06-.17-1.39-.59-.33-.42-.43-.99-.25-1.49.3-.83.75-1.62,1.33-2.27l3.21-4.06c5.54-6.94,16.77-15.26,25.03-18.56,1.78-.67,3.64-.27,4.89,1.01,1.31,1.28,1.71,3.16,1,4.87-3.31,8.25-11.62,19.47-18.53,25.01l-4.12,3.3c-.59.43-1.25.87-2.04,1.18-.18.07-.38.11-.57.11Zm1.57-1.57h.02-.02Zm-7.62-9.79c1.77.46,3.33,1.38,4.65,2.69,1.31,1.31,2.19,2.81,2.63,4.47l3.54-2.84c6.55-5.26,14.44-15.91,17.58-23.74,0,0,0-.01,0-.02.31-.74-.12-1.27-.31-1.46-.4-.41-.97-.52-1.54-.3-7.8,3.12-18.45,11.01-23.7,17.59l-2.86,3.61Z"/>
      <path class="cls-1" d="m8.55,47.5c-1.58,0-3.09-.63-4.23-1.77-1.3-1.3-1.92-3.1-1.7-4.93l.56-5.14c.56-5.1,4.73-8.89,9.92-8.99.43-.02.92,0,1.37.02,2.34.3,4.36,1.32,5.98,2.96,1.62,1.62,2.59,3.54,2.87,5.69l.03.5c.02.3.04.6.04.89,0,2.74-1.06,5.33-2.99,7.28-1.58,1.58-3.65,2.57-6,2.88l-5.18.57c-.22.03-.45.04-.67.04Zm4.98-17.7c-.11,0-.21,0-.32,0-3.12.07-6.47,2.22-6.91,6.2l-.56,5.15c-.1.88.19,1.74.81,2.36.62.62,1.47.93,2.33.82l5.15-.56c1.62-.21,3.07-.9,4.15-1.98,1.33-1.35,2.07-3.15,2.07-5.06,0-.22-.02-.45-.03-.67l-.03-.44c-.18-1.33-.84-2.63-1.97-3.76-1.13-1.14-2.52-1.85-4.03-2.04-.16,0-.4-.02-.66-.02Z"/>
      <path class="cls-1" d="m29.79,31.71c-.87,0-1.57-.7-1.57-1.57,0-4.59-3.74-8.33-8.33-8.33-.87,0-1.57-.7-1.57-1.57s.7-1.57,1.57-1.57c6.32,0,11.47,5.15,11.47,11.47,0,.87-.7,1.57-1.57,1.57Z"/>
    </g>
  </g>
  <g id="guias">
    <rect class="cls-2" x="47.5" y="47.5" width="2.5" height="2.5"/>
    <rect class="cls-2" x="47.5" width="2.5" height="2.5"/>
    <rect class="cls-2" y="47.5" width="2.5" height="2.5"/>
    <rect class="cls-2" width="2.5" height="2.5"/>
  </g>
</svg>