<?xml version="1.0" encoding="UTF-8"?>
<svg xmlns="http://www.w3.org/2000/svg" xmlns:xlink="http://www.w3.org/1999/xlink" viewBox="0 0 50 50">
  <defs>
    <style>
      .cls-1 {
        fill: #2e3135;
      }

      .cls-1, .cls-2 {
        stroke-width: 0px;
      }

      .cls-3 {
        stroke: #000;
        stroke-miterlimit: 10;
        stroke-width: .21px;
      }

      .cls-3, .cls-2 {
        fill: none;
      }

      .cls-4 {
        clip-path: url(#clippath);
      }
    </style>
    <clipPath id="clippath">
      <rect class="cls-2" x="2.5" y="2.5" width="45" height="45"/>
    </clipPath>
  </defs>
  <g id="iconos">
    <g class="cls-4">
      <g>
        <path class="cls-1" d="m25,45.16c-3.36,0-6.09-2.73-6.09-6.09v-1.41h-7.97c-1.39,0-2.69-.54-3.65-1.53-.96-.94-1.5-2.23-1.5-3.63,0-2.62,2.05-4.87,4.66-5.13.1-.02.28-.03.5-.03h28.13c.21,0,.4,0,.58.04,1.11.09,2.21.61,3.07,1.5,1.06,1.03,1.6,2.53,1.48,4.07-.23,2.64-2.57,4.71-5.34,4.71h-7.76v1.41c0,3.36-2.73,6.09-6.09,6.09Zm-14.06-15s-.19,0-.22.01c-1.19.12-2.13,1.14-2.13,2.33,0,.63.24,1.21.68,1.64.45.47,1.03.71,1.66.71h9.38c.78,0,1.41.63,1.41,1.41v2.81c0,1.81,1.47,3.28,3.28,3.28s3.28-1.47,3.28-3.28v-2.81c0-.78.63-1.41,1.41-1.41h9.17c1.32,0,2.43-.93,2.54-2.13.06-.71-.18-1.38-.67-1.85-.41-.42-.89-.65-1.42-.69h-.24s-28.13-.01-28.13-.01Z"/>
        <path class="cls-1" d="m39.42,30.17c-.08,0-.15,0-.23-.02H10.94c-.39.07-.86-.04-1.17-.29-.31-.25-.57-.62-.59-1.02l-.9-16.33c-.2-1.91.45-3.88,1.78-5.35,1.33-1.47,3.23-2.32,5.21-2.32h19.46c1.98,0,3.88.84,5.21,2.32,1.32,1.46,1.97,3.42,1.78,5.39l-.9,16.3c-.02.4-.21.77-.52,1.02-.25.2-.56.31-.88.31Zm-27.51-2.83h26.18l.83-14.98s0-.04,0-.07c.12-1.2-.26-2.35-1.06-3.25-.8-.88-1.94-1.39-3.12-1.39H15.27c-1.19,0-2.33.51-3.12,1.39-.81.89-1.19,2.05-1.06,3.25l.83,15.05Z"/>
        <path class="cls-1" d="m17.48,17.03c-.78,0-1.41-.63-1.41-1.41V6.25c0-.78.63-1.41,1.41-1.41s1.41.63,1.41,1.41v9.38c0,.78-.63,1.41-1.41,1.41Z"/>
        <path class="cls-1" d="m25,11.41c-.78,0-1.41-.63-1.41-1.41v-3.75c0-.78.63-1.41,1.41-1.41s1.41.63,1.41,1.41v3.75c0,.78-.63,1.41-1.41,1.41Z"/>
      </g>
    </g>
  </g>
  <g id="guias">
    <rect class="cls-3" x="47.5" y="47.5" width="2.5" height="2.5"/>
    <rect class="cls-3" x="47.5" width="2.5" height="2.5"/>
    <rect class="cls-3" y="47.5" width="2.5" height="2.5"/>
    <rect class="cls-3" width="2.5" height="2.5"/>
  </g>
</svg>