<?xml version="1.0" encoding="UTF-8"?>
<svg xmlns="http://www.w3.org/2000/svg" viewBox="0 0 50 50">
  <defs>
    <style>
      .cls-1 {
        fill: #2e3135;
        stroke-width: 0px;
      }

      .cls-2 {
        fill: none;
        stroke: #000;
        stroke-miterlimit: 10;
        stroke-width: .21px;
      }
    </style>
  </defs>
  <g id="iconos">
    <g>
      <path class="cls-1" d="m20.81,34.94c-.87,0-1.57-.7-1.57-1.57,0-3.5,0-7.85,7.85-7.85h8.37c4.71,0,4.71-.63,4.71-4.71v-4.19c0-4.08,0-4.71-4.71-4.71h-2.09c-.87,0-1.57-.7-1.57-1.57s.7-1.57,1.57-1.57h2.09c7.32,0,7.85,2.97,7.85,7.85v4.19c0,4.88-.53,7.85-7.85,7.85h-8.37c-4.71,0-4.71,1.28-4.71,4.71,0,.87-.7,1.57-1.57,1.57Z"/>
      <path class="cls-1" d="m25,18.2h-8.37c-.68,0-1.28-.43-1.49-1.07-1.48-4.43-1.48-9.12,0-13.55.21-.64.81-1.07,1.49-1.07h8.37c.68,0,1.28.43,1.49,1.07,1.48,4.43,1.48,9.12,0,13.55-.21.64-.81,1.07-1.49,1.07Zm-7.2-3.14h6.04c.83-3.1.83-6.32,0-9.42h-6.04c-.83,3.1-.83,6.32,0,9.42Z"/>
      <path class="cls-1" d="m16.63,18.2h-2.09c-5.06,0-7.85-2.79-7.85-7.85s2.79-7.85,7.85-7.85h2.09c.54,0,1.05.28,1.34.74.29.46.31,1.04.07,1.53-1.88,3.75-1.88,7.4,0,11.16.24.49.22,1.06-.07,1.53-.29.46-.79.74-1.34.74Zm-2.35-12.56c-3.12.08-4.45,1.49-4.45,4.71s1.33,4.63,4.45,4.71c-1.05-3.13-1.05-6.28,0-9.41Z"/>
      <path class="cls-1" d="m27.09,18.2h-2.09c-.54,0-1.05-.28-1.34-.74-.29-.46-.31-1.04-.07-1.53,1.88-3.75,1.88-7.4,0-11.16-.24-.49-.22-1.06.07-1.53.29-.46.79-.74,1.34-.74h2.09c5.06,0,7.85,2.79,7.85,7.85s-2.79,7.85-7.85,7.85Zm.26-12.56c1.05,3.13,1.05,6.28,0,9.41,3.12-.08,4.45-1.49,4.45-4.71s-1.33-4.63-4.45-4.71Z"/>
      <path class="cls-1" d="m21.86,47.5h-2.09c-2.15,0-4.71-.82-4.71-4.71v-6.28c0-3.89,2.56-4.71,4.71-4.71h2.09c2.15,0,4.71.82,4.71,4.71v6.28c0,3.89-2.56,4.71-4.71,4.71Zm-2.09-12.56c-1.57,0-1.57.46-1.57,1.57v6.28c0,1.11,0,1.57,1.57,1.57h2.09c1.57,0,1.57-.46,1.57-1.57v-6.28c0-1.11,0-1.57-1.57-1.57h-2.09Z"/>
    </g>
  </g>
  <g id="guias">
    <rect class="cls-2" x="47.5" y="47.5" width="2.5" height="2.5"/>
    <rect class="cls-2" x="47.5" width="2.5" height="2.5"/>
    <rect class="cls-2" y="47.5" width="2.5" height="2.5"/>
    <rect class="cls-2" width="2.5" height="2.5"/>
  </g>
</svg>