<?xml version="1.0" encoding="UTF-8"?>
<svg xmlns="http://www.w3.org/2000/svg" viewBox="0 0 50 50">
  <defs>
    <style>
      .cls-1 {
        fill: #2e3135;
        stroke-width: 0px;
      }

      .cls-2 {
        fill: none;
        stroke: #000;
        stroke-miterlimit: 10;
        stroke-width: .21px;
      }
    </style>
  </defs>
  <g id="iconos">
    <g>
      <path class="cls-1" d="m22.1,36.1c-1.24,0-2.48-.58-3.63-1.73h0l-5-5c-1.14-1.14-1.72-2.36-1.71-3.63,0-1.26.58-2.47,1.72-3.6l8.34-8.35c.29-.29.69-.46,1.11-.46h0c.42,0,.82.17,1.11.46l9.19,9.19c.52.52.81,1.21.81,1.95s-.29,1.43-.8,1.95l-7.51,7.52c-1.15,1.14-2.39,1.71-3.62,1.71Zm-1.41-3.95c1.06,1.06,1.75,1.06,2.81.01l7.23-7.24-7.8-7.81-7.24,7.24c-.37.36-.79.89-.8,1.38,0,.5.43,1.04.8,1.4l5,5Z"/>
      <path class="cls-1" d="m22.93,16.48c-.4,0-.8-.15-1.11-.46l-1.68-1.67c-.61-.61-.61-1.61,0-2.22.61-.61,1.61-.61,2.22,0l1.68,1.67c.61.61.61,1.61,0,2.22-.31.31-.71.46-1.11.46Z"/>
      <path class="cls-1" d="m13.4,27.26c-.84,0-1.53-.66-1.57-1.5-.04-.87.63-1.6,1.5-1.64l18.9-.82c.85-.08,1.6.63,1.64,1.5.04.87-.63,1.6-1.5,1.64l-18.9.82s-.05,0-.07,0Z"/>
      <path class="cls-1" d="m34.36,37.45c-2.13,0-3.87-1.74-3.87-3.87,0-1.98,2.08-4.4,2.72-5.1.3-.32.71-.51,1.15-.51h0c.44,0,.85.18,1.15.5.65.69,2.75,3.11,2.72,5.13,0,2.11-1.74,3.85-3.87,3.85Zm0-5.38c-.43.65-.73,1.24-.74,1.51,0,.4.34.73.73.73s.73-.34.73-.73c0-.28-.29-.86-.73-1.51Z"/>
      <path class="cls-1" d="m25,47.5c-12.41,0-22.5-10.09-22.5-22.5S12.59,2.5,25,2.5s22.5,10.09,22.5,22.5-10.09,22.5-22.5,22.5Zm0-41.86C14.32,5.64,5.64,14.32,5.64,25s8.68,19.36,19.36,19.36,19.36-8.68,19.36-19.36S35.68,5.64,25,5.64Z"/>
    </g>
  </g>
  <g id="guias">
    <rect class="cls-2" x="47.5" y="47.5" width="2.5" height="2.5"/>
    <rect class="cls-2" x="47.5" width="2.5" height="2.5"/>
    <rect class="cls-2" y="47.5" width="2.5" height="2.5"/>
    <rect class="cls-2" width="2.5" height="2.5"/>
  </g>
</svg>