<?xml version="1.0" encoding="UTF-8"?>
<svg xmlns="http://www.w3.org/2000/svg" viewBox="0 0 50 50">
  <defs>
    <style>
      .cls-1 {
        fill: #2e3135;
        stroke-width: 0px;
      }

      .cls-2 {
        fill: none;
        stroke: #000;
        stroke-miterlimit: 10;
        stroke-width: .21px;
      }
    </style>
  </defs>
  <g id="iconos">
    <g>
      <path class="cls-1" d="m21.56,38.37c-1.39,0-2.78-.65-4.07-1.94h0l-5.92-5.92c-2.59-2.59-2.59-5.56,0-8.14l9.88-9.88c.61-.61,1.61-.61,2.22,0l10.86,10.86c1.15,1.16,1.15,3.04,0,4.19l-8.9,8.9c-1.29,1.29-2.68,1.94-4.07,1.94Zm-1.85-4.16c1.35,1.35,2.35,1.35,3.7,0l8.77-8.77-9.63-9.63-8.77,8.77c-1.35,1.35-1.35,2.35,0,3.7l5.92,5.92Z"/>
      <path class="cls-1" d="m22.55,15.14c-.4,0-.8-.15-1.1-.45l-1.99-1.97c-.62-.61-.62-1.6-.01-2.22.61-.62,1.6-.62,2.22-.01l1.99,1.97c.62.61.62,1.6.01,2.22-.31.31-.71.47-1.12.47Z"/>
      <path class="cls-1" d="m11.27,27.91c-.83,0-1.53-.66-1.57-1.5-.04-.87.63-1.6,1.5-1.64l22.37-.98c.84-.07,1.6.63,1.64,1.5.04.87-.63,1.6-1.5,1.64l-22.37.98s-.05,0-.07,0Z"/>
      <path class="cls-1" d="m36.09,39.99c-2.38,0-4.31-1.93-4.31-4.31s2.42-5.05,3.16-5.86c.3-.32.72-.5,1.15-.5h0c.44,0,.86.19,1.15.51.73.8,3.13,3.59,3.15,5.84,0,2.4-1.93,4.33-4.31,4.33Zm0-6.61c-.66.92-1.17,1.84-1.17,2.3,0,.64.54,1.17,1.17,1.17s1.17-.54,1.17-1.17c0-.45-.52-1.37-1.18-2.3Z"/>
      <path class="cls-1" d="m31.28,47.5h-12.56c-11.37,0-16.22-4.85-16.22-16.22v-12.56C2.5,7.35,7.35,2.5,18.72,2.5h12.56c11.37,0,16.22,4.85,16.22,16.22v12.56c0,11.37-4.85,16.22-16.22,16.22ZM18.72,5.64c-9.66,0-13.08,3.42-13.08,13.08v12.56c0,9.66,3.42,13.08,13.08,13.08h12.56c9.66,0,13.08-3.42,13.08-13.08v-12.56c0-9.66-3.42-13.08-13.08-13.08h-12.56Z"/>
    </g>
  </g>
  <g id="guias">
    <rect class="cls-2" x="47.5" y="47.5" width="2.5" height="2.5"/>
    <rect class="cls-2" x="47.5" width="2.5" height="2.5"/>
    <rect class="cls-2" y="47.5" width="2.5" height="2.5"/>
    <rect class="cls-2" width="2.5" height="2.5"/>
  </g>
</svg>