<?xml version="1.0" encoding="UTF-8"?>
<svg xmlns="http://www.w3.org/2000/svg" viewBox="0 0 50 50">
  <defs>
    <style>
      .cls-1 {
        fill: none;
        stroke: #000;
        stroke-miterlimit: 10;
        stroke-width: .21px;
      }

      .cls-2 {
        fill: #1e1f22;
        stroke-width: 0px;
      }
    </style>
  </defs>
  <g id="iconos">
    <g id="credito-constructor-icono">
      <path class="cls-2" d="m13.19,47.52c-.29,0-.52-.24-.52-.52v-11.22c0-.29.24-.52.52-.52s.52.24.52.52v11.22c0,.29-.24.52-.52.52Z"/>
      <path class="cls-2" d="m10.3,45.08c-.29,0-.52-.24-.52-.52v-10.27c0-.29.24-.52.52-.52s.52.24.52.52v10.27c0,.29-.24.52-.52.52Z"/>
      <path class="cls-2" d="m36.81,47.52c-.29,0-.52-.24-.52-.52v-11.22c0-.29.24-.52.52-.52s.52.24.52.52v11.22c0,.29-.24.52-.52.52Z"/>
      <path class="cls-2" d="m39.7,45.08c-.29,0-.52-.24-.52-.52v-10.27c0-.29.24-.52.52-.52s.52.24.52.52v10.27c0,.29-.24.52-.52.52Z"/>
      <path class="cls-2" d="m28.62,14.47c-.29,0-.52-.24-.52-.52V3.53h-6.04v10.42c0,.29-.24.52-.52.52s-.52-.24-.52-.52V3c0-.29.24-.52.52-.52h7.09c.29,0,.52.24.52.52v10.94c0,.29-.24.52-.52.52Z"/>
      <path class="cls-2" d="m25.06,37.95c-3.79,0-6.87-2.76-6.87-6.15v-2.43c0-.29.24-.52.52-.52s.52.24.52.52v2.43c0,2.81,2.61,5.1,5.82,5.1s5.82-2.29,5.82-5.1v-2.59c0-.29.24-.52.52-.52s.52.24.52.52v2.59c0,3.39-3.08,6.15-6.87,6.15Z"/>
      <path class="cls-2" d="m23.18,32.18c-2.56-.39-5.58-3.26-6.42-4.39-1.06-1.44-1.11-4.27-1.11-4.3,0-.13-.29-.51-.5-.79-.23-.3-.5-.66-.75-1.08-.69-1.13-.49-4.52-.44-5.19.02-.29.26-.5.56-.49.29.02.51.27.49.56-.1,1.52-.08,3.95.3,4.57.24.39.48.71.69.99.4.53.71.94.71,1.42s.16,2.67.91,3.67c.88,1.19,3.68,3.67,5.66,3.98h3.82c1.9-.31,4.7-2.79,5.58-3.98.75-1,.91-3.19.91-3.67s.32-.9.71-1.42c.21-.28.46-.6.69-.99.38-.62.4-3.05.29-4.57-.02-.29.2-.54.49-.56.29-.02.54.2.56.49.05.67.24,4.06-.44,5.19-.26.42-.52.77-.75,1.07-.22.3-.5.67-.5.79,0,.03-.05,2.86-1.11,4.29-.84,1.13-3.86,4-6.34,4.39h-3.98Z"/>
      <g>
        <path class="cls-2" d="m16.99,20.63c-.29,0-.52-.24-.52-.52v-.67c.03-1.34-1.39-2.55-1.41-2.56-.22-.19-.25-.52-.07-.74.18-.22.52-.25.74-.07.07.06,1.83,1.54,1.78,3.38v.66c0,.29-.24.52-.52.52Z"/>
        <path class="cls-2" d="m17.13,20.63c-.29,0-.52-.24-.52-.52v-3.64c0-.29.24-.52.52-.52s.52.24.52.52v3.64c0,.29-.24.52-.52.52Z"/>
      </g>
      <g>
        <path class="cls-2" d="m33.08,20.63c-.29,0-.52-.24-.52-.52v-.67c-.05-1.83,1.71-3.31,1.78-3.37.22-.19.55-.16.74.07.19.22.16.55-.07.74-.01.01-1.44,1.22-1.4,2.55v.68c0,.29-.24.52-.52.52Z"/>
        <path class="cls-2" d="m32.94,20.63c-.29,0-.52-.24-.52-.52v-3.64c0-.29.24-.52.52-.52s.52.24.52.52v3.64c0,.29-.24.52-.52.52Z"/>
      </g>
      <path class="cls-2" d="m22.32,47.52c-.21,0-.4-.12-.49-.33l-6.13-15.13c-.11-.27.02-.57.29-.68.26-.11.57.02.68.29l6.13,15.13c.11.27-.02.57-.29.68-.06.03-.13.04-.2.04Z"/>
      <path class="cls-2" d="m3.13,47.52c-.26,0-.48-.19-.52-.45-.03-.19-.64-4.76,1.32-8.68,1.99-3.96,14.11-7.73,14.63-7.89.28-.08.57.07.66.35.08.28-.07.57-.35.66-3.39,1.04-12.51,4.39-14,7.35-1.81,3.61-1.23,8.01-1.22,8.06.04.29-.16.55-.45.59-.02,0-.05,0-.07,0Z"/>
      <path class="cls-2" d="m46.87,47.52H5.69c-.29,0-.52-.24-.52-.52s.24-.52.52-.52h40.7c.1-1.22.2-4.67-1.27-7.61-1.49-2.96-10.52-6.31-13.88-7.36-.28-.08-.43-.38-.34-.66s.38-.42.66-.35c.51.16,12.51,3.92,14.5,7.89,1.96,3.91,1.35,8.48,1.33,8.67-.04.26-.26.45-.52.45Zm0-.52h.01-.01Z"/>
      <path class="cls-2" d="m27.67,47.52c-.07,0-.13-.01-.2-.04-.27-.11-.4-.41-.29-.68l6.13-15.13c.11-.27.42-.4.68-.29.27.11.4.41.29.68l-6.13,15.13c-.08.2-.28.33-.49.33Z"/>
      <g>
        <path class="cls-2" d="m33.89,12.8c-.29,0-.52-.24-.52-.52v-1.32c-.33-2.71-2.23-5.15-4.96-6.3-.27-.11-.39-.42-.28-.69.11-.27.42-.38.69-.28,3.07,1.3,5.21,4.07,5.59,7.21v1.39c0,.29-.23.52-.52.52Z"/>
        <path class="cls-2" d="m37.25,17H12.5c-.29,0-.52-.24-.52-.52v-2.09c0-.25.18-.47.43-.52l2.92-.51v-2.4c.4-3.35,2.68-6.16,5.94-7.41.27-.11.57.03.68.3s-.03.57-.3.68c-2.9,1.11-4.91,3.59-5.26,6.49v2.78c0,.25-.18.47-.43.52l-2.92.51v1.13h23.7v-1.11l-2.9-.37c-.29-.04-.49-.3-.45-.59.04-.29.29-.48.59-.45l3.36.43c.26.03.46.26.46.52v2.09c0,.29-.24.52-.52.52Z"/>
      </g>
    </g>
  </g>
  <g id="guias">
    <g>
      <rect class="cls-1" x="47.5" y="47.5" width="2.5" height="2.5"/>
      <rect class="cls-1" x="47.5" width="2.5" height="2.5"/>
      <rect class="cls-1" y="47.5" width="2.5" height="2.5"/>
      <rect class="cls-1" width="2.5" height="2.5"/>
    </g>
  </g>
</svg>