<?xml version="1.0" encoding="UTF-8"?>
<svg xmlns="http://www.w3.org/2000/svg" viewBox="0 0 50 50">
  <defs>
    <style>
      .cls-1 {
        fill: #2e3135;
        stroke-width: 0px;
      }

      .cls-2 {
        fill: none;
        stroke: #000;
        stroke-miterlimit: 10;
        stroke-width: .21px;
      }
    </style>
  </defs>
  <g id="iconos">
    <g>
      <path class="cls-1" d="m26.11,47.5H8.49c-3.3,0-5.99-2.65-5.99-5.9V10.54c0-3.19,1.19-5.69,3.36-7.04,2.2-1.37,5.04-1.34,7.98.11l9.29,4.56c2.55,1.25,4.54,4.42,4.54,7.23v30.53c0,.87-.7,1.57-1.57,1.57ZM9.48,5.64c-.74,0-1.4.17-1.96.52-1.21.76-1.88,2.31-1.88,4.38v31.06c0,1.52,1.28,2.76,2.85,2.76h16.05V15.4c0-1.62-1.3-3.68-2.78-4.41l-9.29-4.56c-1.07-.52-2.08-.78-2.98-.78Z"/>
      <path class="cls-1" d="m39.31,47.5h-13.2c-.87,0-1.57-.7-1.57-1.57v-24.23c0-.47.21-.92.58-1.22s.85-.42,1.31-.31l.98.21,13.68,3.06c4.16.92,6.25,3.38,6.38,7.53.01,0,.02.21.02.45v7.91c0,5.35-2.83,8.18-8.18,8.18Zm-11.63-3.14h11.63c3.68,0,5.04-1.37,5.04-5.04v-8.07c-.1-2.87-1.2-4.15-3.94-4.75l-12.74-2.85v20.71Z"/>
      <path class="cls-1" d="m18.72,20.3h-7.26c-.87,0-1.57-.7-1.57-1.57s.7-1.57,1.57-1.57h7.26c.87,0,1.57.7,1.57,1.57s-.7,1.57-1.57,1.57Z"/>
      <path class="cls-1" d="m18.72,28.67h-7.26c-.87,0-1.57-.7-1.57-1.57s.7-1.57,1.57-1.57h7.26c.87,0,1.57.7,1.57,1.57s-.7,1.57-1.57,1.57Z"/>
      <path class="cls-1" d="m31.8,37.04c-3.46,0-6.28-2.82-6.28-6.28v-8.85c0-.48.22-.93.59-1.23.37-.3.85-.41,1.32-.3l9.42,2.11c.72.16,1.23.8,1.23,1.53v6.74c0,3.46-2.82,6.28-6.28,6.28Zm-3.14-13.17v6.89c0,1.73,1.41,3.14,3.14,3.14s3.14-1.41,3.14-3.14v-5.48l-6.28-1.41Z"/>
      <path class="cls-1" d="m41.22,37.04c-3.46,0-6.28-2.82-6.28-6.28v-6.74c0-.48.22-.93.59-1.22.37-.3.86-.41,1.32-.31l4.25.94c4.16.92,6.25,3.38,6.38,7.53,0,.04,0,.09,0,.13-.17,3.34-2.92,5.95-6.26,5.95Zm-3.14-11.06v4.78c0,1.73,1.41,3.14,3.14,3.14s3-1.27,3.12-2.91c-.1-2.64-1.2-3.9-3.91-4.49l-2.34-.52Z"/>
    </g>
  </g>
  <g id="guias">
    <rect class="cls-2" x="47.5" y="47.5" width="2.5" height="2.5"/>
    <rect class="cls-2" x="47.5" width="2.5" height="2.5"/>
    <rect class="cls-2" y="47.5" width="2.5" height="2.5"/>
    <rect class="cls-2" width="2.5" height="2.5"/>
  </g>
</svg>