<?xml version="1.0" encoding="UTF-8"?>
<svg xmlns="http://www.w3.org/2000/svg" viewBox="0 0 50 50">
  <defs>
    <style>
      .cls-1 {
        fill: #2e3135;
        stroke-width: 0px;
      }

      .cls-2 {
        fill: none;
        stroke: #000;
        stroke-miterlimit: 10;
        stroke-width: .21px;
      }
    </style>
  </defs>
  <g id="iconos">
    <g>
      <path class="cls-1" d="m45.93,47.07H4.07c-.87,0-1.57-.7-1.57-1.57s.7-1.57,1.57-1.57h41.86c.87,0,1.57.7,1.57,1.57s-.7,1.57-1.57,1.57Z"/>
      <path class="cls-1" d="m6.18,47.09c-.41,0-.81-.17-1.11-.46-.3-.29-.46-.69-.46-1.11l-.02-31.27c0-1.91.95-3.7,2.55-4.78L15.53,3.88c1.94-1.3,4.45-1.3,6.39,0l8.37,5.58c1.6,1.06,2.56,2.85,2.56,4.78l.02,31.23c0,.87-.7,1.57-1.57,1.57l-25.12.04h0ZM18.72,6.06c-.51,0-1.01.15-1.45.44l-8.38,5.59c-.73.49-1.16,1.3-1.16,2.17l.02,29.7,21.98-.04-.02-29.66c0-.88-.43-1.69-1.16-2.16l-8.38-5.59c-.44-.29-.95-.44-1.46-.44Z"/>
      <path class="cls-1" d="m41.7,47.09c-.87,0-1.57-.7-1.57-1.57v-8.39c0-.87.7-1.57,1.57-1.57s1.57.7,1.57,1.57v8.39c0,.87-.7,1.57-1.57,1.57Z"/>
      <path class="cls-1" d="m41.74,38.7c-3.17,0-5.76-2.58-5.76-5.76v-4.19c0-3.17,2.58-5.76,5.76-5.76s5.76,2.58,5.76,5.76v4.19c0,3.17-2.58,5.76-5.76,5.76Zm0-12.56c-1.44,0-2.62,1.17-2.62,2.62v4.19c0,1.44,1.17,2.62,2.62,2.62s2.62-1.17,2.62-2.62v-4.19c0-1.44-1.17-2.62-2.62-2.62Z"/>
      <path class="cls-1" d="m31.28,30.33H6.16c-.87,0-1.57-.7-1.57-1.57s.7-1.57,1.57-1.57h25.12c.87,0,1.57.7,1.57,1.57s-.7,1.57-1.57,1.57Z"/>
      <path class="cls-1" d="m18.72,47.07c-.87,0-1.57-.7-1.57-1.57v-7.85c0-.87.7-1.57,1.57-1.57s1.57.7,1.57,1.57v7.85c0,.87-.7,1.57-1.57,1.57Z"/>
      <path class="cls-1" d="m18.72,23c-2.6,0-4.71-2.11-4.71-4.71s2.11-4.71,4.71-4.71,4.71,2.11,4.71,4.71-2.11,4.71-4.71,4.71Zm0-6.28c-.86,0-1.57.71-1.57,1.57s.71,1.57,1.57,1.57,1.57-.71,1.57-1.57-.71-1.57-1.57-1.57Z"/>
    </g>
  </g>
  <g id="guias">
    <rect class="cls-2" x="47.5" y="47.5" width="2.5" height="2.5"/>
    <rect class="cls-2" x="47.5" width="2.5" height="2.5"/>
    <rect class="cls-2" y="47.5" width="2.5" height="2.5"/>
    <rect class="cls-2" width="2.5" height="2.5"/>
  </g>
</svg>