<?xml version="1.0" encoding="UTF-8"?>
<svg xmlns="http://www.w3.org/2000/svg" viewBox="0 0 50 50">
  <defs>
    <style>
      .cls-1 {
        fill: #2e3135;
        stroke-width: 0px;
      }

      .cls-2 {
        fill: none;
        stroke: #000;
        stroke-miterlimit: 10;
        stroke-width: .21px;
      }
    </style>
  </defs>
  <g id="iconos">
    <g>
      <path class="cls-1" d="m27.09,47.5H10.35c-5.06,0-7.85-2.79-7.85-7.85v-16.74c0-5.06,2.79-7.85,7.85-7.85h10.47c.87,0,1.57.7,1.57,1.57v23.02c0,3.3,1.41,4.71,4.71,4.71.87,0,1.57.7,1.57,1.57s-.7,1.57-1.57,1.57ZM10.35,18.2c-3.3,0-4.71,1.41-4.71,4.71v16.74c0,3.3,1.41,4.71,4.71,4.71h10.05c-.76-1.23-1.15-2.81-1.15-4.71v-21.45h-8.9Z"/>
      <path class="cls-1" d="m20.81,18.2h-10.47c-.87,0-1.57-.7-1.57-1.57v-4.19c0-3.17,2.58-5.76,5.76-5.76h6.51c.49,0,.95.23,1.24.61.3.39.4.89.27,1.36-.12.45-.18.99-.18,1.69v6.28c0,.87-.7,1.57-1.57,1.57Zm-8.9-3.14h7.33v-4.71c0-.18,0-.36.01-.52h-4.72c-1.44,0-2.62,1.17-2.62,2.62v2.62Z"/>
      <path class="cls-1" d="m29.19,28.66c-.87,0-1.57-.7-1.57-1.57v-10.47c0-.87.7-1.57,1.57-1.57s1.57.7,1.57,1.57v10.47c0,.87-.7,1.57-1.57,1.57Z"/>
      <path class="cls-1" d="m37.56,28.66c-.87,0-1.57-.7-1.57-1.57v-10.47c0-.87.7-1.57,1.57-1.57s1.57.7,1.57,1.57v10.47c0,.87-.7,1.57-1.57,1.57Z"/>
      <path class="cls-1" d="m37.56,47.5h-8.37c-.87,0-1.57-.7-1.57-1.57v-8.37c0-2.02,1.64-3.66,3.66-3.66h4.19c2.02,0,3.66,1.64,3.66,3.66v8.37c0,.87-.7,1.57-1.57,1.57Zm-6.8-3.14h5.23v-6.8c0-.28-.24-.52-.52-.52h-4.19c-.28,0-.52.24-.52.52v6.8Z"/>
      <path class="cls-1" d="m12.44,37.03c-.87,0-1.57-.7-1.57-1.57v-8.37c0-.87.7-1.57,1.57-1.57s1.57.7,1.57,1.57v8.37c0,.87-.7,1.57-1.57,1.57Z"/>
      <path class="cls-1" d="m39.65,47.5h-12.56c-5.06,0-7.85-2.79-7.85-7.85V10.35c0-5.06,2.79-7.85,7.85-7.85h12.56c5.06,0,7.85,2.79,7.85,7.85v29.3c0,5.06-2.79,7.85-7.85,7.85ZM27.09,5.64c-3.3,0-4.71,1.41-4.71,4.71v29.3c0,3.3,1.41,4.71,4.71,4.71h12.56c3.3,0,4.71-1.41,4.71-4.71V10.35c0-3.3-1.41-4.71-4.71-4.71h-12.56Z"/>
    </g>
  </g>
  <g id="guias">
    <rect class="cls-2" x="47.5" y="47.5" width="2.5" height="2.5"/>
    <rect class="cls-2" x="47.5" width="2.5" height="2.5"/>
    <rect class="cls-2" y="47.5" width="2.5" height="2.5"/>
    <rect class="cls-2" width="2.5" height="2.5"/>
  </g>
</svg>