<?xml version="1.0" encoding="UTF-8"?>
<svg xmlns="http://www.w3.org/2000/svg" viewBox="0 0 50 50">
  <defs>
    <style>
      .cls-1 {
        fill: #2e3135;
        stroke-width: 0px;
      }

      .cls-2 {
        fill: none;
        stroke: #000;
        stroke-miterlimit: 10;
        stroke-width: .21px;
      }
    </style>
  </defs>
  <g id="iconos">
    <g>
      <path class="cls-1" d="m46.06,44.61H3.94c-.79,0-1.44-.64-1.44-1.44s.64-1.44,1.44-1.44h42.13c.79,0,1.44.64,1.44,1.44s-.64,1.44-1.44,1.44Z"/>
      <path class="cls-1" d="m39.9,44.63c-.79,0-1.44-.64-1.44-1.44v-8.54c0-.79.64-1.44,1.44-1.44s1.44.64,1.44,1.44v8.54c0,.79-.64,1.44-1.44,1.44Z"/>
      <path class="cls-1" d="m39.94,36.11c-3.11,0-5.65-2.53-5.65-5.65v-4.35c0-3.12,2.53-5.65,5.65-5.65s5.65,2.53,5.65,5.65v4.35c0,3.11-2.53,5.65-5.65,5.65Zm0-12.77c-1.53,0-2.78,1.25-2.78,2.78v4.35c0,1.53,1.25,2.78,2.78,2.78s2.78-1.25,2.78-2.78v-4.35c0-1.53-1.25-2.78-2.78-2.78Z"/>
      <path class="cls-1" d="m29.4,44.61c-.79,0-1.44-.64-1.44-1.44V12.59c0-3.05-1.28-4.35-4.27-4.35h-11.93c-3.01,0-4.29,1.3-4.29,4.35v30.58c0,.79-.64,1.44-1.44,1.44s-1.44-.64-1.44-1.44V12.59c0-4.66,2.54-7.22,7.16-7.22h11.93c4.61,0,7.14,2.56,7.14,7.22v30.58c0,.79-.64,1.44-1.44,1.44Z"/>
      <path class="cls-1" d="m22.61,18.28h-9.48c-.79,0-1.44-.64-1.44-1.44s.64-1.44,1.44-1.44h9.48c.79,0,1.44.64,1.44,1.44s-.64,1.44-1.44,1.44Z"/>
      <path class="cls-1" d="m22.61,25.46h-9.48c-.79,0-1.44-.64-1.44-1.44s.64-1.44,1.44-1.44h9.48c.79,0,1.44.64,1.44,1.44s-.64,1.44-1.44,1.44Z"/>
      <path class="cls-1" d="m17.82,44.61c-.79,0-1.44-.64-1.44-1.44v-7.18c0-.79.64-1.44,1.44-1.44s1.44.64,1.44,1.44v7.18c0,.79-.64,1.44-1.44,1.44Z"/>
    </g>
  </g>
  <g id="guias">
    <rect class="cls-2" x="47.5" y="47.5" width="2.5" height="2.5"/>
    <rect class="cls-2" x="47.5" width="2.5" height="2.5"/>
    <rect class="cls-2" y="47.5" width="2.5" height="2.5"/>
    <rect class="cls-2" width="2.5" height="2.5"/>
  </g>
</svg>