<?xml version="1.0" encoding="UTF-8"?>
<svg xmlns="http://www.w3.org/2000/svg" viewBox="0 0 50 50">
  <defs>
    <style>
      .cls-1 {
        fill: #2e3135;
        stroke-width: 0px;
      }

      .cls-2 {
        fill: none;
        stroke: #000;
        stroke-miterlimit: 10;
        stroke-width: .21px;
      }
    </style>
  </defs>
  <g id="iconos">
    <g>
      <path class="cls-1" d="m13.91,39.13h-5.34c-3.86,0-6.07-2.21-6.07-6.07V8.57c0-3.86,2.21-6.07,6.07-6.07h9c3.86,0,6.07,2.21,6.07,6.07v3.87c0,.87-.7,1.57-1.57,1.57s-1.57-.7-1.57-1.57v-3.87c0-2.14-.79-2.93-2.93-2.93h-9c-2.14,0-2.93.8-2.93,2.93v24.49c0,2.14.8,2.93,2.93,2.93h5.34c.87,0,1.57.7,1.57,1.57s-.7,1.57-1.57,1.57Z"/>
      <path class="cls-1" d="m31.2,47.5h-12.22c-4.22,0-6.63-2.42-6.63-6.63v-23.36c0-4.22,2.42-6.63,6.63-6.63h12.22c4.2,0,6.61,2.42,6.61,6.63v23.36c0,4.22-2.41,6.63-6.61,6.63ZM18.97,14.01c-2.52,0-3.5.98-3.5,3.5v23.36c0,2.52.98,3.5,3.5,3.5h12.22c2.5,0,3.47-.98,3.47-3.5v-23.36c0-2.52-.97-3.5-3.47-3.5h-12.22Z"/>
      <path class="cls-1" d="m41.43,39.13h-5.19c-.87,0-1.57-.7-1.57-1.57s.7-1.57,1.57-1.57h5.19c2.14,0,2.93-.79,2.93-2.93V8.57c0-2.14-.8-2.93-2.93-2.93h-9c-2.14,0-2.93.8-2.93,2.93v3.87c0,.87-.7,1.57-1.57,1.57s-1.57-.7-1.57-1.57v-3.87c0-3.86,2.21-6.07,6.07-6.07h9c3.86,0,6.07,2.21,6.07,6.07v24.49c0,3.86-2.21,6.07-6.07,6.07Z"/>
      <path class="cls-1" d="m29.19,24.48h-8.37c-.87,0-1.57-.7-1.57-1.57s.7-1.57,1.57-1.57h8.37c.87,0,1.57.7,1.57,1.57s-.7,1.57-1.57,1.57Z"/>
      <path class="cls-1" d="m29.19,30.76h-8.37c-.87,0-1.57-.7-1.57-1.57s.7-1.57,1.57-1.57h8.37c.87,0,1.57.7,1.57,1.57s-.7,1.57-1.57,1.57Z"/>
      <path class="cls-1" d="m25,47.5c-.87,0-1.57-.7-1.57-1.57v-6.28c0-.87.7-1.57,1.57-1.57s1.57.7,1.57,1.57v6.28c0,.87-.7,1.57-1.57,1.57Z"/>
    </g>
  </g>
  <g id="guias">
    <rect class="cls-2" x="47.5" y="47.5" width="2.5" height="2.5"/>
    <rect class="cls-2" x="47.5" width="2.5" height="2.5"/>
    <rect class="cls-2" y="47.5" width="2.5" height="2.5"/>
    <rect class="cls-2" width="2.5" height="2.5"/>
  </g>
</svg>