<?xml version="1.0" encoding="UTF-8"?>
<svg xmlns="http://www.w3.org/2000/svg" viewBox="0 0 50 50">
  <defs>
    <style>
      .cls-1 {
        fill: #2e3135;
        stroke-width: 0px;
      }

      .cls-2 {
        fill: none;
        stroke: #000;
        stroke-miterlimit: 10;
        stroke-width: .21px;
      }
    </style>
  </defs>
  <g id="iconos">
    <g>
      <path class="cls-1" d="m45.93,47.5H4.07c-.87,0-1.57-.7-1.57-1.57s.7-1.57,1.57-1.57h41.86c.87,0,1.57.7,1.57,1.57s-.7,1.57-1.57,1.57Z"/>
      <path class="cls-1" d="m43.84,47.5H6.16c-.87,0-1.57-.7-1.57-1.57V12.44c0-6.32,3.62-9.94,9.94-9.94h20.93c6.32,0,9.94,3.62,9.94,9.94v33.49c0,.87-.7,1.57-1.57,1.57Zm-36.1-3.14h34.53V12.44c0-4.64-2.16-6.8-6.8-6.8H14.53c-4.64,0-6.8,2.16-6.8,6.8v31.92Z"/>
      <path class="cls-1" d="m20.81,35.99h-6.28c-.87,0-1.57-.7-1.57-1.57s.7-1.57,1.57-1.57h6.28c.87,0,1.57.7,1.57,1.57s-.7,1.57-1.57,1.57Z"/>
      <path class="cls-1" d="m35.47,35.99h-6.28c-.87,0-1.57-.7-1.57-1.57s.7-1.57,1.57-1.57h6.28c.87,0,1.57.7,1.57,1.57s-.7,1.57-1.57,1.57Z"/>
      <path class="cls-1" d="m20.81,26.57h-6.28c-.87,0-1.57-.7-1.57-1.57s.7-1.57,1.57-1.57h6.28c.87,0,1.57.7,1.57,1.57s-.7,1.57-1.57,1.57Z"/>
      <path class="cls-1" d="m35.47,26.57h-6.28c-.87,0-1.57-.7-1.57-1.57s.7-1.57,1.57-1.57h6.28c.87,0,1.57.7,1.57,1.57s-.7,1.57-1.57,1.57Z"/>
      <path class="cls-1" d="m20.81,17.15h-6.28c-.87,0-1.57-.7-1.57-1.57s.7-1.57,1.57-1.57h6.28c.87,0,1.57.7,1.57,1.57s-.7,1.57-1.57,1.57Z"/>
      <path class="cls-1" d="m35.47,17.15h-6.28c-.87,0-1.57-.7-1.57-1.57s.7-1.57,1.57-1.57h6.28c.87,0,1.57.7,1.57,1.57s-.7,1.57-1.57,1.57Z"/>
    </g>
  </g>
  <g id="guias">
    <rect class="cls-2" x="47.5" y="47.5" width="2.5" height="2.5"/>
    <rect class="cls-2" x="47.5" width="2.5" height="2.5"/>
    <rect class="cls-2" y="47.5" width="2.5" height="2.5"/>
    <rect class="cls-2" width="2.5" height="2.5"/>
  </g>
</svg>