<?xml version="1.0" encoding="UTF-8"?>
<svg id="iconos" xmlns="http://www.w3.org/2000/svg" viewBox="0 0 50 50">
  <defs>
    <style>
      .cls-1 {
        fill: #1e1f22;
        stroke-width: 0px;
      }
    </style>
  </defs>
  <path class="cls-1" d="m38.92,40.59H11.08c-1.23,0-2.23-1-2.23-2.23s1-2.23,2.23-2.23h27.84c1.23,0,2.23,1,2.23,2.23s-1,2.23-2.23,2.23Zm0-13.36H11.08c-1.23,0-2.23-1-2.23-2.23s1-2.23,2.23-2.23h27.84c1.23,0,2.23,1,2.23,2.23s-1,2.23-2.23,2.23Zm0-13.36H11.08c-1.23,0-2.23-1-2.23-2.23s1-2.23,2.23-2.23h27.84c1.23,0,2.23,1,2.23,2.23s-1,2.23-2.23,2.23Z"/>
</svg>