<?xml version="1.0" encoding="UTF-8"?>
<svg xmlns="http://www.w3.org/2000/svg" viewBox="0 0 50 50">
  <defs>
    <style>
      .cls-1 {
        fill: #2e3135;
        stroke-width: 0px;
      }

      .cls-2 {
        fill: none;
        stroke: #000;
        stroke-miterlimit: 10;
        stroke-width: .21px;
      }
    </style>
  </defs>
  <g id="iconos">
    <g>
      <path class="cls-1" d="m35.07,47.09H14.93c-4.36,0-7.91-3.55-7.91-7.91V10.82c0-4.36,3.55-7.91,7.91-7.91h20.14c4.36,0,7.91,3.55,7.91,7.91v28.36c0,4.36-3.55,7.91-7.91,7.91ZM14.93,5.99c-2.66,0-4.83,2.17-4.83,4.83v28.36c0,2.66,2.17,4.83,4.83,4.83h20.14c2.66,0,4.83-2.17,4.83-4.83V10.82c0-2.66-2.17-4.83-4.83-4.83H14.93Z"/>
      <path class="cls-1" d="m38.36,28.6H11.64c-2.55,0-4.62-2.08-4.62-4.62v-4.11c0-2.55,2.08-4.62,4.62-4.62h26.72c2.55,0,4.62,2.08,4.62,4.62v4.11c0,2.55-2.08,4.62-4.62,4.62Zm-26.72-10.28c-.85,0-1.54.69-1.54,1.54v4.11c0,.85.69,1.54,1.54,1.54h26.72c.85,0,1.54-.69,1.54-1.54v-4.11c0-.85-.69-1.54-1.54-1.54H11.64Z"/>
      <path class="cls-1" d="m17.82,39.28c-1.42,0-2.58-1.15-2.58-2.57s1.14-2.57,2.56-2.57h.02c1.42,0,2.57,1.15,2.57,2.57s-1.15,2.57-2.57,2.57Z"/>
      <path class="cls-1" d="m32.2,39.28c-1.42,0-2.58-1.15-2.58-2.57s1.14-2.57,2.56-2.57h.02c1.42,0,2.57,1.15,2.57,2.57s-1.15,2.57-2.57,2.57Z"/>
      <path class="cls-1" d="m30.14,12.16h-10.28c-.85,0-1.54-.69-1.54-1.54s.69-1.54,1.54-1.54h10.28c.85,0,1.54.69,1.54,1.54s-.69,1.54-1.54,1.54Z"/>
    </g>
  </g>
  <g id="guias">
    <rect class="cls-2" x="47.5" y="47.5" width="2.5" height="2.5"/>
    <rect class="cls-2" x="47.5" width="2.5" height="2.5"/>
    <rect class="cls-2" y="47.5" width="2.5" height="2.5"/>
    <rect class="cls-2" width="2.5" height="2.5"/>
  </g>
</svg>