<?xml version="1.0" encoding="UTF-8"?>
<svg xmlns="http://www.w3.org/2000/svg" viewBox="0 0 50 50">
  <defs>
    <style>
      .cls-1 {
        fill: none;
        stroke: #000;
        stroke-miterlimit: 10;
        stroke-width: .21px;
      }

      .cls-2 {
        fill: #1e1f22;
        stroke-width: 0px;
      }
    </style>
  </defs>
  <g id="iconos">
    <g>
      <path class="cls-2" d="m25.23,38.17c-.58,0-1.15-.22-1.58-.64l-.57-.55c-.2-.2-.21-.52-.02-.72.2-.21.52-.21.72-.02l.57.55c.34.33.83.44,1.29.28.43-.15.73-.49.79-.93,0-.28.23-.5.51-.5s.51.24.51.52c0,.03,0,.11-.01.13-.13.82-.68,1.47-1.48,1.74-.24.08-.49.12-.74.12Z"/>
      <path class="cls-2" d="m13.78,28.48c-.11,0-.23-.04-.32-.11-2.43-1.95-4.06-3.08-4.07-3.09-.23-.16-.29-.48-.13-.71.16-.23.48-.28.71-.13.02.01,1.67,1.16,4.13,3.13.22.18.25.5.08.72-.1.13-.25.19-.4.19Z"/>
      <path class="cls-2" d="m22.51,15.81s-.08,0-.11-.01c-3.71-.85-8.33-.48-8.38-.48-.26.06-.53-.19-.55-.47-.02-.28.19-.53.47-.55.19-.02,4.82-.39,8.69.5.27.06.45.34.38.61-.06.24-.26.4-.5.4Z"/>
      <path class="cls-2" d="m34.7,25.07c-4.62,0-7.74-4.52-7.77-4.58-.41-.56-1.08-1.24-1.72-1.18-.71.06-1.29.91-1.46,1.24-.57,1.39-1.36,2.3-2.31,2.66-.76.28-1.62.22-2.47-.2-.75-.37-1.12-1.24-.88-2.06l.8-2.74c.39-1.35,1.36-2.45,2.65-3.02l3.02-1.33c1.28-.56,2.44-.39,3.72-.13l7.89,1.87c.16.04.29.15.35.29l3,7.02c.1.23.02.49-.18.62-1.65,1.11-3.21,1.53-4.62,1.53Zm-9.41-6.78c.85,0,1.69.54,2.47,1.62.2.29,4.62,6.69,10.64,3.02l-2.73-6.39-7.62-1.8c-1.32-.27-2.17-.34-3.08.06l-3.02,1.33c-1.01.45-1.77,1.31-2.08,2.37l-.8,2.74c-.1.34.05.71.35.85.6.3,1.16.35,1.66.17.68-.26,1.27-.98,1.75-2.13.05-.1.88-1.71,2.3-1.83.06,0,.11,0,.17,0Z"/>
      <path class="cls-2" d="m35.51,29.15c-.16,0-.32-.08-.41-.21l-3.25-4.53c-.13-.19-.13-.43.01-.61.14-.18.38-.24.6-.16.14.06,3.54,1.41,6.24-.92.12-.11.29-.15.45-.11.16.04.29.15.35.29l1.66,3.89c.06.13.06.28,0,.41-.06.13-.17.23-.31.27l-5.18,1.65c-.05.02-.1.02-.16.02Zm-2-4.17l2.2,3.07,4.29-1.36-1.18-2.76c-1.89,1.33-3.96,1.3-5.31,1.06Z"/>
      <path class="cls-2" d="m8.76,27.51c-.06,0-.12-.01-.19-.03l-5.75-2.24c-.26-.1-.39-.4-.29-.66.11-.26.39-.38.66-.29l5.29,2.06,4.82-11.25-5.4-2.28c-.26-.11-.38-.41-.27-.67.11-.26.41-.38.67-.27l5.88,2.48c.13.05.23.15.27.28.05.13.05.27,0,.39l-5.22,12.18c-.08.19-.27.31-.47.31Z"/>
      <path class="cls-2" d="m41.24,28.78c-.2,0-.39-.12-.47-.31l-5.21-12.18c-.05-.13-.06-.27,0-.39.05-.13.15-.23.27-.28l5.88-2.47c.26-.11.56.01.67.27.11.26-.01.56-.27.67l-5.4,2.27,4.81,11.26,5.29-2.06c.26-.09.56.03.66.29.1.26-.03.56-.29.66l-5.75,2.24c-.06.02-.12.03-.19.03Z"/>
      <path class="cls-2" d="m34.88,32.94c-.63,0-1.24-.26-1.69-.73l-6.13-6.51c-.19-.21-.18-.53.02-.72.21-.19.53-.18.72.02l6.13,6.51c.32.33.77.47,1.23.38.45-.1.81-.41.96-.84.13-.35.06-.74-.18-1.04l-4.29-5.73c-.17-.23-.12-.55.1-.72.23-.16.55-.12.72.1l4.28,5.72c.45.56.57,1.32.33,2-.27.77-.91,1.33-1.71,1.5-.16.03-.33.05-.49.05Z"/>
      <path class="cls-2" d="m31.82,35.15c-.86,0-1.69-.35-2.3-.99l-5.17-5.4c-.2-.2-.19-.53.02-.72.21-.19.53-.19.72.02l5.17,5.4c.53.56,1.3.8,2.07.62.74-.17,1.32-.7,1.55-1.41l.51.06.48.18c-.36,1.13-1.22,1.91-2.32,2.17-.24.05-.49.08-.73.08Z"/>
      <path class="cls-2" d="m28.5,37.13c-.06,0-.12,0-.17,0-.82-.05-1.59-.43-2.19-1.1l-4.27-4.75c-.19-.21-.17-.53.04-.72.21-.19.53-.17.72.04l4.27,4.75c.41.46.94.73,1.49.76.89.03,1.61-.43,2.22-1.42.15-.24.46-.32.7-.17.24.15.31.46.17.7-.95,1.56-2.11,1.91-2.97,1.91Z"/>
      <path class="cls-2" d="m35.13,25.04c-2.28,0-4.21-.98-4.33-1.04-.25-.13-.35-.44-.22-.69.13-.25.44-.34.69-.22.04.02,3.46,1.74,6.25.43.25-.12.56-.01.68.24s0,.56-.25.68c-.93.44-1.9.6-2.82.6Z"/>
      <path class="cls-2" d="m17.11,33.63c-.5,0-1.01-.18-1.41-.55-.41-.37-.66-.89-.68-1.45-.03-.56.17-1.1.55-1.51l1.17-1.29c.78-.85,2.11-.91,2.97-.14.86.78.92,2.11.14,2.97l-1.18,1.29c-.42.45-.99.68-1.56.68Zm1.18-4.47c-.29,0-.59.12-.8.35l-1.17,1.29c-.2.22-.3.49-.28.78s.14.55.35.74c.43.4,1.12.37,1.53-.07l1.18-1.29h0c.4-.44.37-1.12-.07-1.53-.21-.19-.47-.28-.73-.28Z"/>
      <path class="cls-2" d="m19.46,35.77c-.52,0-1.02-.19-1.41-.55-.85-.77-.92-2.1-.15-2.96l.91-1c.78-.85,2.11-.91,2.96-.14.41.38.66.89.69,1.45.03.56-.17,1.1-.55,1.51l-.9.99c-.38.42-.9.66-1.46.69-.03,0-.06,0-.09,0Zm.91-4.17c-.29,0-.59.12-.8.35l-.91.99c-.4.44-.36,1.13.08,1.52.21.19.46.28.77.28.29-.01.56-.14.75-.35l.9-.99h0c.19-.21.29-.49.28-.78-.01-.29-.14-.55-.35-.75-.21-.19-.46-.28-.72-.28Z"/>
      <path class="cls-2" d="m14.77,31.49c-.51,0-1.01-.18-1.41-.54-.85-.78-.92-2.11-.14-2.97l.91-.99c.78-.86,2.11-.92,2.97-.14.85.78.92,2.11.14,2.97l-.9.99c-.41.45-.98.69-1.55.69Zm.9-4.17c-.29,0-.59.12-.8.35l-.9.99c-.4.44-.37,1.13.07,1.53.44.4,1.12.37,1.52-.07l.9-.99h0c.4-.44.37-1.12-.07-1.52-.21-.19-.47-.28-.73-.28Z"/>
      <path class="cls-2" d="m21.81,37.91c-.52,0-1.02-.19-1.41-.55-.41-.38-.66-.89-.69-1.46-.03-.56.17-1.1.55-1.51l.45-.5c.78-.85,2.11-.91,2.97-.14.86.78.92,2.11.14,2.97l-.45.5c-.38.42-.9.66-1.46.68-.03,0-.06,0-.1,0Zm.46-3.67c-.29,0-.59.12-.8.35l-.45.5c-.2.21-.29.49-.28.77.01.29.14.55.35.75.21.2.45.28.77.28.29-.01.56-.14.75-.35l.45-.5s0,0,0,0c.4-.44.37-1.12-.07-1.53-.21-.19-.47-.28-.73-.28Z"/>
    </g>
  </g>
  <g id="guias">
    <rect class="cls-1" x="47.5" y="47.5" width="2.5" height="2.5"/>
    <rect class="cls-1" x="47.5" width="2.5" height="2.5"/>
    <rect class="cls-1" y="47.5" width="2.5" height="2.5"/>
    <rect class="cls-1" width="2.5" height="2.5"/>
    <rect class="cls-1" x="47.5" y="35" width="2.5" height="2.5"/>
    <rect class="cls-1" y="35" width="2.5" height="2.5"/>
  </g>
</svg>