<?xml version="1.0" encoding="UTF-8"?>
<svg xmlns="http://www.w3.org/2000/svg" viewBox="0 0 50 50">
  <defs>
    <style>
      .cls-1 {
        fill: #2e3135;
        stroke-width: 0px;
      }

      .cls-2 {
        fill: none;
        stroke: #000;
        stroke-miterlimit: 10;
        stroke-width: .21px;
      }
    </style>
  </defs>
  <g id="iconos">
    <g>
      <path class="cls-1" d="m32.33,32.85c-.38,0-.79-.02-1.18-.04-.78-.04-1.41-.66-1.48-1.45-.46-5.83-5.2-10.57-11.03-11.03-.78-.06-1.4-.69-1.45-1.48-.02-.38-.04-.8-.04-1.18,0-8.37,6.81-15.17,15.17-15.17s15.17,6.81,15.17,15.17-6.81,15.17-15.17,15.17Zm-12.03-15.47c6.23,1.1,11.23,6.1,12.33,12.33,6.5-.16,11.74-5.49,11.74-12.03s-5.4-12.03-12.03-12.03-11.87,5.24-12.03,11.74Z"/>
      <path class="cls-1" d="m17.67,47.5c-8.37,0-15.17-6.81-15.17-15.17s6.81-15.17,15.17-15.17c.39,0,.8.02,1.19.05,7.38.58,13.36,6.56,13.94,13.92.02.42.04.83.04,1.21,0,8.37-6.81,15.17-15.17,15.17Zm0-27.21c-6.64,0-12.03,5.4-12.03,12.03s5.4,12.03,12.03,12.03,12.03-5.4,12.03-12.03c0-.33-.02-.67-.04-1-.46-5.8-5.2-10.54-11.03-11-.3-.02-.64-.04-.96-.04Z"/>
      <path class="cls-1" d="m17.67,39.13c-.58,0-1.11-.31-1.38-.82l-1.62-2.98-2.98-1.62c-.5-.27-.82-.8-.82-1.38s.31-1.11.82-1.38l2.98-1.62,1.62-2.98c.55-1.01,2.21-1.01,2.76,0l1.62,2.98,2.98,1.62c.5.27.82.8.82,1.38s-.31,1.11-.82,1.38l-2.98,1.62-1.62,2.98c-.27.5-.8.82-1.38.82Zm-1.94-6.8l.85.46c.27.15.48.36.63.63l.46.85.46-.85c.15-.27.36-.48.63-.63l.85-.46-.85-.46c-.27-.15-.48-.36-.63-.63l-.46-.85-.46.85c-.15.27-.36.48-.63.63l-.85.46Zm.1-1.84h.02-.02Z"/>
    </g>
  </g>
  <g id="guias">
    <rect class="cls-2" x="47.5" y="47.5" width="2.5" height="2.5"/>
    <rect class="cls-2" x="47.5" width="2.5" height="2.5"/>
    <rect class="cls-2" y="47.5" width="2.5" height="2.5"/>
    <rect class="cls-2" width="2.5" height="2.5"/>
  </g>
</svg>