<?xml version="1.0" encoding="UTF-8"?>
<svg xmlns="http://www.w3.org/2000/svg" viewBox="0 0 50 50">
  <defs>
    <style>
      .cls-1 {
        fill: #2e3135;
        stroke-width: 0px;
      }

      .cls-2 {
        fill: none;
        stroke: #000;
        stroke-miterlimit: 10;
        stroke-width: .21px;
      }
    </style>
  </defs>
  <g id="iconos">
    <g>
      <path class="cls-1" d="m45.93,47.5H4.07c-.87,0-1.57-.7-1.57-1.57s.7-1.57,1.57-1.57h41.86c.87,0,1.57.7,1.57,1.57s-.7,1.57-1.57,1.57Z"/>
      <path class="cls-1" d="m43.59,47.5c-.87,0-1.57-.7-1.57-1.57v-18.84c0-2.6-2.42-4.71-5.4-4.71H13.36c-2.98,0-5.4,2.11-5.4,4.71v18.84c0,.87-.7,1.57-1.57,1.57s-1.57-.7-1.57-1.57v-18.84c0-4.33,3.83-7.85,8.54-7.85h23.25c4.71,0,8.54,3.52,8.54,7.85v18.84c0,.87-.7,1.57-1.57,1.57Z"/>
      <path class="cls-1" d="m38.48,22.38c-.87,0-1.57-.7-1.57-1.57v-5.92c0-1.64-1.56-2.97-3.47-2.97h-16.85c-1.93,0-3.5,1.33-3.5,2.97v5.92c0,.87-.7,1.57-1.57,1.57s-1.57-.7-1.57-1.57v-5.92c0-3.37,2.98-6.11,6.63-6.11h16.85c3.65,0,6.61,2.74,6.61,6.11v5.92c0,.87-.7,1.57-1.57,1.57Z"/>
      <path class="cls-1" d="m36.26,37.08c-2.42,0-4.4-1.97-4.4-4.39v-.65c0-.69-.56-1.26-1.25-1.26s-1.26.56-1.26,1.26v.65c0,2.42-1.97,4.39-4.39,4.39s-4.39-1.97-4.39-4.39v-.65c0-.69-.56-1.26-1.26-1.26s-1.25.56-1.25,1.26v.65c0,2.42-1.97,4.39-4.4,4.39s-4.39-1.97-4.39-4.39v-.69c0-.69-.54-1.25-1.23-1.25l-.8-.02c-.87-.02-1.55-.74-1.53-1.61.02-.85.72-1.53,1.57-1.53h.04l.77.02c2.37.03,4.31,2,4.31,4.39v.69c0,.69.56,1.25,1.25,1.25s1.26-.56,1.26-1.25v-.65c0-2.42,1.97-4.4,4.39-4.4s4.4,1.97,4.4,4.4v.65c0,.69.56,1.25,1.25,1.25s1.25-.56,1.25-1.25v-.65c0-2.42,1.97-4.4,4.4-4.4s4.39,1.97,4.39,4.4v.65c0,.69.56,1.25,1.26,1.25s1.25-.56,1.25-1.25v-.65c0-2.42,1.97-4.4,4.39-4.4h.94c.87,0,1.57.7,1.57,1.57s-.7,1.57-1.57,1.57h-.94c-.69,0-1.25.56-1.25,1.26v.65c0,2.42-1.97,4.39-4.39,4.39Z"/>
      <path class="cls-1" d="m16.63,11.92c-.87,0-1.57-.7-1.57-1.57v-4.19c0-.87.7-1.57,1.57-1.57s1.57.7,1.57,1.57v4.19c0,.87-.7,1.57-1.57,1.57Z"/>
      <path class="cls-1" d="m33.37,11.92c-.87,0-1.57-.7-1.57-1.57v-4.19c0-.87.7-1.57,1.57-1.57s1.57.7,1.57,1.57v4.19c0,.87-.7,1.57-1.57,1.57Z"/>
      <path class="cls-1" d="m25,11.92c-.87,0-1.57-.7-1.57-1.57v-6.28c0-.87.7-1.57,1.57-1.57s1.57.7,1.57,1.57v6.28c0,.87-.7,1.57-1.57,1.57Z"/>
    </g>
  </g>
  <g id="guias">
    <rect class="cls-2" x="47.5" y="47.5" width="2.5" height="2.5"/>
    <rect class="cls-2" x="47.5" width="2.5" height="2.5"/>
    <rect class="cls-2" y="47.5" width="2.5" height="2.5"/>
    <rect class="cls-2" width="2.5" height="2.5"/>
  </g>
</svg>