<?xml version="1.0" encoding="UTF-8"?>
<svg xmlns="http://www.w3.org/2000/svg" viewBox="0 0 50 50">
  <defs>
    <style>
      .cls-1 {
        fill: #2e3135;
        stroke-width: 0px;
      }

      .cls-2 {
        fill: none;
        stroke: #000;
        stroke-miterlimit: 10;
        stroke-width: .21px;
      }
    </style>
  </defs>
  <g id="iconos">
    <g>
      <path class="cls-1" d="m29.19,47.5h-8.37c-11.37,0-16.22-4.85-16.22-16.22v-12.56C4.59,7.35,9.44,2.5,20.81,2.5h8.37c11.37,0,16.22,4.85,16.22,16.22v12.56c0,11.37-4.85,16.22-16.22,16.22ZM20.81,5.64c-9.66,0-13.08,3.42-13.08,13.08v12.56c0,9.66,3.42,13.08,13.08,13.08h8.37c9.66,0,13.08-3.42,13.08-13.08v-12.56c0-9.66-3.42-13.08-13.08-13.08h-8.37Z"/>
      <path class="cls-1" d="m31.28,22.55h-12.56c-2.6,0-4.71-2.11-4.71-4.71v-2.09c0-2.6,2.11-4.71,4.71-4.71h12.56c2.6,0,4.71,2.11,4.71,4.71v2.09c0,2.6-2.11,4.71-4.71,4.71Zm-12.56-8.37c-.87,0-1.57.71-1.57,1.57v2.09c0,.86.7,1.57,1.57,1.57h12.56c.87,0,1.57-.71,1.57-1.57v-2.09c0-.86-.7-1.57-1.57-1.57h-12.56Z"/>
      <path class="cls-1" d="m16.94,31.28c-1.16,0-2.11-.94-2.11-2.09s.93-2.09,2.08-2.09h.02c1.16,0,2.09.94,2.09,2.09s-.94,2.09-2.09,2.09Z"/>
      <path class="cls-1" d="m25.01,31.28c-1.16,0-2.11-.94-2.11-2.09s.92-2.09,2.08-2.09h.02c1.16,0,2.09.94,2.09,2.09s-.94,2.09-2.09,2.09Z"/>
      <path class="cls-1" d="m33.09,31.28c-1.16,0-2.1-.94-2.1-2.09s.92-2.09,2.08-2.09h.02c1.16,0,2.09.94,2.09,2.09s-.94,2.09-2.09,2.09Z"/>
      <path class="cls-1" d="m16.94,38.6c-1.16,0-2.11-.94-2.11-2.09s.93-2.09,2.08-2.09h.02c1.16,0,2.09.94,2.09,2.09s-.94,2.09-2.09,2.09Z"/>
      <path class="cls-1" d="m25.01,38.6c-1.16,0-2.11-.94-2.11-2.09s.92-2.09,2.08-2.09h.02c1.16,0,2.09.94,2.09,2.09s-.94,2.09-2.09,2.09Z"/>
      <path class="cls-1" d="m33.09,38.6c-1.16,0-2.1-.94-2.1-2.09s.92-2.09,2.08-2.09h.02c1.16,0,2.09.94,2.09,2.09s-.94,2.09-2.09,2.09Z"/>
    </g>
  </g>
  <g id="guias">
    <rect class="cls-2" x="47.5" y="47.5" width="2.5" height="2.5"/>
    <rect class="cls-2" x="47.5" width="2.5" height="2.5"/>
    <rect class="cls-2" y="47.5" width="2.5" height="2.5"/>
    <rect class="cls-2" width="2.5" height="2.5"/>
  </g>
</svg>