<?xml version="1.0" encoding="UTF-8"?>
<svg xmlns="http://www.w3.org/2000/svg" viewBox="0 0 50 50">
  <defs>
    <style>
      .cls-1 {
        fill: #2e3135;
        stroke-width: 0px;
      }

      .cls-2 {
        fill: none;
        stroke: #000;
        stroke-miterlimit: 10;
        stroke-width: .21px;
      }
    </style>
  </defs>
  <g id="iconos">
    <g>
      <path class="cls-1" d="m15.6,11.91c-.87,0-1.57-.7-1.57-1.57v-6.27c0-.87.7-1.57,1.57-1.57s1.57.7,1.57,1.57v6.27c0,.87-.7,1.57-1.57,1.57Z"/>
      <path class="cls-1" d="m32.33,11.91c-.87,0-1.57-.7-1.57-1.57v-6.27c0-.87.7-1.57,1.57-1.57s1.57.7,1.57,1.57v6.27c0,.87-.7,1.57-1.57,1.57Z"/>
      <path class="cls-1" d="m41.74,20.46H6.19c-.87,0-1.57-.7-1.57-1.57s.7-1.57,1.57-1.57h35.55c.87,0,1.57.7,1.57,1.57s-.7,1.57-1.57,1.57Z"/>
      <path class="cls-1" d="m31.94,47.5c-.8,0-1.54-.29-2.08-.83-.65-.65-.94-1.58-.8-2.57l.39-2.82c.12-.76.55-1.6,1.07-2.12l7.4-7.4c2.99-2.99,5.57-1.29,6.84-.02,1.22,1.22,1.77,2.5,1.64,3.81-.1,1.06-.64,2.05-1.64,3.05l-7.4,7.4c-.46.49-1.34.95-2.1,1.07l-2.84.4c-.16.02-.32.03-.48.03Zm9.41-14.26c-.38,0-.73.26-1.2.74l-7.4,7.4c-.06.07-.17.28-.19.38l-.36,2.57,2.61-.36c.07-.01.26-.11.33-.17l7.42-7.42c.45-.45.7-.84.73-1.14.04-.42-.38-.93-.73-1.29-.49-.49-.85-.71-1.2-.71Z"/>
      <path class="cls-1" d="m42.62,40.14c-.14,0-.28-.02-.42-.06-2.77-.77-4.96-2.97-5.73-5.74-.23-.83.26-1.7,1.09-1.93.82-.23,1.7.26,1.93,1.09.48,1.74,1.81,3.07,3.55,3.55.84.23,1.32,1.1,1.09,1.93-.19.69-.82,1.15-1.51,1.15Z"/>
      <path class="cls-1" d="m23.96,47.46h-8.36c-7.64,0-12.02-4.38-12.02-12.02v-17.78c0-7.64,4.38-12.02,12.02-12.02h16.73c7.64,0,12.02,4.38,12.02,12.02v7.32c0,.87-.7,1.57-1.57,1.57s-1.57-.7-1.57-1.57v-7.32c0-5.98-2.91-8.89-8.89-8.89H15.6c-5.98,0-8.89,2.91-8.89,8.89v17.78c0,5.98,2.91,8.89,8.89,8.89h8.36c.87,0,1.57.7,1.57,1.57s-.7,1.57-1.57,1.57Z"/>
      <path class="cls-1" d="m23.97,30.63c-1.16,0-2.1-.94-2.1-2.09s.93-2.09,2.08-2.09h.02c1.16,0,2.09.94,2.09,2.09s-.94,2.09-2.09,2.09Z"/>
      <path class="cls-1" d="m16.23,30.63c-1.16,0-2.1-.94-2.1-2.09s.93-2.09,2.08-2.09h.02c1.16,0,2.09.94,2.09,2.09s-.94,2.09-2.09,2.09Z"/>
      <path class="cls-1" d="m16.23,36.9c-1.16,0-2.1-.94-2.1-2.09s.93-2.09,2.08-2.09h.02c1.16,0,2.09.94,2.09,2.09s-.94,2.09-2.09,2.09Z"/>
    </g>
  </g>
  <g id="guias">
    <rect class="cls-2" x="47.5" y="47.5" width="2.5" height="2.5"/>
    <rect class="cls-2" x="47.5" width="2.5" height="2.5"/>
    <rect class="cls-2" y="47.5" width="2.5" height="2.5"/>
    <rect class="cls-2" width="2.5" height="2.5"/>
  </g>
</svg>