<?xml version="1.0" encoding="UTF-8"?>
<svg xmlns="http://www.w3.org/2000/svg" viewBox="0 0 50 50">
  <defs>
    <style>
      .cls-1 {
        fill: #2e3135;
        stroke-width: 0px;
      }

      .cls-2 {
        fill: none;
        stroke: #000;
        stroke-miterlimit: 10;
        stroke-width: .21px;
      }
    </style>
  </defs>
  <g id="iconos">
    <g>
      <path class="cls-1" d="m16.63,11.91c-.87,0-1.57-.7-1.57-1.57v-6.28c0-.87.7-1.57,1.57-1.57s1.57.7,1.57,1.57v6.28c0,.87-.7,1.57-1.57,1.57Z"/>
      <path class="cls-1" d="m33.37,11.91c-.87,0-1.57-.7-1.57-1.57v-6.28c0-.87.7-1.57,1.57-1.57s1.57.7,1.57,1.57v6.28c0,.87-.7,1.57-1.57,1.57Z"/>
      <path class="cls-1" d="m31.28,47.5h-12.55c-11.76,0-14.12-5.55-14.12-14.5v-12.93c0-9.9,3.35-13.94,11.94-14.43h16.83s.06,0,.08,0c8.48.46,11.94,4.64,11.94,14.43v12.93c0,8.95-2.36,14.5-14.12,14.5ZM16.63,8.78c-5.87.34-8.89,2.18-8.89,11.3v12.93c0,7.86,1.59,11.36,10.98,11.36h12.55c9.4,0,10.98-3.5,10.98-11.36v-12.93c0-9.12-3.01-10.97-8.93-11.3h-16.69Z"/>
      <path class="cls-1" d="m43.31,38.27H6.69c-.87,0-1.57-.7-1.57-1.57s.7-1.57,1.57-1.57h36.61c.87,0,1.57.7,1.57,1.57s-.7,1.57-1.57,1.57Z"/>
      <path class="cls-1" d="m25,17.14c-2.57,0-4.75,1.4-4.75,4.12,0,1.3.61,2.28,1.53,2.91-1.28.75-2.01,1.97-2.01,3.39,0,2.59,1.99,4.21,5.23,4.21s5.23-1.61,5.23-4.21c0-1.42-.73-2.66-2.03-3.39.94-.65,1.53-1.61,1.53-2.91,0-2.72-2.15-4.12-4.73-4.12Zm0,5.94c-1.09,0-1.88-.65-1.88-1.67s.79-1.65,1.88-1.65,1.88.61,1.88,1.65-.79,1.67-1.88,1.67Zm0,6.09c-1.38,0-2.38-.69-2.38-1.95s1-1.92,2.38-1.92,2.38.69,2.38,1.92-1,1.95-2.38,1.95Z"/>
    </g>
  </g>
  <g id="guias">
    <rect class="cls-2" x="47.5" y="47.5" width="2.5" height="2.5"/>
    <rect class="cls-2" x="47.5" width="2.5" height="2.5"/>
    <rect class="cls-2" y="47.5" width="2.5" height="2.5"/>
    <rect class="cls-2" width="2.5" height="2.5"/>
  </g>
</svg>