<?xml version="1.0" encoding="UTF-8"?>
<svg xmlns="http://www.w3.org/2000/svg" viewBox="0 0 50 50">
  <defs>
    <style>
      .cls-1 {
        fill: #2e3135;
        stroke-width: 0px;
      }

      .cls-2 {
        fill: none;
        stroke: #000;
        stroke-miterlimit: 10;
        stroke-width: .21px;
      }
    </style>
  </defs>
  <g id="iconos">
    <g>
      <path class="cls-1" d="m16,11.5c-.83,0-1.5-.67-1.5-1.5v-6c0-.83.67-1.5,1.5-1.5s1.5.67,1.5,1.5v6c0,.83-.67,1.5-1.5,1.5Z"/>
      <path class="cls-1" d="m32,11.5c-.83,0-1.5-.67-1.5-1.5v-6c0-.83.67-1.5,1.5-1.5s1.5.67,1.5,1.5v6c0,.83-.67,1.5-1.5,1.5Z"/>
      <path class="cls-1" d="m41,19.68H7c-.83,0-1.5-.67-1.5-1.5s.67-1.5,1.5-1.5h34c.83,0,1.5.67,1.5,1.5s-.67,1.5-1.5,1.5Z"/>
      <path class="cls-1" d="m36,47.5c-5.24,0-9.5-4.26-9.5-9.5s4.26-9.5,9.5-9.5,9.5,4.26,9.5,9.5-4.26,9.5-9.5,9.5Zm0-16c-3.58,0-6.5,2.92-6.5,6.5s2.92,6.5,6.5,6.5,6.5-2.92,6.5-6.5-2.92-6.5-6.5-6.5Z"/>
      <path class="cls-1" d="m38.14,41.72c-.38,0-.77-.15-1.06-.44l-4.24-4.22c-.59-.58-.59-1.53,0-2.12.58-.59,1.53-.59,2.12,0l4.24,4.22c.59.58.59,1.53,0,2.12-.29.29-.68.44-1.06.44Z"/>
      <path class="cls-1" d="m33.86,41.78c-.38,0-.77-.15-1.06-.44-.59-.59-.59-1.54,0-2.12l4.24-4.24c.59-.59,1.54-.59,2.12,0s.59,1.54,0,2.12l-4.24,4.24c-.29.29-.68.44-1.06.44Z"/>
      <path class="cls-1" d="m30.74,45.5h-14.74c-7.31,0-11.5-4.19-11.5-11.5v-17c0-7.31,4.19-11.5,11.5-11.5h16c7.31,0,11.5,4.19,11.5,11.5v15.72c0,.62-.39,1.18-.97,1.4-.58.22-1.24.05-1.66-.41-1.23-1.4-3.01-2.21-4.87-2.21-3.58,0-6.5,2.92-6.5,6.5,0,1.18.32,2.34.94,3.34.35.59.78,1.11,1.27,1.52.48.4.66,1.07.45,1.66-.22.59-.78.99-1.41.99ZM16,8.5c-5.72,0-8.5,2.78-8.5,8.5v17c0,5.72,2.78,8.5,8.5,8.5h11.64c-.75-1.36-1.14-2.91-1.14-4.5,0-5.24,4.26-9.5,9.5-9.5,1.59,0,3.13.4,4.5,1.14v-12.64c0-5.72-2.78-8.5-8.5-8.5h-16Z"/>
      <path class="cls-1" d="m24.01,29.4c-1.11,0-2.01-.89-2.01-2s.89-2,1.99-2h.02c1.11,0,2,.89,2,2s-.89,2-2,2Z"/>
      <path class="cls-1" d="m16.61,29.4c-1.11,0-2.01-.89-2.01-2s.89-2,1.99-2h.02c1.11,0,2,.89,2,2s-.89,2-2,2Z"/>
      <path class="cls-1" d="m16.61,35.4c-1.11,0-2.01-.89-2.01-2s.89-2,1.99-2h.02c1.11,0,2,.89,2,2s-.89,2-2,2Z"/>
    </g>
  </g>
  <g id="guias">
    <rect class="cls-2" x="47.5" y="47.5" width="2.5" height="2.5"/>
    <rect class="cls-2" x="47.5" width="2.5" height="2.5"/>
    <rect class="cls-2" y="47.5" width="2.5" height="2.5"/>
    <rect class="cls-2" width="2.5" height="2.5"/>
  </g>
</svg>