<?xml version="1.0" encoding="UTF-8"?>
<svg xmlns="http://www.w3.org/2000/svg" viewBox="0 0 50 50">
  <defs>
    <style>
      .cls-1 {
        fill: #2e3135;
        stroke-width: 0px;
      }

      .cls-2 {
        fill: none;
        stroke: #000;
        stroke-miterlimit: 10;
        stroke-width: .21px;
      }
    </style>
  </defs>
  <g id="iconos">
    <g>
      <path class="cls-1" d="m16.63,11.92c-.87,0-1.57-.7-1.57-1.57v-6.28c0-.87.7-1.57,1.57-1.57s1.57.7,1.57,1.57v6.28c0,.87-.7,1.57-1.57,1.57Z"/>
      <path class="cls-1" d="m33.37,11.92c-.87,0-1.57-.7-1.57-1.57v-6.28c0-.87.7-1.57,1.57-1.57s1.57.7,1.57,1.57v6.28c0,.87-.7,1.57-1.57,1.57Z"/>
      <path class="cls-1" d="m42.79,20.48H7.21c-.87,0-1.57-.7-1.57-1.57s.7-1.57,1.57-1.57h35.58c.87,0,1.57.7,1.57,1.57s-.7,1.57-1.57,1.57Z"/>
      <path class="cls-1" d="m33.37,47.5h-16.74c-7.65,0-12.03-4.39-12.03-12.03v-17.79c0-7.65,4.39-12.03,12.03-12.03h16.74c7.65,0,12.03,4.39,12.03,12.03v17.79c0,7.65-4.39,12.03-12.03,12.03ZM16.63,8.78c-5.98,0-8.9,2.91-8.9,8.9v17.79c0,5.98,2.91,8.9,8.9,8.9h16.74c5.98,0,8.9-2.91,8.9-8.9v-17.79c0-5.98-2.91-8.9-8.9-8.9h-16.74Z"/>
      <path class="cls-1" d="m25.01,30.65c-1.16,0-2.1-.94-2.1-2.09s.93-2.09,2.08-2.09h.02c1.16,0,2.09.94,2.09,2.09s-.94,2.09-2.09,2.09Z"/>
      <path class="cls-1" d="m17.26,30.65c-1.16,0-2.1-.94-2.1-2.09s.93-2.09,2.08-2.09h.02c1.16,0,2.09.94,2.09,2.09s-.94,2.09-2.09,2.09Z"/>
      <path class="cls-1" d="m17.26,36.93c-1.16,0-2.1-.94-2.1-2.09s.93-2.09,2.08-2.09h.02c1.16,0,2.09.94,2.09,2.09s-.94,2.09-2.09,2.09Z"/>
    </g>
  </g>
  <g id="guias">
    <rect class="cls-2" x="47.5" y="47.5" width="2.5" height="2.5"/>
    <rect class="cls-2" x="47.5" width="2.5" height="2.5"/>
    <rect class="cls-2" y="47.5" width="2.5" height="2.5"/>
    <rect class="cls-2" width="2.5" height="2.5"/>
  </g>
</svg>