<?xml version="1.0" encoding="UTF-8"?>
<svg xmlns="http://www.w3.org/2000/svg" viewBox="0 0 50 50">
  <defs>
    <style>
      .cls-1 {
        fill: #2e3135;
        stroke-width: 0px;
      }

      .cls-2 {
        fill: none;
        stroke: #000;
        stroke-miterlimit: 10;
        stroke-width: .21px;
      }
    </style>
  </defs>
  <g id="iconos">
    <g>
      <path class="cls-1" d="m36.45,47.53c-2.36,0-4.87-.56-7.45-1.66-2.53-1.08-5.06-2.53-7.52-4.32-2.47-1.81-4.84-3.83-7.06-6.02-2.21-2.24-4.23-4.6-6.01-7.05-1.81-2.52-3.25-5.02-4.28-7.46-1.08-2.58-1.63-5.09-1.63-7.47,0-1.63.29-3.19.87-4.63.59-1.5,1.53-2.87,2.79-4.06,1.61-1.58,3.45-2.4,5.44-2.4.83,0,1.65.18,2.38.53.81.37,1.5.95,2.02,1.69l4.85,6.84c.44.61.77,1.2,1.01,1.78.27.62.41,1.26.41,1.87,0,.8-.23,1.58-.67,2.31-.32.56-.8,1.18-1.41,1.78l-1.43,1.48c.02.05.04.1.05.14.25.44.75,1.18,1.72,2.33.91,1.05,1.9,2.14,2.96,3.23,1.24,1.22,2.27,2.17,3.23,2.98,1.19,1,1.97,1.5,2.42,1.74l-.03.12,1.54-1.52c.65-.65,1.27-1.12,1.89-1.45,1.14-.7,2.61-.84,4.09-.23.55.23,1.12.54,1.76.97l6.96,4.94c.77.53,1.34,1.21,1.68,1.99.32.8.47,1.53.47,2.27,0,1.01-.23,2.01-.67,2.96-.44.94-.99,1.76-1.68,2.52-1.2,1.32-2.51,2.26-4,2.87-1.45.6-3.03.91-4.68.91ZM11.6,5.61c-1.15,0-2.22.5-3.26,1.52-.94.89-1.63,1.88-2.05,2.96-.43,1.07-.65,2.24-.65,3.47,0,1.96.47,4.06,1.39,6.24.94,2.22,2.27,4.52,3.93,6.84,1.68,2.31,3.6,4.55,5.69,6.66,2.09,2.07,4.35,4,6.69,5.71,2.27,1.65,4.59,2.99,6.9,3.97,3.58,1.52,6.94,1.88,9.7.73,1.06-.44,2-1.12,2.88-2.08.48-.53.86-1.1,1.17-1.75.25-.53.37-1.07.37-1.61,0-.34-.07-.67-.22-1.05-.05-.11-.19-.36-.59-.63l-6.95-4.93c-.42-.29-.81-.5-1.15-.64-.54-.22-.9-.22-1.35.05-.42.22-.8.52-1.22.94l-1.6,1.58c-.8.81-2.08.99-3.04.62l-.55-.25c-.85-.45-1.86-1.16-2.99-2.12-1.02-.87-2.1-1.87-3.42-3.16-1.03-1.05-2.04-2.16-3.13-3.4-.99-1.16-1.7-2.16-2.14-2.96l-.26-.62c-.13-.47-.16-.75-.16-1.04,0-.76.28-1.43.8-1.95l1.57-1.63c.42-.42.74-.82.94-1.17.17-.28.24-.5.24-.72,0-.08-.02-.31-.17-.65-.16-.38-.37-.76-.67-1.17l-4.87-6.86c-.2-.29-.46-.51-.78-.65-.32-.16-.67-.23-1.04-.23Zm17.51,25.7l-.33,1.42.56-1.47c-.08-.03-.17,0-.23.05Zm-.05.04s0,0,0,0h0Z"/>
      <path class="cls-1" d="m33.9,17.71c-.4,0-.8-.15-1.11-.46-.61-.61-.61-1.61,0-2.22l7.42-7.42c.61-.61,1.61-.61,2.22,0s.61,1.61,0,2.22l-7.42,7.42c-.31.31-.71.46-1.11.46Z"/>
      <path class="cls-1" d="m41.32,17.71c-.4,0-.8-.15-1.11-.46l-7.42-7.42c-.61-.61-.61-1.61,0-2.22s1.61-.61,2.22,0l7.42,7.42c.61.61.61,1.61,0,2.22-.31.31-.71.46-1.11.46Z"/>
    </g>
  </g>
  <g id="guias">
    <rect class="cls-2" x="47.5" y="47.5" width="2.5" height="2.5"/>
    <rect class="cls-2" x="47.5" width="2.5" height="2.5"/>
    <rect class="cls-2" y="47.5" width="2.5" height="2.5"/>
    <rect class="cls-2" width="2.5" height="2.5"/>
  </g>
</svg>