<?xml version="1.0" encoding="UTF-8"?>
<svg xmlns="http://www.w3.org/2000/svg" viewBox="0 0 50 50">
  <defs>
    <style>
      .cls-1 {
        fill: #2e3135;
        stroke-width: 0px;
      }

      .cls-2 {
        fill: none;
        stroke: #000;
        stroke-miterlimit: 10;
        stroke-width: .21px;
      }
    </style>
  </defs>
  <g id="iconos">
    <g>
      <path class="cls-1" d="m36.45,47.53c-2.37,0-4.87-.56-7.45-1.66-2.52-1.07-5.05-2.53-7.52-4.32-2.47-1.8-4.84-3.83-7.06-6.02-2.22-2.24-4.23-4.61-6.01-7.05-1.81-2.52-3.25-5.03-4.28-7.46-1.08-2.58-1.63-5.09-1.63-7.47,0-1.63.29-3.19.87-4.63.59-1.5,1.53-2.87,2.79-4.06,1.61-1.58,3.45-2.4,5.44-2.4.83,0,1.65.18,2.38.53.81.37,1.5.95,2.02,1.69l4.85,6.84c.44.61.77,1.2,1.01,1.78.27.62.41,1.26.41,1.87,0,.8-.23,1.58-.67,2.31-.31.55-.79,1.17-1.4,1.78l-1.43,1.49c.02.05.04.1.05.14.25.44.75,1.18,1.72,2.33.91,1.05,1.89,2.14,2.96,3.23,1.27,1.25,2.27,2.17,3.23,2.98,1.19,1,1.97,1.5,2.42,1.74l-.03.12,1.54-1.52c.65-.65,1.27-1.13,1.89-1.45,1.16-.71,2.62-.83,4.09-.23.54.22,1.12.54,1.75.97l6.96,4.94c.77.53,1.34,1.21,1.68,1.99.32.8.47,1.53.47,2.27,0,1.01-.23,2.01-.67,2.96-.44.93-.99,1.76-1.68,2.52-1.2,1.32-2.51,2.26-4.01,2.87-1.45.6-3.03.91-4.68.91ZM11.6,5.61c-1.15,0-2.22.5-3.26,1.52-.94.89-1.63,1.88-2.05,2.96-.43,1.07-.65,2.24-.65,3.47,0,1.96.47,4.06,1.39,6.24.94,2.21,2.26,4.52,3.93,6.84,1.68,2.3,3.59,4.55,5.69,6.66,2.09,2.07,4.35,4,6.68,5.7,2.27,1.65,4.59,2.99,6.9,3.97,3.57,1.52,6.93,1.88,9.7.73,1.07-.44,2-1.12,2.88-2.08.48-.53.86-1.1,1.17-1.75.25-.53.37-1.07.37-1.61,0-.34-.07-.66-.22-1.05-.05-.11-.19-.36-.59-.63l-6.95-4.93c-.42-.29-.81-.5-1.15-.64-.55-.23-.89-.23-1.36.05-.41.22-.79.52-1.21.94l-1.6,1.58c-.8.8-2.08.99-3.04.62l-.55-.25c-.85-.45-1.86-1.16-2.99-2.12-1.01-.86-2.07-1.83-3.42-3.16-1.03-1.05-2.05-2.16-3.13-3.4-.99-1.17-1.7-2.16-2.14-2.96l-.26-.62c-.13-.47-.16-.75-.16-1.04,0-.76.28-1.43.8-1.95l1.57-1.63c.42-.43.74-.82.94-1.17.17-.28.24-.5.24-.72,0-.08-.02-.31-.17-.65-.16-.38-.37-.76-.67-1.17l-4.87-6.86c-.2-.29-.46-.51-.78-.65-.33-.16-.68-.23-1.04-.23Zm17.51,25.7-.05.04s0,0,0,0h0Z"/>
      <path class="cls-1" d="m41.8,19.87c-.87,0-1.57-.7-1.57-1.57v-8.49h-8.49c-.87,0-1.57-.7-1.57-1.57s.7-1.57,1.57-1.57h10.06c.87,0,1.57.7,1.57,1.57v10.06c0,.87-.7,1.57-1.57,1.57Z"/>
    </g>
  </g>
  <g id="guias">
    <rect class="cls-2" x="47.5" y="47.5" width="2.5" height="2.5"/>
    <rect class="cls-2" x="47.5" width="2.5" height="2.5"/>
    <rect class="cls-2" y="47.5" width="2.5" height="2.5"/>
    <rect class="cls-2" width="2.5" height="2.5"/>
  </g>
</svg>