<?xml version="1.0" encoding="UTF-8"?>
<svg xmlns="http://www.w3.org/2000/svg" viewBox="0 0 50 50">
  <defs>
    <style>
      .cls-1 {
        fill: #2e3135;
        stroke-width: 0px;
      }

      .cls-2 {
        fill: none;
        stroke: #000;
        stroke-miterlimit: 10;
        stroke-width: .21px;
      }
    </style>
  </defs>
  <g id="iconos">
    <g>
      <path class="cls-1" d="m36.42,47.53c-2.36,0-4.87-.56-7.45-1.66-2.53-1.08-5.06-2.53-7.52-4.32l-.24-.17c-.24-.18-.48-.35-.71-.54-.68-.54-.8-1.52-.26-2.21.54-.69,1.53-.8,2.21-.26.2.16.41.31.62.46l.24.18c2.26,1.65,4.58,2.98,6.89,3.97,3.58,1.52,6.94,1.88,9.7.73,1.06-.44,2-1.12,2.88-2.08.48-.52.86-1.1,1.17-1.75.25-.52.37-1.07.37-1.61,0-.34-.07-.67-.22-1.05-.05-.11-.19-.36-.59-.63l-6.95-4.93c-.42-.28-.81-.5-1.15-.64-.54-.22-.9-.22-1.35.05-.42.22-.8.52-1.22.94l-1.6,1.58c-.8.81-2.08.99-3.04.62l-.29-.12s-.24-.11-.26-.12c-.5-.26-1.03-.6-1.58-1.02-.69-.52-.83-1.51-.31-2.2.52-.7,1.51-.84,2.2-.31.42.32.81.57,1.15.74l-.03.12,1.55-1.53c.65-.65,1.27-1.12,1.89-1.45,1.12-.7,2.61-.84,4.09-.23.55.23,1.13.54,1.76.97l6.96,4.94c.76.53,1.33,1.2,1.68,1.99.32.81.47,1.53.47,2.27,0,1.02-.23,2.01-.67,2.96-.45.94-.99,1.77-1.68,2.52-1.2,1.32-2.51,2.26-4,2.87-1.45.6-3.03.91-4.68.91Zm-7.35-16.22l-.32,1.42.56-1.47c-.08-.02-.17.01-.23.05Zm-.05.04s0,0,0,0h0Z"/>
      <path class="cls-1" d="m15.5,35.98c-.41,0-.81-.16-1.12-.47-2.21-2.23-4.22-4.59-6-7.03-1.81-2.52-3.25-5.02-4.28-7.46-1.08-2.57-1.63-5.09-1.63-7.47,0-1.64.29-3.19.87-4.63.59-1.5,1.53-2.87,2.79-4.06,1.61-1.58,3.45-2.4,5.44-2.4.83,0,1.65.18,2.38.53.81.37,1.5.95,2.02,1.69l4.85,6.84c.44.61.77,1.19,1.01,1.78.27.63.41,1.26.41,1.87,0,.8-.23,1.58-.67,2.31-.32.56-.8,1.18-1.41,1.78l-1.43,1.48c.02.06.04.1.05.14.25.44.75,1.18,1.72,2.33.91,1.05,1.9,2.14,2.96,3.23.61.62.6,1.61-.02,2.22-.62.61-1.61.6-2.22-.02-1-1.03-2.02-2.13-3.11-3.38-.99-1.16-1.7-2.16-2.14-2.96-.04-.08-.08-.17-.11-.25l-.15-.37c-.13-.46-.16-.74-.16-1.03,0-.75.27-1.43.79-1.95l1.57-1.64c.42-.42.74-.82.94-1.17.17-.28.24-.5.24-.72,0-.08-.02-.31-.17-.66-.16-.38-.37-.75-.67-1.17l-4.87-6.86c-.2-.29-.46-.51-.78-.65-.32-.16-.67-.23-1.04-.23-1.15,0-2.22.5-3.26,1.52-.94.89-1.63,1.88-2.05,2.96-.43,1.07-.64,2.24-.64,3.47,0,1.96.47,4.06,1.39,6.24.94,2.22,2.27,4.52,3.93,6.84,1.68,2.3,3.59,4.55,5.69,6.66.61.62.61,1.61-.01,2.22-.31.3-.71.45-1.11.45Z"/>
      <path class="cls-1" d="m4.04,47.53c-.4,0-.8-.15-1.11-.46-.61-.61-.61-1.61,0-2.22L44.85,2.93c.61-.61,1.61-.61,2.22,0s.61,1.61,0,2.22L5.15,47.07c-.31.31-.71.46-1.11.46Z"/>
    </g>
  </g>
  <g id="guias">
    <rect class="cls-2" x="47.5" y="47.5" width="2.5" height="2.5"/>
    <rect class="cls-2" x="47.5" width="2.5" height="2.5"/>
    <rect class="cls-2" y="47.5" width="2.5" height="2.5"/>
    <rect class="cls-2" width="2.5" height="2.5"/>
  </g>
</svg>