<?xml version="1.0" encoding="UTF-8"?>
<svg xmlns="http://www.w3.org/2000/svg" viewBox="0 0 50 50">
  <defs>
    <style>
      .cls-1 {
        fill: #2e3135;
        stroke-width: 0px;
      }

      .cls-2 {
        fill: none;
        stroke: #000;
        stroke-miterlimit: 10;
        stroke-width: .21px;
      }
    </style>
  </defs>
  <g id="iconos">
    <g>
      <path class="cls-1" d="m36.41,47.5c-2.36,0-4.86-.56-7.44-1.65-2.52-1.08-5.04-2.53-7.51-4.32-2.47-1.8-4.84-3.83-7.05-6.02-2.22-2.24-4.24-4.6-6-7.04-1.81-2.51-3.25-5.02-4.28-7.45-1.08-2.57-1.63-5.08-1.63-7.46,0-1.63.29-3.19.87-4.62.59-1.5,1.53-2.86,2.79-4.05,1.61-1.58,3.44-2.4,5.43-2.4.83,0,1.65.18,2.38.53.81.37,1.49.94,2.01,1.69l4.84,6.83c.44.61.77,1.19,1.01,1.78.27.63.41,1.27.41,1.87,0,.8-.22,1.57-.67,2.3-.32.57-.8,1.18-1.41,1.78l-1.43,1.48c.02.06.04.1.05.14.25.44.74,1.18,1.71,2.32,1.04,1.2,2.01,2.26,2.96,3.22,1.27,1.24,2.27,2.17,3.22,2.98,1.19,1,1.97,1.5,2.42,1.73l.06.03,1.45-1.43c.65-.65,1.27-1.13,1.89-1.45,1.13-.7,2.62-.83,4.08-.23.54.22,1.12.54,1.75.97l6.95,4.94c.76.52,1.33,1.2,1.68,1.98.32.81.47,1.53.47,2.27,0,1.01-.23,2.01-.67,2.95-.44.94-.99,1.76-1.68,2.52-1.19,1.32-2.5,2.25-4,2.87-1.45.6-3.03.91-4.68.91ZM11.58,5.64c-1.15,0-2.21.5-3.25,1.52-.94.89-1.62,1.87-2.04,2.95-.43,1.07-.65,2.23-.65,3.46,0,1.96.47,4.05,1.39,6.24.94,2.21,2.26,4.51,3.93,6.83,1.67,2.3,3.58,4.54,5.68,6.66,2.08,2.06,4.33,3.99,6.67,5.7,2.27,1.65,4.59,2.99,6.89,3.97,3.57,1.52,6.92,1.88,9.69.73,1.06-.44,2-1.11,2.87-2.07.48-.53.86-1.1,1.17-1.75.25-.52.37-1.06.37-1.61,0-.34-.07-.66-.22-1.05-.05-.11-.19-.35-.59-.63l-6.95-4.93c-.43-.29-.81-.5-1.15-.64-.45-.18-.63-.38-1.35.06-.41.22-.79.52-1.21.94l-1.6,1.58c-.81.8-2.05.98-3.03.63l-.57-.25c-.85-.45-1.85-1.16-2.98-2.12-1.02-.86-2.07-1.84-3.41-3.16-1.01-1.03-2.03-2.13-3.12-3.4-.99-1.17-1.7-2.16-2.14-2.96l-.26-.63c-.12-.45-.16-.73-.16-1.02,0-.75.27-1.43.8-1.95l1.57-1.63c.42-.42.74-.82.94-1.18.16-.27.23-.49.23-.71,0-.08-.02-.31-.17-.66-.16-.38-.37-.75-.67-1.17l-4.86-6.85c-.21-.3-.46-.5-.78-.65-.33-.16-.68-.24-1.04-.24Z"/>
      <path class="cls-1" d="m38.6,20.29c-.87,0-1.57-.7-1.57-1.57,0-.63-.63-2.18-2.03-3.68-1.21-1.3-2.6-2.08-3.73-2.08-.87,0-1.57-.7-1.57-1.57s.7-1.57,1.57-1.57c2.02,0,4.22,1.12,6.03,3.08,1.74,1.86,2.87,4.15,2.87,5.82,0,.87-.7,1.57-1.57,1.57Z"/>
      <path class="cls-1" d="m45.93,20.29c-.87,0-1.57-.7-1.57-1.57,0-7.21-5.87-13.08-13.08-13.08-.87,0-1.57-.7-1.57-1.57s.7-1.57,1.57-1.57c8.94,0,16.22,7.28,16.22,16.22,0,.87-.7,1.57-1.57,1.57Z"/>
    </g>
  </g>
  <g id="guias">
    <rect class="cls-2" x="47.5" y="47.5" width="2.5" height="2.5"/>
    <rect class="cls-2" x="47.5" width="2.5" height="2.5"/>
    <rect class="cls-2" y="47.5" width="2.5" height="2.5"/>
    <rect class="cls-2" width="2.5" height="2.5"/>
  </g>
</svg>