<?xml version="1.0" encoding="UTF-8"?>
<svg xmlns="http://www.w3.org/2000/svg" viewBox="0 0 50 50">
  <defs>
    <style>
      .cls-1 {
        fill: #2e3135;
        stroke-width: 0px;
      }

      .cls-2 {
        fill: none;
        stroke: #000;
        stroke-miterlimit: 10;
        stroke-width: .21px;
      }
    </style>
  </defs>
  <g id="iconos">
    <path class="cls-1" d="m36.44,47.5c-2.36,0-4.86-.56-7.44-1.66-2.52-1.07-5.05-2.52-7.51-4.32-2.46-1.79-4.83-3.82-7.05-6.01-2.22-2.24-4.23-4.6-6.01-7.04-1.81-2.52-3.25-5.02-4.28-7.45-1.08-2.57-1.63-5.08-1.63-7.46,0-1.63.29-3.19.87-4.62.59-1.5,1.53-2.87,2.79-4.05,1.6-1.58,3.44-2.4,5.43-2.4.83,0,1.65.18,2.38.53.81.37,1.5.95,2.01,1.69l4.85,6.83c.43.6.77,1.19,1.01,1.78.27.63.41,1.27.41,1.87,0,.8-.22,1.57-.67,2.3-.32.56-.8,1.17-1.4,1.78l-1.43,1.48c.02.06.04.1.06.14.25.44.74,1.17,1.71,2.32,1.03,1.19,2,2.24,2.96,3.22,1.26,1.24,2.26,2.16,3.22,2.98,1.18,1,1.97,1.5,2.42,1.74l.06.02,1.45-1.43c.65-.65,1.27-1.12,1.88-1.45,1.15-.7,2.61-.83,4.08-.23.55.22,1.12.54,1.75.97l6.95,4.94c.76.53,1.33,1.2,1.68,1.98.32.81.47,1.53.47,2.27,0,1.01-.23,2-.67,2.95-.44.93-.99,1.76-1.68,2.52-1.2,1.32-2.5,2.25-4,2.87-1.45.6-3.03.91-4.68.91ZM11.62,5.64c-1.15,0-2.22.5-3.25,1.52-.94.89-1.62,1.88-2.05,2.95-.43,1.07-.64,2.23-.64,3.46,0,1.96.47,4.06,1.38,6.23.94,2.21,2.26,4.51,3.93,6.83,1.68,2.3,3.59,4.54,5.68,6.66,2.1,2.07,4.35,4,6.68,5.7,2.27,1.65,4.59,2.99,6.89,3.97,3.58,1.53,6.93,1.88,9.69.73,1.06-.44,2-1.11,2.87-2.07.48-.53.86-1.1,1.17-1.75.25-.53.37-1.07.37-1.61,0-.34-.07-.67-.22-1.05-.05-.11-.19-.35-.59-.63l-6.94-4.93c-.42-.28-.81-.5-1.15-.64-.54-.22-.89-.22-1.36.06-.41.22-.79.52-1.21.94l-1.6,1.58c-.79.8-2.05.99-3.03.63l-.57-.26c-.85-.45-1.85-1.16-2.98-2.11-1.02-.87-2.08-1.84-3.41-3.16-1.03-1.04-2.04-2.15-3.12-3.4-.99-1.17-1.7-2.15-2.14-2.95l-.26-.62c-.13-.47-.16-.74-.16-1.03,0-.76.28-1.43.8-1.95l1.57-1.63c.42-.42.74-.82.94-1.17.17-.27.24-.5.24-.71,0-.17-.06-.41-.17-.66-.16-.38-.37-.75-.67-1.17l-4.86-6.85c-.21-.3-.46-.51-.78-.66-.32-.16-.67-.23-1.04-.23Zm17.43,25.7s0,0,0,0h0Z"/>
  </g>
  <g id="guias">
    <rect class="cls-2" x="47.5" y="47.5" width="2.5" height="2.5"/>
    <rect class="cls-2" x="47.5" width="2.5" height="2.5"/>
    <rect class="cls-2" y="47.5" width="2.5" height="2.5"/>
    <rect class="cls-2" width="2.5" height="2.5"/>
  </g>
</svg>