<?xml version="1.0" encoding="UTF-8"?>
<svg xmlns="http://www.w3.org/2000/svg" viewBox="0 0 50 50">
  <defs>
    <style>
      .cls-1 {
        fill: #2e3135;
        stroke-width: 0px;
      }

      .cls-2 {
        fill: none;
        stroke: #000;
        stroke-miterlimit: 10;
        stroke-width: .21px;
      }
    </style>
  </defs>
  <g id="iconos">
    <g>
      <path class="cls-1" d="m18.72,22.38h-6.28c-.87,0-1.57-.7-1.57-1.57s.7-1.57,1.57-1.57h6.28c.87,0,1.57.7,1.57,1.57s-.7,1.57-1.57,1.57Z"/>
      <path class="cls-1" d="m35.97,47.5H14.03c-.87,0-1.57-.7-1.57-1.57s.7-1.57,1.57-1.57h21.94c4.23,0,6.52-2.15,6.78-6.38l1.09-17.29c.09-1.49-.35-2.96-1.24-4.15-.52-.69-.38-1.68.31-2.2.69-.52,1.68-.38,2.2.31,1.34,1.79,2,4,1.86,6.23l-1.09,17.29c-.37,5.92-3.99,9.32-9.92,9.32Z"/>
      <path class="cls-1" d="m7.09,44.28c-.51,0-1.01-.25-1.31-.7-.97-1.47-1.53-3.28-1.66-5.4l-1.09-17.29c-.17-2.62.73-5.12,2.53-7.04,1.78-1.9,4.29-2.98,6.89-2.98.68,0,1.32-.4,1.64-1.02l1.49-3.01c1.23-2.44,4.32-4.35,7.04-4.35h4.79c2.7,0,5.78,1.9,7.01,4.34l1.51,3.05c.31.59.95.99,1.63.99.87,0,1.57.7,1.57,1.57s-.7,1.57-1.57,1.57c-1.86,0-3.56-1.04-4.43-2.71l-1.52-3.06c-.7-1.38-2.67-2.6-4.2-2.6h-4.79c-1.55,0-3.53,1.22-4.23,2.61l-1.5,3.03c-.88,1.7-2.58,2.73-4.44,2.73-1.76,0-3.4.71-4.6,1.99-1.2,1.28-1.8,2.95-1.68,4.69l1.09,17.29c.1,1.54.49,2.87,1.15,3.86.48.72.28,1.7-.44,2.17-.27.18-.57.26-.86.26Z"/>
      <path class="cls-1" d="m25,39.13c-1.86,0-3.69-.63-5.15-1.78-.68-.53-.8-1.52-.27-2.2.53-.68,1.51-.81,2.2-.27.92.72,2.06,1.11,3.22,1.11,2.89,0,5.23-2.35,5.23-5.23,0-1-.28-1.96-.8-2.77-.47-.73-.25-1.7.48-2.17.73-.47,1.7-.26,2.17.48.85,1.32,1.29,2.87,1.29,4.47,0,4.62-3.75,8.37-8.37,8.37Z"/>
      <path class="cls-1" d="m4.07,47.5c-.4,0-.8-.15-1.11-.46-.61-.61-.61-1.61,0-2.22L44.82,2.96c.61-.61,1.61-.61,2.22,0s.61,1.61,0,2.22L5.18,47.04c-.31.31-.71.46-1.11.46Z"/>
    </g>
  </g>
  <g id="guias">
    <rect class="cls-2" x="47.5" y="47.5" width="2.5" height="2.5"/>
    <rect class="cls-2" x="47.5" width="2.5" height="2.5"/>
    <rect class="cls-2" y="47.5" width="2.5" height="2.5"/>
    <rect class="cls-2" width="2.5" height="2.5"/>
  </g>
</svg>