<?xml version="1.0" encoding="UTF-8"?>
<svg xmlns="http://www.w3.org/2000/svg" viewBox="0 0 50 50">
  <defs>
    <style>
      .cls-1 {
        fill: #2e3135;
        stroke-width: 0px;
      }

      .cls-2 {
        fill: none;
        stroke: #000;
        stroke-miterlimit: 10;
        stroke-width: .21px;
      }
    </style>
  </defs>
  <g id="iconos">
    <g>
      <path class="cls-1" d="m35.97,47.5H14.03c-5.87,0-9.58-3.49-9.92-9.33l-1.09-17.28c-.17-2.62.73-5.11,2.52-7.03,1.78-1.9,4.29-2.98,6.89-2.98.68,0,1.32-.4,1.64-1.02l1.5-3.01c1.23-2.44,4.32-4.34,7.04-4.34h4.79c2.7,0,5.78,1.9,7.01,4.33l1.51,3.05c.31.59.95.99,1.63.99,2.6,0,5.11,1.09,6.89,2.98,1.8,1.92,2.7,4.42,2.53,7.04l-1.09,17.29c-.38,5.92-3.99,9.32-9.92,9.32ZM22.61,5.64c-1.55,0-3.53,1.22-4.23,2.61l-1.5,3.03c-.88,1.7-2.58,2.73-4.44,2.73-1.76,0-3.4.71-4.6,1.99-1.2,1.28-1.8,2.94-1.68,4.68l1.09,17.29c.25,4.23,2.53,6.38,6.78,6.38h21.93c4.23,0,6.52-2.15,6.78-6.38l1.09-17.29c.11-1.75-.48-3.41-1.68-4.69-1.2-1.28-2.84-1.99-4.6-1.99-1.87,0-3.56-1.04-4.43-2.71l-1.52-3.06c-.7-1.38-2.66-2.6-4.2-2.6h-4.79Z"/>
      <path class="cls-1" d="m28.14,18.2h-6.28c-.87,0-1.57-.7-1.57-1.57s.7-1.57,1.57-1.57h6.28c.87,0,1.57.7,1.57,1.57s-.7,1.57-1.57,1.57Z"/>
      <path class="cls-1" d="m25,39.13c-4.62,0-8.37-3.75-8.37-8.37s3.76-8.37,8.37-8.37,8.37,3.75,8.37,8.37-3.76,8.37-8.37,8.37Zm0-13.6c-2.89,0-5.23,2.35-5.23,5.23s2.35,5.23,5.23,5.23,5.23-2.35,5.23-5.23-2.35-5.23-5.23-5.23Z"/>
    </g>
  </g>
  <g id="guias">
    <rect class="cls-2" x="47.5" y="47.5" width="2.5" height="2.5"/>
    <rect class="cls-2" x="47.5" width="2.5" height="2.5"/>
    <rect class="cls-2" y="47.5" width="2.5" height="2.5"/>
    <rect class="cls-2" width="2.5" height="2.5"/>
  </g>
</svg>