<?xml version="1.0" encoding="UTF-8"?>
<svg xmlns="http://www.w3.org/2000/svg" viewBox="0 0 50 50">
  <defs>
    <style>
      .cls-1 {
        fill: #2e3135;
        stroke-width: 0px;
      }

      .cls-2 {
        fill: none;
        stroke: #000;
        stroke-miterlimit: 10;
        stroke-width: .21px;
      }
    </style>
  </defs>
  <g id="iconos">
    <g>
      <path class="cls-1" d="m13.49,47.5c-.87,0-1.57-.7-1.57-1.57v-14.65c0-.87.7-1.57,1.57-1.57s1.57.7,1.57,1.57v14.65c0,.87-.7,1.57-1.57,1.57Z"/>
      <path class="cls-1" d="m13.49,11.92c-.87,0-1.57-.7-1.57-1.57v-6.28c0-.87.7-1.57,1.57-1.57s1.57.7,1.57,1.57v6.28c0,.87-.7,1.57-1.57,1.57Z"/>
      <path class="cls-1" d="m36.51,47.5c-.87,0-1.57-.7-1.57-1.57v-6.28c0-.87.7-1.57,1.57-1.57s1.57.7,1.57,1.57v6.28c0,.87-.7,1.57-1.57,1.57Z"/>
      <path class="cls-1" d="m36.51,20.29c-.87,0-1.57-.7-1.57-1.57V4.07c0-.87.7-1.57,1.57-1.57s1.57.7,1.57,1.57v14.65c0,.87-.7,1.57-1.57,1.57Z"/>
      <path class="cls-1" d="m15.58,32.85h-4.19c-3.6,0-5.76-2.15-5.76-5.76v-12.56c0-3.6,2.15-5.76,5.76-5.76h4.19c3.6,0,5.76,2.15,5.76,5.76v12.56c0,3.6-2.15,5.76-5.76,5.76Zm-4.19-20.93c-1.86,0-2.62.76-2.62,2.62v12.56c0,1.86.76,2.62,2.62,2.62h4.19c1.86,0,2.62-.76,2.62-2.62v-12.56c0-1.86-.76-2.62-2.62-2.62h-4.19Z"/>
      <path class="cls-1" d="m38.6,41.22h-4.19c-3.6,0-5.76-2.15-5.76-5.76v-12.56c0-3.6,2.15-5.76,5.76-5.76h4.19c3.6,0,5.76,2.15,5.76,5.76v12.56c0,3.6-2.15,5.76-5.76,5.76Zm-4.19-20.93c-1.86,0-2.62.76-2.62,2.62v12.56c0,1.86.76,2.62,2.62,2.62h4.19c1.86,0,2.62-.76,2.62-2.62v-12.56c0-1.86-.76-2.62-2.62-2.62h-4.19Z"/>
    </g>
  </g>
  <g id="guias">
    <rect class="cls-2" x="47.5" y="47.5" width="2.5" height="2.5"/>
    <rect class="cls-2" x="47.5" width="2.5" height="2.5"/>
    <rect class="cls-2" y="47.5" width="2.5" height="2.5"/>
    <rect class="cls-2" width="2.5" height="2.5"/>
  </g>
</svg>