<?xml version="1.0" encoding="UTF-8"?>
<svg xmlns="http://www.w3.org/2000/svg" viewBox="0 0 50 50">
  <defs>
    <style>
      .cls-1 {
        fill: #2e3135;
        stroke-width: 0px;
      }

      .cls-2 {
        fill: none;
        stroke: #000;
        stroke-miterlimit: 10;
        stroke-width: .21px;
      }
    </style>
  </defs>
  <g id="iconos">
    <g>
      <path class="cls-1" d="m45.93,38.08h-14.65c-.87,0-1.57-.7-1.57-1.57s.7-1.57,1.57-1.57h14.65c.87,0,1.57.7,1.57,1.57s-.7,1.57-1.57,1.57Z"/>
      <path class="cls-1" d="m10.35,38.08h-6.28c-.87,0-1.57-.7-1.57-1.57s.7-1.57,1.57-1.57h6.28c.87,0,1.57.7,1.57,1.57s-.7,1.57-1.57,1.57Z"/>
      <path class="cls-1" d="m45.93,15.06h-6.28c-.87,0-1.57-.7-1.57-1.57s.7-1.57,1.57-1.57h6.28c.87,0,1.57.7,1.57,1.57s-.7,1.57-1.57,1.57Z"/>
      <path class="cls-1" d="m18.72,15.06H4.07c-.87,0-1.57-.7-1.57-1.57s.7-1.57,1.57-1.57h14.65c.87,0,1.57.7,1.57,1.57s-.7,1.57-1.57,1.57Z"/>
      <path class="cls-1" d="m27.09,44.36h-12.56c-3.6,0-5.76-2.15-5.76-5.76v-4.19c0-3.6,2.15-5.76,5.76-5.76h12.56c3.6,0,5.76,2.15,5.76,5.76v4.19c0,3.6-2.15,5.76-5.76,5.76Zm-12.56-12.56c-1.86,0-2.62.76-2.62,2.62v4.19c0,1.86.76,2.62,2.62,2.62h12.56c1.86,0,2.62-.76,2.62-2.62v-4.19c0-1.86-.76-2.62-2.62-2.62h-12.56Z"/>
      <path class="cls-1" d="m35.47,21.34h-12.56c-3.6,0-5.76-2.15-5.76-5.76v-4.19c0-3.6,2.15-5.76,5.76-5.76h12.56c3.6,0,5.76,2.15,5.76,5.76v4.19c0,3.6-2.15,5.76-5.76,5.76Zm-12.56-12.56c-1.86,0-2.62.76-2.62,2.62v4.19c0,1.86.76,2.62,2.62,2.62h12.56c1.86,0,2.62-.76,2.62-2.62v-4.19c0-1.86-.76-2.62-2.62-2.62h-12.56Z"/>
    </g>
  </g>
  <g id="guias">
    <rect class="cls-2" x="47.5" y="47.5" width="2.5" height="2.5"/>
    <rect class="cls-2" x="47.5" width="2.5" height="2.5"/>
    <rect class="cls-2" y="47.5" width="2.5" height="2.5"/>
    <rect class="cls-2" width="2.5" height="2.5"/>
  </g>
</svg>