<?xml version="1.0" encoding="UTF-8"?>
<svg id="iconos" xmlns="http://www.w3.org/2000/svg" viewBox="0 0 50 50">
  <defs>
    <style>
      .cls-1 {
        fill: #1e1f22;
        stroke-width: 0px;
      }
    </style>
  </defs>
  <g id="occiauto-miprimer-carro-icono">
    <g>
      <path class="cls-1" d="m38.76,20.02c-4.83,0-8.76-3.93-8.76-8.76s3.93-8.76,8.76-8.76c1.87,0,3.65.58,5.15,1.67.23.17.28.5.11.73-.17.24-.5.28-.73.11-1.32-.96-2.89-1.47-4.53-1.47-4.25,0-7.71,3.46-7.71,7.71s3.46,7.71,7.71,7.71,7.71-3.46,7.71-7.71c0-1.92-.71-3.75-1.99-5.17-.19-.21-.18-.55.04-.74s.54-.18.74.04c1.46,1.61,2.26,3.7,2.26,5.87,0,4.83-3.93,8.76-8.76,8.76Z"/>
      <path class="cls-1" d="m38.76,13.16c-1.05,0-1.9-.85-1.9-1.9s.85-1.9,1.9-1.9,1.9.85,1.9,1.9-.85,1.9-1.9,1.9Zm0-2.75c-.47,0-.85.38-.85.85s.38.85.85.85.85-.38.85-.85-.38-.85-.85-.85Z"/>
      <path class="cls-1" d="m41.62,17.27h-5.92c-.17,0-.31-.14-.31-.31v-2.71c0-.17.14-.31.31-.31h5.92c.17,0,.31.14.31.31v2.71c0,.17-.14.31-.31.31Zm-5.6-.63h5.29v-2.08h-5.29v2.08Z"/>
      <g>
        <path class="cls-1" d="m33.92,11.82h-1.94c-.29,0-.52-.24-.52-.52s.24-.52.52-.52h1.94c.29,0,.52.24.52.52s-.24.52-.52.52Z"/>
        <path class="cls-1" d="m45.39,11.82h-1.94c-.29,0-.52-.24-.52-.52s.24-.52.52-.52h1.94c.29,0,.52.24.52.52s-.24.52-.52.52Z"/>
      </g>
      <path class="cls-1" d="m34.27,10.03c-.07,0-.13-.01-.2-.04l-1.79-.73c-.27-.11-.4-.41-.29-.68.11-.27.42-.4.68-.29l1.79.73c.27.11.4.41.29.68-.08.2-.28.33-.48.33Z"/>
      <path class="cls-1" d="m35.35,8.41c-.13,0-.27-.05-.37-.16l-1.36-1.38c-.2-.21-.2-.54,0-.74.21-.2.54-.2.74,0l1.36,1.38c.2.21.2.54,0,.74-.1.1-.23.15-.37.15Z"/>
      <path class="cls-1" d="m36.98,7.37c-.21,0-.41-.13-.49-.34l-.69-1.81c-.1-.27.03-.57.3-.67.27-.11.57.03.67.3l.69,1.81c.1.27-.03.57-.3.67-.06.02-.12.03-.19.03Z"/>
      <path class="cls-1" d="m38.74,7.06h0c-.29,0-.52-.24-.52-.53l.02-1.94c0-.29.24-.52.52-.52h0c.29,0,.52.24.52.53l-.02,1.94c0,.29-.24.52-.52.52Z"/>
      <path class="cls-1" d="m40.45,7.4c-.07,0-.13-.01-.19-.04-.27-.11-.4-.41-.29-.68l.72-1.8c.11-.27.42-.39.68-.29.27.11.4.41.29.68l-.72,1.8c-.08.2-.28.33-.49.33Z"/>
      <path class="cls-1" d="m41.93,8.34c-.13,0-.26-.05-.36-.14-.21-.2-.22-.53-.02-.74l1.32-1.42c.2-.21.53-.22.74-.02.21.2.22.53.02.74l-1.32,1.42c-.1.11-.24.17-.38.17Z"/>
      <path class="cls-1" d="m43.08,9.99c-.2,0-.4-.12-.48-.32-.11-.27.01-.57.28-.68l1.79-.74c.27-.11.57.01.68.28.11.27-.01.57-.28.68l-1.79.74c-.07.03-.13.04-.2.04Z"/>
      <g>
        <path class="cls-1" d="m37.58,15.59c0,.38-.17.49-.46.49s-.46-.11-.46-.49c0-.42.17-.53.46-.53s.46.12.46.54Zm-.69,0c0,.3.08.36.23.36s.23-.06.23-.36c0-.33-.08-.4-.23-.4s-.23.07-.23.4Z"/>
        <path class="cls-1" d="m39.27,15.01l-.43.53.46.53h-.27l-.37-.44h-.1v.44h-.23v-1.06h.23v.44h.1l.35-.44h.26Z"/>
        <path class="cls-1" d="m39.39,15.37c.13-.05.26-.08.38-.08.09,0,.17.02.22.05.11-.04.2-.05.29-.05.3,0,.37.13.37.38v.39h-.23v-.39c0-.19-.03-.25-.14-.25-.07,0-.12,0-.19.03.03.06.04.13.04.22v.39h-.23v-.39c0-.19-.03-.25-.14-.25-.06,0-.11.01-.15.02v.62h-.23v-.69Z"/>
      </g>
      <path class="cls-1" d="m33.4,14c-.21,0-.4-.12-.48-.33-.11-.27.02-.57.29-.68l5.4-2.18c.27-.11.57.02.68.29.11.27-.02.57-.29.68l-5.4,2.18c-.07.03-.13.04-.2.04Z"/>
    </g>
  </g>
  <g>
    <path class="cls-1" d="m9.02,47.5h-3.37c-1.23,0-2.23-1-2.23-2.22v-5.47c0-.29.24-.52.52-.52s.52.24.52.52v5.47c0,.65.53,1.18,1.18,1.18h3.37c.65,0,1.18-.53,1.18-1.18v-2.27c0-.29.24-.52.52-.52s.52.24.52.52v2.27c0,1.23-1,2.22-2.23,2.22Z"/>
    <path class="cls-1" d="m39.77,40.33c-.12,0-.24-.04-.34-.12-.22-.19-.25-.52-.06-.74.53-.62.82-1.42.82-2.23v-4.76c0-.84-.31-1.65-.86-2.27l-2.45-2.39c-.21-.2-.21-.53,0-.74s.53-.21.74,0l2.47,2.42c.75.85,1.15,1.9,1.15,3v4.76c0,1.06-.38,2.09-1.07,2.91-.1.12-.25.18-.4.18Z"/>
    <path class="cls-1" d="m35.74,43.53H7.98c-.29,0-.52-.24-.52-.52s.24-.52.52-.52h27.76c.29,0,.52.24.52.52s-.24.52-.52.52Z"/>
    <path class="cls-1" d="m3.95,40.33c-.15,0-.29-.06-.4-.18-.69-.81-1.07-1.84-1.07-2.91v-4.76c0-1.1.4-2.15,1.13-2.97l2.5-2.44c.21-.2.54-.2.74,0s.2.54,0,.74l-2.47,2.42c-.53.6-.84,1.41-.84,2.25v4.76c0,.82.29,1.61.82,2.23.19.22.16.55-.06.74-.1.08-.22.12-.34.12Z"/>
    <path class="cls-1" d="m21.86,29.07c-.16,0-15.91-.1-15.91-1.62,0-.39.48-.63.79-.45.56.17,5.27,1.03,15.12,1.03s14.55-.86,15.12-1.03c.3-.19.79.06.79.45,0,1.53-15.75,1.62-15.91,1.62Z"/>
    <path class="cls-1" d="m26.81,37.98h-9.91c-.29,0-.52-.24-.52-.52s.24-.52.52-.52h9.91c.29,0,.52.24.52.52s-.24.52-.52.52Z"/>
    <path class="cls-1" d="m38.07,47.5h-3.37c-1.23,0-2.22-1-2.22-2.22v-2.27c0-.29.24-.52.52-.52s.52.24.52.52v2.27c0,.65.53,1.18,1.18,1.18h3.37c.65,0,1.18-.53,1.18-1.18v-5.47c0-.29.24-.52.52-.52s.52.24.52.52v5.47c0,1.23-1,2.22-2.22,2.22Z"/>
    <path class="cls-1" d="m11.24,36.32c-1.37,0-3.61-.21-4.94-2.44-.15-.25-.07-.57.18-.72.25-.15.57-.07.72.18,1.19,1.99,3.34,1.95,4.49,1.92h.31c.29,0,.52.23.52.52s-.24.52-.52.52h-.29c-.14,0-.3.01-.47.01Z"/>
    <path class="cls-1" d="m32.48,36.32c-.17,0-.33,0-.47,0h-.29c-.29,0-.52-.24-.52-.53s.24-.52.52-.52h.31c1.15.03,3.3.07,4.49-1.92.15-.25.47-.33.72-.18.25.15.33.47.18.72-1.33,2.23-3.57,2.44-4.94,2.44Z"/>
    <path class="cls-1" d="m5.94,28.49c-.08,0-.16-.02-.24-.06l-2.53-1.31c-.26-.13-.36-.45-.22-.71.13-.26.45-.36.71-.22l2.53,1.31c.26.13.36.45.22.71-.09.18-.28.28-.46.28Z"/>
    <path class="cls-1" d="m37.78,28.49c-.19,0-.37-.1-.46-.28-.13-.26-.03-.57.22-.71l2.53-1.31c.26-.13.57-.03.71.22.13.26.03.57-.22.71l-2.53,1.31c-.08.04-.16.06-.24.06Z"/>
    <path class="cls-1" d="m37.25,27.97c-.19,0-.38-.11-.47-.29l-2.94-6.04c-.45-.87-1.24-1.41-2.48-1.69-2.21-.5-6.06-.54-9.5-.54s-7.28.04-9.5.54c-1.24.28-2.03.82-2.49,1.7l-2.94,6.03c-.13.26-.45.37-.7.24-.26-.13-.37-.44-.24-.7l2.94-6.04c.61-1.18,1.65-1.91,3.19-2.26,2.32-.52,6.23-.56,9.72-.56s7.41.04,9.72.56c1.54.35,2.58,1.08,3.18,2.24l2.95,6.05c.13.26.02.57-.24.7-.07.04-.15.05-.23.05Z"/>
  </g>
</svg>