<?xml version="1.0" encoding="UTF-8"?>
<svg xmlns="http://www.w3.org/2000/svg" viewBox="0 0 50 50">
  <defs>
    <style>
      .cls-1 {
        fill: none;
        stroke: #000;
        stroke-miterlimit: 10;
        stroke-width: .21px;
      }

      .cls-2 {
        fill: #1e1f22;
        stroke-width: 0px;
      }
    </style>
  </defs>
  <g id="iconos">
    <g>
      <g>
        <g>
          <path class="cls-2" d="m10.04,41.9h-3.92c-1.38,0-2.51-1.13-2.51-2.51v-6.37c0-.29.24-.53.53-.53s.53.24.53.53v6.37c0,.8.65,1.46,1.46,1.46h3.92c.8,0,1.46-.65,1.46-1.46v-2.64c0-.29.24-.53.53-.53s.53.24.53.53v2.64c0,1.38-1.13,2.51-2.51,2.51Z"/>
          <path class="cls-2" d="m45.87,33.55c-.12,0-.24-.04-.34-.13-.22-.19-.25-.52-.06-.74.63-.74.98-1.68.98-2.65v-5.54c0-1-.36-1.96-1.03-2.71l-2.86-2.79c-.21-.2-.21-.54,0-.75.2-.21.54-.21.75,0l2.88,2.82c.86.97,1.32,2.18,1.32,3.44v5.54c0,1.22-.44,2.41-1.23,3.33-.11.12-.25.19-.4.19Z"/>
          <path class="cls-2" d="m41.17,37.27H8.83c-.29,0-.53-.24-.53-.53s.24-.53.53-.53h32.34c.29,0,.53.24.53.53s-.24.53-.53.53Z"/>
          <path class="cls-2" d="m4.13,33.55c-.15,0-.3-.06-.4-.19-.79-.93-1.23-2.11-1.23-3.33v-5.54c0-1.26.46-2.47,1.3-3.41l2.91-2.84c.21-.2.54-.2.75,0,.2.21.2.54,0,.75l-2.88,2.82c-.64.72-1,1.68-1,2.68v5.54c0,.97.35,1.91.98,2.65.19.22.16.55-.06.74-.1.08-.22.13-.34.13Z"/>
          <path class="cls-2" d="m29.33,31.53h-8.67c-.29,0-.53-.24-.53-.53s.24-.53.53-.53h8.67c.29,0,.53.24.53.53s-.24.53-.53.53Z"/>
          <path class="cls-2" d="m43.88,41.9h-3.92c-1.38,0-2.51-1.13-2.51-2.51v-2.64c0-.29.24-.53.53-.53s.53.24.53.53v2.64c0,.8.65,1.46,1.46,1.46h3.92c.8,0,1.45-.65,1.45-1.46v-6.37c0-.29.24-.53.53-.53s.53.24.53.53v6.37c0,1.38-1.13,2.51-2.51,2.51Z"/>
          <path class="cls-2" d="m42.93,19.14c-.2,0-.38-.11-.47-.3l-3.43-7.04c-.53-1.03-1.5-1.69-2.95-2.02-2.47-.56-6.79-.63-11.08-.63s-8.61.08-11.08.63c-1.44.32-2.41.99-2.95,2.03l-3.42,7.02c-.13.26-.45.37-.7.24-.26-.13-.37-.44-.24-.7l3.43-7.04c.7-1.35,1.89-2.19,3.66-2.58,2.7-.61,7.25-.66,11.31-.66s8.61.05,11.31.66c1.77.4,2.96,1.24,3.66,2.57l3.43,7.05c.13.26.02.58-.24.7-.07.04-.15.05-.23.05Z"/>
          <path class="cls-2" d="m35.87,27.64c-.29,0-.53-.24-.53-.53,0-1.75,1.42-3.17,3.17-3.17h4.03c.29,0,.53.24.53.53s-.24.53-.53.53h-4.03c-1.16,0-2.11.95-2.11,2.11,0,.29-.24.53-.53.53Z"/>
          <path class="cls-2" d="m25,18.77c-4.4,0-7.72-.13-9.73-.23-3.98-.21-3.98-.22-3.98-.8,0-.1.03-.2.08-.28.01-.02,1.35-2.19,1.98-4.79.06-.24.27-.4.51-.4h22.28c.24,0,.46.17.51.4.63,2.6,1.96,4.77,1.98,4.79.05.08.08.18.08.28,0,.58,0,.59-3.98.8-2.01.11-5.33.23-9.73.23Zm-12.33-1.46c1.68.14,6.08.4,12.33.4s10.65-.26,12.33-.4c-.44-.82-1.14-2.28-1.6-3.98H14.27c-.46,1.7-1.16,3.16-1.6,3.98Z"/>
          <path class="cls-2" d="m14.13,27.64c-.29,0-.53-.24-.53-.53,0-1.16-.95-2.11-2.11-2.11h-4.03c-.29,0-.53-.24-.53-.53s.24-.53.53-.53h4.03c1.75,0,3.17,1.42,3.17,3.17,0,.29-.24.53-.53.53Z"/>
        </g>
        <path class="cls-2" d="m44.72,19.14h-.84c-1.03,0-1.87-.84-1.87-1.87s.84-1.87,1.87-1.87h.84c1.03,0,1.87.84,1.87,1.87s-.84,1.87-1.87,1.87Zm-.84-2.68c-.45,0-.81.36-.81.81s.36.81.81.81h.84c.45,0,.81-.36.81-.81s-.36-.81-.81-.81h-.84Z"/>
      </g>
      <path class="cls-2" d="m6.02,19.08h-.85c-1.04,0-1.88-.84-1.88-1.88s.84-1.88,1.88-1.88h.85c1.04,0,1.88.85,1.88,1.88s-.85,1.88-1.88,1.88Zm-.85-2.71c-.46,0-.82.37-.82.83s.37.82.82.82h.85c.46,0,.83-.37.83-.82s-.37-.83-.83-.83h-.85Z"/>
    </g>
  </g>
  <g id="guias">
    <rect class="cls-1" x="47.5" y="47.5" width="2.5" height="2.5"/>
    <rect class="cls-1" x="47.5" width="2.5" height="2.5"/>
    <rect class="cls-1" y="47.5" width="2.5" height="2.5"/>
    <rect class="cls-1" width="2.5" height="2.5"/>
  </g>
</svg>