<?xml version="1.0" encoding="UTF-8"?>
<svg xmlns="http://www.w3.org/2000/svg" viewBox="0 0 50 50">
  <defs>
    <style>
      .cls-1 {
        fill: none;
        stroke: #000;
        stroke-miterlimit: 10;
        stroke-width: .21px;
      }

      .cls-2 {
        fill: #1e1f22;
        stroke-width: 0px;
      }
    </style>
  </defs>
  <g id="iconos">
    <g>
      <path class="cls-2" d="m10.04,41.9h-3.93c-1.38,0-2.51-1.12-2.51-2.51v-6.37c0-.29.24-.52.52-.52s.52.24.52.52v6.37c0,.81.65,1.46,1.46,1.46h3.93c.81,0,1.46-.65,1.46-1.46v-2.64c0-.29.24-.52.52-.52s.52.24.52.52v2.64c0,1.38-1.12,2.51-2.51,2.51Z"/>
      <path class="cls-2" d="m45.87,33.54c-.12,0-.24-.04-.34-.12-.22-.19-.25-.52-.06-.74.63-.74.98-1.68.98-2.65v-5.54c0-1-.37-1.96-1.03-2.71l-2.85-2.79c-.21-.2-.21-.53,0-.74.2-.21.53-.21.74,0l2.88,2.82c.86.97,1.32,2.18,1.32,3.43v5.54c0,1.22-.44,2.4-1.23,3.33-.1.12-.25.18-.4.18Z"/>
      <path class="cls-2" d="m41.18,37.27H8.82c-.29,0-.52-.24-.52-.52s.24-.52.52-.52h32.35c.29,0,.52.24.52.52s-.24.52-.52.52Z"/>
      <path class="cls-2" d="m4.13,33.54c-.15,0-.29-.06-.4-.18-.79-.93-1.23-2.11-1.23-3.33v-5.54c0-1.26.46-2.47,1.3-3.41l2.91-2.84c.21-.2.54-.2.74,0,.2.21.2.54,0,.74l-2.88,2.82c-.64.72-1.01,1.68-1.01,2.69v5.54c0,.97.35,1.91.98,2.65.19.22.16.55-.06.74-.1.08-.22.12-.34.12Z"/>
      <path class="cls-2" d="m25,20.41c-5.78,0-18.46-.45-18.46-1.8,0-.39.49-.64.8-.44.63.19,6.07,1.2,17.66,1.2s17.03-1.01,17.66-1.2c.3-.2.8.05.8.44,0,1.35-12.67,1.8-18.46,1.8Z"/>
      <path class="cls-2" d="m30.78,30.8h-11.55c-.29,0-.52-.24-.52-.52s.24-.52.52-.52h11.55c.29,0,.52.24.52.52s-.24.52-.52.52Z"/>
      <path class="cls-2" d="m43.89,41.9h-3.93c-1.38,0-2.51-1.12-2.51-2.51v-2.64c0-.29.24-.52.52-.52s.52.24.52.52v2.64c0,.81.65,1.46,1.46,1.46h3.93c.81,0,1.46-.65,1.46-1.46v-6.37c0-.29.24-.52.52-.52s.52.24.52.52v6.37c0,1.38-1.12,2.51-2.51,2.51Z"/>
      <path class="cls-2" d="m12.63,28.87c-1.58,0-4.16-.24-5.69-2.8-.15-.25-.07-.57.18-.72.24-.15.57-.07.72.18,1.41,2.37,3.95,2.32,5.31,2.28h.36c.29,0,.52.23.52.52s-.24.52-.52.52h-.34c-.16,0-.34.01-.54.01Z"/>
      <path class="cls-2" d="m37.37,28.87c-.2,0-.38,0-.54,0h-.34c-.29,0-.52-.24-.52-.53s.24-.52.52-.52h.36c1.36.04,3.9.08,5.31-2.28.15-.25.47-.33.72-.18.25.15.33.47.18.72-1.53,2.57-4.11,2.8-5.69,2.8Z"/>
      <path class="cls-2" d="m6.44,19.74c-.08,0-.16-.02-.24-.06l-2.94-1.53c-.26-.13-.36-.45-.22-.71s.45-.36.71-.22l2.94,1.53c.26.13.36.45.22.71-.09.18-.28.28-.46.28Z"/>
      <path class="cls-2" d="m43.56,19.74c-.19,0-.37-.1-.46-.28-.13-.26-.03-.57.22-.71l2.94-1.53c.26-.13.57-.03.71.22.13.26.03.57-.22.71l-2.94,1.53c-.08.04-.16.06-.24.06Z"/>
      <path class="cls-2" d="m42.93,19.13c-.19,0-.38-.11-.47-.29l-3.43-7.04c-.54-1.05-1.48-1.69-2.95-2.02-2.47-.56-6.79-.63-11.08-.63s-8.61.08-11.08.63c-1.47.33-2.41.97-2.96,2.03l-3.42,7.02c-.13.26-.44.37-.7.24-.26-.13-.37-.44-.24-.7l3.43-7.04c.7-1.35,1.89-2.19,3.66-2.59,2.7-.6,7.25-.66,11.31-.66s8.62.05,11.31.66c1.77.4,2.96,1.24,3.66,2.57l3.43,7.05c.13.26.02.57-.24.7-.07.04-.15.05-.23.05Z"/>
    </g>
  </g>
  <g id="guias">
    <rect class="cls-1" x="47.5" y="47.5" width="2.5" height="2.5"/>
    <rect class="cls-1" x="47.5" width="2.5" height="2.5"/>
    <rect class="cls-1" y="47.5" width="2.5" height="2.5"/>
    <rect class="cls-1" width="2.5" height="2.5"/>
  </g>
</svg>