<?xml version="1.0" encoding="UTF-8"?>
<svg id="iconos" xmlns="http://www.w3.org/2000/svg" viewBox="0 0 50 50">
  <defs>
    <style>
      .cls-1 {
        fill: #1e1f22;
        stroke-width: 0px;
      }
    </style>
  </defs>
  <g>
    <path class="cls-1" d="m8.65,47.5h-3.15c-1.17,0-2.11-.95-2.11-2.11v-5.11c0-.29.24-.52.52-.52s.52.24.52.52v5.11c0,.59.48,1.07,1.07,1.07h3.15c.59,0,1.07-.48,1.07-1.07v-2.12c0-.29.24-.52.52-.52s.52.24.52.52v2.12c0,1.17-.95,2.11-2.11,2.11Z"/>
    <path class="cls-1" d="m37.37,40.8c-.12,0-.24-.04-.34-.12-.22-.19-.25-.52-.06-.74.49-.57.76-1.31.76-2.06v-4.44c0-.78-.28-1.52-.8-2.1l-2.29-2.23c-.21-.2-.21-.53,0-.74.2-.21.53-.21.74,0l2.31,2.26c.71.8,1.09,1.79,1.09,2.83v4.44c0,1-.36,1.98-1.01,2.74-.1.12-.25.18-.4.18Z"/>
    <path class="cls-1" d="m33.6,43.79H7.67c-.29,0-.52-.24-.52-.52s.24-.52.52-.52h25.93c.29,0,.52.24.52.52s-.24.52-.52.52Z"/>
    <path class="cls-1" d="m3.91,40.8c-.15,0-.29-.06-.4-.18-.65-.76-1.01-1.74-1.01-2.74v-4.44c0-1.03.38-2.03,1.06-2.8l2.34-2.29c.21-.2.54-.2.74,0,.2.21.2.54,0,.74l-2.31,2.26c-.49.55-.77,1.3-.77,2.08v4.44c0,.75.27,1.49.76,2.06.19.22.16.55-.06.74-.1.08-.22.12-.34.12Z"/>
    <path class="cls-1" d="m20.64,30.27c-.15,0-14.9-.07-14.9-1.55,0-.38.47-.63.79-.45.54.16,4.96.96,14.11.96s13.57-.8,14.11-.96c.31-.18.79.07.79.45,0,1.48-14.75,1.55-14.9,1.55Z"/>
    <path class="cls-1" d="m25.27,38.6h-9.26c-.29,0-.52-.24-.52-.52s.24-.52.52-.52h9.26c.29,0,.52.24.52.52s-.24.52-.52.52Z"/>
    <path class="cls-1" d="m35.78,47.5h-3.15c-1.17,0-2.11-.95-2.11-2.11v-2.12c0-.29.24-.52.52-.52s.52.24.52.52v2.12c0,.59.48,1.07,1.07,1.07h3.15c.59,0,1.07-.48,1.07-1.07v-5.11c0-.29.24-.52.52-.52s.52.24.52.52v5.11c0,1.17-.95,2.11-2.11,2.11Z"/>
    <path class="cls-1" d="m10.72,37.05c-1.29,0-3.39-.19-4.64-2.3-.15-.25-.07-.57.18-.72.24-.15.57-.07.72.18,1.1,1.84,3.1,1.81,4.16,1.78h.29c.29,0,.52.23.52.52s-.24.52-.52.52h-.27c-.13,0-.28.01-.44.01Z"/>
    <path class="cls-1" d="m30.56,37.05c-.16,0-.31,0-.44,0h-.27c-.29,0-.52-.24-.52-.53s.24-.52.52-.52h.29c1.07.03,3.06.07,4.16-1.78.15-.25.47-.33.72-.18.25.15.33.47.18.72-1.25,2.1-3.35,2.3-4.64,2.3Z"/>
    <path class="cls-1" d="m5.76,29.74c-.08,0-.16-.02-.24-.06l-2.36-1.22c-.26-.13-.36-.45-.22-.71s.45-.36.71-.22l2.36,1.22c.26.13.36.45.22.71-.09.18-.28.28-.46.28Z"/>
    <path class="cls-1" d="m35.52,29.74c-.19,0-.37-.1-.46-.28-.13-.26-.03-.57.22-.71l2.36-1.22c.26-.13.57-.03.71.22s.03.57-.22.71l-2.36,1.22c-.08.04-.16.06-.24.06Z"/>
    <path class="cls-1" d="m35.01,29.25c-.19,0-.38-.11-.47-.29l-2.75-5.64c-.42-.81-1.15-1.31-2.29-1.56-1.97-.44-5.43-.5-8.86-.5s-6.89.06-8.86.5c-1.14.26-1.87.76-2.3,1.58l-2.74,5.63c-.13.26-.44.37-.7.24-.26-.13-.37-.44-.24-.7l2.75-5.64c.58-1.11,1.56-1.8,3.01-2.13,2.18-.49,5.83-.53,9.09-.53s6.92.04,9.09.53c1.45.33,2.43,1.02,3,2.12l2.75,5.65c.13.26.02.57-.24.7-.07.04-.15.05-.23.05Z"/>
  </g>
  <g>
    <path class="cls-1" d="m40.64,19.1c-.21,0-.42-.08-.57-.24l-.78-.77c-.15-.15-.24-.36-.24-.58v-.82c0-.14.06-.28.16-.37-.1-.1-.16-.23-.16-.37v-.52c0-.14.06-.28.16-.38h0c-.11-.1-.17-.24-.17-.38v-.51c0-.15.06-.29.17-.38h.01s-.01-.02-.01-.02c-.1-.1-.16-.24-.16-.38v-1.72c-1.12-.58-1.82-1.73-1.82-3.02,0-1.88,1.53-3.41,3.4-3.41s3.41,1.53,3.41,3.41c0,1.26-.72,2.43-1.83,3.02v.93c0,.13-.05.26-.14.35l-.08.09.1.12c.08.09.12.21.12.33v4.03c0,.21-.08.41-.23.56l-.76.78c-.15.15-.35.24-.56.25h-.02Zm-.17-.98h0Zm.34,0h0,0Zm-.71-.7l.54.54.52-.53v-3.75l-.27-.33c-.16-.2-.16-.49.02-.68l.25-.28v-1.07c0-.21.13-.41.33-.49.9-.36,1.5-1.24,1.5-2.2,0-1.3-1.06-2.36-2.36-2.36s-2.35,1.06-2.35,2.36c0,.98.58,1.84,1.49,2.19.2.08.33.27.33.49v1.83l.26.24c.1.1.16.24.16.38s-.06.28-.17.38l-.25.27.24.2c.11.1.18.24.18.38,0,.15-.05.29-.16.39l-.26.3.23.18c.12.09.19.24.19.38s-.05.29-.16.4l-.26.25v.5Z"/>
    <path class="cls-1" d="m33.34,17.79c-.14,0-.28-.04-.41-.11-.18-.1-.31-.27-.37-.48l-.29-1.06c-.06-.21-.03-.43.08-.62l.41-.71c.07-.12.19-.21.33-.25-.04-.13-.02-.28.05-.4l.26-.45c.07-.12.19-.21.33-.25h.01c-.04-.14-.02-.29.05-.42l.26-.44c.07-.13.19-.22.34-.25h.01s0-.02,0-.02c-.04-.14-.02-.28.05-.41l.86-1.49c-.68-1.06-.71-2.41-.07-3.52.49-.85,1.33-1.45,2.3-1.64.28-.06.56.13.61.41s-.13.56-.41.61c-.67.13-1.26.55-1.59,1.14-.49.85-.41,1.88.19,2.64.13.17.15.4.04.59l-.92,1.59.1.34c.04.14.02.29-.05.41s-.19.21-.34.25l-.35.11.1.29c.05.14.04.29-.03.42-.07.13-.19.22-.33.26l-.38.13.1.27c.05.14.04.3-.02.43-.07.13-.19.23-.34.27l-.35.09-.25.43.2.74.72-.2,1.87-3.24-.07-.42c-.04-.26.11-.5.36-.58l.36-.11.42-.74c.15-.25.47-.34.72-.19.25.15.34.46.19.72l-.53.91c-.07.11-.17.2-.29.24l-.12.04.03.16c.02.12,0,.24-.06.34l-2.01,3.49c-.11.19-.29.33-.5.38l-1.02.29c-.07.02-.15.03-.22.03Zm.97-1.33s0,0-.01,0h.01Zm-1.03-.61h0s0,0,0,0Z"/>
    <path class="cls-1" d="m41.43,14.12c-.29,0-.53-.24-.53-.52s.23-.52.52-.52h.01c.29,0,.52.24.52.52s-.24.52-.52.52Z"/>
    <path class="cls-1" d="m43.52,10.47c-.29,0-.52-.24-.52-.52s.24-.52.52-.52c1.62,0,2.94-1.32,2.94-2.94s-1.32-2.94-2.94-2.94-2.94,1.32-2.94,2.94c0,.49.12.98.35,1.4.14.25.04.57-.21.71-.26.14-.57.04-.71-.21-.31-.58-.48-1.24-.48-1.9,0-2.2,1.79-3.98,3.98-3.98s3.98,1.79,3.98,3.98-1.79,3.98-3.98,3.98Z"/>
  </g>
</svg>