<?xml version="1.0" encoding="UTF-8"?>
<svg xmlns="http://www.w3.org/2000/svg" viewBox="0 0 50 50">
  <defs>
    <style>
      .cls-1 {
        fill: #2e3135;
        stroke-width: 0px;
      }

      .cls-2 {
        fill: none;
        stroke: #000;
        stroke-miterlimit: 10;
        stroke-width: .21px;
      }
    </style>
  </defs>
  <g id="iconos">
    <g>
      <path class="cls-1" d="m47.48,40.36l-1.17-12.75c-.22-2.33-.71-4.76-3.06-6.1l-.87-4.18h1.47c.87,0,1.57-.7,1.57-1.57s-.7-1.57-1.57-1.57h-2.09s-.02,0-.03,0l-.79-3.8c-.77-3.65-2.34-7.03-8.57-7.03h-14.7c-6.23,0-7.8,3.38-8.57,7.03l-.79,3.8s-.02,0-.03,0h-2.09c-.87,0-1.57.7-1.57,1.57s.7,1.57,1.57,1.57h1.47l-.87,4.18c-2.35,1.34-2.85,3.77-3.06,6.1l-1.17,12.74c-.15,1.59.39,3.18,1.47,4.37,1.11,1.21,2.69,1.91,4.35,1.91h3.94c3.39,0,4.03-1.94,4.46-3.23l.42-1.26c.48-1.45.6-1.79,2.49-1.79h10.72c1.88,0,1.95.2,2.49,1.79l.42,1.27c.43,1.28,1.07,3.22,4.46,3.22h3.94c1.66,0,3.24-.7,4.35-1.91,1.08-1.19,1.61-2.78,1.47-4.37ZM10.19,20.47l1.97-9.43c.58-2.74,1.27-4.53,5.5-4.53h5.78v1.4h-1.57c-.87,0-1.57.7-1.57,1.57s.7,1.57,1.57,1.57h6.28c.87,0,1.57-.7,1.57-1.57s-.7-1.57-1.57-1.57h-1.57v-1.4h5.78c4.23,0,4.92,1.79,5.5,4.53l1.97,9.43H10.19Zm33.5,22.14c-.51.56-1.25.89-2.02.89h-3.94c-1.12,0-1.13-.02-1.48-1.08l-.43-1.29c-.76-2.21-1.64-3.9-5.45-3.9h-10.72c-4.15,0-4.91,2.28-5.47,3.94l-.42,1.27c-.35,1.05-.36,1.07-1.48,1.07h-3.94c-.77,0-1.51-.32-2.02-.89-.5-.54-.73-1.24-.66-1.97l1.17-12.75c.26-2.82.6-4.29,4.82-4.29h26.71c4.22,0,4.56,1.47,4.82,4.29l1.17,12.75s0,0,0,0c.07.72-.17,1.42-.66,1.96Z"/>
      <path class="cls-1" d="m18.72,28.84h-6.28c-.87,0-1.57.7-1.57,1.57s.7,1.57,1.57,1.57h6.28c.87,0,1.57-.7,1.57-1.57s-.7-1.57-1.57-1.57Z"/>
      <path class="cls-1" d="m37.56,28.84h-6.28c-.87,0-1.57.7-1.57,1.57s.7,1.57,1.57,1.57h6.28c.87,0,1.57-.7,1.57-1.57s-.7-1.57-1.57-1.57Z"/>
    </g>
  </g>
  <g id="guias">
    <rect class="cls-2" x="47.5" y="47.5" width="2.5" height="2.5"/>
    <rect class="cls-2" x="47.5" width="2.5" height="2.5"/>
    <rect class="cls-2" y="47.5" width="2.5" height="2.5"/>
    <rect class="cls-2" width="2.5" height="2.5"/>
  </g>
</svg>