<?xml version="1.0" encoding="UTF-8"?>
<svg xmlns="http://www.w3.org/2000/svg" viewBox="0 0 50 50">
  <defs>
    <style>
      .cls-1 {
        fill: #2e3135;
        stroke-width: 0px;
      }

      .cls-2 {
        fill: none;
        stroke: #000;
        stroke-miterlimit: 10;
        stroke-width: .21px;
      }
    </style>
  </defs>
  <g id="iconos">
    <g>
      <path class="cls-1" d="m8.11,34.69c-.4,0-.8-.15-1.11-.46-.61-.61-.61-1.61,0-2.22L32.01,7c.61-.61,1.61-.61,2.22,0s.61,1.61,0,2.22l-25.01,25.01c-.31.31-.71.46-1.11.46Z"/>
      <path class="cls-1" d="m23.12,39.71c-.4,0-.8-.15-1.11-.46-.61-.61-.61-1.61,0-2.22l2.51-2.51c.61-.61,1.61-.61,2.22,0s.61,1.61,0,2.22l-2.51,2.51c-.31.31-.71.46-1.11.46Z"/>
      <path class="cls-1" d="m28.75,34.08c-.4,0-.8-.15-1.11-.46-.61-.61-.61-1.61,0-2.22l5-5c.61-.61,1.61-.62,2.22,0,.61.61.61,1.61,0,2.22l-5,5c-.31.31-.71.46-1.11.46Z"/>
      <path class="cls-1" d="m23.12,47.49c-2.05,0-4.1-1.25-6.59-3.74l-10.28-10.28c-1.95-1.95-3.76-4.11-3.75-6.62.01-2.51,1.84-4.68,3.81-6.65l13.9-13.9c1.97-1.97,4.13-3.79,6.64-3.8h.03c2.51,0,4.65,1.8,6.6,3.74l10.28,10.28c5,5,4.99,8.22-.06,13.27l-13.9,13.9c-2.53,2.53-4.61,3.8-6.68,3.8Zm3.76-41.85h-.01c-1.08,0-2.45.9-4.44,2.88l-13.9,13.9c-1.99,1.99-2.89,3.37-2.89,4.45,0,1.09.84,2.4,2.83,4.38l10.28,10.28c3.77,3.77,5.01,3.76,8.83-.06l13.9-13.9c3.82-3.82,3.83-5.06.06-8.83l-10.28-10.28c-1.95-1.95-3.3-2.82-4.38-2.82Z"/>
      <path class="cls-1" d="m45.93,47.5H4.07c-.87,0-1.57-.7-1.57-1.57s.7-1.57,1.57-1.57h41.86c.87,0,1.57.7,1.57,1.57s-.7,1.57-1.57,1.57Z"/>
    </g>
  </g>
  <g id="guias">
    <rect class="cls-2" x="47.5" y="47.5" width="2.5" height="2.5"/>
    <rect class="cls-2" x="47.5" width="2.5" height="2.5"/>
    <rect class="cls-2" y="47.5" width="2.5" height="2.5"/>
    <rect class="cls-2" width="2.5" height="2.5"/>
  </g>
</svg>