<?xml version="1.0" encoding="UTF-8"?>
<svg xmlns="http://www.w3.org/2000/svg" viewBox="0 0 50 50">
  <defs>
    <style>
      .cls-1 {
        fill: #2e3135;
        stroke-width: 0px;
      }

      .cls-2 {
        fill: none;
        stroke: #000;
        stroke-miterlimit: 10;
        stroke-width: .21px;
      }
    </style>
  </defs>
  <g id="iconos">
    <g>
      <path class="cls-1" d="m39.65,27.85H4.07c-.87,0-1.57-.7-1.57-1.57s.7-1.57,1.57-1.57h35.58c.87,0,1.57.7,1.57,1.57s-.7,1.57-1.57,1.57Z"/>
      <path class="cls-1" d="m31.74,45.41H11.98c-7.18,0-9.48-2.28-9.48-9.38v-14.63c0-5.62,1.27-8.95,7.76-9.33.54-.02,1.11-.04,1.72-.04h19.76c7.18,0,9.48,2.28,9.48,9.38v14.96c-.07,6.85-2.38,9.04-9.48,9.04ZM11.98,15.16c-.56,0-1.08.02-1.56.04-3.76.22-4.78,1.02-4.78,6.2v14.63c0,5.36.89,6.24,6.34,6.24h19.76c5.4,0,6.29-.83,6.34-5.92v-14.95c0-5.36-.89-6.24-6.34-6.24H11.98Z"/>
      <path class="cls-1" d="m39.65,37.93c-.4,0-.78-.15-1.08-.43-.31-.3-.49-.71-.49-1.14v-14.96c0-5.36-.89-6.24-6.34-6.24H11.98c-.56,0-1.08.02-1.56.04-.44.02-.85-.14-1.16-.44s-.48-.71-.48-1.14c.07-6.83,2.38-9.03,9.48-9.03h19.76c7.18,0,9.48,2.28,9.48,9.38v14.63c0,5.62-1.27,8.95-7.76,9.33-.03,0-.06,0-.09,0ZM11.98,12.02h19.76c7.18,0,9.48,2.28,9.48,9.38v13.22c2.43-.43,3.14-1.7,3.14-6.02v-14.63c0-5.36-.89-6.24-6.34-6.24h-19.76c-4.76,0-6.02.65-6.28,4.29h0Z"/>
      <path class="cls-1" d="m14.47,38.73h-3.6c-.87,0-1.57-.7-1.57-1.57s.7-1.57,1.57-1.57h3.6c.87,0,1.57.7,1.57,1.57s-.7,1.57-1.57,1.57Z"/>
      <path class="cls-1" d="m26.15,38.73h-7.2c-.87,0-1.57-.7-1.57-1.57s.7-1.57,1.57-1.57h7.2c.87,0,1.57.7,1.57,1.57s-.7,1.57-1.57,1.57Z"/>
    </g>
  </g>
  <g id="guias">
    <rect class="cls-2" x="47.5" y="47.5" width="2.5" height="2.5"/>
    <rect class="cls-2" x="47.5" width="2.5" height="2.5"/>
    <rect class="cls-2" y="47.5" width="2.5" height="2.5"/>
    <rect class="cls-2" width="2.5" height="2.5"/>
  </g>
</svg>