<?xml version="1.0" encoding="UTF-8"?>
<svg xmlns="http://www.w3.org/2000/svg" viewBox="0 0 50 50">
  <defs>
    <style>
      .cls-1 {
        fill: #2e3135;
        stroke-width: 0px;
      }

      .cls-2 {
        fill: none;
        stroke: #000;
        stroke-miterlimit: 10;
        stroke-width: .21px;
      }
    </style>
  </defs>
  <g id="iconos">
    <g>
      <path class="cls-1" d="m24,36.61H4c-.83,0-1.5-.67-1.5-1.5s.67-1.5,1.5-1.5h20c.83,0,1.5.67,1.5,1.5s-.67,1.5-1.5,1.5Z"/>
      <path class="cls-1" d="m19.56,46.51h-11.12c-4.38,0-5.94-1.54-5.94-5.9v-8.22c0-4.36,1.55-5.9,5.94-5.9h11.12c4.39,0,5.94,1.54,5.94,5.9v8.22c0,4.36-1.55,5.9-5.94,5.9Zm-11.12-17.02c-2.72,0-2.94.22-2.94,2.9v8.22c0,2.68.22,2.9,2.94,2.9h11.12c2.72,0,2.94-.22,2.94-2.9v-8.22c0-2.68-.22-2.9-2.94-2.9h-11.12Z"/>
      <path class="cls-1" d="m30,46.49c-.54,0-1.04-.29-1.3-.76-.27-.47-.26-1.05.02-1.51l2.1-3.5c.43-.71,1.34-.94,2.06-.52.71.43.94,1.35.52,2.06l-.54.9c5.53-1.29,9.65-6.26,9.65-12.17,0-.83.67-1.5,1.5-1.5s1.5.67,1.5,1.5c0,8.55-6.95,15.5-15.5,15.5Z"/>
      <path class="cls-1" d="m4,20.49c-.83,0-1.5-.67-1.5-1.5,0-8.55,6.95-15.5,15.5-15.5.54,0,1.04.29,1.3.76.27.47.26,1.05-.02,1.51l-2.1,3.5c-.43.71-1.35.94-2.06.51-.71-.43-.94-1.35-.51-2.06l.54-.9c-5.53,1.29-9.65,6.26-9.65,12.17,0,.83-.67,1.5-1.5,1.5Z"/>
      <path class="cls-1" d="m37,24.49c-5.79,0-10.5-4.71-10.5-10.5s4.71-10.5,10.5-10.5,10.5,4.71,10.5,10.5-4.71,10.5-10.5,10.5Zm0-18c-4.13,0-7.5,3.37-7.5,7.5s3.37,7.5,7.5,7.5,7.5-3.37,7.5-7.5-3.37-7.5-7.5-7.5Z"/>
    </g>
  </g>
  <g id="guias">
    <rect class="cls-2" x="47.5" y="47.5" width="2.5" height="2.5"/>
    <rect class="cls-2" x="47.5" width="2.5" height="2.5"/>
    <rect class="cls-2" y="47.5" width="2.5" height="2.5"/>
    <rect class="cls-2" width="2.5" height="2.5"/>
  </g>
</svg>