<?xml version="1.0" encoding="UTF-8"?>
<svg xmlns="http://www.w3.org/2000/svg" viewBox="0 0 50 50">
  <defs>
    <style>
      .cls-1 {
        fill: #2e3135;
        stroke-width: 0px;
      }

      .cls-2 {
        fill: none;
        stroke: #000;
        stroke-miterlimit: 10;
        stroke-width: .21px;
      }
    </style>
  </defs>
  <g id="iconos">
    <g>
      <path class="cls-1" d="m28.14,19.24H4.07c-.87,0-1.57-.7-1.57-1.57s.7-1.57,1.57-1.57h24.07c.87,0,1.57.7,1.57,1.57s-.7,1.57-1.57,1.57Z"/>
      <path class="cls-1" d="m16.63,35.99h-4.19c-.87,0-1.57-.7-1.57-1.57s.7-1.57,1.57-1.57h4.19c.87,0,1.57.7,1.57,1.57s-.7,1.57-1.57,1.57Z"/>
      <path class="cls-1" d="m30.23,35.99h-8.37c-.87,0-1.57-.7-1.57-1.57s.7-1.57,1.57-1.57h8.37c.87,0,1.57.7,1.57,1.57s-.7,1.57-1.57,1.57Z"/>
      <path class="cls-1" d="m36.64,44.36H13.36c-8.33,0-10.86-2.51-10.86-10.76v-17.2c0-8.24,2.54-10.76,10.86-10.76h14.78c.87,0,1.57.7,1.57,1.57s-.7,1.57-1.57,1.57h-14.78c-6.57,0-7.72,1.14-7.72,7.62v17.2c0,6.48,1.15,7.62,7.72,7.62h23.27c6.57,0,7.72-1.14,7.72-7.62v-8.54c0-.87.7-1.57,1.57-1.57s1.57.7,1.57,1.57v8.54c0,8.25-2.54,10.76-10.86,10.76Z"/>
      <path class="cls-1" d="m45.93,14.53h-11.51c-.87,0-1.57-.7-1.57-1.57s.7-1.57,1.57-1.57h11.51c.87,0,1.57.7,1.57,1.57s-.7,1.57-1.57,1.57Z"/>
      <path class="cls-1" d="m40.17,20.29c-.87,0-1.57-.7-1.57-1.57V7.21c0-.87.7-1.57,1.57-1.57s1.57.7,1.57,1.57v11.51c0,.87-.7,1.57-1.57,1.57Z"/>
    </g>
  </g>
  <g id="guias">
    <rect class="cls-2" x="47.5" y="47.5" width="2.5" height="2.5"/>
    <rect class="cls-2" x="47.5" width="2.5" height="2.5"/>
    <rect class="cls-2" y="47.5" width="2.5" height="2.5"/>
    <rect class="cls-2" width="2.5" height="2.5"/>
  </g>
</svg>