<?xml version="1.0" encoding="UTF-8"?>
<svg xmlns="http://www.w3.org/2000/svg" viewBox="0 0 50 50">
  <defs>
    <style>
      .cls-1 {
        fill: #2e3135;
        stroke-width: 0px;
      }

      .cls-2 {
        fill: none;
        stroke: #000;
        stroke-miterlimit: 10;
        stroke-width: .21px;
      }
    </style>
  </defs>
  <g id="iconos">
    <g>
      <path class="cls-1" d="m45.45,20.9H4.53c-.85,0-1.53-.69-1.53-1.53s.69-1.53,1.53-1.53h40.91c.85,0,1.53.69,1.53,1.53s-.69,1.53-1.53,1.53Z"/>
      <path class="cls-1" d="m24.09,42.38h-10.45c-8.15,0-10.64-2.46-10.64-10.51V15.05c0-6.46,1.38-10.03,8.67-10.45.62-.02,1.28-.04,1.97-.04h22.73c8.15,0,10.64,2.46,10.64,10.51v9.02c0,.85-.69,1.53-1.53,1.53s-1.53-.69-1.53-1.53v-9.02c0-6.33-1.13-7.45-7.57-7.45H13.64c-.66,0-1.27.02-1.83.04-4.44.25-5.74,1.25-5.74,7.39v16.82c0,6.33,1.13,7.45,7.57,7.45h10.45c.85,0,1.53.69,1.53,1.53s-.69,1.53-1.53,1.53Z"/>
      <path class="cls-1" d="m37.26,45.45c-5.36,0-9.72-4.36-9.72-9.72s4.36-9.72,9.72-9.72,9.72,4.36,9.72,9.72-4.36,9.72-9.72,9.72Zm0-16.37c-3.67,0-6.65,2.98-6.65,6.65s2.98,6.65,6.65,6.65,6.65-2.98,6.65-6.65-2.98-6.65-6.65-6.65Z"/>
      <path class="cls-1" d="m39.45,39.56c-.39,0-.79-.15-1.09-.45l-4.32-4.34c-.6-.6-.6-1.57,0-2.17.6-.6,1.57-.6,2.17,0l4.32,4.34c.6.6.6,1.57,0,2.17-.3.3-.69.45-1.08.45Z"/>
      <path class="cls-1" d="m35.07,39.6c-.39,0-.79-.15-1.09-.45-.6-.6-.6-1.57,0-2.17l4.34-4.32c.6-.6,1.57-.6,2.17,0,.6.6.6,1.57,0,2.17l-4.34,4.32c-.3.3-.69.45-1.08.45Z"/>
      <path class="cls-1" d="m20.9,33.17h-8.18c-.85,0-1.53-.69-1.53-1.53s.69-1.53,1.53-1.53h8.18c.85,0,1.53.69,1.53,1.53s-.69,1.53-1.53,1.53Z"/>
    </g>
  </g>
  <g id="guias">
    <rect class="cls-2" x="47.5" y="47.5" width="2.5" height="2.5"/>
    <rect class="cls-2" x="47.5" width="2.5" height="2.5"/>
    <rect class="cls-2" y="47.5" width="2.5" height="2.5"/>
    <rect class="cls-2" width="2.5" height="2.5"/>
  </g>
</svg>