<?xml version="1.0" encoding="UTF-8"?>
<svg xmlns="http://www.w3.org/2000/svg" viewBox="0 0 50 50">
  <defs>
    <style>
      .cls-1 {
        fill: #2e3135;
        stroke-width: 0px;
      }

      .cls-2 {
        fill: none;
        stroke: #000;
        stroke-miterlimit: 10;
        stroke-width: .21px;
      }
    </style>
  </defs>
  <g id="iconos">
    <g>
      <path class="cls-1" d="m23.95,19.25H4.07c-.87,0-1.57-.7-1.57-1.57s.7-1.57,1.57-1.57h19.88c.87,0,1.57.7,1.57,1.57s-.7,1.57-1.57,1.57Z"/>
      <path class="cls-1" d="m16.62,35.98h-4.18c-.87,0-1.57-.7-1.57-1.57s.7-1.57,1.57-1.57h4.18c.87,0,1.57.7,1.57,1.57s-.7,1.57-1.57,1.57Z"/>
      <path class="cls-1" d="m30.22,35.98h-8.37c-.87,0-1.57-.7-1.57-1.57s.7-1.57,1.57-1.57h8.37c.87,0,1.57.7,1.57,1.57s-.7,1.57-1.57,1.57Z"/>
      <path class="cls-1" d="m36.63,44.35H13.36c-8.32,0-10.86-2.51-10.86-10.75v-17.2c0-8.24,2.54-10.75,10.86-10.75h16.87c.87,0,1.57.7,1.57,1.57s-.7,1.57-1.57,1.57H13.36c-6.57,0-7.72,1.14-7.72,7.62v17.2c0,6.48,1.15,7.62,7.72,7.62h23.27c6.57,0,7.72-1.14,7.72-7.62v-8.54c0-.87.7-1.57,1.57-1.57s1.57.7,1.57,1.57v8.54c0,8.24-2.54,10.75-10.86,10.75Z"/>
      <path class="cls-1" d="m32.4,23.83c-.83,0-1.59-.3-2.15-.86-.66-.66-.96-1.61-.83-2.61l.42-2.98c.11-.76.56-1.66,1.09-2.18l7.77-7.77h0c3.09-3.08,5.77-1.31,7.09.02,1.14,1.13,1.71,2.33,1.71,3.55,0,1.22-.56,2.38-1.71,3.52l-7.76,7.76c-.52.53-1.42.98-2.17,1.09l-2.99.42c-.16.02-.32.03-.47.03Zm8.52-14.18l-7.76,7.76c-.06.07-.19.32-.21.43l-.4,2.83,2.85-.39c.09-.02.33-.14.41-.21l7.76-7.76c.53-.53.79-.96.79-1.31,0-.44-.43-.97-.79-1.33-1.15-1.15-1.67-1.01-2.66-.02Z"/>
      <path class="cls-1" d="m43.55,16.07c-.14,0-.28-.02-.42-.06-2.85-.79-5.13-3.07-5.94-5.94-.23-.83.25-1.7,1.08-1.94.84-.23,1.7.25,1.94,1.08.51,1.82,1.96,3.27,3.76,3.77.84.23,1.32,1.1,1.09,1.93-.19.69-.82,1.15-1.51,1.15Z"/>
    </g>
  </g>
  <g id="guias">
    <rect class="cls-2" x="47.5" y="47.5" width="2.5" height="2.5"/>
    <rect class="cls-2" x="47.5" width="2.5" height="2.5"/>
    <rect class="cls-2" y="47.5" width="2.5" height="2.5"/>
    <rect class="cls-2" width="2.5" height="2.5"/>
  </g>
</svg>