<?xml version="1.0" encoding="UTF-8"?>
<svg xmlns="http://www.w3.org/2000/svg" viewBox="0 0 50 50">
  <defs>
    <style>
      .cls-1 {
        fill: none;
        stroke: #000;
        stroke-miterlimit: 10;
        stroke-width: .21px;
      }

      .cls-2 {
        fill: #1e1f22;
        stroke-width: 0px;
      }
    </style>
  </defs>
  <g id="iconos">
    <g>
      <path class="cls-2" d="m28.37,22.11c-1.62,0-2.94-1.32-2.94-2.94s1.32-2.94,2.94-2.94,2.94,1.32,2.94,2.94-1.32,2.94-2.94,2.94Zm0-3.92c-.54,0-.98.44-.98.98s.44.98.98.98.98-.44.98-.98-.44-.98-.98-.98Z"/>
      <path class="cls-2" d="m21.52,22.11c-1.62,0-2.94-1.32-2.94-2.94s1.32-2.94,2.94-2.94,2.94,1.32,2.94,2.94-1.32,2.94-2.94,2.94Zm0-3.92c-.54,0-.98.44-.98.98s.44.98.98.98.98-.44.98-.98-.44-.98-.98-.98Z"/>
      <path class="cls-2" d="m31.8,27.98c-1.62,0-2.94-1.32-2.94-2.94s1.32-2.94,2.94-2.94,2.94,1.32,2.94,2.94-1.32,2.94-2.94,2.94Zm0-3.92c-.54,0-.98.44-.98.98s.44.98.98.98.98-.44.98-.98-.44-.98-.98-.98Z"/>
      <path class="cls-2" d="m35.03,21.62c-1.35,0-2.45-1.1-2.45-2.45s1.1-2.45,2.45-2.45,2.45,1.1,2.45,2.45-1.1,2.45-2.45,2.45Zm0-2.94c-.27,0-.49.22-.49.49,0,.54.98.54.98,0,0-.27-.22-.49-.49-.49Z"/>
      <path class="cls-2" d="m35.03,33.36c-1.35,0-2.45-1.1-2.45-2.45s1.1-2.45,2.45-2.45,2.45,1.1,2.45,2.45-1.1,2.45-2.45,2.45Zm0-2.94c-.27,0-.49.22-.49.49,0,.54.98.54.98,0,0-.27-.22-.49-.49-.49Z"/>
      <path class="cls-2" d="m40.12,27.49c-1.35,0-2.45-1.1-2.45-2.45s1.1-2.45,2.45-2.45,2.45,1.1,2.45,2.45-1.1,2.45-2.45,2.45Zm0-2.94c-.27,0-.49.22-.49.49,0,.54.98.54.98,0,0-.27-.22-.49-.49-.49Z"/>
      <path class="cls-2" d="m14.77,21.62c-1.35,0-2.45-1.1-2.45-2.45s1.1-2.45,2.45-2.45,2.45,1.1,2.45,2.45-1.1,2.45-2.45,2.45Zm0-2.94c-.27,0-.49.22-.49.49,0,.54.98.54.98,0,0-.27-.22-.49-.49-.49Z"/>
      <path class="cls-2" d="m14.77,33.36c-1.35,0-2.45-1.1-2.45-2.45s1.1-2.45,2.45-2.45,2.45,1.1,2.45,2.45-1.1,2.45-2.45,2.45Zm0-2.94c-.27,0-.49.22-.49.49,0,.54.98.54.98,0,0-.27-.22-.49-.49-.49Z"/>
      <path class="cls-2" d="m9.67,27.49c-1.35,0-2.45-1.1-2.45-2.45s1.1-2.45,2.45-2.45,2.45,1.1,2.45,2.45-1.1,2.45-2.45,2.45Zm0-2.94c-.27,0-.49.22-.49.49,0,.54.98.54.98,0,0-.27-.22-.49-.49-.49Z"/>
      <path class="cls-2" d="m32.58,14.18c-1.35,0-2.45-1.1-2.45-2.45s1.1-2.45,2.45-2.45,2.45,1.1,2.45,2.45-1.1,2.45-2.45,2.45Zm0-2.94c-.27,0-.49.22-.49.49,0,.54.98.54.98,0,0-.27-.22-.49-.49-.49Z"/>
      <path class="cls-2" d="m17.31,14.18c-1.35,0-2.45-1.1-2.45-2.45s1.1-2.45,2.45-2.45,2.45,1.1,2.45,2.45-1.1,2.45-2.45,2.45Zm0-2.94c-.27,0-.49.22-.49.49,0,.54.98.54.98,0,0-.27-.22-.49-.49-.49Z"/>
      <path class="cls-2" d="m25.05,15.74c-1.35,0-2.45-1.1-2.45-2.45s1.1-2.45,2.45-2.45,2.45,1.1,2.45,2.45-1.1,2.45-2.45,2.45Zm0-2.94c-.27,0-.49.22-.49.49,0,.54.98.54.98,0,0-.27-.22-.49-.49-.49Z"/>
      <path class="cls-2" d="m32.58,41.2c-1.35,0-2.45-1.1-2.45-2.45s1.1-2.45,2.45-2.45,2.45,1.1,2.45,2.45-1.1,2.45-2.45,2.45Zm0-2.94c-.27,0-.49.22-.49.49,0,.54.98.54.98,0,0-.27-.22-.49-.49-.49Z"/>
      <path class="cls-2" d="m17.31,41.2c-1.35,0-2.45-1.1-2.45-2.45s1.1-2.45,2.45-2.45,2.45,1.1,2.45,2.45-1.1,2.45-2.45,2.45Zm0-2.94c-.27,0-.49.22-.49.49,0,.54.98.54.98,0,0-.27-.22-.49-.49-.49Z"/>
      <path class="cls-2" d="m25.05,39.63c-1.35,0-2.45-1.1-2.45-2.45s1.1-2.45,2.45-2.45,2.45,1.1,2.45,2.45-1.1,2.45-2.45,2.45Zm0-2.94c-.27,0-.49.22-.49.49,0,.54.98.54.98,0,0-.27-.22-.49-.49-.49Z"/>
      <path class="cls-2" d="m18.09,27.98c-1.62,0-2.94-1.32-2.94-2.94s1.32-2.94,2.94-2.94,2.94,1.32,2.94,2.94-1.32,2.94-2.94,2.94Zm0-3.92c-.54,0-.98.44-.98.98s.44.98.98.98.98-.44.98-.98-.44-.98-.98-.98Z"/>
      <path class="cls-2" d="m21.52,33.85c-1.62,0-2.94-1.32-2.94-2.94s1.32-2.94,2.94-2.94,2.94,1.32,2.94,2.94-1.32,2.94-2.94,2.94Zm0-3.92c-.54,0-.98.44-.98.98s.44.98.98.98.98-.44.98-.98-.44-.98-.98-.98Z"/>
      <path class="cls-2" d="m28.37,33.85c-1.62,0-2.94-1.32-2.94-2.94s1.32-2.94,2.94-2.94,2.94,1.32,2.94,2.94-1.32,2.94-2.94,2.94Zm0-3.92c-.54,0-.98.44-.98.98s.44.98.98.98.98-.44.98-.98-.44-.98-.98-.98Z"/>
      <path class="cls-2" d="m24.95,8.31c-.25,0-.51-.06-.74-.16-.24-.1-.45-.23-.65-.43-.37-.37-.57-.86-.57-1.37,0-.14,0-.25.04-.39.02-.12.06-.26.12-.37.04-.12.1-.22.18-.33.06-.1.16-.22.23-.29.45-.45,1.14-.67,1.76-.53.14.02.25.06.37.1.12.06.23.12.33.18.12.08.22.16.29.25.1.08.18.2.25.29.06.12.14.22.18.33.06.12.1.25.12.37.02.14.04.25.04.39,0,.51-.22,1-.59,1.37-.18.2-.39.33-.63.43-.24.1-.49.16-.74.16Z"/>
      <path class="cls-2" d="m35.72,8.6c-.2,0-.39-.04-.57-.12-.18-.08-.33-.18-.47-.31-.14-.14-.25-.31-.33-.49-.06-.18-.1-.35-.1-.55,0-.39.16-.76.43-1.04.53-.55,1.53-.55,2.08,0,.27.25.43.65.43,1.04,0,.2-.04.37-.12.55s-.18.35-.31.49c-.27.27-.65.43-1.04.43Z"/>
      <path class="cls-2" d="m35.72,44.53c-.39,0-.76-.16-1.04-.43-.14-.14-.25-.31-.31-.49-.08-.18-.12-.35-.12-.55s.04-.39.12-.57c.06-.18.18-.33.31-.47.39-.41,1.06-.55,1.61-.33.18.08.33.2.47.33.14.14.24.29.31.47.08.18.12.37.12.57,0,.37-.16.74-.43,1.04-.29.27-.67.43-1.04.43Z"/>
      <path class="cls-2" d="m40.61,35.33c-.39,0-.76-.16-1.04-.43-.14-.16-.25-.31-.31-.49-.08-.18-.12-.35-.12-.55s.04-.39.12-.57c.06-.18.18-.33.31-.47.55-.55,1.53-.57,2.08,0,.14.14.24.29.31.47.08.18.12.37.12.57s-.04.37-.12.55-.18.33-.31.49c-.14.14-.29.24-.47.31-.2.08-.37.12-.57.12Z"/>
      <path class="cls-2" d="m40.61,16.73c-.39,0-.76-.16-1.04-.43-.14-.14-.25-.31-.33-.49-.06-.18-.1-.35-.1-.55,0-.39.16-.76.43-1.04.53-.57,1.53-.57,2.08,0,.27.27.43.65.43,1.04,0,.2-.04.37-.12.55s-.18.35-.31.49c-.29.28-.65.43-1.04.43Z"/>
      <path class="cls-2" d="m9.29,35.33c-.2,0-.39-.04-.57-.12-.18-.08-.33-.18-.47-.31-.14-.16-.25-.31-.31-.49-.08-.18-.12-.35-.12-.55s.04-.39.12-.57c.06-.18.18-.35.31-.47.55-.55,1.53-.55,2.08,0,.14.12.24.29.31.47.08.18.12.37.12.57s-.04.37-.12.55-.18.33-.31.49c-.14.14-.29.24-.47.31-.2.08-.37.12-.57.12Z"/>
      <path class="cls-2" d="m9.29,16.73c-.39,0-.76-.16-1.04-.43-.14-.14-.25-.31-.33-.49-.06-.18-.1-.35-.1-.55,0-.39.16-.76.43-1.04.53-.57,1.53-.57,2.08,0,.27.27.43.65.43,1.04,0,.2-.04.37-.12.55s-.18.33-.31.49c-.27.28-.65.43-1.04.43Z"/>
      <path class="cls-2" d="m14.18,8.6c-.39,0-.76-.16-1.04-.43-.14-.14-.25-.31-.33-.49-.06-.18-.1-.35-.1-.55,0-.39.16-.76.43-1.04.55-.55,1.53-.57,2.08,0,.27.25.43.65.43,1.04,0,.2-.04.37-.12.55s-.18.35-.31.49c-.14.14-.29.24-.49.31-.18.08-.35.12-.55.12Z"/>
      <path class="cls-2" d="m14.18,44.53c-.2,0-.39-.04-.57-.12-.18-.08-.33-.18-.47-.31-.27-.29-.43-.65-.43-1.04,0-.2.04-.39.12-.57.06-.18.18-.33.31-.47.14-.14.29-.25.47-.33.55-.22,1.19-.08,1.61.33.14.14.24.29.31.47.08.18.12.37.12.57s-.04.37-.12.55-.18.35-.31.49-.29.24-.47.31c-.2.08-.37.12-.57.12Z"/>
      <path class="cls-2" d="m24.95,45.61c-.25,0-.51-.06-.74-.16-.25-.1-.45-.24-.65-.43-.18-.18-.33-.39-.43-.63-.1-.24-.14-.49-.14-.74,0-.53.2-1.04.57-1.39.1-.1.2-.18.29-.26.12-.06.23-.12.35-.18.12-.04.24-.08.35-.1.25-.06.51-.06.76,0,.14.02.25.06.37.1.12.06.23.12.33.18.12.08.22.16.29.26.37.37.59.86.59,1.39,0,.25-.06.51-.16.74-.1.24-.24.45-.43.63-.18.2-.39.33-.63.43-.24.1-.49.16-.74.16Z"/>
      <path class="cls-2" d="m4.49,27.01c-.53,0-1.02-.22-1.39-.59-.37-.37-.57-.86-.57-1.37,0-.26.04-.51.16-.76.1-.24.23-.45.41-.63.72-.75,2.04-.75,2.78,0,.18.18.31.39.41.63.1.25.16.51.16.76,0,.51-.22,1-.57,1.37-.37.37-.86.59-1.39.59Z"/>
      <path class="cls-2" d="m45.51,27.01c-.27,0-.51-.06-.76-.16-.24-.1-.45-.24-.63-.43-.37-.37-.57-.86-.57-1.37,0-.26.04-.51.14-.76.12-.24.25-.45.43-.63.55-.55,1.41-.72,2.13-.43.23.1.45.25.65.43.18.18.31.39.41.63.1.25.16.51.16.76,0,.51-.22,1.02-.57,1.37-.37.37-.88.59-1.39.59Z"/>
    </g>
  </g>
  <g id="guias">
    <rect class="cls-1" x="47.5" y="47.5" width="2.5" height="2.5"/>
    <rect class="cls-1" x="47.5" width="2.5" height="2.5"/>
    <rect class="cls-1" y="47.5" width="2.5" height="2.5"/>
    <rect class="cls-1" width="2.5" height="2.5"/>
  </g>
</svg>