<?xml version="1.0" encoding="UTF-8"?>
<svg xmlns="http://www.w3.org/2000/svg" viewBox="0 0 50 50">
  <defs>
    <style>
      .cls-1 {
        fill: #2e3135;
        stroke-width: 0px;
      }

      .cls-2 {
        fill: none;
        stroke: #000;
        stroke-miterlimit: 10;
        stroke-width: .21px;
      }
    </style>
  </defs>
  <g id="iconos">
    <g>
      <path class="cls-1" d="m45.93,20.81H4.09c-.87,0-1.57-.7-1.57-1.57s.7-1.57,1.57-1.57h41.84c.87,0,1.57.7,1.57,1.57s-.7,1.57-1.57,1.57Z"/>
      <path class="cls-1" d="m24.07,42.77h-10.69c-8.34,0-10.88-2.51-10.88-10.75V14.82c0-6.6,1.41-10.26,8.86-10.69.64-.02,1.31-.04,2.02-.04h23.24c8.34,0,10.88,2.51,10.88,10.75v9.23c0,.87-.7,1.57-1.57,1.57s-1.57-.7-1.57-1.57v-9.23c0-6.48-1.16-7.61-7.74-7.61H13.38c-.67,0-1.3.02-1.87.04-4.54.26-5.87,1.28-5.87,7.55v17.19c0,6.48,1.16,7.62,7.74,7.62h10.69c.87,0,1.57.7,1.57,1.57s-.7,1.57-1.57,1.57Z"/>
      <path class="cls-1" d="m20.83,33.36h-8.37c-.87,0-1.57-.7-1.57-1.57s.7-1.57,1.57-1.57h8.37c.87,0,1.57.7,1.57,1.57s-.7,1.57-1.57,1.57Z"/>
      <path class="cls-1" d="m37.56,45.91c-3.47,0-6.73-1.85-8.5-4.83-.93-1.51-1.43-3.28-1.43-5.11,0-5.48,4.46-9.94,9.94-9.94s9.94,4.46,9.94,9.94c0,1.82-.5,3.6-1.45,5.13-1.76,2.96-5.02,4.8-8.49,4.8Zm0-16.74c-3.75,0-6.8,3.05-6.8,6.8,0,1.24.34,2.45.98,3.49,1.22,2.05,3.44,3.31,5.82,3.31s4.58-1.23,5.81-3.29c.65-1.06.99-2.26.99-3.51,0-3.75-3.05-6.8-6.8-6.8Z"/>
      <path class="cls-1" d="m36.37,39.61c-.4,0-.8-.15-1.11-.46l-2.07-2.07c-.61-.61-.61-1.61,0-2.22.61-.61,1.61-.61,2.22,0l1,1.01,3.35-3.1c.63-.59,1.63-.55,2.22.09.59.64.55,1.63-.09,2.22l-4.46,4.12c-.3.28-.68.42-1.06.42Z"/>
    </g>
  </g>
  <g id="guias">
    <rect class="cls-2" x="47.5" y="47.5" width="2.5" height="2.5"/>
    <rect class="cls-2" x="47.5" width="2.5" height="2.5"/>
    <rect class="cls-2" y="47.5" width="2.5" height="2.5"/>
    <rect class="cls-2" width="2.5" height="2.5"/>
  </g>
</svg>