<?xml version="1.0" encoding="UTF-8"?>
<svg xmlns="http://www.w3.org/2000/svg" viewBox="0 0 50 50">
  <defs>
    <style>
      .cls-1 {
        fill: #2e3135;
        stroke-width: 0px;
      }

      .cls-2 {
        fill: none;
        stroke: #000;
        stroke-miterlimit: 10;
        stroke-width: .21px;
      }
    </style>
  </defs>
  <g id="iconos">
    <g>
      <path class="cls-1" d="m31.78,19.24H4.07c-.87,0-1.57-.7-1.57-1.57s.7-1.57,1.57-1.57h27.71c.87,0,1.57.7,1.57,1.57s-.7,1.57-1.57,1.57Z"/>
      <path class="cls-1" d="m15.14,35.99h-2.7c-.87,0-1.57-.7-1.57-1.57s.7-1.57,1.57-1.57h2.7c.87,0,1.57.7,1.57,1.57s-.7,1.57-1.57,1.57Z"/>
      <path class="cls-1" d="m30.23,35.99h-7.33c-.87,0-1.57-.7-1.57-1.57s.7-1.57,1.57-1.57h7.33c.87,0,1.57.7,1.57,1.57s-.7,1.57-1.57,1.57Z"/>
      <path class="cls-1" d="m36.64,44.36h-20.05c-.87,0-1.57-.7-1.57-1.57s.7-1.57,1.57-1.57h20.05c6.57,0,7.72-1.14,7.72-7.62V14.3c0-.87.7-1.57,1.57-1.57s1.57.7,1.57,1.57v19.3c0,8.24-2.54,10.76-10.86,10.76Z"/>
      <path class="cls-1" d="m7.65,43.59c-.19,0-.39-.03-.58-.11-3.8-1.49-4.57-5.04-4.57-9.89v-17.19c0-8.24,2.54-10.76,10.86-10.76h23.27c2.39,0,4.15.19,5.52.58.83.24,1.31,1.11,1.07,1.95s-1.12,1.3-1.94,1.07c-1.09-.31-2.56-.46-4.65-.46H13.36c-6.57,0-7.72,1.14-7.72,7.62v17.19c0,5.01.91,6.31,2.58,6.97.81.32,1.2,1.23.89,2.04-.24.62-.83,1-1.46,1Z"/>
      <path class="cls-1" d="m4.07,47.5c-.4,0-.8-.15-1.11-.46-.61-.61-.61-1.61,0-2.22L44.82,2.96c.61-.61,1.61-.61,2.22,0s.61,1.61,0,2.22L5.18,47.04c-.31.31-.71.46-1.11.46Z"/>
    </g>
  </g>
  <g id="guias">
    <rect class="cls-2" x="47.5" y="47.5" width="2.5" height="2.5"/>
    <rect class="cls-2" x="47.5" width="2.5" height="2.5"/>
    <rect class="cls-2" y="47.5" width="2.5" height="2.5"/>
    <rect class="cls-2" width="2.5" height="2.5"/>
  </g>
</svg>