<?xml version="1.0" encoding="UTF-8"?>
<svg xmlns="http://www.w3.org/2000/svg" viewBox="0 0 50 50">
  <defs>
    <style>
      .cls-1 {
        fill: none;
        stroke: #000;
        stroke-miterlimit: 10;
        stroke-width: .21px;
      }

      .cls-2 {
        fill: #1e1f22;
        stroke-width: 0px;
      }
    </style>
  </defs>
  <g id="iconos">
    <g>
      <path class="cls-2" d="m25.73,30.13h-1.59c-.15,0-.18-.05-.15-.19.05-.21.1-.43.14-.64.02-.12.08-.15.19-.15h2.45c.3,0,.32-.02.39-.31q.11-.44-.34-.44h-1.91c-.11,0-.23,0-.34-.04-.16-.04-.27-.18-.27-.35,0-.15,0-.31.05-.46.21-1.01.43-2.02.63-3.03.03-.14.08-.21.24-.2.25.01.5.01.75,0,.15,0,.16.05.14.18-.18.84-.36,1.68-.54,2.52-.1.47-.11.47.37.47h1.36c.11,0,.15-.03.17-.14.2-.95.4-1.89.6-2.84.03-.15.08-.2.23-.19.23.01.46,0,.69,0s.25,0,.19.26c-.16.79-.33,1.59-.5,2.4-.17.8-.35,1.63-.53,2.45-.04.32-.27.59-.58.67-.14.03-.29.05-.43.04h-1.43Zm5.8-1.72h-1.68c-.44,0-.61-.19-.53-.61.08-.43.17-.9.29-1.35.02-.17.11-.32.24-.42.13-.1.3-.15.47-.12h2.36c.15,0,.23-.04.23-.19,0-.06.02-.12.04-.19.06-.28.03-.31-.26-.31h-2.53c-.11,0-.14-.02-.12-.13.05-.23.1-.44.14-.66.01-.08.05-.1.13-.1h3.32c.46,0,.61.21.53.66-.16.83-.34,1.65-.51,2.47-.05.26-.12.53-.16.79-.02.12-.07.15-.19.15-.59,0-1.17,0-1.76,0Zm0-.96h.81c.14,0,.21-.03.23-.18.02-.18.06-.36.11-.53.04-.13,0-.16-.13-.16h-1.3c-.72.01-.59-.14-.76.66-.03.15.02.21.17.21.29,0,.58,0,.86,0h0Z"/>
      <path class="cls-2" d="m11.3,24.34s-.09-.01-.13-.01h-3.25c-.11,0-.14.05-.16.14-.04.19-.07.41-.11.56-.04.15,0,.19.16.19h2.32c.48,0,.49.02.39.49-.04.17-.1.22-.27.22h-2.3c-.42,0-.6.12-.72.52-.07.25-.13.5-.17.75-.07.25-.11.52-.13.78-.01.1.02.2.08.28.06.08.15.13.25.14.1.02.2.03.3.03h1.59c.57,0,1.15,0,1.72,0,.14,0,.2-.04.23-.18.16-.77.33-1.53.49-2.29.07-.35.16-.68.19-1.04.04-.36-.1-.51-.46-.56Zm-1.01,2.39c-.03.1-.05.22-.08.33q-.09.4-.5.4h-1.41c-.21,0-.25-.04-.21-.25,0-.04.03-.07.03-.11.1-.61.09-.52.64-.52h.53c.29,0,.58.01.87,0,.13,0,.16.06.13.16Z"/>
      <path class="cls-2" d="m23.41,24.33h-2.64c-.13,0-.26.01-.39.04-.38.09-.52.39-.59.73-.18.86-.36,1.71-.54,2.57-.02.09-.03.17-.03.26-.02.21.13.41.34.43.12.03.24.04.36.03h2.01s.72,0,.72,0c.52-.01.74-.19.88-.69.03-.08.05-.17.07-.25.16-.77.32-1.54.48-2.31.13-.63-.02-.83-.66-.83Zm-.52,1.21c-.11.55-.23,1.1-.35,1.66,0,.07-.04.13-.1.18-.06.04-.13.06-.2.05h-1.6c-.15,0-.21-.06-.18-.2.13-.57.24-1.14.35-1.72.02-.13.13-.21.26-.2h1.62c.17,0,.22.07.19.23Z"/>
      <path class="cls-2" d="m4.44,28.41h-1.26c-.1,0-.2,0-.3-.02-.11,0-.22-.06-.29-.14-.07-.09-.1-.2-.09-.32.04-.36.11-.72.2-1.07.11-.53.23-1.06.33-1.59.01-.06.02-.13.04-.19.12-.5.38-.73.89-.73h2.75c.11,0,.16.03.13.15-.05.23-.1.44-.14.67-.02.14-.09.17-.22.17h-2c-.31,0-.35.03-.41.34-.1.47-.2.95-.3,1.42-.07.31-.04.34.29.34h1.93c.28,0,.23-.01.18.23-.04.2-.09.4-.12.61-.02.12-.07.15-.19.15-.48-.02-.95-.02-1.42-.02h0Z"/>
      <path class="cls-2" d="m30.57,19.86c1.29.02,2.48.72,3.13,1.84.07.12.04.16-.07.2-.25.09-.49.18-.74.29-.04.03-.1.04-.15.02-.05-.01-.09-.05-.12-.09-.62-.85-1.65-1.28-2.69-1.13-1.3.16-2.33,1.16-2.52,2.46-.09.51-.03,1.04.17,1.52.06.15.02.18-.13.17-.48,0-.38.09-.53-.37-.5-1.5.01-3.16,1.27-4.11.68-.52,1.51-.79,2.36-.78Z"/>
      <path class="cls-2" d="m43.63,25.8c.19-.18.45-.27.71-.23h.77c.21-.03.41.1.46.3.21-.31.5-.31.81-.3h.74c.31,0,.44.14.38.44-.11.61-.24,1.21-.37,1.81-.03.14-.07.28-.09.42-.02.14-.06.17-.18.16h-.49c-.11,0-.14-.03-.11-.14.13-.6.25-1.2.38-1.79.04-.21.02-.24-.2-.24-.22,0-.46,0-.69,0-.07-.01-.15,0-.2.05-.06.05-.09.12-.09.19-.11.56-.23,1.12-.34,1.68-.03.18-.1.28-.3.25-.13-.01-.25-.01-.38,0-.12,0-.15-.03-.12-.15.13-.58.24-1.15.36-1.74.06-.27.04-.28-.23-.28h-.64c-.21,0-.28.07-.32.26-.11.58-.24,1.16-.36,1.74-.03.14-.09.19-.23.18-.13-.01-.26-.01-.4,0-.17.02-.18-.06-.15-.2.18-.84.36-1.67.53-2.51.02-.1.05-.14.16-.14.13,0,.25,0,.38,0,.16-.02.26,0,.21.23h0Z"/>
      <path class="cls-2" d="m13.69,24.68c.28-.33.64-.37,1.03-.36h.77c.11,0,.16.01.13.15-.06.21-.1.42-.13.63-.02.17-.11.2-.26.2h-1.34c-.27,0-.31.04-.37.3-.19.88-.37,1.76-.55,2.64-.02.12-.06.17-.19.17h-.83c-.1,0-.12-.03-.1-.13.27-1.27.54-2.53.8-3.8.02-.11.07-.15.17-.14h.74c.16,0,.23.03.16.2-.02.05-.02.11-.03.16Z"/>
      <path class="cls-2" d="m17.36,24.71c.27-.36.63-.39,1.01-.38h.74c.13,0,.17.03.14.16-.05.23-.1.46-.15.7-.02.1-.08.11-.16.11h-1.42c-.27,0-.31.03-.37.3-.18.86-.36,1.73-.54,2.59-.03.17-.09.23-.27.23-.23-.02-.46-.02-.69,0-.18.01-.19-.06-.16-.21.18-.83.36-1.67.53-2.51.08-.4.17-.8.25-1.2.02-.12.07-.17.2-.16h.74c.14,0,.18.04.14.17-.03.06-.03.13,0,.2Z"/>
      <path class="cls-2" d="m41.88,25.57h-1.98c-.37,0-.54.12-.62.48-.15.63-.28,1.27-.41,1.9-.06.31.05.46.38.46h1c.34,0,.68,0,1.02,0,.14.02.28-.02.39-.11s.18-.21.2-.35c.15-.65.28-1.29.41-1.94.07-.32-.06-.45-.39-.45Zm-.47.89c-.07.35-.14.69-.21,1.03,0,.07-.04.14-.1.18-.06.04-.13.06-.2.05h-1.02c-.14,0-.19-.04-.16-.19.09-.36.16-.73.23-1.09,0-.06.03-.12.08-.16.05-.04.11-.06.17-.05h1.02c.2,0,.22.04.18.23Z"/>
      <path class="cls-2" d="m37.14,28.41h-.92c-.35,0-.46-.14-.4-.47.12-.63.26-1.26.4-1.88.01-.14.09-.28.2-.37.11-.09.26-.13.4-.11h1.85c.13,0,.18.02.15.17-.1.51-.1.51-.61.51h-1.06c-.06-.01-.12,0-.17.04-.05.04-.08.09-.08.15-.07.35-.15.69-.23,1.05-.04.16,0,.23.18.23h1.34c.14,0,.21.02.16.19-.06.17,0,.38-.13.47-.13.09-.33.03-.49.03-.17,0-.39,0-.59,0h0Z"/>
      <path class="cls-2" d="m30.47,23.07c.08-.01.16,0,.23.05.13.09.28.1.42.04l2.78-.6c.11-.03.17,0,.2.12.03.12-.02.16-.13.19-.95.27-1.89.55-2.84.82-.1.02-.18.09-.23.18-.13.22-.41.31-.64.2-.22-.1-.34-.34-.3-.57.04-.24.26-.42.5-.42Z"/>
      <path class="cls-2" d="m34.57,28.41q-.34,0-.28-.33c.1-.51.1-.51.62-.51.14,0,.22.02.15.18-.03.1-.05.2-.06.3q-.08.35-.43.35Z"/>
    </g>
  </g>
  <g id="guias">
    <rect class="cls-1" x="47.5" y="47.5" width="2.5" height="2.5"/>
    <rect class="cls-1" x="47.5" width="2.5" height="2.5"/>
    <rect class="cls-1" y="47.5" width="2.5" height="2.5"/>
    <rect class="cls-1" width="2.5" height="2.5"/>
  </g>
</svg>