<?xml version="1.0" encoding="UTF-8"?>
<svg xmlns="http://www.w3.org/2000/svg" viewBox="0 0 50 50">
  <defs>
    <style>
      .cls-1 {
        fill: none;
        stroke: #000;
        stroke-miterlimit: 10;
        stroke-width: .21px;
      }

      .cls-2 {
        fill: #1e1f22;
        stroke-width: 0px;
      }
    </style>
  </defs>
  <g id="iconos">
    <g>
      <g>
        <path class="cls-2" d="m17.82,45.71c-2.02,0-3.66-1.64-3.66-3.66s1.64-3.66,3.66-3.66,3.66,1.64,3.66,3.66-1.64,3.66-3.66,3.66Zm0-6.28c-1.44,0-2.62,1.17-2.62,2.61s1.17,2.62,2.62,2.62,2.61-1.17,2.61-2.62-1.17-2.61-2.61-2.61Z"/>
        <path class="cls-2" d="m39.35,45.71c-2.02,0-3.66-1.64-3.66-3.66s1.64-3.66,3.66-3.66,3.66,1.64,3.66,3.66-1.64,3.66-3.66,3.66Zm0-6.28c-1.44,0-2.61,1.17-2.61,2.61s1.17,2.62,2.61,2.62,2.62-1.17,2.62-2.62-1.17-2.61-2.62-2.61Z"/>
        <path class="cls-2" d="m43.39,35.84h-25.05c-2.37,0-4.43-1.68-4.91-4L8.26,6.71c-.16-.8-.87-1.37-1.68-1.37h-3.55c-.29,0-.52-.24-.52-.52s.24-.52.52-.52h3.55c1.31,0,2.45.93,2.71,2.21l5.17,25.13c.38,1.83,2.01,3.16,3.88,3.16h25.05c.29,0,.52.24.52.52s-.24.52-.52.52Z"/>
        <path class="cls-2" d="m41.93,30.46H14.24c-.29,0-.52-.24-.52-.52s.24-.52.52-.52h27.69c.84,0,1.55-.6,1.69-1.42l2.81-16.15c.09-.5-.05-1.01-.38-1.4-.33-.39-.81-.61-1.31-.61H9.75c-.29,0-.52-.24-.52-.52s.24-.52.52-.52h34.98c.82,0,1.59.36,2.12.99.53.63.75,1.45.61,2.25l-2.81,16.15c-.23,1.33-1.38,2.29-2.73,2.29Z"/>
      </g>
      <path class="cls-2" d="m46.08,16.55H14.68c-.29,0-.52-.24-.52-.52s.24-.52.52-.52h31.4c.29,0,.52.24.52.52s-.24.52-.52.52Z"/>
      <path class="cls-2" d="m44.59,23.73h-28.11c-.29,0-.52-.24-.52-.52s.24-.52.52-.52h28.11c.29,0,.52.24.52.52s-.24.52-.52.52Z"/>
    </g>
  </g>
  <g id="guias">
    <rect class="cls-1" x="47.5" y="47.5" width="2.5" height="2.5"/>
    <rect class="cls-1" x="47.5" width="2.5" height="2.5"/>
    <rect class="cls-1" y="47.5" width="2.5" height="2.5"/>
    <rect class="cls-1" width="2.5" height="2.5"/>
  </g>
</svg>