<?xml version="1.0" encoding="UTF-8"?>
<svg xmlns="http://www.w3.org/2000/svg" viewBox="0 0 50 50">
  <defs>
    <style>
      .cls-1 {
        fill: none;
        stroke: #000;
        stroke-miterlimit: 10;
        stroke-width: .21px;
      }

      .cls-2 {
        fill: #1e1f22;
        stroke-width: 0px;
      }
    </style>
  </defs>
  <g id="iconos">
    <g>
      <path class="cls-2" d="m4.42,19.34c-.27,0-.49-.22-.49-.49v-3.63c0-.27.22-.49.49-.49h19.92c.27,0,.49.22.49.49s-.22.49-.49.49H4.92v3.13c0,.27-.22.49-.49.49Z"/>
      <path class="cls-2" d="m5.88,35.27h-1.45c-.27,0-.49-.22-.49-.49v-7.85c0-.27.22-.49.49-.49s.49.22.49.49v7.36h.96c.27,0,.49.22.49.49s-.22.49-.49.49Z"/>
      <path class="cls-2" d="m45.58,35.27h-19.68c-.27,0-.49-.22-.49-.49s.22-.49.49-.49h19.19v-3.13c0-.27.22-.49.49-.49s.49.22.49.49v3.63c0,.27-.22.49-.49.49Z"/>
      <path class="cls-2" d="m45.58,23.14c-.27,0-.49-.22-.49-.49v-6.94h-.6c-.27,0-.49-.22-.49-.49s.22-.49.49-.49h1.09c.27,0,.49.22.49.49v7.43c0,.27-.22.49-.49.49Z"/>
      <g>
        <path class="cls-2" d="m6.54,38.83c-.23,0-.44-.17-.48-.4l-3.54-19.23c-.02-.13,0-.26.08-.37.07-.11.19-.18.32-.21l40.47-7.46c.13-.02.26,0,.37.08.11.07.18.19.21.32l3.54,19.23c.05.27-.13.52-.4.57l-40.47,7.46s-.06,0-.09,0Zm-2.97-19.32l3.36,18.26,39.51-7.28-3.36-18.26L3.56,19.51Z"/>
        <path class="cls-2" d="m24.98,32.38c-1.48,0-2.92-.45-4.17-1.3-1.62-1.12-2.72-2.8-3.07-4.74-.74-4,1.92-7.86,5.92-8.6,3.98-.74,7.86,1.92,8.6,5.92h0c.74,4-1.92,7.86-5.93,8.6-.45.08-.9.12-1.35.12Zm.02-13.78c-.38,0-.77.03-1.16.11-3.47.64-5.77,3.98-5.13,7.45.31,1.68,1.25,3.14,2.66,4.11,1.41.97,3.11,1.34,4.79,1.02,3.47-.64,5.77-3.98,5.13-7.45-.57-3.08-3.26-5.24-6.29-5.24Z"/>
        <path class="cls-2" d="m12.23,29.91c-.51,0-1.01-.15-1.45-.45-.56-.39-.94-.97-1.07-1.64-.12-.67.02-1.35.41-1.92s.97-.94,1.64-1.06c.66-.12,1.35.02,1.92.41.56.39.94.97,1.07,1.64h0c.12.67-.02,1.35-.41,1.92s-.97.94-1.64,1.06c-.16.03-.31.04-.47.04Zm0-4.14c-.1,0-.19,0-.29.03-.41.07-.77.31-1.01.65-.24.35-.33.77-.25,1.18.08.41.31.77.66,1.01.35.24.76.33,1.18.25.42-.07.77-.31,1.01-.66.24-.35.33-.76.25-1.18h0c-.08-.41-.31-.77-.66-1.01-.27-.18-.57-.28-.89-.28Z"/>
        <path class="cls-2" d="m37.73,25.21c-.52,0-1.01-.15-1.45-.45-.56-.39-.94-.97-1.07-1.65-.25-1.39.67-2.72,2.06-2.98.67-.12,1.35.02,1.92.41s.94.97,1.06,1.64h0c.26,1.39-.66,2.72-2.05,2.98-.16.03-.32.04-.47.04Zm0-4.14c-.1,0-.19,0-.29.03-.86.16-1.42.98-1.27,1.84.08.41.31.77.66,1.01.35.24.76.34,1.18.25.85-.16,1.42-.98,1.26-1.84h0c-.07-.41-.31-.77-.66-1.01-.27-.18-.57-.28-.89-.28Z"/>
        <g>
          <path class="cls-2" d="m25.25,28.58c-.92,0-1.56-.54-1.59-.57-.2-.18-.23-.49-.05-.7.18-.2.49-.22.7-.05.02.02.53.43,1.2.31.27-.05.47-.17.6-.37.13-.2.17-.47.12-.73-.07-.34-.28-.76-1.23-.97-.09-.02-.2-.04-.3-.06-.63-.11-1.69-.28-1.94-1.59-.21-1.12.44-2.09,1.56-2.3,1.04-.2,1.93.3,1.96.32.24.13.32.43.19.67s-.43.32-.67.19c0,0-.64-.33-1.3-.21-.58.11-.89.57-.78,1.15.12.61.47.7,1.13.81.12.02.24.04.35.07,1.12.25,1.78.83,1.97,1.72.12.52.02,1.06-.26,1.48-.27.42-.7.69-1.24.79-.15.03-.3.04-.44.04Z"/>
          <path class="cls-2" d="m24.45,22.52c-.23,0-.44-.17-.48-.4l-.2-1.06c-.05-.27.13-.52.39-.58.3-.06.52.13.58.39l.2,1.06c.05.27-.13.52-.39.58-.03,0-.06,0-.09,0Z"/>
          <path class="cls-2" d="m25.78,29.52c-.23,0-.44-.17-.48-.4l-.18-.98c-.05-.27.13-.52.39-.57.28-.05.52.13.57.39l.18.98c.05.27-.13.52-.39.57-.03,0-.06,0-.09,0Z"/>
        </g>
      </g>
    </g>
  </g>
  <g id="guias">
    <rect class="cls-1" x="47.5" y="47.5" width="2.5" height="2.5"/>
    <rect class="cls-1" x="47.5" width="2.5" height="2.5"/>
    <rect class="cls-1" y="47.5" width="2.5" height="2.5"/>
    <rect class="cls-1" width="2.5" height="2.5"/>
  </g>
</svg>