<?xml version="1.0" encoding="UTF-8"?>
<svg xmlns="http://www.w3.org/2000/svg" viewBox="0 0 50 50">
  <defs>
    <style>
      .cls-1 {
        fill: none;
        stroke: #000;
        stroke-miterlimit: 10;
        stroke-width: .21px;
      }

      .cls-2 {
        fill: #1e1f22;
        stroke-width: 0px;
      }
    </style>
  </defs>
  <g id="iconos">
    <g>
      <g>
        <path class="cls-2" d="m25,45.55c-20.55,0-20.55-9.52-20.55-20.55S13.67,4.45,25,4.45s20.54,9.22,20.54,20.55,0,20.55-20.54,20.55Zm0-40.12C14.21,5.42,5.42,14.21,5.42,25s0,19.58,19.58,19.58,19.57-8.64,19.57-19.58S35.79,5.42,25,5.42Z"/>
        <path class="cls-2" d="m34.08,38.12H15.93c-4.35,0-7.9-3.54-7.9-7.9v-1.02c0-4.35,3.54-7.9,7.9-7.9h18.15c4.35,0,7.9,3.54,7.9,7.9v1.02c0,4.35-3.54,7.9-7.9,7.9Zm-18.15-15.84c-3.82,0-6.93,3.11-6.93,6.93v1.02c0,3.82,3.11,6.93,6.93,6.93h18.15c3.82,0,6.93-3.11,6.93-6.93v-1.02c0-3.82-3.11-6.93-6.93-6.93H15.93Z"/>
        <path class="cls-2" d="m6.72,9.17c-1.25,0-2.27-1.02-2.27-2.27s1.02-2.27,2.27-2.27,2.27,1.02,2.27,2.27-1.02,2.27-2.27,2.27Zm0-3.57c-.72,0-1.3.58-1.3,1.3s.58,1.3,1.3,1.3,1.3-.58,1.3-1.3-.58-1.3-1.3-1.3Z"/>
        <path class="cls-2" d="m43.28,9.17c-1.25,0-2.27-1.02-2.27-2.27s1.02-2.27,2.27-2.27,2.27,1.02,2.27,2.27-1.02,2.27-2.27,2.27Zm0-3.57c-.72,0-1.3.58-1.3,1.3s.58,1.3,1.3,1.3,1.3-.58,1.3-1.3-.58-1.3-1.3-1.3Z"/>
        <path class="cls-2" d="m6.72,17.22c-.27,0-.48-.22-.48-.48v-8.05c0-.27.22-.48.48-.48s.48.22.48.48v8.05c0,.27-.22.48-.48.48Z"/>
        <path class="cls-2" d="m43.28,17.22c-.27,0-.48-.22-.48-.48v-8.05c0-.27.22-.48.48-.48s.48.22.48.48v8.05c0,.27-.22.48-.48.48Z"/>
        <path class="cls-2" d="m15.36,31.82c-1.16,0-2.11-.94-2.11-2.11s.95-2.11,2.11-2.11,2.11.95,2.11,2.11-.94,2.11-2.11,2.11Zm0-3.25c-.63,0-1.14.51-1.14,1.14s.51,1.14,1.14,1.14,1.14-.51,1.14-1.14-.51-1.14-1.14-1.14Z"/>
        <path class="cls-2" d="m34.48,31.82c-1.16,0-2.11-.94-2.11-2.11s.95-2.11,2.11-2.11,2.11.95,2.11,2.11-.95,2.11-2.11,2.11Zm0-3.25c-.63,0-1.14.51-1.14,1.14s.51,1.14,1.14,1.14,1.14-.51,1.14-1.14-.51-1.14-1.14-1.14Z"/>
        <path class="cls-2" d="m25,42.59c-.83,0-1.6-.45-2-1.18-.13-.23-.04-.53.19-.66.23-.12.53-.04.66.19.45.83,1.8.85,2.27.02.13-.23.43-.31.66-.18.23.13.31.43.18.66-.41.7-1.16,1.14-1.97,1.14Z"/>
      </g>
      <g>
        <polygon class="cls-2" points="22.11 15.25 25 18.14 27.89 15.25 27.22 14.58 25 16.8 23.45 15.25 25 13.7 25.66 14.36 26.33 13.69 25 12.36 22.11 15.25"/>
        <polygon class="cls-2" points="27.89 13.69 25 10.8 22.11 13.69 22.78 14.36 25 12.14 26.55 13.69 25 15.24 24.34 14.58 23.67 15.25 25 16.58 27.89 13.69"/>
      </g>
    </g>
  </g>
  <g id="guias">
    <g>
      <rect class="cls-1" x="47.5" y="47.5" width="2.5" height="2.5"/>
      <rect class="cls-1" x="47.5" width="2.5" height="2.5"/>
      <rect class="cls-1" y="47.5" width="2.5" height="2.5"/>
      <rect class="cls-1" width="2.5" height="2.5"/>
    </g>
  </g>
</svg>