<?xml version="1.0" encoding="UTF-8"?>
<svg xmlns="http://www.w3.org/2000/svg" viewBox="0 0 50 50">
  <defs>
    <style>
      .cls-1 {
        fill: #2e3135;
        stroke-width: 0px;
      }

      .cls-2 {
        fill: none;
        stroke: #000;
        stroke-miterlimit: 10;
        stroke-width: .21px;
      }
    </style>
  </defs>
  <g id="iconos">
    <g>
      <path class="cls-1" d="m39.65,22.38h-4.19c-5.06,0-7.85-2.79-7.85-7.85v-4.19c0-5.06,2.79-7.85,7.85-7.85h4.19c5.06,0,7.85,2.79,7.85,7.85v4.19c0,5.06-2.79,7.85-7.85,7.85Zm-4.19-16.74c-3.3,0-4.71,1.41-4.71,4.71v4.19c0,3.3,1.41,4.71,4.71,4.71h4.19c3.3,0,4.71-1.41,4.71-4.71v-4.19c0-3.3-1.41-4.71-4.71-4.71h-4.19Z"/>
      <path class="cls-1" d="m14.53,47.5h-4.19c-5.06,0-7.85-2.79-7.85-7.85v-4.19c0-5.06,2.79-7.85,7.85-7.85h4.19c5.06,0,7.85,2.79,7.85,7.85v4.19c0,5.06-2.79,7.85-7.85,7.85Zm-4.19-16.74c-3.3,0-4.71,1.41-4.71,4.71v4.19c0,3.3,1.41,4.71,4.71,4.71h4.19c3.3,0,4.71-1.41,4.71-4.71v-4.19c0-3.3-1.41-4.71-4.71-4.71h-4.19Z"/>
      <path class="cls-1" d="m12.44,22.38c-5.48,0-9.94-4.46-9.94-9.94S6.96,2.5,12.44,2.5s9.94,4.46,9.94,9.94-4.46,9.94-9.94,9.94Zm0-16.74c-3.75,0-6.8,3.05-6.8,6.8s3.05,6.8,6.8,6.8,6.8-3.05,6.8-6.8-3.05-6.8-6.8-6.8Z"/>
      <path class="cls-1" d="m37.56,47.5c-5.48,0-9.94-4.46-9.94-9.94s4.46-9.94,9.94-9.94,9.94,4.46,9.94,9.94-4.46,9.94-9.94,9.94Zm0-16.74c-3.75,0-6.8,3.05-6.8,6.8s3.05,6.8,6.8,6.8,6.8-3.05,6.8-6.8-3.05-6.8-6.8-6.8Z"/>
    </g>
  </g>
  <g id="guias">
    <g>
      <rect class="cls-2" x="47.5" y="47.5" width="2.5" height="2.5"/>
      <rect class="cls-2" x="47.5" width="2.5" height="2.5"/>
      <rect class="cls-2" y="47.5" width="2.5" height="2.5"/>
      <rect class="cls-2" width="2.5" height="2.5"/>
    </g>
  </g>
</svg>