<?xml version="1.0" encoding="UTF-8"?>
<svg xmlns="http://www.w3.org/2000/svg" viewBox="0 0 50 50">
  <defs>
    <style>
      .cls-1 {
        fill: none;
        stroke: #000;
        stroke-miterlimit: 10;
        stroke-width: .21px;
      }

      .cls-2 {
        fill: #1e1f22;
        stroke-width: 0px;
      }
    </style>
  </defs>
  <g id="iconos">
    <g>
      <path class="cls-2" d="m31.28,34.94c-8.94,0-16.22-7.28-16.22-16.22S22.33,2.5,31.28,2.5s16.22,7.28,16.22,16.22-7.28,16.22-16.22,16.22Zm0-29.3c-7.21,0-13.08,5.87-13.08,13.08s5.87,13.08,13.08,13.08,13.08-5.87,13.08-13.08-5.87-13.08-13.08-13.08Z"/>
      <path class="cls-2" d="m18.72,47.5c-8.94,0-16.22-7.28-16.22-16.22S9.78,15.06,18.72,15.06s16.22,7.28,16.22,16.22-7.28,16.22-16.22,16.22Zm0-29.3c-7.21,0-13.08,5.87-13.08,13.08s5.87,13.08,13.08,13.08,13.08-5.87,13.08-13.08-5.87-13.08-13.08-13.08Z"/>
    </g>
  </g>
  <g id="guias">
    <rect class="cls-1" x="47.5" y="47.5" width="2.5" height="2.5"/>
    <rect class="cls-1" x="47.5" width="2.5" height="2.5"/>
    <rect class="cls-1" y="47.5" width="2.5" height="2.5"/>
    <rect class="cls-1" width="2.5" height="2.5"/>
  </g>
</svg>