<?xml version="1.0" encoding="UTF-8"?>
<svg xmlns="http://www.w3.org/2000/svg" viewBox="0 0 50 50">
  <defs>
    <style>
      .cls-1 {
        fill: none;
        stroke: #000;
        stroke-miterlimit: 10;
        stroke-width: .21px;
      }

      .cls-2 {
        fill: #1e1f22;
        stroke-width: 0px;
      }
    </style>
  </defs>
  <g id="iconos">
    <g>
      <path class="cls-2" d="m31,47.17c-5.13,0-9.14-1.97-12.03-5.9-2.89-3.93-4.34-9.34-4.34-16.2s1.44-12.35,4.32-16.3c2.88-3.96,6.9-5.93,12.05-5.93s9.19,1.98,12.11,5.95,4.39,9.39,4.39,16.29-1.46,12.27-4.39,16.2c-2.92,3.93-6.96,5.9-12.11,5.9Zm-6.39-10.81c1.48,2.66,3.63,3.99,6.46,3.99s4.97-1.32,6.42-3.98c1.46-2.65,2.19-6.42,2.19-11.31s-.73-8.7-2.19-11.36c-1.46-2.66-3.6-4-6.42-4s-5.01,1.32-6.47,3.96c-1.47,2.64-2.2,6.44-2.2,11.39s.74,8.64,2.22,11.3Z"/>
      <g>
        <path class="cls-2" d="m6.94,34.08c-2.59,0-4.12-1.91-4.18-1.99-.41-.52-.32-1.26.2-1.67.52-.41,1.26-.32,1.67.2.03.04.9,1.08,2.32,1.08.55,0,.99-.17,1.31-.5.34-.35.53-.86.51-1.4-.02-.71-.28-1.62-2.13-2.43-.19-.08-.4-.16-.61-.24-1.32-.49-3.53-1.3-3.53-4.27,0-1.22.45-2.34,1.26-3.15.8-.79,1.89-1.23,3.09-1.23h.02c2.32,0,4.03,1.43,4.1,1.49.5.42.56,1.17.13,1.68-.43.5-1.17.55-1.67.14-.03-.02-1.15-.93-2.57-.93h0c-.58,0-1.07.18-1.42.53s-.55.88-.55,1.46c0,1.19.54,1.51,1.98,2.04.25.1.5.19.73.29,2.31,1,3.51,2.54,3.56,4.55.02,1.18-.41,2.32-1.19,3.12-.77.79-1.82,1.21-3.02,1.21Z"/>
        <path class="cls-2" d="m6.95,20.88c-.66,0-1.19-.53-1.19-1.19v-2.32c0-.66.53-1.19,1.19-1.19s1.19.53,1.19,1.19v2.32c0,.66-.53,1.19-1.19,1.19Z"/>
        <path class="cls-2" d="m6.93,36.23h0c-.66,0-1.19-.53-1.19-1.19v-2.15c0-.65.54-1.19,1.19-1.19h0c.66,0,1.19.53,1.19,1.19v2.15c0,.65-.54,1.19-1.19,1.19Z"/>
      </g>
    </g>
  </g>
  <g id="guias">
    <rect class="cls-1" x="47.5" y="47.5" width="2.5" height="2.5"/>
    <rect class="cls-1" x="47.5" width="2.5" height="2.5"/>
    <rect class="cls-1" y="47.5" width="2.5" height="2.5"/>
    <rect class="cls-1" width="2.5" height="2.5"/>
  </g>
</svg>