<?xml version="1.0" encoding="UTF-8"?>
<svg xmlns="http://www.w3.org/2000/svg" viewBox="0 0 50 50">
  <defs>
    <style>
      .cls-1 {
        fill: none;
        stroke: #000;
        stroke-miterlimit: 10;
        stroke-width: .21px;
      }

      .cls-2 {
        fill: #1e1f22;
        stroke-width: 0px;
      }
    </style>
  </defs>
  <g id="iconos">
    <path class="cls-2" d="m24.98,47.5c-.95,0-1.89-.22-2.77-.66l-15.25-8.49c-1.77-.89-3-2.95-3-5.11v-16.48c0-2.05,1.11-4.06,2.89-5.26L22.16,3.19c1.82-.91,3.85-.91,5.62-.03l15.25,8.49c1.77.88,3,2.95,3,5.11v16.48c0,1.98-1.05,3.81-2.89,5.04l-15.29,8.52c-.93.46-1.91.69-2.87.69Zm.04-41.75c-.46,0-.92.11-1.35.32l-15.13,8.21c-.74.5-1.32,1.52-1.32,2.47v16.48c0,.93.53,1.86,1.27,2.23l15.24,8.49c.79.39,1.76.39,2.6-.03l15.11-8.42c.43-.29,1.33-1.07,1.33-2.27v-16.48c0-.93-.53-1.86-1.27-2.23l-15.25-8.49c-.38-.19-.81-.29-1.25-.29Z"/>
  </g>
  <g id="guias">
    <rect class="cls-1" x="47.5" y="47.5" width="2.5" height="2.5"/>
    <rect class="cls-1" x="47.5" width="2.5" height="2.5"/>
    <rect class="cls-1" y="47.5" width="2.5" height="2.5"/>
    <rect class="cls-1" width="2.5" height="2.5"/>
  </g>
</svg>