<?xml version="1.0" encoding="UTF-8"?>
<svg xmlns="http://www.w3.org/2000/svg" viewBox="0 0 50 50">
  <defs>
    <style>
      .cls-1 {
        fill: none;
        stroke: #000;
        stroke-miterlimit: 10;
        stroke-width: .21px;
      }

      .cls-2 {
        fill: #1e1f22;
        stroke-width: 0px;
      }
    </style>
  </defs>
  <g id="iconos">
    <g>
      <path class="cls-2" d="m25.59,19.29c-.65,0-1.17-.53-1.17-1.17s.53-1.17,1.17-1.17,1.17.53,1.17,1.17-.53,1.17-1.17,1.17Zm0-1.78c-.33,0-.6.27-.6.61s.27.6.6.6.61-.27.61-.6-.27-.61-.61-.61Z"/>
      <path class="cls-2" d="m9.23,19.29c-.65,0-1.17-.53-1.17-1.17s.53-1.17,1.17-1.17,1.17.53,1.17,1.17-.53,1.17-1.17,1.17Zm0-1.78c-.33,0-.61.27-.61.61s.27.6.61.6.6-.27.6-.6-.27-.61-.6-.61Z"/>
      <path class="cls-2" d="m17.5,22.66c-2.83,0-5.13-2.27-5.13-5.05s2.3-5.05,5.13-5.05c.61,0,1.2.1,1.77.31.14.05.21.21.16.35s-.2.21-.35.16c-.51-.18-1.04-.28-1.59-.28-2.53,0-4.59,2.02-4.59,4.51s2.06,4.51,4.59,4.51,4.59-2.02,4.59-4.51c0-1.34-.6-2.6-1.65-3.47-.12-.09-.13-.26-.04-.38.09-.12.27-.13.38-.04,1.18.96,1.85,2.38,1.85,3.88,0,2.78-2.3,5.05-5.13,5.05Z"/>
      <g>
        <path class="cls-2" d="m17.5,19.8c-.71,0-1.14-.52-1.16-.54-.09-.12-.08-.29.04-.38.12-.09.29-.07.38.04.01.01.29.34.74.34.19,0,.34-.06.45-.17s.17-.27.17-.45c0-.22-.09-.51-.66-.76-.06-.02-.12-.05-.18-.07-.37-.13-.98-.36-.98-1.16,0-.33.12-.63.34-.85s.52-.34.85-.34h0c.65,0,1.13.39,1.15.41.11.09.13.26.03.38-.1.12-.26.13-.38.04,0,0-.35-.28-.8-.28h0c-.19,0-.35.06-.47.18-.12.11-.18.28-.18.46,0,.4.22.51.62.65.07.03.14.05.21.08.64.28.98.69.99,1.24,0,.32-.11.62-.32.84-.21.22-.5.33-.83.33Z"/>
        <path class="cls-2" d="m17.5,16.01h0c-.15,0-.27-.12-.27-.27v-.66c0-.15.12-.27.27-.27h0c.15,0,.27.12.27.27v.66c0,.15-.12.27-.27.27Z"/>
        <path class="cls-2" d="m17.5,20.41h0c-.15,0-.27-.12-.27-.27v-.61c0-.15.12-.27.27-.27h0c.15,0,.27.12.27.27v.61c0,.15-.12.27-.27.27Z"/>
      </g>
      <path class="cls-2" d="m32.11,39.3c-4.87,0-8.84-3.97-8.84-8.84s3.97-8.84,8.84-8.84,8.84,3.97,8.84,8.84-3.97,8.84-8.84,8.84Zm0-16.83c-4.41,0-7.99,3.59-7.99,7.99s3.59,7.99,7.99,7.99,7.99-3.59,7.99-7.99-3.59-7.99-7.99-7.99Z"/>
      <g>
        <path class="cls-2" d="m32.42,35.47c-2.17,0-3.94-2.25-3.94-5s1.77-5.01,3.94-5.01c1.04,0,2.02.5,2.76,1.42.17.2.13.5-.07.67-.21.16-.51.13-.67-.07-.55-.69-1.27-1.07-2.02-1.07-1.65,0-2.99,1.82-2.99,4.05s1.34,4.05,2.99,4.05c.74,0,1.46-.38,2.01-1.06.17-.21.47-.23.67-.07.2.17.24.47.07.67-.74.91-1.72,1.41-2.75,1.41Z"/>
        <path class="cls-2" d="m33.7,30.1h-6.06c-.26,0-.48-.21-.48-.48s.21-.48.48-.48h6.06c.26,0,.48.21.48.48s-.21.48-.48.48Z"/>
        <path class="cls-2" d="m33.04,31.93h-5.39c-.26,0-.48-.21-.48-.48s.21-.48.48-.48h5.39c.26,0,.48.21.48.48s-.21.48-.48.48Z"/>
      </g>
      <g>
        <path class="cls-2" d="m8.07,24.87h16.37c.14-.19.28-.38.44-.57H8.25c-.06.19-.13.38-.18.57Z"/>
        <path class="cls-2" d="m28.47,10.7H6.54c-.65,0-1.19.54-1.19,1.19v10c.19.06.38.12.57.16v-9.87c0-.5.41-.91.91-.91h21.36c.5,0,.91.41.91.91v9.26c.19-.06.38-.12.57-.17v-9.38c0-.65-.54-1.19-1.19-1.19Z"/>
      </g>
      <path class="cls-2" d="m18.94,37.4h0c-.19,0-13.09-.05-14.85-5.56-1.17-3.66,1.44-6.26,2.61-7.2.09.59.33,1.18.6,1.67.13-1.13.37-2.3.95-3.28.09-.15-.02-.31-.18-.29-1.15.12-2.31-.1-3.38-.5.3.45.8.97,1.34,1.29-1.31,1.04-4.6,4.21-3.17,8.71,2.03,6.36,15.29,6.46,16.07,6.46h.02c.36,0,.65-.29.65-.65s-.29-.65-.65-.65Z"/>
      <g>
        <path class="cls-2" d="m43.12,28.74c-.21,0-.42-.1-.55-.3-.19-.3-.11-.7.19-.9.19-.12,4.6-3.03,3.14-7.6-1.75-5.51-14.66-5.56-14.85-5.56h0c-.36,0-.65-.29-.65-.65s.29-.65.65-.65h.02c.78,0,14.04.1,16.07,6.46,1.76,5.52-3.62,9.05-3.68,9.08-.11.07-.23.1-.35.1Z"/>
        <path class="cls-2" d="m43.32,27.82c-.01.09.04.17.13.2.72.23,1.46.95,1.86,1.54-1.07-.4-2.23-.62-3.38-.5-.17.02-.27-.14-.18-.29.58-.98.83-2.15.95-3.28.36.68.71,1.55.62,2.33Z"/>
      </g>
      <g>
        <path class="cls-2" d="m6.88,23.05c.21,0,.42.1.55.3.19.3.11.7-.19.9-.19.12-4.6,3.03-3.14,7.6,1.75,5.51,14.66,5.56,14.85,5.56h0c.36,0,.65.29.65.65s-.29.65-.65.65h-.02c-.78,0-14.04-.1-16.07-6.46-1.76-5.52,3.62-9.05,3.68-9.08.11-.07.23-.1.35-.1Z"/>
        <path class="cls-2" d="m6.68,23.97c.01-.09-.04-.17-.13-.2-.72-.23-1.46-.95-1.86-1.54,1.07.4,2.23.62,3.38.5.17-.02.27.14.18.29-.58.98-.83,2.15-.95,3.28-.36-.68-.71-1.55-.62-2.33Z"/>
      </g>
    </g>
  </g>
  <g id="guias">
    <g>
      <rect class="cls-1" y="47.5" width="2.5" height="2.5"/>
      <rect class="cls-1" width="2.5" height="2.5"/>
    </g>
    <g>
      <rect class="cls-1" x="47.5" y="47.5" width="2.5" height="2.5"/>
      <rect class="cls-1" x="47.5" width="2.5" height="2.5"/>
    </g>
  </g>
</svg>