<?xml version="1.0" encoding="UTF-8"?>
<svg xmlns="http://www.w3.org/2000/svg" viewBox="0 0 50 50">
  <defs>
    <style>
      .cls-1 {
        fill: #2e3135;
        stroke-width: 0px;
      }

      .cls-2 {
        fill: none;
        stroke: #000;
        stroke-miterlimit: 10;
        stroke-width: .21px;
      }
    </style>
  </defs>
  <g id="iconos">
    <g>
      <path class="cls-1" d="m25,47.5c-12.41,0-22.5-10.09-22.5-22.5,0-4.94,1.57-9.64,4.54-13.57.52-.69,1.51-.83,2.2-.31.69.52.83,1.51.31,2.2-2.56,3.38-3.91,7.42-3.91,11.68,0,10.68,8.68,19.36,19.36,19.36s19.36-8.68,19.36-19.36S35.68,5.64,25,5.64c-.87,0-1.57-.7-1.57-1.57s.7-1.57,1.57-1.57c12.41,0,22.5,10.09,22.5,22.5s-10.09,22.5-22.5,22.5Z"/>
      <path class="cls-1" d="m25,41.22c-8.94,0-16.22-7.28-16.22-16.22,0-.87.7-1.57,1.57-1.57s1.57.7,1.57,1.57c0,7.21,5.87,13.08,13.08,13.08s13.08-5.87,13.08-13.08-5.87-13.08-13.08-13.08c-.87,0-1.57-.7-1.57-1.57s.7-1.57,1.57-1.57c8.94,0,16.22,7.28,16.22,16.22s-7.28,16.22-16.22,16.22Z"/>
      <path class="cls-1" d="m25,34.94c-.87,0-1.57-.7-1.57-1.57s.7-1.57,1.57-1.57c3.75,0,6.8-3.05,6.8-6.8s-3.05-6.8-6.8-6.8c-.87,0-1.57-.7-1.57-1.57s.7-1.57,1.57-1.57c5.48,0,9.94,4.46,9.94,9.94s-4.46,9.94-9.94,9.94Z"/>
    </g>
  </g>
  <g id="guias">
    <g>
      <rect class="cls-2" x="47.5" y="47.5" width="2.5" height="2.5"/>
      <rect class="cls-2" x="47.5" width="2.5" height="2.5"/>
      <rect class="cls-2" y="47.5" width="2.5" height="2.5"/>
      <rect class="cls-2" width="2.5" height="2.5"/>
    </g>
  </g>
</svg>