<?xml version="1.0" encoding="UTF-8"?>
<svg xmlns="http://www.w3.org/2000/svg" viewBox="0 0 50 50">
  <defs>
    <style>
      .cls-1 {
        fill: #2e3135;
        stroke-width: 0px;
      }

      .cls-2 {
        fill: none;
        stroke: #000;
        stroke-miterlimit: 10;
        stroke-width: .21px;
      }
    </style>
  </defs>
  <g id="iconos">
    <g>
      <path class="cls-1" d="m21.04,37.89h-7.93c-.87,0-1.57-.7-1.57-1.57v-10.72c0-2.18,1.78-3.96,3.96-3.96h5.55c.87,0,1.57.7,1.57,1.57v13.1c0,.87-.7,1.57-1.57,1.57Zm-6.36-3.14h4.79v-9.96h-3.98c-.45,0-.82.37-.82.82v9.15Z"/>
      <path class="cls-1" d="m28.96,37.87h-7.93c-.87,0-1.57-.7-1.57-1.57v-20.22c0-2.18,1.78-3.96,3.96-3.96h3.18c2.17,0,3.93,1.77,3.93,3.96v20.22c0,.87-.7,1.57-1.57,1.57Zm-6.36-3.14h4.79v-18.65c0-.46-.35-.82-.8-.82h-3.18c-.45,0-.82.37-.82.82v18.65Z"/>
      <path class="cls-1" d="m36.91,37.87h-7.93c-.87,0-1.57-.7-1.57-1.57v-9.52c0-.87.7-1.57,1.57-1.57h5.55c2.15,0,3.92,1.76,3.96,3.93v7.16c0,.87-.7,1.57-1.57,1.57Zm-6.36-3.14h4.79v-5.57c0-.44-.37-.82-.82-.82h-3.98v6.38Z"/>
      <path class="cls-1" d="m31.28,47.5h-12.56c-11.37,0-16.22-4.85-16.22-16.22v-12.56C2.5,7.35,7.35,2.5,18.72,2.5h12.56c11.37,0,16.22,4.85,16.22,16.22v12.56c0,11.37-4.85,16.22-16.22,16.22ZM18.72,5.64c-9.66,0-13.08,3.42-13.08,13.08v12.56c0,9.66,3.42,13.08,13.08,13.08h12.56c9.66,0,13.08-3.42,13.08-13.08v-12.56c0-9.66-3.42-13.08-13.08-13.08h-12.56Z"/>
    </g>
  </g>
  <g id="guias">
    <rect class="cls-2" x="47.5" y="47.5" width="2.5" height="2.5"/>
    <rect class="cls-2" x="47.5" width="2.5" height="2.5"/>
    <rect class="cls-2" y="47.5" width="2.5" height="2.5"/>
    <rect class="cls-2" width="2.5" height="2.5"/>
  </g>
</svg>