<?xml version="1.0" encoding="UTF-8"?>
<svg xmlns="http://www.w3.org/2000/svg" viewBox="0 0 50 50">
  <defs>
    <style>
      .cls-1 {
        fill: #2e3135;
        stroke-width: 0px;
      }

      .cls-2 {
        fill: none;
        stroke: #000;
        stroke-miterlimit: 10;
        stroke-width: .21px;
      }
    </style>
  </defs>
  <g id="iconos">
    <g>
      <path class="cls-1" d="m31.28,47.5h-12.56c-11.37,0-16.22-4.85-16.22-16.22v-12.56C2.5,7.35,7.35,2.5,18.72,2.5h12.56c11.37,0,16.22,4.85,16.22,16.22v12.56c0,11.37-4.85,16.22-16.22,16.22ZM18.72,5.64c-9.66,0-13.08,3.42-13.08,13.08v12.56c0,9.66,3.42,13.08,13.08,13.08h12.56c9.66,0,13.08-3.42,13.08-13.08v-12.56c0-9.66-3.42-13.08-13.08-13.08h-12.56Z"/>
      <path class="cls-1" d="m32.33,40.17c-3.17,0-5.76-2.58-5.76-5.76V15.58c0-3.17,2.58-5.76,5.76-5.76s5.76,2.58,5.76,5.76v18.84c0,3.17-2.58,5.76-5.76,5.76Zm0-27.21c-1.44,0-2.62,1.17-2.62,2.62v18.84c0,1.44,1.17,2.62,2.62,2.62s2.62-1.17,2.62-2.62V15.58c0-1.44-1.17-2.62-2.62-2.62Z"/>
      <path class="cls-1" d="m17.67,40.17c-3.17,0-5.76-2.58-5.76-5.76v-7.33c0-3.17,2.58-5.76,5.76-5.76s5.76,2.58,5.76,5.76v7.33c0,3.17-2.58,5.76-5.76,5.76Zm0-15.7c-1.44,0-2.62,1.17-2.62,2.62v7.33c0,1.44,1.17,2.62,2.62,2.62s2.62-1.17,2.62-2.62v-7.33c0-1.44-1.17-2.62-2.62-2.62Z"/>
    </g>
  </g>
  <g id="guias">
    <rect class="cls-2" x="47.5" y="47.5" width="2.5" height="2.5"/>
    <rect class="cls-2" x="47.5" width="2.5" height="2.5"/>
    <rect class="cls-2" y="47.5" width="2.5" height="2.5"/>
    <rect class="cls-2" width="2.5" height="2.5"/>
  </g>
</svg>