<?xml version="1.0" encoding="UTF-8"?>
<svg xmlns="http://www.w3.org/2000/svg" viewBox="0 0 50 50">
  <defs>
    <style>
      .cls-1 {
        fill: #2e3135;
        stroke-width: 0px;
      }

      .cls-2 {
        fill: none;
        stroke: #000;
        stroke-miterlimit: 10;
        stroke-width: .21px;
      }
    </style>
  </defs>
  <g id="iconos">
    <g>
      <path class="cls-1" d="m43.84,47.5H6.16c-.87,0-1.57-.7-1.57-1.57s.7-1.57,1.57-1.57h37.67c.87,0,1.57.7,1.57,1.57s-.7,1.57-1.57,1.57Z"/>
      <path class="cls-1" d="m11.6,41.22h-3.35c-2.02,0-3.66-1.64-3.66-3.66v-18.04c0-2.02,1.64-3.66,3.66-3.66h3.35c2.02,0,3.66,1.64,3.66,3.66v18.04c0,2.02-1.64,3.66-3.66,3.66Zm-3.35-22.23c-.28,0-.52.24-.52.52v18.04c0,.28.24.52.52.52h3.35c.28,0,.52-.24.52-.52v-18.04c0-.28-.24-.52-.52-.52h-3.35Z"/>
      <path class="cls-1" d="m26.67,41.22h-3.35c-2.02,0-3.66-1.64-3.66-3.66V12.84c0-2.02,1.64-3.66,3.66-3.66h3.35c2.02,0,3.66,1.64,3.66,3.66v24.72c0,2.02-1.64,3.66-3.66,3.66Zm-3.35-28.9c-.28,0-.52.24-.52.52v24.72c0,.28.24.52.52.52h3.35c.28,0,.52-.24.52-.52V12.84c0-.28-.24-.52-.52-.52h-3.35Z"/>
      <path class="cls-1" d="m41.74,41.22h-3.35c-2.02,0-3.66-1.64-3.66-3.66V6.16c0-2.02,1.64-3.66,3.66-3.66h3.35c2.02,0,3.66,1.64,3.66,3.66v31.4c0,2.02-1.64,3.66-3.66,3.66Zm-3.35-35.58c-.28,0-.52.24-.52.52v31.4c0,.28.24.52.52.52h3.35c.28,0,.52-.24.52-.52V6.16c0-.28-.24-.52-.52-.52h-3.35Z"/>
    </g>
  </g>
  <g id="guias">
    <rect class="cls-2" x="47.5" y="47.5" width="2.5" height="2.5"/>
    <rect class="cls-2" x="47.5" width="2.5" height="2.5"/>
    <rect class="cls-2" y="47.5" width="2.5" height="2.5"/>
    <rect class="cls-2" width="2.5" height="2.5"/>
  </g>
</svg>