<?xml version="1.0" encoding="UTF-8"?>
<svg xmlns="http://www.w3.org/2000/svg" viewBox="0 0 50 50">
  <defs>
    <style>
      .cls-1 {
        fill: #2e3135;
        stroke-width: 0px;
      }

      .cls-2 {
        fill: none;
        stroke: #000;
        stroke-miterlimit: 10;
        stroke-width: .21px;
      }
    </style>
  </defs>
  <g id="iconos">
    <g>
      <path class="cls-1" d="m27.09,47.5h-8.37c-11.37,0-16.22-4.85-16.22-16.22v-12.56C2.5,7.35,7.35,2.5,18.72,2.5h12.56c11.37,0,16.22,4.85,16.22,16.22v8.37c0,.87-.7,1.57-1.57,1.57s-1.57-.7-1.57-1.57v-8.37c0-9.66-3.42-13.08-13.08-13.08h-12.56c-9.66,0-13.08,3.42-13.08,13.08v12.56c0,9.66,3.42,13.08,13.08,13.08h8.37c.87,0,1.57.7,1.57,1.57s-.7,1.57-1.57,1.57Z"/>
      <path class="cls-1" d="m27.09,47.5h-8.37c-11.37,0-16.22-4.85-16.22-16.22v-12.56C2.5,7.35,7.35,2.5,18.72,2.5h12.56c11.37,0,16.22,4.85,16.22,16.22v8.37c0,.87-.7,1.57-1.57,1.57s-1.57-.7-1.57-1.57v-8.37c0-9.66-3.42-13.08-13.08-13.08h-12.56c-9.66,0-13.08,3.42-13.08,13.08v12.56c0,9.66,3.42,13.08,13.08,13.08h8.37c.87,0,1.57.7,1.57,1.57s-.7,1.57-1.57,1.57Z"/>
      <path class="cls-1" d="m27.09,47.5h-8.37c-11.37,0-16.22-4.85-16.22-16.22v-12.56C2.5,7.35,7.35,2.5,18.72,2.5h12.56c11.37,0,16.22,4.85,16.22,16.22v8.37c0,.87-.7,1.57-1.57,1.57s-1.57-.7-1.57-1.57v-8.37c0-9.66-3.42-13.08-13.08-13.08h-12.56c-9.66,0-13.08,3.42-13.08,13.08v12.56c0,9.66,3.42,13.08,13.08,13.08h8.37c.87,0,1.57.7,1.57,1.57s-.7,1.57-1.57,1.57Z"/>
      <path class="cls-1" d="m36.68,45.41c-.41,0-.81-.16-1.11-.46l-3.31-3.29c-.62-.61-.62-1.61,0-2.22.61-.62,1.61-.62,2.22,0l2.11,2.1,6.06-7.09c.57-.66,1.56-.73,2.21-.17.66.56.74,1.56.17,2.21l-7.16,8.37c-.28.33-.69.53-1.13.55-.02,0-.04,0-.06,0Z"/>
      <path class="cls-1" d="m14.53,29.71c-.87,0-1.57-.7-1.57-1.57v-6.28c0-.87.7-1.57,1.57-1.57s1.57.7,1.57,1.57v6.28c0,.87-.7,1.57-1.57,1.57Z"/>
      <path class="cls-1" d="m25,29.71c-.87,0-1.57-.7-1.57-1.57v-6.28c0-.87.7-1.57,1.57-1.57s1.57.7,1.57,1.57v6.28c0,.87-.7,1.57-1.57,1.57Z"/>
      <path class="cls-1" d="m35.46,29.71c-.87,0-1.57-.7-1.57-1.57v-6.28c0-.87.7-1.57,1.57-1.57s1.57.7,1.57,1.57v6.28c0,.87-.7,1.57-1.57,1.57Z"/>
    </g>
  </g>
  <g id="guias">
    <rect class="cls-2" x="47.5" y="47.5" width="2.5" height="2.5"/>
    <rect class="cls-2" x="47.5" width="2.5" height="2.5"/>
    <rect class="cls-2" y="47.5" width="2.5" height="2.5"/>
    <rect class="cls-2" width="2.5" height="2.5"/>
  </g>
</svg>