<?xml version="1.0" encoding="UTF-8"?>
<svg xmlns="http://www.w3.org/2000/svg" viewBox="0 0 50 50">
  <defs>
    <style>
      .cls-1 {
        fill: #2e3135;
        stroke-width: 0px;
      }

      .cls-2 {
        fill: none;
        stroke: #000;
        stroke-miterlimit: 10;
        stroke-width: .21px;
      }
    </style>
  </defs>
  <g id="iconos">
    <g>
      <path class="cls-1" d="m45.93,47.5H4.07c-.87,0-1.57-.7-1.57-1.57s.7-1.57,1.57-1.57h41.86c.87,0,1.57.7,1.57,1.57s-.7,1.57-1.57,1.57Z"/>
      <path class="cls-1" d="m29.71,47.5h-9.42c-.87,0-1.57-.7-1.57-1.57V8.26c0-3.6,1.99-5.76,5.34-5.76h1.88c3.34,0,5.34,2.15,5.34,5.76v37.67c0,.87-.7,1.57-1.57,1.57Zm-7.85-3.14h6.28V8.26c0-2.41-1.13-2.62-2.2-2.62h-1.88c-1.06,0-2.2.2-2.2,2.62v36.1Z"/>
      <path class="cls-1" d="m14.53,47.5H6.16c-.87,0-1.57-.7-1.57-1.57v-25.12c0-3.6,1.84-5.76,4.92-5.76h1.68c3.08,0,4.92,2.15,4.92,5.76v25.12c0,.87-.7,1.57-1.57,1.57Zm-6.8-3.14h5.23v-23.55c0-2.62-1.16-2.62-1.78-2.62h-1.68c-.62,0-1.78,0-1.78,2.62v23.55Z"/>
      <path class="cls-1" d="m43.84,47.5h-8.37c-.87,0-1.57-.7-1.57-1.57v-14.65c0-3.6,1.84-5.76,4.92-5.76h1.68c3.08,0,4.92,2.15,4.92,5.76v14.65c0,.87-.7,1.57-1.57,1.57Zm-6.8-3.14h5.23v-13.08c0-2.62-1.16-2.62-1.78-2.62h-1.68c-.62,0-1.78,0-1.78,2.62v13.08Z"/>
    </g>
  </g>
  <g id="guias">
    <rect class="cls-2" x="47.5" y="47.5" width="2.5" height="2.5"/>
    <rect class="cls-2" x="47.5" width="2.5" height="2.5"/>
    <rect class="cls-2" y="47.5" width="2.5" height="2.5"/>
    <rect class="cls-2" width="2.5" height="2.5"/>
  </g>
</svg>