<?xml version="1.0" encoding="UTF-8"?>
<svg xmlns="http://www.w3.org/2000/svg" viewBox="0 0 50 50">
  <defs>
    <style>
      .cls-1 {
        fill: none;
        stroke: #000;
        stroke-miterlimit: 10;
        stroke-width: .21px;
      }

      .cls-2 {
        fill: #1e1f22;
        stroke-width: 0px;
      }
    </style>
  </defs>
  <g id="iconos">
    <g>
      <g>
        <path class="cls-2" d="m9.55,29.67c-.51,0-.95-.2-1.16-.36-.23-.17-.28-.49-.12-.71.17-.23.48-.28.71-.12,0,0,.38.26.8.13.16-.05.27-.13.33-.25.07-.13.08-.31.03-.48-.08-.24-.24-.49-.89-.57-.07,0-.15-.02-.22-.02-.48-.04-1.38-.1-1.7-1.18-.27-.91.2-1.79,1.08-2.05.79-.24,1.52.07,1.6.11.26.12.37.42.26.67-.12.26-.42.37-.67.26-.01,0-.46-.19-.89-.06-.43.13-.48.5-.4.78.11.37.29.41.8.45.1,0,.19.01.28.03.91.12,1.5.55,1.73,1.27.14.43.11.89-.09,1.27-.19.37-.52.63-.94.75-.18.05-.36.08-.53.08Z"/>
        <path class="cls-2" d="m8.58,25.06c-.22,0-.42-.14-.49-.37l-.24-.8c-.08-.27.07-.56.34-.63.27-.09.56.07.63.34l.24.8c.08.27-.07.56-.34.63-.05.02-.1.02-.15.02Z"/>
        <path class="cls-2" d="m10.15,30.36c-.22,0-.42-.14-.49-.37l-.22-.74c-.08-.27.07-.56.34-.63.28-.09.56.07.63.34l.22.74c.08.27-.07.56-.34.63-.05.02-.1.02-.15.02Z"/>
      </g>
      <path class="cls-2" d="m8.78,40.81c-.08,0-.17-.02-.24-.06-.12-.06-.21-.17-.25-.3L3.04,22.8c-.08-.27.07-.56.34-.63l33.9-10.08c.27-.09.56.07.63.34l.96,3.24c.08.27-.07.56-.34.63-.26.09-.56-.07-.63-.34l-.82-2.75L4.17,23l4.96,16.67,32.92-9.79-1.47-4.94c-.08-.27.07-.56.34-.63.27-.08.56.07.63.34l1.62,5.43c.04.13.02.27-.04.39s-.17.21-.3.25l-33.9,10.08s-.1.02-.15.02Z"/>
      <g>
        <line class="cls-2" x1="32.23" y1="18.64" x2="35.17" y2="17.76"/>
        <path class="cls-2" d="m32.23,19.15c-.22,0-.42-.14-.49-.37-.08-.27.07-.56.34-.63l2.95-.88c.27-.09.56.07.63.34.08.27-.07.56-.34.63l-2.95.88s-.1.02-.15.02Z"/>
      </g>
      <g>
        <line class="cls-2" x1="9.54" y1="32.38" x2="35.19" y2="24.75"/>
        <path class="cls-2" d="m9.54,32.9c-.22,0-.42-.14-.49-.37-.08-.27.07-.56.34-.63l25.65-7.63c.27-.08.56.07.63.34.08.27-.07.56-.34.63l-25.65,7.63s-.1.02-.15.02Z"/>
      </g>
      <path class="cls-2" d="m35.15,29.78c-.08,0-.17-.02-.24-.06-.15-.08-.26-.24-.27-.42-.16-2.29.32-4.55,1.37-6.56l6.57-12.54c.24-.46.64-.79,1.13-.93.5-.14,1.01-.09,1.46.17l.61.34c.91.51,1.26,1.69.78,2.61l-6.57,12.54c-1.05,2.01-2.63,3.66-4.57,4.78-.08.05-.17.07-.26.07Zm9.08-19.57c-.08,0-.16.01-.24.04-.22.07-.4.22-.51.43l-6.57,12.54c-.83,1.58-1.27,3.34-1.28,5.14,1.44-.99,2.62-2.32,3.44-3.9l6.57-12.54c.23-.44.07-1-.37-1.25l-.61-.34c-.13-.07-.28-.11-.42-.11Z"/>
      <path class="cls-2" d="m44.35,20.54c-.08,0-.16-.02-.24-.06-.25-.13-.35-.44-.22-.69l1.96-3.74c.23-.44.07-1-.37-1.25l-3.68-2.06c-.25-.14-.33-.45-.2-.69.14-.25.45-.34.69-.2l3.68,2.06c.91.51,1.26,1.68.78,2.61l-1.96,3.74c-.09.17-.27.27-.45.27Z"/>
      <path class="cls-2" d="m41.89,20.7c-.09,0-.17-.02-.25-.07l-3.07-1.71c-.25-.14-.33-.45-.2-.69.13-.25.45-.34.69-.2l3.07,1.71c.25.14.33.45.2.69-.09.17-.27.26-.45.26Z"/>
      <path class="cls-2" d="m29.49,31.65c-.25,0-.41-.05-.43-.06-.27-.09-.41-.38-.33-.64.09-.26.36-.42.63-.33.06.01.93.21,1.64-1.61.07-.19.25-.31.44-.33.22,0,.39.09.48.27.04.08.47.75,1.44.56,1.03-.22,1.27-1.44,1.28-1.49.05-.28.31-.47.59-.41.28.05.46.31.41.59-.01.08-.36,1.95-2.07,2.31-.85.18-1.51-.07-1.96-.41-.73,1.32-1.62,1.55-2.13,1.55Z"/>
    </g>
  </g>
  <g id="guias">
    <g>
      <rect class="cls-1" x="47.5" y="47.5" width="2.5" height="2.5"/>
      <rect class="cls-1" x="47.5" width="2.5" height="2.5"/>
      <rect class="cls-1" y="47.5" width="2.5" height="2.5"/>
      <rect class="cls-1" width="2.5" height="2.5"/>
    </g>
  </g>
</svg>