<?xml version="1.0" encoding="UTF-8"?>
<svg xmlns="http://www.w3.org/2000/svg" viewBox="0 0 50 50">
  <defs>
    <style>
      .cls-1 {
        fill: #2e3135;
        stroke-width: 0px;
      }

      .cls-2 {
        fill: none;
        stroke: #000;
        stroke-miterlimit: 10;
        stroke-width: .21px;
      }
    </style>
  </defs>
  <g id="iconos">
    <g>
      <path class="cls-1" d="m22.95,42.27h-7.37c-1.56,0-2.7-.06-3.69-.2-6.97-.77-8.34-4.92-8.34-11.83v-10.47c0-6.91,1.37-11.06,8.39-11.84.93-.13,2.07-.2,3.64-.2h7.24c.87,0,1.57.7,1.57,1.57s-.7,1.57-1.57,1.57h-7.24c-1.42,0-2.42.05-3.25.17-4.25.47-5.64,1.79-5.64,8.72v10.47c0,6.93,1.4,8.25,5.59,8.72.89.12,1.89.18,3.3.18h7.37c.87,0,1.57.7,1.57,1.57s-.7,1.57-1.57,1.57Z"/>
      <path class="cls-1" d="m34.42,42.27h-3.1c-.87,0-1.57-.7-1.57-1.57s.7-1.57,1.57-1.57h3.1c1.41,0,2.41-.05,3.25-.17,4.25-.47,5.64-1.79,5.64-8.72v-10.47c0-6.93-1.4-8.25-5.59-8.72-.88-.12-1.88-.18-3.3-.18h-3.1c-.87,0-1.57-.7-1.57-1.57s.7-1.57,1.57-1.57h3.1c1.58,0,2.72.06,3.7.2,6.96.77,8.34,4.92,8.34,11.83v10.47c0,6.91-1.37,11.06-8.39,11.84-.94.13-2.08.2-3.65.2Z"/>
      <path class="cls-1" d="m31.28,47.5c-.87,0-1.57-.7-1.57-1.57V4.07c0-.87.7-1.57,1.57-1.57s1.57.7,1.57,1.57v41.86c0,.87-.7,1.57-1.57,1.57Z"/>
      <path class="cls-1" d="m16.63,33.9c-.87,0-1.57-.7-1.57-1.57v-14.65c0-.87.7-1.57,1.57-1.57s1.57.7,1.57,1.57v14.65c0,.87-.7,1.57-1.57,1.57Z"/>
    </g>
  </g>
  <g id="guias">
    <rect class="cls-2" x="47.5" y="47.5" width="2.5" height="2.5"/>
    <rect class="cls-2" x="47.5" width="2.5" height="2.5"/>
    <rect class="cls-2" y="47.5" width="2.5" height="2.5"/>
    <rect class="cls-2" width="2.5" height="2.5"/>
  </g>
</svg>