<?xml version="1.0" encoding="UTF-8"?>
<svg xmlns="http://www.w3.org/2000/svg" viewBox="0 0 50 50">
  <defs>
    <style>
      .cls-1 {
        fill: #2e3135;
        stroke-width: 0px;
      }

      .cls-2 {
        fill: none;
        stroke: #000;
        stroke-miterlimit: 10;
        stroke-width: .21px;
      }
    </style>
  </defs>
  <g id="iconos">
    <g>
      <path class="cls-1" d="m25,47.5c-12.41,0-22.5-10.09-22.5-22.5S12.59,2.5,25,2.5s22.5,10.09,22.5,22.5-10.09,22.5-22.5,22.5Zm0-41.86C14.32,5.64,5.64,14.32,5.64,25s8.68,19.36,19.36,19.36,19.36-8.68,19.36-19.36S35.68,5.64,25,5.64Z"/>
      <path class="cls-1" d="m25,34.94c-5.48,0-9.94-4.46-9.94-9.94s4.46-9.94,9.94-9.94,9.94,4.46,9.94,9.94-4.46,9.94-9.94,9.94Zm0-16.74c-3.75,0-6.8,3.05-6.8,6.8s3.05,6.8,6.8,6.8,6.8-3.05,6.8-6.8-3.05-6.8-6.8-6.8Z"/>
      <path class="cls-1" d="m44.2,18.2c-.11,0-.22-.01-.34-.04-6.06-1.32-12.47-1.32-18.52,0-.84.18-1.68-.35-1.87-1.2-.19-.85.35-1.68,1.2-1.87,6.5-1.42,13.36-1.42,19.87,0,.85.18,1.38,1.02,1.2,1.87-.16.73-.81,1.23-1.53,1.23Z"/>
      <path class="cls-1" d="m17.76,30.76c-.44,0-.87-.18-1.18-.54-4.35-5-7.66-10.72-9.86-17.01l1.44-.64,1.48-.51.04.12c2.06,5.9,5.18,11.28,9.26,15.98.57.65.5,1.65-.15,2.21-.3.26-.66.39-1.03.39Z"/>
      <path class="cls-1" d="m22.66,47.37c-.38,0-.75-.13-1.05-.41-.64-.58-.69-1.58-.11-2.22,4.18-4.61,7.28-9.95,9.19-15.88,0-.03.08-.22.09-.25.31-.81,1.21-1.22,2.03-.9.81.31,1.21,1.22.9,2.03-2.09,6.44-5.4,12.17-9.89,17.11-.31.34-.74.52-1.16.52Z"/>
    </g>
  </g>
  <g id="guias">
    <rect class="cls-2" x="47.5" y="47.5" width="2.5" height="2.5"/>
    <rect class="cls-2" x="47.5" width="2.5" height="2.5"/>
    <rect class="cls-2" y="47.5" width="2.5" height="2.5"/>
    <rect class="cls-2" width="2.5" height="2.5"/>
  </g>
</svg>