<?xml version="1.0" encoding="UTF-8"?>
<svg xmlns="http://www.w3.org/2000/svg" viewBox="0 0 50 50">
  <defs>
    <style>
      .cls-1 {
        fill: none;
        stroke: #000;
        stroke-miterlimit: 10;
        stroke-width: .21px;
      }

      .cls-2 {
        fill: #1e1f22;
        stroke-width: 0px;
      }
    </style>
  </defs>
  <g id="iconos">
    <g>
      <path class="cls-2" d="m11.53,47.5c-.3,0-.55-.25-.55-.55v-23.34c0-.3.25-.55.55-.55h2.99v-3.05c0-.3.25-.55.55-.55h7.11c.3,0,.55.25.55.55v3.05h3.56c.3,0,.55.24.55.54s-.25.56-.55.56h-4.11c-.15,0-.29-.05-.39-.15s-.16-.24-.16-.39v-3.05h-6v3.05c0,.3-.25.55-.55.55h-2.99v22.78c0,.3-.25.55-.55.55Z"/>
      <path class="cls-2" d="m40.55,47.5c-.3,0-.55-.25-.55-.55V14.05l-13.14-9.89v42.78c0,.3-.25.55-.55.55s-.55-.25-.55-.55V3.05c0-.21.12-.4.31-.5.19-.09.41-.07.58.05l14.25,10.72c.14.11.22.27.22.44v33.18c0,.3-.25.55-.55.55Z"/>
      <path class="cls-2" d="m17.73,28.51h-6.2c-.3,0-.55-.25-.55-.55s.25-.55.55-.55h6.2c.3,0,.55.25.55.55s-.25.55-.55.55Z"/>
      <path class="cls-2" d="m17.73,32.85h-6.2c-.3,0-.55-.25-.55-.55s.25-.55.55-.55h6.2c.3,0,.55.25.55.55s-.25.55-.55.55Z"/>
      <path class="cls-2" d="m17.73,37.19h-6.2c-.3,0-.55-.25-.55-.55s.25-.55.55-.55h6.2c.3,0,.55.25.55.55s-.25.55-.55.55Z"/>
      <path class="cls-2" d="m17.73,41.53h-6.2c-.3,0-.55-.25-.55-.55s.25-.55.55-.55h6.2c.3,0,.55.25.55.55s-.25.55-.55.55Z"/>
      <path class="cls-2" d="m23.29,28.51h-3.09c-.3,0-.55-.25-.55-.55s.25-.55.55-.55h3.09c.3,0,.55.25.55.55s-.25.55-.55.55Z"/>
      <path class="cls-2" d="m23.29,32.85h-3.09c-.3,0-.55-.25-.55-.55s.25-.55.55-.55h3.09c.3,0,.55.25.55.55s-.25.55-.55.55Z"/>
      <path class="cls-2" d="m23.29,37.19h-3.09c-.3,0-.55-.25-.55-.55s.25-.55.55-.55h3.09c.3,0,.55.25.55.55s-.25.55-.55.55Z"/>
      <path class="cls-2" d="m23.29,41.53h-3.09c-.3,0-.55-.25-.55-.55s.25-.55.55-.55h3.09c.3,0,.55.25.55.55s-.25.55-.55.55Z"/>
      <path class="cls-2" d="m35.53,16.68h-6.62c-.3,0-.55-.25-.55-.55s.25-.55.55-.55h6.62c.3,0,.55.25.55.55s-.25.55-.55.55Z"/>
      <path class="cls-2" d="m35.53,21.56h-6.62c-.3,0-.55-.25-.55-.55s.25-.55.55-.55h6.62c.3,0,.55.25.55.55s-.25.55-.55.55Z"/>
      <path class="cls-2" d="m35.53,26.44h-6.62c-.3,0-.55-.25-.55-.55s.25-.55.55-.55h6.62c.3,0,.55.25.55.55s-.25.55-.55.55Z"/>
      <path class="cls-2" d="m35.53,31.33h-6.62c-.3,0-.55-.25-.55-.55s.25-.55.55-.55h6.62c.3,0,.55.25.55.55s-.25.55-.55.55Z"/>
      <path class="cls-2" d="m35.53,36.21h-6.62c-.3,0-.55-.25-.55-.55s.25-.55.55-.55h6.62c.3,0,.55.25.55.55s-.25.55-.55.55Z"/>
      <path class="cls-2" d="m35.53,41.1h-6.62c-.3,0-.55-.25-.55-.55s.25-.55.55-.55h6.62c.3,0,.55.25.55.55s-.25.55-.55.55Z"/>
      <path class="cls-2" d="m42.44,47.5H7.56c-.3,0-.55-.25-.55-.55s.25-.55.55-.55h34.88c.3,0,.55.25.55.55s-.25.55-.55.55Z"/>
    </g>
  </g>
  <g id="guias">
    <rect class="cls-1" x="47.5" y="47.5" width="2.5" height="2.5"/>
    <rect class="cls-1" x="47.5" width="2.5" height="2.5"/>
    <rect class="cls-1" y="47.5" width="2.5" height="2.5"/>
    <rect class="cls-1" width="2.5" height="2.5"/>
  </g>
</svg>