<?xml version="1.0" encoding="UTF-8"?>
<svg xmlns="http://www.w3.org/2000/svg" viewBox="0 0 50 50">
  <defs>
    <style>
      .cls-1 {
        fill: none;
        stroke: #000;
        stroke-miterlimit: 10;
        stroke-width: .21px;
      }

      .cls-2 {
        fill: #1e1f22;
        stroke-width: 0px;
      }
    </style>
  </defs>
  <g id="iconos">
    <g>
      <path class="cls-2" d="m25.64,34.92c-2.25,0-4.16-1.91-4.16-4.16v-3.43c-1.47-1.2-2.35-3.07-2.35-5.1s.94-3.98,2.57-5.26c1.63-1.27,3.75-1.71,5.81-1.2l.33.12c.77.38,3.32,1.85,4.03,4.65.68,2.53-.15,5.13-2.08,6.76v3.46c0,2.25-1.9,4.16-4.16,4.16Zm.16-16.16c-.78,0-1.51.25-2.13.73-.85.66-1.34,1.66-1.34,2.74,0,1.21.6,2.34,1.54,2.88l.81.46v5.19c0,.4.36.96.96.96.4,0,.96-.36.96-.96v-5.15l.75-.47c.97-.61,1.93-1.96,1.44-3.77v-.04c-.29-1.12-1.33-2.02-2.21-2.5-.26-.05-.52-.08-.77-.08Z"/>
      <path class="cls-2" d="m25.43,47.93c-12.64,0-22.93-10.28-22.93-22.93S12.78,2.07,25.43,2.07c9.88,0,18.92,6.59,21.99,16.03.27.84-.19,1.74-1.02,2.02-.84.27-1.75-.19-2.02-1.02-2.65-8.14-10.44-13.82-18.95-13.82C14.55,5.27,5.7,14.12,5.7,25s8.85,19.73,19.73,19.73c8.79,0,16.31-5.54,18.72-13.78.25-.85,1.13-1.33,1.98-1.09.85.25,1.33,1.14,1.09,1.98-2.82,9.62-11.57,16.08-21.79,16.08Z"/>
    </g>
  </g>
  <g id="guias">
    <rect class="cls-1" x="47.5" y="47.5" width="2.5" height="2.5"/>
    <rect class="cls-1" x="47.5" width="2.5" height="2.5"/>
    <rect class="cls-1" y="47.5" width="2.5" height="2.5"/>
    <rect class="cls-1" width="2.5" height="2.5"/>
  </g>
</svg>