<?xml version="1.0" encoding="UTF-8"?>
<svg xmlns="http://www.w3.org/2000/svg" viewBox="0 0 50 50">
  <defs>
    <style>
      .cls-1 {
        fill: #2e3135;
        stroke-width: 0px;
      }

      .cls-2 {
        fill: none;
        stroke: #000;
        stroke-miterlimit: 10;
        stroke-width: .21px;
      }
    </style>
  </defs>
  <g id="iconos">
    <g>
      <path class="cls-1" d="m29.19,35.28c-.4,0-.8-.15-1.11-.46l-8.29-8.29c-.61-.61-.61-1.61,0-2.22s1.61-.61,2.22,0l8.29,8.29c.61.61.61,1.61,0,2.22-.31.31-.71.46-1.11.46Z"/>
      <path class="cls-1" d="m20.81,35.36c-.4,0-.8-.15-1.11-.46-.61-.61-.61-1.61,0-2.22l8.29-8.29c.61-.61,1.61-.61,2.22,0s.61,1.61,0,2.22l-8.29,8.29c-.31.31-.71.46-1.11.46Z"/>
      <path class="cls-1" d="m29.19,14.01h-8.37c-2.01,0-5.76,0-5.76-5.76s3.74-5.76,5.76-5.76h8.37c2.01,0,5.76,0,5.76,5.76,0,2.01,0,5.76-5.76,5.76Zm-8.37-8.37c-2.06,0-2.62,0-2.62,2.62s.55,2.62,2.62,2.62h8.37c2.62,0,2.62-.55,2.62-2.62,0-2.62-.55-2.62-2.62-2.62h-8.37Z"/>
      <path class="cls-1" d="m31.28,47.5h-12.56c-11.76,0-14.13-5.41-14.13-14.13v-12.56c0-9.54,3.46-13.63,11.95-14.08.85-.09,1.61.62,1.65,1.48s-.62,1.61-1.48,1.65c-5.96.32-8.98,2.11-8.98,10.95v12.56c0,7.75,1.53,10.99,10.99,10.99h12.56c9.46,0,10.99-3.24,10.99-10.99v-12.56c0-8.84-3.02-10.63-8.98-10.95-.87-.05-1.53-.79-1.48-1.65.05-.87.79-1.56,1.65-1.48,8.49.46,11.95,4.54,11.95,14.08v12.56c0,8.72-2.36,14.13-14.13,14.13Z"/>
    </g>
  </g>
  <g id="guias">
    <g>
      <rect class="cls-2" x="47.5" y="47.5" width="2.5" height="2.5"/>
      <rect class="cls-2" x="47.5" width="2.5" height="2.5"/>
      <rect class="cls-2" y="47.5" width="2.5" height="2.5"/>
      <rect class="cls-2" width="2.5" height="2.5"/>
    </g>
  </g>
</svg>