<?xml version="1.0" encoding="UTF-8"?>
<svg xmlns="http://www.w3.org/2000/svg" viewBox="0 0 50 50">
  <defs>
    <style>
      .cls-1 {
        fill: #2e3135;
        stroke-width: 0px;
      }

      .cls-2 {
        fill: none;
        stroke: #000;
        stroke-miterlimit: 10;
        stroke-width: .21px;
      }
    </style>
  </defs>
  <g id="iconos">
    <g>
      <path class="cls-1" d="m28.27,40.52c-1.12,0-2.33-.1-3.63-.3l-9.82-1.55c-3.11-.48-5.48-1.33-7.26-2.59-4.58-3.19-4.32-8.65-3.72-12.47l1.55-9.82C6.82,4.79,11.47,1.41,20.45,2.8l9.82,1.55c4.63.72,10.83,2.59,11.24,10.4.09,1.34,0,2.87-.29,4.67l-1.53,9.82c-1.22,7.7-4.8,11.29-11.43,11.29ZM16.71,5.62c-4.99,0-7.24,2.53-8.21,8.65l-1.55,9.82c-.97,6.18.79,8.27,2.42,9.42,1.38.98,3.32,1.65,5.94,2.06l9.82,1.55c7.32,1.15,10.31-1.05,11.47-8.36l1.53-9.81c.25-1.57.33-2.88.26-3.99,0,0,0-.01,0-.02-.23-4.39-2.72-6.55-8.6-7.47l-9.82-1.55c-1.2-.19-2.28-.29-3.26-.29Z"/>
      <path class="cls-1" d="m31.67,47.5c-1.78,0-3.79-.38-6.11-1.15l-9.44-3.14c-5.38-1.78-8.29-4.34-9.17-8.06-.15-.64.11-1.3.65-1.66.54-.36,1.25-.36,1.79.02,1.37.97,3.31,1.64,5.93,2.05l9.82,1.55c7.32,1.15,10.31-1.05,11.47-8.36l1.53-9.81c.25-1.57.33-2.88.26-3.99-.04-.57.24-1.11.71-1.42.48-.31,1.09-.34,1.59-.07,5.62,2.98,7.1,7.79,4.67,15.11h0l-3.14,9.44c-1.48,4.45-3.43,7.15-6.15,8.52-1.31.65-2.75.98-4.4.98Zm-18.73-9.2c1,.67,2.35,1.32,4.17,1.92l9.44,3.14c7.04,2.34,10.35.68,12.69-6.35l3.14-9.44c1.72-5.18,1.04-7.96-.93-9.81-.05.53-.12,1.08-.21,1.65l-1.53,9.82c-1.43,9-6.08,12.38-15.06,10.98l-9.82-1.55c-.66-.1-1.29-.22-1.89-.36Zm30.93-10.23h.02-.02Z"/>
      <path class="cls-1" d="m18.2,20.24c-2.87,0-5.21-2.34-5.21-5.21s2.34-5.21,5.21-5.21,5.21,2.34,5.21,5.21-2.34,5.21-5.21,5.21Zm0-7.29c-1.14,0-2.07.93-2.07,2.07s.93,2.07,2.07,2.07,2.07-.93,2.07-2.07-.93-2.07-2.07-2.07Z"/>
    </g>
  </g>
  <g id="guias">
    <rect class="cls-2" x="47.5" y="47.5" width="2.5" height="2.5"/>
    <rect class="cls-2" x="47.5" width="2.5" height="2.5"/>
    <rect class="cls-2" y="47.5" width="2.5" height="2.5"/>
    <rect class="cls-2" width="2.5" height="2.5"/>
  </g>
</svg>