<?xml version="1.0" encoding="UTF-8"?>
<svg xmlns="http://www.w3.org/2000/svg" viewBox="0 0 50 50">
  <defs>
    <style>
      .cls-1 {
        fill: #2e3135;
        stroke-width: 0px;
      }

      .cls-2 {
        fill: none;
        stroke: #000;
        stroke-miterlimit: 10;
        stroke-width: .21px;
      }
    </style>
  </defs>
  <g id="iconos">
    <g>
      <path class="cls-1" d="m25,47.5c-12.41,0-22.5-10.09-22.5-22.5S12.59,2.5,25,2.5s22.5,10.09,22.5,22.5-10.09,22.5-22.5,22.5Zm0-41.86C14.32,5.64,5.64,14.32,5.64,25s8.68,19.36,19.36,19.36,19.36-8.68,19.36-19.36S35.68,5.64,25,5.64Z"/>
      <path class="cls-1" d="m32.76,33.23c-.27,0-.55-.07-.8-.22l-6.49-3.87c-1.6-.95-2.82-3.08-2.82-4.95v-8.58c0-.87.7-1.57,1.57-1.57s1.57.7,1.57,1.57v8.58c0,.77.62,1.86,1.28,2.25l6.49,3.88c.74.44.99,1.41.54,2.15-.29.49-.81.76-1.35.76Z"/>
    </g>
  </g>
  <g id="guias">
    <rect class="cls-2" x="47.5" y="47.5" width="2.5" height="2.5"/>
    <rect class="cls-2" x="47.5" width="2.5" height="2.5"/>
    <rect class="cls-2" y="47.5" width="2.5" height="2.5"/>
    <rect class="cls-2" width="2.5" height="2.5"/>
  </g>
</svg>