<?xml version="1.0" encoding="UTF-8"?>
<svg xmlns="http://www.w3.org/2000/svg" viewBox="0 0 50 50">
  <defs>
    <style>
      .cls-1 {
        fill: #2e3135;
        stroke-width: 0px;
      }

      .cls-2 {
        fill: none;
        stroke: #000;
        stroke-miterlimit: 10;
        stroke-width: .21px;
      }
    </style>
  </defs>
  <g id="iconos">
    <g>
      <path class="cls-1" d="m27.93,30.44c-.4,0-.8-.15-1.11-.46l-2.93-2.93c-.29-.29-.46-.69-.46-1.11v-5.84c0-.87.7-1.57,1.57-1.57s1.57.7,1.57,1.57v5.19l2.47,2.47c.61.61.61,1.61,0,2.22-.31.31-.71.46-1.11.46Z"/>
      <path class="cls-1" d="m25,40.17c-3.32,0-6.46-1.05-9.1-3.04-.06-.03-.11-.07-.17-.11-3.75-2.9-5.91-7.28-5.91-12.02,0-8.37,6.81-15.17,15.17-15.17s15.17,6.81,15.17,15.17c0,4.71-2.13,9.07-5.84,11.97-.06.04-.11.08-.17.12-2.65,2.02-5.81,3.08-9.17,3.08Zm-7.48-5.74c.05.03.1.07.15.1,4.26,3.29,10.5,3.26,14.71-.04.05-.04.1-.08.16-.11,2.86-2.3,4.49-5.71,4.49-9.39,0-6.64-5.4-12.03-12.03-12.03s-12.03,5.4-12.03,12.03c0,3.7,1.66,7.13,4.56,9.43Z"/>
      <path class="cls-1" d="m26.15,47.5h-2.28c-4.11,0-6.62-2.04-7.68-6.23l-1.04-5.18c-.09-.46.03-.94.32-1.3s.74-.57,1.21-.57h.02c.35,0,.68.11.96.33,4.26,3.29,10.5,3.26,14.71-.04.65-.51,1.67-.39,2.19.25.3.37.43.85.33,1.31l-1.07,5.17c-1.09,4.25-3.6,6.27-7.69,6.27Zm-7.23-8.59l.34,1.67c.79,3.13,2.42,3.78,4.61,3.78h2.28c2.19,0,3.81-.65,4.63-3.84l.34-1.62c-3.79,1.68-8.39,1.69-12.2.01Z"/>
      <path class="cls-1" d="m33.37,15.83c-.35,0-.71-.12-.99-.33-4.21-3.3-10.46-3.33-14.71-.03-.65.5-1.67.38-2.19-.25-.3-.36-.43-.84-.34-1.3l1.03-5.11c1.07-4.27,3.58-6.31,7.69-6.31h2.28c4.09,0,6.6,2.03,7.68,6.2l1.08,5.24c.1.46-.02.94-.32,1.31-.3.37-.74.58-1.22.58Zm-8.37-6.01c2.15,0,4.21.44,6.12,1.28l-.35-1.69c-.81-3.12-2.43-3.77-4.62-3.77h-2.28c-2.2,0-3.83.66-4.63,3.86l-.32,1.6c1.9-.84,3.95-1.27,6.08-1.27Z"/>
    </g>
  </g>
  <g id="guias">
    <rect class="cls-2" x="47.5" y="47.5" width="2.5" height="2.5"/>
    <rect class="cls-2" x="47.5" width="2.5" height="2.5"/>
    <rect class="cls-2" y="47.5" width="2.5" height="2.5"/>
    <rect class="cls-2" width="2.5" height="2.5"/>
  </g>
</svg>