<?xml version="1.0" encoding="UTF-8"?>
<svg xmlns="http://www.w3.org/2000/svg" viewBox="0 0 50 50">
  <defs>
    <style>
      .cls-1 {
        fill: #2e3135;
        stroke-width: 0px;
      }

      .cls-2 {
        fill: none;
        stroke: #000;
        stroke-miterlimit: 10;
        stroke-width: .21px;
      }
    </style>
  </defs>
  <g id="iconos">
    <g>
      <path class="cls-1" d="m30.91,35.67h-14.05c-4.15-.29-5.99-3.46-5.99-6.28,0-2.36,1.29-4.97,4.08-5.92-.63-3.13.14-6.06,2.21-8.23,2.5-2.61,6.48-3.65,9.93-2.59,3.06.95,5.25,3.39,6.11,6.79,2.61.73,4.68,2.78,5.53,5.56.97,3.17.08,6.44-2.31,8.53-1.53,1.38-3.5,2.15-5.53,2.15Zm-13.99-9.42c-2.14.18-2.9,1.79-2.9,3.13s.78,2.99,2.96,3.15h13.85c1.27.04,2.54-.47,3.53-1.36,1.75-1.52,1.86-3.72,1.39-5.27-.47-1.54-1.78-3.3-4.05-3.58-.69-.09-1.24-.62-1.35-1.3-.46-2.78-1.94-4.69-4.17-5.38-2.3-.71-5.07.01-6.73,1.76-1.62,1.7-1.99,4.09-1.04,6.75.29.82-.13,1.71-.95,2.01-.18.07-.35.18-.54.09Z"/>
      <path class="cls-1" d="m18.72,47.5c-8.94,0-16.22-7.28-16.22-16.22,0-.87.7-1.57,1.57-1.57s1.57.7,1.57,1.57c0,6.19,4.32,11.39,10.1,12.74l-.57-.94c-.45-.74-.21-1.71.54-2.15.74-.44,1.71-.2,2.15.54l2.2,3.66c.29.48.3,1.09.02,1.58-.28.49-.8.8-1.37.8Z"/>
      <path class="cls-1" d="m45.93,20.29c-.87,0-1.57-.7-1.57-1.57,0-6.19-4.32-11.39-10.1-12.74l.57.94c.45.74.2,1.71-.54,2.15-.75.45-1.71.2-2.15-.54l-2.2-3.66c-.29-.48-.3-1.09-.02-1.58.28-.49.8-.8,1.37-.8,8.94,0,16.22,7.28,16.22,16.22,0,.87-.7,1.57-1.57,1.57Z"/>
    </g>
  </g>
  <g id="guias">
    <rect class="cls-2" x="47.5" y="47.5" width="2.5" height="2.5"/>
    <rect class="cls-2" x="47.5" width="2.5" height="2.5"/>
    <rect class="cls-2" y="47.5" width="2.5" height="2.5"/>
    <rect class="cls-2" width="2.5" height="2.5"/>
  </g>
</svg>