<?xml version="1.0" encoding="UTF-8"?>
<svg xmlns="http://www.w3.org/2000/svg" viewBox="0 0 50 50">
  <defs>
    <style>
      .cls-1 {
        fill: #2e3135;
        stroke-width: 0px;
      }

      .cls-2 {
        fill: none;
        stroke: #000;
        stroke-miterlimit: 10;
        stroke-width: .21px;
      }
    </style>
  </defs>
  <g id="iconos">
    <g>
      <path class="cls-1" d="m34.8,43.5H11.43c-6.17-.44-8.93-5.2-8.93-9.43,0-3.77,2.2-7.97,6.99-9.13-2.09-8.07,1.9-13.7,6.59-16.37,5.46-3.11,13.57-3.12,18.52,2.86.05.06.09.12.13.18,1.48,1.86,2.51,4.12,3.08,6.72,2.57.57,4.82,1.94,6.54,4.01,3.96,4.68,4.72,12.83-.95,17.82-2.35,2.16-5.41,3.34-8.61,3.34ZM23.91,9.64c-2.23,0-4.43.61-6.27,1.65-5.08,2.89-6.81,8.27-4.62,14.39.17.48.1,1.02-.19,1.44s-.77.67-1.29.67c-4.07.29-5.89,3.36-5.89,6.27s1.82,5.99,5.9,6.29h23.17c2.49.1,4.78-.88,6.58-2.53.01,0,.02-.02.03-.02,4.26-3.73,3.64-9.88.64-13.44-1.47-1.75-3.43-2.82-5.67-3.11-.69-.09-1.24-.62-1.36-1.31-.43-2.6-1.36-4.79-2.75-6.51-.04-.05-.07-.1-.1-.15-2.2-2.57-5.2-3.66-8.16-3.66Z"/>
      <path class="cls-1" d="m15.04,28.66c-.24,0-.48-.05-.7-.17-.88-.44-1.86-.68-2.83-.69-.87-.01-1.56-.73-1.55-1.6.01-.86.72-1.55,1.57-1.55h.03c1.44.02,2.89.38,4.18,1.03.78.39,1.09,1.33.71,2.11-.27.55-.83.87-1.41.87Z"/>
      <path class="cls-1" d="m33.08,22.17c-.58,0-1.13-.32-1.41-.87-.39-.78-.07-1.72.71-2.11,1.29-.65,2.73-1,4.18-1.03.88.01,1.59.68,1.6,1.55s-.68,1.59-1.55,1.6c-.98.02-1.96.26-2.83.69-.23.11-.47.17-.7.17Z"/>
      <path class="cls-1" d="m43.16,24.92c-.45,0-.9-.19-1.21-.56-1.46-1.74-3.42-2.81-5.67-3.1-.69-.09-1.24-.62-1.36-1.31-.43-2.6-1.36-4.79-2.75-6.51-.23-.28-.35-.63-.35-.99,0-.41.16-.83.45-1.13,1.67-1.7,3.91-2.63,6.31-2.63,4.92,0,8.92,4,8.92,8.92,0,2.73-1.23,5.27-3.37,6.97-.29.23-.63.34-.98.34Zm-5.34-6.59c2.02.45,3.83,1.39,5.36,2.77.76-.99,1.17-2.2,1.17-3.49,0-3.18-2.59-5.77-5.77-5.77-1.1,0-2.15.31-3.05.87,1.06,1.63,1.82,3.51,2.29,5.62Z"/>
    </g>
  </g>
  <g id="guias">
    <rect class="cls-2" x="47.5" y="47.5" width="2.5" height="2.5"/>
    <rect class="cls-2" x="47.5" width="2.5" height="2.5"/>
    <rect class="cls-2" y="47.5" width="2.5" height="2.5"/>
    <rect class="cls-2" width="2.5" height="2.5"/>
  </g>
</svg>