<?xml version="1.0" encoding="UTF-8"?>
<svg xmlns="http://www.w3.org/2000/svg" viewBox="0 0 50 50">
  <defs>
    <style>
      .cls-1 {
        fill: #2e3135;
        stroke-width: 0px;
      }

      .cls-2 {
        fill: none;
        stroke: #000;
        stroke-miterlimit: 10;
        stroke-width: .21px;
      }
    </style>
  </defs>
  <g id="iconos">
    <g>
      <path class="cls-1" d="m34.79,41.38h-.09c-.87,0-1.57-.72-1.57-1.59,0-.87.71-1.57,1.58-1.57.02,0,.05,0,.08,0,2.39,0,4.7-.89,6.49-2.52,3.27-2.86,3.48-6.96,2.6-9.85-.88-2.88-3.34-6.15-7.61-6.68-.7-.09-1.25-.62-1.36-1.31-.83-5.05-3.55-8.52-7.66-9.79-4.24-1.32-9.17-.03-12.24,3.19-2.99,3.13-3.69,7.5-1.96,12.32.29.82-.13,1.73-.96,2.02-.82.3-1.72-.13-2.02-.96-2.12-5.92-1.16-11.59,2.65-15.57,3.89-4.07,10.1-5.69,15.46-4.03,4.92,1.52,8.38,5.57,9.63,11.19,4.29.96,7.72,4.21,9.1,8.69,1.5,4.89.15,9.92-3.52,13.13-2.35,2.14-5.41,3.32-8.59,3.32Z"/>
      <path class="cls-1" d="m11.44,41.4s-.08,0-.11,0c-6.07-.43-8.83-5.19-8.83-9.42s2.76-8.98,8.83-9.41c1.57-.03,3.08.32,4.43,1.01.78.4,1.09,1.35.69,2.13-.4.78-1.34,1.08-2.13.69-.9-.45-1.82-.66-2.86-.67-3.99.28-5.81,3.35-5.81,6.25s1.82,5.98,5.89,6.27c.87.06,1.53.82,1.47,1.69-.06.83-.75,1.47-1.57,1.47Z"/>
      <path class="cls-1" d="m33.05,20.07c-.58,0-1.14-.32-1.42-.87-.39-.78-.07-1.73.71-2.12,1.32-.66,2.72-1,4.18-1.03.81.02,1.59.68,1.61,1.55s-.68,1.59-1.55,1.61c-.98.02-1.93.25-2.82.7-.23.11-.47.17-.7.17Z"/>
      <path class="cls-1" d="m16.5,45.6c-.41,0-.81-.15-1.12-.46-.62-.62-.62-1.62,0-2.24l4.22-4.22c.62-.62,1.62-.62,2.24,0s.62,1.62,0,2.24l-4.22,4.22c-.31.31-.71.46-1.12.46Z"/>
      <path class="cls-1" d="m24.93,45.6c-.41,0-.81-.15-1.12-.46-.62-.62-.62-1.62,0-2.24l4.22-4.22c.62-.62,1.62-.62,2.24,0s.62,1.62,0,2.24l-4.22,4.22c-.31.31-.71.46-1.12.46Z"/>
      <path class="cls-1" d="m24.93,37.17c-.41,0-.81-.15-1.12-.46-.62-.62-.62-1.62,0-2.24l4.22-4.22c.62-.62,1.62-.62,2.24,0s.62,1.62,0,2.24l-4.22,4.22c-.31.31-.71.46-1.12.46Z"/>
      <path class="cls-1" d="m16.5,37.17c-.41,0-.81-.15-1.12-.46-.62-.62-.62-1.62,0-2.24l4.22-4.22c.62-.62,1.62-.62,2.24,0s.62,1.62,0,2.24l-4.22,4.22c-.31.31-.71.46-1.12.46Z"/>
    </g>
  </g>
  <g id="guias">
    <rect class="cls-2" x="47.5" y="47.5" width="2.5" height="2.5"/>
    <rect class="cls-2" x="47.5" width="2.5" height="2.5"/>
    <rect class="cls-2" y="47.5" width="2.5" height="2.5"/>
    <rect class="cls-2" width="2.5" height="2.5"/>
  </g>
</svg>