<?xml version="1.0" encoding="UTF-8"?>
<svg xmlns="http://www.w3.org/2000/svg" viewBox="0 0 50 50">
  <defs>
    <style>
      .cls-1 {
        fill: #2e3135;
        stroke-width: 0px;
      }

      .cls-2 {
        fill: none;
        stroke: #000;
        stroke-miterlimit: 10;
        stroke-width: .21px;
      }
    </style>
  </defs>
  <g id="iconos">
    <g>
      <path class="cls-1" d="m34.79,41.64h-.09c-.87,0-1.57-.72-1.57-1.59,0-.87.78-1.63,1.59-1.57h.07c2.39,0,4.7-.89,6.49-2.52,3.27-2.86,3.48-6.96,2.6-9.85-.88-2.88-3.34-6.15-7.61-6.68-.7-.09-1.25-.62-1.36-1.31-.83-5.05-3.55-8.52-7.66-9.79-4.24-1.32-9.16-.03-12.24,3.19-2.99,3.13-3.69,7.5-1.96,12.32.29.82-.13,1.73-.96,2.02-.82.29-1.72-.13-2.02-.96-2.12-5.92-1.16-11.59,2.65-15.57,3.89-4.07,10.1-5.69,15.46-4.03,4.92,1.52,8.38,5.57,9.63,11.19,4.29.96,7.72,4.21,9.1,8.69,1.5,4.89.15,9.92-3.52,13.13-2.35,2.14-5.41,3.32-8.59,3.32Z"/>
      <path class="cls-1" d="m11.44,41.66s-.08,0-.11,0c-6.07-.43-8.83-5.19-8.83-9.42s2.76-8.98,8.83-9.41c1.57-.03,3.07.32,4.43,1.01.78.4,1.09,1.35.69,2.13-.4.78-1.35,1.08-2.13.69-.9-.46-1.81-.65-2.86-.67-3.99.28-5.81,3.35-5.81,6.25s1.82,5.98,5.89,6.27c.87.06,1.53.82,1.47,1.69-.06.83-.75,1.47-1.57,1.47Z"/>
      <path class="cls-1" d="m33.05,20.33c-.58,0-1.14-.32-1.42-.87-.39-.78-.07-1.73.71-2.12,1.32-.66,2.72-1,4.18-1.03.9,0,1.59.68,1.61,1.55s-.68,1.59-1.55,1.61c-.98.02-1.93.25-2.82.7-.23.11-.47.17-.7.17Z"/>
      <path class="cls-1" d="m27.11,39.01c-1.17,0-2.12-.94-2.12-2.11s.93-2.11,2.1-2.11h.02c1.17,0,2.11.94,2.11,2.11s-.94,2.11-2.11,2.11Z"/>
      <path class="cls-1" d="m18.68,39.01c-1.17,0-2.12-.94-2.12-2.11s.93-2.11,2.1-2.11h.02c1.17,0,2.11.94,2.11,2.11s-.94,2.11-2.11,2.11Z"/>
      <path class="cls-1" d="m22.89,45.33c-1.17,0-2.12-.94-2.12-2.11s.93-2.11,2.1-2.11h.02c1.17,0,2.11.94,2.11,2.11s-.94,2.11-2.11,2.11Z"/>
    </g>
  </g>
  <g id="guias">
    <rect class="cls-2" x="47.5" y="47.5" width="2.5" height="2.5"/>
    <rect class="cls-2" x="47.5" width="2.5" height="2.5"/>
    <rect class="cls-2" y="47.5" width="2.5" height="2.5"/>
    <rect class="cls-2" width="2.5" height="2.5"/>
  </g>
</svg>