<?xml version="1.0" encoding="UTF-8"?>
<svg xmlns="http://www.w3.org/2000/svg" viewBox="0 0 50 50">
  <defs>
    <style>
      .cls-1 {
        fill: #2e3135;
        stroke-width: 0px;
      }

      .cls-2 {
        fill: none;
        stroke: #000;
        stroke-miterlimit: 10;
        stroke-width: .21px;
      }
    </style>
  </defs>
  <g id="iconos">
    <g>
      <path class="cls-1" d="m34.79,43.49H11.43c-6.17-.44-8.93-5.2-8.93-9.43,0-3.78,2.21-7.97,7-9.13-1.34-5.28-.18-10.24,3.28-13.81,3.95-4.08,10.21-5.65,15.59-3.92.83.27,1.28,1.15,1.02,1.98-.26.83-1.16,1.28-1.98,1.02-4.26-1.36-9.23-.12-12.36,3.12-3.04,3.14-3.76,7.53-2.03,12.38.17.48.1,1.02-.19,1.43-.3.42-.77.67-1.29.67-4.07.29-5.89,3.36-5.89,6.27s1.82,5.99,5.9,6.29h23.16c2.41-.03,4.78-.88,6.58-2.53,2.4-2.12,3.46-5.21,2.93-8.5-.14-.86.44-1.67,1.3-1.81.86-.14,1.67.44,1.8,1.3.71,4.38-.73,8.51-3.93,11.34-2.33,2.14-5.39,3.33-8.6,3.33Z"/>
      <path class="cls-1" d="m15.04,28.66c-.24,0-.48-.05-.7-.17-.89-.44-1.84-.68-2.83-.69-.87-.01-1.56-.73-1.55-1.6.01-.87.73-1.5,1.6-1.55,1.44.02,2.89.38,4.18,1.03.78.39,1.09,1.34.7,2.11-.28.55-.83.87-1.41.87Z"/>
      <path class="cls-1" d="m38.57,26.54c-4.92,0-8.92-4-8.92-8.92,0-2.31.88-4.48,2.48-6.13.04-.06.08-.11.13-.15,1.67-1.7,3.91-2.63,6.31-2.63,4.92,0,8.92,4,8.92,8.92,0,2.73-1.23,5.27-3.37,6.96-1.55,1.26-3.52,1.96-5.55,1.96Zm-3.94-13.12c-.04.06-.09.11-.14.16-1.09,1.07-1.69,2.51-1.69,4.04,0,3.18,2.59,5.77,5.77,5.77,1.31,0,2.58-.45,3.58-1.26,1.4-1.1,2.19-2.74,2.19-4.51,0-3.18-2.59-5.77-5.77-5.77-1.49,0-2.88.56-3.94,1.57Z"/>
    </g>
  </g>
  <g id="guias">
    <rect class="cls-2" x="47.5" y="47.5" width="2.5" height="2.5"/>
    <rect class="cls-2" x="47.5" width="2.5" height="2.5"/>
    <rect class="cls-2" y="47.5" width="2.5" height="2.5"/>
    <rect class="cls-2" width="2.5" height="2.5"/>
  </g>
</svg>