<?xml version="1.0" encoding="UTF-8"?>
<svg xmlns="http://www.w3.org/2000/svg" viewBox="0 0 50 50">
  <defs>
    <style>
      .cls-1 {
        fill: #2e3135;
        stroke-width: 0px;
      }

      .cls-2 {
        fill: none;
        stroke: #000;
        stroke-miterlimit: 10;
        stroke-width: .21px;
      }
    </style>
  </defs>
  <g id="iconos">
    <g>
      <path class="cls-1" d="m34.71,41.39h-.09c-.87,0-1.56-.71-1.56-1.58,0-.86.71-1.56,1.57-1.56.02,0,.05,0,.08,0,2.38,0,4.66-.89,6.43-2.5,3.24-2.84,3.46-6.9,2.58-9.77-.87-2.86-3.32-6.1-7.55-6.63-.69-.09-1.24-.61-1.35-1.3-.83-5.01-3.52-8.45-7.6-9.71-4.21-1.3-9.09-.03-12.15,3.17-2.97,3.1-3.66,7.45-1.94,12.23.29.81-.13,1.71-.95,2.01-.82.29-1.71-.13-2.01-.95-2.11-5.87-1.15-11.5,2.63-15.45,3.86-4.04,10.02-5.64,15.34-4,4.88,1.51,8.32,5.52,9.56,11.1,4.26.96,7.66,4.17,9.02,8.63,1.48,4.85.15,9.84-3.49,13.02-2.33,2.12-5.36,3.3-8.52,3.3Z"/>
      <path class="cls-1" d="m11.55,41.41s-.08,0-.11,0c-6.02-.43-8.76-5.15-8.76-9.35,0-4.2,2.74-8.91,8.76-9.34,1.59-.06,3.06.32,4.4,1,.77.39,1.08,1.34.68,2.11s-1.34,1.08-2.11.68c-.88-.45-1.86-.66-2.84-.67-3.95.28-5.76,3.32-5.76,6.2s1.81,5.94,5.84,6.22c.86.06,1.51.81,1.45,1.67-.06.83-.75,1.46-1.56,1.46Z"/>
      <path class="cls-1" d="m32.98,20.25c-.57,0-1.13-.32-1.4-.87-.39-.77-.07-1.72.7-2.1,1.31-.66,2.7-1,4.15-1.02.84,0,1.58.67,1.59,1.54.01.87-.68,1.58-1.54,1.59-.97.02-1.91.25-2.8.69-.22.11-.46.17-.7.17Z"/>
      <path class="cls-1" d="m22.09,45.29c-.27,0-.55-.05-.82-.15-.94-.35-1.55-1.21-1.55-2.21v-3.3h-.52c-1.55,0-2.13-.91-2.31-1.31-.18-.39-.48-1.43.55-2.6l5.12-5.83c.61-.73,1.62-.99,2.55-.65.94.35,1.55,1.21,1.55,2.21v3.3h.52c1.55,0,2.13.91,2.31,1.3.18.39.48,1.43-.55,2.6l-5.12,5.83c-.44.52-1.07.8-1.73.8Zm-.62-2.87s-.01.02-.02.02l.02-.02Zm-.53-5.93h.35c.87,0,1.57.7,1.57,1.57v2.78l2.59-2.95h-.35c-.87,0-1.57-.7-1.57-1.57v-2.78l-2.59,2.95Zm4-4.55l-.02.02s.01-.02.02-.02Z"/>
    </g>
  </g>
  <g id="guias">
    <g>
      <rect class="cls-2" x="47.5" y="47.5" width="2.5" height="2.5"/>
      <rect class="cls-2" x="47.5" width="2.5" height="2.5"/>
      <rect class="cls-2" y="47.5" width="2.5" height="2.5"/>
      <rect class="cls-2" width="2.5" height="2.5"/>
    </g>
  </g>
</svg>