<?xml version="1.0" encoding="UTF-8"?>
<svg xmlns="http://www.w3.org/2000/svg" viewBox="0 0 50 50">
  <defs>
    <style>
      .cls-1 {
        fill: #2e3135;
        stroke-width: 0px;
      }

      .cls-2 {
        fill: none;
        stroke: #000;
        stroke-miterlimit: 10;
        stroke-width: .21px;
      }
    </style>
  </defs>
  <g id="iconos">
    <g>
      <path class="cls-1" d="m7.25,25.85c-.71,0-1.37-.44-1.62-1.14-2.32-6.49-1.26-12.71,2.91-17.08C12.8,3.17,19.62,1.38,25.5,3.21c5.39,1.66,9.18,6.09,10.55,12.24,4.15.93,7.6,3.84,9.39,7.99.38.88-.03,1.89-.9,2.27-.87.38-1.89-.02-2.27-.9-1.5-3.47-4.38-5.71-7.9-6.15-.76-.09-1.37-.68-1.49-1.43-.91-5.52-3.9-9.33-8.4-10.72-4.66-1.44-10.06-.03-13.45,3.51-3.29,3.44-4.05,8.24-2.16,13.53.32.9-.15,1.89-1.04,2.21-.19.07-.39.1-.58.1Z"/>
      <path class="cls-1" d="m30.84,19.66c-.63,0-1.24-.35-1.55-.96-.43-.85-.08-1.89.77-2.31,1.42-.71,3-1.1,4.58-1.13h.03c.94,0,1.71.75,1.73,1.7.02.95-.74,1.74-1.7,1.75-1.07.02-2.14.28-3.1.76-.25.12-.51.18-.77.18Z"/>
      <path class="cls-1" d="m43.4,33.69H6.58c-.95,0-1.73-.77-1.73-1.73s.77-1.73,1.73-1.73h36.82c.95,0,1.73.77,1.73,1.73s-.77,1.73-1.73,1.73Z"/>
      <path class="cls-1" d="m38.8,40.6H11.18c-.95,0-1.73-.77-1.73-1.73s.77-1.73,1.73-1.73h27.61c.95,0,1.73.77,1.73,1.73s-.77,1.73-1.73,1.73Z"/>
      <path class="cls-1" d="m31.89,47.5h-13.81c-.95,0-1.73-.77-1.73-1.73s.77-1.73,1.73-1.73h13.81c.95,0,1.73.77,1.73,1.73s-.77,1.73-1.73,1.73Z"/>
    </g>
  </g>
  <g id="guias">
    <rect class="cls-2" x="47.5" y="47.5" width="2.5" height="2.5"/>
    <rect class="cls-2" x="47.5" width="2.5" height="2.5"/>
    <rect class="cls-2" y="47.5" width="2.5" height="2.5"/>
    <rect class="cls-2" width="2.5" height="2.5"/>
  </g>
</svg>