<?xml version="1.0" encoding="UTF-8"?>
<svg xmlns="http://www.w3.org/2000/svg" viewBox="0 0 50 50">
  <defs>
    <style>
      .cls-1 {
        fill: #2e3135;
        stroke-width: 0px;
      }

      .cls-2 {
        fill: none;
        stroke: #000;
        stroke-miterlimit: 10;
        stroke-width: .21px;
      }
    </style>
  </defs>
  <g id="iconos">
    <g>
      <path class="cls-1" d="m15.47,40.4h-4.03c-6.18-.43-8.94-5.18-8.94-9.41s2.76-8.98,8.83-9.41c.84-.04,1.62.59,1.68,1.46s-.59,1.62-1.46,1.68c-4.08.29-5.9,3.35-5.9,6.27s1.83,5.98,5.9,6.27h3.92c.87,0,1.57.7,1.57,1.57s-.7,1.57-1.57,1.57Z"/>
      <path class="cls-1" d="m34.79,40.4h-.09c-.87,0-1.66-.71-1.66-1.58,0-.89.65-1.61,1.56-1.57,2.59,0,4.9-.9,6.69-2.53,3.27-2.86,3.48-6.96,2.6-9.85-.88-2.89-3.34-6.16-7.61-6.7-.69-.09-1.24-.62-1.35-1.31-.83-5.04-3.56-8.52-7.67-9.79-4.26-1.31-9.18-.02-12.27,3.2-3,3.14-3.69,7.52-1.96,12.34.29.82-.13,1.72-.95,2.01s-1.72-.13-2.01-.95c-2.13-5.92-1.16-11.59,2.64-15.58,3.89-4.07,10.11-5.69,15.47-4.04,4.92,1.52,8.38,5.56,9.63,11.18,4.29.97,7.72,4.22,9.09,8.71,1.49,4.89.15,9.92-3.52,13.12-2.35,2.14-5.41,3.33-8.59,3.33Z"/>
      <path class="cls-1" d="m25,46.57c-4.22,0-8.17-2.25-10.31-5.87-.23-.37-.45-.79-.65-1.23-.72-1.5-1.1-3.18-1.1-4.97,0-6.65,5.41-12.07,12.07-12.07s12.07,5.41,12.07,12.07c0,1.78-.38,3.47-1.12,5.01-.18.4-.4.82-.65,1.22-2.13,3.59-6.08,5.84-10.3,5.84Zm0-20.98c-4.92,0-8.92,4-8.92,8.92,0,1.31.27,2.53.81,3.64.16.35.31.65.48.92,1.6,2.7,4.52,4.36,7.63,4.36s6.02-1.66,7.61-4.33c.19-.31.35-.6.48-.91.56-1.15.83-2.38.83-3.68,0-4.92-4-8.92-8.92-8.92Z"/>
      <path class="cls-1" d="m23.8,38.16c-.4,0-.81-.15-1.11-.46l-2.08-2.08c-.61-.61-.61-1.61,0-2.23s1.61-.61,2.23,0l1.01,1.01,3.36-3.11c.64-.59,1.63-.55,2.22.09.59.64.55,1.63-.09,2.22l-4.47,4.13c-.3.28-.69.42-1.07.42Z"/>
    </g>
  </g>
  <g id="guias">
    <rect class="cls-2" x="47.5" y="47.5" width="2.5" height="2.5"/>
    <rect class="cls-2" x="47.5" width="2.5" height="2.5"/>
    <rect class="cls-2" y="47.5" width="2.5" height="2.5"/>
    <rect class="cls-2" width="2.5" height="2.5"/>
  </g>
</svg>