<?xml version="1.0" encoding="UTF-8"?>
<svg xmlns="http://www.w3.org/2000/svg" viewBox="0 0 50 50">
  <defs>
    <style>
      .cls-1 {
        fill: #2e3135;
        stroke-width: 0px;
      }

      .cls-2 {
        fill: none;
        stroke: #000;
        stroke-miterlimit: 10;
        stroke-width: .21px;
      }
    </style>
  </defs>
  <g id="iconos">
    <g>
      <path class="cls-1" d="m33.14,33.5H13.74c-5.26-.37-7.61-4.4-7.61-8,0-3.15,1.82-6.65,5.76-7.7-1.05-4.33-.08-8.4,2.75-11.36,3.28-3.43,8.53-4.8,13.06-3.41,4.11,1.27,7.02,4.62,8.1,9.27,3.58.85,6.43,3.58,7.58,7.33,1.25,4.11.11,8.35-2.98,11.05-1.99,1.81-4.57,2.81-7.25,2.81Zm-19.34-12.98c-3.22.25-4.67,2.68-4.67,4.98,0,2.32,1.46,4.77,4.72,5h19.21c1.98-.04,3.86-.72,5.33-2.05,2.64-2.31,2.82-5.61,2.11-7.94-.71-2.33-2.71-4.98-6.17-5.42-.66-.08-1.18-.59-1.29-1.24-.68-4.09-2.89-6.91-6.23-7.94-3.42-1.05-7.53.02-10,2.61-2.42,2.54-2.98,6.09-1.58,9.99.28.78-.12,1.64-.9,1.92-.18.06-.34.08-.53.09Z"/>
      <path class="cls-1" d="m25,39.5c-.83,0-1.5-.67-1.5-1.5v-6c0-.83.67-1.5,1.5-1.5s1.5.67,1.5,1.5v6c0,.83-.67,1.5-1.5,1.5Z"/>
      <path class="cls-1" d="m25,47.5c-3.03,0-5.5-2.47-5.5-5.5s2.47-5.5,5.5-5.5,5.5,2.47,5.5,5.5-2.47,5.5-5.5,5.5Zm0-8c-1.38,0-2.5,1.12-2.5,2.5s1.12,2.5,2.5,2.5,2.5-1.12,2.5-2.5-1.12-2.5-2.5-2.5Z"/>
      <path class="cls-1" d="m37,43.5h-8c-.83,0-1.5-.67-1.5-1.5s.67-1.5,1.5-1.5h8c.83,0,1.5.67,1.5,1.5s-.67,1.5-1.5,1.5Z"/>
      <path class="cls-1" d="m21,43.5h-8c-.83,0-1.5-.67-1.5-1.5s.67-1.5,1.5-1.5h8c.83,0,1.5.67,1.5,1.5s-.67,1.5-1.5,1.5Z"/>
    </g>
  </g>
  <g id="guias">
    <rect class="cls-2" x="47.5" y="47.5" width="2.5" height="2.5"/>
    <rect class="cls-2" x="47.5" width="2.5" height="2.5"/>
    <rect class="cls-2" y="47.5" width="2.5" height="2.5"/>
    <rect class="cls-2" width="2.5" height="2.5"/>
  </g>
</svg>