<?xml version="1.0" encoding="UTF-8"?>
<svg xmlns="http://www.w3.org/2000/svg" viewBox="0 0 50 50">
  <defs>
    <style>
      .cls-1 {
        fill: #2e3135;
        stroke-width: 0px;
      }

      .cls-2 {
        fill: none;
        stroke: #000;
        stroke-miterlimit: 10;
        stroke-width: .21px;
      }
    </style>
  </defs>
  <g id="iconos">
    <g>
      <path class="cls-1" d="m34.79,43.48H11.44c-6.18-.43-8.94-5.18-8.94-9.41,0-3.78,2.21-7.97,7-9.13-1.34-5.24-.21-10.17,3.2-13.74,3.88-4.07,10.1-5.69,15.46-4.04,4.92,1.51,8.39,5.55,9.65,11.17,4.3.97,7.73,4.22,9.1,8.72,1.49,4.89.14,9.91-3.53,13.11-2.33,2.13-5.38,3.32-8.59,3.32Zm-23.35-15.67c-3.97.28-5.79,3.35-5.79,6.26s1.82,5.98,5.9,6.27h23.16c2.49.11,4.78-.88,6.57-2.53,3.28-2.86,3.5-6.96,2.62-9.84-.88-2.89-3.35-6.17-7.63-6.72-.69-.09-1.24-.62-1.35-1.3-.84-5.04-3.57-8.51-7.68-9.78-4.25-1.31-9.18-.02-12.26,3.21-2.79,2.93-3.58,6.94-2.26,11.38,1.09.14,2.11.46,3.05.94.77.4,1.08,1.34.69,2.12s-1.34,1.08-2.12.69c-.88-.45-1.88-.69-2.89-.69Z"/>
      <path class="cls-1" d="m33.05,22.18c-.58,0-1.13-.32-1.41-.87-.39-.78-.08-1.72.7-2.11,1.29-.65,2.74-1,4.18-1.03.82-.04,1.59.68,1.6,1.55s-.68,1.59-1.55,1.6c-.99.02-1.94.25-2.83.69-.23.11-.47.17-.7.17Z"/>
    </g>
  </g>
  <g id="guias">
    <rect class="cls-2" x="47.5" y="47.5" width="2.5" height="2.5"/>
    <rect class="cls-2" x="47.5" width="2.5" height="2.5"/>
    <rect class="cls-2" y="47.5" width="2.5" height="2.5"/>
    <rect class="cls-2" width="2.5" height="2.5"/>
  </g>
</svg>