<?xml version="1.0" encoding="UTF-8"?>
<svg xmlns="http://www.w3.org/2000/svg" viewBox="0 0 50 50">
  <defs>
    <style>
      .cls-1 {
        fill: #2e3135;
        stroke-width: 0px;
      }

      .cls-2 {
        fill: none;
        stroke: #000;
        stroke-miterlimit: 10;
        stroke-width: .21px;
      }
    </style>
  </defs>
  <g id="iconos">
    <g>
      <path class="cls-1" d="m18.72,37.03c-.24,0-.47-.05-.7-.17-1.6-.8-2.98-2.02-3.99-3.52-.83-1.26-.83-2.87,0-4.12,1.01-1.51,2.39-2.73,4-3.53.78-.39,1.72-.07,2.11.7s.07,1.72-.7,2.11c-1.13.57-2.07,1.4-2.79,2.47-.13.2-.13.44,0,.65.71,1.06,1.65,1.88,2.78,2.45.77.39,1.09,1.33.7,2.11-.28.55-.83.87-1.41.87Z"/>
      <path class="cls-1" d="m31.72,37.03c-.58,0-1.13-.32-1.41-.87-.39-.77-.07-1.72.7-2.11,1.13-.57,2.07-1.4,2.79-2.46.13-.2.13-.44,0-.65-.71-1.06-1.65-1.89-2.78-2.45-.78-.39-1.09-1.33-.7-2.11.39-.78,1.33-1.09,2.11-.7,1.6.8,2.98,2.02,3.99,3.52.83,1.26.83,2.87,0,4.12-1.02,1.51-2.4,2.73-4,3.53-.22.11-.46.17-.7.17Z"/>
      <path class="cls-1" d="m31.28,47.5h-12.56c-11.37,0-16.22-4.85-16.22-16.22v-12.56C2.5,7.35,7.35,2.5,18.72,2.5h12.56c11.37,0,16.22,4.85,16.22,16.22v12.56c0,11.37-4.85,16.22-16.22,16.22ZM18.72,5.64c-9.66,0-13.08,3.42-13.08,13.08v12.56c0,9.66,3.42,13.08,13.08,13.08h12.56c9.66,0,13.08-3.42,13.08-13.08v-12.56c0-9.66-3.42-13.08-13.08-13.08h-12.56Z"/>
      <path class="cls-1" d="m4.55,18.22c-.87,0-1.57-.7-1.57-1.57s.7-1.57,1.57-1.57l40.23-.02h0c.87,0,1.57.7,1.57,1.57s-.7,1.57-1.57,1.57l-40.23.02h0Z"/>
    </g>
  </g>
  <g id="guias">
    <rect class="cls-2" x="47.5" y="47.5" width="2.5" height="2.5"/>
    <rect class="cls-2" x="47.5" width="2.5" height="2.5"/>
    <rect class="cls-2" y="47.5" width="2.5" height="2.5"/>
    <rect class="cls-2" width="2.5" height="2.5"/>
  </g>
</svg>