<?xml version="1.0" encoding="UTF-8"?>
<svg xmlns="http://www.w3.org/2000/svg" viewBox="0 0 50 50">
  <defs>
    <style>
      .cls-1 {
        fill: #2e3135;
        stroke-width: 0px;
      }

      .cls-2 {
        fill: none;
        stroke: #000;
        stroke-miterlimit: 10;
        stroke-width: .21px;
      }
    </style>
  </defs>
  <g id="iconos">
    <g>
      <path class="cls-1" d="m23.23,47.24h-5.26c-8.54,0-15.46-6.92-15.46-15.46v-12.75c0-4.34,3.52-7.87,7.87-7.87h20.45c4.34,0,7.87,3.52,7.87,7.87v12.75c0,8.54-6.92,15.46-15.46,15.46ZM10.37,14.29c-2.61,0-4.73,2.12-4.73,4.73v12.75c0,6.81,5.52,12.32,12.32,12.32h5.26c6.81,0,12.32-5.52,12.32-12.32v-12.75c0-2.61-2.12-4.73-4.73-4.73H10.37Z"/>
      <path class="cls-1" d="m11.4,9.56c-.87,0-1.57-.7-1.57-1.57v-3.66c0-.87.7-1.57,1.57-1.57s1.57.7,1.57,1.57v3.66c0,.87-.7,1.57-1.57,1.57Z"/>
      <path class="cls-1" d="m19.77,9.56c-.87,0-1.57-.7-1.57-1.57v-3.66c0-.87.7-1.57,1.57-1.57s1.57.7,1.57,1.57v3.66c0,.87-.7,1.57-1.57,1.57Z"/>
      <path class="cls-1" d="m28.14,9.56c-.87,0-1.57-.7-1.57-1.57v-3.66c0-.87.7-1.57,1.57-1.57s1.57.7,1.57,1.57v3.66c0,.87-.7,1.57-1.57,1.57Z"/>
      <path class="cls-1" d="m37.12,37.55c-.87,0-1.57-.7-1.57-1.57v-17.62c0-.87.7-1.57,1.57-1.57,5.72,0,10.38,4.66,10.38,10.38s-4.66,10.38-10.38,10.38Zm1.57-17.45v14.14c3.24-.72,5.67-3.62,5.67-7.07s-2.43-6.35-5.67-7.07Z"/>
      <path class="cls-1" d="m36.53,26.31H4.07c-.87,0-1.57-.7-1.57-1.57s.7-1.57,1.57-1.57h32.46c.87,0,1.57.7,1.57,1.57s-.7,1.57-1.57,1.57Z"/>
    </g>
  </g>
  <g id="guias">
    <rect class="cls-2" x="47.5" y="47.5" width="2.5" height="2.5"/>
    <rect class="cls-2" x="47.5" width="2.5" height="2.5"/>
    <rect class="cls-2" y="47.5" width="2.5" height="2.5"/>
    <rect class="cls-2" width="2.5" height="2.5"/>
  </g>
</svg>