<?xml version="1.0" encoding="UTF-8"?>
<svg xmlns="http://www.w3.org/2000/svg" viewBox="0 0 50 50">
  <defs>
    <style>
      .cls-1 {
        fill: #2e3135;
        stroke-width: 0px;
      }

      .cls-2 {
        fill: none;
        stroke: #000;
        stroke-miterlimit: 10;
        stroke-width: .21px;
      }
    </style>
  </defs>
  <g id="iconos">
    <g>
      <path class="cls-1" d="m25,47.5c-8.37,0-15.17-6.01-15.17-13.4v-7.74c0-.87.7-1.57,1.57-1.57s1.57.7,1.57,1.57c0,5.49,5.17,9.63,12.03,9.63s12.03-4.14,12.03-9.63c0-.87.7-1.57,1.57-1.57s1.57.7,1.57,1.57v7.74c0,7.39-6.81,13.4-15.17,13.4Zm-12.03-13.17c.14,5.55,5.48,10.03,12.03,10.03s11.89-4.48,12.03-10.03c-2.73,2.96-7.02,4.8-12.03,4.8s-9.3-1.84-12.03-4.8Z"/>
      <path class="cls-1" d="m25,28.66c-5.78,0-10.96-2.6-13.5-6.78-1.09-1.79-1.67-3.86-1.67-5.99,0-3.61,1.6-7,4.52-9.53,2.85-2.49,6.64-3.86,10.66-3.86s7.79,1.36,10.65,3.83c2.92,2.57,4.52,5.96,4.52,9.56,0,2.12-.58,4.19-1.67,5.99-2.54,4.18-7.71,6.78-13.5,6.78Zm0-23.02c-3.26,0-6.31,1.1-8.6,3.09-2.22,1.93-3.44,4.48-3.44,7.17,0,1.57.41,3.03,1.21,4.35,1.98,3.25,6.13,5.28,10.82,5.28s8.84-2.02,10.82-5.27c.81-1.32,1.22-2.79,1.22-4.36,0-2.68-1.22-5.24-3.44-7.19-2.28-1.97-5.34-3.06-8.59-3.06Z"/>
      <path class="cls-1" d="m25,39.13c-8.65,0-15.17-5.49-15.17-12.77v-10.47c0-7.38,6.81-13.39,15.17-13.39,4.01,0,7.79,1.36,10.65,3.83,2.92,2.57,4.52,5.96,4.52,9.56v10.47c0,7.28-6.52,12.77-15.17,12.77Zm0-33.49c-6.64,0-12.03,4.6-12.03,10.25v10.47c0,5.49,5.17,9.63,12.03,9.63s12.03-4.14,12.03-9.63v-10.47c0-2.68-1.22-5.24-3.44-7.19-2.28-1.97-5.34-3.06-8.59-3.06Z"/>
    </g>
  </g>
  <g id="guias">
    <rect class="cls-2" x="47.5" y="47.5" width="2.5" height="2.5"/>
    <rect class="cls-2" x="47.5" width="2.5" height="2.5"/>
    <rect class="cls-2" y="47.5" width="2.5" height="2.5"/>
    <rect class="cls-2" width="2.5" height="2.5"/>
  </g>
</svg>