<?xml version="1.0" encoding="UTF-8"?>
<svg xmlns="http://www.w3.org/2000/svg" viewBox="0 0 50 50">
  <defs>
    <style>
      .cls-1 {
        fill: #2e3135;
        stroke-width: 0px;
      }

      .cls-2 {
        fill: none;
        stroke: #000;
        stroke-miterlimit: 10;
        stroke-width: .21px;
      }
    </style>
  </defs>
  <g id="iconos">
    <g>
      <path class="cls-1" d="m22.6,28.23h-3.11c-2.37,0-4.31-2-4.31-4.45,0-.86.7-1.55,1.55-1.55s1.55.7,1.55,1.55c0,.73.55,1.35,1.2,1.35h3.11c.46,0,.85-.44.85-.97,0-.72-.12-.76-.61-.94l-4.95-1.73c-1.82-.64-2.7-1.91-2.7-3.87,0-2.25,1.77-4.08,3.95-4.08h3.11c2.4.03,4.33,2.03,4.33,4.45,0,.86-.7,1.55-1.55,1.55s-1.55-.7-1.55-1.55c0-.73-.56-1.34-1.24-1.34h-3.09c-.46,0-.85.44-.85.97,0,.72.11.76.62.94l4.96,1.74c1.81.65,2.68,1.92,2.68,3.87,0,2.25-1.77,4.08-3.96,4.08Z"/>
      <path class="cls-1" d="m20.88,29.87c-.86,0-1.55-.7-1.55-1.55v-1.53c0-.86.7-1.55,1.55-1.55s1.55.7,1.55,1.55v1.53c0,.86-.7,1.55-1.55,1.55Z"/>
      <path class="cls-1" d="m20.88,16.61c-.86,0-1.55-.7-1.55-1.55v-1.61c0-.86.7-1.55,1.55-1.55s1.55.7,1.55,1.55v1.61c0,.86-.7,1.55-1.55,1.55Z"/>
      <path class="cls-1" d="m20.86,38.96c-9.98,0-18.1-8.12-18.1-18.1S10.88,2.76,20.86,2.76s18.1,8.12,18.1,18.1-8.12,18.1-18.1,18.1Zm0-33.09c-8.27,0-14.99,6.73-14.99,14.99s6.72,14.99,14.99,14.99,14.99-6.72,14.99-14.99-6.73-14.99-14.99-14.99Z"/>
      <path class="cls-1" d="m35.44,47.24c-3.82,0-7.43-1.87-9.65-5-.5-.7-.33-1.67.37-2.17.7-.49,1.67-.33,2.16.37,1.66,2.35,4.26,3.69,7.12,3.69,4.8,0,8.7-3.9,8.7-8.7,0-2.8-1.36-5.44-3.64-7.09-.7-.5-.85-1.47-.35-2.17.5-.69,1.48-.85,2.17-.35,3.09,2.22,4.93,5.81,4.93,9.61,0,6.51-5.29,11.8-11.8,11.8Z"/>
    </g>
  </g>
  <g id="guias">
    <rect class="cls-2" x="47.5" y="47.5" width="2.5" height="2.5"/>
    <rect class="cls-2" x="47.5" width="2.5" height="2.5"/>
    <rect class="cls-2" y="47.5" width="2.5" height="2.5"/>
    <rect class="cls-2" width="2.5" height="2.5"/>
  </g>
</svg>