<?xml version="1.0" encoding="UTF-8"?>
<svg xmlns="http://www.w3.org/2000/svg" viewBox="0 0 50 50">
  <defs>
    <style>
      .cls-1 {
        fill: #2e3135;
        stroke-width: 0px;
      }

      .cls-2 {
        fill: none;
        stroke: #000;
        stroke-miterlimit: 10;
        stroke-width: .21px;
      }
    </style>
  </defs>
  <g id="iconos">
    <g>
      <path class="cls-1" d="m16.63,47.5c-7.79,0-14.13-6.34-14.13-14.13,0-6.36,4.28-11.97,10.41-13.63.77-.21,1.58.19,1.87.94,1.27,3.2,4.01,5.65,7.33,6.56,1.82.51,3.98.51,5.78,0,.77-.23,1.59.18,1.88.93.66,1.65.99,3.41.99,5.21,0,4.02-1.72,7.85-4.72,10.51-2.57,2.33-5.92,3.62-9.41,3.62Zm-4.14-24.31c-4.09,1.66-6.85,5.68-6.85,10.18,0,6.06,4.93,10.99,10.99,10.99,2.72,0,5.31-1,7.32-2.81,2.34-2.07,3.67-5.05,3.67-8.17,0-.95-.12-1.89-.36-2.79-1.97.31-4.12.21-5.99-.32-3.77-1.03-6.97-3.62-8.78-7.07Z"/>
      <path class="cls-1" d="m25,30.76c-1.3,0-2.56-.17-3.73-.5-4.25-1.16-7.77-4.31-9.41-8.42-.66-1.66-.99-3.41-.99-5.21,0-7.79,6.34-14.13,14.13-14.13s14.13,6.34,14.13,14.13c0,1.8-.33,3.55-.99,5.21-1.63,4.11-5.15,7.26-9.42,8.43-1.16.33-2.42.49-3.72.49Zm0-25.12c-6.06,0-10.99,4.93-10.99,10.99,0,1.4.26,2.76.77,4.05,1.27,3.2,4.01,5.65,7.33,6.56,1.82.51,3.98.51,5.78,0,3.33-.91,6.07-3.36,7.34-6.56.51-1.28.77-2.64.77-4.05,0-6.06-4.93-10.99-10.99-10.99Z"/>
      <path class="cls-1" d="m33.37,47.5c-3.49,0-6.84-1.29-9.42-3.63-.33-.3-.52-.73-.52-1.17s.19-.87.53-1.17c2.32-2.06,3.66-5.03,3.66-8.16,0-1.4-.26-2.76-.77-4.05-.16-.41-.15-.88.06-1.28.2-.4.56-.69.99-.81,3.32-.91,6.06-3.36,7.33-6.56.29-.74,1.1-1.14,1.87-.94,6.13,1.66,10.41,7.27,10.41,13.63,0,7.79-6.34,14.13-14.13,14.13Zm-6.02-4.95c1.77,1.17,3.86,1.81,6.02,1.81,6.06,0,10.99-4.93,10.99-10.99,0-4.5-2.76-8.52-6.85-10.18-1.56,2.96-4.14,5.29-7.23,6.54.31,1.18.47,2.4.47,3.64,0,3.4-1.22,6.65-3.4,9.18Z"/>
    </g>
  </g>
  <g id="guias">
    <rect class="cls-2" x="47.5" y="47.5" width="2.5" height="2.5"/>
    <rect class="cls-2" x="47.5" width="2.5" height="2.5"/>
    <rect class="cls-2" y="47.5" width="2.5" height="2.5"/>
    <rect class="cls-2" width="2.5" height="2.5"/>
  </g>
</svg>