<?xml version="1.0" encoding="UTF-8"?>
<svg xmlns="http://www.w3.org/2000/svg" viewBox="0 0 50 50">
  <defs>
    <style>
      .cls-1 {
        fill: #2e3135;
        stroke-width: 0px;
      }

      .cls-2 {
        fill: none;
        stroke: #000;
        stroke-miterlimit: 10;
        stroke-width: .21px;
      }
    </style>
  </defs>
  <g id="iconos">
    <g>
      <path class="cls-1" d="m12.44,47.5c-.63,0-1.29-.07-1.97-.2-.41-.09-.7-.16-.98-.25-.35-.11-.68-.22-1.01-.36-.07-.02-.15-.05-.22-.09-.73-.36-1.35-.75-1.92-1.18-.38-.3-.69-.56-.98-.88-.27-.29-.5-.55-.73-.82-.48-.63-.87-1.26-1.23-1.99-.03-.07-.06-.13-.08-.2-.12-.3-.23-.61-.34-.93-.12-.39-.19-.7-.26-1-.15-.74-.21-1.41-.21-2.04V9.3c0-4,2.8-6.8,6.8-6.8h6.28c4.01,0,6.8,2.8,6.8,6.8v28.26c0,2.6-1.01,5.06-2.83,6.94-.33.33-.59.56-.83.75-.68.59-1.53,1.11-2.46,1.48-.19.09-.47.19-.74.29-.97.32-2.03.49-3.09.49Zm-2.64-3.66c.2.08.4.15.62.21.21.06.42.11.64.16,1.32.26,2.46.16,3.44-.17.15-.06.34-.12.53-.21.68-.27,1.23-.61,1.7-1.02.2-.16.36-.3.5-.45,1.32-1.36,2.01-3.04,2.01-4.81V9.3c0-2.26-1.4-3.66-3.66-3.66h-6.28c-2.26,0-3.66,1.4-3.66,3.66v28.26c0,.44.05.9.14,1.38.04.19.1.43.17.65.07.22.14.43.22.63.04.06.07.13.1.2.02.04.03.09.05.13.24.46.49.86.76,1.21.15.18.36.4.57.63.2.22.39.37.59.53.36.28.76.53,1.22.77.04.01.08.02.12.04.08.03.16.07.23.12Z"/>
      <path class="cls-1" d="m40.7,47.5H12.44c-.87,0-1.57-.7-1.57-1.57s.7-1.57,1.57-1.57c.73,0,1.44-.11,2.06-.32.15-.06.34-.12.53-.21.68-.27,1.23-.61,1.7-1.02.2-.16.36-.3.5-.45l14.32-14.3c.29-.29.69-.46,1.11-.46h8.04c4.01,0,6.8,2.8,6.8,6.8v6.28c0,4-2.8,6.8-6.8,6.8Zm-21.01-3.14h21.01c2.26,0,3.66-1.4,3.66-3.66v-6.28c0-2.26-1.4-3.66-3.66-3.66h-7.39l-13.63,13.6Z"/>
      <path class="cls-1" d="m9.95,47.12c-.15,0-.3-.02-.45-.07-1.55-.47-2.97-1.32-4.1-2.48-1.13-1.11-1.99-2.52-2.45-4.08-.25-.83.22-1.7,1.04-1.95.83-.26,1.7.21,1.96,1.03.67,2.13,2.34,3.81,4.48,4.47.82.26,1.29,1.13,1.03,1.96-.21.68-.83,1.11-1.5,1.11Z"/>
      <path class="cls-1" d="m18.43,44.97c-.4,0-.8-.15-1.1-.45-.61-.61-.62-1.59-.02-2.21,1.25-1.29,1.94-2.97,1.94-4.74v-20.22c0-.42.17-.82.46-1.11l5.67-5.67c2.83-2.83,6.79-2.83,9.63,0l4.44,4.44c1.37,1.37,2.12,3.08,2.12,4.82s-.75,3.44-2.12,4.81l-19.91,19.88c-.31.31-.71.46-1.11.46Zm3.96-26.98v19.24l14.84-14.82h0c.79-.79,1.2-1.68,1.2-2.59s-.42-1.81-1.2-2.6l-4.44-4.44c-1.6-1.6-3.59-1.6-5.19,0l-5.21,5.21Z"/>
      <path class="cls-1" d="m12.44,41.22c-2.02,0-3.66-1.64-3.66-3.66s1.64-3.66,3.66-3.66,3.66,1.64,3.66,3.66-1.64,3.66-3.66,3.66Zm0-4.19c-.29,0-.52.24-.52.52,0,.58,1.05.58,1.05,0,0-.29-.24-.52-.52-.52Z"/>
    </g>
  </g>
  <g id="guias">
    <g>
      <rect class="cls-2" x="47.5" y="47.5" width="2.5" height="2.5"/>
      <rect class="cls-2" x="47.5" width="2.5" height="2.5"/>
      <rect class="cls-2" y="47.5" width="2.5" height="2.5"/>
      <rect class="cls-2" width="2.5" height="2.5"/>
    </g>
  </g>
</svg>