<?xml version="1.0" encoding="UTF-8"?>
<svg xmlns="http://www.w3.org/2000/svg" viewBox="0 0 50 50">
  <defs>
    <style>
      .cls-1 {
        fill: #2e3135;
        stroke-width: 0px;
      }

      .cls-2 {
        fill: none;
        stroke: #000;
        stroke-miterlimit: 10;
        stroke-width: .21px;
      }
    </style>
  </defs>
  <g id="iconos">
    <g>
      <path class="cls-1" d="m19.98,39.13c-5.02,0-9.1-4.09-9.1-9.11,0-4.1,2.76-7.71,6.71-8.78.77-.21,1.58.2,1.87.94.69,1.74,2.17,3.07,3.98,3.56,1.13.3,2.25.27,3.12.01.78-.24,1.61.17,1.91.92.42,1.04.64,2.2.64,3.34,0,2.59-1.11,5.06-3.04,6.78-1.65,1.5-3.81,2.32-6.07,2.32Zm-2.75-14.4c-1.94,1-3.21,3.03-3.21,5.29,0,3.29,2.68,5.97,5.96,5.97,1.48,0,2.89-.54,3.97-1.52,1.27-1.14,1.99-2.75,1.99-4.45,0-.32-.03-.64-.08-.96-1.03.1-2.15,0-3.26-.29-2.26-.62-4.18-2.08-5.38-4.05Z"/>
      <path class="cls-1" d="m25,29.1c-.87,0-1.69-.11-2.44-.34-2.73-.74-5-2.78-6.04-5.43-.42-1.08-.63-2.21-.63-3.35,0-5.02,4.09-9.1,9.11-9.1s9.1,4.08,9.1,9.1c0,1.15-.21,2.28-.63,3.35-1.05,2.66-3.32,4.69-6.07,5.45-.82.22-1.62.33-2.4.33Zm0-15.09c-3.29,0-5.97,2.68-5.97,5.96,0,.76.14,1.5.42,2.22.68,1.73,2.16,3.06,3.97,3.55.93.28,2,.3,3.16,0,1.79-.49,3.28-1.82,3.97-3.56.27-.7.41-1.45.41-2.21,0-3.29-2.68-5.96-5.96-5.96Z"/>
      <path class="cls-1" d="m30.02,39.13c-2.23,0-4.38-.83-6.07-2.32-.34-.3-.53-.73-.53-1.18s.2-.88.53-1.18c1.26-1.11,1.98-2.72,1.98-4.43,0-.76-.14-1.5-.42-2.22-.16-.41-.14-.88.06-1.28s.56-.69.99-.81c1.81-.49,3.29-1.82,3.97-3.55.29-.75,1.11-1.15,1.88-.94,3.94,1.09,6.7,4.71,6.7,8.8,0,5.02-4.08,9.11-9.11,9.11Zm-2.66-3.77c.82.41,1.73.63,2.66.63,3.29,0,5.97-2.68,5.97-5.97,0-2.25-1.27-4.29-3.22-5.3-.92,1.51-2.27,2.72-3.87,3.48.12.6.18,1.21.18,1.82,0,1.94-.61,3.8-1.72,5.33Z"/>
      <path class="cls-1" d="m31.28,47.5h-12.56c-11.37,0-16.22-4.85-16.22-16.22v-12.56C2.5,7.35,7.35,2.5,18.72,2.5h12.56c11.37,0,16.22,4.85,16.22,16.22v12.56c0,11.37-4.85,16.22-16.22,16.22ZM18.72,5.64c-9.66,0-13.08,3.42-13.08,13.08v12.56c0,9.66,3.42,13.08,13.08,13.08h12.56c9.66,0,13.08-3.42,13.08-13.08v-12.56c0-9.66-3.42-13.08-13.08-13.08h-12.56Z"/>
    </g>
  </g>
  <g id="guias">
    <rect class="cls-2" x="47.5" y="47.5" width="2.5" height="2.5"/>
    <rect class="cls-2" x="47.5" width="2.5" height="2.5"/>
    <rect class="cls-2" y="47.5" width="2.5" height="2.5"/>
    <rect class="cls-2" width="2.5" height="2.5"/>
  </g>
</svg>