<?xml version="1.0" encoding="UTF-8"?>
<svg xmlns="http://www.w3.org/2000/svg" viewBox="0 0 50 50">
  <defs>
    <style>
      .cls-1 {
        fill: #2e3135;
        stroke-width: 0px;
      }

      .cls-2 {
        fill: none;
        stroke: #000;
        stroke-miterlimit: 10;
        stroke-width: .21px;
      }
    </style>
  </defs>
  <g id="iconos">
    <g>
      <path class="cls-1" d="m30.02,31.59h-10.05c-.87,0-1.57-.7-1.57-1.57v-10.05c0-.87.7-1.57,1.57-1.57h10.05c.87,0,1.57.7,1.57,1.57v10.05c0,.87-.7,1.57-1.57,1.57Zm-8.48-3.14h6.91v-6.91h-6.91v6.91Z"/>
      <path class="cls-1" d="m16.21,39.13c-2.94,0-5.34-2.39-5.34-5.34s2.39-5.34,5.34-5.34h3.77c.87,0,1.57.7,1.57,1.57v3.77c0,2.94-2.39,5.34-5.34,5.34Zm0-7.53c-1.21,0-2.2.99-2.2,2.2s.99,2.2,2.2,2.2,2.2-.99,2.2-2.2v-2.2h-2.2Z"/>
      <path class="cls-1" d="m19.98,21.55h-3.77c-2.94,0-5.34-2.39-5.34-5.34s2.39-5.34,5.34-5.34,5.34,2.4,5.34,5.34v3.77c0,.87-.7,1.57-1.57,1.57Zm-3.77-7.54c-1.21,0-2.2.99-2.2,2.2s.99,2.2,2.2,2.2h2.2v-2.2c0-1.21-.99-2.2-2.2-2.2Z"/>
      <path class="cls-1" d="m33.79,21.55h-3.77c-.87,0-1.57-.7-1.57-1.57v-3.77c0-2.94,2.39-5.34,5.34-5.34s5.34,2.4,5.34,5.34-2.39,5.34-5.34,5.34Zm-2.2-3.14h2.2c1.21,0,2.2-.99,2.2-2.2s-.99-2.2-2.2-2.2-2.2.99-2.2,2.2v2.2Z"/>
      <path class="cls-1" d="m33.79,39.13c-2.94,0-5.34-2.39-5.34-5.34v-3.77c0-.87.7-1.57,1.57-1.57h3.77c2.94,0,5.34,2.39,5.34,5.34s-2.39,5.34-5.34,5.34Zm-2.2-7.53v2.2c0,1.21.99,2.2,2.2,2.2s2.2-.99,2.2-2.2-.99-2.2-2.2-2.2h-2.2Z"/>
      <path class="cls-1" d="m31.28,47.5h-12.56c-11.37,0-16.22-4.85-16.22-16.22v-12.56C2.5,7.35,7.35,2.5,18.72,2.5h12.56c11.37,0,16.22,4.85,16.22,16.22v12.56c0,11.37-4.85,16.22-16.22,16.22ZM18.72,5.64c-9.66,0-13.08,3.42-13.08,13.08v12.56c0,9.66,3.42,13.08,13.08,13.08h12.56c9.66,0,13.08-3.42,13.08-13.08v-12.56c0-9.66-3.42-13.08-13.08-13.08h-12.56Z"/>
    </g>
  </g>
  <g id="guias">
    <rect class="cls-2" x="47.5" y="47.5" width="2.5" height="2.5"/>
    <rect class="cls-2" x="47.5" width="2.5" height="2.5"/>
    <rect class="cls-2" y="47.5" width="2.5" height="2.5"/>
    <rect class="cls-2" width="2.5" height="2.5"/>
  </g>
</svg>