<?xml version="1.0" encoding="UTF-8"?>
<svg id="iconos" xmlns="http://www.w3.org/2000/svg" viewBox="0 0 50 50">
  <defs>
    <style>
      .cls-1 {
        fill: #1e1f22;
        stroke-width: 0px;
      }
    </style>
  </defs>
  <g id="seguros-personas-icono-cross-selling">
    <path class="cls-1" d="m24.99,47.49s-.09,0-.13-.02C-1.21,40.61,2.69,8.75,2.73,8.42c.04-.28.28-.49.57-.45,13.03,1.4,21.27-5.28,21.35-5.35.2-.16.47-.16.67,0,.08.07,8.33,6.74,21.35,5.35.28-.04.54.17.57.45,0,0,.04.28.08.8.03.29-.19.54-.47.57-.31.02-.54-.19-.57-.47,0-.09-.02-.18-.02-.26-11.84,1.07-19.6-4.12-21.28-5.37-1.68,1.25-9.43,6.45-21.27,5.37-.38,4.04-1.99,31.13,21.27,37.36,19.99-5.35,21.66-25.79,21.45-34.34,0-.29.22-.53.51-.54.26-.04.53.22.54.51.22,8.82-1.53,29.93-22.36,35.42-.04.01-.09.02-.13.02Z"/>
  </g>
  <g>
    <path class="cls-1" d="m16.21,37.75c-.29,0-.52-.24-.52-.52v-15.21c0-.29.24-.52.52-.52h1.79v-1.82c0-.29.24-.52.52-.52h4.63c.29,0,.52.24.52.52v1.82h2.16c.29,0,.52.23.52.52s-.23.53-.52.53h-2.68c-.14,0-.27-.05-.37-.15s-.15-.23-.15-.37v-1.82h-3.58v1.82c0,.29-.24.52-.52.52h-1.79v14.68c0,.29-.24.52-.52.52Z"/>
    <path class="cls-1" d="m25.84,37.75c-.29,0-.52-.24-.52-.52V8.62c0-.2.11-.38.29-.47.18-.09.39-.07.55.05l9.29,6.99c.13.1.21.26.21.42v19.77c0,.29-.24.52-.52.52s-.52-.24-.52-.52V15.87l-8.24-6.2v27.56c0,.29-.24.52-.52.52Z"/>
    <path class="cls-1" d="m20.25,25.37h-4.04c-.29,0-.52-.24-.52-.52s.24-.52.52-.52h4.04c.29,0,.52.24.52.52s-.24.52-.52.52Z"/>
    <path class="cls-1" d="m20.25,28.2h-4.04c-.29,0-.52-.24-.52-.52s.24-.52.52-.52h4.04c.29,0,.52.24.52.52s-.24.52-.52.52Z"/>
    <path class="cls-1" d="m20.25,31.03h-4.04c-.29,0-.52-.24-.52-.52s.24-.52.52-.52h4.04c.29,0,.52.24.52.52s-.24.52-.52.52Z"/>
    <path class="cls-1" d="m20.25,33.86h-4.04c-.29,0-.52-.24-.52-.52s.24-.52.52-.52h4.04c.29,0,.52.24.52.52s-.24.52-.52.52Z"/>
    <path class="cls-1" d="m23.87,25.37h-2.01c-.29,0-.52-.24-.52-.52s.24-.52.52-.52h2.01c.29,0,.52.24.52.52s-.24.52-.52.52Z"/>
    <path class="cls-1" d="m23.87,28.2h-2.01c-.29,0-.52-.24-.52-.52s.24-.52.52-.52h2.01c.29,0,.52.24.52.52s-.24.52-.52.52Z"/>
    <path class="cls-1" d="m23.87,31.03h-2.01c-.29,0-.52-.24-.52-.52s.24-.52.52-.52h2.01c.29,0,.52.24.52.52s-.24.52-.52.52Z"/>
    <path class="cls-1" d="m23.87,33.86h-2.01c-.29,0-.52-.24-.52-.52s.24-.52.52-.52h2.01c.29,0,.52.24.52.52s-.24.52-.52.52Z"/>
    <path class="cls-1" d="m31.85,17.66h-4.32c-.29,0-.52-.24-.52-.52s.24-.52.52-.52h4.32c.29,0,.52.24.52.52s-.24.52-.52.52Z"/>
    <path class="cls-1" d="m31.85,20.84h-4.32c-.29,0-.52-.24-.52-.52s.24-.52.52-.52h4.32c.29,0,.52.24.52.52s-.24.52-.52.52Z"/>
    <path class="cls-1" d="m31.85,24.03h-4.32c-.29,0-.52-.24-.52-.52s.24-.52.52-.52h4.32c.29,0,.52.24.52.52s-.24.52-.52.52Z"/>
    <path class="cls-1" d="m31.85,27.21h-4.32c-.29,0-.52-.24-.52-.52s.24-.52.52-.52h4.32c.29,0,.52.24.52.52s-.24.52-.52.52Z"/>
    <path class="cls-1" d="m31.85,30.39h-4.32c-.29,0-.52-.24-.52-.52s.24-.52.52-.52h4.32c.29,0,.52.24.52.52s-.24.52-.52.52Z"/>
    <path class="cls-1" d="m31.85,33.58h-4.32c-.29,0-.52-.24-.52-.52s.24-.52.52-.52h4.32c.29,0,.52.24.52.52s-.24.52-.52.52Z"/>
    <path class="cls-1" d="m36.35,37.75H13.62c-.29,0-.52-.24-.52-.52s.24-.52.52-.52h22.73c.29,0,.52.24.52.52s-.24.52-.52.52Z"/>
  </g>
</svg>