<?xml version="1.0" encoding="UTF-8"?>
<svg xmlns="http://www.w3.org/2000/svg" viewBox="0 0 50 50">
  <defs>
    <style>
      .cls-1 {
        fill: #2e3135;
        stroke-width: 0px;
      }

      .cls-2 {
        fill: none;
        stroke: #000;
        stroke-miterlimit: 10;
        stroke-width: .21px;
      }
    </style>
  </defs>
  <g id="iconos">
    <path class="cls-1" d="m25.01,47.5c-2.34,0-4.68-.89-6.46-2.66l-13.38-13.38c-3.55-3.55-3.55-9.34,0-12.91l13.38-13.38c3.55-3.55,9.34-3.55,12.91,0l13.38,13.38c3.55,3.58,3.55,9.37,0,12.92l-13.38,13.38c-1.78,1.77-4.11,2.66-6.45,2.66Zm-.01-41.86c-1.54,0-3.07.58-4.23,1.75l-13.38,13.38c-2.33,2.34-2.33,6.15,0,8.48l13.38,13.38c2.34,2.32,6.15,2.33,8.48,0l13.38-13.38h0c2.33-2.33,2.33-6.13,0-8.48l-13.37-13.37c-1.17-1.16-2.71-1.75-4.25-1.75Z"/>
  </g>
  <g id="guias">
    <rect class="cls-2" x="47.5" y="47.5" width="2.5" height="2.5"/>
    <rect class="cls-2" x="47.5" width="2.5" height="2.5"/>
    <rect class="cls-2" y="47.5" width="2.5" height="2.5"/>
    <rect class="cls-2" width="2.5" height="2.5"/>
  </g>
</svg>