<?xml version="1.0" encoding="UTF-8"?>
<svg id="iconos" xmlns="http://www.w3.org/2000/svg" viewBox="0 0 50 50">
  <defs>
    <style>
      .cls-1 {
        fill: #1e1f22;
        stroke-width: 0px;
      }
    </style>
  </defs>
  <g>
    <path class="cls-1" d="m5.93,47.49c-.29,0-.52-.23-.52-.52v-23.35c0-.29.23-.52.52-.52h4.14v-3.08c0-.29.23-.52.52-.52h9.35c.29,0,.52.23.52.52v3.08h4.89c.29,0,.52.22.52.51s-.23.52-.52.52h-5.41c-.14,0-.27-.05-.37-.14s-.15-.23-.15-.37v-3.08h-8.3v3.08c0,.29-.23.52-.52.52h-4.14v22.83c0,.29-.23.52-.52.52Z"/>
    <path class="cls-1" d="m25.37,47.49c-.29,0-.52-.23-.52-.52V3.04c0-.19.1-.36.26-.45.16-.09.36-.1.52,0l18.74,10.73c.16.09.26.27.26.45v30.96c0,.29-.23.52-.52.52s-.52-.23-.52-.52V14.07L25.89,3.94v43.03c0,.29-.23.52-.52.52Z"/>
    <path class="cls-1" d="m14.09,28.48H5.93c-.29,0-.52-.23-.52-.52s.23-.52.52-.52h8.16c.29,0,.52.23.52.52s-.23.52-.52.52Z"/>
    <path class="cls-1" d="m14.09,32.82H5.93c-.29,0-.52-.23-.52-.52s.23-.52.52-.52h8.16c.29,0,.52.23.52.52s-.23.52-.52.52Z"/>
    <path class="cls-1" d="m14.09,37.17H5.93c-.29,0-.52-.23-.52-.52s.23-.52.52-.52h8.16c.29,0,.52.23.52.52s-.23.52-.52.52Z"/>
    <path class="cls-1" d="m14.09,41.51H5.93c-.29,0-.52-.23-.52-.52s.23-.52.52-.52h8.16c.29,0,.52.23.52.52s-.23.52-.52.52Z"/>
    <path class="cls-1" d="m21.4,28.48h-4.07c-.29,0-.52-.23-.52-.52s.23-.52.52-.52h4.07c.29,0,.52.23.52.52s-.23.52-.52.52Z"/>
    <path class="cls-1" d="m21.4,32.82h-4.07c-.29,0-.52-.23-.52-.52s.23-.52.52-.52h4.07c.29,0,.52.23.52.52s-.23.52-.52.52Z"/>
    <path class="cls-1" d="m21.4,37.17h-4.07c-.29,0-.52-.23-.52-.52s.23-.52.52-.52h4.07c.29,0,.52.23.52.52s-.23.52-.52.52Z"/>
    <path class="cls-1" d="m21.4,41.51h-4.07c-.29,0-.52-.23-.52-.52s.23-.52.52-.52h4.07c.29,0,.52.23.52.52s-.23.52-.52.52Z"/>
    <path class="cls-1" d="m37.51,16.64h-8.71c-.29,0-.52-.23-.52-.52s.23-.52.52-.52h8.71c.29,0,.52.23.52.52s-.23.52-.52.52Z"/>
    <path class="cls-1" d="m37.51,21.53h-8.71c-.29,0-.52-.23-.52-.52s.23-.52.52-.52h8.71c.29,0,.52.23.52.52s-.23.52-.52.52Z"/>
    <path class="cls-1" d="m37.51,26.41h-8.71c-.29,0-.52-.23-.52-.52s.23-.52.52-.52h8.71c.29,0,.52.23.52.52s-.23.52-.52.52Z"/>
    <path class="cls-1" d="m37.51,31.3h-8.71c-.29,0-.52-.23-.52-.52s.23-.52.52-.52h8.71c.29,0,.52.23.52.52s-.23.52-.52.52Z"/>
    <path class="cls-1" d="m37.51,36.19h-8.71c-.29,0-.52-.23-.52-.52s.23-.52.52-.52h8.71c.29,0,.52.23.52.52s-.23.52-.52.52Z"/>
    <path class="cls-1" d="m37.51,41.08h-8.71c-.29,0-.52-.23-.52-.52s.23-.52.52-.52h8.71c.29,0,.52.23.52.52s-.23.52-.52.52Z"/>
  </g>
  <path class="cls-1" d="m46.98,47.49H3.02c-.29,0-.52-.23-.52-.52s.23-.52.52-.52h43.95c.29,0,.52.23.52.52s-.23.52-.52.52Z"/>
</svg>