<?xml version="1.0" encoding="UTF-8"?>
<svg xmlns="http://www.w3.org/2000/svg" viewBox="0 0 50 50">
  <defs>
    <style>
      .cls-1 {
        fill: none;
        stroke: #000;
        stroke-miterlimit: 10;
        stroke-width: .21px;
      }

      .cls-2 {
        fill: #1e1f22;
        stroke-width: 0px;
      }
    </style>
  </defs>
  <g id="iconos">
    <g>
      <path class="cls-2" d="m46.98,47.33H3.02c-.29,0-.52-.23-.52-.52s.23-.52.52-.52h43.96c.29,0,.52.23.52.52s-.23.52-.52.52Z"/>
      <path class="cls-2" d="m40.58,47.33H9.42c-.29,0-.52-.23-.52-.52V11.12c0-.29.23-.52.52-.52h31.16c.29,0,.52.23.52.52v35.69c0,.29-.23.52-.52.52Zm-30.64-1.04h30.11V11.64H9.94v34.64Z"/>
      <g>
        <g>
          <path class="cls-2" d="m17.49,16.87h-1.91c-.29,0-.52-.23-.52-.52s.23-.52.52-.52h1.91c.29,0,.52.23.52.52s-.23.52-.52.52Z"/>
          <path class="cls-2" d="m25.96,16.87h-1.91c-.29,0-.52-.23-.52-.52s.23-.52.52-.52h1.91c.29,0,.52.23.52.52s-.23.52-.52.52Z"/>
          <path class="cls-2" d="m34.42,16.87h-1.91c-.29,0-.52-.23-.52-.52s.23-.52.52-.52h1.91c.29,0,.52.23.52.52s-.23.52-.52.52Z"/>
        </g>
        <g>
          <path class="cls-2" d="m17.49,22.51h-1.91c-.29,0-.52-.23-.52-.52s.23-.52.52-.52h1.91c.29,0,.52.23.52.52s-.23.52-.52.52Z"/>
          <path class="cls-2" d="m25.96,22.51h-1.91c-.29,0-.52-.23-.52-.52s.23-.52.52-.52h1.91c.29,0,.52.23.52.52s-.23.52-.52.52Z"/>
          <path class="cls-2" d="m34.42,22.51h-1.91c-.29,0-.52-.23-.52-.52s.23-.52.52-.52h1.91c.29,0,.52.23.52.52s-.23.52-.52.52Z"/>
        </g>
        <g>
          <path class="cls-2" d="m17.49,28.16h-1.91c-.29,0-.52-.23-.52-.52s.23-.52.52-.52h1.91c.29,0,.52.23.52.52s-.23.52-.52.52Z"/>
          <path class="cls-2" d="m25.96,28.16h-1.91c-.29,0-.52-.23-.52-.52s.23-.52.52-.52h1.91c.29,0,.52.23.52.52s-.23.52-.52.52Z"/>
          <path class="cls-2" d="m34.42,28.16h-1.91c-.29,0-.52-.23-.52-.52s.23-.52.52-.52h1.91c.29,0,.52.23.52.52s-.23.52-.52.52Z"/>
        </g>
        <g>
          <path class="cls-2" d="m17.49,33.8h-1.91c-.29,0-.52-.23-.52-.52s.23-.52.52-.52h1.91c.29,0,.52.23.52.52s-.23.52-.52.52Z"/>
          <path class="cls-2" d="m25.96,33.8h-1.91c-.29,0-.52-.23-.52-.52s.23-.52.52-.52h1.91c.29,0,.52.23.52.52s-.23.52-.52.52Z"/>
          <path class="cls-2" d="m34.42,33.8h-1.91c-.29,0-.52-.23-.52-.52s.23-.52.52-.52h1.91c.29,0,.52.23.52.52s-.23.52-.52.52Z"/>
        </g>
      </g>
      <path class="cls-2" d="m29.44,47.08h-8.89c-.49,0-.88-.4-.88-.88v-3.97c0-2.94,2.39-5.33,5.33-5.33s5.33,2.39,5.33,5.33v3.97c0,.49-.4.88-.89.88Zm-8.73-1.04h8.57v-3.81c0-2.36-1.92-4.29-4.29-4.29s-4.29,1.92-4.29,4.29v3.81Z"/>
      <path class="cls-2" d="m35.09,7.88H14.91c-.29,0-.52-.23-.52-.52V3.2c0-.29.23-.52.52-.52h20.18c.29,0,.52.23.52.52v4.17c0,.29-.23.52-.52.52Zm-19.66-1.04h19.14v-3.12H15.43v3.12Z"/>
      <path class="cls-2" d="m25,9.87c-.29,0-.52-.23-.52-.52v-1.9c0-.29.23-.52.52-.52s.52.23.52.52v1.9c0,.29-.23.52-.52.52Z"/>
      <path class="cls-2" d="m33.47,9.87c-.29,0-.52-.23-.52-.52v-1.9c0-.29.23-.52.52-.52s.52.23.52.52v1.9c0,.29-.23.52-.52.52Z"/>
      <path class="cls-2" d="m16.53,9.87c-.29,0-.52-.23-.52-.52v-1.9c0-.29.23-.52.52-.52s.52.23.52.52v1.9c0,.29-.23.52-.52.52Z"/>
    </g>
  </g>
  <g id="guias">
    <g>
      <rect class="cls-1" x="47.5" y="47.5" width="2.5" height="2.5"/>
      <rect class="cls-1" x="47.5" width="2.5" height="2.5"/>
      <rect class="cls-1" y="47.5" width="2.5" height="2.5"/>
      <rect class="cls-1" width="2.5" height="2.5"/>
    </g>
  </g>
</svg>