<?xml version="1.0" encoding="UTF-8"?>
<svg xmlns="http://www.w3.org/2000/svg" viewBox="0 0 50 50">
  <defs>
    <style>
      .cls-1 {
        fill: #2e3135;
        stroke-width: 0px;
      }

      .cls-2 {
        fill: none;
        stroke: #000;
        stroke-miterlimit: 10;
        stroke-width: .21px;
      }
    </style>
  </defs>
  <g id="iconos">
    <g>
      <path class="cls-1" d="m25,47.5c-12.41,0-22.5-10.09-22.5-22.5S12.59,2.5,25,2.5s22.5,10.09,22.5,22.5-10.09,22.5-22.5,22.5Zm0-41.85C14.33,5.65,5.65,14.33,5.65,25s8.68,19.35,19.36,19.35,19.35-8.68,19.35-19.35S35.67,5.65,25,5.65Z"/>
      <path class="cls-1" d="m29.81,26.99c-.41,0-.81-.16-1.11-.46L11.58,9.37c-.61-.61-.61-1.61,0-2.22.61-.61,1.61-.61,2.22,0l14.45,14.48.02-5.74c0-.87.71-1.57,1.57-1.57h0c.87,0,1.57.71,1.57,1.58l-.04,9.52c0,.63-.39,1.21-.97,1.45-.19.08-.4.12-.6.12Z"/>
      <path class="cls-1" d="m37.28,43.29c-.4,0-.8-.15-1.11-.46l-14.45-14.47-.02,5.72c0,.87-.71,1.57-1.57,1.57h0c-.87,0-1.57-.71-1.57-1.58l.04-9.5c0-.63.39-1.21.97-1.45s1.26-.1,1.71.34l17.12,17.14c.61.61.61,1.61,0,2.22-.31.31-.71.46-1.11.46Z"/>
    </g>
  </g>
  <g id="guias">
    <rect class="cls-2" x="47.5" y="47.5" width="2.5" height="2.5"/>
    <rect class="cls-2" x="47.5" width="2.5" height="2.5"/>
    <rect class="cls-2" y="47.5" width="2.5" height="2.5"/>
    <rect class="cls-2" width="2.5" height="2.5"/>
  </g>
</svg>