<?xml version="1.0" encoding="UTF-8"?>
<svg xmlns="http://www.w3.org/2000/svg" viewBox="0 0 50 50">
  <defs>
    <style>
      .cls-1 {
        fill: #2e3135;
        stroke-width: 0px;
      }

      .cls-2 {
        fill: none;
        stroke: #000;
        stroke-miterlimit: 10;
        stroke-width: .21px;
      }
    </style>
  </defs>
  <g id="iconos">
    <g>
      <path class="cls-1" d="m16.31,47.5h-5.65c-5.57,0-8.16-2.59-8.16-8.16v-5.65c0-5.57,2.59-8.16,8.16-8.16h5.65c5.57,0,8.16,2.59,8.16,8.16v5.65c0,5.57-2.59,8.16-8.16,8.16Zm-5.65-18.84c-3.85,0-5.02,1.17-5.02,5.02v5.65c0,3.85,1.17,5.02,5.02,5.02h5.65c3.85,0,5.02-1.17,5.02-5.02v-5.65c0-3.85-1.17-5.02-5.02-5.02h-5.65Z"/>
      <path class="cls-1" d="m31.28,47.5c-.57,0-1.09-.3-1.37-.8-.28-.49-.27-1.1.02-1.58l2.2-3.66c.45-.75,1.41-.99,2.15-.54.74.45.99,1.41.54,2.15l-.57.94c5.78-1.35,10.1-6.55,10.1-12.74,0-.87.7-1.57,1.57-1.57s1.57.7,1.57,1.57c0,8.94-7.28,16.22-16.22,16.22Z"/>
      <path class="cls-1" d="m4.07,20.29c-.87,0-1.57-.7-1.57-1.57C2.5,9.78,9.78,2.5,18.72,2.5c.57,0,1.09.3,1.37.8.28.49.27,1.1-.02,1.58l-2.2,3.66c-.45.74-1.41.98-2.15.54-.74-.45-.99-1.41-.54-2.15l.57-.94c-5.78,1.35-10.1,6.55-10.1,12.74,0,.87-.7,1.57-1.57,1.57Z"/>
      <path class="cls-1" d="m36.51,24.48c-6.06,0-10.99-4.93-10.99-10.99s4.93-10.99,10.99-10.99,10.99,4.93,10.99,10.99-4.93,10.99-10.99,10.99Zm0-18.84c-4.33,0-7.85,3.52-7.85,7.85s3.52,7.85,7.85,7.85,7.85-3.52,7.85-7.85-3.52-7.85-7.85-7.85Z"/>
    </g>
  </g>
  <g id="guias">
    <rect class="cls-2" x="47.5" y="47.5" width="2.5" height="2.5"/>
    <rect class="cls-2" x="47.5" width="2.5" height="2.5"/>
    <rect class="cls-2" y="47.5" width="2.5" height="2.5"/>
    <rect class="cls-2" width="2.5" height="2.5"/>
  </g>
</svg>