<?xml version="1.0" encoding="UTF-8"?>
<svg xmlns="http://www.w3.org/2000/svg" viewBox="0 0 50 50">
  <defs>
    <style>
      .cls-1 {
        fill: #2e3135;
        stroke-width: 0px;
      }

      .cls-2 {
        fill: none;
        stroke: #000;
        stroke-miterlimit: 10;
        stroke-width: .21px;
      }
    </style>
  </defs>
  <g id="iconos">
    <g>
      <path class="cls-1" d="m31.28,47.5c-.57,0-1.09-.3-1.37-.8-.28-.49-.27-1.1.02-1.58l2.2-3.66c.44-.74,1.41-.99,2.15-.54.74.45.99,1.41.54,2.15l-.57.94c5.78-1.35,10.1-6.55,10.1-12.74,0-.87.7-1.57,1.57-1.57s1.57.7,1.57,1.57c0,8.94-7.28,16.22-16.22,16.22Z"/>
      <path class="cls-1" d="m4.07,20.29c-.87,0-1.57-.7-1.57-1.57C2.5,9.78,9.78,2.5,18.72,2.5c.57,0,1.09.3,1.37.8.28.49.27,1.1-.02,1.58l-2.2,3.66c-.45.74-1.41.98-2.15.54-.74-.45-.99-1.41-.54-2.15l.57-.94c-5.78,1.35-10.1,6.55-10.1,12.74,0,.87-.7,1.57-1.57,1.57Z"/>
      <path class="cls-1" d="m36.89,15.58c-.27,0-.54-.07-.78-.21l-8.33-4.81c-.75-.43-1.01-1.39-.57-2.14.43-.75,1.39-1.01,2.14-.57l7.54,4.36,7.46-4.34c.75-.44,1.71-.18,2.15.57.44.75.18,1.71-.57,2.15l-8.25,4.79c-.24.14-.52.21-.79.21Z"/>
      <path class="cls-1" d="m36.89,24.1c-.87,0-1.57-.7-1.57-1.57v-8.54c0-.87.7-1.57,1.57-1.57s1.57.7,1.57,1.57v8.54c0,.87-.7,1.57-1.57,1.57Z"/>
      <path class="cls-1" d="m36.87,24.45c-.98,0-1.95-.22-2.73-.66l-5.01-2.78c-1.64-.89-2.88-3-2.88-4.89v-5.32c0-1.87,1.24-3.98,2.88-4.89l5.02-2.79s.01,0,.02-.01c1.56-.83,3.88-.83,5.41,0l5.03,2.79c1.64.89,2.88,3,2.88,4.89v5.32c0,1.88-1.24,3.98-2.88,4.89l-5.03,2.79c-.78.43-1.75.65-2.72.65Zm-1.2-18.56l-5.01,2.78c-.64.35-1.26,1.41-1.26,2.14v5.32c0,.74.62,1.79,1.25,2.14l5.03,2.79c.61.34,1.78.34,2.39,0l5.03-2.79c.64-.35,1.26-1.41,1.26-2.14v-5.32c0-.73-.62-1.79-1.25-2.14l-5.03-2.79c-.59-.32-1.78-.32-2.41,0Z"/>
      <path class="cls-1" d="m13.11,38.6c-.27,0-.54-.07-.79-.21l-8.31-4.81c-.75-.44-1.01-1.4-.57-2.15.44-.75,1.4-1.01,2.15-.57l7.52,4.36,7.48-4.34c.75-.44,1.71-.18,2.14.57.44.75.18,1.71-.57,2.14l-8.27,4.79c-.24.14-.52.21-.79.21Z"/>
      <path class="cls-1" d="m13.11,47.12c-.87,0-1.57-.7-1.57-1.57v-8.54c0-.87.7-1.57,1.57-1.57s1.57.7,1.57,1.57v8.54c0,.87-.7,1.57-1.57,1.57Z"/>
      <path class="cls-1" d="m13.12,47.48c-.98,0-1.95-.22-2.73-.66l-5.01-2.78c-1.64-.89-2.88-3-2.88-4.89v-5.32c0-1.87,1.24-3.98,2.88-4.89l5.03-2.79s0,0,0,0c1.53-.83,3.86-.84,5.41,0l5.04,2.79c1.64.89,2.88,3,2.88,4.89v5.32c0,1.88-1.24,3.98-2.88,4.89l-5.02,2.79c-.78.43-1.75.65-2.72.65Zm-1.19-18.57l-5.02,2.78c-.64.35-1.26,1.41-1.26,2.14v5.32c0,.73.62,1.79,1.25,2.14l5.03,2.79c.61.35,1.78.34,2.39,0l5.03-2.79c.64-.35,1.26-1.42,1.26-2.14v-5.32c0-.73-.62-1.79-1.25-2.14l-5.03-2.79c-.6-.32-1.79-.32-2.4,0Z"/>
    </g>
  </g>
  <g id="guias">
    <rect class="cls-2" x="47.5" y="47.5" width="2.5" height="2.5"/>
    <rect class="cls-2" x="47.5" width="2.5" height="2.5"/>
    <rect class="cls-2" y="47.5" width="2.5" height="2.5"/>
    <rect class="cls-2" width="2.5" height="2.5"/>
  </g>
</svg>