<?xml version="1.0" encoding="UTF-8"?>
<svg xmlns="http://www.w3.org/2000/svg" viewBox="0 0 50 50">
  <defs>
    <style>
      .cls-1 {
        fill: #2e3135;
        stroke-width: 0px;
      }

      .cls-2 {
        fill: none;
        stroke: #000;
        stroke-miterlimit: 10;
        stroke-width: .21px;
      }
    </style>
  </defs>
  <g id="iconos">
    <g>
      <path class="cls-1" d="m35.67,34.94h-2.3c-.87,0-1.57-.7-1.57-1.57v-6.49c0-6.5-2.19-8.69-8.69-8.69h-6.49c-.87,0-1.57-.7-1.57-1.57v-2.3c0-8.18,3.65-11.83,11.83-11.83h8.79c8.18,0,11.83,3.65,11.83,11.83v8.79c0,8.18-3.65,11.83-11.83,11.83Zm-.73-3.14h.73c6.5,0,8.69-2.19,8.69-8.69v-8.79c0-6.5-2.19-8.69-8.69-8.69h-8.79c-6.5,0-8.69,2.19-8.69,8.69v.73h4.92c8.18,0,11.83,3.65,11.83,11.83v4.92Z"/>
      <path class="cls-1" d="m23.12,47.5h-8.79c-8.18,0-11.83-3.65-11.83-11.83v-8.79c0-8.18,3.65-11.83,11.83-11.83h8.79c8.18,0,11.83,3.65,11.83,11.83v8.79c0,8.18-3.65,11.83-11.83,11.83Zm-8.79-29.3c-6.5,0-8.69,2.19-8.69,8.69v8.79c0,6.5,2.19,8.69,8.69,8.69h8.79c6.5,0,8.69-2.19,8.69-8.69v-8.79c0-6.5-2.19-8.69-8.69-8.69h-8.79Z"/>
      <path class="cls-1" d="m16.69,36.93c-.42,0-.82-.17-1.11-.46l-4.08-4.08c-.61-.61-.61-1.61,0-2.22s1.61-.61,2.22,0l2.97,2.97,7.03-7.05c.61-.62,1.6-.62,2.22,0,.62.61.62,1.61,0,2.22l-8.14,8.16c-.29.3-.69.46-1.11.46h0Z"/>
    </g>
  </g>
  <g id="guias">
    <rect class="cls-2" x="47.5" y="47.5" width="2.5" height="2.5"/>
    <rect class="cls-2" x="47.5" width="2.5" height="2.5"/>
    <rect class="cls-2" y="47.5" width="2.5" height="2.5"/>
    <rect class="cls-2" width="2.5" height="2.5"/>
  </g>
</svg>