<?xml version="1.0" encoding="UTF-8"?>
<svg xmlns="http://www.w3.org/2000/svg" viewBox="0 0 50 50">
  <defs>
    <style>
      .cls-1 {
        fill: none;
        stroke: #000;
        stroke-miterlimit: 10;
        stroke-width: .21px;
      }

      .cls-2 {
        fill: #1e1f22;
        stroke-width: 0px;
      }
    </style>
  </defs>
  <g id="iconos">
    <g>
      <path class="cls-2" d="m46.94,47.5H3.06c-.29,0-.52-.23-.52-.52s.23-.52.52-.52h43.89c.29,0,.52.23.52.52s-.23.52-.52.52Z"/>
      <path class="cls-2" d="m11.77,44.36h-4.77c-.29,0-.52-.23-.52-.52v-21.48c0-.29.23-.52.52-.52h4.77c.29,0,.52.23.52.52v21.48c0,.29-.23.52-.52.52Zm-4.25-1.05h3.72v-20.44h-3.72v20.44Z"/>
      <path class="cls-2" d="m46.94,20.2H3.06c-.29,0-.52-.23-.52-.52v-3.36c0-.29.23-.52.52-.52h43.89c.29,0,.52.23.52.52v3.36c0,.29-.23.52-.52.52Zm-43.36-1.05h42.84v-2.32H3.58v2.32Z"/>
      <path class="cls-2" d="m44.7,47.5H6.2c-.29,0-.52-.23-.52-.52s.23-.52.52-.52h37.98v-2.09H5.82v1.04c0,.29-.23.52-.52.52s-.52-.23-.52-.52v-1.57c0-.29.23-.52.52-.52h39.4c.29,0,.52.23.52.52v3.14c0,.29-.23.52-.52.52Z"/>
      <path class="cls-2" d="m13.06,22.88h-7.34c-.29,0-.52-.23-.52-.52v-2.69c0-.29.23-.52.52-.52h7.34c.29,0,.52.23.52.52v2.69c0,.29-.23.52-.52.52Zm-6.82-1.05h6.3v-1.64h-6.3v1.64Z"/>
      <path class="cls-2" d="m27.39,44.36h-4.77c-.29,0-.52-.23-.52-.52v-21.48c0-.29.23-.52.52-.52h4.77c.29,0,.52.23.52.52v21.48c0,.29-.23.52-.52.52Zm-4.25-1.05h3.72v-20.44h-3.72v20.44Z"/>
      <path class="cls-2" d="m28.67,22.88h-7.34c-.29,0-.52-.23-.52-.52v-2.69c0-.29.23-.52.52-.52h7.34c.29,0,.52.23.52.52v2.69c0,.29-.23.52-.52.52Zm-6.82-1.05h6.3v-1.64h-6.3v1.64Z"/>
      <path class="cls-2" d="m42.73,44.36h-4.77c-.29,0-.52-.23-.52-.52v-21.48c0-.29.23-.52.52-.52h4.77c.29,0,.52.23.52.52v21.48c0,.29-.23.52-.52.52Zm-4.25-1.05h3.72v-20.44h-3.72v20.44Z"/>
      <path class="cls-2" d="m44.02,22.88h-7.34c-.29,0-.52-.23-.52-.52v-2.69c0-.29.23-.52.52-.52h7.34c.29,0,.52.23.52.52v2.69c0,.29-.23.52-.52.52Zm-6.82-1.05h6.3v-1.64h-6.3v1.64Z"/>
      <path class="cls-2" d="m3.83,16.83c-.29,0-.52-.23-.52-.52v-2.8c0-.2.11-.38.29-.47L24.78,2.56c.15-.07.32-.08.47,0l20.69,10.48c.18.09.29.27.29.47v1.1c0,.29-.23.52-.52.52s-.52-.23-.52-.52v-.78L25.01,3.61,4.35,13.83v2.48c0,.29-.23.52-.52.52Z"/>
      <path class="cls-2" d="m25,10.93c-.29,0-.52-.23-.52-.52v-1.99c0-.29.23-.52.52-.52s.52.23.52.52v1.99c0,.29-.23.52-.52.52Z"/>
    </g>
  </g>
  <g id="guias">
    <g>
      <rect class="cls-1" x="47.5" y="47.5" width="2.5" height="2.5"/>
      <rect class="cls-1" x="47.5" width="2.5" height="2.5"/>
      <rect class="cls-1" y="47.5" width="2.5" height="2.5"/>
      <rect class="cls-1" width="2.5" height="2.5"/>
    </g>
  </g>
</svg>