<?xml version="1.0" encoding="UTF-8"?>
<svg xmlns="http://www.w3.org/2000/svg" viewBox="0 0 50 50">
  <defs>
    <style>
      .cls-1 {
        fill: none;
        stroke: #000;
        stroke-miterlimit: 10;
        stroke-width: .21px;
      }

      .cls-2 {
        fill: #1e1f22;
        stroke-width: 0px;
      }
    </style>
  </defs>
  <g id="iconos">
    <g>
      <path class="cls-2" d="m37.58,47.5h-21.21c-1.48,0-2.67-1.2-2.67-2.68v-11.38c0-.34.28-.62.62-.62s.62.28.62.62v11.38c0,.8.65,1.44,1.44,1.44h20.95l6.75-7.06V5.18c0-.8-.65-1.44-1.44-1.44h-26.26c-.79,0-1.44.65-1.44,1.44v6.46c0,.34-.28.62-.62.62s-.62-.28-.62-.62v-6.46c0-1.48,1.2-2.68,2.67-2.68h26.26c1.48,0,2.68,1.2,2.68,2.68v34.28c0,.16-.06.31-.17.43l-7.11,7.42c-.12.12-.28.19-.45.19Z"/>
      <path class="cls-2" d="m44.69,8.98H14.31c-.34,0-.62-.28-.62-.62s.28-.62.62-.62h30.38c.34,0,.62.28.62.62s-.28.62-.62.62Z"/>
      <path class="cls-2" d="m39.54,36.33h-10.04c-.34,0-.62-.28-.62-.62s.28-.62.62-.62h10.04c.34,0,.62.28.62.62s-.28.62-.62.62Z"/>
      <path class="cls-2" d="m39.54,30.61h-4.12c-.34,0-.62-.28-.62-.62s.28-.62.62-.62h4.12c.34,0,.62.28.62.62s-.28.62-.62.62Z"/>
      <path class="cls-2" d="m39.54,23.5h-4.12c-.34,0-.62-.28-.62-.62s.28-.62.62-.62h4.12c.34,0,.62.28.62.62s-.28.62-.62.62Z"/>
      <path class="cls-2" d="m39.54,16.5h-4.12c-.34,0-.62-.28-.62-.62s.28-.62.62-.62h4.12c.34,0,.62.28.62.62s-.28.62-.62.62Z"/>
      <path class="cls-2" d="m32.23,30.61h-8.67c-.34,0-.62-.28-.62-.62s.28-.62.62-.62h8.67c.34,0,.62.28.62.62s-.28.62-.62.62Z"/>
      <path class="cls-2" d="m32.23,23.5h-8.92c-.34,0-.62-.28-.62-.62s.28-.62.62-.62h8.92c.34,0,.62.28.62.62s-.28.62-.62.62Z"/>
      <path class="cls-2" d="m32.23,16.5h-8.35c-.34,0-.62-.28-.62-.62s.28-.62.62-.62h8.35c.34,0,.62.28.62.62s-.28.62-.62.62Z"/>
      <path class="cls-2" d="m14.31,27.07c-1.46,0-2.31-1.07-2.35-1.12-.21-.27-.16-.65.1-.86.26-.21.65-.17.86.1.02.02.54.64,1.39.65.33,0,.61-.1.8-.31.21-.21.32-.52.32-.85-.01-.43-.17-.98-1.26-1.46-.11-.05-.23-.09-.35-.14-.74-.28-1.99-.74-1.99-2.39,0-.68.25-1.31.7-1.76.44-.44,1.06-.68,1.73-.68h.01c1.31,0,2.27.81,2.31.84.26.22.29.61.07.87-.22.26-.61.29-.87.07-.02-.02-.68-.55-1.52-.55h0c-.35,0-.65.11-.86.32-.22.22-.34.53-.34.89,0,.76.41.95,1.18,1.23.14.06.29.11.42.16,1.3.57,1.97,1.43,2,2.56.01.66-.23,1.3-.67,1.75-.43.44-1.02.67-1.69.67Z"/>
      <path class="cls-2" d="m14.31,19.48c-.34,0-.62-.28-.62-.62v-1.33c0-.34.28-.62.62-.62s.62.28.62.62v1.33c0,.34-.28.62-.62.62Z"/>
      <path class="cls-2" d="m14.3,28.3h0c-.34,0-.62-.28-.62-.62v-1.23c0-.34.28-.62.62-.62h0c.34,0,.61.28.61.62v1.24c0,.34-.28.61-.62.61Z"/>
      <path class="cls-2" d="m14.31,32.22c-5.3,0-9.61-4.31-9.61-9.61s4.31-9.61,9.61-9.61,9.61,4.31,9.61,9.61-4.31,9.61-9.61,9.61Zm0-17.99c-4.62,0-8.38,3.76-8.38,8.38s3.76,8.38,8.38,8.38,8.38-3.76,8.38-8.38-3.76-8.38-8.38-8.38Z"/>
      <path class="cls-2" d="m37.58,47.5c-.34,0-.62-.28-.62-.62v-5.55c0-.07-.06-1.11.6-1.81.36-.39.87-.59,1.48-.59h5.55c.34,0,.62.28.62.62s-.28.62-.62.62h-5.55c-.26,0-.45.07-.58.2-.26.27-.28.8-.27.93v5.6c0,.34-.27.62-.61.62Z"/>
    </g>
  </g>
  <g id="guias">
    <rect class="cls-1" x="47.5" y="47.5" width="2.5" height="2.5"/>
    <rect class="cls-1" x="47.5" width="2.5" height="2.5"/>
    <rect class="cls-1" y="47.5" width="2.5" height="2.5"/>
    <rect class="cls-1" width="2.5" height="2.5"/>
    <rect class="cls-1" x="47.5" y="35" width="2.5" height="2.5"/>
    <rect class="cls-1" y="35" width="2.5" height="2.5"/>
  </g>
</svg>