<?xml version="1.0" encoding="UTF-8"?>
<svg xmlns="http://www.w3.org/2000/svg" viewBox="0 0 50 50">
  <defs>
    <style>
      .cls-1 {
        fill: #2e3135;
        stroke-width: 0px;
      }

      .cls-2 {
        fill: none;
        stroke: #000;
        stroke-miterlimit: 10;
        stroke-width: .21px;
      }
    </style>
  </defs>
  <g id="iconos">
    <g>
      <path class="cls-1" d="m45.93,47.5H4.07c-.87,0-1.57-.7-1.57-1.57s.7-1.57,1.57-1.57h41.86c.87,0,1.57.7,1.57,1.57s-.7,1.57-1.57,1.57Z"/>
      <path class="cls-1" d="m30.23,12.92c-1.98,0-3.97-.37-5.82-1.11-.59-.24-.99-.82-.99-1.46v-6.28c0-.52.26-1.01.69-1.3.43-.29.97-.35,1.46-.16,2.95,1.18,6.34,1.18,9.3,0,.48-.19,1.03-.14,1.46.16.43.29.69.78.69,1.3v6.28c0,.64-.39,1.22-.99,1.46-1.85.74-3.83,1.11-5.82,1.11Zm-3.66-3.68c2.37.72,4.95.72,7.33,0v-3.03c-2.4.57-4.93.57-7.33,0v3.03Z"/>
      <path class="cls-1" d="m25,18.2c-.87,0-1.57-.7-1.57-1.57v-6.28c0-.87.7-1.57,1.57-1.57s1.57.7,1.57,1.57v6.28c0,.87-.7,1.57-1.57,1.57Z"/>
      <path class="cls-1" d="m41.74,47.5H8.26c-.87,0-1.57-.7-1.57-1.57v-23.02c0-5.06,2.79-7.85,7.85-7.85h20.93c5.06,0,7.85,2.79,7.85,7.85v23.02c0,.87-.7,1.57-1.57,1.57Zm-31.92-3.14h30.35v-21.45c0-3.3-1.41-4.71-4.71-4.71H14.54c-3.3,0-4.71,1.41-4.71,4.71v21.45Z"/>
      <path class="cls-1" d="m40.53,26.57H9.47c-.87,0-1.57-.7-1.57-1.57s.7-1.57,1.57-1.57h31.06c.87,0,1.57.7,1.57,1.57s-.7,1.57-1.57,1.57Z"/>
      <rect class="cls-1" x="15.04" y="25" width="3.14" height="20.93"/>
      <rect class="cls-1" x="23.41" y="25" width="3.14" height="20.93"/>
      <rect class="cls-1" x="31.78" y="25" width="3.14" height="20.93"/>
    </g>
  </g>
  <g id="guias">
    <rect class="cls-2" x="47.5" y="47.5" width="2.5" height="2.5"/>
    <rect class="cls-2" x="47.5" width="2.5" height="2.5"/>
    <rect class="cls-2" y="47.5" width="2.5" height="2.5"/>
    <rect class="cls-2" width="2.5" height="2.5"/>
  </g>
</svg>