<?xml version="1.0" encoding="UTF-8"?>
<svg xmlns="http://www.w3.org/2000/svg" viewBox="0 0 50 50">
  <defs>
    <style>
      .cls-1 {
        fill: #2e3135;
        stroke-width: 0px;
      }

      .cls-2 {
        fill: none;
        stroke: #000;
        stroke-miterlimit: 10;
        stroke-width: .21px;
      }
    </style>
  </defs>
  <g id="iconos">
    <g>
      <path class="cls-1" d="m19.98,43.31c-9.19,0-13.29-4.1-13.29-13.29v-10.05c0-9.19,4.1-13.29,13.29-13.29h10.05c9.19,0,13.29,4.1,13.29,13.29,0,.87-.7,1.57-1.57,1.57s-1.57-.7-1.57-1.57c0-7.49-2.66-10.15-10.15-10.15h-10.05c-7.5,0-10.15,2.66-10.15,10.15v10.05c0,7.5,2.66,10.15,10.15,10.15.87,0,1.57.7,1.57,1.57s-.7,1.57-1.57,1.57Z"/>
      <path class="cls-1" d="m16.61,35.67c-.34,0-.69-.11-.98-.34-1.82-1.45-2.66-3.73-2.66-7.19v-6.28c0-6.07,2.83-8.9,8.9-8.9h6.28c3.47,0,5.76.86,7.2,2.69.54.68.42,1.67-.26,2.2-.68.53-1.67.42-2.2-.27-.5-.64-1.54-1.49-4.73-1.49h-6.28c-4.36,0-5.76,1.4-5.76,5.76v6.28c0,3.19.85,4.23,1.48,4.74.68.54.79,1.53.25,2.21-.31.39-.77.59-1.23.59Z"/>
      <path class="cls-1" d="m16.65,9.83c-.87,0-1.57-.7-1.57-1.57v-4.19c0-.87.7-1.57,1.57-1.57s1.57.7,1.57,1.57v4.19c0,.87-.7,1.57-1.57,1.57Z"/>
      <path class="cls-1" d="m25,9.83c-.87,0-1.57-.7-1.57-1.57v-4.19c0-.87.7-1.57,1.57-1.57s1.57.7,1.57,1.57v4.19c0,.87-.7,1.57-1.57,1.57Z"/>
      <path class="cls-1" d="m33.37,9.83c-.87,0-1.57-.7-1.57-1.57v-4.19c0-.87.7-1.57,1.57-1.57s1.57.7,1.57,1.57v4.19c0,.87-.7,1.57-1.57,1.57Z"/>
      <path class="cls-1" d="m45.93,18.2h-4.19c-.87,0-1.57-.7-1.57-1.57s.7-1.57,1.57-1.57h4.19c.87,0,1.57.7,1.57,1.57s-.7,1.57-1.57,1.57Z"/>
      <path class="cls-1" d="m16.65,47.5c-.87,0-1.57-.7-1.57-1.57v-4.19c0-.87.7-1.57,1.57-1.57s1.57.7,1.57,1.57v4.19c0,.87-.7,1.57-1.57,1.57Z"/>
      <path class="cls-1" d="m8.26,18.2h-4.19c-.87,0-1.57-.7-1.57-1.57s.7-1.57,1.57-1.57h4.19c.87,0,1.57.7,1.57,1.57s-.7,1.57-1.57,1.57Z"/>
      <path class="cls-1" d="m8.26,26.57h-4.19c-.87,0-1.57-.7-1.57-1.57s.7-1.57,1.57-1.57h4.19c.87,0,1.57.7,1.57,1.57s-.7,1.57-1.57,1.57Z"/>
      <path class="cls-1" d="m8.26,34.94h-4.19c-.87,0-1.57-.7-1.57-1.57s.7-1.57,1.57-1.57h4.19c.87,0,1.57.7,1.57,1.57s-.7,1.57-1.57,1.57Z"/>
      <path class="cls-1" d="m34.86,40.36c-2.7,0-4.9-2.2-4.9-4.9s2.2-4.9,4.9-4.9,4.9,2.2,4.9,4.9-2.2,4.9-4.9,4.9Zm0-6.66c-.97,0-1.76.79-1.76,1.76s.79,1.76,1.76,1.76,1.76-.79,1.76-1.76-.79-1.76-1.76-1.76Z"/>
      <path class="cls-1" d="m38.4,47.48c-.3,0-.6-.04-.89-.12-.87-.24-1.61-.79-2.07-1.57l-.12-.2c-.24-.42-.45-.54-.49-.55-.02.01-.22.12-.45.52l-.14.24c-.95,1.59-3.04,2.14-4.65,1.22l-1.92-1.12c-1.75-1.02-2.35-3.27-1.34-5.01.23-.39.22-.63.21-.66-.02-.02-.26-.11-.74-.13-.92,0-1.82-.37-2.5-1.04-.71-.69-1.1-1.63-1.1-2.63v-1.95c0-2.02,1.64-3.66,3.66-3.66.46,0,.66-.12.68-.15,0-.03,0-.26-.22-.66-.49-.84-.62-1.84-.37-2.79s.87-1.75,1.73-2.23l1.89-1.1c.78-.46,1.7-.58,2.59-.35.87.24,1.61.79,2.08,1.57l.12.21c.24.41.44.53.48.54.02-.01.22-.12.45-.52l.14-.23c.95-1.6,3.04-2.15,4.66-1.23l1.91,1.11c.85.49,1.45,1.28,1.71,2.22.26.95.13,1.94-.37,2.8-.23.39-.22.62-.21.66.02.02.22.13.68.13,2.02,0,3.66,1.64,3.66,3.66v1.95c0,2.02-1.64,3.66-3.66,3.66-.46,0-.66.12-.69.15,0,.02,0,.26.22.66.49.84.62,1.84.37,2.79-.26.95-.87,1.74-1.73,2.23l-1.88,1.1c-.52.31-1.11.47-1.71.47Zm-3.56-5.58c1.25,0,2.41.76,3.18,2.09l.11.18c.09.15.26.21.39.13l1.92-1.12c.18-.1.24-.25.26-.32.02-.08.04-.24-.05-.4-.77-1.33-.85-2.72-.22-3.81.63-1.09,1.87-1.71,3.4-1.71.28,0,.52-.24.52-.52v-1.95c0-.28-.24-.52-.52-.52-1.53,0-2.77-.62-3.4-1.71-.63-1.09-.55-2.48.22-3.8.09-.16.08-.3.05-.39-.02-.08-.09-.23-.26-.34l-1.9-1.11c-.13-.08-.31-.02-.39.11l-.13.21c-.76,1.31-1.92,2.07-3.17,2.07s-2.41-.76-3.18-2.09l-.11-.19c-.07-.12-.27-.2-.38-.12l-1.92,1.12c-.18.1-.24.25-.26.32-.02.08-.04.24.05.39.77,1.33.85,2.72.22,3.81-.63,1.09-1.87,1.71-3.4,1.71-.28,0-.52.24-.52.52v1.95c0,.2.1.33.16.39.06.06.17.12.34.14,1.56,0,2.8.62,3.43,1.71.63,1.09.55,2.48-.22,3.8-.15.26-.06.57.21.73l1.9,1.11c.12.07.31.02.39-.12l.13-.22c.75-1.3,1.91-2.06,3.17-2.06Z"/>
    </g>
  </g>
  <g id="guias">
    <g>
      <rect class="cls-2" x="47.5" y="47.5" width="2.5" height="2.5"/>
      <rect class="cls-2" x="47.5" width="2.5" height="2.5"/>
      <rect class="cls-2" y="47.5" width="2.5" height="2.5"/>
      <rect class="cls-2" width="2.5" height="2.5"/>
    </g>
  </g>
</svg>