<?xml version="1.0" encoding="UTF-8"?>
<svg xmlns="http://www.w3.org/2000/svg" viewBox="0 0 50 50">
  <defs>
    <style>
      .cls-1 {
        fill: #2e3135;
        stroke-width: 0px;
      }

      .cls-2 {
        fill: none;
        stroke: #000;
        stroke-miterlimit: 10;
        stroke-width: .21px;
      }
    </style>
  </defs>
  <g id="iconos">
    <g>
      <path class="cls-1" d="m30.02,43.31h-10.05c-9.19,0-13.29-4.1-13.29-13.29v-10.05c0-9.19,4.1-13.29,13.29-13.29h10.05c9.19,0,13.29,4.1,13.29,13.29v10.05c0,9.19-4.1,13.29-13.29,13.29ZM19.98,9.83c-7.49,0-10.15,2.66-10.15,10.15v10.05c0,7.49,2.66,10.15,10.15,10.15h10.05c7.5,0,10.15-2.66,10.15-10.15v-10.05c0-7.49-2.66-10.15-10.15-10.15h-10.05Z"/>
      <path class="cls-1" d="m28.14,37.03h-6.28c-6.07,0-8.9-2.83-8.9-8.9v-6.28c0-6.07,2.83-8.9,8.9-8.9h6.28c6.07,0,8.9,2.83,8.9,8.9v6.28c0,6.07-2.83,8.9-8.9,8.9Zm-6.28-20.93c-4.36,0-5.76,1.4-5.76,5.76v6.28c0,4.36,1.4,5.76,5.76,5.76h6.28c4.36,0,5.76-1.4,5.76-5.76v-6.28c0-4.36-1.4-5.76-5.76-5.76h-6.28Z"/>
      <path class="cls-1" d="m16.65,9.83c-.87,0-1.57-.7-1.57-1.57v-4.19c0-.87.7-1.57,1.57-1.57s1.57.7,1.57,1.57v4.19c0,.87-.7,1.57-1.57,1.57Z"/>
      <path class="cls-1" d="m25,9.83c-.87,0-1.57-.7-1.57-1.57v-4.19c0-.87.7-1.57,1.57-1.57s1.57.7,1.57,1.57v4.19c0,.87-.7,1.57-1.57,1.57Z"/>
      <path class="cls-1" d="m33.37,9.83c-.87,0-1.57-.7-1.57-1.57v-4.19c0-.87.7-1.57,1.57-1.57s1.57.7,1.57,1.57v4.19c0,.87-.7,1.57-1.57,1.57Z"/>
      <path class="cls-1" d="m45.93,18.2h-4.19c-.87,0-1.57-.7-1.57-1.57s.7-1.57,1.57-1.57h4.19c.87,0,1.57.7,1.57,1.57s-.7,1.57-1.57,1.57Z"/>
      <path class="cls-1" d="m45.93,26.57h-4.19c-.87,0-1.57-.7-1.57-1.57s.7-1.57,1.57-1.57h4.19c.87,0,1.57.7,1.57,1.57s-.7,1.57-1.57,1.57Z"/>
      <path class="cls-1" d="m45.93,34.94h-4.19c-.87,0-1.57-.7-1.57-1.57s.7-1.57,1.57-1.57h4.19c.87,0,1.57.7,1.57,1.57s-.7,1.57-1.57,1.57Z"/>
      <path class="cls-1" d="m33.37,47.5c-.87,0-1.57-.7-1.57-1.57v-4.19c0-.87.7-1.57,1.57-1.57s1.57.7,1.57,1.57v4.19c0,.87-.7,1.57-1.57,1.57Z"/>
      <path class="cls-1" d="m25.02,47.5c-.87,0-1.57-.7-1.57-1.57v-4.19c0-.87.7-1.57,1.57-1.57s1.57.7,1.57,1.57v4.19c0,.87-.7,1.57-1.57,1.57Z"/>
      <path class="cls-1" d="m16.65,47.5c-.87,0-1.57-.7-1.57-1.57v-4.19c0-.87.7-1.57,1.57-1.57s1.57.7,1.57,1.57v4.19c0,.87-.7,1.57-1.57,1.57Z"/>
      <path class="cls-1" d="m8.26,18.2h-4.19c-.87,0-1.57-.7-1.57-1.57s.7-1.57,1.57-1.57h4.19c.87,0,1.57.7,1.57,1.57s-.7,1.57-1.57,1.57Z"/>
      <path class="cls-1" d="m8.26,26.57h-4.19c-.87,0-1.57-.7-1.57-1.57s.7-1.57,1.57-1.57h4.19c.87,0,1.57.7,1.57,1.57s-.7,1.57-1.57,1.57Z"/>
      <path class="cls-1" d="m8.26,34.94h-4.19c-.87,0-1.57-.7-1.57-1.57s.7-1.57,1.57-1.57h4.19c.87,0,1.57.7,1.57,1.57s-.7,1.57-1.57,1.57Z"/>
      <path class="cls-1" d="m25,31.38c-.26,0-.53-.07-.78-.21-.75-.43-1.01-1.39-.58-2.14l1.41-2.46h-1.22c-1,0-1.82-.44-2.25-1.2-.44-.76-.4-1.69.1-2.55l1.96-3.42c.43-.75,1.39-1.01,2.14-.58.75.43,1.01,1.39.58,2.14l-1.41,2.46h1.22c1,0,1.82.44,2.25,1.2.44.76.4,1.69-.1,2.55l-1.96,3.42c-.29.5-.82.79-1.36.79Z"/>
    </g>
  </g>
  <g id="guias">
    <rect class="cls-2" x="47.5" y="47.5" width="2.5" height="2.5"/>
    <rect class="cls-2" x="47.5" width="2.5" height="2.5"/>
    <rect class="cls-2" y="47.5" width="2.5" height="2.5"/>
    <rect class="cls-2" width="2.5" height="2.5"/>
  </g>
</svg>