<?xml version="1.0" encoding="UTF-8"?>
<svg xmlns="http://www.w3.org/2000/svg" viewBox="0 0 50 50">
  <defs>
    <style>
      .cls-1 {
        fill: #2e3135;
        stroke-width: 0px;
      }

      .cls-2 {
        fill: none;
        stroke: #000;
        stroke-miterlimit: 10;
        stroke-width: .21px;
      }
    </style>
  </defs>
  <g id="iconos">
    <g>
      <path class="cls-1" d="m25,47.5c-12.41,0-22.5-10.09-22.5-22.5S12.59,2.5,25,2.5s22.5,10.09,22.5,22.5-10.09,22.5-22.5,22.5Zm0-41.86C14.32,5.64,5.64,14.32,5.64,25s8.68,19.36,19.36,19.36,19.36-8.68,19.36-19.36S35.68,5.64,25,5.64Z"/>
      <path class="cls-1" d="m18.7,32.58c-4.18,0-7.58-3.4-7.58-7.58s3.4-7.58,7.58-7.58c1.86,0,3.64.68,5.01,1.91.64.58.7,1.57.12,2.22-.58.64-1.57.7-2.22.12-.79-.71-1.82-1.1-2.91-1.1-2.45,0-4.44,1.99-4.44,4.44s1.99,4.44,4.44,4.44c1.05,0,2.09-.4,2.93-1.13.66-.57,1.65-.49,2.21.16.57.66.49,1.65-.16,2.21-1.41,1.22-3.18,1.89-4.98,1.89Z"/>
      <path class="cls-1" d="m33.35,32.58c-4.18,0-7.58-3.4-7.58-7.58s3.4-7.58,7.58-7.58c1.86,0,3.64.68,5.01,1.91.64.58.7,1.57.12,2.22s-1.57.7-2.22.12c-.79-.71-1.82-1.1-2.91-1.1-2.45,0-4.44,1.99-4.44,4.44s1.99,4.44,4.44,4.44c1.05,0,2.09-.4,2.93-1.13.66-.57,1.65-.49,2.21.16.57.66.49,1.65-.16,2.21-1.41,1.22-3.18,1.89-4.98,1.89Z"/>
    </g>
  </g>
  <g id="guias">
    <rect class="cls-2" x="47.5" y="47.5" width="2.5" height="2.5"/>
    <rect class="cls-2" x="47.5" width="2.5" height="2.5"/>
    <rect class="cls-2" y="47.5" width="2.5" height="2.5"/>
    <rect class="cls-2" width="2.5" height="2.5"/>
  </g>
</svg>