<?xml version="1.0" encoding="UTF-8"?>
<svg xmlns="http://www.w3.org/2000/svg" viewBox="0 0 50 50">
  <defs>
    <style>
      .cls-1 {
        fill: #2e3135;
        stroke-width: 0px;
      }

      .cls-2 {
        fill: none;
        stroke: #000;
        stroke-miterlimit: 10;
        stroke-width: .21px;
      }
    </style>
  </defs>
  <g id="iconos">
    <path class="cls-1" d="m35.47,43.93H14.53c-6.64-.03-12.03-5.43-12.03-12.06V11.83c0-2.73,1.27-3.66,2.02-3.98.76-.31,2.31-.55,4.24,1.38l5.42,5.42c.13.13.3.15.38.15.08,0,.22-.02.34-.14l7.51-7.53c.7-.7,1.59-1.03,2.62-1.07.98,0,1.89.39,2.57,1.09l7.5,7.5c.13.13.28.09.38.15.08,0,.22-.02.34-.14l5.43-5.44c1.93-1.93,3.48-1.69,4.24-1.38.75.31,2.02,1.24,2.02,3.98v20.07c0,7.2-4.84,12.03-12.03,12.03ZM5.76,10.85c-.06.17-.12.47-.12.98v20.05c0,4.9,3.99,8.9,8.9,8.92h20.92c5.4,0,8.9-3.49,8.9-8.9V11.83c0-.5-.07-.81-.12-.98-.16.08-.42.25-.78.6l-5.42,5.42c-.66.68-1.57,1.06-2.55,1.07-.99.03-1.92-.37-2.62-1.07l-7.51-7.52c-.13-.13-.25-.11-.36-.15-.08,0-.24.02-.38.15l-7.49,7.51c-.66.68-1.58,1.07-2.56,1.07h-.02c-.98,0-1.9-.38-2.59-1.07l-5.42-5.42c-.36-.36-.62-.52-.78-.6Z"/>
  </g>
  <g id="guias">
    <rect class="cls-2" x="47.5" y="47.5" width="2.5" height="2.5"/>
    <rect class="cls-2" x="47.5" width="2.5" height="2.5"/>
    <rect class="cls-2" y="47.5" width="2.5" height="2.5"/>
    <rect class="cls-2" width="2.5" height="2.5"/>
  </g>
</svg>