<?xml version="1.0" encoding="UTF-8"?>
<svg xmlns="http://www.w3.org/2000/svg" viewBox="0 0 50 50">
  <defs>
    <style>
      .cls-1 {
        fill: #2e3135;
        stroke-width: 0px;
      }

      .cls-2 {
        fill: none;
        stroke: #000;
        stroke-miterlimit: 10;
        stroke-width: .21px;
      }
    </style>
  </defs>
  <g id="iconos">
    <g>
      <path class="cls-1" d="m34.87,41.13H15.28c-1.55,0-3.11-1.1-3.62-2.57L3.03,14.43c-1.08-3.04-.3-4.44.55-5.07.84-.64,2.4-1,5.01.88l8.13,5.81c.23.16.48.23.66.17.18-.06.34-.24.45-.52l3.66-9.77c1.09-2.92,2.73-3.36,3.6-3.36s2.51.44,3.6,3.36l3.67,9.78c.1.27.26.45.45.51.18.06.41,0,.65-.18l7.62-5.44c2.78-2,4.42-1.62,5.31-.96.89.67,1.7,2.14.56,5.38l-8.42,23.58c-.58,1.46-2.13,2.52-3.64,2.52ZM5.64,12.12c.03.28.12.69.33,1.26l8.63,24.14c.08.21.46.48.68.48h19.6c.22,0,.63-.29.71-.49l8.4-23.53c.28-.8.37-1.34.38-1.66-.31.11-.8.34-1.48.83l-7.63,5.44c-1.04.73-2.27.96-3.37.61-1.11-.34-2.01-1.21-2.46-2.39l-3.67-9.79c-.27-.73-.53-1.08-.67-1.24-.15.16-.4.51-.67,1.24l-3.67,9.78c-.46,1.19-1.35,2.06-2.45,2.4-1.11.34-2.34.12-3.38-.6l-8.15-5.83c-.48-.34-.85-.55-1.11-.66Z"/>
      <path class="cls-1" d="m36.54,47.43H13.61c-.86,0-1.56-.7-1.56-1.56s.7-1.56,1.56-1.56h22.93c.86,0,1.56.7,1.56,1.56s-.7,1.56-1.56,1.56Z"/>
      <path class="cls-1" d="m30.29,30.75h-10.42c-.86,0-1.56-.7-1.56-1.56s.7-1.56,1.56-1.56h10.42c.86,0,1.56.7,1.56,1.56s-.7,1.56-1.56,1.56Z"/>
    </g>
  </g>
  <g id="guias">
    <rect class="cls-2" x="47.5" y="47.5" width="2.5" height="2.5"/>
    <rect class="cls-2" x="47.5" width="2.5" height="2.5"/>
    <rect class="cls-2" y="47.5" width="2.5" height="2.5"/>
    <rect class="cls-2" width="2.5" height="2.5"/>
  </g>
</svg>