<?xml version="1.0" encoding="UTF-8"?>
<svg xmlns="http://www.w3.org/2000/svg" viewBox="0 0 50 50">
  <defs>
    <style>
      .cls-1 {
        fill: #2e3135;
        stroke-width: 0px;
      }

      .cls-2 {
        fill: none;
        stroke: #000;
        stroke-miterlimit: 10;
        stroke-width: .21px;
      }
    </style>
  </defs>
  <g id="iconos">
    <g>
      <path class="cls-1" d="m25.31,40.38c-.87,0-1.57-.7-1.57-1.57v-4.39c0-.87.7-1.57,1.57-1.57s1.57.7,1.57,1.57v4.39c0,.87-.7,1.57-1.57,1.57Z"/>
      <path class="cls-1" d="m37.35,47.5H13.28v-3.66c0-3.17,2.58-5.76,5.76-5.76h12.56c3.17,0,5.76,2.58,5.76,5.76v3.66Zm-20.93-3.14h17.79v-.52c0-1.44-1.17-2.62-2.62-2.62h-12.56c-1.44,0-2.62,1.17-2.62,2.62v.52Z"/>
      <path class="cls-1" d="m37.87,47.5H12.75c-.87,0-1.57-.7-1.57-1.57s.7-1.57,1.57-1.57h25.12c.87,0,1.57.7,1.57,1.57s-.7,1.57-1.57,1.57Z"/>
      <path class="cls-1" d="m25,34.94c-8.94,0-16.22-7.28-16.22-16.22v-6.28c0-5.48,4.46-9.94,9.94-9.94h12.56c5.48,0,9.94,4.46,9.94,9.94v6.28c0,8.94-7.28,16.22-16.22,16.22Zm-6.28-29.3c-3.75,0-6.8,3.05-6.8,6.8v6.28c0,7.21,5.87,13.08,13.08,13.08s13.08-5.87,13.08-13.08v-6.28c0-3.75-3.05-6.8-6.8-6.8h-12.56Z"/>
      <path class="cls-1" d="m11.33,25.84c-.16,0-.32-.02-.48-.08-1.71-.55-3.32-1.55-4.67-2.9-2.41-2.67-3.6-5.56-3.6-8.65,0-3.81,2.99-6.8,6.8-6.8h1.36c.53,0,1.02.27,1.31.71s.34,1,.13,1.49c-.33.76-.5,1.6-.5,2.51v6.28c0,1.8.37,3.57,1.09,5.24.24.56.13,1.22-.28,1.67-.3.33-.73.52-1.16.52Zm-2.67-15.21c-1.69.33-2.94,1.79-2.94,3.59,0,2.29.92,4.47,2.74,6.49.09.1.19.19.29.28-.14-.85-.2-1.71-.2-2.58v-6.28c0-.51.04-1.01.11-1.5Z"/>
      <path class="cls-1" d="m38.67,25.84c-.44,0-.86-.18-1.16-.52-.41-.46-.52-1.11-.28-1.67.72-1.68,1.09-3.44,1.09-5.24v-6.28c0-.91-.17-1.76-.5-2.51-.21-.48-.16-1.04.13-1.49s.78-.71,1.31-.71h1.36c3.81,0,6.8,2.99,6.8,6.8,0,3.08-1.19,5.97-3.54,8.59-1.41,1.41-3.03,2.41-4.73,2.96-.16.05-.32.08-.48.08Zm2.67-15.21c.07.49.11.99.11,1.5v6.28c0,.87-.07,1.73-.2,2.57.12-.11.24-.22.35-.34,1.76-1.96,2.68-4.14,2.68-6.42,0-1.8-1.24-3.27-2.94-3.59Z"/>
    </g>
  </g>
  <g id="guias">
    <rect class="cls-2" x="47.5" y="47.5" width="2.5" height="2.5"/>
    <rect class="cls-2" x="47.5" width="2.5" height="2.5"/>
    <rect class="cls-2" y="47.5" width="2.5" height="2.5"/>
    <rect class="cls-2" width="2.5" height="2.5"/>
  </g>
</svg>