<?xml version="1.0" encoding="UTF-8"?>
<svg xmlns="http://www.w3.org/2000/svg" viewBox="0 0 50 50">
  <defs>
    <style>
      .cls-1 {
        fill: none;
        stroke: #000;
        stroke-miterlimit: 10;
        stroke-width: .21px;
      }

      .cls-2 {
        fill: #1e1f22;
        stroke-width: 0px;
      }
    </style>
  </defs>
  <g id="iconos">
    <g>
      <path class="cls-2" d="m25,47.43c-12.37,0-22.43-10.06-22.43-22.43S12.63,2.57,25,2.57s22.43,10.06,22.43,22.43-10.06,22.43-22.43,22.43Zm0-41.72C14.36,5.7,5.7,14.36,5.7,25s8.66,19.3,19.3,19.3,19.3-8.66,19.3-19.3S35.64,5.7,25,5.7Z"/>
      <path class="cls-2" d="m25,37h-8.34c-.86,0-1.56-.7-1.56-1.56V14.57c0-.86.7-1.56,1.56-1.56h8.34c6.73,0,12,5.27,12,12s-5.27,12-12,12Zm-6.78-3.13h6.78c4.97,0,8.87-3.9,8.87-8.87s-3.9-8.87-8.87-8.87h-6.78v17.73Z"/>
      <path class="cls-2" d="m38.56,22.39H13.53c-.86,0-1.56-.7-1.56-1.56s.7-1.56,1.56-1.56h25.03c.86,0,1.56.7,1.56,1.56s-.7,1.56-1.56,1.56Z"/>
      <path class="cls-2" d="m38.56,30.74H13.53c-.86,0-1.56-.7-1.56-1.56s.7-1.56,1.56-1.56h25.03c.86,0,1.56.7,1.56,1.56s-.7,1.56-1.56,1.56Z"/>
    </g>
  </g>
  <g id="guias">
    <rect class="cls-1" x="47.5" y="47.5" width="2.5" height="2.5"/>
    <rect class="cls-1" x="47.5" width="2.5" height="2.5"/>
    <rect class="cls-1" y="47.5" width="2.5" height="2.5"/>
    <rect class="cls-1" width="2.5" height="2.5"/>
  </g>
</svg>