<?xml version="1.0" encoding="UTF-8"?>
<svg id="iconos" xmlns="http://www.w3.org/2000/svg" viewBox="0 0 50 50">
  <defs>
    <style>
      .cls-1 {
        fill: #1e1f22;
        stroke-width: 0px;
      }
    </style>
  </defs>
  <path class="cls-1" d="m8.42,29.57c0-.2.02-.38.05-.56-.22.07-.46.12-.73.12-1.21,0-2.01-.86-2.01-2.09s.8-2.09,2.01-2.09,2.05.84,2.05,2.09c0,.05,0,.09-.01.14.44-.25.97-.39,1.57-.39s1.17.16,1.62.45v-9.56h-3.18v5.29c-.61-.55-1.54-.86-2.68-.86-2.7,0-4.61,1.99-4.61,4.96s1.91,4.94,4.61,4.94c.77,0,1.48-.19,2.08-.5-.48-.48-.77-1.15-.77-1.93Z"/>
  <path class="cls-1" d="m24.97,22.43v9.3h-3.05v-.92c-.64.74-1.78,1.19-3.03,1.19-2.62,0-4.38-1.93-4.38-4.84s1.88-5.06,4.69-5.06c1.27,0,2.25.37,2.93,1.13l.2-.8h2.64Zm-3.18,4.61c0-1.25-.84-2.09-2.05-2.09s-2.01.86-2.01,2.09.8,2.09,2.01,2.09,2.05-.84,2.05-2.09Z"/>
  <path class="cls-1" d="m27.02,17.67h3.18v14.05h-3.18v-14.05Z"/>
  <path class="cls-1" d="m43.86,17.67h3.18v9.36h-3.18v-9.36Z"/>
  <path class="cls-1" d="m36.81,32c-2.99,0-4.98-2.01-4.98-4.96s2.05-4.94,4.92-4.94,4.75,1.88,4.75,4.51c0,.57-.06,1.04-.12,1.31h-6.41c.04.9.76,1.52,1.84,1.52.8,0,1.39-.29,1.64-.76h3.07c-.39,1.99-2.27,3.32-4.71,3.32Zm1.43-6.13c-.04-.76-.72-1.19-1.62-1.19s-1.56.45-1.62,1.19h3.24Z"/>
  <path class="cls-1" d="m43.12,29.97c0-1.35,1-2.11,2.23-2.11s2.15.76,2.15,2.11-.96,2.09-2.15,2.09c-1.27,0-2.23-.8-2.23-2.09Z"/>
  <path class="cls-1" d="m8.93,29.57c0-1.46,1.09-2.28,2.42-2.28s2.33.82,2.33,2.28-1.04,2.26-2.33,2.26c-1.37,0-2.42-.86-2.42-2.26Z"/>
</svg>