<?xml version="1.0" encoding="UTF-8"?>
<svg xmlns="http://www.w3.org/2000/svg" viewBox="0 0 50 50">
  <defs>
    <style>
      .cls-1 {
        fill: #2e3135;
        stroke-width: 0px;
      }

      .cls-2 {
        fill: none;
        stroke: #000;
        stroke-miterlimit: 10;
        stroke-width: .21px;
      }
    </style>
  </defs>
  <g id="iconos">
    <g>
      <path class="cls-1" d="m25,30.74c-.87,0-1.57-.7-1.57-1.57v-10.46c0-.87.7-1.57,1.57-1.57s1.57.7,1.57,1.57v10.46c0,.87-.7,1.57-1.57,1.57Z"/>
      <path class="cls-1" d="m37.68,46.27h-12.68c-.09,0-.17,0-.25-.02h-12.43c-4.08,0-7.2-1.48-8.78-4.15-1.58-2.68-1.36-6.13.63-9.71l12.68-22.81c2.09-3.77,4.98-5.84,8.15-5.84s6.06,2.08,8.15,5.85l12.68,22.83c1.98,3.57,2.2,7.02.63,9.7-1.58,2.68-4.7,4.16-8.77,4.16Zm-12.43-3.14h12.43c2.92,0,5.08-.93,6.07-2.61.99-1.69.76-4.03-.66-6.59l-12.68-22.83c-1.51-2.73-3.44-4.23-5.41-4.23s-3.89,1.5-5.41,4.23l-12.68,22.81c-1.42,2.56-1.66,4.91-.67,6.59.99,1.68,3.15,2.61,6.08,2.61h12.68c.09,0,.17,0,.25.02Z"/>
      <path class="cls-1" d="m25.01,37.54c-1.16,0-2.1-.94-2.1-2.09s.93-2.09,2.08-2.09h.02c1.16,0,2.09.94,2.09,2.09s-.94,2.09-2.09,2.09Z"/>
    </g>
  </g>
  <g id="guias">
    <rect class="cls-2" x="47.5" y="47.5" width="2.5" height="2.5"/>
    <rect class="cls-2" x="47.5" width="2.5" height="2.5"/>
    <rect class="cls-2" y="47.5" width="2.5" height="2.5"/>
    <rect class="cls-2" width="2.5" height="2.5"/>
  </g>
</svg>