<?xml version="1.0" encoding="UTF-8"?>
<svg xmlns="http://www.w3.org/2000/svg" viewBox="0 0 50 50">
  <defs>
    <style>
      .cls-1 {
        fill: none;
        stroke: #000;
        stroke-miterlimit: 10;
        stroke-width: .21px;
      }

      .cls-2 {
        fill: #1e1f22;
        stroke-width: 0px;
      }
    </style>
  </defs>
  <g id="iconos">
    <g>
      <path class="cls-2" d="m25,47.42c-12.36,0-22.42-10.06-22.42-22.42S12.64,2.58,25,2.58s22.42,10.06,22.42,22.42-10.06,22.42-22.42,22.42Zm0-43.78C13.22,3.63,3.63,13.22,3.63,25s9.58,21.37,21.37,21.37,21.37-9.58,21.37-21.37S36.78,3.63,25,3.63Z"/>
      <path class="cls-2" d="m25,5.36v39.27c10.84,0,19.64-8.79,19.64-19.64S35.84,5.36,25,5.36Z"/>
    </g>
  </g>
  <g id="guias">
    <rect class="cls-1" x="47.5" y="47.5" width="2.5" height="2.5"/>
    <rect class="cls-1" x="47.5" width="2.5" height="2.5"/>
    <rect class="cls-1" y="47.5" width="2.5" height="2.5"/>
    <rect class="cls-1" width="2.5" height="2.5"/>
  </g>
</svg>