<?xml version="1.0" encoding="UTF-8"?>
<svg xmlns="http://www.w3.org/2000/svg" viewBox="0 0 50 50">
  <defs>
    <style>
      .cls-1 {
        fill: #2e3135;
        stroke-width: 0px;
      }

      .cls-2 {
        fill: none;
        stroke: #000;
        stroke-miterlimit: 10;
        stroke-width: .21px;
      }
    </style>
  </defs>
  <g id="iconos">
    <g>
      <path class="cls-1" d="m41.74,30.76c-3.17,0-5.76-2.58-5.76-5.76s2.58-5.76,5.76-5.76,5.76,2.58,5.76,5.76-2.58,5.76-5.76,5.76Zm0-8.37c-1.44,0-2.62,1.17-2.62,2.62s1.17,2.62,2.62,2.62,2.62-1.17,2.62-2.62-1.17-2.62-2.62-2.62Z"/>
      <path class="cls-1" d="m41.74,14.01c-3.17,0-5.76-2.58-5.76-5.76s2.58-5.76,5.76-5.76,5.76,2.58,5.76,5.76-2.58,5.76-5.76,5.76Zm0-8.37c-1.44,0-2.62,1.17-2.62,2.62s1.17,2.62,2.62,2.62,2.62-1.17,2.62-2.62-1.17-2.62-2.62-2.62Z"/>
      <path class="cls-1" d="m41.74,47.5c-3.17,0-5.76-2.58-5.76-5.76s2.58-5.76,5.76-5.76,5.76,2.58,5.76,5.76-2.58,5.76-5.76,5.76Zm0-8.37c-1.44,0-2.62,1.17-2.62,2.62s1.17,2.62,2.62,2.62,2.62-1.17,2.62-2.62-1.17-2.62-2.62-2.62Z"/>
      <path class="cls-1" d="m8.26,30.76c-3.17,0-5.76-2.58-5.76-5.76s2.58-5.76,5.76-5.76,5.76,2.58,5.76,5.76-2.58,5.76-5.76,5.76Zm0-8.37c-1.44,0-2.62,1.17-2.62,2.62s1.17,2.62,2.62,2.62,2.62-1.17,2.62-2.62-1.17-2.62-2.62-2.62Z"/>
      <path class="cls-1" d="m37.56,26.57H12.44c-.87,0-1.57-.7-1.57-1.57s.7-1.57,1.57-1.57h25.12c.87,0,1.57.7,1.57,1.57s-.7,1.57-1.57,1.57Z"/>
      <path class="cls-1" d="m37.56,43.31h-8.37c-5.06,0-7.85-2.79-7.85-7.85V14.53c0-5.06,2.79-7.85,7.85-7.85h8.37c.87,0,1.57.7,1.57,1.57s-.7,1.57-1.57,1.57h-8.37c-3.3,0-4.71,1.41-4.71,4.71v20.93c0,3.3,1.41,4.71,4.71,4.71h8.37c.87,0,1.57.7,1.57,1.57s-.7,1.57-1.57,1.57Z"/>
    </g>
  </g>
  <g id="guias">
    <rect class="cls-2" x="47.5" y="47.5" width="2.5" height="2.5"/>
    <rect class="cls-2" x="47.5" width="2.5" height="2.5"/>
    <rect class="cls-2" y="47.5" width="2.5" height="2.5"/>
    <rect class="cls-2" width="2.5" height="2.5"/>
  </g>
</svg>