<?xml version="1.0" encoding="UTF-8"?>
<svg xmlns="http://www.w3.org/2000/svg" viewBox="0 0 50 50">
  <defs>
    <style>
      .cls-1 {
        fill: #2e3135;
      }

      .cls-1, .cls-2 {
        stroke-width: 0px;
      }

      .cls-3 {
        fill: none;
        stroke: #000;
        stroke-miterlimit: 10;
        stroke-width: .21px;
      }

      .cls-2 {
        fill: #fff;
      }
    </style>
  </defs>
  <g id="iconos">
    <g>
      <path class="cls-1" d="m14.53,18.2h-6.28c-3.17,0-5.76-2.58-5.76-5.76v-4.19c0-3.17,2.58-5.76,5.76-5.76h6.28c3.17,0,5.76,2.58,5.76,5.76v4.19c0,3.17-2.58,5.76-5.76,5.76Zm-6.28-12.56c-1.44,0-2.62,1.17-2.62,2.62v4.19c0,1.44,1.17,2.62,2.62,2.62h6.28c1.44,0,2.62-1.17,2.62-2.62v-4.19c0-1.44-1.17-2.62-2.62-2.62h-6.28Z"/>
      <path class="cls-1" d="m43.42,16.1h-7.53c-2.25,0-4.08-1.83-4.08-4.08v-3.35c0-2.25,1.83-4.08,4.08-4.08h7.53c2.25,0,4.08,1.83,4.08,4.08v3.35c0,2.25-1.83,4.08-4.08,4.08Zm-7.53-8.37c-.51,0-.94.43-.94.94v3.35c0,.51.43.94.94.94h7.53c.51,0,.94-.43.94-.94v-3.35c0-.51-.43-.94-.94-.94h-7.53Z"/>
      <path class="cls-1" d="m43.42,31.8h-7.53c-2.25,0-4.08-1.83-4.08-4.08v-3.35c0-2.25,1.83-4.08,4.08-4.08h7.53c2.25,0,4.08,1.83,4.08,4.08v3.35c0,2.25-1.83,4.08-4.08,4.08Zm-7.53-8.37c-.51,0-.94.43-.94.94v3.35c0,.51.43.94.94.94h7.53c.51,0,.94-.43.94-.94v-3.35c0-.51-.43-.94-.94-.94h-7.53Z"/>
      <path class="cls-1" d="m33.37,11.92h-14.65c-.87,0-1.57-.7-1.57-1.57s.7-1.57,1.57-1.57h14.65c.87,0,1.57.7,1.57,1.57s-.7,1.57-1.57,1.57Z"/>
      <path class="cls-2" d="m26.05,10.35v27.21c0,2.3,1.88,4.19,4.19,4.19h3.14"/>
      <path class="cls-1" d="m33.37,43.31h-3.14c-3.17,0-5.76-2.58-5.76-5.76V10.35c0-.87.7-1.57,1.57-1.57s1.57.7,1.57,1.57v27.21c0,1.44,1.17,2.62,2.62,2.62h3.14c.87,0,1.57.7,1.57,1.57s-.7,1.57-1.57,1.57Z"/>
      <path class="cls-1" d="m33.37,27.62h-7.33c-.87,0-1.57-.7-1.57-1.57s.7-1.57,1.57-1.57h7.33c.87,0,1.57.7,1.57,1.57s-.7,1.57-1.57,1.57Z"/>
      <path class="cls-1" d="m43.42,47.5h-7.53c-2.25,0-4.08-1.83-4.08-4.08v-3.35c0-2.25,1.83-4.08,4.08-4.08h7.53c2.25,0,4.08,1.83,4.08,4.08v3.35c0,2.25-1.83,4.08-4.08,4.08Zm-7.53-8.37c-.51,0-.94.43-.94.94v3.35c0,.51.43.94.94.94h7.53c.51,0,.94-.43.94-.94v-3.35c0-.51-.43-.94-.94-.94h-7.53Z"/>
    </g>
  </g>
  <g id="guias">
    <rect class="cls-3" x="47.5" y="47.5" width="2.5" height="2.5"/>
    <rect class="cls-3" x="47.5" width="2.5" height="2.5"/>
    <rect class="cls-3" y="47.5" width="2.5" height="2.5"/>
    <rect class="cls-3" width="2.5" height="2.5"/>
  </g>
</svg>