<?xml version="1.0" encoding="UTF-8"?>
<svg xmlns="http://www.w3.org/2000/svg" viewBox="0 0 50 50">
  <defs>
    <style>
      .cls-1 {
        fill: none;
        stroke: #000;
        stroke-miterlimit: 10;
        stroke-width: .21px;
      }

      .cls-2 {
        fill: #1e1f22;
        stroke-width: 0px;
      }
    </style>
  </defs>
  <g id="iconos">
    <g>
      <path class="cls-2" d="m16.6,47.5h-.01c-.17,0-.33-.09-.42-.23l-7.09-10.49c-.13-.19-.12-.43.02-.61l15.52-20.22,3-6.02-.82-.18c-1.16-.25-2.33-.25-3.49,0l-.91.2,1.01,2.49c.11.27-.02.57-.29.68-.26.11-.57-.02-.68-.29l-1.25-3.06c-.06-.14-.05-.3.02-.44.07-.14.2-.23.35-.27l1.52-.33c1.31-.28,2.63-.28,3.93,0l1.47.32c.16.03.29.14.36.28.07.15.07.32,0,.46l-3.35,6.71-15.35,20.01,6.47,9.57,15.87-21.11,2.7-5.62c.79-1.65.9-3.59.29-5.31l-2.37-6.65c-.82-2.3-3-3.84-5.44-3.84h-5.11c-2.44,0-4.62,1.54-5.44,3.83l-2.48,6.93c-.54,1.51-.54,3.18.01,4.69l1.77,4.85c.1.27-.04.57-.31.67-.27.09-.57-.04-.67-.31l-1.77-4.85c-.63-1.74-.64-3.66-.01-5.4l2.48-6.93c.97-2.71,3.55-4.52,6.42-4.52h5.11c2.88,0,5.46,1.82,6.43,4.53l2.37,6.65c.71,1.99.59,4.22-.33,6.12l-2.75,5.71-16.37,21.78c-.1.13-.26.21-.42.21Z"/>
      <path class="cls-2" d="m33.51,46.56c-.59,0-1.13-.27-1.47-.75l-5.43-7.4c-.17-.23-.12-.56.11-.73.23-.17.56-.12.73.11l5.43,7.4c.15.2.38.32.63.32h0c.25,0,.48-.12.63-.32l5.46-7.61c.47-.66.48-1.54.01-2.2l-5.12-7.31c-.17-.24-.11-.56.13-.73.24-.16.56-.11.73.13l5.12,7.31c.72,1.02.71,2.39-.02,3.41l-5.46,7.61c-.35.48-.88.76-1.47.76h-.01Z"/>
    </g>
  </g>
  <g id="guias">
    <rect class="cls-1" x="47.5" y="47.5" width="2.5" height="2.5"/>
    <rect class="cls-1" x="47.5" width="2.5" height="2.5"/>
    <rect class="cls-1" y="47.5" width="2.5" height="2.5"/>
    <rect class="cls-1" width="2.5" height="2.5"/>
  </g>
</svg>