<?xml version="1.0" encoding="UTF-8"?>
<svg xmlns="http://www.w3.org/2000/svg" viewBox="0 0 50 50">
  <defs>
    <style>
      .cls-1 {
        fill: none;
        stroke: #000;
        stroke-miterlimit: 10;
        stroke-width: .21px;
      }

      .cls-2 {
        fill: #1e1f22;
        stroke-width: 0px;
      }
    </style>
  </defs>
  <g id="iconos">
    <g>
      <path class="cls-2" d="m27.09,43.31h-9.42c-8.37,0-15.17-6.81-15.17-15.17,0-5.1,2.5-9.78,6.63-12.61l-6.17-6.17c-.45-.45-.58-1.12-.34-1.71s.82-.97,1.45-.97h10.47c.42,0,.82.17,1.11.46l12.56,12.56c.45.45.58,1.12.34,1.71-.24.59-.82.97-1.45.97h-9.42c-3.12,0-5.76,2.64-5.76,5.76s2.64,5.76,5.76,5.76h3.14c.42,0,.82.17,1.11.46l6.28,6.28c.45.45.58,1.12.34,1.71-.24.59-.82.97-1.45.97Zm-15.3-25.74c-3.81,2.14-6.15,6.16-6.15,10.57,0,6.64,5.4,12.03,12.03,12.03h5.63l-3.14-3.14h-2.49c-4.82,0-8.9-4.07-8.9-8.9s4.07-8.9,8.9-8.9h5.63l-9.42-9.42h-6.03l5.06,5.06c.45.45.58,1.12.34,1.71s-.82.97-1.45.97h-.02Z"/>
      <path class="cls-2" d="m45.93,43.31h-10.47c-.42,0-.82-.17-1.11-.46l-12.56-12.56c-.45-.45-.58-1.12-.34-1.71.24-.59.82-.97,1.45-.97h9.42c3.12,0,5.76-2.64,5.76-5.76s-2.64-5.76-5.76-5.76h-3.14c-.42,0-.82-.17-1.11-.46l-6.28-6.28c-.45-.45-.58-1.12-.34-1.71.24-.59.82-.97,1.45-.97h9.42c8.37,0,15.17,6.81,15.17,15.17,0,5.1-2.5,9.78-6.63,12.61l6.17,6.17c.45.45.58,1.12.34,1.71-.24.59-.82.97-1.45.97Zm-9.82-3.14h6.03l-5.06-5.06c-.45-.45-.58-1.12-.34-1.71.24-.59.82-.97,1.45-.97h.02c3.81-2.14,6.15-6.16,6.15-10.57,0-6.64-5.4-12.03-12.03-12.03h-5.63l3.14,3.14h2.49c4.82,0,8.9,4.07,8.9,8.9s-4.07,8.9-8.9,8.9h-5.63l9.42,9.42Z"/>
    </g>
  </g>
  <g id="guias">
    <rect class="cls-1" x="47.5" y="47.5" width="2.5" height="2.5"/>
    <rect class="cls-1" x="47.5" width="2.5" height="2.5"/>
    <rect class="cls-1" y="47.5" width="2.5" height="2.5"/>
    <rect class="cls-1" width="2.5" height="2.5"/>
  </g>
</svg>