<?xml version="1.0" encoding="UTF-8"?>
<svg xmlns="http://www.w3.org/2000/svg" viewBox="0 0 50 50">
  <defs>
    <style>
      .cls-1 {
        fill: none;
        stroke: #000;
        stroke-miterlimit: 10;
        stroke-width: .21px;
      }

      .cls-2 {
        fill: #1e1f22;
        stroke-width: 0px;
      }
    </style>
  </defs>
  <g id="iconos">
    <g>
      <path class="cls-2" d="m25,39.34c-2.33,0-4.29-1.96-4.29-4.29V14.95c0-2.33,1.96-4.29,4.29-4.29s4.29,1.96,4.29,4.29v20.3c0,2.29-1.88,4.08-4.29,4.08Zm0-25.53c-.6,0-1.15.55-1.15,1.15v20.09c0,.6.55,1.15,1.15,1.15.56,0,1.15-.33,1.15-.94V14.95c0-.6-.55-1.15-1.15-1.15Z"/>
      <path class="cls-2" d="m33.74,34.18c-.66,0-1.31-.15-1.91-.45l-17.66-10.09c-.91-.38-1.69-1.22-2.05-2.29-.38-1.14-.24-2.44.4-3.58,1-1.94,3.52-2.71,5.77-1.75l17.74,10.13c1.97,1.31,2.66,3.85,1.67,5.83-.94,1.43-2.46,2.2-3.96,2.2Zm-17.41-15.45c-.43,0-.86.17-1.02.49l-.04.08c-.21.37-.27.76-.17,1.06.07.22.23.38.47.48l17.74,10.13c.44.22,1.27.07,1.68-.55.16-.34.01-1.17-.61-1.59l-17.49-9.99c-.17-.07-.37-.1-.56-.1Z"/>
      <path class="cls-2" d="m16.27,34.37c-1.6,0-3.02-.76-3.73-2.09-1.19-1.89-.51-4.5,1.53-5.86l17.67-10.1c1.8-1.2,4.47-.54,5.85,1.54,1.26,1.89.59,4.56-1.48,5.94l-17.67,10.11c-.73.32-1.47.47-2.18.47Zm17.54-15.5c-.15,0-.28.04-.41.12l-17.67,10.1c-.45.31-.84,1.05-.52,1.54l.1.17c.24.47,1.04.61,1.75.31l17.42-9.97c.46-.31.84-1.05.52-1.54-.27-.41-.76-.73-1.19-.73Z"/>
      <path class="cls-2" d="m25,47.5c-12.41,0-22.5-10.09-22.5-22.5S12.59,2.5,25,2.5s22.5,10.09,22.5,22.5-10.09,22.5-22.5,22.5Zm0-41.86C14.32,5.64,5.64,14.32,5.64,25s8.68,19.36,19.36,19.36,19.36-8.68,19.36-19.36S35.68,5.64,25,5.64Z"/>
    </g>
  </g>
  <g id="guias">
    <rect class="cls-1" x="47.5" y="47.5" width="2.5" height="2.5"/>
    <rect class="cls-1" x="47.5" width="2.5" height="2.5"/>
    <rect class="cls-1" y="47.5" width="2.5" height="2.5"/>
    <rect class="cls-1" width="2.5" height="2.5"/>
  </g>
</svg>