<?xml version="1.0" encoding="UTF-8"?>
<svg xmlns="http://www.w3.org/2000/svg" xmlns:xlink="http://www.w3.org/1999/xlink" viewBox="0 0 50 50">
  <defs>
    <style>
      .cls-1 {
        fill: #2e3135;
      }

      .cls-1, .cls-2 {
        stroke-width: 0px;
      }

      .cls-3 {
        stroke: #000;
        stroke-miterlimit: 10;
        stroke-width: .21px;
      }

      .cls-3, .cls-2 {
        fill: none;
      }

      .cls-4 {
        clip-path: url(#clippath);
      }
    </style>
    <clipPath id="clippath">
      <rect class="cls-2" x="2.5" y="2.5" width="45" height="45"/>
    </clipPath>
  </defs>
  <g id="iconos">
    <g class="cls-4">
      <g>
        <path class="cls-1" d="m22.06,36.94c-.28,0-.55-.08-.79-.24-.38-.26-.62-.7-.62-1.16,0-.27-.01-.57-.06-.85-.18-1.34-.77-2.51-1.78-3.52-1.03-1.02-2.27-1.66-3.61-1.83h-.14c-.22-.02-.44-.04-.66-.01-.49.05-.95-.15-1.25-.53-.3-.38-.38-.88-.22-1.34.26-.75.67-1.45,1.18-2.03l2.88-3.64c4.97-6.22,15.02-13.68,22.42-16.63,1.59-.6,3.26-.24,4.38.9,1.18,1.14,1.53,2.82.9,4.36-2.97,7.4-10.41,17.45-16.61,22.41l-3.69,2.96c-.5.37-1.11.77-1.83,1.06-.17.06-.34.1-.51.1Zm1.41-1.41h.02-.02Zm-6.83-8.77c1.58.41,2.98,1.23,4.17,2.41,1.17,1.17,1.96,2.52,2.36,4l3.17-2.55c5.88-4.71,12.94-14.25,15.76-21.27,0,0,0,0,0-.01.28-.66-.1-1.13-.28-1.31-.36-.37-.87-.46-1.38-.27-6.99,2.79-16.53,9.87-21.23,15.76l-2.56,3.24Z"/>
        <path class="cls-1" d="m10.17,45.18c-1.42,0-2.77-.56-3.79-1.59-1.16-1.17-1.72-2.78-1.53-4.42l.51-4.6c.5-4.57,4.24-7.96,8.89-8.06.38-.02.82,0,1.23.02,2.09.26,3.9,1.18,5.35,2.65,1.45,1.45,2.31,3.17,2.57,5.1l.03.44c.02.27.04.54.04.81,0,2.46-.95,4.77-2.68,6.52-1.41,1.42-3.27,2.31-5.37,2.58l-4.64.51c-.2.02-.4.03-.6.03Zm4.47-15.86c-.1,0-.19,0-.29,0-2.81.06-5.81,1.98-6.2,5.55l-.51,4.61c-.09.79.17,1.56.73,2.11.55.56,1.32.83,2.09.74l4.62-.51c1.45-.19,2.75-.81,3.72-1.77,1.2-1.21,1.86-2.82,1.86-4.54,0-.21-.01-.41-.03-.62l-.02-.38c-.16-1.19-.76-2.36-1.77-3.37-1.01-1.03-2.26-1.66-3.61-1.83-.14,0-.36-.02-.58-.02Z"/>
        <path class="cls-1" d="m29.2,31.04c-.78,0-1.41-.63-1.41-1.41,0-4.11-3.35-7.46-7.46-7.46-.78,0-1.41-.63-1.41-1.41s.63-1.41,1.41-1.41c5.67,0,10.28,4.61,10.28,10.27,0,.78-.63,1.41-1.41,1.41Z"/>
        <path class="cls-1" d="m31.91,45.11c-1.74,0-3.49-.83-5.15-2.49-.55-.55-.55-1.44,0-1.99s1.44-.55,1.99,0c2.21,2.21,4.1,2.21,6.32,0l5.55-5.55c2.26-2.26,2.26-4.1,0-6.36l-1.38-1.36c-.55-.55-.56-1.44-.01-1.99.55-.56,1.44-.56,1.99-.01l1.39,1.37c3.34,3.34,3.34,7.01,0,10.34l-5.55,5.55c-1.66,1.66-3.4,2.49-5.15,2.49Z"/>
        <path class="cls-1" d="m8.33,23.61c-.36,0-.73-.14-1-.42-3.29-3.33-3.29-6.99,0-10.32l5.56-5.56c3.29-3.29,7.01-3.29,10.29,0l1.39,1.39c.55.55.55,1.44,0,1.99s-1.44.55-1.99,0l-1.39-1.39c-2.2-2.2-4.12-2.2-6.32,0l-5.55,5.55c-2.2,2.22-2.2,4.13,0,6.36.55.55.54,1.44-.01,1.99-.27.27-.63.41-.99.41Z"/>
        <path class="cls-1" d="m16.66,18.06c-.36,0-.72-.14-.99-.41-.55-.55-.55-1.44,0-1.99l6.94-6.94c.55-.55,1.44-.55,1.99,0s.55,1.44,0,1.99l-6.94,6.94c-.27.27-.63.41-.99.41Z"/>
        <path class="cls-1" d="m34.68,33.31c-.36,0-.72-.14-1-.41-.55-.55-.55-1.44,0-1.99l5.55-5.53c.55-.55,1.44-.55,1.99,0,.55.55.55,1.44,0,1.99l-5.55,5.53c-.27.27-.63.41-.99.41Z"/>
      </g>
    </g>
  </g>
  <g id="guias">
    <rect class="cls-3" x="47.5" y="47.5" width="2.5" height="2.5"/>
    <rect class="cls-3" x="47.5" width="2.5" height="2.5"/>
    <rect class="cls-3" y="47.5" width="2.5" height="2.5"/>
    <rect class="cls-3" width="2.5" height="2.5"/>
  </g>
</svg>