<?xml version="1.0" encoding="UTF-8"?>
<svg xmlns="http://www.w3.org/2000/svg" viewBox="0 0 50 50">
  <defs>
    <style>
      .cls-1 {
        fill: none;
        stroke: #000;
        stroke-miterlimit: 10;
        stroke-width: .21px;
      }

      .cls-2 {
        fill: #1e1f22;
        stroke-width: 0px;
      }
    </style>
  </defs>
  <g id="iconos">
    <g>
      <g>
        <path class="cls-2" d="m43.94,36.44H6.06c-1.96,0-3.56-1.6-3.56-3.56v-2.27c0-.31.25-.57.57-.57s.57.25.57.57v2.27c0,1.34,1.09,2.42,2.42,2.42h37.87c1.33,0,2.42-1.09,2.42-2.42v-2.27c0-.31.25-.57.57-.57s.57.25.57.57v2.27c0,1.96-1.59,3.56-3.56,3.56Z"/>
        <path class="cls-2" d="m46.93,31.17H3.07c-.31,0-.57-.25-.57-.57V8.28c0-1.6,1.31-2.91,2.91-2.91h39.16c1.6,0,2.91,1.31,2.91,2.91v22.32c0,.31-.25.57-.57.57Zm-43.29-1.13h42.72V8.28c0-.98-.8-1.78-1.78-1.78H5.42c-.98,0-1.78.8-1.78,1.78v21.76Z"/>
      </g>
      <path class="cls-2" d="m26.22,33.24c0,.67-.55,1.22-1.22,1.22s-1.22-.55-1.22-1.22.55-1.22,1.22-1.22,1.22.55,1.22,1.22Z"/>
      <g>
        <path class="cls-2" d="m25,26.08c-4.31,0-7.81-3.5-7.81-7.81s3.5-7.81,7.81-7.81,7.81,3.5,7.81,7.81-3.5,7.81-7.81,7.81Zm0-14.48c-3.68,0-6.68,3-6.68,6.67s3,6.68,6.68,6.68,6.67-3,6.67-6.68-3-6.67-6.67-6.67Z"/>
        <path class="cls-2" d="m24.13,22.34c-.15,0-.29-.06-.4-.17l-2.15-2.15c-.22-.22-.22-.58,0-.8s.58-.22.8,0l1.62,1.62,3.53-6.34c.15-.28.5-.38.77-.22.27.15.37.5.22.77l-3.89,7c-.09.16-.24.26-.42.29-.02,0-.05,0-.08,0Z"/>
      </g>
      <path class="cls-2" d="m30.6,44.63h-11.2c-.31,0-.57-.25-.57-.57s.25-.57.57-.57h11.2c.31,0,.57.25.57.57s-.25.57-.57.57Z"/>
      <g>
        <path class="cls-2" d="m21.26,44.63s-.06,0-.1,0c-.31-.05-.52-.34-.46-.65l1.38-8.2c.05-.31.32-.52.65-.46.31.05.52.34.46.65l-1.38,8.2c-.05.28-.29.47-.56.47Z"/>
        <path class="cls-2" d="m28.74,44.63c-.27,0-.51-.19-.56-.47l-1.38-8.2c-.05-.31.15-.6.46-.65.32-.06.6.15.65.46l1.38,8.2c.05.31-.15.6-.46.65-.03,0-.06,0-.1,0Z"/>
      </g>
    </g>
  </g>
  <g id="guias">
    <rect class="cls-1" x="47.5" y="47.5" width="2.5" height="2.5"/>
    <rect class="cls-1" x="47.5" width="2.5" height="2.5"/>
    <rect class="cls-1" y="47.5" width="2.5" height="2.5"/>
    <rect class="cls-1" width="2.5" height="2.5"/>
  </g>
</svg>