<?xml version="1.0" encoding="UTF-8"?>
<svg id="iconos" xmlns="http://www.w3.org/2000/svg" viewBox="0 0 50 50">
  <defs>
    <style>
      .cls-1 {
        fill: #1e1f22;
        stroke-width: 0px;
      }
    </style>
  </defs>
  <g id="bien-futuro-icono">
    <path class="cls-1" d="m36.25,25.02c-.28,0-.52-.23-.52-.52v-8.27c0-.28.23-.52.52-.52s.52.23.52.52v8.27c0,.28-.23.52-.52.52Z"/>
    <path class="cls-1" d="m46.71,47.5H3.29c-.28,0-.52-.23-.52-.52v-3.39c0-.28.23-.52.52-.52h43.41c.28,0,.52.23.52.52v3.39c0,.28-.23.52-.52.52Zm-42.89-1.03h42.38v-2.35H3.81v2.35Z"/>
    <path class="cls-1" d="m11.95,41.97h-6.36c-.28,0-.52-.23-.52-.52v-3.44c0-.28.23-.52.52-.52h6.36c.28,0,.52.23.52.52v3.44c0,.28-.23.52-.52.52Zm-5.85-1.03h5.33v-2.41h-5.33v2.41Z"/>
    <path class="cls-1" d="m11.95,38.53h-6.36c-.28,0-.52-.23-.52-.52v-3.44c0-.28.23-.52.52-.52h6.36c.28,0,.52.23.52.52v3.44c0,.28-.23.52-.52.52Zm-5.85-1.03h5.33v-2.41h-5.33v2.41Z"/>
    <path class="cls-1" d="m39.43,32.81h-6.36c-.28,0-.52-.23-.52-.52v-6.88c0-.28.23-.52.52-.52h6.36c.28,0,.52.23.52.52v6.88c0,.28-.23.52-.52.52Zm-5.85-1.03h5.33v-5.85h-5.33v5.85Z"/>
    <path class="cls-1" d="m41.12,16.76h-12.17c-.21,0-.4-.13-.48-.32-.08-.19-.03-.42.11-.56l6.09-6.09c.1-.1.23-.15.37-.15h0c.14,0,.27.05.37.15l6.08,6.09c.15.15.19.37.11.56-.08.19-.27.32-.48.32Zm-10.92-1.03h9.67l-4.84-4.84-4.84,4.84Z"/>
    <path class="cls-1" d="m20.48,8.98h-5.46c-.28,0-.52-.23-.52-.52V3.02c0-.21.13-.4.32-.48.2-.09.41-.04.56.11l5.46,5.45c.15.15.19.37.11.56-.08.19-.27.32-.48.32Zm-4.94-1.03h3.69l-3.69-3.68v3.68Z"/>
    <path class="cls-1" d="m21.38,36.19c-.14,0-.27-.05-.37-.15l-5.94-5.94c-.2-.2-.2-.53,0-.73l5.94-5.94c.15-.15.37-.19.56-.11.19.08.32.27.32.48v11.88c0,.21-.13.4-.32.48-.06.03-.13.04-.2.04Zm-5.2-6.46l4.69,4.69v-9.39l-4.69,4.69Z"/>
    <path class="cls-1" d="m15.24,41.85c-.07,0-.13-.01-.2-.04-.19-.08-.32-.27-.32-.48v-11.89c0-.21.13-.4.32-.48.2-.08.41-.04.56.11l5.94,5.94c.2.2.2.53,0,.73l-5.94,5.94c-.1.1-.23.15-.37.15Zm.52-11.15v9.39l4.69-4.7-4.69-4.69Z"/>
    <path class="cls-1" d="m21.38,41.97h-6.15c-.21,0-.4-.13-.48-.32-.08-.19-.04-.42.11-.56l6.15-6.16c.15-.15.37-.19.56-.11.19.08.32.27.32.48v6.16c0,.28-.23.52-.52.52Zm-4.9-1.03h4.39v-4.39l-4.39,4.39Z"/>
    <path class="cls-1" d="m15.24,30.48c-.07,0-.13-.01-.2-.04-.19-.08-.32-.27-.32-.48v-11.88c0-.21.13-.4.32-.48.2-.08.41-.04.56.11l5.94,5.94c.2.2.2.53,0,.73l-5.94,5.94c-.1.1-.23.15-.37.15Zm.52-11.15v9.39l4.69-4.69-4.69-4.69Z"/>
    <path class="cls-1" d="m21.38,24.53c-.14,0-.27-.05-.37-.15l-5.94-5.94c-.15-.15-.19-.37-.11-.56.08-.19.27-.32.48-.32h5.94c.28,0,.52.23.52.52v5.94c0,.21-.13.4-.32.48-.06.03-.13.04-.2.04Zm-4.69-5.94l4.18,4.18v-4.18h-4.18Z"/>
    <path class="cls-1" d="m22.27,18.59h-8.13c-.33,0-.66-.14-.89-.37-.03-.03-.07-.08-.09-.12-.15-.13-.27-.44-.27-.77v-8.13c0-.33.13-.65.37-.89s.55-.37.89-.37h3.57c.28,0,.52.23.52.52s-.23.52-.52.52h-3.57c-.06,0-.12.02-.16.06s-.06.1-.06.16v8.13c0,.05.02.1.05.14.03.03.07.08.09.12-.03-.06.03-.03.08-.03h8.13c.08,0,.14-.04.16-.07.04-.04.06-.1.06-.16v-2.64c0-.28.23-.52.52-.52s.52.23.52.52v2.64c0,.33-.13.65-.37.89s-.56.37-.89.37Z"/>
    <path class="cls-1" d="m23.01,14.98h-3.98c-.33,0-.65-.14-.91-.38-.28-.28-.43-.65-.43-1.04v-5.09c0-.28.23-.52.52-.52h3.98c.37,0,.7.14.95.39.24.25.38.57.39.89v5.22c0,.28-.23.52-.52.52Zm-4.28-5.99v4.57c0,.11.04.22.12.3.05.05.13.09.19.09h3.46v-4.66c0-.09-.04-.16-.09-.22-.05-.05-.13-.08-.21-.08h-3.46Z"/>
    <path class="cls-1" d="m13.4,16.74c-.14,0-.27-.05-.37-.15l-6.12-6.13c-.15-.15-.19-.37-.11-.56.08-.19.27-.32.48-.32h6.12c.28,0,.52.23.52.52v6.13c0,.21-.13.4-.32.48-.06.03-.13.04-.2.04Zm-4.88-6.13l4.36,4.36v-4.36h-4.36Z"/>
    <path class="cls-1" d="m13.4,16.85h-6.12c-.28,0-.52-.23-.52-.52v-6.13c0-.21.13-.4.32-.48s.41-.03.56.11l6.12,6.13c.15.15.19.37.11.56-.08.19-.27.32-.48.32Zm-5.6-1.03h4.36l-4.36-4.36v4.36Z"/>
    <path class="cls-1" d="m28.95,16.55c-.13,0-.26-.05-.37-.15l-5.94-5.94c-.15-.15-.19-.37-.11-.56.08-.19.27-.32.48-.32h11.89c.21,0,.4.13.48.32.08.19.03.42-.11.56l-5.94,5.94c-.1.1-.23.15-.37.15Zm-4.7-5.94l4.7,4.69,4.69-4.69h-9.39Z"/>
    <path class="cls-1" d="m28.95,16.76h-5.45c-.28,0-.52-.23-.52-.52v-5.45c0-.21.13-.4.32-.48.2-.08.41-.04.56.11l5.45,5.45c.15.15.19.37.11.56-.08.19-.27.32-.48.32Zm-4.93-1.03h3.68l-3.68-3.68v3.68Z"/>
  </g>
</svg>