<?xml version="1.0" encoding="UTF-8"?>
<svg xmlns="http://www.w3.org/2000/svg" viewBox="0 0 50 50">
  <defs>
    <style>
      .cls-1 {
        fill: #2e3135;
        stroke-width: 0px;
      }

      .cls-2 {
        fill: none;
        stroke: #000;
        stroke-miterlimit: 10;
        stroke-width: .21px;
      }
    </style>
  </defs>
  <g id="iconos">
    <g>
      <path class="cls-1" d="m35.49,28.1c-2.1,0-3.81-1.71-3.81-3.81s1.71-3.81,3.81-3.81,3.81,1.71,3.81,3.81-1.71,3.81-3.81,3.81Zm0-4.48c-.37,0-.67.3-.67.67s.3.67.67.67.67-.3.67-.67-.3-.67-.67-.67Z"/>
      <path class="cls-1" d="m25.04,34.31h-12.6c-7.53,0-9.94-2.42-9.94-9.94v-11.93C2.5,4.92,4.92,2.5,12.44,2.5h20.93c7.53,0,9.94,2.42,9.94,9.94v3.75c0,.45-.19.87-.53,1.17-.33.3-.79.43-1.22.39-.47-.06-1.02-.09-1.6-.09h-8.96c-3.61,0-4.39.78-4.39,4.4v10.69c0,.87-.7,1.57-1.57,1.57ZM12.44,5.64c-5.85,0-6.8.95-6.8,6.8v11.93c0,5.85.95,6.8,6.8,6.8h11.03v-9.12c0-5.35,2.18-7.54,7.53-7.54h8.96c.07,0,.14,0,.21,0v-2.07c0-5.85-.95-6.8-6.8-6.8H12.44Z"/>
      <path class="cls-1" d="m18.72,43.31c-.87,0-1.57-.7-1.57-1.57v-9c0-.87.7-1.57,1.57-1.57s1.57.7,1.57,1.57v9c0,.87-.7,1.57-1.57,1.57Z"/>
      <path class="cls-1" d="m25,26.36H4.07c-.87,0-1.57-.7-1.57-1.57s.7-1.57,1.57-1.57h20.93c.87,0,1.57.7,1.57,1.57s-.7,1.57-1.57,1.57Z"/>
      <path class="cls-1" d="m25,43.31h-12.66c-.87,0-1.57-.7-1.57-1.57s.7-1.57,1.57-1.57h12.66c.87,0,1.57.7,1.57,1.57s-.7,1.57-1.57,1.57Z"/>
      <path class="cls-1" d="m35.49,28.1c-2.1,0-3.81-1.71-3.81-3.81s1.71-3.81,3.81-3.81,3.81,1.71,3.81,3.81-1.71,3.81-3.81,3.81Zm0-4.48c-.37,0-.67.3-.67.67s.3.67.67.67.67-.3.67-.67-.3-.67-.67-.67Z"/>
      <path class="cls-1" d="m39.97,47.5h-8.96c-5.35,0-7.53-2.18-7.53-7.53v-17.92c0-5.35,2.18-7.54,7.53-7.54h8.96c.72,0,1.38.05,1.96.11,0,0,.01,0,.02,0,4.92.63,5.56,4.3,5.56,7.42v17.92c0,5.35-2.18,7.53-7.53,7.53Zm-8.96-29.85c-3.61,0-4.39.78-4.39,4.4v17.92c0,3.61.78,4.39,4.39,4.39h8.96c3.61,0,4.39-.78,4.39-4.39v-17.92c0-3.67-1.06-4.08-2.81-4.3-.47-.05-1.01-.09-1.59-.09h-8.96Zm4.48,23.88c-3.34,0-6.05-2.71-6.05-6.05,0-1.33.45-2.65,1.27-3.71,1.16-1.49,2.9-2.34,4.77-2.34,1.46,0,2.86.52,3.96,1.47,1.33,1.19,2.09,2.85,2.09,4.58,0,3.34-2.71,6.05-6.05,6.05Zm0-8.96c-.9,0-1.74.41-2.3,1.13-.39.51-.61,1.14-.61,1.78,0,1.6,1.3,2.91,2.91,2.91s2.91-1.3,2.91-2.91c0-.83-.37-1.64-1.02-2.22-.51-.44-1.19-.69-1.89-.69Zm0-4.48c-2.1,0-3.81-1.71-3.81-3.81s1.71-3.81,3.81-3.81,3.81,1.71,3.81,3.81-1.71,3.81-3.81,3.81Zm0-4.48c-.37,0-.67.3-.67.67s.3.67.67.67.67-.3.67-.67-.3-.67-.67-.67Z"/>
      <path class="cls-1" d="m35.49,41.54c-3.34,0-6.05-2.71-6.05-6.05,0-1.33.45-2.65,1.27-3.71,1.16-1.49,2.9-2.34,4.77-2.34,1.46,0,2.86.52,3.96,1.47,1.33,1.19,2.09,2.85,2.09,4.58,0,3.34-2.71,6.05-6.05,6.05Zm0-8.96c-.9,0-1.74.41-2.3,1.13-.39.51-.61,1.14-.61,1.78,0,1.6,1.3,2.91,2.91,2.91s2.91-1.3,2.91-2.91c0-.83-.37-1.64-1.02-2.22-.51-.44-1.19-.69-1.89-.69Z"/>
      <path class="cls-1" d="m35.49,28.1c-2.1,0-3.81-1.71-3.81-3.81s1.71-3.81,3.81-3.81,3.81,1.71,3.81,3.81-1.71,3.81-3.81,3.81Zm0-4.48c-.37,0-.67.3-.67.67s.3.67.67.67.67-.3.67-.67-.3-.67-.67-.67Z"/>
    </g>
  </g>
  <g id="guias">
    <rect class="cls-2" x="47.5" y="47.5" width="2.5" height="2.5"/>
    <rect class="cls-2" x="47.5" width="2.5" height="2.5"/>
    <rect class="cls-2" y="47.5" width="2.5" height="2.5"/>
    <rect class="cls-2" width="2.5" height="2.5"/>
  </g>
</svg>