<?xml version="1.0" encoding="UTF-8"?>
<svg xmlns="http://www.w3.org/2000/svg" viewBox="0 0 50 50">
  <defs>
    <style>
      .cls-1 {
        fill: #2e3135;
        stroke-width: 0px;
      }

      .cls-2 {
        fill: none;
        stroke: #000;
        stroke-miterlimit: 10;
        stroke-width: .21px;
      }
    </style>
  </defs>
  <g id="iconos">
    <g>
      <path class="cls-1" d="m25,40.55h-.02c-3.36,0-6.51-1.32-8.89-3.7-2.38-2.38-3.7-5.55-3.69-8.92,0-3.36,1.32-6.51,3.7-8.88,2.37-2.38,5.53-3.69,8.9-3.69s6.53,1.31,8.9,3.7h0c2.39,2.39,3.7,5.56,3.7,8.92,0,3.36-1.32,6.51-3.7,8.88-2.38,2.38-5.55,3.69-8.91,3.69Zm0-22.04c-2.52,0-4.89.98-6.67,2.77-1.79,1.78-2.77,4.14-2.77,6.65,0,2.52.98,4.9,2.77,6.69,1.78,1.78,4.14,2.77,6.65,2.77h.01c2.52,0,4.89-.99,6.68-2.77,1.79-1.78,2.77-4.14,2.77-6.65,0-2.52-.98-4.9-2.77-6.69,0,0,0,0,0,0-1.78-1.79-4.14-2.77-6.67-2.77Z"/>
      <path class="cls-1" d="m21.68,32.86c-.4,0-.81-.16-1.12-.46-.62-.62-.62-1.62,0-2.23l3.33-3.33c.62-.62,1.62-.62,2.23,0,.62.62.62,1.62,0,2.23l-3.33,3.33c-.31.31-.71.46-1.12.46Z"/>
      <path class="cls-1" d="m39.22,15.61c-.47,0-.93-.17-1.3-.52-.74-.7-.77-1.89-.05-2.65.69-.73,1.99-.74,2.69-.01.71.72.71,1.87.01,2.62-.38.38-.87.57-1.35.57Zm-.16-1.73s.11.07.17.07c.25-.15.22-.3.13-.38-.08-.07-.2-.06-.28.02-.09.1-.09.21-.01.3Z"/>
      <path class="cls-1" d="m39.22,16.13c-.59,0-1.18-.22-1.65-.66-.96-.9-.99-2.42-.07-3.4.88-.95,2.55-.96,3.45-.02.9.92.91,2.38.02,3.34-.49.49-1.12.73-1.74.73Zm-.54-1.89c.3.29.82.29,1.1-.02.26-.28.23-.76-.07-1.04-.28-.26-.73-.25-1.01.03-.3.31-.29.74-.02,1.03Zm.02.02s0,0,0,0c0,0,0,0,0,0Zm-.03-.03s0,0,0,0c0,0,0,0,0,0Z"/>
      <path class="cls-1" d="m10.81,44.04c-.48,0-.96-.19-1.32-.53-.73-.73-.74-1.91-.05-2.65.35-.37.84-.58,1.35-.58h0c.5,0,.99.21,1.34.57.7.71.7,1.88,0,2.62-.33.35-.78.56-1.27.57h-.06Zm-.18-1.73s.11.07.17.07c.25-.16.24-.28.15-.37l-.33.02c-.07.07-.07.19,0,.27Z"/>
      <path class="cls-1" d="m10.81,44.56c-.62,0-1.23-.24-1.68-.67-.94-.93-.96-2.44-.07-3.39.44-.47,1.08-.75,1.73-.75h0c.65,0,1.27.27,1.71.73.89.91.9,2.4.02,3.34-.43.45-1.01.72-1.64.74h-.07Zm-.56-1.89c.14.15.34.23.54.23h0c.21,0,.41-.09.56-.25.27-.28.25-.73-.04-1.01-.16-.16-.32-.25-.53-.21-.21,0-.41.1-.55.25-.26.28-.25.71.02,1Zm.02.02h.02-.02Zm-.03-.03s0,0,0,0t0,0Z"/>
      <path class="cls-1" d="m45.1,29.82c-.47,0-.93-.17-1.3-.52-.74-.7-.76-1.89-.05-2.65.35-.37.84-.58,1.35-.58h0c.5,0,.99.21,1.34.57.7.71.7,1.88.01,2.62-.38.38-.86.57-1.35.57Zm-.17-1.73s.11.07.17.07c.25-.15.22-.3.13-.38-.08-.07-.2-.06-.28.02-.09.1-.09.21-.01.3Z"/>
      <path class="cls-1" d="m45.1,30.35c-.59,0-1.18-.22-1.65-.66-.96-.9-.99-2.42-.07-3.4.45-.48,1.08-.75,1.73-.75h0c.65,0,1.27.27,1.71.73.9.92.91,2.39.02,3.34-.49.49-1.11.73-1.74.73Zm-.54-1.89c.14.15.34.23.54.23h0c.21,0,.41-.09.56-.24.27-.29.24-.76-.07-1.04-.29-.27-.73-.25-1.01.03-.3.31-.29.74-.02,1.03Zm.02.02h.02-.02Z"/>
      <path class="cls-1" d="m4.9,29.83c-.47,0-.94-.17-1.31-.52-.74-.75-.75-1.9-.05-2.65.38-.38.86-.58,1.36-.58h.03c.5,0,.96.21,1.3.57.71.72.71,1.87.01,2.62-.36.38-.85.57-1.34.57Zm-.18-1.73s.11.07.17.07c.25-.16.24-.28.15-.36-.1-.1-.24-.07-.33.02-.07.08-.07.19,0,.27Z"/>
      <path class="cls-1" d="m4.9,30.35c-.6,0-1.2-.22-1.67-.66-.96-.96-.97-2.43-.07-3.39.5-.5,1.16-.79,1.77-.75.64.01,1.23.27,1.67.73.9.92.91,2.38.02,3.34-.46.49-1.09.74-1.72.74Zm-.55-1.89c.14.14.34.22.54.23.2-.04.39-.07.53-.21.3-.32.28-.76,0-1.04-.32-.31-.79-.28-1.08.03-.26.28-.25.71.01,1Zm.01.01s0,0,0,0t0,0Z"/>
      <path class="cls-1" d="m39.22,44.03c-.47,0-.94-.17-1.3-.51-.35-.33-.56-.78-.57-1.27-.02-.5.17-1.01.52-1.38.39-.39.87-.58,1.39-.58.5,0,.96.21,1.3.57.7.71.7,1.88,0,2.61-.37.37-.86.56-1.35.56Zm-.17-1.72s.11.07.17.07l.21-.2c0-.07-.04-.14-.09-.19-.07-.07-.2-.06-.28.03-.09.09-.09.21-.01.29Z"/>
      <path class="cls-1" d="m39.22,44.55c-.6,0-1.19-.22-1.66-.65-.45-.42-.72-1-.74-1.63-.02-.64.22-1.28.67-1.76.5-.5,1.13-.77,1.78-.75.64.01,1.23.27,1.67.73.89.91.89,2.4.01,3.34-.48.48-1.11.72-1.73.72Zm-.54-1.88c.14.14.34.22.54.23.17-.03.39-.07.53-.21.16-.17.22-.34.22-.53,0-.21-.1-.41-.25-.56-.28-.27-.73-.25-1.01.04-.29.31-.28.74-.02,1.03Zm.02.02s0,0,0,0c0,0,0,0,0,0Zm-.03-.03s0,0,0,0c0,0,0,0,0,0Z"/>
      <path class="cls-1" d="m10.81,15.61c-.47,0-.94-.17-1.31-.52-.74-.75-.75-1.9-.05-2.65.35-.37.84-.58,1.35-.58h0c.5,0,.99.21,1.34.57.71.72.71,1.87.01,2.62-.36.38-.85.57-1.34.57Zm-.18-1.73s.11.07.17.07c.25-.16.24-.28.16-.36-.1-.1-.24-.08-.33.02-.07.08-.07.19,0,.27Z"/>
      <path class="cls-1" d="m10.81,16.14c-.6,0-1.2-.22-1.67-.66-.96-.96-.97-2.43-.07-3.39.44-.47,1.08-.75,1.73-.75h0c.65,0,1.27.27,1.71.73.9.92.91,2.39.02,3.34-.46.49-1.09.74-1.72.74Zm-.55-1.89c.14.15.34.23.54.23h0c.21,0,.41-.09.56-.25.26-.28.25-.72-.03-1.01-.33-.3-.79-.28-1.08.03-.26.28-.25.71.01,1Zm.02.02h.02-.02Zm-.03-.03s0,0,0,0t0,0Z"/>
      <path class="cls-1" d="m25.03,9.71c-.48,0-.96-.19-1.32-.53-.35-.33-.56-.78-.57-1.27-.02-.5.18-1.01.53-1.38.34-.36.8-.56,1.31-.57.57,0,1.01.19,1.37.55h0c.71.71.72,1.89.03,2.63-.33.35-.78.56-1.27.57h-.06Zm-.17-1.72s.06,0,.15.06l.22-.21-.21-.23c-.26.16-.25.29-.16.37Zm0,0h0s0,0,0,0Z"/>
      <path class="cls-1" d="m25.03,10.24c-.62,0-1.23-.24-1.68-.67-.46-.43-.72-1.01-.74-1.64-.02-.64.22-1.28.67-1.75.43-.46,1.03-.73,1.68-.74.7-.04,1.29.25,1.75.71.9.9.92,2.41.03,3.35-.43.46-1.01.72-1.64.74h-.08Zm-.54-1.87c.14.14.28.23.52.21.21,0,.41-.1.56-.25.12-.13.19-.3.18-.49,0-.21-.1-.41-.25-.55-.13-.12-.31-.19-.49-.18-.21,0-.41.1-.55.25-.26.28-.25.73.03,1.01h0s0,0,0,0c0,0,0,0,0,0h0Z"/>
    </g>
  </g>
  <g id="guias">
    <g>
      <rect class="cls-2" x="47.5" y="47.5" width="2.5" height="2.5"/>
      <rect class="cls-2" x="47.5" width="2.5" height="2.5"/>
      <rect class="cls-2" y="47.5" width="2.5" height="2.5"/>
      <rect class="cls-2" width="2.5" height="2.5"/>
    </g>
  </g>
</svg>