<?xml version="1.0" encoding="UTF-8"?>
<svg xmlns="http://www.w3.org/2000/svg" viewBox="0 0 50 50">
  <defs>
    <style>
      .cls-1 {
        fill: #2e3135;
        stroke-width: 0px;
      }

      .cls-2 {
        fill: none;
        stroke: #000;
        stroke-miterlimit: 10;
        stroke-width: .21px;
      }
    </style>
  </defs>
  <g id="iconos">
    <g>
      <path class="cls-1" d="m32.33,39.97H13.49c-6.98,0-10.99-4-10.99-10.99v-11.3c0-6.98,4-10.99,10.99-10.99h5.65c.51,0,.98.25,1.28.66.29.41.37.94.21,1.42-.22.65-.34,1.36-.34,2.11v8.16c0,1.59.49,2.91,1.4,3.83.92.92,2.24,1.4,3.83,1.4.87,0,1.57.7,1.57,1.57v2.52l5.72-3.82c.26-.17.56-.26.87-.26h5.44c.75,0,1.46-.11,2.11-.34.48-.16,1.01-.09,1.42.21.41.29.66.77.66,1.28v3.56c0,6.98-4,10.99-10.99,10.99ZM13.49,9.83c-5.28,0-7.85,2.57-7.85,7.85v11.3c0,5.28,2.57,7.85,7.85,7.85h18.84c5.28,0,7.85-2.57,7.85-7.85v-1.62c-.34.03-.69.05-1.05.05h-4.96l-5.65,3.78c-.92.59-2.07.64-3.03.12-.94-.51-1.53-1.49-1.53-2.56v-1.46c-1.76-.28-3.32-1.04-4.48-2.2-1.5-1.5-2.32-3.65-2.32-6.05v-8.16c0-.35.02-.7.05-1.05h-3.72Z"/>
      <path class="cls-1" d="m26.89,31.67c-.48,0-.96-.12-1.41-.36-.94-.51-1.53-1.49-1.53-2.56v-1.46c-1.76-.28-3.32-1.04-4.48-2.2-1.5-1.5-2.32-3.65-2.32-6.05v-8.16c0-1.1.17-2.15.5-3.12,1.17-3.29,4.11-5.25,7.87-5.25h13.6c4.93,0,8.37,3.44,8.37,8.37v8.16c0,3.76-1.96,6.7-5.23,7.86-1,.34-2.05.51-3.14.51h-4.96l-5.65,3.78c-.49.32-1.06.48-1.62.48Zm-1.37-26.03c-2.41,0-4.19,1.14-4.9,3.14-.22.63-.33,1.34-.33,2.09v8.16c0,1.59.49,2.91,1.4,3.83.92.92,2.24,1.4,3.83,1.4.87,0,1.57.7,1.57,1.57v2.52l5.72-3.82c.26-.17.56-.26.87-.26h5.44c.75,0,1.46-.11,2.11-.34,1.98-.7,3.12-2.49,3.12-4.9v-8.16c0-3.23-2.01-5.23-5.23-5.23h-13.6Z"/>
      <path class="cls-1" d="m30.44,47.5h-15.07c-.87,0-1.57-.7-1.57-1.57s.7-1.57,1.57-1.57h15.07c.87,0,1.57.7,1.57,1.57s-.7,1.57-1.57,1.57Z"/>
      <path class="cls-1" d="m22.91,47.5c-.87,0-1.57-.7-1.57-1.57v-7.53c0-.87.7-1.57,1.57-1.57s1.57.7,1.57,1.57v7.53c0,.87-.7,1.57-1.57,1.57Z"/>
      <path class="cls-1" d="m38.61,16.63c-.87,0-1.58-.7-1.58-1.57s.69-1.57,1.56-1.57h.02c.87,0,1.57.7,1.57,1.57s-.7,1.57-1.57,1.57Z"/>
      <path class="cls-1" d="m32.75,16.63c-.87,0-1.58-.7-1.58-1.57s.69-1.57,1.56-1.57h.02c.87,0,1.57.7,1.57,1.57s-.7,1.57-1.57,1.57Z"/>
      <path class="cls-1" d="m26.89,16.63c-.87,0-1.58-.7-1.58-1.57s.69-1.57,1.56-1.57h.02c.87,0,1.57.7,1.57,1.57s-.7,1.57-1.57,1.57Z"/>
    </g>
  </g>
  <g id="guias">
    <rect class="cls-2" x="47.5" y="47.5" width="2.5" height="2.5"/>
    <rect class="cls-2" x="47.5" width="2.5" height="2.5"/>
    <rect class="cls-2" y="47.5" width="2.5" height="2.5"/>
    <rect class="cls-2" width="2.5" height="2.5"/>
  </g>
</svg>