<?xml version="1.0" encoding="UTF-8"?>
<svg xmlns="http://www.w3.org/2000/svg" viewBox="0 0 50 50">
  <defs>
    <style>
      .cls-1 {
        fill: #2e3135;
        stroke-width: 0px;
      }

      .cls-2 {
        fill: none;
        stroke: #000;
        stroke-miterlimit: 10;
        stroke-width: .21px;
      }
    </style>
  </defs>
  <g id="iconos">
    <g>
      <path class="cls-1" d="m25.02,47.17c-2.31,0-4.48-.97-6.09-2.74l-14.36-15.79c-2.03-2.21-2.67-6.11-1.45-8.87l5.36-12.06c1.46-3.29,3.92-4.89,7.53-4.89h17.98c3.6,0,6.06,1.59,7.52,4.86l5.36,12.06c1.23,2.73.61,6.63-1.42,8.87l-14.34,15.8c-1.6,1.77-3.76,2.74-6.07,2.74h-.02ZM16,5.97c-2.75,0-3.85,1.21-4.66,3.02l-5.36,12.06c-.72,1.62-.3,4.18.89,5.48l14.36,15.79c1.01,1.11,2.35,1.71,3.78,1.72,0,0,0,0,.01,0,1.42,0,2.75-.61,3.75-1.71l14.34-15.8c1.19-1.32,1.61-3.88.88-5.48l-5.36-12.07c-.81-1.8-1.91-3-4.65-3h-17.98Z"/>
      <path class="cls-1" d="m42.8,18.21H7.21c-.87,0-1.57-.7-1.57-1.57s.7-1.57,1.57-1.57h35.58c.87,0,1.57.7,1.57,1.57s-.7,1.57-1.57,1.57Z"/>
    </g>
  </g>
  <g id="guias">
    <rect class="cls-2" x="47.5" y="47.5" width="2.5" height="2.5"/>
    <rect class="cls-2" x="47.5" width="2.5" height="2.5"/>
    <rect class="cls-2" y="47.5" width="2.5" height="2.5"/>
    <rect class="cls-2" width="2.5" height="2.5"/>
  </g>
</svg>