<?xml version="1.0" encoding="UTF-8"?>
<svg xmlns="http://www.w3.org/2000/svg" viewBox="0 0 50 50">
  <defs>
    <style>
      .cls-1 {
        fill: none;
        stroke: #000;
        stroke-miterlimit: 10;
        stroke-width: .21px;
      }

      .cls-2 {
        fill: #1e1f22;
        stroke-width: 0px;
      }
    </style>
  </defs>
  <g id="iconos">
    <g>
      <path class="cls-2" d="m34.42,46.93H8.49c-1.84,0-3.35-1.5-3.35-3.35V5.85c0-1.84,1.5-3.35,3.35-3.35h25.93c1.84,0,3.35,1.5,3.35,3.35v37.74c0,1.84-1.5,3.35-3.35,3.35ZM8.49,3.57c-1.25,0-2.27,1.02-2.27,2.27v37.74c0,1.25,1.02,2.27,2.27,2.27h25.93c1.25,0,2.27-1.02,2.27-2.27V5.85c0-1.25-1.02-2.27-2.27-2.27H8.49Z"/>
      <g>
        <path class="cls-2" d="m44.32,37.88h-3.51c-.3,0-.54-.24-.54-.54v-21.13c0-.3.24-.54.54-.54h3.51c.3,0,.54.24.54.54v21.13c0,.3-.24.54-.54.54Zm-2.97-1.07h2.43v-20.05h-2.43v20.05Z"/>
        <path class="cls-2" d="m42.62,43.96h-.12c-1.23,0-2.23-1-2.23-2.23v-4.39c0-.3.24-.54.54-.54h3.51c.3,0,.54.24.54.54v4.39c0,1.23-1,2.23-2.23,2.23Zm-1.27-6.08v3.85c0,.64.52,1.16,1.16,1.16h.12c.64,0,1.16-.52,1.16-1.16v-3.85h-2.43Z"/>
        <path class="cls-2" d="m42.56,47.5c-.3,0-.54-.24-.54-.54v-3.54c0-.3.24-.54.54-.54s.54.24.54.54v3.54c0,.3-.24.54-.54.54Z"/>
        <path class="cls-2" d="m44.32,16.76h-3.51c-.3,0-.54-.24-.54-.54v-1.81c0-1.23,1-2.23,2.23-2.23h.12c1.23,0,2.23,1,2.23,2.23v1.81c0,.3-.24.54-.54.54Zm-2.97-1.07h2.43v-1.27c0-.64-.52-1.16-1.16-1.16h-.12c-.64,0-1.16.52-1.16,1.16v1.27Z"/>
      </g>
      <polygon class="cls-2" points="16.59 26.31 21.46 31.18 26.32 26.31 25.19 25.18 21.46 28.92 18.85 26.31 21.46 23.71 22.57 24.82 23.7 23.69 21.46 21.44 16.59 26.31"/>
      <polygon class="cls-2" points="26.32 23.69 21.46 18.82 16.59 23.69 17.72 24.82 21.46 21.09 24.06 23.69 21.46 26.29 20.35 25.18 19.21 26.32 21.46 28.55 26.32 23.69"/>
    </g>
  </g>
  <g id="guias">
    <rect class="cls-1" x="47.5" y="47.5" width="2.5" height="2.5"/>
    <rect class="cls-1" x="47.5" width="2.5" height="2.5"/>
    <rect class="cls-1" y="47.5" width="2.5" height="2.5"/>
    <rect class="cls-1" width="2.5" height="2.5"/>
  </g>
</svg>