<?xml version="1.0" encoding="UTF-8"?>
<svg xmlns="http://www.w3.org/2000/svg" viewBox="0 0 50 50">
  <defs>
    <style>
      .cls-1 {
        fill: #2e3135;
        stroke-width: 0px;
      }

      .cls-2 {
        fill: none;
        stroke: #000;
        stroke-miterlimit: 10;
        stroke-width: .21px;
      }
    </style>
  </defs>
  <g id="iconos">
    <path class="cls-1" d="m25,46.81c-3.29,0-6.28-1.81-7.81-4.72h0L3.55,16.17c-1.82-3.46-1.23-7.5,1.5-10.29,2.74-2.8,6.76-3.47,10.26-1.72l7.25,3.62c1.53.77,3.36.77,4.9,0l7.25-3.62c3.49-1.75,7.51-1.07,10.24,1.71,2.74,2.79,3.34,6.83,1.52,10.3l-13.64,25.92c-1.53,2.91-4.53,4.72-7.81,4.72Zm-4.85-6.28c.97,1.83,2.78,2.93,4.85,2.93s3.88-1.09,4.85-2.93l13.64-25.92c1.37-2.61.41-5.01-.95-6.39-1.35-1.37-3.72-2.38-6.35-1.06l-7.25,3.62c-2.47,1.24-5.43,1.24-7.9,0l-7.25-3.62c-2.63-1.31-5.02-.31-6.36,1.07-1.35,1.38-2.3,3.78-.93,6.38l13.64,25.92Z"/>
  </g>
  <g id="guias">
    <g>
      <rect class="cls-2" x="47.5" y="47.5" width="2.5" height="2.5"/>
      <rect class="cls-2" x="47.5" width="2.5" height="2.5"/>
      <rect class="cls-2" y="47.5" width="2.5" height="2.5"/>
      <rect class="cls-2" width="2.5" height="2.5"/>
    </g>
  </g>
</svg>