<?xml version="1.0" encoding="UTF-8"?>
<svg xmlns="http://www.w3.org/2000/svg" viewBox="0 0 50 50">
  <defs>
    <style>
      .cls-1 {
        fill: #2e3135;
        stroke-width: 0px;
      }

      .cls-2 {
        fill: none;
        stroke: #000;
        stroke-miterlimit: 10;
        stroke-width: .21px;
      }
    </style>
  </defs>
  <g id="iconos">
    <path class="cls-1" d="m11.31,46.81c-2.3,0-4.53-.92-6.26-2.68-2.73-2.79-3.32-6.83-1.5-10.29L17.19,7.91h0c1.53-2.91,4.53-4.72,7.81-4.72s6.28,1.81,7.81,4.72l13.64,25.92c1.81,3.47,1.22,7.51-1.52,10.3-2.73,2.78-6.74,3.46-10.24,1.71l-7.24-3.62c-1.53-.76-3.36-.76-4.9,0l-7.25,3.62c-1.29.65-2.66.96-4,.96ZM20.16,9.48l-13.64,25.92c-1.37,2.6-.42,5,.93,6.38,1.35,1.38,3.73,2.38,6.36,1.07l7.25-3.62c2.47-1.24,5.42-1.24,7.89,0l7.25,3.62c2.63,1.31,5,.31,6.35-1.06,1.35-1.38,2.31-3.78.94-6.39l-13.64-25.92c-.97-1.83-2.78-2.93-4.84-2.93s-3.88,1.09-4.84,2.93h0Z"/>
  </g>
  <g id="guias">
    <rect class="cls-2" x="47.5" y="47.5" width="2.5" height="2.5"/>
    <rect class="cls-2" x="47.5" width="2.5" height="2.5"/>
    <rect class="cls-2" y="47.5" width="2.5" height="2.5"/>
    <rect class="cls-2" width="2.5" height="2.5"/>
  </g>
</svg>