<?xml version="1.0" encoding="UTF-8"?>
<svg xmlns="http://www.w3.org/2000/svg" viewBox="0 0 50 50">
  <defs>
    <style>
      .cls-1 {
        fill: #2e3135;
        stroke-width: 0px;
      }

      .cls-2 {
        fill: none;
        stroke: #000;
        stroke-miterlimit: 10;
        stroke-width: .21px;
      }
    </style>
  </defs>
  <g id="iconos">
    <path class="cls-1" d="m12.01,47.5c-2.24,0-4.43-.87-6.15-2.56-2.78-2.73-3.45-6.75-1.71-10.24l3.62-7.24c.77-1.53.77-3.36,0-4.89l-3.62-7.25c-1.75-3.5-1.07-7.53,1.72-10.26,2.79-2.73,6.83-3.33,10.29-1.5l25.92,13.64h0c2.91,1.53,4.72,4.53,4.72,7.81s-1.81,6.28-4.72,7.81l-25.92,13.64c-1.33.7-2.75,1.04-4.15,1.04Zm0-41.65c-1.55,0-2.89.71-3.8,1.6-1.38,1.35-2.38,3.73-1.07,6.36l3.62,7.25c1.24,2.47,1.24,5.42,0,7.9l-3.62,7.24c-1.31,2.63-.31,5,1.06,6.35,1.38,1.35,3.78,2.31,6.39.94l25.92-13.64c1.83-.97,2.93-2.78,2.93-4.84s-1.09-3.88-2.93-4.84L14.6,6.52c-.9-.47-1.77-.67-2.58-.67Z"/>
  </g>
  <g id="guias">
    <rect class="cls-2" x="47.5" y="47.5" width="2.5" height="2.5"/>
    <rect class="cls-2" x="47.5" width="2.5" height="2.5"/>
    <rect class="cls-2" y="47.5" width="2.5" height="2.5"/>
    <rect class="cls-2" width="2.5" height="2.5"/>
  </g>
</svg>