<?xml version="1.0" encoding="UTF-8"?>
<svg xmlns="http://www.w3.org/2000/svg" viewBox="0 0 50 50">
  <defs>
    <style>
      .cls-1 {
        fill: #2e3135;
        stroke-width: 0px;
      }

      .cls-2 {
        fill: none;
        stroke: #000;
        stroke-miterlimit: 10;
        stroke-width: .21px;
      }
    </style>
  </defs>
  <g id="iconos">
    <g>
      <path class="cls-1" d="m25,18.2c-.2,0-.41-.04-.6-.12-.59-.24-.97-.82-.97-1.45V4.07c0-.87.7-1.57,1.57-1.57s1.57.7,1.57,1.57v8.77l1.51-1.51c.61-.61,1.61-.61,2.22,0s.61,1.61,0,2.22l-4.19,4.19c-.3.3-.7.46-1.11.46Z"/>
      <path class="cls-1" d="m25,18.2c-.4,0-.8-.15-1.11-.46l-4.19-4.19c-.61-.61-.61-1.61,0-2.22s1.61-.61,2.22,0l4.19,4.19c.61.61.61,1.61,0,2.22-.31.31-.71.46-1.11.46Z"/>
      <path class="cls-1" d="m33.37,47.5h-16.74c-12.03,0-12.03-6.39-12.03-12.03v-2.09c0-4.66,0-9.94,9.94-9.94,2.49,0,3.41.59,4.7,1.57.08.06.15.12.21.19l2.11,2.26c.9.95,2.12,1.48,3.43,1.48,0,0,0,0,.01,0,1.31,0,2.52-.53,3.41-1.48l2.14-2.26c.06-.07.13-.13.2-.18,1.3-.97,2.22-1.57,4.71-1.57,9.94,0,9.94,5.28,9.94,9.94v2.09c0,7.99-4.05,12.03-12.03,12.03ZM14.53,26.57c-6.8,0-6.8,2.13-6.8,6.8v2.09c0,5.74,0,8.9,8.9,8.9h16.74c6.23,0,8.9-2.66,8.9-8.9v-2.09c0-4.67,0-6.8-6.8-6.8-1.51,0-1.82.18-2.72.86l-2.04,2.16c-1.48,1.59-3.51,2.47-5.69,2.47h-.02c-2.15,0-4.24-.9-5.72-2.47l-2.03-2.16c-.9-.67-1.21-.86-2.71-.86Z"/>
      <path class="cls-1" d="m10.35,26.57c-.87,0-1.57-.7-1.57-1.57v-8.37c0-4.06,0-9.11,7.7-9.85.84-.11,1.63.55,1.71,1.41.08.86-.55,1.63-1.41,1.71-4.86.47-4.86,2.43-4.86,6.73v8.37c0,.87-.7,1.57-1.57,1.57Z"/>
      <path class="cls-1" d="m39.65,26.57c-.87,0-1.57-.7-1.57-1.57v-8.37c0-4.3,0-6.26-4.86-6.73-.86-.08-1.49-.85-1.41-1.71.08-.86.86-1.53,1.71-1.41,7.7.74,7.7,5.79,7.7,9.85v8.37c0,.87-.7,1.57-1.57,1.57Z"/>
    </g>
  </g>
  <g id="guias">
    <rect class="cls-2" x="47.5" y="47.5" width="2.5" height="2.5"/>
    <rect class="cls-2" x="47.5" width="2.5" height="2.5"/>
    <rect class="cls-2" y="47.5" width="2.5" height="2.5"/>
    <rect class="cls-2" width="2.5" height="2.5"/>
  </g>
</svg>