<?xml version="1.0" encoding="UTF-8"?>
<svg xmlns="http://www.w3.org/2000/svg" viewBox="0 0 50 50">
  <defs>
    <style>
      .cls-1 {
        fill: #2e3135;
        stroke-width: 0px;
      }

      .cls-2 {
        fill: none;
        stroke: #000;
        stroke-miterlimit: 10;
        stroke-width: .21px;
      }
    </style>
  </defs>
  <g id="iconos">
    <g>
      <path class="cls-1" d="m25.02,20.3c-.87,0-1.57-.7-1.57-1.57V7.87l-1.51,1.51c-.61.61-1.61.61-2.22,0s-.61-1.61,0-2.22l4.18-4.18c.45-.45,1.12-.58,1.71-.34.59.24.97.81.97,1.45v14.64c0,.87-.7,1.57-1.57,1.57Z"/>
      <path class="cls-1" d="m29.2,9.84c-.4,0-.8-.15-1.11-.46l-4.18-4.18c-.61-.61-.61-1.61,0-2.22s1.61-.61,2.22,0l4.18,4.18c.61.61.61,1.61,0,2.22-.31.31-.71.46-1.11.46Z"/>
      <path class="cls-1" d="m28.72,37.02h-7.38c-2.19,0-4.16-1.22-5.15-3.19l-2.45-4.89c-.09-.18-.26-.28-.46-.28H4.07c-.87,0-1.57-.7-1.57-1.57s.7-1.57,1.57-1.57h9.22c1.39,0,2.64.77,3.27,2.02l2.45,4.89c.45.89,1.34,1.45,2.34,1.45h7.38c.99,0,1.89-.56,2.34-1.45l2.45-4.9c.61-1.22,1.89-2.02,3.26-2.02h9.12c.87,0,1.57.7,1.57,1.57s-.7,1.57-1.57,1.57h-9.12c-.19,0-.37.11-.46.28l-2.45,4.9c-.98,1.96-2.95,3.19-5.14,3.19Z"/>
      <path class="cls-1" d="m31.29,47.48h-12.55c-11.36,0-16.21-4.85-16.21-16.21v-6.27c0-9.81,3.64-14.72,11.8-15.92.87-.11,1.66.47,1.78,1.32.13.86-.47,1.65-1.32,1.78-6.56.96-9.12,4.56-9.12,12.81v6.27c0,9.65,3.42,13.07,13.07,13.07h12.55c9.65,0,13.07-3.42,13.07-13.07v-6.27c0-8.26-2.56-11.85-9.12-12.81-.86-.13-1.45-.92-1.32-1.78.13-.85.92-1.44,1.78-1.32,8.16,1.2,11.8,6.11,11.8,15.92v6.27c0,11.36-4.85,16.21-16.21,16.21Z"/>
    </g>
  </g>
  <g id="guias">
    <rect class="cls-2" x="47.5" y="47.5" width="2.5" height="2.5"/>
    <rect class="cls-2" x="47.5" width="2.5" height="2.5"/>
    <rect class="cls-2" y="47.5" width="2.5" height="2.5"/>
    <rect class="cls-2" width="2.5" height="2.5"/>
  </g>
</svg>