<?xml version="1.0" encoding="UTF-8"?>
<svg xmlns="http://www.w3.org/2000/svg" viewBox="0 0 50 50">
  <defs>
    <style>
      .cls-1 {
        fill: #2e3135;
        stroke-width: 0px;
      }

      .cls-2 {
        fill: none;
        stroke: #000;
        stroke-miterlimit: 10;
        stroke-width: .21px;
      }
    </style>
  </defs>
  <g id="iconos">
    <g>
      <path class="cls-1" d="m28.72,37.02h-7.38c-2.3,0-4.12-1.13-5.15-3.17l-1.86-3.75c-.45-.89-1.34-1.45-2.34-1.45h-7.93c-.87,0-1.57-.7-1.57-1.57s.7-1.57,1.57-1.57h7.93c2.19,0,4.16,1.22,5.15,3.19l1.86,3.75c.49.98,1.23,1.43,2.34,1.43h7.38c1,0,1.89-.56,2.34-1.45l1.86-3.74c.98-1.97,2.96-3.19,5.15-3.19h7.82c.87,0,1.57.7,1.57,1.57s-.7,1.57-1.57,1.57h-7.82c-1,0-1.89.56-2.34,1.45l-1.86,3.74c-.98,1.97-2.96,3.19-5.15,3.19Z"/>
      <path class="cls-1" d="m39.66,18.2c-4.32,0-7.84-3.52-7.84-7.84s3.52-7.84,7.84-7.84,7.84,3.52,7.84,7.84-3.52,7.84-7.84,7.84Zm0-12.55c-2.59,0-4.7,2.11-4.7,4.7s2.11,4.7,4.7,4.7,4.7-2.11,4.7-4.7-2.11-4.7-4.7-4.7Z"/>
      <path class="cls-1" d="m31.29,47.48h-12.55c-11.36,0-16.21-4.85-16.21-16.21v-12.55C2.54,7.37,7.39,2.52,18.75,2.52h10.46c.87,0,1.57.7,1.57,1.57s-.7,1.57-1.57,1.57h-10.46c-9.65,0-13.07,3.42-13.07,13.07v12.55c0,9.65,3.42,13.07,13.07,13.07h12.55c9.65,0,13.07-3.42,13.07-13.07v-10.46c0-.87.7-1.57,1.57-1.57s1.57.7,1.57,1.57v10.46c0,11.36-4.85,16.21-16.21,16.21Z"/>
    </g>
  </g>
  <g id="guias">
    <rect class="cls-2" x="47.5" y="47.5" width="2.5" height="2.5"/>
    <rect class="cls-2" x="47.5" width="2.5" height="2.5"/>
    <rect class="cls-2" y="47.5" width="2.5" height="2.5"/>
    <rect class="cls-2" width="2.5" height="2.5"/>
  </g>
</svg>