<?xml version="1.0" encoding="UTF-8"?>
<svg xmlns="http://www.w3.org/2000/svg" viewBox="0 0 50 50">
  <defs>
    <style>
      .cls-1 {
        fill: #2e3135;
        stroke-width: 0px;
      }

      .cls-2 {
        fill: none;
        stroke: #000;
        stroke-miterlimit: 10;
        stroke-width: .21px;
      }
    </style>
  </defs>
  <g id="iconos">
    <g>
      <path class="cls-1" d="m31.28,47.5h-12.56c-11.37,0-16.22-4.85-16.22-16.22v-12.56C2.5,7.35,7.35,2.5,18.72,2.5h12.56c11.37,0,16.22,4.85,16.22,16.22v12.56c0,11.37-4.85,16.22-16.22,16.22ZM18.72,5.64c-9.66,0-13.08,3.42-13.08,13.08v12.56c0,9.66,3.42,13.08,13.08,13.08h12.56c9.66,0,13.08-3.42,13.08-13.08v-12.56c0-9.66-3.42-13.08-13.08-13.08h-12.56Z"/>
      <path class="cls-1" d="m28.7,37.03h-7.39c-2.29,0-4.13-1.12-5.17-3.16l-1.87-3.76c-.45-.9-1.34-1.45-2.34-1.45h-7.87c-.87,0-1.57-.7-1.57-1.57s.7-1.57,1.57-1.57h7.87c2.19,0,4.17,1.22,5.15,3.19l1.86,3.75c.65,1.28,1.66,1.43,2.36,1.43h7.39c1,0,1.89-.56,2.34-1.46l1.86-3.74c.99-1.97,2.96-3.19,5.15-3.19h7.83c.87,0,1.57.7,1.57,1.57s-.7,1.57-1.57,1.57h-7.83c-1,0-1.89.56-2.34,1.45l-1.86,3.74c-.99,1.97-2.96,3.19-5.15,3.19Z"/>
    </g>
  </g>
  <g id="guias">
    <rect class="cls-2" x="47.5" y="47.5" width="2.5" height="2.5"/>
    <rect class="cls-2" x="47.5" width="2.5" height="2.5"/>
    <rect class="cls-2" y="47.5" width="2.5" height="2.5"/>
    <rect class="cls-2" width="2.5" height="2.5"/>
  </g>
</svg>