<?xml version="1.0" encoding="UTF-8"?>
<svg xmlns="http://www.w3.org/2000/svg" viewBox="0 0 50 50">
  <defs>
    <style>
      .cls-1 {
        fill: #2e3135;
        stroke-width: 0px;
      }

      .cls-2 {
        fill: none;
        stroke: #000;
        stroke-miterlimit: 10;
        stroke-width: .21px;
      }
    </style>
  </defs>
  <g id="iconos">
    <path class="cls-1" d="m37.99,47.5c-1.4,0-2.82-.34-4.15-1.04l-25.92-13.64c-2.91-1.53-4.72-4.53-4.72-7.81s1.81-6.28,4.72-7.81L33.84,3.55c3.46-1.82,7.5-1.23,10.29,1.5,2.79,2.73,3.47,6.76,1.72,10.26l-3.62,7.25c-.77,1.53-.77,3.36,0,4.9l3.62,7.25c1.75,3.49,1.07,7.51-1.71,10.24-1.72,1.69-3.91,2.56-6.15,2.56Zm0-41.65c-.81,0-1.69.2-2.58.67l-25.92,13.65h0c-1.83.96-2.93,2.77-2.93,4.84s1.1,3.88,2.93,4.84l25.92,13.64c2.61,1.37,5.01.4,6.39-.95,1.37-1.35,2.37-3.72,1.06-6.34l-3.62-7.25c-1.24-2.47-1.24-5.42,0-7.9l3.62-7.25c1.32-2.63.31-5.01-1.07-6.36-.9-.88-2.25-1.6-3.8-1.6Zm-29.28,12.83h.02-.02Z"/>
  </g>
  <g id="guias">
    <rect class="cls-2" x="47.5" y="47.5" width="2.5" height="2.5"/>
    <rect class="cls-2" x="47.5" width="2.5" height="2.5"/>
    <rect class="cls-2" y="47.5" width="2.5" height="2.5"/>
    <rect class="cls-2" width="2.5" height="2.5"/>
  </g>
</svg>