<?xml version="1.0" encoding="UTF-8"?>
<svg xmlns="http://www.w3.org/2000/svg" viewBox="0 0 50 50">
  <defs>
    <style>
      .cls-1 {
        fill: #2e3135;
        stroke-width: 0px;
      }

      .cls-2 {
        fill: none;
        stroke: #000;
        stroke-miterlimit: 10;
        stroke-width: .21px;
      }
    </style>
  </defs>
  <g id="iconos">
    <g>
      <path class="cls-1" d="m31.19,47.17h-12.37c-11.2,0-15.98-4.78-15.98-15.98v-12.37C2.83,7.61,7.61,2.83,18.81,2.83h12.37c11.2,0,15.98,4.78,15.98,15.98v12.37c0,11.2-4.78,15.98-15.98,15.98ZM18.81,5.92c-9.52,0-12.89,3.37-12.89,12.89v12.37c0,9.52,3.37,12.89,12.89,12.89h12.37c9.52,0,12.89-3.37,12.89-12.89v-12.37c0-9.52-3.37-12.89-12.89-12.89h-12.37Z"/>
      <path class="cls-1" d="m28.65,36.86h-7.28c-2.26,0-4.07-1.11-5.09-3.11l-1.84-3.71c-.44-.88-1.33-1.43-2.31-1.43h-7.76c-.85,0-1.55-.69-1.55-1.55s.69-1.55,1.55-1.55h7.76c2.16,0,4.11,1.2,5.08,3.15l1.84,3.69c.64,1.26,1.64,1.41,2.33,1.41h7.28c.98,0,1.87-.55,2.31-1.44l1.83-3.69c.97-1.94,2.92-3.15,5.08-3.15h7.71c.85,0,1.55.69,1.55,1.55s-.69,1.55-1.55,1.55h-7.71c-.98,0-1.87.55-2.31,1.43l-1.83,3.69c-.97,1.94-2.92,3.15-5.08,3.15Z"/>
      <path class="cls-1" d="m28.44,16.23h-6.87c-.85,0-1.55-.69-1.55-1.55s.69-1.55,1.55-1.55h6.87c.85,0,1.55.69,1.55,1.55s-.69,1.55-1.55,1.55Z"/>
      <path class="cls-1" d="m30.16,22.42h-10.31c-.85,0-1.55-.69-1.55-1.55s.69-1.55,1.55-1.55h10.31c.85,0,1.55.69,1.55,1.55s-.69,1.55-1.55,1.55Z"/>
    </g>
  </g>
  <g id="guias">
    <rect class="cls-2" x="47.5" y="47.5" width="2.5" height="2.5"/>
    <rect class="cls-2" x="47.5" width="2.5" height="2.5"/>
    <rect class="cls-2" y="47.5" width="2.5" height="2.5"/>
    <rect class="cls-2" width="2.5" height="2.5"/>
  </g>
</svg>