<?xml version="1.0" encoding="UTF-8"?>
<svg xmlns="http://www.w3.org/2000/svg" viewBox="0 0 50 50">
  <defs>
    <style>
      .cls-1 {
        fill: #2e3135;
        stroke-width: 0px;
      }

      .cls-2 {
        fill: none;
        stroke: #000;
        stroke-miterlimit: 10;
        stroke-width: .21px;
      }
    </style>
  </defs>
  <g id="iconos">
    <g>
      <path class="cls-1" d="m25,47.47c-1.32,0-2.55-.51-3.48-1.43l-3.19-3.19c-.24-.24-.91-.52-1.26-.52h-4.51c-2.72,0-4.92-2.21-4.92-4.92v-4.51c0-.38-.29-1.03-.5-1.23,0,0-.02-.01-.02-.02l-3.19-3.18c-1.92-1.92-1.92-5.04,0-6.96l3.19-3.18c.25-.25.52-.91.52-1.26v-4.51c0-2.72,2.21-4.92,4.92-4.92h4.51c.34,0,1.01-.28,1.26-.53l3.19-3.18c1.85-1.85,5.11-1.85,6.96,0l3.18,3.18c.25.25.92.53,1.26.53h4.51c2.72,0,4.92,2.21,4.92,4.92v4.51c0,.34.28,1.01.52,1.26l3.19,3.18c1.92,1.92,1.92,5.04,0,6.96l-3.19,3.18c-.24.25-.52.91-.52,1.26v4.51c0,2.72-2.21,4.92-4.92,4.92h-4.51c-.34,0-1.01.28-1.26.53l-3.18,3.18c-.92.92-2.16,1.43-3.48,1.43Zm-15.66-18.06c.84.82,1.46,2.28,1.46,3.49v4.51c0,.98.8,1.78,1.78,1.78h4.51c1.18,0,2.64.61,3.48,1.44l3.19,3.19c.66.66,1.85.66,2.51,0l3.19-3.19c.84-.84,2.3-1.44,3.48-1.44h4.51c.98,0,1.78-.8,1.78-1.78v-4.51c0-1.18.61-2.64,1.44-3.48l3.19-3.18c.68-.68.68-1.83,0-2.52l-3.19-3.18c-.84-.84-1.44-2.3-1.44-3.48v-4.51c0-.98-.8-1.78-1.78-1.78h-4.51c-1.18,0-2.64-.61-3.48-1.45l-3.18-3.18c-.66-.66-1.85-.66-2.51,0l-3.19,3.18c-.84.84-2.3,1.45-3.48,1.45h-4.51c-.98,0-1.78.8-1.78,1.78v4.51c0,1.18-.61,2.64-1.45,3.48l-3.18,3.18c-.68.68-.68,1.83,0,2.52l3.18,3.17Z"/>
      <path class="cls-1" d="m18.74,32.81c-.4,0-.8-.15-1.11-.46-.61-.61-.61-1.61,0-2.22l12.57-12.57c.61-.61,1.61-.61,2.22,0s.61,1.61,0,2.22l-12.57,12.57c-.31.31-.71.46-1.11.46Z"/>
      <path class="cls-1" d="m30.27,32.29c-1.16,0-2.1-.94-2.1-2.1s.93-2.1,2.09-2.1h.02c1.16,0,2.1.94,2.1,2.1s-.94,2.1-2.1,2.1Z"/>
      <path class="cls-1" d="m19.79,21.81c-1.16,0-2.1-.94-2.1-2.1s.93-2.1,2.09-2.1h.02c1.16,0,2.1.94,2.1,2.1s-.94,2.1-2.1,2.1Z"/>
    </g>
  </g>
  <g id="guias">
    <rect class="cls-2" x="47.5" y="47.5" width="2.5" height="2.5"/>
    <rect class="cls-2" x="47.5" width="2.5" height="2.5"/>
    <rect class="cls-2" y="47.5" width="2.5" height="2.5"/>
    <rect class="cls-2" width="2.5" height="2.5"/>
  </g>
</svg>