<?xml version="1.0" encoding="UTF-8"?>
<svg xmlns="http://www.w3.org/2000/svg" viewBox="0 0 50 50">
  <defs>
    <style>
      .cls-1 {
        fill: #2e3135;
        stroke-width: 0px;
      }

      .cls-2 {
        fill: none;
        stroke: #000;
        stroke-miterlimit: 10;
        stroke-width: .21px;
      }
    </style>
  </defs>
  <g id="iconos">
    <g>
      <path class="cls-1" d="m10.27,47.5c-2.27,0-4.21-.73-5.62-2.15-2.02-2.02-2.64-5.1-1.74-8.67l5.18-20.65c.89-3.57,4.38-7.07,7.96-7.96l20.65-5.18h0c3.57-.89,6.65-.27,8.67,1.75,2.02,2.02,2.64,5.1,1.75,8.67l-5.18,20.67c-.89,3.57-4.39,7.06-7.96,7.96l-20.65,5.16c-1.07.27-2.09.4-3.05.4ZM37.44,5.92l-20.65,5.18c-2.47.61-5.07,3.22-5.69,5.68l-5.18,20.65c-.62,2.47-.29,4.49.92,5.71,1.21,1.21,3.24,1.54,5.71.93l20.65-5.16c2.42-.61,5.08-3.26,5.69-5.69l5.18-20.67c.62-2.46.29-4.49-.93-5.71-1.22-1.21-3.24-1.55-5.71-.93h0Z"/>
      <path class="cls-1" d="m25,33.84c-4.87,0-8.84-3.96-8.84-8.84s3.97-8.84,8.84-8.84,8.84,3.96,8.84,8.84-3.97,8.84-8.84,8.84Zm0-14.56c-3.15,0-5.72,2.57-5.72,5.72s2.57,5.72,5.72,5.72,5.72-2.57,5.72-5.72-2.57-5.72-5.72-5.72Z"/>
    </g>
  </g>
  <g id="guias">
    <rect class="cls-2" x="47.5" y="47.5" width="2.5" height="2.5"/>
    <rect class="cls-2" x="47.5" width="2.5" height="2.5"/>
    <rect class="cls-2" y="47.5" width="2.5" height="2.5"/>
    <rect class="cls-2" width="2.5" height="2.5"/>
  </g>
</svg>