<?xml version="1.0" encoding="UTF-8"?>
<svg xmlns="http://www.w3.org/2000/svg" viewBox="0 0 50 50">
  <defs>
    <style>
      .cls-1 {
        fill: #2e3135;
        stroke-width: 0px;
      }

      .cls-2 {
        fill: none;
        stroke: #000;
        stroke-miterlimit: 10;
        stroke-width: .21px;
      }
    </style>
  </defs>
  <g id="iconos">
    <g>
      <path class="cls-1" d="m22.42,46.92c-.62,0-1.24-.1-1.85-.33-2.7-.9-4.45-3.89-3.84-6.65l1.06-6.84c.02-.14.02-.38-.12-.54-.1-.12-.26-.18-.44-.18h-8.68c-2.13,0-3.97-.89-5.07-2.43-1.06-1.5-1.27-3.46-.59-5.38l5.19-15.8c.78-3.13,4.14-5.67,7.62-5.67h8.25c1.21,0,3.87.37,5.27,1.78l6.57,5.08-1.99,2.57-6.73-5.21c-.54-.52-1.92-.96-3.13-.96h-8.25c-1.95,0-4.05,1.55-4.5,3.32l-5.24,15.96c-.34.96-.28,1.81.17,2.45.47.67,1.35,1.06,2.4,1.06h8.68c1.12,0,2.18.48,2.9,1.31.74.85,1.05,1.97.88,3.16l-1.09,6.97c-.27,1.22.56,2.59,1.73,2.98,1.06.4,2.43-.17,2.91-.88l8.9-13.24,2.7,1.81-8.9,13.24c-.91,1.37-2.83,2.47-4.84,2.47Z"/>
      <path class="cls-1" d="m41.53,38.23h-2.17c-4.02,0-5.97-1.88-5.97-5.75V11.22c0-3.87,1.95-5.75,5.97-5.75h2.17c4.02,0,5.97,1.88,5.97,5.75v21.27c0,3.87-1.95,5.75-5.97,5.75Zm-2.17-29.51c-2.36,0-2.71.56-2.71,2.5v21.27c0,1.93.36,2.5,2.71,2.5h2.17c2.36,0,2.71-.56,2.71-2.5V11.22c0-1.93-.36-2.5-2.71-2.5h-2.17Z"/>
    </g>
  </g>
  <g id="guias">
    <rect class="cls-2" x="47.5" y="47.5" width="2.5" height="2.5"/>
    <rect class="cls-2" x="47.5" width="2.5" height="2.5"/>
    <rect class="cls-2" y="47.5" width="2.5" height="2.5"/>
    <rect class="cls-2" width="2.5" height="2.5"/>
  </g>
</svg>