<?xml version="1.0" encoding="UTF-8"?>
<svg xmlns="http://www.w3.org/2000/svg" viewBox="0 0 50 50">
  <defs>
    <style>
      .cls-1 {
        fill: none;
        stroke: #000;
        stroke-miterlimit: 10;
        stroke-width: .21px;
      }

      .cls-2 {
        isolation: isolate;
      }

      .cls-3 {
        fill: #1e1f22;
        stroke-width: 0px;
      }
    </style>
  </defs>
  <g id="iconos">
    <g>
      <g class="cls-2">
        <path class="cls-3" d="m40.83,47.5s-.02,0-.03,0H9.2s-.04,0-.07,0c-2.16-.02-3.9-1.79-3.88-3.95V6.37s0,0,0,0c.03-2.13,1.78-3.86,3.91-3.86.01,0,.02,0,.03,0h22.05c.11,0,.22.05.3.13l13.07,14c.07.08.11.18.11.28v26.64s0,.04,0,.07c0,1.05-.42,2.02-1.17,2.76-.74.73-1.71,1.12-2.74,1.12ZM6.09,6.37v37.18c-.02,1.71,1.35,3.1,3.05,3.12.02,0,.04,0,.06,0h31.6s.02,0,.02,0c1.69,0,3.07-1.37,3.09-3.06,0-.02,0-.04,0-.05v-26.48L31.07,3.33H9.2s-.02,0-.02,0c-1.68,0-3.06,1.36-3.08,3.04Z"/>
      </g>
      <g class="cls-2">
        <path class="cls-3" d="m35.25,17.38h-.01c-1.18,0-2.28-.47-3.11-1.3s-1.28-1.94-1.28-3.12V2.91c0-.17.1-.32.26-.39.16-.06.34-.02.45.1l13.07,14.05c.11.12.14.3.08.45-.07.15-.21.25-.38.25h-8.84c-.08,0-.16,0-.24,0Zm-3.57-13.41v9c0,.96.37,1.86,1.04,2.53s1.57,1.05,2.52,1.06c.07,0,.14,0,.22,0,0,0,.02,0,.02,0h7.9L31.67,3.97Z"/>
      </g>
      <path class="cls-3" d="m15.5,40.09h-2.07c-.41,0-.75-.33-.75-.75h0v-6.8c0-.41.33-.75.75-.75h2.07c2.29,0,4.14,1.85,4.14,4.14s-1.85,4.14-4.14,4.14h0Zm0-7.36h-1.8v6.45h1.8c1.68.08,3.1-1.22,3.18-2.9,0-.11,0-.21,0-.32.12-1.67-1.14-3.11-2.8-3.23-.13,0-.25,0-.38,0Zm9.95,7.52c-2.23.06-4.09-1.71-4.15-3.94,0-.12,0-.23,0-.35-.26-2.27,1.36-4.33,3.64-4.59s4.33,1.36,4.59,3.64c.04.32.04.64,0,.95.13,2.23-1.58,4.15-3.81,4.28-.09,0-.18,0-.28,0h0Zm0-7.65c-1.86,0-3.04,1.43-3.04,3.37s1.18,3.37,3.04,3.37,3.04-1.44,3.04-3.37-1.19-3.36-3.04-3.36h0Zm12.73.26c.09.1.14.23.14.36,0,.27-.21.49-.48.5,0,0,0,0,0,0-.14,0-.27-.06-.35-.17-.52-.6-1.28-.94-2.07-.95-1.76-.01-3.19,1.41-3.2,3.16,0,.07,0,.14,0,.21-.1,1.76,1.26,3.27,3.02,3.36.06,0,.12,0,.18,0,.79,0,1.55-.35,2.07-.95.09-.1.22-.16.35-.17.27,0,.49.24.48.51,0,0,0,0,0,0,0,.13-.05.26-.14.35-.71.76-1.72,1.19-2.76,1.17-2.37-.1-4.21-2.09-4.12-4.46.09-2.24,1.88-4.03,4.12-4.12,1.05-.02,2.06.41,2.76,1.19Z"/>
    </g>
  </g>
  <g id="guias">
    <g>
      <rect class="cls-1" x="47.5" y="47.5" width="2.5" height="2.5"/>
      <rect class="cls-1" x="47.5" width="2.5" height="2.5"/>
      <rect class="cls-1" y="47.5" width="2.5" height="2.5"/>
      <rect class="cls-1" width="2.5" height="2.5"/>
    </g>
  </g>
</svg>