<?xml version="1.0" encoding="UTF-8"?>
<svg xmlns="http://www.w3.org/2000/svg" viewBox="0 0 50 50">
  <defs>
    <style>
      .cls-1 {
        fill: #2e3135;
        stroke-width: 0px;
      }

      .cls-2 {
        fill: none;
        stroke: #000;
        stroke-miterlimit: 10;
        stroke-width: .21px;
      }
    </style>
  </defs>
  <g id="iconos">
    <g>
      <path class="cls-1" d="m23.74,47.5h-7.95c-9.19,0-13.29-4.1-13.29-13.29v-7.96c0-9.19,4.1-13.29,13.29-13.29h6.28c.87,0,1.57.7,1.57,1.57s-.7,1.57-1.57,1.57h-6.28c-7.5,0-10.15,2.66-10.15,10.15v7.96c0,7.49,2.66,10.15,10.15,10.15h7.95c7.5,0,10.15-2.66,10.15-10.15v-6.28c0-.87.7-1.57,1.57-1.57s1.57.7,1.57,1.57v6.28c0,9.19-4.1,13.29-13.29,13.29Z"/>
      <path class="cls-1" d="m35.47,29.5h-6.7c-5.87,0-8.27-2.4-8.27-8.27v-6.7c0-.64.38-1.21.97-1.45.59-.24,1.26-.11,1.71.34l13.4,13.4c.45.45.58,1.12.34,1.71s-.82.97-1.45.97Zm-11.83-11.18v2.91c0,4.17.96,5.13,5.13,5.13h2.91l-8.04-8.04Z"/>
      <path class="cls-1" d="m32.54,5.64h-8.37c-.87,0-1.57-.7-1.57-1.57s.7-1.57,1.57-1.57h8.37c.87,0,1.57.7,1.57,1.57s-.7,1.57-1.57,1.57Z"/>
      <path class="cls-1" d="m14.53,11.92c-.87,0-1.57-.7-1.57-1.57,0-4.33,3.52-7.85,7.85-7.85h5.48c.87,0,1.57.7,1.57,1.57s-.7,1.57-1.57,1.57h-5.48c-2.6,0-4.71,2.11-4.71,4.71,0,.87-.7,1.57-1.57,1.57Z"/>
      <path class="cls-1" d="m40.05,37.03c-.87,0-1.57-.7-1.57-1.57s.7-1.57,1.57-1.57c2.38,0,4.31-1.93,4.31-4.31v-12.96c0-.87.7-1.57,1.57-1.57s1.57.7,1.57,1.57v12.96c0,4.11-3.34,7.45-7.45,7.45Z"/>
      <path class="cls-1" d="m45.93,18.2h-6.28c-5.57,0-7.85-2.27-7.85-7.85v-6.28c0-.64.38-1.21.97-1.45.59-.24,1.26-.11,1.71.34l12.56,12.56c.45.45.58,1.12.34,1.71s-.82.97-1.45.97Zm-10.99-10.34v2.49c0,3.83.88,4.71,4.71,4.71h2.49l-7.2-7.2Z"/>
    </g>
  </g>
  <g id="guias">
    <rect class="cls-2" x="47.5" y="47.5" width="2.5" height="2.5"/>
    <rect class="cls-2" x="47.5" width="2.5" height="2.5"/>
    <rect class="cls-2" y="47.5" width="2.5" height="2.5"/>
    <rect class="cls-2" width="2.5" height="2.5"/>
  </g>
</svg>