<?xml version="1.0" encoding="UTF-8"?>
<svg xmlns="http://www.w3.org/2000/svg" viewBox="0 0 50 50">
  <defs>
    <style>
      .cls-1 {
        fill: #2e3135;
        stroke-width: 0px;
      }

      .cls-2 {
        fill: none;
        stroke: #000;
        stroke-miterlimit: 10;
        stroke-width: .21px;
      }
    </style>
  </defs>
  <g id="iconos">
    <g>
      <path class="cls-1" d="m18.72,47.5c-11.37,0-16.22-4.85-16.22-16.22v-12.56C2.5,7.35,7.35,2.5,18.72,2.5h10.47c.87,0,1.57.7,1.57,1.57s-.7,1.57-1.57,1.57h-10.47c-9.66,0-13.08,3.42-13.08,13.08v12.56c0,9.66,3.42,13.08,13.08,13.08.87,0,1.57.7,1.57,1.57s-.7,1.57-1.57,1.57Z"/>
      <path class="cls-1" d="m45.93,28.66c-.87,0-1.57-.7-1.57-1.57v-6.28c0-.87.7-1.57,1.57-1.57s1.57.7,1.57,1.57v6.28c0,.87-.7,1.57-1.57,1.57Z"/>
      <path class="cls-1" d="m45.93,22.38h-8.37c-7.15,0-9.94-2.79-9.94-9.94V4.07c0-.64.38-1.21.97-1.45.59-.24,1.26-.11,1.71.34l16.74,16.74c.45.45.58,1.12.34,1.71-.24.59-.82.97-1.45.97Zm-15.17-14.52v4.58c0,5.4,1.4,6.8,6.8,6.8h4.58l-11.38-11.38Z"/>
      <path class="cls-1" d="m40.32,47.5h-11.64c-3.49-.25-5.26-2.95-5.26-5.48,0-2.05,1.15-4.2,3.36-5.08-.46-2.61.22-5.04,1.96-6.86,2.14-2.24,5.57-3.14,8.54-2.22,2.59.8,4.46,2.84,5.23,5.68,2.2.66,3.93,2.4,4.65,4.74.84,2.74.07,5.56-2,7.37-1.27,1.17-3.05,1.85-4.84,1.85Zm-11.72-7.81c-1.5.2-2.04,1.36-2.04,2.33s.58,2.23,2.23,2.35h11.52c1.02,0,2.02-.39,2.75-1.06,1.37-1.2,1.46-2.91,1.09-4.11-.37-1.2-1.39-2.56-3.16-2.78-.69-.09-1.24-.62-1.36-1.3-.47-2.83-2.05-3.88-3.29-4.26-1.82-.56-4.02.01-5.34,1.39-.91.95-1.78,2.64-.81,5.35.29.82-.13,1.71-.95,2.01-.22.08-.44.1-.65.09Z"/>
    </g>
  </g>
  <g id="guias">
    <rect class="cls-2" x="47.5" y="47.5" width="2.5" height="2.5"/>
    <rect class="cls-2" x="47.5" width="2.5" height="2.5"/>
    <rect class="cls-2" y="47.5" width="2.5" height="2.5"/>
    <rect class="cls-2" width="2.5" height="2.5"/>
  </g>
</svg>