<?xml version="1.0" encoding="UTF-8"?>
<svg xmlns="http://www.w3.org/2000/svg" viewBox="0 0 50 50">
  <defs>
    <style>
      .cls-1 {
        fill: #2e3135;
        stroke-width: 0px;
      }

      .cls-2 {
        fill: none;
        stroke: #000;
        stroke-miterlimit: 10;
        stroke-width: .21px;
      }
    </style>
  </defs>
  <g id="iconos">
    <g>
      <path class="cls-1" d="m33.37,2.5h-16.74c-7.65,0-12.03,4.39-12.03,12.03v20.93c0,7.65,4.39,12.03,12.03,12.03h16.74c7.65,0,12.03-4.39,12.03-12.03V14.53c0-7.65-4.39-12.03-12.03-12.03Zm8.9,32.97c0,5.98-2.91,8.9-8.9,8.9h-16.74c-5.98,0-8.9-2.91-8.9-8.9V14.53c0-5.98,2.91-8.9,8.9-8.9h16.74c5.98,0,8.9,2.91,8.9,8.9v20.93Z"/>
      <path class="cls-1" d="m38.6,16.1h-4.19c-1.44,0-2.62-1.17-2.62-2.62v-4.19c0-.87-.7-1.57-1.57-1.57s-1.57.7-1.57,1.57v4.19c0,3.17,2.58,5.76,5.76,5.76h4.19c.87,0,1.57-.7,1.57-1.57s-.7-1.57-1.57-1.57Z"/>
      <path class="cls-1" d="m25.34,25.27c-1.39-.45-2.85-.26-3.98.45-1.14-.7-2.57-.89-3.94-.45-3.23,1.05-4.27,4.72-3.38,7.52t0,0c1.29,3.99,5.5,6.24,7.33,6.28,1.61,0,6.06-2.14,7.36-6.3.87-2.8-.19-6.46-3.41-7.5Zm.41,6.57c-.81,2.58-3.74,4.02-4.3,4.09-.54-.06-3.53-1.39-4.41-4.1-.44-1.37,0-3.13,1.35-3.57.54-.17,1.3-.09,1.72.5.3.41.77.66,1.28.66h.03c.52-.01,1-.28,1.28-.72.34-.53,1.12-.63,1.67-.45,1.35.44,1.8,2.21,1.37,3.58Z"/>
    </g>
  </g>
  <g id="guias">
    <rect class="cls-2" x="47.5" y="47.5" width="2.5" height="2.5"/>
    <rect class="cls-2" x="47.5" width="2.5" height="2.5"/>
    <rect class="cls-2" y="47.5" width="2.5" height="2.5"/>
    <rect class="cls-2" width="2.5" height="2.5"/>
  </g>
</svg>