<?xml version="1.0" encoding="UTF-8"?>
<svg xmlns="http://www.w3.org/2000/svg" viewBox="0 0 50 50">
  <defs>
    <style>
      .cls-1 {
        fill: #2e3135;
        stroke-width: 0px;
      }

      .cls-2 {
        fill: none;
        stroke: #000;
        stroke-miterlimit: 10;
        stroke-width: .21px;
      }
    </style>
  </defs>
  <g id="iconos">
    <g>
      <path class="cls-1" d="m31.28,47.5h-12.56c-11.37,0-16.22-4.85-16.22-16.22v-12.56C2.5,7.35,7.35,2.5,18.72,2.5h10.47c.87,0,1.57.7,1.57,1.57s-.7,1.57-1.57,1.57h-10.47c-9.66,0-13.08,3.42-13.08,13.08v12.56c0,9.66,3.42,13.08,13.08,13.08h12.56c9.66,0,13.08-3.42,13.08-13.08v-10.47c0-.87.7-1.57,1.57-1.57s1.57.7,1.57,1.57v10.47c0,11.37-4.85,16.22-16.22,16.22Z"/>
      <path class="cls-1" d="m45.93,22.38h-8.37c-7.15,0-9.94-2.79-9.94-9.94V4.07c0-.64.38-1.21.97-1.45.59-.24,1.26-.11,1.71.34l16.74,16.74c.45.45.58,1.12.34,1.71s-.82.97-1.45.97Zm-15.17-14.52v4.58c0,5.4,1.4,6.8,6.8,6.8h4.58l-11.38-11.38Z"/>
      <path class="cls-1" d="m20.06,39.05c-.89,0-1.77-.34-2.45-1.01l-5.15-5.15c-1.13-1.13-1.32-3.05-.42-4.37l2.36-3.55c.67-.93,1.85-1.54,2.9-1.54h5.55c1.1,0,2.32.66,2.9,1.57l2.35,3.53c.89,1.31.7,3.23-.43,4.36l-5.15,5.15c-.68.67-1.56,1.01-2.45,1.01Zm-2.74-12.48c-.1.02-.29.12-.35.2l-2.32,3.5c-.07.1-.04.33.03.41l5.15,5.15c.12.12.34.12.46,0l5.15-5.15c.08-.08.1-.31.04-.4l-2.37-3.57s-.2-.13-.28-.14h-5.51Z"/>
    </g>
  </g>
  <g id="guias">
    <rect class="cls-2" x="47.5" y="47.5" width="2.5" height="2.5"/>
    <rect class="cls-2" x="47.5" width="2.5" height="2.5"/>
    <rect class="cls-2" y="47.5" width="2.5" height="2.5"/>
    <rect class="cls-2" width="2.5" height="2.5"/>
  </g>
</svg>