<?xml version="1.0" encoding="UTF-8"?>
<svg xmlns="http://www.w3.org/2000/svg" viewBox="0 0 50 50">
  <defs>
    <style>
      .cls-1 {
        fill: #2e3135;
        stroke-width: 0px;
      }

      .cls-2 {
        fill: none;
        stroke: #000;
        stroke-miterlimit: 10;
        stroke-width: .21px;
      }
    </style>
  </defs>
  <g id="iconos">
    <g>
      <path class="cls-1" d="m31.28,47.5h-12.56c-11.37,0-16.22-4.85-16.22-16.22v-12.56C2.5,7.35,7.35,2.5,18.72,2.5h10.47c.87,0,1.57.7,1.57,1.57s-.7,1.57-1.57,1.57h-10.47c-9.66,0-13.08,3.42-13.08,13.08v12.56c0,9.66,3.42,13.08,13.08,13.08h12.56c9.66,0,13.08-3.42,13.08-13.08v-10.47c0-.87.7-1.57,1.57-1.57s1.57.7,1.57,1.57v10.47c0,11.37-4.85,16.22-16.22,16.22Z"/>
      <path class="cls-1" d="m45.93,22.38h-8.37c-7.15,0-9.94-2.79-9.94-9.94V4.07c0-.64.38-1.21.97-1.45.59-.24,1.26-.11,1.71.34l16.74,16.74c.45.45.58,1.12.34,1.71s-.82.97-1.45.97Zm-15.17-14.52v4.58c0,5.4,1.4,6.8,6.8,6.8h4.58l-11.38-11.38Z"/>
      <path class="cls-1" d="m19.58,39.57c-1.83-.04-6.04-2.28-7.33-6.28,0,0,0,0,0,0-.89-2.79.14-6.46,3.37-7.52,1.38-.44,2.81-.25,3.94.45,1.13-.71,2.58-.91,3.97-.46,3.22,1.04,4.27,4.71,3.41,7.51-1.3,4.15-5.75,6.29-7.36,6.29Zm-4.34-7.24c.88,2.71,3.87,4.04,4.41,4.1.56-.07,3.49-1.51,4.3-4.09.43-1.38-.02-3.15-1.37-3.59-.55-.18-1.33-.08-1.67.45-.28.44-.76.71-1.28.72-.58.01-1.01-.24-1.31-.66-.41-.59-1.18-.67-1.72-.5-1.34.44-1.78,2.2-1.34,3.57Z"/>
    </g>
  </g>
  <g id="guias">
    <rect class="cls-2" x="47.5" y="47.5" width="2.5" height="2.5"/>
    <rect class="cls-2" x="47.5" width="2.5" height="2.5"/>
    <rect class="cls-2" y="47.5" width="2.5" height="2.5"/>
    <rect class="cls-2" width="2.5" height="2.5"/>
  </g>
</svg>