<?xml version="1.0" encoding="UTF-8"?>
<svg xmlns="http://www.w3.org/2000/svg" viewBox="0 0 50 50">
  <defs>
    <style>
      .cls-1 {
        fill: #2e3135;
        stroke-width: 0px;
      }

      .cls-2 {
        fill: none;
        stroke: #000;
        stroke-miterlimit: 10;
        stroke-width: .21px;
      }
    </style>
  </defs>
  <g id="iconos">
    <g>
      <path class="cls-1" d="m31.28,47.5h-12.56c-11.37,0-16.22-4.85-16.22-16.22v-12.56C2.5,7.35,7.35,2.5,18.72,2.5h10.47c.87,0,1.57.7,1.57,1.57s-.7,1.57-1.57,1.57h-10.47c-9.66,0-13.08,3.42-13.08,13.08v12.56c0,9.66,3.42,13.08,13.08,13.08h12.56c9.66,0,13.08-3.42,13.08-13.08v-10.47c0-.87.7-1.57,1.57-1.57s1.57.7,1.57,1.57v10.47c0,11.37-4.85,16.22-16.22,16.22Z"/>
      <path class="cls-1" d="m45.93,22.38h-8.37c-7.15,0-9.94-2.79-9.94-9.94V4.07c0-.64.38-1.21.97-1.45.59-.24,1.26-.11,1.71.34l16.74,16.74c.45.45.58,1.12.34,1.71s-.82.97-1.45.97Zm-15.17-14.52v4.58c0,5.4,1.4,6.8,6.8,6.8h4.58l-11.38-11.38Z"/>
      <path class="cls-1" d="m27.09,28.66h-12.56c-.87,0-1.57-.7-1.57-1.57s.7-1.57,1.57-1.57h12.56c.87,0,1.57.7,1.57,1.57s-.7,1.57-1.57,1.57Z"/>
      <path class="cls-1" d="m22.91,37.03h-8.37c-.87,0-1.57-.7-1.57-1.57s.7-1.57,1.57-1.57h8.37c.87,0,1.57.7,1.57,1.57s-.7,1.57-1.57,1.57Z"/>
    </g>
  </g>
  <g id="guias">
    <rect class="cls-2" x="47.5" y="47.5" width="2.5" height="2.5"/>
    <rect class="cls-2" x="47.5" width="2.5" height="2.5"/>
    <rect class="cls-2" y="47.5" width="2.5" height="2.5"/>
    <rect class="cls-2" width="2.5" height="2.5"/>
  </g>
</svg>