<?xml version="1.0" encoding="UTF-8"?>
<svg xmlns="http://www.w3.org/2000/svg" viewBox="0 0 50 50">
  <defs>
    <style>
      .cls-1 {
        fill: #2e3135;
        stroke-width: 0px;
      }

      .cls-2 {
        fill: none;
        stroke: #000;
        stroke-miterlimit: 10;
        stroke-width: .21px;
      }
    </style>
  </defs>
  <g id="iconos">
    <g>
      <path class="cls-1" d="m33.37,47.5h-16.74c-7.65,0-12.03-4.39-12.03-12.03V14.53c0-7.65,4.39-12.03,12.03-12.03h16.74c7.65,0,12.03,4.39,12.03,12.03v20.93c0,7.65-4.39,12.03-12.03,12.03ZM16.63,5.64c-5.99,0-8.9,2.91-8.9,8.9v20.93c0,5.98,2.91,8.9,8.9,8.9h16.74c5.99,0,8.9-2.91,8.9-8.9V14.53c0-5.98-2.91-8.9-8.9-8.9h-16.74Z"/>
      <path class="cls-1" d="m38.6,19.24h-4.19c-3.17,0-5.76-2.58-5.76-5.76v-4.19c0-.87.7-1.57,1.57-1.57s1.57.7,1.57,1.57v4.19c0,1.44,1.17,2.62,2.62,2.62h4.19c.87,0,1.57.7,1.57,1.57s-.7,1.57-1.57,1.57Z"/>
      <path class="cls-1" d="m20.81,37.03c-.4,0-.8-.15-1.11-.46l-4.19-4.19c-.61-.61-.61-1.61,0-2.22l4.19-4.19c.61-.61,1.61-.61,2.22,0s.61,1.61,0,2.22l-3.08,3.08,3.08,3.08c.61.61.61,1.61,0,2.22-.31.31-.71.46-1.11.46Z"/>
      <path class="cls-1" d="m29.19,37.03c-.4,0-.8-.15-1.11-.46-.61-.61-.61-1.61,0-2.22l3.08-3.08-3.08-3.08c-.61-.61-.61-1.61,0-2.22s1.61-.61,2.22,0l4.19,4.19c.61.61.61,1.61,0,2.22l-4.19,4.19c-.31.31-.71.46-1.11.46Z"/>
    </g>
  </g>
  <g id="guias">
    <g>
      <rect class="cls-2" x="47.5" y="47.5" width="2.5" height="2.5"/>
      <rect class="cls-2" x="47.5" width="2.5" height="2.5"/>
      <rect class="cls-2" y="47.5" width="2.5" height="2.5"/>
      <rect class="cls-2" width="2.5" height="2.5"/>
    </g>
  </g>
</svg>