<?xml version="1.0" encoding="UTF-8"?>
<svg xmlns="http://www.w3.org/2000/svg" viewBox="0 0 50 50">
  <defs>
    <style>
      .cls-1 {
        fill: #2e3135;
        stroke-width: 0px;
      }

      .cls-2 {
        fill: none;
        stroke: #000;
        stroke-miterlimit: 10;
        stroke-width: .21px;
      }
    </style>
  </defs>
  <g id="iconos">
    <g>
      <path class="cls-1" d="m14.73,33.58c-.76,0-1.51-.19-2.2-.58-1.41-.79-2.25-2.21-2.25-3.82v-7.47c0-.54-.37-1.47-.79-1.99l-5.27-5.55c-.98-.97-1.71-2.63-1.71-3.91v-3.24c-.01-1.22.44-2.37,1.29-3.23.82-.83,1.92-1.29,3.08-1.29h18.63c2.42,0,4.39,1.97,4.39,4.4v3.1c0,1.6-.93,3.39-1.85,4.34l-6.16,5.44c-.47.4-.87,1.36-.87,2.07v6.07c0,1.42-.87,3.03-2.02,3.74l-1.94,1.26c-.73.45-1.54.67-2.35.67ZM6.89,5.64c-.32,0-.62.13-.85.36-.25.26-.39.61-.38,1.01v3.26c0,.36.34,1.24.82,1.72l5.39,5.68c.8.99,1.56,2.61,1.56,4.05v7.47c0,.63.4.94.64,1.08.33.19.86.28,1.34,0l1.94-1.25c.24-.15.56-.75.56-1.09v-6.07c0-1.64.81-3.46,1.96-4.44l6.05-5.34c.36-.38.87-1.4.87-2.07v-3.1c0-.68-.57-1.26-1.25-1.26H6.89Z"/>
      <path class="cls-1" d="m31.28,47.5h-12.56c-11.37,0-16.22-4.85-16.22-16.22v-6.28c0-.87.7-1.57,1.57-1.57s1.57.7,1.57,1.57v6.28c0,9.66,3.42,13.08,13.08,13.08h12.56c9.66,0,13.08-3.42,13.08-13.08v-12.56c0-6.08-1.42-9.6-4.62-11.4-.34-.19-1.45-.68-4.63-1.2-.85-.14-1.44-.94-1.3-1.8s.94-1.45,1.8-1.3c2.75.44,4.6.96,5.67,1.57,4.24,2.39,6.21,6.88,6.21,14.13v12.56c0,11.37-4.85,16.22-16.22,16.22Z"/>
      <path class="cls-1" d="m37.56,28.66h-10.47c-.87,0-1.57-.7-1.57-1.57s.7-1.57,1.57-1.57h10.47c.87,0,1.57.7,1.57,1.57s-.7,1.57-1.57,1.57Z"/>
      <path class="cls-1" d="m37.56,37.03h-14.65c-.87,0-1.57-.7-1.57-1.57s.7-1.57,1.57-1.57h14.65c.87,0,1.57.7,1.57,1.57s-.7,1.57-1.57,1.57Z"/>
    </g>
  </g>
  <g id="guias">
    <rect class="cls-2" x="47.5" y="47.5" width="2.5" height="2.5"/>
    <rect class="cls-2" x="47.5" width="2.5" height="2.5"/>
    <rect class="cls-2" y="47.5" width="2.5" height="2.5"/>
    <rect class="cls-2" width="2.5" height="2.5"/>
  </g>
</svg>