<?xml version="1.0" encoding="UTF-8"?>
<svg xmlns="http://www.w3.org/2000/svg" viewBox="0 0 50 50">
  <defs>
    <style>
      .cls-1 {
        fill: none;
        stroke: #000;
        stroke-miterlimit: 10;
        stroke-width: .21px;
      }

      .cls-2 {
        fill: #1e1f22;
        stroke-width: 0px;
      }
    </style>
  </defs>
  <g id="iconos">
    <g>
      <g>
        <g>
          <path class="cls-2" d="m25,34.57c-1.2,0-1.92-.89-1.95-.92-.17-.21-.13-.53.08-.69.21-.17.52-.13.69.08.02.02.46.55,1.17.55.29,0,.52-.09.69-.26.18-.18.27-.45.27-.73,0-.36-.14-.83-1.07-1.24-.09-.04-.19-.08-.3-.11-.62-.23-1.65-.61-1.65-1.98,0-.57.21-1.08.58-1.46s.88-.57,1.43-.57h0c1.08,0,1.88.67,1.92.7.21.18.23.49.06.7-.17.2-.49.23-.69.06-.02-.01-.58-.47-1.28-.47h0c-.3,0-.55.1-.74.28-.19.19-.29.45-.29.75,0,.65.36.81,1,1.05.12.04.24.09.35.14,1.08.47,1.63,1.18,1.66,2.12.01.55-.19,1.07-.55,1.44-.36.37-.84.56-1.4.56Z"/>
          <path class="cls-2" d="m25,28.23h0c-.27,0-.49-.22-.49-.49v-1.11c0-.27.22-.49.5-.49h0c.27,0,.49.22.49.49v1.11c0,.27-.22.49-.5.49Z"/>
          <path class="cls-2" d="m25,35.6c-.27,0-.49-.22-.49-.49v-1.03c0-.27.22-.49.49-.49s.49.22.49.49v1.03c0,.27-.22.49-.49.49Z"/>
        </g>
        <path class="cls-2" d="m25,38.87c-4.41,0-8-3.59-8-8s3.59-8,8-8,8,3.59,8,8-3.59,8-8,8Zm0-15.02c-3.87,0-7.02,3.15-7.02,7.02s3.15,7.01,7.02,7.01,7.01-3.15,7.01-7.01-3.15-7.02-7.01-7.02Z"/>
      </g>
      <g>
        <path class="cls-2" d="m41.26,47.5H8.74c-.27,0-.49-.22-.49-.49V12.56c0-.27.22-.49.49-.49h32.53c.27,0,.49.22.49.49v34.44c0,.27-.22.49-.49.49Zm-32.03-.99h31.54V13.06H9.23v33.46Z"/>
        <path class="cls-2" d="m31.7,17.84c-.27,0-.49-.22-.49-.49v-8.61c0-3.24-3.22-5.25-6.2-5.25s-6.2,2.01-6.2,5.25v8.61c0,.27-.22.49-.49.49s-.49-.22-.49-.49v-8.61c0-3.85,3.73-6.23,7.19-6.23s7.19,2.38,7.19,6.23v8.61c0,.27-.22.49-.49.49Z"/>
        <path class="cls-2" d="m20.21,17.84h-3.83c-.27,0-.49-.22-.49-.49s.22-.49.49-.49h3.83c.27,0,.49.22.49.49s-.22.49-.49.49Z"/>
        <path class="cls-2" d="m33.61,17.84h-3.83c-.27,0-.49-.22-.49-.49s.22-.49.49-.49h3.83c.27,0,.49.22.49.49s-.22.49-.49.49Z"/>
      </g>
    </g>
  </g>
  <g id="guias">
    <g>
      <rect class="cls-1" x="47.5" y="47.5" width="2.5" height="2.5"/>
      <rect class="cls-1" x="47.5" width="2.5" height="2.5"/>
      <rect class="cls-1" y="47.5" width="2.5" height="2.5"/>
      <rect class="cls-1" width="2.5" height="2.5"/>
    </g>
  </g>
</svg>