<?xml version="1.0" encoding="UTF-8"?>
<svg xmlns="http://www.w3.org/2000/svg" viewBox="0 0 50 50">
  <defs>
    <style>
      .cls-1 {
        fill: #2e3135;
        stroke-width: 0px;
      }

      .cls-2 {
        fill: none;
        stroke: #000;
        stroke-miterlimit: 10;
        stroke-width: .21px;
      }
    </style>
  </defs>
  <g id="iconos">
    <g>
      <path class="cls-1" d="m33.37,47.5h-16.74c-7.65,0-12.03-4.39-12.03-12.03V14.53c0-7.65,4.39-12.03,12.03-12.03h16.74c7.65,0,12.03,4.39,12.03,12.03v20.93c0,7.65-4.39,12.03-12.03,12.03ZM16.63,5.64c-5.99,0-8.9,2.91-8.9,8.9v20.93c0,5.98,2.91,8.9,8.9,8.9h16.74c5.98,0,8.9-2.91,8.9-8.9V14.53c0-5.98-2.91-8.9-8.9-8.9h-16.74Z"/>
      <path class="cls-1" d="m38.6,19.24h-4.19c-3.17,0-5.76-2.58-5.76-5.76v-4.19c0-.87.7-1.57,1.57-1.57s1.57.7,1.57,1.57v4.19c0,1.44,1.17,2.62,2.62,2.62h4.19c.87,0,1.57.7,1.57,1.57s-.7,1.57-1.57,1.57Z"/>
      <path class="cls-1" d="m25,28.66h-8.37c-.87,0-1.57-.7-1.57-1.57s.7-1.57,1.57-1.57h8.37c.87,0,1.57.7,1.57,1.57s-.7,1.57-1.57,1.57Z"/>
      <path class="cls-1" d="m33.37,37.03h-16.74c-.87,0-1.57-.7-1.57-1.57s.7-1.57,1.57-1.57h16.74c.87,0,1.57.7,1.57,1.57s-.7,1.57-1.57,1.57Z"/>
    </g>
  </g>
  <g id="guias">
    <rect class="cls-2" x="47.5" y="47.5" width="2.5" height="2.5"/>
    <rect class="cls-2" x="47.5" width="2.5" height="2.5"/>
    <rect class="cls-2" y="47.5" width="2.5" height="2.5"/>
    <rect class="cls-2" width="2.5" height="2.5"/>
  </g>
</svg>