<?xml version="1.0" encoding="UTF-8"?>
<svg xmlns="http://www.w3.org/2000/svg" viewBox="0 0 50 50">
  <defs>
    <style>
      .cls-1 {
        fill: #2e3135;
        stroke-width: 0px;
      }

      .cls-2 {
        fill: none;
        stroke: #000;
        stroke-miterlimit: 10;
        stroke-width: .21px;
      }
    </style>
  </defs>
  <g id="iconos">
    <g>
      <path class="cls-1" d="m27.94,36.32h-5.26c-3.43,0-6.22-2.89-6.22-6.45,0-.87.7-1.57,1.57-1.57s1.57.7,1.57,1.57c0,1.82,1.38,3.31,3.08,3.31h5.26c1.37,0,2.49-1.2,2.49-2.68,0-1.76-.55-2.15-1.72-2.56l-8.43-2.93c-1.78-.63-3.82-1.83-3.82-5.52,0-3.21,2.53-5.82,5.63-5.82h5.25c3.43,0,6.22,2.89,6.22,6.45,0,.87-.7,1.57-1.57,1.57s-1.57-.7-1.57-1.57c0-1.82-1.38-3.31-3.08-3.31h-5.25c-1.37,0-2.49,1.2-2.49,2.68,0,1.76.55,2.14,1.72,2.56l8.42,2.93c1.78.63,3.82,1.82,3.82,5.52,0,3.21-2.52,5.82-5.63,5.82Z"/>
      <path class="cls-1" d="m25,39.13c-.87,0-1.57-.7-1.57-1.57V12.44c0-.87.7-1.57,1.57-1.57s1.57.7,1.57,1.57v25.12c0,.87-.7,1.57-1.57,1.57Z"/>
      <path class="cls-1" d="m25,47.5c-12.41,0-22.5-10.09-22.5-22.5S12.59,2.5,25,2.5s22.5,10.09,22.5,22.5-10.09,22.5-22.5,22.5Zm0-41.86C14.32,5.64,5.64,14.32,5.64,25s8.68,19.36,19.36,19.36,19.36-8.68,19.36-19.36S35.68,5.64,25,5.64Z"/>
    </g>
  </g>
  <g id="guias">
    <rect class="cls-2" x="47.5" y="47.5" width="2.5" height="2.5"/>
    <rect class="cls-2" x="47.5" width="2.5" height="2.5"/>
    <rect class="cls-2" y="47.5" width="2.5" height="2.5"/>
    <rect class="cls-2" width="2.5" height="2.5"/>
  </g>
</svg>