<?xml version="1.0" encoding="UTF-8"?>
<svg xmlns="http://www.w3.org/2000/svg" viewBox="0 0 50 50">
  <defs>
    <style>
      .cls-1 {
        fill: #2e3135;
        stroke-width: 0px;
      }

      .cls-2 {
        fill: none;
        stroke: #000;
        stroke-miterlimit: 10;
        stroke-width: .21px;
      }
    </style>
  </defs>
  <g id="iconos">
    <g>
      <path class="cls-1" d="m14.25,25.59c-.88,0-1.76-.04-2.64-.12l-6.64-.61c-.86-.08-1.5-.84-1.42-1.71.08-.86.85-1.5,1.71-1.42l6.63.61c10.28.93,20.23-4.26,25.35-13.22.43-.75,1.39-1.02,2.14-.58.75.43,1.01,1.39.58,2.14-5.28,9.25-15.18,14.91-25.72,14.91Z"/>
      <path class="cls-1" d="m11.39,42c-.26,0-.53-.07-.78-.21-.75-.43-1.01-1.39-.58-2.14,5.73-10.02,16.83-15.83,28.36-14.79l6.64.61c.86.08,1.5.84,1.42,1.71-.08.86-.86,1.5-1.71,1.42l-6.63-.61c-10.3-.94-20.23,4.27-25.35,13.22-.29.51-.82.79-1.37.79Z"/>
      <path class="cls-1" d="m25,47.5c-12.41,0-22.5-10.09-22.5-22.5S12.59,2.5,25,2.5s22.5,10.09,22.5,22.5-10.09,22.5-22.5,22.5Zm0-41.86C14.32,5.64,5.64,14.32,5.64,25s8.68,19.36,19.36,19.36,19.36-8.68,19.36-19.36S35.68,5.64,25,5.64Z"/>
      <path class="cls-1" d="m34.33,45.28c-.71,0-1.35-.48-1.52-1.2l-2.53-10.44c-1.64-6.73-4.66-12.86-8.99-18.22l-6.66-8.27c-.54-.68-.44-1.66.24-2.21.67-.54,1.67-.44,2.21.24l6.66,8.27c4.62,5.73,7.85,12.27,9.6,19.45l2.53,10.44c.2.84-.31,1.69-1.15,1.89-.12.03-.25.04-.37.04Z"/>
    </g>
  </g>
  <g id="guias">
    <rect class="cls-2" x="47.5" y="47.5" width="2.5" height="2.5"/>
    <rect class="cls-2" x="47.5" width="2.5" height="2.5"/>
    <rect class="cls-2" y="47.5" width="2.5" height="2.5"/>
    <rect class="cls-2" width="2.5" height="2.5"/>
  </g>
</svg>