<?xml version="1.0" encoding="UTF-8"?>
<svg xmlns="http://www.w3.org/2000/svg" viewBox="0 0 50 50">
  <defs>
    <style>
      .cls-1 {
        fill: #2e3135;
        stroke-width: 0px;
      }

      .cls-2 {
        fill: none;
        stroke: #000;
        stroke-miterlimit: 10;
        stroke-width: .21px;
      }
    </style>
  </defs>
  <g id="iconos">
    <g>
      <path class="cls-1" d="m12.44,18.72c-.87,0-1.57-.7-1.57-1.57v-4.19c0-.87.7-1.57,1.57-1.57s1.57.7,1.57,1.57v4.19c0,.87-.7,1.57-1.57,1.57Z"/>
      <path class="cls-1" d="m25,47.5h-6.28c-11.37,0-16.22-4.85-16.22-16.22v-12.56C2.5,7.35,7.35,2.5,18.72,2.5h12.56c11.37,0,16.22,4.85,16.22,16.22v6.28c0,.87-.7,1.57-1.57,1.57s-1.57-.7-1.57-1.57v-6.28c0-9.66-3.42-13.08-13.08-13.08h-12.56c-9.66,0-13.08,3.42-13.08,13.08v12.56c0,9.66,3.42,13.08,13.08,13.08h6.28c.87,0,1.57.7,1.57,1.57s-.7,1.57-1.57,1.57Z"/>
      <path class="cls-1" d="m20.81,18.72c-.87,0-1.57-.7-1.57-1.57v-4.19c0-.87.7-1.57,1.57-1.57s1.57.7,1.57,1.57v4.19c0,.87-.7,1.57-1.57,1.57Z"/>
      <path class="cls-1" d="m12.44,39.13c-.87,0-1.57-.7-1.57-1.57v-4.19c0-.87.7-1.57,1.57-1.57s1.57.7,1.57,1.57v4.19c0,.87-.7,1.57-1.57,1.57Z"/>
      <path class="cls-1" d="m20.81,39.13c-.87,0-1.57-.7-1.57-1.57v-4.19c0-.87.7-1.57,1.57-1.57s1.57.7,1.57,1.57v4.19c0,.87-.7,1.57-1.57,1.57Z"/>
      <path class="cls-1" d="m37.56,16.63h-8.37c-.87,0-1.57-.7-1.57-1.57s.7-1.57,1.57-1.57h8.37c.87,0,1.57.7,1.57,1.57s-.7,1.57-1.57,1.57Z"/>
      <path class="cls-1" d="m45.93,26.57H4.07c-.87,0-1.57-.7-1.57-1.57s.7-1.57,1.57-1.57h41.86c.87,0,1.57.7,1.57,1.57s-.7,1.57-1.57,1.57Z"/>
      <path class="cls-1" d="m33.08,47.5c-.87,0-1.57-.7-1.57-1.57v-3.9c0-.86.71-1.56,1.57-1.56h4.19c.87,0,1.57.7,1.57,1.57s-.7,1.57-1.57,1.57h-.39c.65.38,1.41.65,2.25.65,1.86,0,3.59-1,4.52-2.61.43-.75,1.39-1.01,2.14-.57.75.43,1.01,1.39.57,2.14-1.48,2.58-4.26,4.18-7.24,4.18-1.8,0-3.3-.67-4.48-1.49v.02c0,.87-.7,1.57-1.57,1.57Zm12.85-9.92c-.09,0-.18,0-.27-.02h-3.92c-.87,0-1.57-.7-1.57-1.57s.7-1.57,1.57-1.57h.08c-.75-.36-1.64-.61-2.69-.61-1.9,0-3.6.98-4.54,2.62-.43.75-1.39,1.01-2.14.58-.75-.43-1.01-1.39-.58-2.14,1.48-2.59,4.27-4.2,7.27-4.2,2.19,0,3.93.72,5.23,1.59v-.46c0-.87.7-1.57,1.57-1.57s1.57.7,1.57,1.57v4.18c.01.54-.26,1.08-.76,1.38-.25.15-.53.22-.81.22Z"/>
    </g>
  </g>
  <g id="guias">
    <rect class="cls-2" x="47.5" y="47.5" width="2.5" height="2.5"/>
    <rect class="cls-2" x="47.5" width="2.5" height="2.5"/>
    <rect class="cls-2" y="47.5" width="2.5" height="2.5"/>
    <rect class="cls-2" width="2.5" height="2.5"/>
  </g>
</svg>