<?xml version="1.0" encoding="UTF-8"?>
<svg xmlns="http://www.w3.org/2000/svg" viewBox="0 0 50 50">
  <defs>
    <style>
      .cls-1 {
        fill: #2e3135;
        stroke-width: 0px;
      }

      .cls-2 {
        fill: none;
        stroke: #000;
        stroke-miterlimit: 10;
        stroke-width: .21px;
      }
    </style>
  </defs>
  <g id="iconos">
    <g>
      <path class="cls-1" d="m40.32,22.37H9.68c-3.96,0-7.18-3.22-7.18-7.18v-5.51c0-3.96,3.22-7.18,7.18-7.18h30.63c3.96,0,7.18,3.22,7.18,7.18v5.51c0,3.96-3.22,7.18-7.18,7.18ZM9.68,5.64c-2.23,0-4.04,1.81-4.04,4.04v5.51c0,2.23,1.81,4.04,4.04,4.04h30.63c2.23,0,4.04-1.81,4.04-4.04v-5.51c0-2.23-1.81-4.04-4.04-4.04H9.68Z"/>
      <path class="cls-1" d="m40.32,47.5H9.68c-3.96,0-7.18-3.22-7.18-7.18v-5.51c0-3.96,3.22-7.18,7.18-7.18h30.63c3.96,0,7.18,3.22,7.18,7.18v5.51c0,3.96-3.22,7.18-7.18,7.18ZM9.68,30.77c-2.23,0-4.04,1.81-4.04,4.04v5.51c0,2.23,1.81,4.04,4.04,4.04h30.63c2.23,0,4.04-1.81,4.04-4.04v-5.51c0-2.23-1.81-4.04-4.04-4.04H9.68Z"/>
      <path class="cls-1" d="m12.43,16.09c-.87,0-1.57-.7-1.57-1.57v-4.19c0-.87.7-1.57,1.57-1.57s1.57.7,1.57,1.57v4.19c0,.87-.7,1.57-1.57,1.57Z"/>
      <path class="cls-1" d="m20.8,16.09c-.87,0-1.57-.7-1.57-1.57v-4.19c0-.87.7-1.57,1.57-1.57s1.57.7,1.57,1.57v4.19c0,.87-.7,1.57-1.57,1.57Z"/>
      <path class="cls-1" d="m12.43,41.22c-.87,0-1.57-.7-1.57-1.57v-4.19c0-.87.7-1.57,1.57-1.57s1.57.7,1.57,1.57v4.19c0,.87-.7,1.57-1.57,1.57Z"/>
      <path class="cls-1" d="m20.8,41.22c-.87,0-1.57-.7-1.57-1.57v-4.19c0-.87.7-1.57,1.57-1.57s1.57.7,1.57,1.57v4.19c0,.87-.7,1.57-1.57,1.57Z"/>
      <path class="cls-1" d="m37.55,14h-8.38c-.87,0-1.57-.7-1.57-1.57s.7-1.57,1.57-1.57h8.38c.87,0,1.57.7,1.57,1.57s-.7,1.57-1.57,1.57Z"/>
      <path class="cls-1" d="m37.55,39.12h-8.38c-.87,0-1.57-.7-1.57-1.57s.7-1.57,1.57-1.57h8.38c.87,0,1.57.7,1.57,1.57s-.7,1.57-1.57,1.57Z"/>
    </g>
  </g>
  <g id="guias">
    <g>
      <rect class="cls-2" x="47.5" y="47.5" width="2.5" height="2.5"/>
      <rect class="cls-2" x="47.5" width="2.5" height="2.5"/>
      <rect class="cls-2" y="47.5" width="2.5" height="2.5"/>
      <rect class="cls-2" width="2.5" height="2.5"/>
    </g>
  </g>
</svg>