<?xml version="1.0" encoding="UTF-8"?>
<svg xmlns="http://www.w3.org/2000/svg" viewBox="0 0 50 50">
  <defs>
    <style>
      .cls-1 {
        fill: #2e3135;
        stroke-width: 0px;
      }

      .cls-2 {
        fill: none;
        stroke: #000;
        stroke-miterlimit: 10;
        stroke-width: .21px;
      }
    </style>
  </defs>
  <g id="iconos">
    <g>
      <path class="cls-1" d="m37.14,18.05H12.86c-.47,0-.92-.21-1.22-.58-.3-.37-.41-.85-.32-1.31l1.72-8.2c.56-2.7,1.78-5.46,6.62-5.46h10.67c4.84,0,6.06,2.76,6.62,5.46l1.71,8.2c.1.46-.02.94-.32,1.31-.3.37-.75.58-1.22.58Zm-22.35-3.14h20.41l-1.32-6.31c-.42-2.01-.9-2.96-3.55-2.96h-10.67c-2.65,0-3.13.95-3.55,2.96l-1.32,6.32Z"/>
      <path class="cls-1" d="m37.08,34.73h-2.85c-2.76,0-3.34-1.71-3.64-2.64l-.31-.89q-.35-1.02-1.41-1.02h-7.77c-1.07,0-1.08.04-1.4,1l-.32.92c-.31.92-.9,2.62-3.64,2.62h-2.85c-1.32,0-2.59-.56-3.47-1.52-.86-.95-1.29-2.23-1.17-3.5l.86-9.25c.26-2.89,1.2-5.57,6.19-5.57h19.36c4.99,0,5.92,2.68,6.19,5.57l.86,9.25c.12,1.27-.31,2.55-1.17,3.5-.88.97-2.14,1.52-3.47,1.52Zm-3.32-3.17c.05,0,.2.03.48.03h2.85c.45,0,.85-.18,1.14-.5.28-.3.41-.69.37-1.09h0s-.86-9.25-.86-9.25c-.17-1.87-.25-2.72-3.06-2.72H15.31c-2.81,0-2.89.85-3.06,2.72l-.86,9.25c-.04.4.09.79.37,1.09.29.32.7.5,1.15.5h2.85c.41,0,.54-.06.54-.06-.02,0,.06-.25.12-.42l.32-.93c.38-1.15,1.04-3.13,4.37-3.13h7.77c3.06,0,3.81,1.48,4.37,3.12l.31.91c.06.18.13.4.18.49,0,0,.01,0,.02,0Z"/>
      <path class="cls-1" d="m12.86,13.49h-1.53c-.87,0-1.57-.7-1.57-1.57s.7-1.57,1.57-1.57h1.53c.87,0,1.57.7,1.57,1.57s-.7,1.57-1.57,1.57Z"/>
      <path class="cls-1" d="m38.67,13.49h-1.53c-.87,0-1.57-.7-1.57-1.57s.7-1.57,1.57-1.57h1.53c.87,0,1.57.7,1.57,1.57s-.7,1.57-1.57,1.57Z"/>
      <path class="cls-1" d="m20.44,24.12h-4.54c-.87,0-1.57-.7-1.57-1.57s.7-1.57,1.57-1.57h4.54c.87,0,1.57.7,1.57,1.57s-.7,1.57-1.57,1.57Z"/>
      <path class="cls-1" d="m34.11,24.12h-4.54c-.87,0-1.57-.7-1.57-1.57s.7-1.57,1.57-1.57h4.54c.87,0,1.57.7,1.57,1.57s-.7,1.57-1.57,1.57Z"/>
      <path class="cls-1" d="m25,39.13c-.87,0-1.57-.7-1.57-1.57v-2.09c0-.87.7-1.57,1.57-1.57s1.57.7,1.57,1.57v2.09c0,.87-.7,1.57-1.57,1.57Z"/>
      <path class="cls-1" d="m25,47.5c-.87,0-1.57-.7-1.57-1.57v-2.09c0-.87.7-1.57,1.57-1.57s1.57.7,1.57,1.57v2.09c0,.87-.7,1.57-1.57,1.57Z"/>
      <path class="cls-1" d="m4.07,47.5c-.13,0-.25-.01-.38-.05-.84-.21-1.35-1.06-1.14-1.9l2.09-8.37c.21-.84,1.05-1.36,1.9-1.14.84.21,1.35,1.06,1.14,1.9l-2.09,8.37c-.18.71-.82,1.19-1.52,1.19Z"/>
      <path class="cls-1" d="m45.93,47.5c-.7,0-1.34-.48-1.52-1.19l-2.09-8.37c-.21-.84.3-1.69,1.14-1.9.83-.21,1.69.3,1.9,1.14l2.09,8.37c.21.84-.3,1.69-1.14,1.9-.13.03-.26.05-.38.05Z"/>
    </g>
  </g>
  <g id="guias">
    <rect class="cls-2" x="47.5" y="47.5" width="2.5" height="2.5"/>
    <rect class="cls-2" x="47.5" width="2.5" height="2.5"/>
    <rect class="cls-2" y="47.5" width="2.5" height="2.5"/>
    <rect class="cls-2" width="2.5" height="2.5"/>
  </g>
</svg>