<?xml version="1.0" encoding="UTF-8"?>
<svg xmlns="http://www.w3.org/2000/svg" viewBox="0 0 50 50">
  <defs>
    <style>
      .cls-1 {
        fill: none;
        stroke: #000;
        stroke-miterlimit: 10;
        stroke-width: .21px;
      }

      .cls-2 {
        fill: #1e1f22;
        stroke-width: 0px;
      }
    </style>
  </defs>
  <g id="iconos">
    <g>
      <path class="cls-2" d="m13.24,20.41c-.31,0-.62-.09-.89-.27L3.12,13.84c-.42-.29-.68-.77-.69-1.29s.24-1,.66-1.3L14.85,2.86c.54-.38,1.25-.39,1.8-.02l9.24,6.3c.42.29.68.77.69,1.29s-.24,1-.66,1.3l-11.76,8.4c-.27.19-.59.29-.91.29Zm-6.49-7.9l6.47,4.41,9.02-6.45-6.47-4.41-9.02,6.45Z"/>
      <path class="cls-2" d="m36.76,20.41c-.32,0-.64-.1-.91-.29l-11.76-8.4c-.42-.3-.67-.78-.66-1.3s.26-.99.69-1.29l9.24-6.3c.55-.37,1.27-.36,1.8.02l11.76,8.4c.42.3.67.78.66,1.3s-.26.99-.69,1.29l-9.24,6.3c-.27.18-.58.27-.89.27Zm-9-9.94l9.02,6.45,6.47-4.41-9.02-6.45-6.47,4.41Z"/>
      <path class="cls-2" d="m15.76,37.21c-.32,0-.64-.1-.91-.29L3.09,28.52c-.42-.3-.67-.78-.66-1.3s.26-.99.69-1.29l9.24-6.3c.55-.37,1.27-.36,1.8.02l11.76,8.4c.42.3.67.78.66,1.3s-.26.99-.69,1.29l-9.24,6.3c-.27.18-.58.27-.89.27Zm-9-9.94l9.02,6.45,6.47-4.41-9.02-6.45-6.47,4.41Z"/>
      <path class="cls-2" d="m34.24,37.21c-.31,0-.62-.09-.89-.27l-9.24-6.3c-.42-.29-.68-.77-.69-1.29s.24-1,.66-1.3l11.76-8.4c.54-.38,1.26-.39,1.8-.02l9.24,6.3c.42.29.68.77.69,1.29s-.24,1-.66,1.3l-11.76,8.4c-.27.19-.59.29-.91.29Zm-6.49-7.9l6.47,4.41,9.02-6.45-6.47-4.41-9.02,6.45Z"/>
      <path class="cls-2" d="m24.88,47.43c-.53,0-1.01-.11-1.43-.32l-13.8-6.27c-.56-.25-.92-.82-.92-1.43v-6.93c0-.87.71-1.57,1.57-1.57s1.57.71,1.57,1.57v5.91l12.93,5.88c.06.02.25.03.53-.06l12.78-5.82v-5.91c0-.87.71-1.57,1.57-1.57s1.57.71,1.57,1.57v6.93c0,.62-.36,1.18-.92,1.43l-13.85,6.3c-.57.2-1.12.29-1.61.29Z"/>
    </g>
  </g>
  <g id="guias">
    <g>
      <rect class="cls-1" x="47.5" y="47.5" width="2.5" height="2.5"/>
      <rect class="cls-1" x="47.5" width="2.5" height="2.5"/>
      <rect class="cls-1" y="47.5" width="2.5" height="2.5"/>
      <rect class="cls-1" width="2.5" height="2.5"/>
    </g>
  </g>
</svg>