<?xml version="1.0" encoding="UTF-8"?>
<svg xmlns="http://www.w3.org/2000/svg" viewBox="0 0 50 50">
  <defs>
    <style>
      .cls-1 {
        fill: #2e3135;
        stroke-width: 0px;
      }

      .cls-2 {
        fill: none;
        stroke: #000;
        stroke-miterlimit: 10;
        stroke-width: .21px;
      }
    </style>
  </defs>
  <g id="iconos">
    <g>
      <path class="cls-1" d="m11.37,40.67c-1.28,0-2.47-.44-3.34-1.27-1.11-1.04-1.63-2.6-1.45-4.28l.78-6.84c.18-1.32.96-2.99,1.83-3.92L26.51,6.03h0c4.32-4.56,8.82-4.7,13.39-.4,2.51,2.38,3.7,4.84,3.52,7.32-.14,2.02-1.17,4.02-3.14,6.1l-17.31,18.32c-.84.93-2.49,1.82-3.8,2.05l-6.8,1.16c-.33.06-.67.09-.99.09ZM28.81,8.2L11.49,26.53c-.42.44-.91,1.5-.99,2.14l-.78,6.8c-.08.69.09,1.27.47,1.62.38.36.96.49,1.63.37l6.79-1.16c.62-.11,1.63-.65,2.03-1.09l17.34-18.35c1.45-1.53,2.2-2.89,2.29-4.15.11-1.51-.72-3.08-2.54-4.8-3.8-3.57-6.32-2.47-8.92.28Z"/>
      <path class="cls-1" d="m36.26,22.61c-.05,0-.11,0-.16,0-6.58-.66-11.88-5.68-12.9-12.19-.13-.86.46-1.67,1.32-1.81.87-.12,1.67.46,1.81,1.32.79,5.09,4.94,9.01,10.09,9.53.87.09,1.5.86,1.41,1.73-.08.82-.77,1.42-1.57,1.42Z"/>
      <path class="cls-1" d="m43.98,47.5H6.02c-.87,0-1.58-.71-1.58-1.58s.71-1.58,1.58-1.58h37.96c.87,0,1.58.71,1.58,1.58s-.71,1.58-1.58,1.58Z"/>
    </g>
  </g>
  <g id="guias">
    <rect class="cls-2" x="47.5" y="47.5" width="2.5" height="2.5"/>
    <rect class="cls-2" x="47.5" width="2.5" height="2.5"/>
    <rect class="cls-2" y="47.5" width="2.5" height="2.5"/>
    <rect class="cls-2" width="2.5" height="2.5"/>
  </g>
</svg>