<?xml version="1.0" encoding="UTF-8"?>
<svg xmlns="http://www.w3.org/2000/svg" viewBox="0 0 50 50">
  <defs>
    <style>
      .cls-1 {
        fill: #2e3135;
        stroke-width: 0px;
      }

      .cls-2 {
        fill: none;
        stroke: #000;
        stroke-miterlimit: 10;
        stroke-width: .21px;
      }
    </style>
  </defs>
  <g id="iconos">
    <g>
      <path class="cls-1" d="m30.94,47.5h-12.41c-11.24,0-16.03-4.79-16.03-16.03v-12.41C2.5,7.82,7.29,3.02,18.53,3.02h4.14c.86,0,1.55.69,1.55,1.55s-.69,1.55-1.55,1.55h-4.14c-9.55,0-12.93,3.38-12.93,12.93v12.41c0,9.55,3.38,12.93,12.93,12.93h12.41c9.55,0,12.93-3.38,12.93-12.93v-4.14c0-.86.69-1.55,1.55-1.55s1.55.69,1.55,1.55v4.14c0,11.24-4.79,16.03-16.03,16.03Z"/>
      <path class="cls-1" d="m17.51,37.05c-1.28,0-2.45-.46-3.29-1.31-1-1.01-1.44-2.47-1.21-4.03l.89-6.22c.17-1.21.93-2.73,1.8-3.61L32,5.59h0c4.12-4.12,8.3-4.12,12.41,0,4.12,4.12,4.12,8.29,0,12.41l-16.3,16.3c-.91.88-2.42,1.63-3.61,1.8l-6.23.89c-.26.04-.52.05-.77.05ZM34.19,7.78l-16.3,16.3c-.39.39-.85,1.31-.93,1.85l-.89,6.23c-.09.59.04,1.08.34,1.4.32.32.82.44,1.43.36l6.22-.89c.53-.08,1.46-.55,1.87-.95l16.28-16.28c2.41-2.41,3.33-4.7,0-8.03-3.33-3.33-5.62-2.41-8.03,0h0Z"/>
      <path class="cls-1" d="m40.98,20.79c-.14,0-.28-.02-.42-.06-5.53-1.57-9.75-5.79-11.29-11.29-.23-.82.25-1.68,1.08-1.91.83-.23,1.68.25,1.91,1.08,1.25,4.46,4.67,7.87,9.15,9.15.82.23,1.3,1.09,1.07,1.92-.19.68-.82,1.13-1.49,1.13Z"/>
    </g>
  </g>
  <g id="guias">
    <rect class="cls-2" x="47.5" y="47.5" width="2.5" height="2.5"/>
    <rect class="cls-2" x="47.5" width="2.5" height="2.5"/>
    <rect class="cls-2" y="47.5" width="2.5" height="2.5"/>
    <rect class="cls-2" width="2.5" height="2.5"/>
  </g>
</svg>