<?xml version="1.0" encoding="UTF-8"?>
<svg xmlns="http://www.w3.org/2000/svg" viewBox="0 0 50 50">
  <defs>
    <style>
      .cls-1 {
        fill: none;
        stroke: #000;
        stroke-miterlimit: 10;
        stroke-width: .21px;
      }

      .cls-2 {
        fill: #1e1f22;
        stroke-width: 0px;
      }
    </style>
  </defs>
  <g id="iconos">
    <g>
      <path class="cls-2" d="m25,18.43c-1.03,0-2.05-.36-2.77-1.09l-5.64-5.64c-1.07-1.07-1.42-2.64-.9-4.09.55-1.54,1.9-2.59,3.52-2.75h11.43c1.59,0,2.96.94,3.59,2.45.64,1.53.32,3.25-.82,4.39l-5.64,5.64c-.73.73-1.75,1.09-2.78,1.09Zm-5.63-10.44c-.33.04-.62.38-.73.68-.08.22-.11.54.17.82h0l5.63,5.64c.22.22.9.22,1.13,0l5.63-5.63c.28-.28.25-.69.14-.97-.07-.16-.27-.53-.7-.53h-11.27Z"/>
      <path class="cls-2" d="m30.64,45.14h-11.27c-1.78-.17-3.13-1.23-3.68-2.76-.52-1.45-.17-3.01.9-4.09l5.63-5.64c1.38-1.38,4.18-1.38,5.56,0l5.64,5.64c1.13,1.13,1.45,2.85.82,4.39-.63,1.52-2.01,2.46-3.59,2.46Zm-5.64-10.44c-.22,0-.45.06-.56.17l-5.63,5.64h0c-.28.28-.25.6-.17.82.11.3.4.64.89.69h11.11c.44,0,.64-.38.7-.54.12-.29.14-.69-.14-.97l-5.64-5.64c-.11-.11-.34-.17-.56-.17Zm-7.3,4.7h.02-.02Z"/>
      <path class="cls-2" d="m10.98,36c-.12,0-.23,0-.35-.02-1.1-.11-2.12-.75-2.8-1.77l-4.54-7.21c-1.06-1.19-1.06-2.82,0-4.01l4.51-7.18c.44-.89,1.38-1.59,2.51-1.77,1.17-.18,2.39.21,3.26,1.08l7.31,7.31c1.44,1.44,1.44,3.7,0,5.14l-7.31,7.31c-.73.73-1.65,1.13-2.6,1.13Zm-.08-18.87s-.06,0-.08,0c-.2.03-.27.17-.29.21l-4.67,7.44c-.06.1-.13.19-.22.27-.02.02-.03.04-.03.04.08.08.19.01.25.11l4.59,7.31c.13.19.32.34.48.35.16.03.32-.1.43-.21l7.31-7.31c.22-.22.22-.49,0-.71l-7.31-7.31c-.18-.18-.35-.21-.46-.21Zm-6.36,6.83h.02-.02Z"/>
      <path class="cls-2" d="m39.02,36c-.96,0-1.87-.39-2.6-1.13l-7.31-7.31c-1.44-1.44-1.44-3.7,0-5.14l7.31-7.31c1.02-.83,2.19-1.12,3.34-.91,1.05.19,1.94.78,2.45,1.63l4.5,7.15c1.06,1.19,1.06,2.82,0,4.01l-4.51,7.18c-.7,1.05-1.71,1.69-2.82,1.8-.12.01-.23.02-.35.02Zm.01-18.72c-.2,0-.39.06-.53.17l-7.18,7.19c-.22.23-.22.48,0,.71l7.31,7.31c.1.1.25.23.43.21.16-.02.35-.16.5-.39l4.57-7.27c.06-.1.13-.19.22-.27-.08-.08-.16-.05-.22-.15l-4.59-7.31c-.05-.08-.16-.15-.33-.19-.06-.01-.11-.02-.17-.02Z"/>
    </g>
  </g>
  <g id="guias">
    <rect class="cls-1" x="47.5" y="47.5" width="2.5" height="2.5"/>
    <rect class="cls-1" x="47.5" width="2.5" height="2.5"/>
    <rect class="cls-1" y="47.5" width="2.5" height="2.5"/>
    <rect class="cls-1" width="2.5" height="2.5"/>
  </g>
</svg>