<?xml version="1.0" encoding="UTF-8"?>
<svg xmlns="http://www.w3.org/2000/svg" viewBox="0 0 50 50">
  <defs>
    <style>
      .cls-1 {
        fill: #2e3135;
        stroke-width: 0px;
      }

      .cls-2 {
        fill: none;
        stroke: #000;
        stroke-miterlimit: 10;
        stroke-width: .21px;
      }
    </style>
  </defs>
  <g id="iconos">
    <g>
      <path class="cls-1" d="m28.13,34.94h-6.28c-2.85,0-5.31-.96-7.13-2.79s-2.81-4.37-2.8-7.16v-10.65c0-3.07,2.5-5.57,5.57-5.57h15.01c3.07,0,5.57,2.5,5.57,5.57v10.66c0,5.76-4.18,9.94-9.94,9.94Zm-10.63-23.02c-1.34,0-2.43,1.09-2.43,2.43v10.66c0,1.96.66,3.71,1.88,4.94,1.21,1.22,2.91,1.86,4.9,1.86h6.28c4.7,0,6.8-3.42,6.8-6.8v-10.66c0-1.34-1.09-2.43-2.43-2.43h-15.01Z"/>
      <path class="cls-1" d="m19.76,11.92c-.87,0-1.57-.7-1.57-1.57v-6.28c0-.87.7-1.57,1.57-1.57s1.57.7,1.57,1.57v6.28c0,.87-.7,1.57-1.57,1.57Z"/>
      <path class="cls-1" d="m30.22,11.92c-.87,0-1.57-.7-1.57-1.57v-6.28c0-.87.7-1.57,1.57-1.57s1.57.7,1.57,1.57v6.28c0,.87-.7,1.57-1.57,1.57Z"/>
      <path class="cls-1" d="m24.99,47.5c-.87,0-1.57-.7-1.57-1.57v-12.56c0-.87.7-1.57,1.57-1.57s1.57.7,1.57,1.57v12.56c0,.87-.7,1.57-1.57,1.57Z"/>
    </g>
  </g>
  <g id="guias">
    <g>
      <rect class="cls-2" x="47.5" y="47.5" width="2.5" height="2.5"/>
      <rect class="cls-2" x="47.5" width="2.5" height="2.5"/>
      <rect class="cls-2" y="47.5" width="2.5" height="2.5"/>
      <rect class="cls-2" width="2.5" height="2.5"/>
    </g>
  </g>
</svg>