<?xml version="1.0" encoding="UTF-8"?>
<svg xmlns="http://www.w3.org/2000/svg" viewBox="0 0 50 50">
  <defs>
    <style>
      .cls-1 {
        fill: #2e3135;
        stroke-width: 0px;
      }

      .cls-2 {
        fill: none;
        stroke: #000;
        stroke-miterlimit: 10;
        stroke-width: .21px;
      }
    </style>
  </defs>
  <g id="iconos">
    <g>
      <path class="cls-1" d="m17.19,47.5h-8.46c-4.2,0-6.24-1.95-6.24-5.97V8.46c0-4.01,2.04-5.96,6.24-5.96h8.46c4.2,0,6.24,1.95,6.24,5.96v33.07c0,4.01-2.04,5.97-6.24,5.97ZM8.74,5.64c-2.63,0-3.1.74-3.1,2.82v33.07c0,2.09.47,2.83,3.1,2.83h8.46c2.63,0,3.1-.74,3.1-2.83V8.46c0-2.08-.47-2.82-3.1-2.82h-8.46Z"/>
      <path class="cls-1" d="m41.35,23.41h-8.55c-4.2,0-6.24-1.87-6.24-5.71v-9.48c0-3.84,2.04-5.71,6.24-5.71h8.46c4.2,0,6.24,1.87,6.24,5.71v9.5c0,1.86-.47,3.22-1.44,4.18-1.04,1.03-2.53,1.51-4.71,1.51Zm-8.55-17.77c-2.79,0-3.1.82-3.1,2.57v9.48c0,1.79.29,2.57,3.1,2.57h8.46c1.33,0,2.18-.19,2.59-.6.34-.34.51-.99.51-1.96v-9.5c0-1.75-.31-2.57-3.1-2.57h-8.46Z"/>
      <path class="cls-1" d="m41.26,47.5h-8.46c-4.2,0-6.24-2.04-6.24-6.24v-8.46c0-4.2,2.04-6.24,6.24-6.24h8.46c4.2,0,6.24,2.04,6.24,6.24v8.46c0,4.2-2.04,6.24-6.24,6.24Zm-8.46-17.79c-2.46,0-3.1.64-3.1,3.1v8.46c0,2.46.64,3.1,3.1,3.1h8.46c2.46,0,3.1-.64,3.1-3.1v-8.46c0-2.46-.64-3.1-3.1-3.1h-8.46Z"/>
    </g>
  </g>
  <g id="guias">
    <rect class="cls-2" x="47.5" y="47.5" width="2.5" height="2.5"/>
    <rect class="cls-2" x="47.5" width="2.5" height="2.5"/>
    <rect class="cls-2" y="47.5" width="2.5" height="2.5"/>
    <rect class="cls-2" width="2.5" height="2.5"/>
  </g>
</svg>