<?xml version="1.0" encoding="UTF-8"?>
<svg xmlns="http://www.w3.org/2000/svg" viewBox="0 0 50 50">
  <defs>
    <style>
      .cls-1 {
        fill: #2e3135;
        stroke-width: 0px;
      }

      .cls-2 {
        fill: none;
        stroke: #000;
        stroke-miterlimit: 10;
        stroke-width: .21px;
      }
    </style>
  </defs>
  <g id="iconos">
    <g>
      <path class="cls-1" d="m41.26,28.66h-8.46c-4.2,0-6.24-1.95-6.24-5.96v-14.23c0-4.01,2.04-5.97,6.24-5.97h8.46c4.2,0,6.24,1.95,6.24,5.97v14.23c0,4.01-2.04,5.96-6.24,5.96Zm-8.46-23.02c-2.63,0-3.1.74-3.1,2.83v14.23c0,2.08.47,2.82,3.1,2.82h8.46c2.63,0,3.1-.74,3.1-2.82v-14.23c0-2.09-.47-2.83-3.1-2.83h-8.46Z"/>
      <path class="cls-1" d="m41.26,47.5h-8.46c-4.2,0-6.24-1.95-6.24-5.96v-3.77c0-4.01,2.04-5.97,6.24-5.97h8.46c4.2,0,6.24,1.95,6.24,5.97v3.77c0,4.01-2.04,5.96-6.24,5.96Zm-8.46-12.56c-2.63,0-3.1.74-3.1,2.83v3.77c0,2.08.47,2.82,3.1,2.82h8.46c2.63,0,3.1-.74,3.1-2.82v-3.77c0-2.09-.47-2.83-3.1-2.83h-8.46Z"/>
      <path class="cls-1" d="m17.19,47.5h-8.46c-4.2,0-6.24-1.95-6.24-5.96v-14.23c0-4.01,2.04-5.97,6.24-5.97h8.46c4.2,0,6.24,1.95,6.24,5.97v14.23c0,4.01-2.04,5.96-6.24,5.96Zm-8.46-23.02c-2.63,0-3.1.74-3.1,2.83v14.23c0,2.08.47,2.82,3.1,2.82h8.46c2.63,0,3.1-.74,3.1-2.82v-14.23c0-2.09-.47-2.83-3.1-2.83h-8.46Z"/>
      <path class="cls-1" d="m17.19,18.2h-8.46c-4.2,0-6.24-1.95-6.24-5.96v-3.77c0-4.01,2.04-5.97,6.24-5.97h8.46c4.2,0,6.24,1.95,6.24,5.97v3.77c0,4.01-2.04,5.96-6.24,5.96ZM8.74,5.64c-2.63,0-3.1.74-3.1,2.83v3.77c0,2.08.47,2.82,3.1,2.82h8.46c2.63,0,3.1-.74,3.1-2.82v-3.77c0-2.09-.47-2.83-3.1-2.83h-8.46Z"/>
    </g>
  </g>
  <g id="guias">
    <rect class="cls-2" x="47.5" y="47.5" width="2.5" height="2.5"/>
    <rect class="cls-2" x="47.5" width="2.5" height="2.5"/>
    <rect class="cls-2" y="47.5" width="2.5" height="2.5"/>
    <rect class="cls-2" width="2.5" height="2.5"/>
  </g>
</svg>