<?xml version="1.0" encoding="UTF-8"?>
<svg xmlns="http://www.w3.org/2000/svg" viewBox="0 0 50 50">
  <defs>
    <style>
      .cls-1 {
        fill: #2e3135;
        stroke-width: 0px;
      }

      .cls-2 {
        fill: none;
        stroke: #000;
        stroke-miterlimit: 10;
        stroke-width: .21px;
      }
    </style>
  </defs>
  <g id="iconos">
    <g>
      <path class="cls-1" d="m41.35,23.41h-8.54c-4.2,0-6.24-1.87-6.24-5.71v-9.48c0-3.84,2.04-5.71,6.24-5.71h8.46c4.2,0,6.24,1.87,6.24,5.71v9.5c0,1.85-.47,3.22-1.43,4.18-1.04,1.03-2.54,1.51-4.72,1.51Zm-8.54-17.77c-2.79,0-3.1.83-3.1,2.58v9.48c0,1.79.29,2.58,3.1,2.58h8.46c1.3-.01,2.18-.19,2.59-.6.34-.34.51-.99.51-1.95v-9.5c0-1.75-.31-2.58-3.1-2.58h-8.46Z"/>
      <path class="cls-1" d="m41.26,47.5h-8.46c-4.2,0-6.24-2.04-6.24-6.24v-8.46c0-4.2,2.04-6.24,6.24-6.24h8.46c4.2,0,6.24,2.04,6.24,6.24v8.46c0,4.2-2.04,6.24-6.24,6.24Zm-8.46-17.79c-2.46,0-3.1.64-3.1,3.1v8.46c0,2.46.64,3.1,3.1,3.1h8.46c2.46,0,3.1-.64,3.1-3.1v-8.46c0-2.46-.64-3.1-3.1-3.1h-8.46Z"/>
      <path class="cls-1" d="m17.28,23.41h-8.54c-4.2,0-6.24-1.87-6.24-5.71v-9.48c0-3.84,2.04-5.71,6.24-5.71h8.46c4.2,0,6.24,1.87,6.24,5.71v9.5c0,1.85-.47,3.22-1.43,4.18-1.04,1.03-2.54,1.51-4.72,1.51ZM8.74,5.64c-2.79,0-3.1.83-3.1,2.58v9.48c0,1.79.29,2.58,3.1,2.58h8.46c1.29-.01,2.18-.19,2.59-.6.34-.34.51-.99.51-1.95v-9.5c0-1.75-.31-2.58-3.1-2.58h-8.46Z"/>
      <path class="cls-1" d="m17.19,47.5h-8.46c-4.2,0-6.24-2.04-6.24-6.24v-8.46c0-4.2,2.04-6.24,6.24-6.24h8.46c4.2,0,6.24,2.04,6.24,6.24v8.46c0,4.2-2.04,6.24-6.24,6.24Zm-8.46-17.79c-2.46,0-3.1.64-3.1,3.1v8.46c0,2.46.64,3.1,3.1,3.1h8.46c2.46,0,3.1-.64,3.1-3.1v-8.46c0-2.46-.64-3.1-3.1-3.1h-8.46Z"/>
    </g>
  </g>
  <g id="guias">
    <rect class="cls-2" x="47.5" y="47.5" width="2.5" height="2.5"/>
    <rect class="cls-2" x="47.5" width="2.5" height="2.5"/>
    <rect class="cls-2" y="47.5" width="2.5" height="2.5"/>
    <rect class="cls-2" width="2.5" height="2.5"/>
  </g>
</svg>