<?xml version="1.0" encoding="UTF-8"?>
<svg xmlns="http://www.w3.org/2000/svg" viewBox="0 0 50 50">
  <defs>
    <style>
      .cls-1 {
        fill: none;
        stroke: #000;
        stroke-miterlimit: 10;
        stroke-width: .21px;
      }

      .cls-2 {
        fill: #af9269;
        stroke-width: 0px;
      }
    </style>
  </defs>
  <g id="iconos">
    <g>
      <path class="cls-2" d="m29.55,25.44c-.12-.11-.28-.16-.48-.16s-.37.05-.49.17c-.13.11-.2.26-.21.45h1.37c0-.19-.07-.34-.19-.45Z"/>
      <path class="cls-2" d="m46.78,23.33L26.67,3.22c-.92-.92-2.41-.92-3.33,0L3.22,23.33c-.92.92-.92,2.41,0,3.33l20.12,20.12c.92.92,2.41.92,3.33,0l20.12-20.12c.92-.92.92-2.41,0-3.33Zm-25.03-1.16l.35.36-1.04.82-.2-.21.89-.97Zm.58,2.07h-1.8v.99h1.62v.63h-1.62v1.01h1.8v.65h-2.52v-3.93h2.52v.65Zm1.38,3.28h-.69v-4.21h.69v4.21Zm1.45,0h-.69v-2.74h.69v2.74Zm0-3.41c-.09.09-.2.14-.34.14s-.25-.05-.34-.13c-.09-.09-.14-.2-.14-.33s.04-.24.14-.33c.09-.09.2-.13.34-.13s.25.04.34.13c.09.09.13.2.13.33s-.04.23-.13.32Zm2.22,1.23h-.52v2.17h-.69v-2.17h-.52v-.56h.52v-.72h.69v.72h.52v.56Zm2.59,2c-.25.17-.54.26-.88.26-.43,0-.77-.14-1.03-.4-.26-.27-.39-.62-.39-1.06s.13-.79.39-1.05c.26-.26.6-.39,1.01-.39s.73.12.98.36c.25.25.37.56.37.94,0,.14-.01.25-.03.34h-2.05c.01.21.08.38.22.5.14.13.31.19.53.19.16,0,.3-.04.42-.1s.2-.16.25-.27h.67c-.06.28-.22.51-.46.68Z"/>
    </g>
  </g>
  <g id="guias">
    <rect class="cls-1" x="47.5" y="47.5" width="2.5" height="2.5"/>
    <rect class="cls-1" x="47.5" width="2.5" height="2.5"/>
    <rect class="cls-1" y="47.5" width="2.5" height="2.5"/>
    <rect class="cls-1" width="2.5" height="2.5"/>
  </g>
</svg>