<?xml version="1.0" encoding="UTF-8"?>
<svg id="iconos" xmlns="http://www.w3.org/2000/svg" viewBox="0 0 50 50">
  <defs>
    <style>
      .cls-1 {
        fill: #1e1f22;
        stroke-width: 0px;
      }
    </style>
  </defs>
  <g>
    <path class="cls-1" d="m25.37,28.22c-.98,0-1.96-.36-2.79-1.08L3.21,10.19c-.22-.19-.24-.52-.05-.74.19-.21.52-.24.74-.05l19.37,16.95c1.28,1.12,2.98,1.1,4.24-.04l18.69-16.91c.21-.2.54-.18.74.04.19.21.18.55-.04.74l-18.69,16.91c-.83.75-1.84,1.13-2.84,1.13Z"/>
    <path class="cls-1" d="m46.56,40.72c-.15,0-.29-.06-.39-.18l-12.73-14.61c-.19-.22-.17-.55.05-.74.21-.19.55-.17.74.05l12.73,14.61c.19.22.17.55-.05.74-.1.09-.22.13-.34.13Z"/>
    <path class="cls-1" d="m3.56,40.72c-.12,0-.25-.04-.34-.13-.22-.19-.24-.52-.05-.74l12.73-14.61c.19-.22.52-.24.74-.05.22.19.24.52.05.74l-12.73,14.61c-.1.12-.25.18-.39.18Z"/>
  </g>
  <path class="cls-1" d="m46.1,41.22H3.9c-.77,0-1.4-.63-1.4-1.4V10.18c0-.77.63-1.4,1.4-1.4h42.2c.77,0,1.4.63,1.4,1.4v29.65c0,.77-.63,1.4-1.4,1.4ZM3.9,9.82c-.19,0-.35.16-.35.35v29.65c0,.19.16.35.35.35h42.2c.19,0,.35-.16.35-.35V10.18c0-.19-.16-.35-.35-.35H3.9Z"/>
</svg>