<?xml version="1.0" encoding="UTF-8"?>
<svg xmlns="http://www.w3.org/2000/svg" viewBox="0 0 50 50">
  <defs>
    <style>
      .cls-1 {
        fill: none;
        stroke: #000;
        stroke-miterlimit: 10;
        stroke-width: .21px;
      }

      .cls-2 {
        fill: #1e1f22;
        stroke-width: 0px;
      }
    </style>
  </defs>
  <g id="iconos">
    <g>
      <path class="cls-2" d="m8.19,22.64h-2.64c-.2,0-.38-.12-.46-.31-.08-.19-.04-.4.1-.55l2.64-2.77c.19-.2.51-.21.71-.02.2.19.21.51.02.71l-1.83,1.92h1.46c.28,0,.5.23.5.5s-.23.5-.5.5Z"/>
      <g>
        <path class="cls-2" d="m44.45,22.64h-2.64c-.28,0-.5-.23-.5-.5s.23-.5.5-.5h1.46l-1.83-1.92c-.19-.2-.19-.52.02-.71.2-.2.52-.18.71.02l2.64,2.77c.14.15.18.36.1.55-.08.19-.26.31-.46.31Z"/>
        <path class="cls-2" d="m19.29,8.21c-.12,0-.25-.05-.35-.14-.2-.19-.21-.51-.02-.71l3.68-3.87c1.26-1.32,3.53-1.32,4.79,0l3.42,3.59c.19.2.19.52-.02.71-.2.2-.52.18-.71-.02l-3.42-3.59c-.88-.92-2.45-.92-3.33,0l-3.68,3.87c-.1.1-.23.16-.36.16Z"/>
        <path class="cls-2" d="m41.81,24.31c-.28,0-.5-.23-.5-.5v-15.59H8.69v15.54c0,.28-.23.5-.5.5s-.5-.23-.5-.5V7.7c0-.28.23-.5.5-.5h33.62c.28,0,.5.23.5.5v16.1c0,.28-.23.5-.5.5Z"/>
        <path class="cls-2" d="m41.46,47.5H8.54c-1.93,0-3.5-1.57-3.5-3.5v-21.87c0-.18.1-.35.26-.44s.35-.09.51,0l19.51,11.94,18.86-11.94c.15-.1.35-.11.51-.02.16.09.26.26.26.44v21.87c0,1.93-1.57,3.5-3.5,3.5ZM6.05,23.03v20.97c0,1.37,1.12,2.49,2.49,2.49h32.92c1.37,0,2.49-1.12,2.49-2.49v-20.95l-18.36,11.62c-.16.1-.37.11-.53,0L6.05,23.03Z"/>
      </g>
    </g>
  </g>
  <g id="guias">
    <rect class="cls-1" x="47.5" y="47.5" width="2.5" height="2.5"/>
    <rect class="cls-1" x="47.5" width="2.5" height="2.5"/>
    <rect class="cls-1" y="47.5" width="2.5" height="2.5"/>
    <rect class="cls-1" width="2.5" height="2.5"/>
  </g>
</svg>