<?xml version="1.0" encoding="UTF-8"?>
<svg xmlns="http://www.w3.org/2000/svg" viewBox="0 0 50 50">
  <defs>
    <style>
      .cls-1 {
        fill: none;
        stroke: #000;
        stroke-miterlimit: 10;
        stroke-width: .21px;
      }

      .cls-2 {
        isolation: isolate;
      }

      .cls-3 {
        fill: #1e1f22;
        stroke-width: 0px;
      }
    </style>
  </defs>
  <g id="iconos">
    <g>
      <g class="cls-2">
        <path class="cls-3" d="m40.58,47.19H9.42c-2.13,0-3.86-1.73-3.86-3.86V6.68c0-2.13,1.73-3.86,3.86-3.86h21.75c.11,0,.22.05.3.13l12.87,13.83c.07.08.11.17.11.28v26.28c0,2.13-1.73,3.86-3.86,3.86ZM9.42,3.63c-1.68,0-3.04,1.37-3.04,3.05v36.65c0,1.68,1.37,3.05,3.04,3.05h31.16c1.68,0,3.05-1.37,3.05-3.05v-26.12L30.99,3.63H9.42Z"/>
      </g>
      <path class="cls-3" d="m19.17,39.94c-.15,0-.28-.06-.37-.18l-2.54-3.38-2.55,3.38c-.09.12-.22.18-.37.18-.27,0-.49-.21-.49-.49,0-.1.02-.21.1-.29l2.65-3.49-2.46-3.29c-.06-.09-.1-.18-.1-.28,0-.23.2-.49.49-.49.15,0,.29.07.39.2l2.34,3.15,2.34-3.16c.09-.12.22-.18.37-.18.26,0,.5.21.5.49,0,.1-.02.2-.09.28l-2.46,3.27,2.65,3.51c.06.09.09.18.09.28,0,.27-.22.5-.49.5h0Zm6.8-.09h-3.71c-.41,0-.74-.33-.74-.74v-7.02c0-.27.22-.49.53-.49.27,0,.49.22.49.49v6.85h3.43c.24,0,.44.2.44.44,0,.27-.2.47-.44.47h0Zm4.75.15c-1.21,0-2.17-.4-2.87-1.02-.11-.1-.16-.23-.16-.37,0-.25.18-.51.48-.51.1,0,.21.02.29.1.56.5,1.35.89,2.29.89,1.46,0,1.92-.78,1.92-1.41,0-2.11-4.84-.94-4.84-3.86,0-1.35,1.2-2.27,2.81-2.27,1.05,0,1.96.32,2.62.87.11.1.17.23.17.37,0,.25-.21.49-.48.49-.1,0-.21-.04-.29-.11-.6-.49-1.35-.71-2.1-.71-.98,0-1.68.53-1.68,1.3,0,1.84,4.84.78,4.84,3.84,0,1.19-.81,2.4-3.02,2.4h0Z"/>
      <g class="cls-2">
        <path class="cls-3" d="m44.03,17.48h-8.71c-3.74,0-4.56-3.14-4.56-4.35V3.22c0-.17.1-.32.26-.38.16-.06.33-.02.45.1l12.87,13.85c.11.12.14.29.08.44s-.21.25-.37.25Zm-12.46-13.22v8.87c0,.53.19,1.42.72,2.15.66.92,1.68,1.38,3.02,1.38h7.78l-11.52-12.41Z"/>
      </g>
    </g>
  </g>
  <g id="guias">
    <g>
      <rect class="cls-1" x="47.5" y="47.5" width="2.5" height="2.5"/>
      <rect class="cls-1" x="47.5" width="2.5" height="2.5"/>
      <rect class="cls-1" y="47.5" width="2.5" height="2.5"/>
      <rect class="cls-1" width="2.5" height="2.5"/>
    </g>
  </g>
</svg>