<?xml version="1.0" encoding="UTF-8"?>
<svg id="iconos" xmlns="http://www.w3.org/2000/svg" viewBox="0 0 50 50">
  <defs>
    <style>
      .cls-1 {
        fill: #1e1f22;
        stroke-width: 0px;
      }
    </style>
  </defs>
  <path class="cls-1" d="m44.21,18.4c-.14,0-.28-.06-.39-.17-.19-.21-.17-.54.04-.73,3.04-2.74,3.47-7.41.99-10.63-1.28-1.66-3.14-2.73-5.23-3-2.09-.27-4.15.29-5.82,1.58-2.44,1.88-3.55,5.03-2.83,8.04.07.28-.11.56-.39.62-.28.07-.56-.11-.62-.39-.81-3.4.45-6.97,3.21-9.1,1.88-1.45,4.23-2.09,6.58-1.78,2.36.3,4.46,1.51,5.92,3.39,2.82,3.65,2.33,8.93-1.12,12.04-.1.09-.22.13-.35.13Z"/>
  <g>
    <path class="cls-1" d="m43.16,47.24H6.48c-2.19,0-3.98-1.78-3.98-3.98v-18.24c0-.29.23-.52.52-.52h43.6c.29,0,.52.23.52.52v18.24c0,2.19-1.78,3.98-3.98,3.98ZM3.54,25.54v17.72c0,1.62,1.32,2.94,2.94,2.94h36.68c1.62,0,2.94-1.32,2.94-2.94v-17.72H3.54Z"/>
    <path class="cls-1" d="m31.29,32.33h-11.58c-.29,0-.52-.23-.52-.52v-6.78c0-.29.23-.52.52-.52h11.58c.29,0,.52.23.52.52v6.78c0,.29-.23.52-.52.52Zm-11.06-1.04h10.54v-5.74h-10.54v5.74Z"/>
    <path class="cls-1" d="m31.29,25.54h-11.58c-.17,0-.32-.08-.42-.21-.1-.14-.13-.31-.08-.47l3.06-9.49c.07-.21.27-.36.49-.36h5.45c.23,0,.42.15.49.36l3.07,9.49c.05.16.02.33-.08.47-.1.13-.25.21-.42.21Zm-10.87-1.04h10.15l-2.73-8.46h-4.7l-2.73,8.46Z"/>
    <path class="cls-1" d="m46.62,25.54H3.02c-.19,0-.37-.11-.46-.28s-.07-.38.04-.54l5.95-8.29c.64-.89,1.67-1.42,2.77-1.42h27.01c1.1,0,2.13.53,2.76,1.42l5.95,8.29c.11.16.13.36.04.54-.09.17-.27.28-.46.28Zm-42.59-1.04h41.57l-5.36-7.47c-.44-.62-1.16-.98-1.92-.98H11.32c-.76,0-1.48.37-1.92.98l-5.36,7.47Z"/>
  </g>
  <g>
    <path class="cls-1" d="m40.37,12.77c-.29,0-.52-.23-.52-.52v-2.29h-2.29c-.29,0-.52-.23-.52-.52s.23-.52.52-.52h2.81c.29,0,.52.23.52.52v2.81c0,.29-.23.52-.52.52Z"/>
    <path class="cls-1" d="m36.48,13.84c-.13,0-.27-.05-.37-.15-.2-.2-.2-.53,0-.73l3.89-3.88c.2-.2.53-.2.73,0,.2.2.2.53,0,.73l-3.89,3.88c-.1.1-.24.15-.37.15Z"/>
  </g>
</svg>