<?xml version="1.0" encoding="UTF-8"?>
<svg xmlns="http://www.w3.org/2000/svg" viewBox="0 0 50 50">
  <defs>
    <style>
      .cls-1 {
        fill: none;
        stroke: #000;
        stroke-miterlimit: 10;
        stroke-width: .21px;
      }

      .cls-2 {
        fill: #1e1f22;
        stroke-width: 0px;
      }
    </style>
  </defs>
  <g id="iconos">
    <g>
      <g>
        <path class="cls-2" d="m23.38,47.43H5.47c-.29,0-.52-.24-.52-.52v-20.91c0-.29.24-.52.52-.52h17.91c.29,0,.52.24.52.52v20.91c0,.29-.24.52-.52.52Zm-17.38-1.05h16.86v-19.86H6v19.86Z"/>
        <path class="cls-2" d="m23.38,26.52H5.47c-.29,0-.52-.24-.52-.52V7.35c0-.29.24-.52.52-.52h16.69c.29,0,.52.24.52.52s-.24.52-.52.52H6v17.6h16.86v-15.9c0-.29.24-.52.52-.52s.52.24.52.52v16.42c0,.29-.24.52-.52.52Z"/>
        <g>
          <path class="cls-2" d="m18.2,31.85h-7.54c-.29,0-.52-.24-.52-.52s.24-.52.52-.52h7.54c.29,0,.52.24.52.52s-.24.52-.52.52Z"/>
          <path class="cls-2" d="m18.2,36.97h-7.54c-.29,0-.52-.24-.52-.52s.24-.52.52-.52h7.54c.29,0,.52.24.52.52s-.24.52-.52.52Z"/>
          <path class="cls-2" d="m18.2,42.09h-7.54c-.29,0-.52-.24-.52-.52s.24-.52.52-.52h7.54c.29,0,.52.24.52.52s-.24.52-.52.52Z"/>
        </g>
        <path class="cls-2" d="m25.83,7.87H3.03c-.18,0-.34-.09-.44-.24-.1-.15-.11-.33-.05-.49l1.23-2.91c.45-1.06,1.48-1.74,2.62-1.74h16.05c1.14,0,2.17.68,2.62,1.74l1.23,2.91c.07.16.05.35-.05.49-.1.15-.26.24-.44.24ZM3.82,6.83h21.21l-.92-2.18c-.28-.67-.93-1.1-1.66-1.1H6.4c-.72,0-1.37.43-1.66,1.1l-.92,2.18Z"/>
        <path class="cls-2" d="m18.2,26.52h-7.54c-.29,0-.52-.24-.52-.52v-2.41c0-2.37,1.93-4.29,4.29-4.29s4.29,1.93,4.29,4.29v2.41c0,.29-.24.52-.52.52Zm-7.02-1.05h6.49v-1.89c0-1.79-1.46-3.25-3.25-3.25s-3.25,1.46-3.25,3.25v1.89Z"/>
      </g>
      <path class="cls-2" d="m46.97,47.43H3.03c-.29,0-.52-.24-.52-.52s.24-.52.52-.52h43.94c.29,0,.52.24.52.52s-.24.52-.52.52Z"/>
      <g>
        <g>
          <g>
            <path class="cls-2" d="m33.23,31.06c-.1,0-.2-.03-.28-.08-.24-.16-.31-.48-.16-.72l2.13-3.31c.16-.24.48-.31.72-.16.24.16.31.48.16.72l-2.13,3.31c-.1.16-.27.24-.44.24Z"/>
            <path class="cls-2" d="m35.49,31.06c-.1,0-.2-.03-.28-.08-.24-.16-.31-.48-.16-.72l2.13-3.31c.16-.24.48-.31.72-.16.24.16.31.48.16.72l-2.13,3.31c-.1.16-.27.24-.44.24Z"/>
          </g>
          <g>
            <path class="cls-2" d="m40.67,31.06c-.1,0-.2-.03-.28-.08-.24-.16-.31-.48-.16-.72l2.13-3.31c.16-.24.48-.31.72-.16.24.16.31.48.16.72l-2.13,3.31c-.1.16-.27.24-.44.24Z"/>
            <path class="cls-2" d="m42.93,31.06c-.1,0-.2-.03-.28-.08-.24-.16-.31-.48-.16-.72l2.13-3.31c.16-.24.48-.31.72-.16.24.16.31.48.16.72l-2.13,3.31c-.1.16-.27.24-.44.24Z"/>
          </g>
        </g>
        <path class="cls-2" d="m45.25,31.06h-15.13c-.29,0-.52-.24-.52-.52v-1.72c0-.29.24-.52.52-.52s.52.24.52.52v1.2h14.6c.66,0,1.2-.54,1.2-1.2s-.54-1.2-1.2-1.2h-13.47c-.29,0-.52-.24-.52-.52s.24-.52.52-.52h13.47c1.24,0,2.24,1.01,2.24,2.24s-1.01,2.24-2.24,2.24Z"/>
      </g>
      <path class="cls-2" d="m30.12,47.5h-4.3c-.29,0-.52-.24-.52-.52v-18.38c0-1.12.91-2.03,2.03-2.03h1.29c1.12,0,2.03.91,2.03,2.03v18.38c0,.29-.24.52-.52.52Zm-3.77-1.05h3.25v-17.85c0-.54-.44-.98-.98-.98h-1.29c-.54,0-.98.44-.98.98v17.85Z"/>
    </g>
  </g>
  <g id="guias">
    <g>
      <rect class="cls-1" x="47.5" y="47.5" width="2.5" height="2.5"/>
      <rect class="cls-1" x="47.5" width="2.5" height="2.5"/>
      <rect class="cls-1" y="47.5" width="2.5" height="2.5"/>
      <rect class="cls-1" width="2.5" height="2.5"/>
    </g>
  </g>
</svg>