<?xml version="1.0" encoding="UTF-8"?>
<svg id="iconos" xmlns="http://www.w3.org/2000/svg" viewBox="0 0 50 50">
  <defs>
    <style>
      .cls-1 {
        fill: #1e1f22;
        stroke-width: 0px;
      }
    </style>
  </defs>
  <path class="cls-1" d="m47.5,24.65c0,8.26-5.89,14.3-13.26,14.3-3.51,0-6.14-1.39-7.92-3.61l-1.83,10.49c-.25,1.19-1.04,1.93-2.28,1.93h-3.02c-1.14,0-1.73-.74-1.53-1.93l5.49-30.53c.2-1.19,1.09-1.93,2.23-1.93h1.88c1.19,0,1.73.74,1.53,1.93l-.25,1.48c2.13-2.28,4.9-3.76,8.16-3.76,6.38,0,10.79,5.1,10.79,11.63Zm-6.78.64c0-3.81-2.37-6.48-5.94-6.48-4.3,0-7.22,3.51-7.22,7.87,0,3.76,2.37,6.48,5.94,6.48,4.4,0,7.22-3.51,7.22-7.87Z"/>
  <path class="cls-1" d="m24.48,5.56l-.9,1.6c-.8,1.15-1.45,1.35-2.46.95-.65-.25-1.35-.5-2.31-.5-1,0-1.96.3-2.71,1-.8.75-1.35,1.86-1.6,3.41l-.2,1h5.01c1.2,0,1.91.65,1.6,1.91l-.25,1.35c-.25,1.25-1.15,1.91-2.36,1.91h-4.91l-3.31,18.2c-.25,1.2-1.1,1.96-2.31,1.96h-3.06c-1.2,0-1.75-.75-1.55-1.96l3.31-18.2h-2.31c-1.2,0-1.91-.65-1.6-1.91l.25-1.35c.25-1.25,1.15-1.91,2.36-1.91h2.21l.2-1c.6-3.56,2.31-6.17,4.51-7.77,2.01-1.4,4.46-2.01,6.92-2.01,1.65,0,3.66.35,4.86.95,1,.55,1.35,1.2.6,2.36Z"/>
</svg>