<?xml version="1.0" encoding="UTF-8"?>
<svg id="iconos" xmlns="http://www.w3.org/2000/svg" viewBox="0 0 50 50">
  <defs>
    <style>
      .cls-1 {
        fill: #1e1f22;
        stroke-width: 0px;
      }
    </style>
  </defs>
  <g>
    <g>
      <path class="cls-1" d="m22.54,29.63c-.23,0-.44-.15-.51-.38-.17-.57-.51-1.08-.97-1.46-.33-.27-.67-.45-.98-.52l-3.15-.91c-.12-.03-.24-.09-.34-.16-.29-.2-.48-.51-.53-.86l-.14-1.23c-.02-.17.04-.34.17-.46.8-.73,1.1-1.34,1.14-2.35.01-1.5-.64-4.44-.65-4.47-.61-2.07-2.44-1.97-2.52-1.96-.14,0-2-.07-2.61,2h0s-.65,2.94-.64,4.46c.05.98.35,1.6,1.14,2.33.13.12.19.29.17.46l-.14,1.23c-.04.35-.23.67-.53.87-.1.07-.21.12-.34.16l-3.1.9c-.2.04-.37.11-.55.21-.26.15-.58.05-.73-.21-.14-.26-.05-.59.21-.73.27-.15.54-.25.8-.31l3.07-.9.63-.06-.53-.06.11-.96c-.86-.85-1.23-1.7-1.29-2.9-.01-1.66.64-4.63.67-4.76.69-2.36,2.69-2.88,3.64-2.8.88-.07,2.88.44,3.56,2.76.04.16.69,3.13.68,4.77-.05,1.21-.43,2.07-1.29,2.92l.11.96s.1.12.1.12l3.11.9c.44.09.92.34,1.39.73.62.52,1.08,1.2,1.31,1.97.09.28-.07.58-.36.67-.05.01-.1.02-.16.02Z"/>
      <path class="cls-1" d="m14.04,27.79c-.13,0-.26-.05-.36-.14l-2.53-2.27c-.22-.2-.24-.54-.04-.76.2-.22.54-.23.76-.04l2.18,1.95,2.18-1.95c.22-.19.56-.18.76.04.2.22.18.56-.04.76l-2.53,2.27c-.1.09-.23.14-.36.14Z"/>
      <path class="cls-1" d="m15.69,29.37c-.13,0-.27-.05-.37-.15l-1.65-1.57c-.21-.2-.22-.54-.02-.76.2-.21.54-.22.76-.02l1.28,1.22,1.42-1.36c.21-.2.55-.2.76.02.21.21.2.55-.02.76l-1.79,1.72c-.1.1-.24.15-.37.15Z"/>
      <path class="cls-1" d="m12.39,29.37c-.13,0-.27-.05-.37-.15l-1.79-1.72c-.21-.21-.22-.54-.02-.76.21-.22.55-.22.76-.02l1.42,1.36,1.28-1.22c.22-.21.55-.19.76.02.21.22.2.55-.02.76l-1.65,1.57c-.1.1-.24.15-.37.15Z"/>
      <path class="cls-1" d="m14.04,30.65c-.3,0-.54-.24-.54-.54v-1.44c0-.3.24-.54.54-.54s.54.24.54.54v1.44c0,.3-.24.54-.54.54Z"/>
      <path class="cls-1" d="m18.76,24.48c-.26,0-.53-.02-.81-.07-.29-.05-.49-.33-.44-.62.05-.29.33-.51.62-.44,1.47.25,2.4-.39,2.93-.97.2-.22.54-.23.76-.03.22.2.23.54.03.76-.5.55-1.52,1.37-3.09,1.37Z"/>
      <path class="cls-1" d="m21.63,22.8s-.06,0-.1,0c-.96-.17-1.69-.73-2.19-1.65-.53-1-.64-2.04-.75-3.04l-.05-.42c-.09-.74-.21-1.53-.52-2.23-.63-1.41-2.27-2.39-3.99-2.39-.3,0-.54-.24-.54-.54s.24-.54.54-.54c2.16,0,4.15,1.22,4.96,3.02.37.83.51,1.71.61,2.54l.05.42c.1.95.2,1.84.63,2.66.34.63.79.98,1.43,1.1.29.05.48.33.43.62-.05.26-.27.44-.53.44Z"/>
      <path class="cls-1" d="m9.3,24.48c-2.35,0-3.45-1.84-3.5-1.92-.09-.16-.1-.35-.02-.51.08-.16.24-.27.41-.29.71-.09,1.22-.44,1.58-1.12.43-.82.53-1.71.63-2.66l.05-.42c.09-.83.23-1.71.61-2.54.81-1.81,2.81-3.02,4.97-3.02.3,0,.54.24.54.54s-.24.54-.54.54c-1.72,0-3.36.98-3.99,2.39-.31.7-.44,1.48-.52,2.22l-.05.42c-.11,1-.22,2.05-.75,3.04-.37.69-.87,1.18-1.51,1.45.5.46,1.39,1,2.73.77.28-.07.57.15.62.44s-.14.57-.44.62c-.29.05-.57.07-.83.07Z"/>
    </g>
    <g>
      <path class="cls-1" d="m21.69,24.03c-.28,0-.52-.22-.54-.51,0-.09-.08-2.13,1.18-3.45.68-.71,1.6-1.07,2.73-1.07s2.05.36,2.73,1.07c1.25,1.32,1.17,3.36,1.16,3.45-.01.29-.25.51-.54.51,0,0-.02,0-.03,0-.3-.01-.52-.26-.51-.56,0-.02.06-1.68-.87-2.66-.46-.49-1.12-.73-1.94-.73s-1.48.25-1.95.73c-.94.98-.89,2.65-.89,2.67.01.3-.22.54-.51.56,0,0-.02,0-.02,0Z"/>
      <path class="cls-1" d="m26.64,22.68c-.18,0-.36-.01-.55-.03-.69-.07-1.24-.34-1.78-.6l-.4-.19c-.45-.2-.81-.26-1.08-.16-.18.07-.34.2-.41.34-.13.27-.46.38-.72.25-.27-.13-.38-.45-.25-.72.19-.4.56-.72,1-.88.54-.19,1.17-.13,1.89.19l.42.2c.49.24.92.45,1.43.5.66.07,1.21-.01,1.72-.27.26-.13.59-.03.72.23s.03.59-.23.72c-.54.28-1.13.41-1.78.41Z"/>
      <path class="cls-1" d="m25.06,32.01c-.14,0-.28-.05-.39-.16l-2.2-2.28c-.21-.21-.2-.55.01-.76.22-.2.55-.2.76.01l2.2,2.28c.21.21.2.55-.01.76-.1.1-.24.15-.37.15Z"/>
      <path class="cls-1" d="m25.06,32.01c-.13,0-.27-.05-.37-.15-.21-.21-.22-.54-.01-.76l2.19-2.28c.21-.21.55-.22.76-.01.21.21.22.54.01.76l-2.19,2.28c-.1.11-.24.16-.39.16Z"/>
      <path class="cls-1" d="m25.06,37.46s-.1,0-.14-.02l-7.02-1.95c-.14-.04-.3-.13-.37-.21-.15-.18-.19-.4-.14-.6l.55-2.75c.14-.73.55-1.4,1.13-1.89.38-.31.77-.51,1.16-.6l2.34-.68.06-.64c-.57-.52-1.01-1.21-1.27-1.99-.51-.24-.86-.83-.86-1.54,0-.79.41-1.43,1.03-1.6.29-.07.58.09.66.37.08.29-.09.58-.37.66-.1.03-.24.25-.24.57,0,.36.17.57.26.57.22.02.41.18.47.4.21.79.63,1.47,1.21,1.91.15.12.23.3.2.48l-.11.94c-.03.3-.2.58-.46.75-.09.06-.19.11-.3.14l-2.38.69c-.26.06-.49.18-.74.39-.39.32-.66.77-.76,1.27l-.48,2.42,6.55,1.81,6.54-1.81-.48-2.42c-.1-.49-.37-.94-.76-1.26-.24-.2-.48-.33-.7-.38l-2.41-.7c-.11-.03-.21-.08-.31-.15-.24-.16-.41-.44-.45-.75l-.11-.94c-.02-.18.05-.37.2-.48.57-.45,1-1.13,1.21-1.91.06-.22.24-.38.47-.4.09,0,.27-.21.27-.57,0-.33-.14-.54-.25-.57-.28-.08-.45-.38-.37-.66.08-.28.36-.45.66-.37.62.17,1.03.82,1.03,1.6,0,.7-.35,1.3-.86,1.54-.26.78-.7,1.48-1.26,1.99l.08.66,2.36.68c.36.08.75.28,1.12.59.58.48.98,1.15,1.13,1.88l.56,2.79c.03.16-.04.44-.15.57-.1.12-.24.21-.41.23l-6.97,1.93s-.09.02-.14.02Zm6.61-2.54h0s0,0,0,0Z"/>
    </g>
    <g>
      <g>
        <path class="cls-1" d="m35.96,29.73c-.14,0-.27-.05-.37-.15l-1.4-1.37c-.21-.21-.22-.55,0-.76s.55-.22.76,0l1.02,1,1.02-1c.21-.21.55-.2.76,0,.21.21.2.55,0,.76l-1.4,1.37c-.1.1-.24.15-.37.15Z"/>
        <path class="cls-1" d="m35.96,38.01c-.14,0-.28-.05-.38-.16l-2.07-2.09c-.13-.13-.18-.31-.14-.48l1.38-6.87c.06-.29.31-.48.63-.42.29.06.48.34.42.63l-1.33,6.59,1.87,1.89c.21.21.21.55,0,.76-.1.1-.24.15-.38.15Z"/>
        <path class="cls-1" d="m35.96,38.01c-.14,0-.27-.05-.38-.15-.21-.21-.21-.55,0-.76l1.87-1.89-1.32-6.59c-.06-.29.13-.57.42-.63.31-.06.57.13.63.42l1.38,6.87c.04.17-.02.36-.14.48l-2.07,2.09c-.1.11-.24.16-.38.16Z"/>
      </g>
      <g>
        <path class="cls-1" d="m42.85,27.67c-.09,0-.18-.02-.27-.07-.2-.12-.39-.19-.57-.23l-3.15-.91c-.12-.03-.24-.09-.34-.16-.3-.2-.49-.52-.53-.87l-.14-1.22c-.02-.19.05-.37.2-.49.78-.6,1.36-1.52,1.63-2.58.06-.22.25-.38.47-.4.24-.02.49-.39.49-.91s-.23-.85-.45-.91c-.29-.07-.46-.36-.39-.65.07-.28.35-.48.65-.39.74.18,1.26.99,1.26,1.94,0,.89-.45,1.63-1.09,1.89-.33,1.05-.92,1.98-1.69,2.65l.11.94s.1.12.1.12l3.11.9c.25.05.54.17.85.35.26.15.34.48.19.73-.1.17-.28.27-.46.27Z"/>
        <path class="cls-1" d="m27.5,29.58c-.06,0-.12-.01-.18-.03-.28-.1-.42-.4-.33-.68.25-.7.68-1.33,1.26-1.8.47-.39.96-.64,1.44-.75l3.06-.89.63-.06-.53-.06.11-.94c-.77-.68-1.36-1.6-1.69-2.65-.64-.26-1.08-1-1.08-1.89,0-.95.49-1.73,1.22-1.93.3-.08.58.09.66.37.08.28-.08.58-.37.66-.22.06-.44.42-.44.9,0,.52.26.89.49.91.22.02.41.18.47.4.28,1.06.86,1.98,1.63,2.58.15.12.23.3.2.48l-.14,1.23c-.04.35-.23.67-.52.87-.1.07-.22.13-.35.16l-3.09.9c-.35.08-.68.26-1.02.54-.43.35-.75.81-.93,1.33-.08.22-.28.36-.5.36Z"/>
      </g>
      <path class="cls-1" d="m31.56,18.94c-.28,0-.52-.22-.54-.51,0-.11-.1-2.71,1.49-4.38.85-.89,2.01-1.34,3.44-1.34s2.59.45,3.44,1.34c1.59,1.67,1.48,4.26,1.47,4.37-.01.3-.27.58-.56.51-.3-.01-.52-.26-.51-.56,0-.02.09-2.25-1.18-3.58-.64-.67-1.53-1.01-2.66-1.01s-2.02.34-2.66,1.01c-1.28,1.33-1.2,3.57-1.2,3.59.01.3-.22.54-.51.56h-.02Z"/>
      <path class="cls-1" d="m38.03,17.18c-.23,0-.47-.01-.71-.04-.87-.09-1.57-.44-2.26-.77-.18-.09-.35-.17-.53-.26-.62-.28-1.14-.36-1.53-.22-.28.1-.51.3-.62.53-.13.27-.46.37-.72.25-.27-.13-.38-.45-.25-.72.23-.48.68-.86,1.22-1.06.67-.24,1.45-.16,2.34.25.19.09.38.18.56.27.63.31,1.22.59,1.9.67.89.1,1.64-.02,2.34-.37.26-.13.59-.03.72.23.13.26.03.59-.23.72-.69.35-1.41.53-2.23.53Z"/>
      <path class="cls-1" d="m35.96,27.89c-.13,0-.26-.05-.36-.14l-2.53-2.27c-.22-.2-.24-.54-.04-.76.2-.22.54-.23.76-.04l2.18,1.95,2.18-1.95c.22-.19.56-.18.76.04.2.22.18.56-.04.76l-2.54,2.27c-.1.09-.23.14-.36.14Z"/>
    </g>
  </g>
  <g id="seguros-personas-icono-cross-selling">
    <path class="cls-1" d="m25,47.5c-.05,0-.1,0-.15-.02C1.59,40.61,5.07,8.75,5.1,8.43c.03-.29.3-.49.59-.47,11.55,1.35,18.87-5.26,18.94-5.32.21-.19.52-.19.73,0,.07.07,7.37,6.67,18.94,5.32.3-.03.56.18.59.47.04.32,3.51,32.17-19.74,39.05-.05.01-.1.02-.15.02ZM6.12,9.09c-.34,4.13-1.73,31.1,18.88,37.32,20.61-6.22,19.22-33.19,18.88-37.32-10.41,1.01-17.25-4-18.88-5.34-1.63,1.35-8.47,6.38-18.88,5.34Z"/>
  </g>
</svg>