<?xml version="1.0" encoding="UTF-8"?>
<svg xmlns="http://www.w3.org/2000/svg" viewBox="0 0 50 50">
  <defs>
    <style>
      .cls-1 {
        fill: none;
        stroke: #000;
        stroke-miterlimit: 10;
        stroke-width: .21px;
      }

      .cls-2 {
        fill: #1e1f22;
        stroke-width: 0px;
      }
    </style>
  </defs>
  <g id="iconos">
    <g id="capacitaciones-icono">
      <g>
        <path class="cls-2" d="m44.79,28.13h-16.55c-.3,0-.54-.24-.54-.54s.24-.54.54-.54h16.01V6.32H7.98v7.66c0,.3-.24.54-.54.54s-.54-.24-.54-.54V5.78c0-.3.24-.54.54-.54h37.35c.3,0,.54.24.54.54v21.81c0,.3-.24.54-.54.54Z"/>
        <path class="cls-2" d="m45.25,6.32H7c-1.05,0-1.91-.86-1.91-1.91s.86-1.91,1.91-1.91h38.25c1.05,0,1.91.86,1.91,1.91s-.86,1.91-1.91,1.91ZM7,3.57c-.46,0-.84.38-.84.84s.38.84.84.84h38.25c.46,0,.84-.38.84-.84s-.38-.84-.84-.84H7Z"/>
      </g>
      <g>
        <g>
          <path class="cls-2" d="m27.86,40.12h-5.11c-.3,0-.54-.24-.54-.54s.24-.54.54-.54h4.57l-.03-5.07s0-.08,0-.1H3.92s0,.06,0,.1v5.07h4.54c.3,0,.54.24.54.54s-.24.54-.54.54H3.38c-.3,0-.54-.24-.54-.54v-5.61c0-.81.48-1.17.96-1.17h23.59c.44,0,.96.31.96,1.17l.03,5.61c0,.14-.05.28-.16.38-.1.1-.24.16-.38.16Z"/>
          <path class="cls-2" d="m22.74,47.5c-.3,0-.54-.24-.54-.54v-9.4h-13.21v9.4c0,.3-.24.54-.54.54s-.54-.24-.54-.54v-9.62c0-.47.38-.85.85-.85h13.65c.47,0,.85.38.85.85v9.62c0,.3-.24.54-.54.54Z"/>
        </g>
        <g>
          <path class="cls-2" d="m26.6,32.26c-.12,0-.24-.04-.34-.12-.18-.14-.24-.38-.17-.59l-.82-4.09c-.16-.8-.6-1.54-1.24-2.06-.4-.33-.8-.54-1.17-.62l-3.61-1.05c-.13-.04-.26-.1-.38-.18-.31-.21-.52-.55-.56-.93l-.16-1.43c-.02-.18.05-.37.2-.48.91-.71,1.59-1.78,1.91-3.02.06-.22.25-.38.47-.4.31-.03.64-.47.64-1.13,0-.62-.29-1.04-.57-1.12-.04-.01-.09-.04-.13-.06-.18-.1-.29-.29-.28-.49,0-.03.11-2.63-1.38-4.2-.75-.79-1.8-1.19-3.13-1.19s-2.38.4-3.14,1.19c-1.51,1.57-1.41,4.18-1.4,4.2.01.25-.15.47-.39.54-.28.08-.57.5-.57,1.12,0,.66.33,1.1.64,1.13.23.02.41.18.47.4.32,1.24,1.01,2.31,1.92,3.02.15.12.22.3.2.48l-.16,1.42c-.05.39-.26.73-.57.94-.11.08-.24.14-.38.17l-3.57,1.04c-.41.09-.81.3-1.21.63-.64.52-1.08,1.26-1.24,2.06l-.82,4.09c.07.21,0,.44-.17.59-.23.19-.57.16-.75-.08-.15-.18-.2-.41-.15-.63l.83-4.18c.21-1.05.78-2,1.61-2.68.54-.44,1.08-.73,1.63-.84l3.54-1.03c.13-.07.17-.14.17-.21l.13-1.13c-.9-.78-1.59-1.86-1.97-3.09-.73-.27-1.24-1.11-1.24-2.11,0-.88.37-1.62.96-1.98.03-.87.24-3.09,1.7-4.62.97-1.01,2.28-1.52,3.91-1.52s2.95.51,3.91,1.53c1.45,1.52,1.65,3.72,1.68,4.6.57.32.97,1.09.97,2,0,1-.51,1.84-1.24,2.12-.38,1.23-1.07,2.31-1.97,3.09l.13,1.13c0,.07.05.13.11.17l3.64,1.07c.51.11,1.06.39,1.6.83.83.68,1.4,1.64,1.61,2.68l.84,4.2c.05.21-.01.44-.15.61-.1.13-.26.2-.42.2Zm-.49-.6s0,0,0,.01h0Zm-20.45-.02v.02s0-.01,0-.02Z"/>
          <path class="cls-2" d="m18.28,13.02c-.26,0-.53-.02-.81-.05-.99-.11-1.8-.5-2.58-.88-.2-.1-.4-.2-.61-.29-.74-.34-1.35-.42-1.83-.25-.34.12-.63.37-.77.65-.13.27-.45.38-.72.25-.27-.13-.38-.45-.25-.72.26-.53.76-.97,1.36-1.18.74-.27,1.63-.18,2.64.28.22.1.43.2.64.3.73.36,1.43.69,2.23.78,1.05.11,1.92-.03,2.74-.44.26-.13.59-.03.72.23.13.26.03.59-.23.72-.79.4-1.61.6-2.54.6Z"/>
          <path class="cls-2" d="m15.89,27.07c-.14,0-.28-.05-.39-.16l-3.3-3.43c-.21-.21-.2-.55.01-.76.22-.21.56-.2.76.01l3.3,3.43c.21.21.2.55-.01.76-.1.1-.24.15-.37.15Z"/>
          <path class="cls-2" d="m15.89,27.07c-.13,0-.27-.05-.37-.15-.21-.21-.22-.55-.01-.76l3.3-3.43c.21-.21.55-.22.76-.01.21.21.22.55.01.76l-3.3,3.43c-.1.11-.25.16-.39.16Z"/>
          <path class="cls-2" d="m15.9,30.22s-.1,0-.14-.02c-.1-.02-.2-.07-.27-.15l-3.65-3.91c-.2-.22-.19-.56.03-.76.22-.2.56-.19.76.03l3.27,3.5,3.27-3.5c.2-.22.54-.22.76-.03.22.2.23.54.03.76l-3.66,3.91c-.1.11-.25.1-.39.17Z"/>
        </g>
      </g>
    </g>
  </g>
  <g id="guias">
    <rect class="cls-1" x="47.5" y="47.5" width="2.5" height="2.5"/>
    <rect class="cls-1" x="47.5" width="2.5" height="2.5"/>
    <rect class="cls-1" y="47.5" width="2.5" height="2.5"/>
    <rect class="cls-1" width="2.5" height="2.5"/>
  </g>
</svg>