<?xml version="1.0" encoding="UTF-8"?>
<svg xmlns="http://www.w3.org/2000/svg" viewBox="0 0 50 50">
  <defs>
    <style>
      .cls-1 {
        fill: none;
        stroke: #000;
        stroke-miterlimit: 10;
        stroke-width: .21px;
      }

      .cls-2 {
        fill: #1e1f22;
        stroke-width: 0px;
      }
    </style>
  </defs>
  <g id="iconos">
    <g>
      <path class="cls-2" d="m27.37,36.2c-1.3,0-2.57-.35-3.71-1.04-1.64-.99-2.8-2.57-3.26-4.43-.46-1.86-.16-3.79.83-5.44.99-1.64,2.57-2.8,4.43-3.26.14-.03.28-.01.39.06.12.07.2.19.24.32l1.47,5.96,5.97-1.47c.14-.03.28,0,.4.06.12.07.2.19.24.32.95,3.85-1.41,7.75-5.26,8.7-.57.14-1.15.21-1.73.21Zm-1.96-13.01c-1.37.46-2.53,1.39-3.28,2.64-.85,1.4-1.1,3.05-.71,4.65.39,1.59,1.38,2.94,2.79,3.79,1.4.85,3.06,1.1,4.65.71,3.12-.77,5.09-3.8,4.6-6.92l-5.94,1.47c-.28.06-.57-.1-.63-.38l-1.46-5.94Z"/>
      <path class="cls-2" d="m29.63,25.76c-.24,0-.45-.16-.51-.4l-1.6-6.47c-.03-.13-.01-.28.06-.39.07-.12.19-.2.32-.24,3.84-.94,7.75,1.41,8.7,5.26.03.13.01.28-.06.39-.07.12-.19.2-.32.24l-6.47,1.59s-.08.01-.12.01Zm-.96-6.59l1.34,5.43,5.43-1.34c-.96-2.82-3.83-4.56-6.77-4.1Z"/>
      <g>
        <path class="cls-2" d="m3.88,47.45c-.05,0-.11,0-.16-.02-.17-.05-.3-.19-.35-.36-1.23-4.56-1.17-9.32.19-13.76L12.22,4.94c.27-.88.86-1.59,1.68-2.01.83-.43,1.79-.5,2.7-.19l1.42.48c1.84.62,2.88,2.6,2.33,4.42l-8.65,28.36c-1.35,4.44-3.94,8.36-7.47,11.32-.1.08-.22.12-.34.12ZM15.47,3.6c-.38,0-.75.09-1.09.26-.56.29-.97.78-1.15,1.38l-8.66,28.36c-1.22,3.99-1.35,8.24-.38,12.36,3.06-2.76,5.3-6.3,6.51-10.27L19.35,7.34c.39-1.28-.35-2.69-1.66-3.12l-1.42-.48c-.27-.09-.54-.13-.8-.13Z"/>
        <path class="cls-2" d="m19.4,24.93c-.05,0-.1,0-.15-.02-.28-.08-.43-.38-.35-.65l2.58-8.45c.39-1.28-.35-2.69-1.66-3.12l-8.55-2.87c-.27-.09-.42-.39-.33-.66.09-.27.38-.42.66-.33l8.55,2.87c1.84.62,2.88,2.6,2.33,4.42l-2.58,8.45c-.07.22-.28.37-.5.37Z"/>
        <path class="cls-2" d="m14.3,26.19c-.06,0-.11,0-.17-.03l-7.13-2.39c-.28-.09-.42-.39-.33-.66.09-.27.39-.42.66-.33l7.13,2.39c.28.09.42.39.33.66-.07.22-.28.36-.5.36Z"/>
      </g>
      <path class="cls-2" d="m16.29,47.43c-.1,0-.2-.03-.29-.09-.12-.08-.2-.2-.22-.33l-2.74-13.33c-.06-.28.12-.56.41-.62.28-.06.56.12.62.41l2.63,12.82,29.66-6.09-6.23-30.36-16.53,3.39c-.27.04-.56-.12-.62-.41-.06-.28.12-.56.41-.62l17.05-3.5c.14-.02.28,0,.39.08.12.08.2.2.22.33l6.44,31.39c.06.28-.12.56-.41.62l-30.69,6.3s-.07.01-.1.01Z"/>
    </g>
  </g>
  <g id="guias">
    <g>
      <rect class="cls-1" x="47.5" y="47.5" width="2.5" height="2.5"/>
      <rect class="cls-1" x="47.5" width="2.5" height="2.5"/>
      <rect class="cls-1" y="47.5" width="2.5" height="2.5"/>
      <rect class="cls-1" width="2.5" height="2.5"/>
    </g>
  </g>
</svg>