<?xml version="1.0" encoding="UTF-8"?>
<svg xmlns="http://www.w3.org/2000/svg" viewBox="0 0 50 50">
  <defs>
    <style>
      .cls-1 {
        fill: none;
        stroke: #000;
        stroke-miterlimit: 10;
        stroke-width: .21px;
      }

      .cls-2 {
        fill: #1e1f22;
        stroke-width: 0px;
      }
    </style>
  </defs>
  <g id="iconos">
    <g>
      <path class="cls-2" d="m2.5,47.42L15.43,12.77h6.44l12.85,34.64h-6.7l-2.8-7.89h-13.24l-2.93,7.89H2.5Zm11.29-13.14h9.58l-2.22-6.1c-.3-.86-.66-1.92-1.08-3.17-.42-1.25-.76-2.25-1-3.01-.25-.76-.38-1.13-.4-1.13.02,0-.11.39-.37,1.16s-.61,1.76-1.04,2.95c-.43,1.2-.83,2.26-1.2,3.19l-2.27,6.1Z"/>
      <path class="cls-2" d="m47.5,12.15h-6.07v6.34h-3.52v-6.34h-6.11v-3.19h6.11V2.58h3.52v6.37h6.07v3.19Z"/>
    </g>
  </g>
  <g id="guias">
    <rect class="cls-1" x="47.5" y="47.5" width="2.5" height="2.5"/>
    <rect class="cls-1" x="47.5" width="2.5" height="2.5"/>
    <rect class="cls-1" y="47.5" width="2.5" height="2.5"/>
    <rect class="cls-1" width="2.5" height="2.5"/>
  </g>
</svg>