<?xml version="1.0" encoding="UTF-8"?>
<svg xmlns="http://www.w3.org/2000/svg" viewBox="0 0 50 50">
  <defs>
    <style>
      .cls-1 {
        fill: none;
        stroke: #000;
        stroke-miterlimit: 10;
        stroke-width: .21px;
      }

      .cls-2 {
        fill: #1e1f22;
        stroke-width: 0px;
      }
    </style>
  </defs>
  <g id="iconos">
    <g>
      <g id="seguros-personas-icono-cross-selling">
        <path class="cls-2" d="m25,47.5s-.1,0-.15-.02C1.59,40.6,5.07,8.74,5.11,8.42c.02-.14.09-.26.19-.35.11-.09.25-.12.39-.11,11.6,1.36,18.89-5.26,18.96-5.33.2-.18.51-.18.71,0,.07.07,7.41,6.69,18.96,5.33.28-.04.55.17.58.46.04.32,3.51,32.18-19.74,39.06-.05.01-.1.02-.15.02ZM6.1,9.06c-.34,4.09-1.75,31.13,18.9,37.37,20.67-6.24,19.24-33.28,18.9-37.37-10.43,1.04-17.29-4.01-18.9-5.35-1.61,1.34-8.47,6.38-18.9,5.35Z"/>
      </g>
      <g>
        <g>
          <g>
            <path class="cls-2" d="m19.71,32.84c-1.78,0-3.22-1.45-3.22-3.23s1.45-3.22,3.22-3.22,3.22,1.45,3.22,3.22-1.45,3.23-3.22,3.23Zm0-5.4c-1.2,0-2.18.98-2.18,2.18s.98,2.18,2.18,2.18,2.18-.98,2.18-2.18-.98-2.18-2.18-2.18Z"/>
            <path class="cls-2" d="m30.3,32.84c-1.78,0-3.23-1.45-3.23-3.23s1.45-3.22,3.23-3.22,3.22,1.45,3.22,3.22-1.45,3.23-3.22,3.23Zm0-5.4c-1.2,0-2.18.98-2.18,2.18s.98,2.18,2.18,2.18,2.18-.98,2.18-2.18-.98-2.18-2.18-2.18Z"/>
          </g>
          <path class="cls-2" d="m27.59,30.13c-.18,0-.36-.1-.46-.27-.43-.79-1.25-1.28-2.15-1.28s-1.69.47-2.12,1.23c-.15.25-.46.33-.72.19-.25-.15-.34-.46-.19-.72.62-1.08,1.78-1.75,3.03-1.75s2.46.7,3.07,1.82c.14.26.04.57-.21.71-.08.04-.17.06-.25.06Z"/>
        </g>
        <path class="cls-2" d="m35.06,25.28H14.94c-.29,0-.52-.23-.52-.52s.23-.52.52-.52h20.13c.29,0,.52.23.52.52s-.23.52-.52.52Z"/>
        <path class="cls-2" d="m17,25.28c-.06,0-.13-.01-.19-.03-.27-.1-.4-.41-.3-.68l2.73-7.06c.29-.75.89-1.32,1.66-1.56.77-.25,1.59-.13,2.25.32l3.43,2.3c.24.16.3.49.15.73-.16.24-.49.3-.73.15l-3.43-2.3c-.4-.27-.9-.34-1.36-.19-.46.15-.82.49-1,.94l-2.73,7.06c-.08.21-.28.34-.49.34Z"/>
        <path class="cls-2" d="m33,25.28c-.21,0-.41-.13-.49-.34l-2.73-7.06c-.17-.45-.54-.79-1-.94-.46-.15-.95-.08-1.36.19l-2.13,1.43c-.23.16-.56.09-.73-.15-.16-.24-.1-.56.15-.73l2.13-1.43c.66-.45,1.48-.57,2.25-.32.76.24,1.37.81,1.66,1.56l2.73,7.06c.1.27-.03.57-.3.68-.06.02-.12.03-.19.03Z"/>
      </g>
    </g>
  </g>
  <g id="guias">
    <rect class="cls-1" x="47.5" y="47.5" width="2.5" height="2.5"/>
    <rect class="cls-1" x="47.5" width="2.5" height="2.5"/>
    <rect class="cls-1" y="47.5" width="2.5" height="2.5"/>
    <rect class="cls-1" width="2.5" height="2.5"/>
  </g>
</svg>