<?xml version="1.0" encoding="UTF-8"?>
<svg xmlns="http://www.w3.org/2000/svg" viewBox="0 0 50 50">
  <defs>
    <style>
      .cls-1 {
        fill: none;
        stroke: #000;
        stroke-miterlimit: 10;
        stroke-width: .21px;
      }

      .cls-2 {
        fill: #1e1f22;
        stroke-width: 0px;
      }
    </style>
  </defs>
  <g id="iconos">
    <g>
      <path class="cls-2" d="m5.42,25.96c-.19,0-.37-.11-.46-.29-.1-.21-2.45-5.26,0-10.84,2.41-5.49,4.28-6.87,4.36-6.92.23-.16.54-.11.71.12s.11.54-.12.71c-.01,0-1.75,1.33-4.01,6.5-2.25,5.14-.03,9.95,0,9.99.12.25.01.55-.24.68-.07.03-.14.05-.22.05Z"/>
      <path class="cls-2" d="m5.34,12.42c-.47,0-.91-.15-1.28-.45-1.48-1.19-1.52-3.17-1.56-4.61-.02-.36-.03-.74.23-1,.05-.05.1-.08.16-.11.35-.15.68.02.91.13l-.14.49.21-.46-.21.46.24-.45c1.32.6,3.12,1.43,3.63,3.25.23.84-.08,1.71-.84,2.31-.03.03-.11.09-.15.1-.4.21-.81.32-1.2.32Zm-1.82-5.05c.03,1.31.08,2.93,1.18,3.81.49.39,1.06.19,1.35.03.28-.22.68-.66.51-1.26-.38-1.36-1.85-2.04-3.04-2.58Z"/>
      <path class="cls-2" d="m7.92,16.7c-.18,0-.35-.01-.54-.04-.86-.13-1.52-.78-1.76-1.72,0-.04-.03-.14-.03-.18-.06-1,.36-1.81,1.14-2.2,1.7-.86,3.52-.07,4.85.49.33.13.68.27.81.62.02.06.03.13.03.19-.01.37-.3.61-.49.77l-.4-.33.3.41c-.99.86-2.3,2-3.92,2Zm.46-3.51c-.41,0-.81.08-1.19.27-.56.28-.61.88-.59,1.21.09.34.31.89.94.99,1.38.22,2.62-.84,3.61-1.69-.84-.36-1.83-.78-2.77-.78Zm2.85.81l.3.3-.24-.28s-.04-.02-.06-.03Z"/>
      <path class="cls-2" d="m11.44,9.54c-.72,0-1.4-.39-1.86-1.08-.02-.04-.1-.18-.11-.22-.37-.86-.24-1.77.37-2.4,1.31-1.37,3.29-1.24,4.74-1.14.36.02.73.03.97.32.04.05.07.11.09.17.11.36-.08.68-.21.89l-.49-.18.42.28c-.72,1.26-1.7,2.98-3.56,3.32-.12.02-.25.03-.37.03Zm1.86-3.88c-1.01,0-2.03.16-2.73.88-.44.46-.29,1.03-.15,1.34.19.3.61.74,1.21.63,1.38-.26,2.19-1.66,2.84-2.8-.37-.02-.77-.05-1.18-.05Zm1.26.06l.39.19-.33-.18s-.04,0-.06,0Z"/>
      <path class="cls-2" d="m29.51,32.7c-.71,0-1.39-.1-2.01-.33-.26-.1-.4-.39-.3-.65.1-.26.39-.4.65-.3,3.55,1.32,9.58-2.48,10.42-3.98.58-1.02.19-1.72-.3-2.61-.14-.26-.28-.52-.4-.78-.65-1.47.62-5.98,1.01-7,0-.03.02-.05.03-.07-.66.07-2.48.68-4.25,1.28-3.59,1.22-6.79,5.02-8.9,7.53-.41.49-.79.93-1.13,1.32-.19.21-.5.23-.72.04-.21-.19-.23-.51-.04-.72.34-.38.71-.82,1.11-1.3,2.19-2.6,5.49-6.52,9.35-7.84,3.85-1.31,4.89-1.63,5.42-1.08.38.39.16.97.08,1.19-.52,1.38-1.44,5.3-1.03,6.23.1.24.23.47.36.7.51.93,1.15,2.09.29,3.6s-5.67,4.76-9.65,4.76Z"/>
      <path class="cls-2" d="m27.84,43.38c-3.88,0-8.36-1.3-11.1-5.03-2.1-2.86-3.61-7.97-4.61-11.35l-.16-.54c-.69-2.34-2.64-3.84-4.53-5.29l-.18-.14c-.15-.11-.22-.3-.19-.49s.17-.34.35-.39l.13-.04c.59-.19,1.11-.35,1.55-.71,1.59-1.33,4.03-3.03,6.89-2.75,2.95.31,5.95,1.16,7.98,5.18l1.51,3.42c.11.26,0,.55-.26.67-.25.11-.55,0-.67-.26l-1.49-3.4c-1.89-3.75-4.7-4.34-7.18-4.6-2.47-.26-4.69,1.31-6.14,2.52-.35.29-.73.49-1.11.63,1.82,1.42,3.6,2.96,4.31,5.36l.16.54c.98,3.31,2.46,8.32,4.46,11.04,2.98,4.05,8.25,4.98,12.19,4.51,2.82-.34,5.15-1.45,5.67-2.7.1-.26.4-.39.66-.27.26.11.38.4.27.66-.67,1.62-3.22,2.92-6.49,3.31-.65.08-1.32.12-2.02.12Z"/>
      <path class="cls-2" d="m41.7,45.35c-.2,0-.36-.05-.46-.09-3.64-1.15-5.37-4.38-6.96-7.88-.12-.26,0-.56.25-.67.25-.12.55,0,.67.25,1.49,3.28,3.1,6.31,6.34,7.34.1.03.14.04.15.04h0c.1-.09.26-.69.32-.91.04-.15.08-.29.11-.39.18-.53.55-.96,1.08-1.28.17-.1.36-.18.55-.26.25-.1.46-.18.57-.33.06-.08.09-.19.13-.33.07-.24.16-.54.44-.82.06-.06.2-.17.38-.3.64-.48,1.04-.82,1.17-1.03-.59-.28-1.2-.4-1.85-.53-.39-.08-.79-.16-1.17-.27-1.5-.43-4.58-1.74-6.57-2.72-.96-.47-1.77-1.14-2.43-2-.58-.76-1.24-1.63-1.24-1.63-.17-.22-.12-.54.1-.71.22-.17.54-.13.71.1,0,0,.65.87,1.24,1.63.56.73,1.25,1.3,2.07,1.7,1.96.96,4.96,2.24,6.41,2.65.36.1.73.17,1.09.25.72.14,1.46.29,2.17.65.43.21.52.54.53.72.06.69-.73,1.34-1.62,2-.13.1-.23.17-.28.22-.09.09-.12.19-.18.38-.05.18-.12.41-.28.63-.28.39-.69.55-1.02.68-.14.06-.28.11-.4.18-.32.2-.54.45-.65.75-.03.08-.06.19-.09.31-.15.59-.36,1.39-.98,1.62-.11.04-.22.05-.32.05Z"/>
    </g>
  </g>
  <g id="guias">
    <g>
      <rect class="cls-1" x="47.5" y="47.5" width="2.5" height="2.5"/>
      <rect class="cls-1" x="47.5" width="2.5" height="2.5"/>
      <rect class="cls-1" y="47.5" width="2.5" height="2.5"/>
      <rect class="cls-1" width="2.5" height="2.5"/>
    </g>
  </g>
</svg>