<?xml version="1.0" encoding="UTF-8"?>
<svg xmlns="http://www.w3.org/2000/svg" viewBox="0 0 50 50">
  <defs>
    <style>
      .cls-1 {
        fill: none;
        stroke: #000;
        stroke-miterlimit: 10;
        stroke-width: .21px;
      }

      .cls-2 {
        fill: #1e1f22;
        stroke-width: 0px;
      }
    </style>
  </defs>
  <g id="iconos">
    <g>
      <path class="cls-2" d="m47.01,43.72h-2.72c-.27,0-.49-.22-.49-.49v-25.64c0-.27-.22-.48-.48-.48H6.68c-.27,0-.48.22-.48.48v25.64c0,.27-.22.49-.49.49h-2.72c-.27,0-.49-.22-.49-.49V14.57c0-.21.13-.39.32-.46l21.68-7.75c.32-.11.67-.11.98,0l21.69,7.75c.19.07.32.25.32.46v28.66c0,.27-.22.49-.49.49Zm-2.23-.98h1.75V14.92l-21.36-7.63c-.1-.04-.22-.04-.33,0L3.48,14.92v27.82h1.75v-25.15c0-.8.65-1.46,1.46-1.46h36.64c.8,0,1.46.65,1.46,1.46v25.15Z"/>
      <path class="cls-2" d="m44.29,22.27H5.71c-.27,0-.49-.22-.49-.49s.22-.49.49-.49h38.58c.27,0,.49.22.49.49s-.22.49-.49.49Z"/>
      <path class="cls-2" d="m44.29,24.79H5.71c-.27,0-.49-.22-.49-.49s.22-.49.49-.49h38.58c.27,0,.49.22.49.49s-.22.49-.49.49Z"/>
      <path class="cls-2" d="m44.29,19.75H5.71c-.27,0-.49-.22-.49-.49s.22-.49.49-.49h38.58c.27,0,.49.22.49.49s-.22.49-.49.49Z"/>
    </g>
  </g>
  <g id="guias">
    <rect class="cls-1" x="47.5" y="47.5" width="2.5" height="2.5"/>
    <rect class="cls-1" x="47.5" width="2.5" height="2.5"/>
    <rect class="cls-1" y="47.5" width="2.5" height="2.5"/>
    <rect class="cls-1" width="2.5" height="2.5"/>
  </g>
</svg>