<?xml version="1.0" encoding="UTF-8"?>
<svg xmlns="http://www.w3.org/2000/svg" viewBox="0 0 50 50">
  <defs>
    <style>
      .cls-1 {
        fill: none;
        stroke: #000;
        stroke-miterlimit: 10;
        stroke-width: .21px;
      }

      .cls-2 {
        fill: #1e1f22;
        stroke-width: 0px;
      }
    </style>
  </defs>
  <g id="iconos">
    <g id="pensiones-voluntarias-icono">
      <path class="cls-2" d="m7.66,44.94c-.26,0-.48-.22-.48-.48v-11.71c0-.86-.34-1.67-.94-2.27l-2.84-2.84c-.19-.19-.19-.49,0-.68s.49-.19.68,0l2.84,2.84c.79.79,1.22,1.84,1.22,2.95v11.71c0,.26-.22.48-.48.48Z"/>
      <path class="cls-2" d="m20.95,44.94c-.26,0-.48-.22-.48-.48v-11.71c0-1.12.44-2.16,1.22-2.95l1.76-1.76c.19-.19.49-.19.68,0,.19.19.19.49,0,.68l-1.76,1.76c-.61.61-.94,1.42-.94,2.27v11.71c0,.26-.22.48-.48.48Z"/>
      <path class="cls-2" d="m15.08,33.68c-.23,0-.44-.07-.63-.19-4.62-3.08-6.37-7.72-6.55-8.24-.09-.25.04-.53.29-.61.26-.09.53.04.61.29.17.49,1.82,4.85,6.18,7.76h.18c4.44-2.96,6.02-7.27,6.19-7.75.09-.25.37-.38.61-.3.25.09.38.36.3.61-.18.51-1.86,5.1-6.56,8.24-.18.12-.4.19-.62.19Z"/>
      <path class="cls-2" d="m15.08,30.94c-.26,0-.48-.22-.48-.48v-5.46c0-.26.22-.48.48-.48s.48.22.48.48v5.46c0,.26-.22.48-.48.48Z"/>
      <path class="cls-2" d="m2.98,44.94c-.26,0-.48-.22-.48-.48v-15.86c0-1.52.98-2.83,2.43-3.27l4.19-1.26.37-.73c.06-.11.13-.21.22-.3-1.4-1.31-2.35-3.2-2.57-5.16-.86-.35-1.48-1.11-1.63-2-.08-.46-.03-.93.14-1.37-.77-.57-1.24-1.47-1.24-2.44,0-.92.44-1.81,1.16-2.38-.01-.1-.02-.2-.02-.29,0-1.46,1.19-2.65,2.65-2.65.24,0,.48.03.71.1,1.3-1.09,2.94-1.68,4.64-1.68h3.05c1.7,0,3.34.6,4.64,1.68.23-.06.47-.1.71-.1,1.46,0,2.65,1.19,2.65,2.65,0,.1,0,.2-.02.29.72.57,1.16,1.46,1.16,2.38,0,.98-.47,1.88-1.24,2.44.16.43.21.91.14,1.37-.14.89-.77,1.65-1.63,2-.22,1.96-1.17,3.85-2.57,5.16.09.08.16.19.22.3l.37.73,4.03,1.22c.26.08.4.35.32.6-.08.26-.35.39-.6.32l-4.22-1.28c-.13-.04-.23-.13-.29-.25l-.46-.92c-.04-.08-.13-.1-.2-.08-.22.06-.46-.04-.57-.25-.11-.21-.04-.47.15-.6,1.64-1.18,2.75-3.23,2.91-5.34.02-.2.15-.37.35-.43.66-.18,1.15-.71,1.25-1.34.06-.39-.02-.8-.22-1.15-.07-.11-.08-.25-.05-.38s.12-.23.24-.29c.69-.36,1.12-1.06,1.12-1.84,0-.71-.38-1.38-.98-1.75-.18-.11-.26-.32-.21-.52.03-.13.05-.26.05-.4,0-.93-.76-1.69-1.69-1.69-.22,0-.43.04-.63.12-.17.07-.37.04-.5-.09-1.15-1.05-2.65-1.62-4.21-1.62h-3.05c-1.56,0-3.05.58-4.21,1.62-.14.12-.34.16-.5.09-.2-.08-.41-.12-.63-.12-.93,0-1.69.76-1.69,1.69,0,.14.02.27.05.4.05.2-.03.41-.21.52-.6.38-.98,1.05-.98,1.75,0,.77.43,1.48,1.12,1.84.12.06.2.17.24.29.04.13.02.26-.05.38-.21.35-.28.75-.22,1.15.1.63.59,1.16,1.25,1.34.2.05.33.23.35.43.16,2.11,1.27,4.16,2.9,5.34.19.14.25.39.15.6-.1.21-.35.31-.57.25-.07-.03-.15,0-.2.08l-.46.92c-.06.12-.17.21-.29.25l-4.39,1.32c-1.05.32-1.75,1.26-1.75,2.35v15.86c0,.26-.22.48-.48.48Z"/>
      <path class="cls-2" d="m15.08,25.08c-4.29,0-7.78-3.49-7.78-7.77,0-.15-.12-.28-.28-.28-.79,0-1.47-.54-1.59-1.26-.13-.81.37-1.55,1.16-1.73,1.22-.28,2.05-1.31,2.05-2.48,0-.38-.09-.76-.26-1.11-.09-.19-.06-.41.09-.56.39-.39.62-.92.62-1.47,0-.4-.11-.79-.33-1.12-.13-.2-.09-.47.09-.63,1.24-1.05,2.81-1.63,4.44-1.63h3.58c1.65,0,3.19.56,4.44,1.62.19.16.23.43.09.63-.22.34-.33.72-.33,1.13,0,.55.23,1.08.62,1.47.15.15.19.37.09.56-.17.34-.26.72-.26,1.11,0,1.2.85,2.24,2.03,2.47l-.06.48.18-.44c.63.19,1.2.83,1.06,1.7-.12.72-.8,1.26-1.59,1.26-.15,0-.28.12-.28.28,0,4.29-3.49,7.77-7.77,7.77Zm-5.7-14.75c.15.39.23.81.23,1.23,0,1.61-1.14,3.04-2.71,3.39-.38.09-.56.36-.5.67.04.25.32.45.64.45.68,0,1.24.56,1.24,1.24,0,3.76,3.06,6.81,6.82,6.81s6.81-3.06,6.81-6.81c0-.68.56-1.24,1.24-1.24.32,0,.6-.2.64-.45.06-.39-.22-.58-.38-.63-.02,0-.11-.04-.14-.05-1.52-.28-2.7-1.71-2.7-3.37,0-.42.08-.84.23-1.23-.43-.53-.68-1.21-.68-1.9,0-.44.1-.87.28-1.26-1.02-.76-2.23-1.15-3.51-1.15h-3.58c-1.27,0-2.5.41-3.51,1.16.18.39.28.82.28,1.26,0,.69-.24,1.37-.68,1.9Z"/>
      <path class="cls-2" d="m12.5,28c-.19,0-.37-.08-.49-.24l-2.76-3.45c-.12-.15-.14-.36-.04-.53,0-.04.06-.19.08-.23l.26-.52c.12-.24.41-.33.64-.22l4.23,2.12c.13.06.22.18.25.32.03.14,0,.29-.08.4l-1.58,2.1c-.11.15-.28.24-.48.25h-.03Zm-.26-.83s0,0,0,0h0Zm-2.07-3.25l2.33,2.91.98-1.3-3.29-1.64-.02.04Z"/>
      <path class="cls-2" d="m17.62,28h-.03c-.2-.01-.37-.1-.48-.26l-1.57-2.1c-.08-.11-.12-.26-.08-.4.03-.14.13-.26.25-.32l4.23-2.12c.11-.06.25-.07.37-.03.12.04.22.13.28.24l.26.52s.03.08.04.12c.09.17.11.49,0,.64l-2.76,3.45c-.12.15-.3.24-.49.24Zm.25-.83h0s0,0,0,0Zm-1.23-1.64l.98,1.3,2.33-2.91-.02-.04-3.29,1.64Z"/>
      <path class="cls-2" d="m15.08,21.16c-.92,0-1.79-.43-2.4-1.18-.17-.2-.14-.51.07-.68.2-.17.51-.14.68.07.85,1.04,2.46,1.05,3.31,0,.17-.21.47-.24.68-.07.21.17.24.47.07.68-.61.75-1.48,1.18-2.4,1.18Z"/>
      <path class="cls-2" d="m47.02,44.94c-.26,0-.48-.22-.48-.48v-9.63c0-1.41-.72-2.69-1.92-3.41-.12-.07-.2-.19-.23-.32s.01-.28.1-.38c.34-.43.53-.97.53-1.52,0-.89-.49-1.72-1.28-2.15-.16-.09-.26-.26-.25-.45,0-.75-.32-1.38-.87-1.77-.17-.12-.24-.33-.18-.53.04-.14.08-.28.11-.42.08-.35.13-.71.15-1.1,0-.09.03-.17.08-.24.96-1.42,1.47-3.08,1.47-4.8,0-4.72-3.84-8.56-8.56-8.56s-8.56,3.84-8.56,8.56c0,1.72.51,3.38,1.47,4.8.05.07.08.16.08.24.02.41.07.77.15,1.1.03.14.07.29.11.42.06.2-.02.41-.18.53-.54.39-.87,1.02-.87,1.69,0,.18-.09.44-.25.53-.79.43-1.28,1.25-1.28,2.15,0,.55.19,1.09.53,1.52.08.11.12.25.1.38s-.11.26-.23.32c-1.21.72-1.92,2-1.92,3.41v9.63c0,.26-.22.48-.48.48s-.48-.22-.48-.48v-9.63c0-1.58.73-3.03,1.97-3.95-.29-.51-.44-1.09-.44-1.68,0-1.15.58-2.21,1.53-2.84.05-.8.41-1.55,1-2.09-.02-.06-.03-.11-.04-.17-.08-.35-.14-.72-.16-1.13-1.02-1.55-1.56-3.36-1.56-5.23,0-5.25,4.27-9.52,9.52-9.52s9.52,4.27,9.52,9.52c0,1.87-.54,3.67-1.56,5.23-.03.4-.08.77-.16,1.13-.01.06-.03.11-.04.17.59.53.95,1.29,1,2.09.95.63,1.53,1.69,1.53,2.84,0,.59-.16,1.17-.44,1.68,1.24.93,1.97,2.37,1.97,3.95v9.63c0,.26-.22.48-.48.48Z"/>
      <path class="cls-2" d="m35.69,32.16c-1.79,0-3.49-.67-4.79-1.88-.2-.18-.21-.49-.03-.68.18-.2.49-.2.68-.03,1.13,1.05,2.6,1.62,4.14,1.62s3.01-.58,4.14-1.62c.2-.18.5-.17.68.03.18.19.17.5-.03.68-1.3,1.21-3.01,1.88-4.79,1.88Z"/>
      <path class="cls-2" d="m35.69,34.28c-3.08,0-6.02-1.15-8.27-3.24-.2-.18-.21-.49-.03-.68.18-.2.49-.2.68-.03,2.07,1.93,4.77,2.99,7.61,2.99s5.54-1.06,7.62-2.99c.2-.18.5-.17.68.03.18.19.17.5-.03.68-2.25,2.09-5.19,3.24-8.27,3.24Z"/>
      <path class="cls-2" d="m35.79,30.32c-1.79,0-3.46-.59-4.85-1.71-.74-.6-2.53-2.23-3.01-4.35-.06-.26.11-.52.36-.58.27-.06.52.11.58.36.29,1.27,1.29,2.69,2.68,3.81,2.42,1.96,6.06,1.96,8.48,0,1.18-.95,2.01-2.29,2.34-3.76.09-.38.14-.79.15-1.25,0-.05,0-.1.02-.15-.22-1.16-.72-1.87-1.72-2.41-.23-.13-.32-.42-.19-.65.13-.24.42-.32.65-.19,1.28.7,1.97,1.68,2.22,3.18.01.07,0,.14,0,.2-.03.58-.08,1.05-.18,1.49-.38,1.68-1.33,3.2-2.68,4.29-1.39,1.12-3.06,1.71-4.84,1.71Z"/>
      <path class="cls-2" d="m29.47,44.94c-.26,0-.48-.22-.48-.48v-8.82c0-.26.22-.48.48-.48s.48.22.48.48v8.82c0,.26-.22.48-.48.48Z"/>
      <path class="cls-2" d="m42.37,44.94c-.26,0-.48-.22-.48-.48v-8.82c0-.26.22-.48.48-.48s.48.22.48.48v8.82c0,.26-.22.48-.48.48Z"/>
      <path class="cls-2" d="m12.02,17.09c-.26,0-.48-.22-.48-.48v-1.32c0-.26.22-.48.48-.48s.48.22.48.48v1.32c0,.26-.22.48-.48.48Z"/>
      <path class="cls-2" d="m18.2,17.09c-.26,0-.48-.22-.48-.48v-1.32c0-.26.22-.48.48-.48s.48.22.48.48v1.32c0,.26-.22.48-.48.48Z"/>
      <path class="cls-2" d="m35.65,27.03c-.92,0-1.79-.43-2.4-1.18-.17-.21-.14-.51.07-.68.2-.16.51-.14.68.07.85,1.04,2.46,1.05,3.31,0,.17-.21.47-.23.68-.07.2.17.24.47.07.68-.61.75-1.49,1.18-2.4,1.18Z"/>
      <path class="cls-2" d="m32.6,22.52c-.26,0-.48-.22-.48-.48v-.39c0-.26.22-.48.48-.48s.48.22.48.48v.39c0,.26-.22.48-.48.48Z"/>
      <path class="cls-2" d="m38.77,22.52c-.26,0-.48-.22-.48-.48v-.39c0-.26.22-.48.48-.48s.48.22.48.48v.39c0,.26-.22.48-.48.48Z"/>
      <path class="cls-2" d="m42.87,22.27c-.18,0-.35-.1-.44-.28-.83-1.8-2.71-2.3-4.69-2.84-1.68-.45-3.41-.92-4.92-2.14-.04-.03-.09-.04-.14-.03-.05.01-.09.04-.11.09h0s-.73,1.47-2.21,2.22c-.23.12-.52.02-.64-.22s-.02-.53.22-.64c1.17-.58,1.78-1.77,1.78-1.79.16-.31.44-.53.77-.6.33-.07.68,0,.94.22,1.36,1.09,2.99,1.53,4.57,1.96,2.02.55,4.29,1.16,5.32,3.37.11.24,0,.53-.23.64-.07.03-.14.05-.2.05Z"/>
      <path class="cls-2" d="m26.51,31.49c-.21,0-.4-.14-.46-.35-.07-.26.07-.52.33-.59.03,0,3.33-.96,6.06-1.9.24-.09.53.05.61.3.09.25-.05.52-.3.61-2.75.95-6.07,1.91-6.11,1.91-.05.01-.09.02-.13.02Z"/>
      <path class="cls-2" d="m45.09,31.49s-.09,0-.13-.02c-.03,0-3.36-.97-6.11-1.91-.25-.09-.38-.36-.3-.61.09-.25.37-.39.61-.3,2.73.94,6.03,1.89,6.06,1.9.26.07.4.34.33.59-.06.21-.25.35-.46.35Z"/>
      <path class="cls-2" d="m32.6,24.32c-1.4,0-2.53-1.14-2.53-2.53s1.14-2.53,2.53-2.53,2.53,1.14,2.53,2.53-1.14,2.53-2.53,2.53Zm0-4.1c-.87,0-1.57.71-1.57,1.57s.71,1.57,1.57,1.57,1.57-.71,1.57-1.57-.71-1.57-1.57-1.57Z"/>
      <path class="cls-2" d="m38.77,24.32c-1.4,0-2.53-1.14-2.53-2.53s1.14-2.53,2.53-2.53,2.53,1.14,2.53,2.53-1.14,2.53-2.53,2.53Zm0-4.1c-.87,0-1.57.71-1.57,1.57s.71,1.57,1.57,1.57,1.57-.71,1.57-1.57-.71-1.57-1.57-1.57Z"/>
      <path class="cls-2" d="m36.87,23.05c-.26,0-.48-.22-.48-.48,0-.21-.29-.44-.69-.44s-.69.23-.69.44c0,.26-.22.48-.48.48s-.48-.22-.48-.48c0-.77.74-1.4,1.65-1.4s1.65.63,1.65,1.4c0,.26-.22.48-.48.48Z"/>
    </g>
  </g>
  <g id="guias">
    <g>
      <rect class="cls-1" x="47.5" y="47.5" width="2.5" height="2.5"/>
      <rect class="cls-1" x="47.5" width="2.5" height="2.5"/>
      <rect class="cls-1" y="47.5" width="2.5" height="2.5"/>
      <rect class="cls-1" width="2.5" height="2.5"/>
    </g>
  </g>
</svg>