<?xml version="1.0" encoding="UTF-8"?>
<svg xmlns="http://www.w3.org/2000/svg" viewBox="0 0 50 50">
  <defs>
    <style>
      .cls-1 {
        fill: none;
        stroke: #000;
        stroke-miterlimit: 10;
        stroke-width: .21px;
      }

      .cls-2 {
        fill: #1e1f22;
        stroke-width: 0px;
      }
    </style>
  </defs>
  <g id="iconos">
    <g>
      <path class="cls-2" d="m13.49,42.61c-.28,0-.5-.22-.5-.5v-7.04h-3.06v7.04c0,.28-.22.5-.5.5s-.5-.22-.5-.5v-7.54c0-.28.22-.5.5-.5h4.06c.28,0,.5.22.5.5v7.54c0,.28-.22.5-.5.5Z"/>
      <path class="cls-2" d="m22.19,42.61c-.28,0-.5-.22-.5-.5v-15.08h-3.06v15.08c0,.28-.22.5-.5.5s-.5-.22-.5-.5v-15.58c0-.28.22-.5.5-.5h4.06c.28,0,.5.22.5.5v15.58c0,.28-.22.5-.5.5Z"/>
      <path class="cls-2" d="m30.89,42.61c-.28,0-.5-.22-.5-.5v-11.17h-3.06v11.17c0,.28-.22.5-.5.5s-.5-.22-.5-.5v-11.67c0-.28.22-.5.5-.5h4.06c.28,0,.5.22.5.5v11.67c0,.28-.22.5-.5.5Z"/>
      <path class="cls-2" d="m39.53,42.61c-.28,0-.5-.22-.5-.5v-16.52h-3.06v16.52c0,.28-.22.5-.5.5s-.5-.22-.5-.5v-17.02c0-.28.22-.5.5-.5h4.06c.28,0,.5.22.5.5v17.02c0,.28-.22.5-.5.5Z"/>
      <path class="cls-2" d="m47,42.7H3c-.28,0-.5-.22-.5-.5V7.8c0-.28.22-.5.5-.5s.5.22.5.5v33.89h43.5c.28,0,.5.22.5.5s-.22.5-.5.5Z"/>
      <path class="cls-2" d="m3,32.21c-.15,0-.3-.07-.4-.2-.17-.22-.12-.53.1-.7l17.52-13.13c.15-.12.36-.13.53-.04l8.05,4.25,11.65-9.12c.22-.17.53-.13.7.09.17.22.13.53-.09.7l-11.9,9.31c-.15.12-.37.14-.54.05l-8.06-4.25L3.3,32.11c-.09.07-.19.1-.3.1Z"/>
      <path class="cls-2" d="m39.74,19.32s-.1,0-.15-.02c-.26-.08-.41-.36-.33-.63l1.69-5.37-5.49,1.23c-.28.06-.54-.11-.6-.38-.06-.27.11-.54.38-.6l6.34-1.41c.18-.03.36.02.48.15.12.13.16.32.11.49l-1.95,6.19c-.07.21-.26.35-.48.35Z"/>
    </g>
  </g>
  <g id="guias">
    <rect class="cls-1" x="47.5" y="47.5" width="2.5" height="2.5"/>
    <rect class="cls-1" x="47.5" width="2.5" height="2.5"/>
    <rect class="cls-1" y="47.5" width="2.5" height="2.5"/>
    <rect class="cls-1" width="2.5" height="2.5"/>
  </g>
</svg>