<?xml version="1.0" encoding="UTF-8"?>
<svg xmlns="http://www.w3.org/2000/svg" viewBox="0 0 50 50">
  <defs>
    <style>
      .cls-1 {
        fill: none;
        stroke: #000;
        stroke-miterlimit: 10;
        stroke-width: .21px;
      }

      .cls-2 {
        fill: #1e1f22;
        stroke-width: 0px;
      }
    </style>
  </defs>
  <g id="iconos">
    <g>
      <g>
        <path class="cls-2" d="m9.72,19.77h1.77s0,.11,0,.18c0,.53-.15.97-.45,1.33-.3.35-.68.53-1.15.53s-.86-.18-1.18-.54c-.32-.36-.48-.8-.48-1.32s.16-.96.48-1.32c.32-.36.71-.54,1.18-.54.7,0,1.28.39,1.5,1.04l-.34.13c-.22-.51-.65-.78-1.17-.78-.36,0-.66.14-.9.43-.24.28-.37.63-.37,1.04s.12.76.37,1.05c.25.28.56.42.92.42.33,0,.61-.12.83-.35.22-.24.36-.53.39-.91h-1.41v-.39Z"/>
        <path class="cls-2" d="m14.3,19.09l-.03.39s-.08,0-.14,0c-.6,0-.94.5-.94,1.24v1.02h-.37v-2.64h.37v.65c.22-.45.53-.68.94-.68.07,0,.12,0,.17.02"/>
        <path class="cls-2" d="m17.58,19.1v2.64h-.37v-.43c-.2.33-.49.5-.89.5-.28,0-.51-.1-.68-.31-.17-.21-.26-.48-.26-.81v-1.58h.37v1.51c0,.49.26.82.65.82.5,0,.81-.39.81-1.06v-1.27h.37Z"/>
        <path class="cls-2" d="m21.19,19.43c.23.26.35.59.35,1s-.11.74-.35,1c-.23.26-.51.39-.82.39-.41,0-.71-.16-.93-.49v1.33h-.36v-3.55h.36v.42c.22-.33.53-.49.93-.49.32,0,.6.13.82.39m-.26,1.74c.17-.19.25-.44.25-.75s-.09-.56-.25-.74c-.17-.19-.38-.28-.62-.28-.23,0-.44.1-.61.29-.18.19-.26.43-.26.74s.08.55.26.74c.18.19.38.28.61.28.25,0,.46-.09.62-.28"/>
        <path class="cls-2" d="m24.73,19.43c.24.26.36.58.36.99s-.12.73-.36,1c-.24.26-.53.39-.88.39s-.65-.13-.89-.39c-.24-.26-.36-.59-.36-1s.12-.73.36-.99c.24-.26.54-.39.89-.39s.64.13.88.39m-.26,1.72c.18-.19.26-.44.26-.74s-.09-.54-.26-.73c-.17-.19-.38-.29-.62-.29s-.46.1-.63.29c-.18.19-.26.43-.26.73s.09.55.26.74c.18.19.39.29.63.29s.45-.1.62-.29"/>
      </g>
      <path class="cls-2" d="m12.26,26.82s.02.01.03.02l-2.63-2.97c-.49-.55-1.28-.55-1.76,0l-5.39,6.06,1.76,1.98,4.5-5.08h0s4.5,5.08,4.5,5.08l1.76-1.98-2.76-3.11Z"/>
      <path class="cls-2" d="m35.63,26.82s.02.01.03.02l-2.63-2.97c-.49-.55-1.28-.55-1.76,0l-5.39,6.06,1.76,1.98,4.5-5.08,4.5,5.08,1.76-1.98-2.76-3.12Z"/>
      <path class="cls-2" d="m25.07,23.46l-4.5,5.08-4.5-5.08-1.76,1.98,2.76,3.11s-.02-.01-.03-.02l2.63,2.97c.49.55,1.28.55,1.76,0l5.39-6.06-1.76-1.98Z"/>
      <path class="cls-2" d="m42.05,29.28s0,0,0,0v-5.83h-2.34v6.47h0v.66c0,.73.53,1.32,1.17,1.32h6.62s0-2.63,0-2.63h-5.45Z"/>
    </g>
  </g>
  <g id="guias">
    <g>
      <rect class="cls-1" x="47.5" y="47.5" width="2.5" height="2.5"/>
      <rect class="cls-1" x="47.5" width="2.5" height="2.5"/>
      <rect class="cls-1" y="47.5" width="2.5" height="2.5"/>
      <rect class="cls-1" width="2.5" height="2.5"/>
    </g>
  </g>
</svg>