<?xml version="1.0" encoding="UTF-8"?>
<svg xmlns="http://www.w3.org/2000/svg" viewBox="0 0 50 50">
  <defs>
    <style>
      .cls-1 {
        fill: none;
        stroke: #000;
        stroke-miterlimit: 10;
        stroke-width: .21px;
      }

      .cls-2 {
        fill: #1e1f22;
        stroke-width: 0px;
      }
    </style>
  </defs>
  <g id="iconos">
    <g>
      <path class="cls-2" d="m4.4,8.91c-.29,0-.52-.23-.52-.52v-1.75c0-.29.23-.52.52-.52h19.17c.29,0,.52.23.52.52s-.23.52-.52.52H4.91v1.23c0,.29-.23.52-.52.52Z"/>
      <path class="cls-2" d="m5.79,25.98h-1.4c-.29,0-.52-.23-.52-.52v-7.56c0-.29.23-.52.52-.52s.52.23.52.52v7.04h.88c.29,0,.52.23.52.52s-.23.52-.52.52Z"/>
      <path class="cls-2" d="m44,25.98h-18.94c-.29,0-.52-.23-.52-.52s.23-.52.52-.52h18.42v-1.23c0-.29.23-.52.52-.52s.52.23.52.52v1.75c0,.29-.23.52-.52.52Z"/>
      <path class="cls-2" d="m44,14.31c-.29,0-.52-.23-.52-.52v-6.63h-.53c-.29,0-.52-.23-.52-.52s.23-.52.52-.52h1.05c.29,0,.52.23.52.52v7.15c0,.29-.23.52-.52.52Z"/>
      <path class="cls-2" d="m6.43,29.41c-.11,0-.21-.03-.29-.09-.11-.08-.19-.2-.22-.33L2.51,10.48c-.05-.28.14-.55.42-.6L41.87,2.7c.13-.03.27,0,.39.08.11.08.19.2.22.33l3.41,18.5c.05.28-.14.55-.42.6L6.52,29.4s-.06,0-.09,0ZM3.62,10.8l3.22,17.48,37.93-6.99-3.22-17.48L3.62,10.8Z"/>
      <path class="cls-2" d="m11.91,20.82c-1.19,0-2.24-.85-2.47-2.05-.25-1.36.65-2.67,2.02-2.92.66-.12,1.33.02,1.88.4.55.38.92.95,1.04,1.61.12.66-.02,1.32-.4,1.88-.38.55-.95.92-1.61,1.05-.15.03-.3.04-.45.04Zm0-3.98c-.09,0-.18,0-.27.02-.39.07-.72.29-.94.61-.22.32-.31.71-.24,1.1.15.8.93,1.31,1.72,1.18.39-.07.72-.29.94-.61.22-.32.31-.71.23-1.1h0c-.07-.39-.29-.72-.61-.95-.25-.17-.54-.26-.83-.26Z"/>
      <path class="cls-2" d="m36.45,16.3c-.5,0-1-.15-1.42-.44-.55-.38-.92-.95-1.04-1.61-.25-1.36.65-2.67,2.01-2.92,1.36-.26,2.67.66,2.92,2.02.12.66-.02,1.33-.4,1.88-.38.55-.95.92-1.61,1.04-.15.03-.31.04-.46.04Zm0-3.98c-.09,0-.18,0-.27.02-.39.07-.72.29-.94.61-.22.32-.31.71-.24,1.1s.29.72.61.94c.32.22.71.3,1.1.24.8-.15,1.33-.91,1.18-1.71h0c-.13-.71-.75-1.2-1.45-1.2Z"/>
      <g id="credito-rotativo-icono">
        <g>
          <path class="cls-2" d="m25.99,42.97h-2.5c-.29,0-.52-.23-.52-.52s.23-.52.52-.52h2.5c2.29,0,4.5-.68,6.4-1.96l1.82-1.24c.05-.04.01-.14-.02-.18-.25-.38-.65-.66-.94-.83-.71-.41-1.45-.41-2.28,0-3.56,1.74-6.71.33-6.84.26-1.08-.67-2.11-1.2-3.12-1.62-3.87-1.59-10.75.41-12.25,1.09-2.18.99-3.83,2.25-4.92,3.76-.17.23-.49.28-.72.12-.23-.17-.28-.49-.12-.72,1.19-1.65,2.99-3.03,5.33-4.1,1.17-.53,8.52-2.97,13.07-1.1,1.07.44,2.15,1,3.22,1.67h0s2.81,1.22,5.9-.29c1.13-.55,2.25-.54,3.25.04.39.23.92.61,1.29,1.15.37.56.25,1.27-.27,1.62l-1.82,1.24c-2.07,1.4-4.48,2.14-6.98,2.14Z"/>
          <path class="cls-2" d="m24.35,47.31c-.07,0-.15,0-.22,0-3.99-.14-7.12-.51-9.64-.8-2.23-.26-3.84-.44-4.84-.33-1.83.22-4.1.73-5.31,1.1-.27.09-.56-.06-.65-.34-.09-.27.07-.57.34-.65,1.25-.39,3.6-.92,5.49-1.15,1.12-.14,2.78.06,5.08.33,2.5.29,5.6.65,9.55.79,2.12.07,4.32-1.15,6.31-2.22l.92-.49,15.03-7.93c-.51-.79-1.58-1.48-3.65-.93-.25.07-.49.16-.74.27l-7.56,3.22c-.14.06-.31.06-.45-.02-.03-.01-.3-.17-.7-.51-.59-.52-1.59-.31-2.35.05-3.56,1.74-6.71.33-6.84.26-1.08-.67-2.11-1.2-3.12-1.62-3.87-1.59-10.75.41-12.25,1.09-2.11.96-3.73,2.18-4.82,3.63v3.5c0,.29-.23.52-.52.52s-.52-.23-.52-.52v-3.67c0-.11.03-.21.1-.3,1.19-1.65,2.99-3.03,5.33-4.1,1.17-.53,8.52-2.97,13.07-1.1,1.07.44,2.15,1,3.22,1.67h0s2.81,1.22,5.9-.29c1.35-.66,2.66-.63,3.48.1.12.11.23.19.31.25l7.31-3.12c.29-.12.58-.23.88-.31,2.77-.74,4.17.42,4.76,1.18.2.26.28.6.21.92-.07.32-.28.59-.57.75l-15.93,8.42c-2.04,1.1-4.35,2.35-6.62,2.35Z"/>
        </g>
      </g>
      <g>
        <path class="cls-2" d="m24.08,23.67c-1.45,0-2.86-.4-4.11-1.19-1.74-1.09-2.93-2.78-3.37-4.77s-.06-4.03,1.05-5.74c1.12-1.72,2.84-2.91,4.85-3.35.89-.2,1.8-.24,2.7-.12.29.04.48.3.45.58-.04.28-.3.48-.58.45-.78-.1-1.57-.07-2.34.1-1.75.38-3.24,1.41-4.21,2.9-.96,1.48-1.29,3.24-.91,4.95s1.41,3.17,2.91,4.12c1.5.94,3.29,1.25,5.03.87,3.6-.79,5.9-4.32,5.12-7.85-.42-1.91-1.67-3.52-3.43-4.42-.26-.13-.36-.44-.23-.7.13-.26.44-.35.7-.23,2.04,1.04,3.49,2.9,3.98,5.12.9,4.1-1.75,8.17-5.91,9.09-.57.12-1.13.19-1.7.19Z"/>
        <g>
          <path class="cls-2" d="m24.38,19.39c-.84,0-1.44-.47-1.46-.49-.22-.18-.26-.51-.08-.73.18-.22.51-.26.73-.08.02.01.48.37,1.08.24.24-.05.41-.16.51-.33.11-.17.14-.39.08-.61-.07-.29-.26-.64-1.11-.8-.09-.02-.18-.03-.28-.04-.61-.08-1.62-.22-1.89-1.46-.23-1.04.39-2,1.44-2.24.99-.22,1.83.22,1.87.24.25.13.35.44.22.7-.13.26-.44.35-.7.22h0s-.57-.28-1.17-.15c-.5.11-.76.51-.65,1,.11.49.36.56,1.01.65.12.02.23.03.34.05,1.07.2,1.72.73,1.92,1.57.12.49.04,1-.21,1.41-.26.41-.66.69-1.17.8-.17.04-.33.05-.48.05Z"/>
          <path class="cls-2" d="m23.56,13.86c-.24,0-.45-.17-.51-.41l-.21-.96c-.06-.28.12-.56.4-.62.29-.07.56.12.62.4l.21.96c.06.28-.12.56-.4.62-.04,0-.08.01-.11.01Z"/>
          <path class="cls-2" d="m24.95,20.24c-.24,0-.45-.16-.51-.41l-.2-.89c-.06-.28.12-.56.4-.62.27-.07.56.12.62.4l.2.89c.06.28-.12.56-.4.62-.04,0-.08.01-.11.01Z"/>
        </g>
      </g>
    </g>
  </g>
  <g id="guias">
    <g>
      <rect class="cls-1" x="47.5" y="47.5" width="2.5" height="2.5"/>
      <rect class="cls-1" x="47.5" width="2.5" height="2.5"/>
      <rect class="cls-1" y="47.5" width="2.5" height="2.5"/>
      <rect class="cls-1" width="2.5" height="2.5"/>
    </g>
  </g>
</svg>