<?xml version="1.0" encoding="UTF-8"?>
<svg xmlns="http://www.w3.org/2000/svg" viewBox="0 0 50 50">
  <defs>
    <style>
      .cls-1 {
        fill: none;
        stroke: #000;
        stroke-miterlimit: 10;
        stroke-width: .21px;
      }

      .cls-2 {
        fill: #1e1f22;
        stroke-width: 0px;
      }
    </style>
  </defs>
  <g id="iconos">
    <g id="prestamo-de-moneda-extranjera-producto-2-icono">
      <g>
        <path class="cls-2" d="m13.56,37.57c-.11,0-.22-.03-.31-.11-2.62-1.98-3.96-4.86-3.96-8.56,0-3.26,1.12-6.58,3.17-9.33l6.08-8.18c.1-.13.25-.21.42-.21h12.12c.17,0,.32.08.42.21l6.09,8.18c2.05,2.76,3.17,6.07,3.17,9.33,0,2.19-.49,4.13-1.44,5.75-.15.25-.47.33-.72.19-.25-.15-.33-.47-.19-.72.86-1.45,1.29-3.21,1.29-5.22,0-3.04-1.04-6.13-2.96-8.7l-5.93-7.97h-11.6l-5.93,7.97c-1.92,2.58-2.97,5.67-2.96,8.7,0,3.36,1.2,5.96,3.55,7.73.23.17.28.5.1.73-.1.14-.26.21-.42.21Z"/>
        <path class="cls-2" d="m31.73,12.22h-13.43c-.64,0-1.16-.52-1.16-1.16v-1.18c0-.64.52-1.16,1.16-1.16h13.43c.64,0,1.16.52,1.16,1.16v1.18c0,.64-.52,1.16-1.16,1.16Zm-13.43-2.44c-.06,0-.11.05-.11.11v1.18c0,.06.05.11.11.11h13.43c.06,0,.11-.05.11-.11v-1.18c0-.06-.05-.11-.11-.11h-13.43Z"/>
        <path class="cls-2" d="m30.53,9.78h-11.02c-.13,0-.27-.05-.36-.15l-4.07-3.95c-.1-.1-.16-.23-.16-.37s.05-.28.15-.37l1.46-1.46c1.3-1.3,3.41-1.3,4.71,0l.81.81.15-.15c1.56-1.56,4.09-1.55,5.64,0l.15.15.81-.81c1.26-1.26,3.45-1.26,4.71,0l1.46,1.46c.1.1.16.23.15.37s-.06.27-.16.37l-2.63,2.55c-.21.2-.54.2-.74-.01-.2-.21-.2-.54.01-.74l2.25-2.18-1.09-1.09c-.86-.86-2.37-.86-3.23,0l-1.18,1.18c-.1.1-.23.15-.37.15h0c-.14,0-.27-.06-.37-.15l-.52-.52c-1.15-1.15-3.02-1.15-4.16,0l-.52.52c-.2.2-.54.2-.74,0l-1.18-1.18c-.89-.89-2.34-.89-3.23,0l-1.09,1.09,3.54,3.43h10.8c.29,0,.52.23.52.52s-.23.52-.52.52Z"/>
        <path class="cls-2" d="m9.3,45.33c-.29,0-.52-.23-.52-.52v-4.16c0-.19.1-.36.26-.45.29-.17,7.18-4.06,10.79-2.53.88.37,1.77.85,2.65,1.43.03,0,2.22,1.01,4.71-.25.97-.49,2.04-.48,2.89.04.42.25.77.59,1.02.99.31.48.18,1.15-.3,1.49l-1.5,1.05c-1.71,1.21-3.71,1.84-5.77,1.84h-2.04c-.29,0-.52-.23-.52-.52s.23-.52.52-.52h2.04c1.85,0,3.64-.57,5.17-1.65l1.5-1.05c-.15-.34-.37-.56-.66-.73-.54-.32-1.24-.32-1.88,0-2.96,1.5-5.59.28-5.7.23-.89-.57-1.72-1.03-2.54-1.37-2.48-1.07-7.54,1.19-9.6,2.33v3.85c0,.29-.23.52-.52.52Z"/>
        <path class="cls-2" d="m22.59,47.5c-.26,0-.5-.02-.72-.07-7.89-1.61-12.34-.04-12.38-.02-.27.1-.57-.04-.67-.31-.1-.27.04-.57.31-.67.19-.07,4.73-1.7,12.95-.02,1.65.34,5.07-1.11,7.74-2.58l10.37-5.96c-.42-.54-1.26-1.1-2.89-.65-.2.06-.4.13-.59.22l-6.18,2.74c-.27.12-.57,0-.69-.27-.12-.27,0-.57.27-.69l6.18-2.74c.24-.11.48-.2.74-.27,2.33-.63,3.5.38,4,1.04.18.24.25.55.18.85-.06.29-.25.54-.5.68l-10.37,5.96c-1.6.88-5.31,2.76-7.74,2.76Z"/>
      </g>
      <g>
        <path class="cls-2" d="m25.01,30.63c-1.89,0-3.01-1.39-3.06-1.45-.18-.22-.14-.55.08-.73.23-.18.55-.14.74.08,0,.01.87,1.05,2.24,1.05.57,0,1.05-.19,1.4-.54.36-.37.56-.9.54-1.46-.03-1.04-.66-1.8-2-2.38-.16-.07-.34-.14-.52-.2-1.03-.38-2.58-.95-2.58-3.05,0-.87.31-1.67.89-2.24.56-.56,1.35-.87,2.21-.87h0c1.72,0,3,1.06,3.05,1.11.22.19.25.51.06.73-.19.22-.51.25-.74.07-.01,0-1.05-.86-2.38-.86h0c-.59,0-1.1.2-1.47.57-.38.38-.58.91-.58,1.51,0,1.28.72,1.64,1.9,2.07.2.08.4.15.57.22,1.73.75,2.59,1.83,2.63,3.31.02.84-.29,1.64-.84,2.21-.54.56-1.28.85-2.14.85Z"/>
        <path class="cls-2" d="m25.02,19.89h0c-.29,0-.52-.23-.52-.52v-1.89c0-.29.24-.52.53-.52h0c.29,0,.52.23.52.52v1.89c0,.29-.24.52-.53.52Z"/>
        <path class="cls-2" d="m25.01,32.38h0c-.29,0-.52-.23-.52-.52v-1.75c0-.29.24-.52.52-.52h0c.29,0,.52.23.52.52v1.75c0,.29-.24.52-.52.52Z"/>
      </g>
    </g>
  </g>
  <g id="guias">
    <g>
      <rect class="cls-1" x="47.5" y="47.5" width="2.5" height="2.5"/>
      <rect class="cls-1" x="47.5" width="2.5" height="2.5"/>
      <rect class="cls-1" y="47.5" width="2.5" height="2.5"/>
      <rect class="cls-1" width="2.5" height="2.5"/>
    </g>
  </g>
</svg>