<?xml version="1.0" encoding="UTF-8"?>
<svg id="iconos" xmlns="http://www.w3.org/2000/svg" viewBox="0 0 50 50">
  <defs>
    <style>
      .cls-1 {
        fill: #1e1f22;
        stroke-width: 0px;
      }
    </style>
  </defs>
  <path class="cls-1" d="m24.98,47.5c-.62,0-1.23-.23-1.69-.69-.64-.84-14.5-19.38-14.5-28.34S16.06,2.5,25,2.5s16.22,7.16,16.22,15.97-13.86,27.49-14.45,28.28c-.51.5-1.16.75-1.8.75Zm.02-43.95c-8.37,0-15.17,6.69-15.17,14.92s14.1,27.46,14.24,27.65c.49.47,1.37.47,1.92-.06.09-.13,14.19-19.17,14.19-27.59s-6.81-14.92-15.17-14.92Z"/>
  <path class="cls-1" d="m25,27.76c-5.48,0-9.94-4.39-9.94-9.79s4.46-9.79,9.94-9.79c1.18,0,2.33.2,3.43.6.27.1.41.4.31.67s-.39.41-.67.31c-.98-.36-2.02-.54-3.08-.54-4.91,0-8.9,3.92-8.9,8.75s3.99,8.75,8.9,8.75,8.9-3.92,8.9-8.75c0-2.6-1.17-5.05-3.2-6.72-.22-.18-.26-.51-.07-.74.18-.22.52-.26.74-.07,2.28,1.87,3.59,4.61,3.59,7.53,0,5.4-4.46,9.79-9.94,9.79Z"/>
  <g>
    <path class="cls-1" d="m25,22.21c-1.38,0-2.21-1.01-2.24-1.05-.18-.22-.15-.56.08-.74.23-.18.56-.15.74.08.02.02.56.66,1.43.66.36,0,.65-.11.86-.33.21-.22.33-.54.32-.87-.01-.43-.17-1-1.29-1.47-.11-.05-.23-.09-.36-.14-.71-.26-1.9-.7-1.9-2.25,0-.64.23-1.22.65-1.64.42-.42,1.01-.65,1.66-.65h0c1.25,0,2.18.76,2.22.79.22.18.25.51.07.73-.18.22-.51.25-.74.07,0,0-.69-.55-1.55-.55h0c-.37,0-.69.12-.92.35-.22.22-.35.54-.35.9,0,.78.44.98,1.21,1.26.14.05.28.1.41.16,1.25.53,1.89,1.34,1.92,2.41.01.62-.21,1.21-.62,1.63-.41.42-.97.64-1.61.64Z"/>
    <path class="cls-1" d="m25,14.87h0c-.29,0-.52-.24-.52-.52v-1.29c0-.29.24-.52.53-.52h0c.29,0,.52.24.52.52v1.29c0,.29-.24.52-.53.52Z"/>
    <path class="cls-1" d="m24.99,23.4h0c-.29,0-.52-.24-.52-.52v-1.19c0-.29.24-.52.53-.52h0c.29,0,.52.24.52.52v1.19c0,.29-.24.52-.53.52Z"/>
  </g>
</svg>