<?xml version="1.0" encoding="UTF-8"?>
<svg xmlns="http://www.w3.org/2000/svg" viewBox="0 0 50 50">
  <defs>
    <style>
      .cls-1 {
        fill: none;
        stroke: #000;
        stroke-miterlimit: 10;
        stroke-width: .21px;
      }

      .cls-2 {
        fill: #1e1f22;
        stroke-width: 0px;
      }
    </style>
  </defs>
  <g id="iconos">
    <g>
      <g id="seguros-personas-icono-cross-selling">
        <path class="cls-2" d="m25,47.5s-.09,0-.14-.02C1.6,40.6,5.07,8.72,5.11,8.4c.03-.27.27-.46.54-.43,11.6,1.36,18.95-5.28,19.02-5.35.19-.17.48-.17.66,0,.07.07,7.4,6.71,19.02,5.35.25-.04.51.16.54.43.04.32,3.52,32.2-19.75,39.08-.05.01-.09.02-.14.02ZM6.03,9c-.33,3.97-1.82,31.24,18.97,37.51,20.79-6.27,19.3-33.54,18.97-37.51-10.38,1.03-17.4-4.1-18.97-5.37-1.57,1.27-8.58,6.4-18.97,5.37Z"/>
      </g>
      <g id="vivienda-principal-icono">
        <path class="cls-2" d="m34.94,31.33H15.06c-.27,0-.49-.22-.49-.49s.22-.49.49-.49h19.88c.27,0,.49.22.49.49s-.22.49-.49.49Z"/>
        <g>
          <path class="cls-2" d="m31.96,31.33h-14.94c-.27,0-.49-.22-.49-.49v-7.99h-1.48c-.27,0-.49-.22-.49-.49v-1.8c0-.16.08-.32.22-.41l9.94-6.51c.22-.14.53-.08.67.14s.09.53-.14.67l-9.72,6.37v1.05h1.48c.27,0,.49.22.49.49v7.99h14.45c.27,0,.49.22.49.49s-.22.49-.49.49Z"/>
          <path class="cls-2" d="m32.98,31.33c-.27,0-.49-.22-.49-.49v-8.48c0-.27.22-.49.49-.49h1.48v-1.05l-9.72-6.37c-.23-.15-.29-.45-.14-.67.15-.22.45-.29.67-.14l9.94,6.51c.14.09.22.24.22.41v1.8c0,.27-.22.49-.49.49h-1.48v7.99c0,.27-.22.49-.49.49Z"/>
          <path class="cls-2" d="m18.87,18.5c-.27,0-.49-.22-.49-.49v-3.72c0-.27.22-.49.49-.49h2.41c.27,0,.49.22.49.49v2.22c0,.27-.22.49-.49.49s-.49-.22-.49-.49v-1.73h-1.44v3.23c0,.27-.22.49-.49.49Z"/>
        </g>
        <path class="cls-2" d="m31.04,30.73c-.27,0-.49-.22-.49-.49v-7.45h-3v7.45c0,.27-.22.49-.49.49s-.49-.22-.49-.49v-7.94c0-.27.22-.49.49-.49h3.98c.27,0,.49.22.49.49v7.94c0,.27-.22.49-.49.49Z"/>
        <path class="cls-2" d="m25,27.52h-6.43c-.27,0-.49-.22-.49-.49v-4.72c0-.27.22-.49.49-.49h6.43c.27,0,.49.22.49.49v4.72c0,.27-.22.49-.49.49Zm-5.94-.97h5.45v-3.75h-5.45v3.75Z"/>
      </g>
    </g>
  </g>
  <g id="guias">
    <rect class="cls-1" x="47.5" y="47.5" width="2.5" height="2.5"/>
    <rect class="cls-1" x="47.5" width="2.5" height="2.5"/>
    <rect class="cls-1" y="47.5" width="2.5" height="2.5"/>
    <rect class="cls-1" width="2.5" height="2.5"/>
  </g>
</svg>