<?xml version="1.0" encoding="UTF-8"?>
<svg xmlns="http://www.w3.org/2000/svg" viewBox="0 0 50 50">
  <defs>
    <style>
      .cls-1 {
        fill: none;
        stroke: #000;
        stroke-miterlimit: 10;
        stroke-width: .21px;
      }

      .cls-2 {
        fill: #1e1f22;
        stroke-width: 0px;
      }
    </style>
  </defs>
  <g id="iconos">
    <g>
      <path class="cls-2" d="m36.47,33.14c-.14,0-.28,0-.42-.01-.28-.02-.48-.25-.47-.53.02-.28.24-.47.53-.47.12,0,.24.01.36.01,2.99,0,5.69-2.1,6.43-5,.04-.16.17-.3.33-.35,1.96-.63,3.28-2.44,3.28-4.51,0-1.89-1.13-3.6-2.87-4.36-.23-.1-.35-.36-.28-.6.12-.4.19-.81.19-1.23,0-1.2-.53-2.35-1.44-3.16-.91-.8-2.1-1.17-3.31-1.01-.21.02-.41-.08-.5-.26-.48-.91-1.41-1.48-2.45-1.48s-2.03.6-2.5,1.56c-.08.16-.24.27-.42.28-1.64.09-3.02,1.22-3.45,2.81-.05.19-.21.33-.41.36-.82.12-1.28.59-1.73,1.04-.21.22-.41.41-.6.54-.23.16-.53.1-.69-.13s-.1-.54.13-.69c.15-.1.3-.26.46-.42.44-.45,1.02-1.04,1.98-1.27.59-1.75,2.14-3,3.98-3.21.67-1.16,1.89-1.87,3.26-1.87,1.29,0,2.47.65,3.15,1.71,1.39-.08,2.73.37,3.77,1.28,1.13.99,1.78,2.42,1.78,3.9,0,.37-.04.74-.12,1.1,1.88.99,3.08,2.94,3.08,5.08,0,2.4-1.48,4.53-3.71,5.36-.94,3.2-3.97,5.49-7.32,5.49Z"/>
      <path class="cls-2" d="m35.84,40.7c-.27,0-.5-.22-.5-.5v-13.98c0-.27.22-.5.5-.5s.5.22.5.5v13.98c0,.27-.22.5-.5.5Z"/>
      <path class="cls-2" d="m35.84,22.97c-.27,0-.5-.22-.5-.5v-7.82c0-.27.22-.5.5-.5s.5.22.5.5v7.82c0,.27-.22.5-.5.5Z"/>
      <path class="cls-2" d="m35.84,20.28c-2.27,0-4.13-1.85-4.13-4.13,0-.27.22-.5.5-.5s.5.22.5.5c0,1.73,1.41,3.14,3.14,3.14.27,0,.5.22.5.5s-.22.5-.5.5Z"/>
      <path class="cls-2" d="m35.85,22.97c-.27,0-.5-.22-.5-.5s.22-.5.5-.5c1.73,0,3.13-1.4,3.13-3.13,0-.27.22-.5.5-.5s.5.22.5.5c0,2.27-1.85,4.13-4.12,4.13Z"/>
      <path class="cls-2" d="m35.84,29.42c-.27,0-.5-.22-.5-.5s.22-.5.5-.5c3.51,0,6.36-2.85,6.36-6.36,0-.27.22-.5.5-.5s.5.22.5.5c0,4.05-3.3,7.35-7.36,7.35Z"/>
      <path class="cls-2" d="m43.15,40.79H3c-.27,0-.5-.22-.5-.5s.22-.5.5-.5h40.15c.27,0,.5.22.5.5s-.22.5-.5.5Z"/>
      <path class="cls-2" d="m31.33,40.79H6.29c-.27,0-.5-.22-.5-.5v-13.72h-2.8c-.27,0-.5-.22-.5-.5v-3.02c0-.17.09-.32.22-.41l16.67-10.92c.23-.15.54-.09.69.14.15.23.09.54-.14.69L3.49,23.33v2.25h2.8c.27,0,.5.22.5.5v13.72h24.55c.27,0,.5.22.5.5s-.22.5-.5.5Z"/>
      <path class="cls-2" d="m33.03,40.79c-.27,0-.5-.22-.5-.5v-14.21c0-.27.22-.5.5-.5h2.8v-2.25l-16.43-10.77c-.23-.15-.29-.46-.14-.69s.46-.29.69-.14l16.66,10.92c.14.09.22.25.22.41v3.02c0,.27-.22.5-.5.5h-2.8v13.72c0,.27-.22.5-.5.5Z"/>
      <path class="cls-2" d="m9.38,19.28c-.27,0-.5-.22-.5-.5v-6.24c0-.27.22-.5.5-.5h4.04c.27,0,.5.22.5.5v3.71c0,.27-.22.5-.5.5s-.5-.22-.5-.5v-3.22h-3.05v5.74c0,.27-.22.5-.5.5Z"/>
      <path class="cls-2" d="m29.79,39.78c-.27,0-.5-.22-.5-.5v-12.81h-5.67v12.81c0,.27-.22.5-.5.5s-.5-.22-.5-.5v-13.3c0-.27.22-.5.5-.5h6.67c.27,0,.5.22.5.5v13.3c0,.27-.22.5-.5.5Z"/>
      <path class="cls-2" d="m19.66,34.39h-10.78c-.27,0-.5-.22-.5-.5v-7.91c0-.27.22-.5.5-.5h10.78c.27,0,.5.22.5.5v7.91c0,.27-.22.5-.5.5Zm-10.28-.99h9.79v-6.92h-9.79v6.92Z"/>
    </g>
  </g>
  <g id="guias">
    <rect class="cls-1" x="47.5" y="47.5" width="2.5" height="2.5"/>
    <rect class="cls-1" x="47.5" width="2.5" height="2.5"/>
    <rect class="cls-1" y="47.5" width="2.5" height="2.5"/>
    <rect class="cls-1" width="2.5" height="2.5"/>
  </g>
</svg>