<?xml version="1.0" encoding="UTF-8"?>
<svg id="iconos" xmlns="http://www.w3.org/2000/svg" viewBox="0 0 50 50">
  <defs>
    <style>
      .cls-1 {
        fill: #1e1f22;
        stroke-width: 0px;
      }
    </style>
  </defs>
  <g>
    <path class="cls-1" d="m37.83,47.5c-5.31,0-9.63-4.32-9.63-9.63s4.32-9.63,9.63-9.63,9.63,4.32,9.63,9.63-4.32,9.63-9.63,9.63Zm0-18.21c-4.73,0-8.58,3.85-8.58,8.58s3.85,8.58,8.58,8.58,8.58-3.85,8.58-8.58-3.85-8.58-8.58-8.58Z"/>
    <path class="cls-1" d="m37.03,41.65c-.13,0-.25-.05-.35-.13l-3.11-2.78c-.22-.19-.23-.52-.04-.74.2-.22.53-.23.74-.04l2.71,2.41,4.69-5.74c.18-.22.51-.26.73-.07.22.18.26.51.07.73l-5.04,6.16c-.09.11-.22.18-.36.19-.01,0-.03,0-.04,0Z"/>
  </g>
  <path class="cls-1" d="m27.12,41.14H3.89c-.74,0-1.34-.62-1.34-1.38V3.88c0-.76.6-1.38,1.34-1.38h42.23c.74,0,1.34.62,1.34,1.38v27.87c0,.29-.23.52-.52.52s-.52-.23-.52-.52V3.88c0-.18-.13-.33-.29-.33H3.89c-.16,0-.29.15-.29.33v35.89c0,.18.13.33.29.33h23.23c.29,0,.52.23.52.52s-.23.52-.52.52Z"/>
  <path class="cls-1" d="m18.09,10.23c-.55,0-.99-.44-.99-.99s.44-1,.99-1,1,.45,1,1-.45.99-1,.99Zm-.05-.99s.02.05.05.05l-.05-.05Z"/>
  <path class="cls-1" d="m13.7,10.28c-.55,0-1-.45-1-1s.45-1,1-1,.99.45.99,1-.44,1-.99,1Zm-.05-1s.02.05.05.05l-.05-.05Z"/>
  <path class="cls-1" d="m9.31,10.32c-.55,0-1-.44-1-.99s.45-1,1-1,.99.45.99,1-.44.99-.99.99Zm-.05-.99s.02.05.05.05l-.05-.05Z"/>
  <path class="cls-1" d="m46.93,14.52H3.6c-.29,0-.52-.23-.52-.52s.23-.52.52-.52h43.33c.29,0,.52.23.52.52s-.23.52-.52.52Z"/>
  <path class="cls-1" d="m40.66,9.8h-18.81c-.29,0-.52-.23-.52-.52s.23-.52.52-.52h18.81c.29,0,.52.23.52.52s-.23.52-.52.52Z"/>
  <path class="cls-1" d="m16.47,19.66h-7.16c-.29,0-.52-.23-.52-.52s.23-.52.52-.52h7.16c.29,0,.52.23.52.52s-.23.52-.52.52Z"/>
  <path class="cls-1" d="m16.47,31.82h-7.16c-.29,0-.52-.23-.52-.52s.23-.52.52-.52h7.16c.29,0,.52.23.52.52s-.23.52-.52.52Z"/>
  <path class="cls-1" d="m30.19,23.71H9.31c-.29,0-.52-.23-.52-.52s.23-.52.52-.52h20.89c.29,0,.52.23.52.52s-.23.52-.52.52Z"/>
  <path class="cls-1" d="m25.83,27.76H9.31c-.29,0-.52-.23-.52-.52s.23-.52.52-.52h16.53c.29,0,.52.23.52.52s-.23.52-.52.52Z"/>
</svg>