<?xml version="1.0" encoding="UTF-8"?>
<svg xmlns="http://www.w3.org/2000/svg" viewBox="0 0 50 50">
  <defs>
    <style>
      .cls-1 {
        fill: #79caef;
      }

      .cls-1, .cls-2, .cls-3, .cls-4 {
        fill-rule: evenodd;
        stroke-width: 0px;
      }

      .cls-5 {
        fill: none;
        stroke: #000;
        stroke-miterlimit: 10;
        stroke-width: .21px;
      }

      .cls-2 {
        fill: #efc52e;
      }

      .cls-3 {
        fill: #000037;
      }

      .cls-4 {
        fill: #c8435b;
      }
    </style>
  </defs>
  <g id="iconos">
    <path class="cls-4" d="m23.05,39.61c.06-3.16,2.67-5.66,5.83-5.6,3.06.06,5.53,2.53,5.6,5.6,0,3.19-2.6,5.71-5.71,5.71-3.19.07-5.71-2.52-5.71-5.71h0Z"/>
    <path class="cls-2" d="m36.07,39.61c0-3.19,2.6-5.71,5.71-5.71s5.71,2.6,5.71,5.71-2.6,5.71-5.71,5.71-5.71-2.52-5.71-5.71h0Z"/>
    <path class="cls-1" d="m37.41,4.68h8.61v26.18h-8.61V4.68Z"/>
    <path class="cls-3" d="m20.23,39.61c0-1.04.15-2,.52-2.89-.89.37-1.86.52-2.89.52-3.93,0-6.83-2.67-6.83-6.97s2.89-6.97,6.83-6.97,6.83,2.67,6.83,6.97c0,.74-.07,1.41-.22,2,1.3-.77,2.79-1.18,4.3-1.19,1.63,0,3.19.44,4.53,1.26V4.68h-8.61v14.02c-1.85-2.15-4.67-3.49-8.53-3.49-7.49,0-13.65,6.6-13.65,15.05s6.16,15.05,13.65,15.05c2.08,0,3.93-.37,5.42-1.11-.87-1.37-1.34-2.97-1.34-4.6Z"/>
  </g>
  <g id="guias">
    <g>
      <rect class="cls-5" x="47.5" y="47.5" width="2.5" height="2.5"/>
      <rect class="cls-5" x="47.5" width="2.5" height="2.5"/>
      <rect class="cls-5" y="47.5" width="2.5" height="2.5"/>
      <rect class="cls-5" width="2.5" height="2.5"/>
    </g>
  </g>
</svg>