<?xml version="1.0" encoding="UTF-8"?>
<svg xmlns="http://www.w3.org/2000/svg" viewBox="0 0 50 50">
  <defs>
    <style>
      .cls-1 {
        fill: none;
        stroke: #000;
        stroke-miterlimit: 10;
        stroke-width: .21px;
      }

      .cls-2 {
        stroke-width: 0px;
      }
    </style>
  </defs>
  <g id="iconos">
    <g>
      <path class="cls-2" d="m25,47.5c-4.45,0-7.67,0-10.27-.25-2.73-.26-4.55-.79-6.09-1.76-1.66-1.04-3.09-2.47-4.13-4.13-.97-1.54-1.5-3.37-1.76-6.09-.25-2.59-.25-5.81-.25-10.27s0-7.67.25-10.27c.26-2.73.79-4.55,1.76-6.09,1.04-1.66,2.47-3.09,4.13-4.13,1.54-.97,3.37-1.5,6.09-1.76,2.59-.25,5.81-.25,10.27-.25s7.67,0,10.27.25c2.73.26,4.55.79,6.09,1.76,1.66,1.04,3.09,2.47,4.13,4.13.97,1.54,1.5,3.36,1.76,6.09.25,2.59.25,5.81.25,10.27s0,7.67-.25,10.27c-.26,2.73-.79,4.55-1.76,6.09-1.04,1.66-2.47,3.09-4.13,4.13-1.54.97-3.36,1.5-6.09,1.76-2.59.25-5.81.25-10.27.25Zm0-41.25c-4.35,0-7.49,0-9.91.23-2.11.2-3.44.56-4.46,1.2-1.19.74-2.21,1.76-2.95,2.95-.64,1.02-1,2.35-1.2,4.46-.23,2.41-.23,5.56-.23,9.91s0,7.49.23,9.91c.2,2.11.56,3.44,1.2,4.46.74,1.18,1.76,2.21,2.95,2.95,1.02.64,2.35,1,4.46,1.2,2.41.23,5.56.23,9.91.23s7.49,0,9.91-.23c2.11-.2,3.44-.56,4.46-1.2,1.19-.74,2.21-1.76,2.95-2.95.64-1.02,1-2.35,1.2-4.46.23-2.41.23-5.56.23-9.91s0-7.49-.23-9.91c-.2-2.11-.56-3.44-1.2-4.46-.74-1.19-1.77-2.21-2.95-2.95-1.02-.64-2.35-1-4.46-1.2-2.41-.23-5.56-.23-9.91-.23Z"/>
      <path class="cls-2" d="m25,36.25c-6.2,0-11.25-5.05-11.25-11.25s5.05-11.25,11.25-11.25,11.25,5.05,11.25,11.25-5.05,11.25-11.25,11.25Zm0-18.75c-4.14,0-7.5,3.36-7.5,7.5s3.36,7.5,7.5,7.5,7.5-3.36,7.5-7.5-3.36-7.5-7.5-7.5Z"/>
      <circle class="cls-2" cx="37.19" cy="12.81" r="2.81"/>
    </g>
  </g>
  <g id="guias">
    <g>
      <rect class="cls-1" x="47.5" y="47.5" width="2.5" height="2.5"/>
      <rect class="cls-1" x="47.5" width="2.5" height="2.5"/>
      <rect class="cls-1" y="47.5" width="2.5" height="2.5"/>
      <rect class="cls-1" width="2.5" height="2.5"/>
    </g>
  </g>
</svg>