<?xml version="1.0" encoding="UTF-8"?>
<svg xmlns="http://www.w3.org/2000/svg" viewBox="0 0 50 50">
  <defs>
    <style>
      .cls-1 {
        fill: none;
        stroke: #000;
        stroke-miterlimit: 10;
        stroke-width: .21px;
      }

      .cls-2 {
        fill: #1e1f22;
        stroke-width: 0px;
      }
    </style>
  </defs>
  <g id="iconos">
    <g>
      <g id="beneficio-asistencia-icono">
        <g>
          <path class="cls-2" d="m18.74,35.06c-.13,0-.25-.05-.35-.14l-2.1-2.05c-.2-.19-.2-.5,0-.7s.5-.2.7,0l1.75,1.72,1.75-1.72c.19-.19.51-.19.7,0,.19.2.19.51,0,.7l-2.1,2.05c-.1.09-.22.14-.35.14Z"/>
          <path class="cls-2" d="m18.74,47.5c-.13,0-.26-.05-.35-.15l-3.12-3.14c-.12-.12-.17-.28-.13-.45l2.08-10.32c.05-.27.29-.43.58-.39.27.05.44.32.39.58l-2.03,10.06,2.93,2.96c.19.19.19.51,0,.7-.1.09-.22.14-.35.14Z"/>
          <path class="cls-2" d="m18.74,47.5c-.13,0-.25-.05-.35-.14-.2-.19-.2-.51,0-.7l2.93-2.96-2.03-10.06c-.05-.27.12-.53.39-.58.3-.04.53.12.58.39l2.08,10.32c.03.16-.02.33-.13.45l-3.12,3.14c-.1.1-.22.15-.35.15Z"/>
        </g>
        <path class="cls-2" d="m24.48,42.75c-.23,0-.44-.16-.49-.39-.05-.27.12-.53.38-.59l7.78-1.61-1-4.99c-.22-1.09-.81-2.09-1.68-2.8-.55-.45-1.09-.74-1.6-.85l-4.7-1.36c-.16-.05-.3-.11-.42-.2-.37-.26-.61-.65-.66-1.09l-.22-1.84c-.02-.17.05-.34.19-.45,1.2-.93,2.41-3.39,2.56-4.03.14-.57.15-2.27.17-3.64v-.57c0-.05.15-3.53-1.85-5.63-1.02-1.07-2.44-1.61-4.22-1.61s-3.2.54-4.23,1.61c-2.01,2.1-1.89,5.59-1.89,5.62,0,1.39.06,3.64.21,4.19.25.91,1.35,3.1,2.57,4.04.14.11.21.28.19.45l-.21,1.85c-.05.44-.29.83-.66,1.08-.12.09-.27.15-.42.2l-4.67,1.36c-.55.12-1.09.41-1.63.86-.86.71-1.46,1.71-1.68,2.8l-1,4.99,7.78,1.61c.27.06.44.32.38.59-.05.27-.31.43-.59.38l-8.26-1.71c-.27-.06-.44-.32-.38-.58l1.09-5.47c.27-1.32.98-2.52,2.02-3.37.67-.55,1.35-.91,2.02-1.05l4.64-1.35c.05-.02.1-.04.14-.07.13-.09.21-.22.23-.38l.18-1.58c-1.38-1.21-2.44-3.45-2.69-4.39-.23-.86-.24-4.07-.24-4.43,0-.14-.15-3.91,2.16-6.32,1.22-1.27,2.88-1.92,4.95-1.92s3.73.65,4.94,1.92c2.29,2.41,2.13,6.18,2.13,6.34v.55c-.02,1.56-.04,3.18-.2,3.86-.19.8-1.4,3.24-2.7,4.4l.19,1.58c.02.15.1.29.23.38.04.03.09.05.15.07l4.66,1.35c.64.14,1.31.49,1.99,1.04,1.04.86,1.76,2.06,2.02,3.38l1.09,5.47c.05.27-.12.53-.38.58l-8.26,1.71s-.07,0-.1,0Z"/>
        <path class="cls-2" d="m21.84,16.22c-.33,0-.68-.02-1.03-.06-1.26-.14-2.29-.64-3.3-1.13-.26-.13-.53-.26-.8-.38-1.02-.47-1.87-.58-2.54-.33-.49.18-.91.53-1.1.94-.12.25-.42.35-.66.23-.25-.12-.35-.41-.23-.66.31-.65.92-1.17,1.66-1.44.91-.33,2.03-.21,3.29.36.28.13.55.26.82.39.97.47,1.89.92,2.98,1.04,1.41.15,2.58-.03,3.68-.6.25-.12.54-.03.67.22.12.24.03.54-.22.67-1,.51-2.04.76-3.21.76Z"/>
        <path class="cls-2" d="m18.74,32.3c-.12,0-.24-.04-.33-.13l-3.81-3.41c-.2-.18-.22-.5-.04-.7.19-.2.5-.21.7-.04l3.48,3.11,3.48-3.11c.2-.18.51-.17.7.04.18.21.16.52-.04.7l-3.81,3.41c-.09.08-.21.13-.33.13Z"/>
        <path class="cls-2" d="m24.82,38.05c-.23,0-.44-.17-.49-.4-.05-.27.13-.53.4-.58l4.31-.81c.28-.05.53.13.58.4.05.27-.13.53-.4.58l-4.31.81s-.06,0-.09,0Z"/>
        <g>
          <path class="cls-2" d="m10.28,18.81c-.26,0-.48-.21-.5-.47,0-.19-.18-4.7,2.63-7.65,1.54-1.62,3.67-2.43,6.33-2.43s4.79.82,6.32,2.44c2.8,2.95,2.6,7.45,2.59,7.64-.01.27-.21.45-.52.47-.27-.02-.48-.25-.47-.52,0-.04.18-4.28-2.32-6.91-1.34-1.41-3.22-2.12-5.6-2.12s-4.26.71-5.61,2.12c-2.52,2.64-2.36,6.88-2.36,6.93.01.27-.2.5-.47.52h-.02Z"/>
          <path class="cls-2" d="m10.38,23.19h-.44c-.96,0-1.74-.78-1.74-1.74v-1.89c0-.96.78-1.74,1.74-1.74h.44c.96,0,1.74.78,1.74,1.74v1.89c0,.96-.78,1.74-1.74,1.74Zm-.44-4.38c-.41,0-.75.34-.75.75v1.89c0,.41.34.75.75.75h.44c.41,0,.75-.34.75-.75v-1.89c0-.41-.34-.75-.75-.75h-.44Z"/>
          <path class="cls-2" d="m27.78,23.19h-.44c-.96,0-1.74-.78-1.74-1.74v-1.89c0-.96.78-1.74,1.74-1.74h.44c.96,0,1.74.78,1.74,1.74v1.89c0,.96-.78,1.74-1.74,1.74Zm-.44-4.38c-.41,0-.75.34-.75.75v1.89c0,.41.34.75.75.75h.44c.41,0,.75-.34.75-.75v-1.89c0-.41-.34-.75-.75-.75h-.44Z"/>
        </g>
        <path class="cls-2" d="m22.5,25.82c-1.35,0-2.9-.28-4.07-1.12-.22-.16-.27-.47-.11-.69.16-.22.47-.27.69-.11,1.78,1.28,4.75.97,5.64.63.83-.32,2.1-1.66,2.24-2.01.1-.25.39-.38.65-.27.25.1.37.39.27.65-.26.64-1.74,2.15-2.8,2.56-.53.21-1.45.37-2.5.37Z"/>
        <path class="cls-2" d="m18.72,25.48c-.65,0-1.18-.53-1.18-1.18s.53-1.18,1.18-1.18,1.18.53,1.18,1.18-.53,1.18-1.18,1.18Zm0-1.38c-.11,0-.19.09-.19.19,0,.21.39.21.39,0,0-.11-.09-.19-.19-.19Z"/>
      </g>
      <g id="seguros-personas-icono-cross-selling">
        <path class="cls-2" d="m35.89,24.57s-.09,0-.14-.02c-1.75-.52-3.31-1.36-4.61-2.51-.21-.18-.23-.49-.04-.7.18-.21.49-.23.7-.04,1.16,1.02,2.54,1.78,4.1,2.26,9.31-2.87,9.01-14.83,8.84-17.4-4.69.37-7.83-1.73-8.84-2.52-1,.79-4.17,2.9-8.84,2.52-.04.56-.09,1.58-.04,2.84,0,.27-.2.5-.48.51-.33,0-.5-.2-.51-.48-.08-2.04.08-3.42.09-3.48.02-.13.08-.25.18-.33.1-.08.23-.12.37-.1,5.41.64,8.86-2.46,8.9-2.49.19-.17.48-.17.67,0,.03.03,3.48,3.13,8.89,2.49.27-.04.52.16.55.43.02.16,1.71,15.63-9.64,18.99-.05.01-.09.02-.14.02Z"/>
      </g>
    </g>
  </g>
  <g id="guias">
    <rect class="cls-1" x="47.5" y="47.5" width="2.5" height="2.5"/>
    <rect class="cls-1" x="47.5" width="2.5" height="2.5"/>
    <rect class="cls-1" y="47.5" width="2.5" height="2.5"/>
    <rect class="cls-1" width="2.5" height="2.5"/>
  </g>
</svg>