<?xml version="1.0" encoding="UTF-8"?>
<svg xmlns="http://www.w3.org/2000/svg" viewBox="0 0 50 50">
  <defs>
    <style>
      .cls-1 {
        fill: none;
        stroke: #000;
        stroke-miterlimit: 10;
        stroke-width: .21px;
      }

      .cls-2 {
        fill: #1e1f22;
        stroke-width: 0px;
      }
    </style>
  </defs>
  <g id="iconos">
    <g>
      <g>
        <path class="cls-2" d="m46.98,43.87H3.02c-.29,0-.52-.23-.52-.52s.23-.52.52-.52h43.95c.29,0,.52.23.52.52s-.23.52-.52.52Z"/>
        <g>
          <path class="cls-2" d="m44.32,43.87h-12.87c-.29,0-.52-.23-.52-.52v-24.51c0-.29.23-.52.52-.52h12.87c.29,0,.52.23.52.52v24.51c0,.29-.23.52-.52.52Zm-12.35-1.05h11.82v-23.47h-11.82v23.47Z"/>
          <path class="cls-2" d="m31.45,43.87h-12.87c-.29,0-.52-.23-.52-.52v-18.19c0-.29.23-.52.52-.52h12.87c.29,0,.52.23.52.52v18.19c0,.29-.23.52-.52.52Zm-12.35-1.05h11.82v-17.14h-11.82v17.14Z"/>
          <path class="cls-2" d="m18.58,43.87H5.72c-.29,0-.52-.23-.52-.52v-10.51c0-.29.23-.52.52-.52h12.87c.29,0,.52.23.52.52v10.51c0,.29-.23.52-.52.52Zm-12.35-1.05h11.82v-9.47H6.24v9.47Z"/>
        </g>
      </g>
      <path class="cls-2" d="m20.97,7.87c0-.47.17-.88.5-1.22s.77-.51,1.3-.51.98.17,1.32.51c.34.34.51.75.51,1.22s-.16.88-.49,1.22c-.33.33-.76.5-1.3.5s-.99-.17-1.32-.51-.51-.74-.51-1.21Zm1.72,6.26h-1.24l5.92-7.81h1.24l-5.92,7.81Zm-.57-6.27c0,.19.06.34.19.47s.29.18.48.18.35-.06.47-.19c.11-.12.17-.27.17-.45s-.06-.33-.18-.46c-.12-.13-.28-.19-.47-.19s-.36.06-.48.18c-.12.13-.18.28-.18.46Zm3.27,4.74c0-.47.17-.88.5-1.23.33-.34.77-.52,1.3-.52s.98.17,1.31.52c.34.34.51.75.51,1.23s-.17.88-.49,1.21c-.33.33-.76.5-1.3.5s-.98-.17-1.32-.5c-.34-.33-.51-.73-.51-1.2Zm1.15-.01c0,.19.06.34.19.46s.28.18.47.18.35-.06.47-.18c.11-.12.17-.27.17-.44s-.06-.33-.17-.46c-.12-.13-.27-.19-.47-.19s-.36.06-.48.18c-.12.13-.18.28-.18.46Z"/>
    </g>
  </g>
  <g id="guias">
    <rect class="cls-1" x="47.5" y="47.5" width="2.5" height="2.5"/>
    <rect class="cls-1" x="47.5" width="2.5" height="2.5"/>
    <rect class="cls-1" y="47.5" width="2.5" height="2.5"/>
    <rect class="cls-1" width="2.5" height="2.5"/>
  </g>
</svg>