<?xml version="1.0" encoding="UTF-8"?>
<svg xmlns="http://www.w3.org/2000/svg" viewBox="0 0 50 50">
  <defs>
    <style>
      .cls-1 {
        fill: none;
        stroke: #000;
        stroke-miterlimit: 10;
        stroke-width: .21px;
      }

      .cls-2 {
        fill: #1e1f22;
        stroke-width: 0px;
      }
    </style>
  </defs>
  <g id="iconos">
    <g>
      <path class="cls-2" d="m46.22,44.03H3.02c-.29,0-.52-.23-.52-.52s.23-.52.52-.52h43.19c.29,0,.52.23.52.52s-.23.52-.52.52Z"/>
      <path class="cls-2" d="m43.61,44.03h-12.65c-.29,0-.52-.23-.52-.52v-21.53c0-.29.23-.52.52-.52h12.65c.29,0,.52.23.52.52v21.53c0,.29-.23.52-.52.52Zm-12.12-1.05h11.6v-20.48h-11.6v20.48Z"/>
      <path class="cls-2" d="m30.96,44.03h-12.64c-.29,0-.52-.23-.52-.52v-24.69c0-.29.23-.52.52-.52h12.64c.29,0,.52.23.52.52v24.69c0,.29-.23.52-.52.52Zm-12.12-1.05h11.6v-23.64h-11.6v23.64Z"/>
      <path class="cls-2" d="m18.32,44.03H5.67c-.29,0-.52-.23-.52-.52v-17.14c0-.29.23-.52.52-.52h12.64c.29,0,.52.23.52.52v17.14c0,.29-.23.52-.52.52Zm-12.12-1.05h11.6v-16.1H6.19v16.1Z"/>
      <path class="cls-2" d="m46.04,11.57s-.08,0-.12-.01c-.28-.07-.46-.35-.39-.63l.8-3.46-3.53-.45c-.29-.04-.49-.3-.45-.59.04-.29.28-.48.59-.45l4.1.53c.15.02.28.1.36.22.09.12.11.27.08.42l-.94,4.03c-.06.24-.27.4-.51.4Z"/>
      <path class="cls-2" d="m5.67,19.34c-.18,0-.35-.09-.45-.26-.15-.25-.07-.57.18-.72L24.37,7.02c.15-.09.34-.1.5-.02l12.36,6.14,8.68-6.09c.24-.17.56-.11.73.13.17.24.11.56-.13.73l-8.93,6.27c-.16.11-.36.12-.53.04l-12.39-6.15L5.94,19.27c-.08.05-.18.07-.27.07Z"/>
    </g>
  </g>
  <g id="guias">
    <rect class="cls-1" x="47.5" y="47.5" width="2.5" height="2.5"/>
    <rect class="cls-1" x="47.5" width="2.5" height="2.5"/>
    <rect class="cls-1" y="47.5" width="2.5" height="2.5"/>
    <rect class="cls-1" width="2.5" height="2.5"/>
  </g>
</svg>