<?xml version="1.0" encoding="UTF-8"?>
<svg xmlns="http://www.w3.org/2000/svg" viewBox="0 0 50 50">
  <defs>
    <style>
      .cls-1 {
        fill: none;
        stroke: #000;
        stroke-miterlimit: 10;
        stroke-width: .21px;
      }

      .cls-2 {
        fill: #1e1f22;
        stroke-width: 0px;
      }
    </style>
  </defs>
  <g id="iconos">
    <g>
      <g>
        <path class="cls-2" d="m25,40c-10.34,0-18.75-8.41-18.75-18.75S14.66,2.5,25,2.5s18.75,8.41,18.75,18.75-8.41,18.75-18.75,18.75Zm0-36.23C15.36,3.77,7.52,11.61,7.52,21.25s7.84,17.49,17.49,17.49,17.48-7.84,17.48-17.49S34.64,3.77,25,3.77Z"/>
        <path class="cls-2" d="m24.9,47.5c-.11,0-.23-.03-.32-.09l-5.04-3.02c-.3-.18-.4-.57-.22-.87.18-.3.57-.4.87-.22l4.72,2.82,4.92-2.94c.3-.18.69-.08.87.22.18.3.08.69-.22.87l-5.25,3.14c-.1.06-.21.09-.32.09Z"/>
      </g>
      <g>
        <path class="cls-2" d="m24.99,31.23c-3.18,0-5.05-2.33-5.13-2.43-.32-.41-.25-1.01.16-1.34.41-.32,1.01-.25,1.34.16,0,.01,1.4,1.7,3.63,1.71.93,0,1.68-.29,2.25-.86.58-.59.9-1.45.88-2.35-.04-1.71-1.05-2.9-3.26-3.86-.27-.12-.56-.22-.86-.33-1.73-.64-4.33-1.6-4.33-5.14,0-1.47.53-2.81,1.5-3.78.95-.94,2.26-1.46,3.71-1.46h.02c2.9,0,5.02,1.78,5.11,1.86.4.34.45.94.11,1.34-.33.4-.93.46-1.34.11-.02-.01-1.7-1.41-3.88-1.41h-.02c-.95,0-1.77.31-2.36.91-.61.6-.94,1.47-.94,2.43,0,2.06,1.17,2.65,3.09,3.36.33.12.66.25.95.37,2.9,1.26,4.34,3.08,4.41,5.56.03,1.42-.49,2.78-1.42,3.73-.92.94-2.17,1.44-3.61,1.44Z"/>
        <path class="cls-2" d="m25.01,13.43c-.52,0-.95-.43-.95-.95v-3.13c0-.52.43-.95.95-.95s.95.43.95.95v3.13c0,.52-.43.95-.95.95Z"/>
        <path class="cls-2" d="m24.99,34.13h0c-.52,0-.95-.43-.95-.95v-2.9c0-.52.43-.95.96-.95h0c.52,0,.95.43.95.95v2.9c0,.52-.43.95-.96.95Z"/>
      </g>
    </g>
  </g>
  <g id="guias">
    <g>
      <rect class="cls-1" x="47.5" y="47.5" width="2.5" height="2.5"/>
      <rect class="cls-1" x="47.5" width="2.5" height="2.5"/>
      <rect class="cls-1" y="47.5" width="2.5" height="2.5"/>
      <rect class="cls-1" width="2.5" height="2.5"/>
    </g>
    <g>
      <rect class="cls-1" x="47.5" y="35" width="2.5" height="2.5"/>
      <rect class="cls-1" y="35" width="2.5" height="2.5"/>
    </g>
  </g>
</svg>