<?xml version="1.0" encoding="UTF-8"?>
<svg xmlns="http://www.w3.org/2000/svg" viewBox="0 0 50 50">
  <defs>
    <style>
      .cls-1 {
        fill: none;
        stroke: #000;
        stroke-miterlimit: 10;
        stroke-width: .21px;
      }

      .cls-2 {
        fill: #1e1f22;
        stroke-width: 0px;
      }
    </style>
  </defs>
  <g id="iconos">
    <g>
      <g>
        <path class="cls-2" d="m25.33,16.66c-1.27,0-2.01-.93-2.04-.97-.18-.23-.14-.56.09-.73.23-.18.56-.14.73.09.02.02.47.57,1.22.57.3,0,.54-.09.72-.27.18-.19.29-.46.28-.76-.01-.38-.15-.87-1.12-1.29-.1-.04-.2-.08-.31-.12-.64-.24-1.73-.64-1.73-2.08,0-.6.22-1.14.61-1.53s.94-.57,1.51-.59c1.14,0,1.98.7,2.01.73.22.19.25.52.06.74s-.52.25-.74.06c-.02-.02-.6-.48-1.34-.48h0c-.31,0-.57.1-.76.29-.19.19-.3.47-.3.79,0,.68.36.84,1.04,1.1.13.05.25.09.36.14,1.13.49,1.72,1.24,1.75,2.22.01.58-.2,1.13-.58,1.52-.38.38-.88.58-1.47.58Z"/>
        <path class="cls-2" d="m25.34,10.02c-.29,0-.52-.24-.52-.52v-1.17c0-.29.24-.52.52-.52s.52.24.52.52v1.17c0,.29-.24.52-.52.52Z"/>
        <path class="cls-2" d="m25.33,17.74h0c-.29,0-.52-.24-.52-.52v-1.08c0-.29.24-.52.53-.52h0c.29,0,.52.24.52.52v1.08c0,.29-.24.52-.53.52Z"/>
      </g>
      <path class="cls-2" d="m38.33,47.5H11.43c-1.46,0-2.65-1.16-2.65-2.59V5.09c0-1.43,1.19-2.59,2.65-2.59h27.13c1.46,0,2.65,1.16,2.65,2.59v2.08c0,.29-.24.52-.52.52s-.52-.24-.52-.52v-2.08c0-.85-.72-1.54-1.6-1.54H11.43c-.88,0-1.6.69-1.6,1.54v39.82c0,.85.72,1.54,1.6,1.54h26.89c1.02,0,1.84-.8,1.84-1.78V9.24c0-.29.24-.52.52-.52s.52.24.52.52v35.44c0,1.56-1.3,2.82-2.89,2.82Z"/>
      <g>
        <path class="cls-2" d="m35.65,26.64H14.81c-.29,0-.52-.24-.52-.52s.24-.52.52-.52h20.84c.29,0,.52.24.52.52s-.24.52-.52.52Z"/>
        <path class="cls-2" d="m35.65,30.56H14.41c-.29,0-.52-.24-.52-.52v-7.85c0-.29.24-.52.52-.52h21.24c.29,0,.52.24.52.52v7.85c0,.29-.24.52-.52.52Zm-20.71-1.05h20.19v-6.81H14.94v6.81Z"/>
        <path class="cls-2" d="m20.89,30.56c-.29,0-.52-.24-.52-.52v-7.85c0-.29.24-.52.52-.52s.52.24.52.52v7.85c0,.29-.24.52-.52.52Z"/>
        <path class="cls-2" d="m29.49,30.56c-.29,0-.52-.24-.52-.52v-7.85c0-.29.24-.52.52-.52s.52.24.52.52v7.85c0,.29-.24.52-.52.52Z"/>
      </g>
      <path class="cls-2" d="m33.07,36.02H14.41c-.29,0-.52-.24-.52-.52s.24-.52.52-.52h18.65c.29,0,.52.24.52.52s-.24.52-.52.52Z"/>
      <path class="cls-2" d="m26.34,39.28h-11.93c-.29,0-.52-.24-.52-.52s.24-.52.52-.52h11.93c.29,0,.52.24.52.52s-.24.52-.52.52Z"/>
    </g>
  </g>
  <g id="guias">
    <g>
      <rect class="cls-1" x="47.5" y="47.5" width="2.5" height="2.5"/>
      <rect class="cls-1" x="47.5" width="2.5" height="2.5"/>
      <rect class="cls-1" y="47.5" width="2.5" height="2.5"/>
      <rect class="cls-1" width="2.5" height="2.5"/>
    </g>
  </g>
</svg>