<?xml version="1.0" encoding="UTF-8"?>
<svg xmlns="http://www.w3.org/2000/svg" viewBox="0 0 50 50">
  <defs>
    <style>
      .cls-1 {
        fill: none;
        stroke: #000;
        stroke-miterlimit: 10;
        stroke-width: .21px;
      }

      .cls-2 {
        fill: #1e1f22;
        stroke-width: 0px;
      }
    </style>
  </defs>
  <g id="iconos">
    <g>
      <g>
        <path class="cls-2" d="m35.89,47.5H10.17c-1.5,0-3.17-1.39-3.17-3.25V5.83c0-1.84,1.5-3.33,3.33-3.33,1.43,0,2.65.9,3.12,2.17h27.71c1.02,0,1.85.83,1.85,1.85v35.73c0,1.02-.83,1.85-1.85,1.85h-2.81v.07c0,1.87-1.08,3.33-2.46,3.33ZM10.33,3.59c-1.24,0-2.25,1.01-2.25,2.25v38.41c0,1.22,1.12,2.16,2.09,2.16h25.72c.75,0,1.38-1.03,1.38-2.25v-.07H13.12c-.3,0-.54-.24-.54-.54V5.83c0-1.24-1.01-2.25-2.25-2.25Zm27.45,39.42h3.39c.42,0,.76-.34.76-.76V6.52c0-.42-.34-.76-.76-.76H13.66v37.25h24.09s.01,0,.02,0Z"/>
        <path class="cls-2" d="m7.54,44.7c-.3,0-.54-.24-.54-.54,0-1.86,1.52-3.38,3.38-3.38,1.57,0,2.92,1.07,3.28,2.6.07.29-.11.59-.4.65-.3.08-.58-.11-.65-.4-.24-1.04-1.16-1.76-2.22-1.76-1.26,0-2.29,1.03-2.29,2.29,0,.3-.24.54-.54.54Z"/>
      </g>
      <g>
        <polygon class="cls-2" points="33.42 11.46 36.46 14.5 39.49 11.46 38.79 10.75 36.46 13.08 34.83 11.46 36.46 9.83 37.15 10.53 37.86 9.82 36.46 8.42 33.42 11.46"/>
        <polygon class="cls-2" points="39.49 9.82 36.46 6.78 33.42 9.82 34.12 10.53 36.46 8.19 38.08 9.82 36.46 11.44 35.76 10.75 35.06 11.46 36.46 12.86 39.49 9.82"/>
      </g>
    </g>
  </g>
  <g id="guias">
    <rect class="cls-1" x="47.5" y="47.5" width="2.5" height="2.5"/>
    <rect class="cls-1" x="47.5" width="2.5" height="2.5"/>
    <rect class="cls-1" y="47.5" width="2.5" height="2.5"/>
    <rect class="cls-1" width="2.5" height="2.5"/>
  </g>
</svg>