<?xml version="1.0" encoding="UTF-8"?>
<svg xmlns="http://www.w3.org/2000/svg" viewBox="0 0 50 50">
  <defs>
    <style>
      .cls-1 {
        fill: none;
        stroke: #000;
        stroke-miterlimit: 10;
        stroke-width: .21px;
      }

      .cls-2 {
        fill: #1e1f22;
        stroke-width: 0px;
      }
    </style>
  </defs>
  <g id="iconos">
    <g>
      <path class="cls-2" d="m43.03,33.18H6.97c-2.46,0-4.47-2-4.47-4.47v-7.43c0-2.46,2-4.47,4.47-4.47h36.07c2.46,0,4.47,2,4.47,4.47v7.43c0,2.46-2,4.47-4.47,4.47ZM6.97,17.81c-1.91,0-3.47,1.56-3.47,3.47v7.43c0,1.92,1.56,3.47,3.47,3.47h36.07c1.92,0,3.47-1.56,3.47-3.47v-7.43c0-1.92-1.56-3.47-3.47-3.47H6.97Z"/>
      <g>
        <path class="cls-2" d="m12.68,25.6l1.17.67-.69,1.19-1.15-.69c-.44-.25-.92-.61-1.21-.88.09.4.17.96.17,1.48v1.36h-1.36v-1.36c0-.52.09-1.07.17-1.48-.31.27-.77.63-1.21.88l-1.17.69-.67-1.19,1.17-.67c.46-.27.98-.46,1.36-.61-.38-.11-.92-.31-1.36-.56l-1.17-.69.67-1.17,1.17.67c.44.25.9.59,1.21.9-.08-.42-.17-.98-.17-1.5v-1.36h1.36v1.36c0,.52-.08,1.09-.17,1.5.29-.31.77-.65,1.21-.9l1.15-.67.69,1.17-1.17.69c-.44.25-.98.46-1.36.56.38.15.9.33,1.36.61Z"/>
        <path class="cls-2" d="m22.49,25.6l1.17.67-.69,1.19-1.15-.69c-.44-.25-.92-.61-1.21-.88.09.4.17.96.17,1.48v1.36h-1.36v-1.36c0-.52.09-1.07.17-1.48-.31.27-.77.63-1.21.88l-1.17.69-.67-1.19,1.17-.67c.46-.27.98-.46,1.36-.61-.38-.11-.92-.31-1.36-.56l-1.17-.69.67-1.17,1.17.67c.44.25.9.59,1.21.9-.08-.42-.17-.98-.17-1.5v-1.36h1.36v1.36c0,.52-.08,1.09-.17,1.5.29-.31.77-.65,1.21-.9l1.15-.67.69,1.17-1.17.69c-.44.25-.98.46-1.36.56.38.15.9.33,1.36.61Z"/>
        <path class="cls-2" d="m32.3,25.6l1.17.67-.69,1.19-1.15-.69c-.44-.25-.92-.61-1.21-.88.09.4.17.96.17,1.48v1.36h-1.36v-1.36c0-.52.09-1.07.17-1.48-.31.27-.77.63-1.21.88l-1.17.69-.67-1.19,1.17-.67c.46-.27.98-.46,1.36-.61-.38-.11-.92-.31-1.36-.56l-1.17-.69.67-1.17,1.17.67c.44.25.9.59,1.21.9-.08-.42-.17-.98-.17-1.5v-1.36h1.36v1.36c0,.52-.08,1.09-.17,1.5.29-.31.77-.65,1.21-.9l1.15-.67.69,1.17-1.17.69c-.44.25-.98.46-1.36.56.38.15.9.33,1.36.61Z"/>
        <path class="cls-2" d="m42.11,25.6l1.17.67-.69,1.19-1.15-.69c-.44-.25-.92-.61-1.21-.88.09.4.17.96.17,1.48v1.36h-1.36v-1.36c0-.52.09-1.07.17-1.48-.31.27-.77.63-1.21.88l-1.17.69-.67-1.19,1.17-.67c.46-.27.98-.46,1.36-.61-.38-.11-.92-.31-1.36-.56l-1.17-.69.67-1.17,1.17.67c.44.25.9.59,1.21.9-.08-.42-.17-.98-.17-1.5v-1.36h1.36v1.36c0,.52-.08,1.09-.17,1.5.29-.31.77-.65,1.21-.9l1.15-.67.69,1.17-1.17.69c-.44.25-.98.46-1.36.56.38.15.9.33,1.36.61Z"/>
      </g>
    </g>
  </g>
  <g id="guias">
    <rect class="cls-1" x="47.5" y="47.5" width="2.5" height="2.5"/>
    <rect class="cls-1" x="47.5" width="2.5" height="2.5"/>
    <rect class="cls-1" y="47.5" width="2.5" height="2.5"/>
    <rect class="cls-1" width="2.5" height="2.5"/>
  </g>
</svg>