<?xml version="1.0" encoding="UTF-8"?>
<svg xmlns="http://www.w3.org/2000/svg" viewBox="0 0 50 50">
  <defs>
    <style>
      .cls-1 {
        fill: none;
        stroke: #000;
        stroke-miterlimit: 10;
        stroke-width: .21px;
      }

      .cls-2 {
        fill: #1e1f22;
        stroke-width: 0px;
      }
    </style>
  </defs>
  <g id="iconos">
    <g>
      <path class="cls-2" d="m25.12,47.5c-.15,0-.29-.06-.39-.18-.16-.19-.36-.43-.56-.67-.12-.15-.24-.29-.35-.43-.6.07-1.57,0-1.94-.3-.2-.16-.26-.44-.14-.66l1.31-2.44s-.04-.03-.06-.05c-.63-.5-.75-.59-1.33-.28-.25.14-.56.05-.7-.2-.05-.09-.15-.17-.26-.22-.83.54-1.63.76-2.37.68-.6-.07-1.2-.4-1.55-.88-.26-.35-.38-.75-.34-1.14-.19-.31-1.02-1.12-1.39-1.48-.24-.23-.44-.43-.53-.53-.66-.76-1.4-1.39-2.2-1.89-.1-.07-.51-.27-1-.51-.84-.42-1.41-.7-1.79-.92-.3.29-.71.42-1.14.43-.95-.05-1.72-.56-2.4-1.01-.21-.13-.41-.27-.61-.39-.16-.09-.32-.18-.48-.27-.81-.44-1.64-.9-2.16-1.76-.13-.23-.28-.52-.19-.84.09-.31.34-.45.49-.53.09-.05.15-.08.19-.13.04-.05.02-.16-.04-.39-.09-.34-.23-.84.17-1.31.36-.42.84-.54,1.22-.64.18-.05.36-.09.47-.16.27-.15.49-.46.7-.76.15-.21.25-.33.35-.46.25-.32.51-.64.58-.93.03-.15,0-.21-.11-.43-.09-.16-.19-.37-.25-.64-.1-.47.03-.9.15-1.28l.04-.15c.09-.29.01-.53-.11-.91-.1-.29-.21-.62-.2-1.01,0-.42.19-.73.35-.98.09-.15.18-.29.19-.41.09-.6-.06-1.63-.39-2.09-.07-.1-.16-.2-.24-.3-.4-.48-1-1.2-.45-2.11.21-.36.57-.52.85-.66.17-.08.34-.16.41-.25.14-.2.13-.59.12-.94-.01-.22-.01-.44,0-.62h0s0,0,0,0c.03-.29.27-.5.57-.46.24.03.42.21.46.44.02.03.06.07.1.11,0-.19.01-.38.08-.58.39-1.15,1.95-1.97,3.01-2.48.04-.8.11-1.67.51-2.47.73-1.47,3.71-2.35,5.07-2.47,1.8-.16,3.24-1.48,4.67-2.93.11-.11.27-.17.43-.15.92.1,1.7.81,1.86,1.68.04.23-.08.47-.3.57-2.72,1.24-4.76,3.74-5.32,6.47.36.14.68.35.68.36.35.28.57.67.74,1.05.45.97.54,1.94.26,2.81-.08.25-.12.37-.12.44,0,.05.04.16.24.35.53.5,1.32.76,2.07.7.22-.02.43-.05.64-.08.81-.12,1.64-.24,2.53.39.02.01,1,1.13,1.48,1.94,1.61-.16,3.25-.26,4.88-.3.22,0,.36.09.46.25.1.16.1.36.02.52-.24.46-.75,1.42-1.05,2.34-.09.28-.39.43-.66.33-.28-.09-.42-.39-.33-.66.2-.61.47-1.22.72-1.71-1.42.05-2.84.15-4.23.3-.19.03-.38-.07-.49-.22-.01-.02-.03-.04-.04-.06-.15-.25-1.16-1.69-1.37-1.89-.53-.37-1.04-.3-1.75-.19-.22.03-.46.07-.7.09-1.05.08-2.12-.28-2.87-.99-.35-.33-.54-.67-.56-1.03-.02-.29.06-.53.13-.73.28-.88.06-1.64-.18-2.15-.12-.26-.26-.52-.45-.67-.07-.04-.32-.16-.48-.22-.07.02-.15.03-.23.02-.29-.04-.49-.3-.45-.59h0c.42-3.12,2.58-6.05,5.56-7.59-.13-.19-.34-.35-.57-.43-1.19,1.2-2.93,2.84-5.12,3.03-1.35.12-3.78.99-4.23,1.89-.35.7-.38,1.54-.41,2.36,0,.19-.12.37-.29.45-.85.41-2.48,1.2-2.76,2.02-.05.15-.02.35.01.57.03.22.07.48.03.75-.03.28-.3.53-.55.46-.19-.01-.43-.13-.67-.29-.03.29-.11.59-.3.85-.23.31-.55.46-.82.58-.17.08-.35.16-.4.24-.14.23-.08.38.36.91.1.12.2.24.29.37.51.73.69,2.02.57,2.86-.05.33-.21.59-.34.8-.12.19-.19.31-.19.44,0,.21.07.42.15.67.13.41.3.91.12,1.53l-.05.16c-.09.29-.17.56-.12.77.02.12.08.23.15.36.14.26.32.62.21,1.15-.12.53-.47.97-.79,1.36-.09.11-.18.23-.26.34-.32.44-.64.88-1.11,1.15-.23.13-.48.19-.72.26-.29.07-.55.14-.68.3-.03.03,0,.14.05.35.09.33.22.83-.13,1.29-.13.18-.29.28-.42.36.37.6,1.04.96,1.74,1.35.17.09.34.19.5.28.22.13.44.27.66.42.63.41,1.22.8,1.88.84.22.04.38-.11.47-.3,0,0,0,0,0,0,.12-.27.43-.38.69-.27.08.03.14.08.19.14.27.18,1.38.73,1.99,1.03.53.26.97.49,1.09.56.89.55,1.71,1.26,2.44,2.09.08.09.26.26.47.47,1.37,1.33,1.79,1.82,1.7,2.29-.03.18.05.35.13.45.18.25.51.43.83.46.56.08,1.18-.16,1.87-.64.11-.08.23-.11.36-.09.33.04.65.19.89.41.94-.35,1.46.08,2.08.56.12.09.25.2.4.3.21.16.28.44.15.67l-1.21,2.26c.34.03.75.03.89-.01.2-.06.42,0,.56.15.11.13.24.28.37.44.1-.61.2-1.11.29-1.61.14-.74.28-1.48.45-2.63l.55-.07-.52-.07.06-.27c.07-.28.36-.46.63-.39.28.07.45.35.39.63l-.03.13c0,.06-.02.14-.05.25-.17,1.1-.31,1.86-.45,2.6-.14.76-.28,1.52-.47,2.72-.03.2-.18.37-.37.42-.05.01-.1.02-.15.02ZM8.09,13.61h0Zm-.02-.17h0Zm10.06-1.69h0s0,0,0,0c0,0,0,0,0,0h0Z"/>
      <g>
        <path class="cls-2" d="m33.98,37.54c-3.32,0-6.01-2.7-6.01-6.01s2.7-6.02,6.01-6.02,6.02,2.7,6.02,6.02-2.7,6.01-6.02,6.01Zm0-10.99c-2.74,0-4.97,2.23-4.97,4.97s2.23,4.97,4.97,4.97,4.97-2.23,4.97-4.97-2.23-4.97-4.97-4.97Z"/>
        <path class="cls-2" d="m43.69,33.52c-.88,0-1.59-.71-1.59-1.59s.71-1.59,1.59-1.59,1.59.71,1.59,1.59-.71,1.59-1.59,1.59Zm0-2.13c-.3,0-.55.25-.55.55s.25.54.55.54.55-.24.55-.54-.25-.55-.55-.55Z"/>
        <path class="cls-2" d="m24.02,33.52c-.88,0-1.59-.71-1.59-1.59s.71-1.59,1.59-1.59,1.59.71,1.59,1.59-.71,1.59-1.59,1.59Zm0-2.13c-.3,0-.55.25-.55.55s.25.54.55.54.55-.24.55-.54-.25-.55-.55-.55Z"/>
        <g>
          <path class="cls-2" d="m33.97,35c-1.14,0-1.82-.84-1.85-.88-.18-.23-.14-.56.09-.74.23-.18.55-.14.74.09.01.02.4.48,1.03.48.25,0,.44-.07.58-.22.15-.15.23-.38.23-.62,0-.31-.12-.72-.94-1.08-.08-.04-.18-.07-.27-.11-.58-.22-1.56-.58-1.55-1.88,0-.54.2-1.03.55-1.39.35-.35.84-.54,1.36-.54h0c1.02,0,1.78.63,1.81.66.22.19.25.52.06.74s-.51.25-.74.06c-.02-.01-.51-.41-1.14-.41h0c-.26,0-.47.08-.63.24s-.25.39-.25.65c0,.53.24.67.87.9.11.04.22.08.32.13,1.02.45,1.55,1.12,1.57,2.01.01.52-.18,1.02-.53,1.38-.34.35-.8.54-1.33.54Z"/>
          <path class="cls-2" d="m33.98,29.17c-.29,0-.52-.23-.52-.52v-1.03c0-.29.23-.52.52-.52s.52.23.52.52v1.03c0,.29-.23.52-.52.52Z"/>
          <path class="cls-2" d="m33.97,35.95h0c-.29,0-.52-.23-.52-.53v-.95c0-.29.24-.52.53-.52h0c.29,0,.52.23.52.53v.95c0,.29-.24.52-.53.52Z"/>
        </g>
      </g>
      <path class="cls-2" d="m46.96,40.02h-26.22c-.29,0-.52-.23-.52-.52v-15.96c0-.29.23-.52.52-.52h26.22c.29,0,.52.23.52.52v15.96c0,.29-.23.52-.52.52Zm-25.69-1.05h25.17v-14.91h-25.17v14.91Z"/>
    </g>
  </g>
  <g id="guias">
    <g>
      <rect class="cls-1" x="47.5" y="47.5" width="2.5" height="2.5"/>
      <rect class="cls-1" x="47.5" width="2.5" height="2.5"/>
      <rect class="cls-1" y="47.5" width="2.5" height="2.5"/>
      <rect class="cls-1" width="2.5" height="2.5"/>
    </g>
  </g>
</svg>