<?xml version="1.0" encoding="UTF-8"?>
<svg xmlns="http://www.w3.org/2000/svg" viewBox="0 0 50 50">
  <defs>
    <style>
      .cls-1 {
        fill: none;
        stroke: #000;
        stroke-miterlimit: 10;
        stroke-width: .21px;
      }

      .cls-2 {
        fill: #1e1f22;
        stroke-width: 0px;
      }
    </style>
  </defs>
  <g id="iconos">
    <g id="carta-de-credito-de-exportacion-icon">
      <path class="cls-2" d="m38.13,47.5H7.04c-.3,0-.54-.24-.54-.54V4.44c0-.3.24-.54.54-.54h31.1c.3,0,.54.24.54.54v2.4c0,.3-.24.54-.54.54s-.54-.24-.54-.54v-1.86H7.57v41.45h30.03v-26.14c0-.3.24-.54.54-.54s.54.24.54.54v26.67c0,.3-.24.54-.54.54Z"/>
      <path class="cls-2" d="m31.8,24.19H12.45c-.3,0-.54-.24-.54-.54s.24-.54.54-.54h19.35c.3,0,.54.24.54.54s-.24.54-.54.54Z"/>
      <path class="cls-2" d="m31.8,28.67H12.45c-.3,0-.54-.24-.54-.54s.24-.54.54-.54h19.35c.3,0,.54.24.54.54s-.24.54-.54.54Z"/>
      <path class="cls-2" d="m31.8,33.14H12.45c-.3,0-.54-.24-.54-.54s.24-.54.54-.54h19.35c.3,0,.54.24.54.54s-.24.54-.54.54Z"/>
      <path class="cls-2" d="m31.8,37.62H12.45c-.3,0-.54-.24-.54-.54s.24-.54.54-.54h19.35c.3,0,.54.24.54.54s-.24.54-.54.54Z"/>
      <path class="cls-2" d="m31.8,42.1H12.45c-.3,0-.54-.24-.54-.54s.24-.54.54-.54h19.35c.3,0,.54.24.54.54s-.24.54-.54.54Z"/>
      <path class="cls-2" d="m25.62,10.76h-13.17c-.3,0-.54-.24-.54-.54s.24-.54.54-.54h13.17c.3,0,.54.24.54.54s-.24.54-.54.54Z"/>
      <path class="cls-2" d="m25.62,15.24h-13.17c-.3,0-.54-.24-.54-.54s.24-.54.54-.54h13.17c.3,0,.54.24.54.54s-.24.54-.54.54Z"/>
      <path class="cls-2" d="m25.62,19.72h-13.17c-.3,0-.54-.24-.54-.54s.24-.54.54-.54h13.17c.3,0,.54.24.54.54s-.24.54-.54.54Z"/>
      <path class="cls-2" d="m8.69,10.22h-3.99c-.3,0-.54-.24-.54-.54s.24-.54.54-.54h3.99c.3,0,.54.24.54.54s-.24.54-.54.54Z"/>
      <path class="cls-2" d="m8.69,14.21h-3.99c-.3,0-.54-.24-.54-.54s.24-.54.54-.54h3.99c.3,0,.54.24.54.54s-.24.54-.54.54Z"/>
      <path class="cls-2" d="m8.69,18.19h-3.99c-.3,0-.54-.24-.54-.54s.24-.54.54-.54h3.99c.3,0,.54.24.54.54s-.24.54-.54.54Z"/>
      <path class="cls-2" d="m8.69,22.17h-3.99c-.3,0-.54-.24-.54-.54s.24-.54.54-.54h3.99c.3,0,.54.24.54.54s-.24.54-.54.54Z"/>
      <path class="cls-2" d="m8.69,26.16h-3.99c-.3,0-.54-.24-.54-.54s.24-.54.54-.54h3.99c.3,0,.54.24.54.54s-.24.54-.54.54Z"/>
      <path class="cls-2" d="m8.69,30.14h-3.99c-.3,0-.54-.24-.54-.54s.24-.54.54-.54h3.99c.3,0,.54.24.54.54s-.24.54-.54.54Z"/>
      <path class="cls-2" d="m8.69,34.13h-3.99c-.3,0-.54-.24-.54-.54s.24-.54.54-.54h3.99c.3,0,.54.24.54.54s-.24.54-.54.54Z"/>
      <path class="cls-2" d="m8.69,38.11h-3.99c-.3,0-.54-.24-.54-.54s.24-.54.54-.54h3.99c.3,0,.54.24.54.54s-.24.54-.54.54Z"/>
      <path class="cls-2" d="m8.69,42.1h-3.99c-.3,0-.54-.24-.54-.54s.24-.54.54-.54h3.99c.3,0,.54.24.54.54s-.24.54-.54.54Z"/>
      <path class="cls-2" d="m33.76,19.01c-.15,0-.3-.07-.4-.18l-4.62-5.26c-.2-.22-.17-.56.05-.76.22-.2.56-.18.76.05l4.19,4.76,11.14-14.91c.18-.24.51-.28.75-.11.24.18.29.51.11.75l-11.54,15.44c-.1.13-.25.21-.41.22h-.02Z"/>
    </g>
  </g>
  <g id="guias">
    <g>
      <rect class="cls-1" x="47.5" y="47.5" width="2.5" height="2.5"/>
      <rect class="cls-1" x="47.5" width="2.5" height="2.5"/>
      <rect class="cls-1" y="47.5" width="2.5" height="2.5"/>
      <rect class="cls-1" width="2.5" height="2.5"/>
    </g>
  </g>
</svg>