<?xml version="1.0" encoding="UTF-8"?>
<svg xmlns="http://www.w3.org/2000/svg" viewBox="0 0 50 50">
  <defs>
    <style>
      .cls-1 {
        fill: none;
        stroke: #000;
        stroke-miterlimit: 10;
        stroke-width: .21px;
      }

      .cls-2 {
        fill: #1e1f22;
        stroke-width: 0px;
      }
    </style>
  </defs>
  <g id="iconos">
    <g>
      <path class="cls-2" d="m24.98,47.5c-.61,0-1.22-.23-1.68-.69-.63-.84-14.27-19.38-14.27-28.34S16.19,2.5,25,2.5s15.97,7.17,15.97,15.97-13.64,27.48-14.22,28.27c-.5.51-1.14.75-1.77.75Zm.02-43.95c-8.23,0-14.92,6.7-14.92,14.92s13.87,27.46,14.01,27.65c.48.47,1.34.47,1.87-.06.09-.13,13.97-19.17,13.97-27.59s-6.7-14.92-14.92-14.92Zm0,24.21c-5.4,0-9.79-4.39-9.79-9.79s4.39-9.79,9.79-9.79,9.79,4.39,9.79,9.79-4.39,9.79-9.79,9.79Zm0-18.54c-4.82,0-8.75,3.92-8.75,8.75s3.92,8.75,8.75,8.75,8.75-3.92,8.75-8.75-3.92-8.75-8.75-8.75Z"/>
      <g>
        <polygon class="cls-2" points="21.21 19.41 25 23.2 28.79 19.41 27.91 18.53 25 21.44 22.97 19.41 25 17.38 25.87 18.25 26.75 17.36 25 15.62 21.21 19.41"/>
        <polygon class="cls-2" points="28.79 17.37 25 13.57 21.21 17.37 22.09 18.25 25 15.34 27.03 17.37 25 19.39 24.14 18.53 23.25 19.41 25 21.16 28.79 17.37"/>
      </g>
    </g>
  </g>
  <g id="guias">
    <rect class="cls-1" x="47.5" y="47.5" width="2.5" height="2.5"/>
    <rect class="cls-1" x="47.5" width="2.5" height="2.5"/>
    <rect class="cls-1" y="47.5" width="2.5" height="2.5"/>
    <rect class="cls-1" width="2.5" height="2.5"/>
  </g>
</svg>