<?xml version="1.0" encoding="UTF-8"?>
<svg xmlns="http://www.w3.org/2000/svg" viewBox="0 0 50 50">
  <defs>
    <style>
      .cls-1 {
        fill: none;
        stroke: #000;
        stroke-miterlimit: 10;
        stroke-width: .21px;
      }

      .cls-2 {
        fill: #1e1f22;
        stroke-width: 0px;
      }
    </style>
  </defs>
  <g id="iconos">
    <path class="cls-2" d="m38.05,23.46h-.93v-4.65c0-6.69-5.42-12.11-12.11-12.11s-12.11,5.42-12.11,12.11v4.65h-.93c-.89,0-1.61.72-1.61,1.61v16.61c0,.89.72,1.61,1.61,1.61h26.09c.89,0,1.61-.72,1.61-1.61v-16.61c0-.89-.72-1.61-1.61-1.61Zm-21.86,0v-4.65c0-4.86,3.95-8.81,8.81-8.81s8.81,3.95,8.81,8.81v4.65h-17.62Z"/>
  </g>
  <g id="guias">
    <rect class="cls-1" x="47.5" y="47.5" width="2.5" height="2.5"/>
    <rect class="cls-1" x="47.5" width="2.5" height="2.5"/>
    <rect class="cls-1" y="47.5" width="2.5" height="2.5"/>
    <rect class="cls-1" width="2.5" height="2.5"/>
  </g>
</svg>