<?xml version="1.0" encoding="UTF-8"?>
<svg xmlns="http://www.w3.org/2000/svg" viewBox="0 0 50 50">
  <defs>
    <style>
      .cls-1 {
        fill: none;
        stroke: #000;
        stroke-miterlimit: 10;
        stroke-width: .21px;
      }

      .cls-2 {
        fill: #1e1f22;
        stroke-width: 0px;
      }
    </style>
  </defs>
  <g id="iconos">
    <g id="occimoto-14cuotas-icono">
      <path class="cls-2" d="m32.93,35.97h-12.06c-.48,0-.92-.28-1.12-.72l-3.18-6.94-4.51-2.8h-3.84c-.44,0-.85-.24-1.07-.63l-.09-.17-2.43,2.55c-.45.47-1.27.49-1.74.04-.24-.23-.37-.53-.38-.86,0-.33.11-.64.34-.88l2.95-3.09-.34-.61c-.1-.18-.16-.39-.16-.6,0-2.16,1.75-3.91,3.91-3.91.03,0,.17.01.2.02l11.68,1.68c2.06.03,3.78,1.78,3.78,3.9,0,.32-.12.62-.34.85l-.79.82,2.49,5.43h2.85c.57-1.18,1.75-3.6,2.65-5.36-1.03-3.38-3.99-12.42-4.02-12.52-.12-.39-.05-.81.2-1.13.25-.32.61-.49,1.04-.47,6.19.36,7.47,3.66,7.52,3.8.17.45.06.96-.29,1.29l-1.13,1.14c5.01,3.43,6.88,7.71,6.96,7.9.16.38.12.81-.1,1.16-.23.35-.62.55-1.03.55-3.19,0-5.92,2.17-6.66,5.27-.12.52-.19,1.05-.19,1.58,0,.41.04.83.12,1.25.06.36-.03.73-.26,1.01-.24.28-.58.44-.95.44ZM7.16,23.33s.04,0,.07,0c.16.02.31.12.39.26l.44.78c.03.06.09.09.16.09h3.99c.1,0,.19.03.28.08l4.77,2.96c.09.06.16.13.2.23l3.25,7.08c.03.07.09.11.17.11h12.06c.06,0,.11-.02.14-.07.03-.04.05-.1.04-.15-.09-.48-.13-.96-.13-1.43,0-.61.07-1.22.22-1.82.85-3.57,4-6.07,7.68-6.07.06,0,.12-.03.16-.08.03-.05.04-.11.01-.17-.08-.18-1.95-4.47-7.1-7.79-.13-.09-.22-.23-.24-.38-.02-.16.04-.31.15-.42l1.59-1.59c.05-.05.07-.12.04-.19-.01-.03-1.11-2.8-6.6-3.12-.08-.03-.12.02-.16.07-.04.05-.05.11-.03.17.03.09,3.12,9.52,4.09,12.74.04.13.03.27-.03.39-.99,1.92-2.37,4.78-2.87,5.82-.09.18-.27.3-.47.3h-3.51c-.2,0-.39-.12-.48-.3l-2.78-6.06c-.09-.2-.05-.43.1-.58l1.04-1.08s.05-.08.05-.13c0-1.55-1.26-2.84-2.82-2.86l-11.77-1.69h0c-1.6,0-2.88,1.29-2.88,2.86l.55,1.03c.11.2.08.45-.08.62l-3.22,3.37c-.06.06-.06.2,0,.26.08.08.17.09.26,0l2.92-3.06c.1-.1.23-.16.38-.16Z"/>
      <path class="cls-2" d="m8.93,25.53c-.29,0-.52-.23-.52-.52s.23-.52.52-.52h14.28c.29,0,.52.23.52.52s-.23.52-.52.52h-14.28Z"/>
      <g>
        <path class="cls-2" d="m10.48,39.41c-3.27,0-5.93-2.66-5.93-5.93s2.66-5.93,5.93-5.93,5.93,2.66,5.93,5.93-2.66,5.93-5.93,5.93Zm0-10.82c-2.69,0-4.88,2.19-4.88,4.89s2.19,4.88,4.88,4.88,4.89-2.19,4.89-4.88-2.19-4.89-4.89-4.89Z"/>
        <path class="cls-2" d="m10.48,36.52c-1.67,0-3.03-1.36-3.03-3.03s1.36-3.04,3.03-3.04,3.04,1.36,3.04,3.04-1.36,3.03-3.04,3.03Zm0-5.03c-1.1,0-1.99.89-1.99,1.99s.89,1.99,1.99,1.99,1.99-.89,1.99-1.99-.89-1.99-1.99-1.99Z"/>
      </g>
      <g>
        <path class="cls-2" d="m41.57,39.41c-3.27,0-5.93-2.66-5.93-5.93s2.66-5.93,5.93-5.93,5.93,2.66,5.93,5.93-2.66,5.93-5.93,5.93Zm0-10.82c-2.69,0-4.88,2.19-4.88,4.89s2.19,4.88,4.88,4.88,4.89-2.19,4.89-4.88-2.19-4.89-4.89-4.89Z"/>
        <path class="cls-2" d="m41.57,36.52c-1.67,0-3.03-1.36-3.03-3.03s1.36-3.04,3.03-3.04,3.04,1.36,3.04,3.04-1.36,3.03-3.04,3.03Zm0-5.03c-1.1,0-1.99.89-1.99,1.99s.89,1.99,1.99,1.99,1.99-.89,1.99-1.99-.89-1.99-1.99-1.99Z"/>
      </g>
      <path class="cls-2" d="m33.46,31.12h-6.9c-.29,0-.52-.23-.52-.52s.23-.52.52-.52h6.9c.29,0,.52.23.52.52s-.23.52-.52.52Z"/>
      <path class="cls-2" d="m39.61,22.97h-3.81c-.29,0-.52-.23-.52-.52s.23-.52.52-.52h3.81c.29,0,.52.23.52.52s-.23.52-.52.52Z"/>
      <path class="cls-2" d="m24.73,28.59h-3.12c-.29,0-.52-.23-.52-.52s.23-.52.52-.52h3.12c.29,0,.52.23.52.52s-.23.52-.52.52Z"/>
      <path class="cls-2" d="m25.41,31.12h-3.12c-.29,0-.52-.23-.52-.52s.23-.52.52-.52h3.12c.29,0,.52.23.52.52s-.23.52-.52.52Z"/>
      <path class="cls-2" d="m28.61,14.62h-2.9c-.29,0-.52-.23-.52-.52s.23-.52.52-.52h2.9c.29,0,.52.23.52.52s-.23.52-.52.52Z"/>
      <path class="cls-2" d="m36.54,19.15c-.13,0-.27-.05-.37-.15-2.35-2.36-6.74-2.44-6.78-2.44-.29,0-.52-.24-.52-.53,0-.29.24-.52.52-.52h0c.2,0,4.86.08,7.51,2.74.2.21.2.54,0,.74-.1.1-.24.15-.37.15Z"/>
    </g>
  </g>
  <g id="guias">
    <g>
      <rect class="cls-1" x="47.5" y="47.5" width="2.5" height="2.5"/>
      <rect class="cls-1" x="47.5" width="2.5" height="2.5"/>
      <rect class="cls-1" y="47.5" width="2.5" height="2.5"/>
      <rect class="cls-1" width="2.5" height="2.5"/>
    </g>
  </g>
</svg>