<?xml version="1.0" encoding="UTF-8"?>
<svg xmlns="http://www.w3.org/2000/svg" viewBox="0 0 50 50">
  <defs>
    <style>
      .cls-1 {
        fill: none;
        stroke: #000;
        stroke-miterlimit: 10;
        stroke-width: .21px;
      }

      .cls-2 {
        fill: #1e1f22;
        stroke-width: 0px;
      }
    </style>
  </defs>
  <g id="iconos">
    <g>
      <path class="cls-2" d="m18.08,41.37H3.38c-.28,0-.52-.23-.52-.52s.23-.52.52-.52h14.7c.28,0,.52.23.52.52s-.23.52-.52.52Z"/>
      <path class="cls-2" d="m5.2,41.37c-.28,0-.52-.23-.52-.52v-24.2c0-.28.23-.52.52-.52h38.64c.28,0,.52.23.52.52v13.26c0,.28-.23.52-.52.52s-.52-.23-.52-.52v-12.74H5.72v23.68c0,.28-.23.52-.52.52Z"/>
      <path class="cls-2" d="m15.56,41.37h-5.12c-.28,0-.52-.23-.52-.52v-17.58c0-.28.23-.52.52-.52h5.12c.28,0,.52.23.52.52v17.58c0,.28-.23.52-.52.52Zm-4.6-1.03h4.09v-16.54h-4.09v16.54Z"/>
      <path class="cls-2" d="m38.6,32.53h-5.12c-.28,0-.52-.23-.52-.52v-8.74c0-.28.23-.52.52-.52h5.12c.28,0,.52.23.52.52v8.74c0,.28-.23.52-.52.52Zm-4.6-1.03h4.09v-7.71h-4.09v7.71Z"/>
      <path class="cls-2" d="m27.08,32.53h-5.12c-.28,0-.52-.23-.52-.52v-8.74c0-.28.23-.52.52-.52h5.12c.28,0,.52.23.52.52v8.74c0,.28-.23.52-.52.52Zm-4.6-1.03h4.09v-7.71h-4.09v7.71Z"/>
      <path class="cls-2" d="m40.67,17.17H8.37c-.28,0-.52-.23-.52-.52v-3.63c0-.28.23-.52.52-.52h32.3c.28,0,.52.23.52.52v3.63c0,.28-.23.52-.52.52Zm-31.79-1.03h31.27v-2.59H8.89v2.59Z"/>
      <g>
        <path class="cls-2" d="m21.96,11.62c-.28,0-.52-.23-.52-.52V3.02c0-.28.23-.52.52-.52s.52.23.52.52v8.08c0,.28-.23.52-.52.52Z"/>
        <path class="cls-2" d="m25.99,8.4h-4.03c-.28,0-.52-.23-.52-.52V3.5c0-.28.23-.52.52-.52h4.03c.28,0,.52.23.52.52v4.38c0,.28-.23.52-.52.52Zm-3.51-1.03h2.99v-3.35h-2.99v3.35Z"/>
        <path class="cls-2" d="m30.01,10.16h-4.03c-.28,0-.52-.23-.52-.52v-4.38c0-.28.23-.52.52-.52h4.03c.18,0,.35.09.44.25.09.16.1.35.02.51l-1,1.95,1,1.96c.08.16.07.35-.02.51-.09.15-.26.25-.44.25Zm-3.51-1.03h2.66l-.74-1.44c-.07-.15-.07-.32,0-.47l.74-1.44h-2.66v3.35Z"/>
      </g>
      <path class="cls-2" d="m46.62,47.5h-26.28c-.28,0-.52-.23-.52-.52v-14.97c0-.28.23-.52.52-.52h26.28c.28,0,.52.23.52.52v14.97c0,.28-.23.52-.52.52Zm-25.76-1.03h25.25v-13.94h-25.25v13.94Zm12.61-1.43c-3.07,0-5.56-2.49-5.56-5.54s2.49-5.54,5.56-5.54,5.58,2.49,5.58,5.54-2.5,5.54-5.58,5.54Zm0-10.05c-2.5,0-4.53,2.02-4.53,4.51s2.03,4.51,4.53,4.51,4.55-2.02,4.55-4.51-2.04-4.51-4.55-4.51Zm8.95,6.37c-.83,0-1.51-.67-1.51-1.49s.68-1.49,1.51-1.49,1.49.67,1.49,1.49-.67,1.49-1.49,1.49Zm0-1.94c-.26,0-.47.21-.47.46s.22.45.47.45.45-.2.45-.45-.2-.46-.45-.46Zm-18.11,1.94c-.82,0-1.49-.67-1.49-1.49s.67-1.49,1.49-1.49,1.51.67,1.51,1.49-.68,1.49-1.51,1.49Zm0-1.94c-.25,0-.45.2-.45.46s.2.45.45.45.47-.21.47-.45-.22-.46-.47-.46Z"/>
      <path class="cls-2" d="m24.31,41.36c-.82,0-1.49-.67-1.49-1.49s.67-1.49,1.49-1.49,1.51.67,1.51,1.49-.68,1.49-1.51,1.49Zm0-1.94c-.25,0-.45.2-.45.46s.2.45.45.45.47-.21.47-.45-.22-.46-.47-.46Z"/>
      <path class="cls-2" d="m33.47,45.04c-3.07,0-5.56-2.49-5.56-5.54s2.49-5.54,5.56-5.54,5.58,2.49,5.58,5.54-2.5,5.54-5.58,5.54Zm0-10.05c-2.5,0-4.53,2.02-4.53,4.51s2.03,4.51,4.53,4.51,4.55-2.02,4.55-4.51-2.04-4.51-4.55-4.51Z"/>
      <path class="cls-2" d="m42.43,41.36c-.83,0-1.51-.67-1.51-1.49s.68-1.49,1.51-1.49,1.49.67,1.49,1.49-.67,1.49-1.49,1.49Zm0-1.94c-.26,0-.47.21-.47.46s.22.45.47.45.45-.2.45-.45-.2-.46-.45-.46Z"/>
      <path class="cls-2" d="m33.47,45.04c-3.07,0-5.56-2.49-5.56-5.54s2.49-5.54,5.56-5.54,5.58,2.49,5.58,5.54-2.5,5.54-5.58,5.54Zm0-10.05c-2.5,0-4.53,2.02-4.53,4.51s2.03,4.51,4.53,4.51,4.55-2.02,4.55-4.51-2.04-4.51-4.55-4.51Z"/>
      <path class="cls-2" d="m42.43,41.36c-.83,0-1.51-.67-1.51-1.49s.68-1.49,1.51-1.49,1.49.67,1.49,1.49-.67,1.49-1.49,1.49Zm0-1.94c-.26,0-.47.21-.47.46s.22.45.47.45.45-.2.45-.45-.2-.46-.45-.46Z"/>
      <path class="cls-2" d="m24.31,41.36c-.82,0-1.49-.67-1.49-1.49s.67-1.49,1.49-1.49,1.51.67,1.51,1.49-.68,1.49-1.51,1.49Zm0-1.94c-.25,0-.45.2-.45.46s.2.45.45.45.47-.21.47-.45-.22-.46-.47-.46Z"/>
      <g>
        <path class="cls-2" d="m33.48,42.72c-1.07,0-1.7-.78-1.73-.82-.18-.22-.14-.55.08-.73.22-.17.55-.14.73.08.01.01.36.43.91.43.22,0,.39-.06.51-.19.13-.13.2-.33.2-.54,0-.29-.11-.64-.84-.95-.08-.03-.16-.06-.25-.09-.55-.2-1.46-.54-1.46-1.76,0-1.03.78-1.81,1.81-1.81.94,0,1.62.55,1.69.61.22.19.25.51.06.73s-.51.25-.73.06c-.02-.01-.47-.37-1.03-.37-.47,0-.77.3-.77.77s.21.58.78.79c.11.04.21.08.3.12.95.41,1.44,1.04,1.47,1.87.01.49-.17.96-.49,1.29-.32.33-.76.5-1.26.5Z"/>
        <path class="cls-2" d="m33.48,37.38c-.28,0-.52-.23-.52-.52v-.94c0-.28.23-.52.52-.52s.52.23.52.52v.94c0,.28-.23.52-.52.52Z"/>
        <path class="cls-2" d="m33.48,43.59c-.28,0-.52-.23-.52-.52v-.87c0-.28.23-.52.52-.52s.52.23.52.52v.87c0,.28-.23.52-.52.52Z"/>
      </g>
    </g>
  </g>
  <g id="guias">
    <g>
      <rect class="cls-1" x="47.5" y="47.5" width="2.5" height="2.5"/>
      <rect class="cls-1" x="47.5" width="2.5" height="2.5"/>
      <rect class="cls-1" y="47.5" width="2.5" height="2.5"/>
      <rect class="cls-1" width="2.5" height="2.5"/>
    </g>
  </g>
</svg>