<?xml version="1.0" encoding="UTF-8"?>
<svg id="iconos" xmlns="http://www.w3.org/2000/svg" viewBox="0 0 50 50">
  <defs>
    <style>
      .cls-1 {
        fill: #1e1f22;
        stroke-width: 0px;
      }
    </style>
  </defs>
  <path class="cls-1" d="m10.49,24.86c0,2.82-.78,4.28-3.96,4.28s-4.03-1.27-4.03-4.31c0-2.86,1.27-3.99,4.03-3.99,2.52,0,3.96,1.19,3.96,4.02Zm-1.75,0c0-2.16-.85-2.89-2.21-2.89-1.65,0-2.28.59-2.28,2.86,0,2.41.37,3.17,2.28,3.17s2.21-.9,2.21-3.14Z"/>
  <path class="cls-1" d="m16.98,28.85c-.56.11-1.47.29-2.11.31-2.57.09-3.19-.93-3.19-3.01s.62-3.12,3.19-3.01c.61.02,1.57.2,2.11.29l-.03.87c-.43-.03-1.66-.17-2.14-.19-1.15-.05-1.38.42-1.38,2.04s.22,2.09,1.38,2.04c.43-.02,1.33-.21,2.11-.36l.06,1.02Z"/>
  <path class="cls-1" d="m22.94,28.85c-.56.11-1.47.29-2.11.31-2.57.09-3.19-.93-3.19-3.01s.62-3.12,3.19-3.01c.61.02,1.57.2,2.11.29l-.03.87c-.43-.03-1.66-.17-2.14-.19-1.15-.05-1.38.42-1.38,2.04s.22,2.09,1.38,2.04c.43-.02,1.33-.21,2.11-.36l.06,1.02Z"/>
  <path class="cls-1" d="m23.87,21.14h1.74v1.22h-1.74v-1.22Zm0,2.1h1.74v5.8h-1.74v-5.8Z"/>
  <path class="cls-1" d="m28.92,26v3.04h-1.75v-8.11h3.85c2.1,0,3.3.83,3.3,2.49,0,1.1-.44,1.97-1.66,2.34l2.16,3.29h-1.92l-1.99-3.04h-1.98Zm2.1-1.14c1.22,0,1.52-.45,1.52-1.46s-.37-1.35-1.52-1.35h-2.1v2.81h2.1Z"/>
  <path class="cls-1" d="m40.83,28.76c-.93.19-1.94.4-2.77.4-2.42,0-3.04-1.27-3.04-3.02,0-2.21,1.16-3.01,2.98-3.01,1.96,0,3.02.89,3.02,2.81v.67h-4.22c.04,1.08.37,1.56,1.27,1.56.57,0,1.95-.26,2.57-.38l.19.98Zm-1.59-3.13c-.05-1.16-.41-1.52-1.24-1.52-.78,0-1.15.36-1.2,1.52h2.44Z"/>
  <path class="cls-1" d="m45.74,20.93h1.76v8.08c-1.02.08-1.51.11-2.19.11-2.87,0-3.56-1.11-3.56-3.12,0-1.87.54-2.9,2.82-2.9.44,0,.88.09,1.18.16v-2.34Zm0,3.34c-.3-.08-.73-.18-1.17-.18-.84,0-1.06.47-1.06,1.93s.21,2.04,1.47,2.1c.08,0,.19,0,.3,0,.15,0,.31,0,.46,0v-3.86Z"/>
</svg>