<?xml version="1.0" encoding="UTF-8"?>
<svg xmlns="http://www.w3.org/2000/svg" viewBox="0 0 50 50">
  <defs>
    <style>
      .cls-1 {
        fill: none;
        stroke: #000;
        stroke-miterlimit: 10;
        stroke-width: .21px;
      }

      .cls-2 {
        fill: #1e1f22;
        stroke-width: 0px;
      }
    </style>
  </defs>
  <g id="iconos">
    <g>
      <g>
        <path class="cls-2" d="m25.02,15.54c-1.48,0-2.36-1.09-2.39-1.14-.18-.23-.14-.56.09-.73.23-.18.56-.14.73.09.02.03.6.74,1.57.74.39,0,.72-.12.95-.36.25-.25.38-.61.37-1-.02-.73-.46-1.24-1.42-1.66-.12-.05-.25-.1-.38-.15-.8-.3-2.02-.75-2.02-2.41,0-.69.25-1.32.71-1.78.45-.44,1.06-.69,1.74-.69h.01c1.35,0,2.33.83,2.37.86.22.19.25.51.06.74-.19.22-.52.25-.74.06,0,0-.74-.61-1.7-.61h0c-.41,0-.75.13-1.01.38-.26.26-.4.62-.4,1.03,0,.89.51,1.13,1.34,1.43.15.06.3.11.44.17,1.35.59,2.02,1.44,2.05,2.6.01.67-.23,1.31-.67,1.76-.43.44-1.02.68-1.7.68Z"/>
        <path class="cls-2" d="m25.02,7.48c-.29,0-.52-.23-.52-.52v-1.42c0-.29.23-.52.52-.52s.52.23.52.52v1.42c0,.29-.23.52-.52.52Z"/>
        <path class="cls-2" d="m25.01,16.85h0c-.29,0-.52-.23-.52-.53v-1.31c0-.29.24-.52.53-.52h0c.29,0,.52.23.52.53v1.31c0,.29-.24.52-.53.52Z"/>
      </g>
      <path class="cls-2" d="m46.98,44.98H3.02c-.29,0-.52-.23-.52-.52s.23-.52.52-.52h43.95c.29,0,.52.23.52.52s-.23.52-.52.52Z"/>
      <g>
        <path class="cls-2" d="m44.32,44.98h-12.87c-.29,0-.52-.23-.52-.52v-24.51c0-.29.23-.52.52-.52h12.87c.29,0,.52.23.52.52v24.51c0,.29-.23.52-.52.52Zm-12.34-1.05h11.82v-23.47h-11.82v23.47Z"/>
        <path class="cls-2" d="m31.45,44.98h-12.87c-.29,0-.52-.23-.52-.52v-18.19c0-.29.23-.52.52-.52h12.87c.29,0,.52.23.52.52v18.19c0,.29-.23.52-.52.52Zm-12.34-1.05h11.82v-17.14h-11.82v17.14Z"/>
        <path class="cls-2" d="m18.59,44.98H5.72c-.29,0-.52-.23-.52-.52v-10.52c0-.29.23-.52.52-.52h12.87c.29,0,.52.23.52.52v10.52c0,.29-.23.52-.52.52Zm-12.35-1.05h11.82v-9.47H6.24v9.47Z"/>
      </g>
      <polygon class="cls-2" points="34.66 27.5 37.89 30.73 41.11 27.5 40.36 26.75 37.89 29.23 36.16 27.5 37.89 25.78 38.62 26.51 39.37 25.76 37.89 24.28 34.66 27.5"/>
      <polygon class="cls-2" points="41.11 25.76 37.89 22.54 34.66 25.76 35.41 26.51 37.89 24.04 39.61 25.76 37.89 27.49 37.15 26.75 36.4 27.51 37.89 28.99 41.11 25.76"/>
    </g>
  </g>
  <g id="guias">
    <rect class="cls-1" x="47.5" y="47.5" width="2.5" height="2.5"/>
    <rect class="cls-1" x="47.5" width="2.5" height="2.5"/>
    <rect class="cls-1" y="47.5" width="2.5" height="2.5"/>
    <rect class="cls-1" width="2.5" height="2.5"/>
  </g>
</svg>