<?xml version="1.0" encoding="UTF-8"?>
<svg xmlns="http://www.w3.org/2000/svg" viewBox="0 0 50 50">
  <defs>
    <style>
      .cls-1 {
        fill: none;
        stroke: #000;
        stroke-miterlimit: 10;
        stroke-width: .21px;
      }

      .cls-2 {
        fill: #1e1f22;
        stroke-width: 0px;
      }
    </style>
  </defs>
  <g id="iconos">
    <g>
      <g>
        <path class="cls-2" d="m15.83,30.89c0,2.36-.65,3.59-3.32,3.59s-3.38-1.07-3.38-3.61c0-2.4,1.06-3.34,3.38-3.34,2.11,0,3.32,1,3.32,3.37Zm-1.47,0c0-1.81-.71-2.42-1.85-2.42-1.38,0-1.91.49-1.91,2.4,0,2.02.32,2.66,1.91,2.66s1.85-.76,1.85-2.63Z"/>
        <path class="cls-2" d="m21.27,34.24c-.47.09-1.23.24-1.77.26-2.15.08-2.68-.78-2.68-2.53s.52-2.62,2.68-2.53c.51.02,1.32.17,1.77.24l-.02.73c-.36-.02-1.39-.14-1.79-.16-.97-.04-1.15.35-1.15,1.72s.18,1.75,1.15,1.71c.36-.02,1.12-.17,1.77-.3l.05.86Z"/>
        <path class="cls-2" d="m26.27,34.24c-.47.09-1.23.24-1.77.26-2.15.08-2.68-.78-2.68-2.53s.52-2.62,2.68-2.53c.51.02,1.32.17,1.77.24l-.02.73c-.36-.02-1.39-.14-1.79-.16-.97-.04-1.15.35-1.15,1.72s.18,1.75,1.15,1.71c.36-.02,1.12-.17,1.77-.3l.05.86Z"/>
        <path class="cls-2" d="m27.04,27.77h1.46v1.02h-1.46v-1.02Zm0,1.76h1.46v4.86h-1.46v-4.86Z"/>
        <path class="cls-2" d="m31.28,31.85v2.55h-1.47v-6.8h3.23c1.76,0,2.77.69,2.77,2.08,0,.92-.37,1.65-1.39,1.96l1.81,2.76h-1.61l-1.67-2.55h-1.66Zm1.76-.95c1.03,0,1.28-.38,1.28-1.22s-.31-1.13-1.28-1.13h-1.76v2.35h1.76Z"/>
        <path class="cls-2" d="m41.27,34.16c-.78.16-1.62.33-2.32.33-2.03-.01-2.55-1.06-2.55-2.53,0-1.85.97-2.52,2.5-2.52,1.65,0,2.53.75,2.53,2.36v.56h-3.54c.04.9.31,1.31,1.07,1.31.48,0,1.64-.22,2.15-.32l.16.82Zm-1.33-2.62c-.04-.98-.34-1.27-1.04-1.27-.65,0-.97.3-1,1.27h2.04Z"/>
        <path class="cls-2" d="m45.38,27.59h1.47v6.78c-.86.07-1.27.09-1.84.09-2.4,0-2.99-.93-2.99-2.61,0-1.57.46-2.43,2.36-2.43.37,0,.74.08.99.13v-1.97Zm0,2.8c-.26-.07-.61-.14-.99-.14-.7,0-.88.39-.88,1.62s.17,1.71,1.23,1.76c.07,0,.16,0,.25,0,.13,0,.26,0,.38,0v-3.24Z"/>
      </g>
      <g>
        <path class="cls-2" d="m4.03,37.13c-.29,0-.52-.23-.52-.52V10.78c0-1.09.87-1.97,1.93-1.97h39.11c1.07,0,1.93.89,1.93,1.97v14.74c0,.29-.23.52-.52.52s-.52-.23-.52-.52v-14.74c0-.51-.4-.93-.89-.93H5.44c-.49,0-.89.42-.89.93v25.82c0,.29-.23.52-.52.52Z"/>
        <path class="cls-2" d="m45.53,41.19H4.47c-1.09,0-1.97-.89-1.97-1.97v-2.61c0-.29.23-.52.52-.52h43.96c.29,0,.52.23.52.52v2.61c0,1.09-.89,1.97-1.97,1.97ZM3.54,37.13v2.09c0,.51.42.93.93.93h41.05c.51,0,.93-.42.93-.93v-2.09H3.54Z"/>
        <path class="cls-2" d="m25.77,39.16h-1.53c-.29,0-.52-.23-.52-.52s.23-.52.52-.52h1.53c.29,0,.52.23.52.52s-.23.52-.52.52Z"/>
      </g>
    </g>
  </g>
  <g id="guias">
    <g>
      <rect class="cls-1" x="47.5" y="47.5" width="2.5" height="2.5"/>
      <rect class="cls-1" x="47.5" width="2.5" height="2.5"/>
      <rect class="cls-1" y="47.5" width="2.5" height="2.5"/>
      <rect class="cls-1" width="2.5" height="2.5"/>
    </g>
  </g>
</svg>