<?xml version="1.0" encoding="UTF-8"?>
<svg xmlns="http://www.w3.org/2000/svg" viewBox="0 0 50 50">
  <defs>
    <style>
      .cls-1 {
        fill: none;
        stroke: #000;
        stroke-miterlimit: 10;
        stroke-width: .21px;
      }

      .cls-2 {
        fill: #1e1f22;
        stroke-width: 0px;
      }
    </style>
  </defs>
  <g id="iconos">
    <g>
      <path class="cls-2" d="m42.52,45.98H7.48c-2.48,0-4.5-2.02-4.5-4.5V8.53c0-2.48,2.02-4.5,4.5-4.5h35.04c2.48,0,4.5,2.02,4.5,4.5v32.94c0,2.48-2.02,4.5-4.5,4.5ZM7.48,5.03c-1.93,0-3.5,1.57-3.5,3.5v32.94c0,1.93,1.57,3.5,3.5,3.5h35.04c1.93,0,3.5-1.57,3.5-3.5V8.53c0-1.93-1.57-3.5-3.5-3.5H7.48Z"/>
      <path class="cls-2" d="m26.47,15.31c2.16,0,3.87.61,5.12,1.84,1.25,1.22,1.88,2.87,1.88,4.94s-.63,3.65-1.9,4.91c-1.27,1.26-2.98,1.89-5.16,1.89h-4.65v7.11h-3.78V15.31h8.49Zm-.77,10.33c1.26,0,2.21-.34,2.85-1.03.64-.69.96-1.55.96-2.59,0-.95-.31-1.76-.95-2.41-.63-.65-1.55-.98-2.77-.98h-4.03v7.01h3.94Z"/>
    </g>
  </g>
  <g id="guias">
    <rect class="cls-1" x="47.5" y="47.5" width="2.5" height="2.5"/>
    <rect class="cls-1" x="47.5" width="2.5" height="2.5"/>
    <rect class="cls-1" y="47.5" width="2.5" height="2.5"/>
    <rect class="cls-1" width="2.5" height="2.5"/>
  </g>
</svg>