<?xml version="1.0" encoding="UTF-8"?>
<svg xmlns="http://www.w3.org/2000/svg" viewBox="0 0 50 50">
  <defs>
    <style>
      .cls-1 {
        fill: none;
        stroke: #000;
        stroke-miterlimit: 10;
        stroke-width: .21px;
      }

      .cls-2 {
        fill: #1e1f22;
        stroke-width: 0px;
      }
    </style>
  </defs>
  <g id="iconos">
    <g>
      <path class="cls-2" d="m43.4,9.18c0,1.36-.91,2.38-2.43,2.38h-1.9v2.65h-1v-7.4h2.92c1.49,0,2.4.94,2.4,2.38Zm-1.04-.04c0-.81-.53-1.44-1.51-1.44h-1.77v2.98h1.72c1.03,0,1.56-.68,1.56-1.54Z"/>
      <g>
        <path class="cls-2" d="m8.98,46.62h-3.33c-1.22,0-2.21-.99-2.21-2.21v-5.41c0-.29.23-.52.52-.52s.52.23.52.52v5.41c0,.64.52,1.16,1.16,1.16h3.33c.64,0,1.16-.52,1.16-1.16v-2.24c0-.29.23-.52.52-.52s.52.23.52.52v2.24c0,1.22-.99,2.21-2.2,2.21Z"/>
        <path class="cls-2" d="m39.4,39.53c-.12,0-.24-.04-.34-.12-.22-.19-.24-.52-.06-.74.52-.61.81-1.4.81-2.2v-4.71c0-.83-.3-1.63-.86-2.25l-2.42-2.36c-.21-.2-.21-.53,0-.74.2-.21.53-.21.74,0l2.45,2.39c.75.84,1.14,1.89,1.14,2.97v4.71c0,1.06-.38,2.08-1.06,2.88-.1.12-.25.18-.4.18Z"/>
        <path class="cls-2" d="m35.41,42.7H7.95c-.29,0-.52-.23-.52-.52s.23-.52.52-.52h27.46c.29,0,.52.23.52.52s-.23.52-.52.52Z"/>
        <path class="cls-2" d="m3.96,39.53c-.15,0-.29-.06-.4-.18-.69-.8-1.06-1.82-1.06-2.88v-4.71c0-1.09.4-2.13,1.12-2.94l2.47-2.42c.21-.2.54-.2.74,0s.2.54,0,.74l-2.45,2.39c-.53.59-.83,1.39-.83,2.22v4.71c0,.81.29,1.59.81,2.2.19.22.16.55-.06.74-.1.08-.22.12-.34.12Z"/>
        <path class="cls-2" d="m25.36,37.82h-7.36c-.29,0-.52-.23-.52-.52s.23-.52.52-.52h7.36c.29,0,.52.23.52.52s-.23.52-.52.52Z"/>
        <path class="cls-2" d="m37.72,46.62h-3.33c-1.22,0-2.21-.99-2.21-2.21v-2.24c0-.29.23-.52.52-.52s.52.23.52.52v2.24c0,.64.52,1.16,1.16,1.16h3.33c.64,0,1.16-.52,1.16-1.16v-5.41c0-.29.23-.52.52-.52s.52.23.52.52v5.41c0,1.22-.99,2.21-2.2,2.21Z"/>
        <path class="cls-2" d="m36.91,27.3c-.19,0-.38-.11-.47-.29l-2.91-5.97c-.45-.86-1.23-1.4-2.45-1.67-2.09-.47-5.75-.53-9.39-.53s-7.3.07-9.4.53c-1.22.27-2,.81-2.46,1.69l-2.9,5.96c-.13.26-.44.37-.7.24-.26-.13-.37-.44-.24-.7l2.91-5.97c.6-1.17,1.64-1.89,3.16-2.24,2.3-.52,6.17-.56,9.62-.56,4.28,0,7.55.1,9.62.56,1.52.34,2.56,1.07,3.16,2.22l2.92,5.99c.13.26.02.57-.24.7-.07.04-.15.05-.23.05Z"/>
        <path class="cls-2" d="m30.92,34.52c-.29,0-.52-.23-.52-.52,0-1.52,1.24-2.76,2.76-2.76h3.42c.29,0,.52.23.52.52s-.23.52-.52.52h-3.42c-.95,0-1.72.77-1.72,1.72,0,.29-.23.52-.52.52Z"/>
        <path class="cls-2" d="m21.68,26.98c-11.72,0-11.72-.62-11.72-.95,0-.1.03-.19.08-.28.01-.02,1.14-1.85,1.67-4.05.06-.23.27-.4.51-.4h18.92c.24,0,.45.17.51.4.53,2.2,1.66,4.03,1.67,4.04.05.08.08.18.08.28,0,.33,0,.95-11.72.95Zm-10.35-1.38c1.49.12,5.13.33,10.35.33s8.86-.21,10.35-.33c-.37-.71-.92-1.88-1.3-3.25H12.63c-.37,1.36-.92,2.54-1.3,3.25Z"/>
        <path class="cls-2" d="m12.45,34.52c-.29,0-.52-.23-.52-.52,0-.95-.77-1.72-1.72-1.72h-3.42c-.29,0-.52-.23-.52-.52s.23-.52.52-.52h3.42c1.52,0,2.77,1.24,2.77,2.76,0,.29-.23.52-.52.52Z"/>
      </g>
      <path class="cls-2" d="m38.47,27.3h-.79c-.9,0-1.62-.73-1.62-1.63,0-.97.73-1.7,1.62-1.7h.79c.9,0,1.62.73,1.62,1.62,0,.97-.73,1.7-1.62,1.7Zm-.79-2.28c-.32,0-.58.26-.58.58,0,.39.26.65.58.65h.79c.32,0,.58-.26.58-.58,0-.39-.26-.65-.58-.65h-.79Z"/>
      <path class="cls-2" d="m5.74,27.3h-.79c-.9,0-1.62-.73-1.62-1.63,0-.97.73-1.7,1.62-1.7h.79c.9,0,1.62.73,1.62,1.62,0,.97-.73,1.7-1.62,1.7Zm-.79-2.28c-.32,0-.58.26-.58.58,0,.39.26.65.58.65h.79c.32,0,.58-.26.58-.58,0-.39-.26-.65-.58-.65h-.79Z"/>
      <path class="cls-2" d="m44.72,17.63h-8.7c-1.53,0-2.78-1.25-2.78-2.78V6.15c0-1.53,1.25-2.78,2.78-2.78h8.7c1.53,0,2.78,1.25,2.78,2.78v8.7c0,1.53-1.25,2.78-2.78,2.78Zm-8.7-13.21c-.96,0-1.73.78-1.73,1.73v8.7c0,.96.78,1.73,1.73,1.73h8.7c.96,0,1.73-.78,1.73-1.73V6.15c0-.96-.78-1.73-1.73-1.73h-8.7Z"/>
    </g>
  </g>
  <g id="guias">
    <rect class="cls-1" x="47.5" y="47.5" width="2.5" height="2.5"/>
    <rect class="cls-1" x="47.5" width="2.5" height="2.5"/>
    <rect class="cls-1" y="47.5" width="2.5" height="2.5"/>
    <rect class="cls-1" width="2.5" height="2.5"/>
  </g>
</svg>