<?xml version="1.0" encoding="UTF-8"?>
<svg xmlns="http://www.w3.org/2000/svg" viewBox="0 0 50 50">
  <defs>
    <style>
      .cls-1 {
        fill: none;
        stroke: #000;
        stroke-miterlimit: 10;
        stroke-width: .21px;
      }

      .cls-2 {
        isolation: isolate;
      }

      .cls-3 {
        fill: #1e1f22;
        stroke-width: 0px;
      }
    </style>
  </defs>
  <g id="iconos">
    <g>
      <g class="cls-2">
        <path class="cls-3" d="m40.81,47.5H9.19c-2.17,0-3.93-1.76-3.93-3.93V6.43c0-2.17,1.76-3.93,3.93-3.93h22.09c.11,0,.22.05.3.13l13.04,14.01c.07.08.11.18.11.28v26.64c0,2.17-1.76,3.93-3.93,3.93ZM9.19,3.33c-1.71,0-3.11,1.39-3.11,3.11v37.13c0,1.71,1.39,3.11,3.11,3.11h31.61c1.71,0,3.11-1.39,3.11-3.11v-26.48L31.1,3.33H9.19Z"/>
      </g>
      <g class="cls-2">
        <path class="cls-3" d="m44.33,17.41h-8.83c-2.05,0-3.16-.94-3.73-1.73-.66-.9-.89-1.98-.89-2.69V2.91c0-.17.1-.32.26-.39.16-.06.34-.02.45.1l13.04,14.08c.11.12.14.3.08.45s-.21.25-.38.25ZM31.69,3.97v9.02c0,.55.19,1.46.73,2.2.67.92,1.7,1.39,3.06,1.39h7.89L31.69,3.97Z"/>
      </g>
      <path class="cls-3" d="m15.96,36.73h-2.28v2.83c0,.28-.21.48-.55.48-.28,0-.48-.21-.48-.48v-7.04c0-.41.35-.76.76-.76h2.55c1.66,0,2.62,1.17,2.62,2.48,0,1.38-.97,2.48-2.62,2.48Zm-.07-4.07h-2.21v3.17h2.21c.97,0,1.66-.62,1.66-1.59s-.69-1.59-1.66-1.59Zm7.18,7.38h-2.07c-.41,0-.76-.35-.76-.76v-6.76c0-.41.35-.76.76-.76h2.07c2.55,0,4.28,1.79,4.28,4.14,0,2.35-1.66,4.14-4.28,4.14Zm0-7.38h-1.79v6.42h1.79c2,0,3.17-1.45,3.17-3.24.07-1.73-1.1-3.17-3.17-3.17Zm11.25,0h-4v2.69h3.93c.28,0,.41.21.41.48s-.21.41-.41.41h-3.93v3.31c0,.28-.21.48-.55.48-.28,0-.48-.21-.48-.48v-7.04c0-.41.35-.76.76-.76h4.28c.28,0,.41.21.41.48.07.21-.14.41-.41.41Z"/>
    </g>
  </g>
  <g id="guias">
    <g>
      <rect class="cls-1" x="47.5" y="47.5" width="2.5" height="2.5"/>
      <rect class="cls-1" x="47.5" width="2.5" height="2.5"/>
      <rect class="cls-1" y="47.5" width="2.5" height="2.5"/>
      <rect class="cls-1" width="2.5" height="2.5"/>
    </g>
  </g>
</svg>