<?xml version="1.0" encoding="UTF-8"?>
<svg xmlns="http://www.w3.org/2000/svg" viewBox="0 0 50 50">
  <defs>
    <style>
      .cls-1 {
        fill: none;
        stroke: #000;
        stroke-miterlimit: 10;
        stroke-width: .21px;
      }

      .cls-2 {
        fill: #1e1f22;
        stroke-width: 0px;
      }
    </style>
  </defs>
  <g id="iconos">
    <g>
      <g>
        <path class="cls-2" d="m33.43,37.28c-.23,0-.44-.15-.51-.38-.08-.28.09-.57.36-.65.35-.1.6-.37.65-.69.03-.2,0-.42-.11-.59-.07-.12-.09-.27-.05-.41s.13-.25.26-.32c.37-.19.6-.57.6-.99,0-.38-.2-.74-.53-.94-.19-.12-.29-.35-.23-.57.02-.07.03-.14.03-.2,0-.59-.64-1.03-1.2-.81-.19.08-.4.04-.55-.1-.7-.64-1.61-.99-2.56-.99h-1.96c-.95,0-1.86.35-2.56.99-.15.14-.36.18-.55.1-.55-.21-1.2.22-1.2.81,0,.07,0,.14.02.2.05.22-.04.45-.23.57-.33.2-.53.56-.53.94,0,.42.23.8.6.99.13.07.22.18.26.32.04.14.02.29-.05.41-.11.18-.15.39-.11.6.05.32.31.59.65.69.28.08.44.37.36.65-.08.28-.37.44-.65.36-.74-.21-1.29-.81-1.41-1.53-.04-.28-.03-.57.05-.84-.48-.41-.76-1-.76-1.65s.28-1.22.74-1.62c0-.03,0-.06,0-.09,0-1.2,1.16-2.14,2.32-1.88.86-.69,1.93-1.06,3.04-1.06h1.96c1.11,0,2.18.38,3.04,1.06,1.15-.25,2.32.68,2.32,1.88,0,.03,0,.06,0,.1.46.41.74,1,.74,1.62s-.28,1.24-.76,1.65c.08.27.09.56.05.84-.12.72-.67,1.32-1.41,1.53-.05.01-.09.02-.14.02Z"/>
        <path class="cls-2" d="m28.61,41.82c-2.86,0-5.2-2.32-5.22-5.18-.6-.02-1.11-.44-1.2-.99-.1-.64.29-1.22.91-1.36.69-.16,1.15-.73,1.15-1.38,0-.22-.05-.42-.15-.62-.1-.2-.06-.45.1-.61.21-.21.33-.5.33-.79,0-.22-.06-.42-.18-.61-.14-.22-.1-.51.1-.68.84-.71,1.9-1.1,3-1.1h2.3c1.1,0,2.16.39,3,1.1.2.17.24.46.1.69-.12.18-.18.39-.18.61,0,.29.12.58.33.79.16.16.2.4.1.61-.1.19-.15.4-.15.62,0,.67.48,1.25,1.13,1.37.59.18,1.04.69.93,1.37-.09.56-.62.99-1.23.99.04,2.84-2.3,5.18-5.18,5.18Zm-3.43-9.67c.08.24.12.5.12.76,0,1.14-.8,2.14-1.91,2.39-.13.03-.17.1-.16.19,0,.03.08.11.2.11.56,0,1.01.45,1.01,1.01,0,2.3,1.87,4.17,4.17,4.17s4.17-1.87,4.17-4.17c0-.56.45-1.01,1.01-1.01.11,0,.19-.07.2-.11.02-.13-.09-.16-.1-.17-1.14-.23-1.97-1.24-1.97-2.41,0-.26.04-.51.12-.76-.26-.37-.41-.81-.41-1.26,0-.25.05-.5.13-.74-.59-.4-1.27-.6-1.99-.6h-2.3c-.71,0-1.41.21-2,.61.09.23.13.48.13.73,0,.45-.15.89-.41,1.26Z"/>
        <path class="cls-2" d="m28.61,39.3c-.66,0-1.28-.31-1.71-.84-.18-.23-.15-.55.08-.74.22-.18.55-.15.74.08.46.57,1.33.57,1.8,0,.18-.22.51-.26.74-.07.22.18.26.51.07.74-.43.53-1.06.84-1.71.84Z"/>
        <path class="cls-2" d="m26.64,36.68c-.29,0-.52-.24-.52-.52v-.85c0-.29.24-.52.52-.52s.52.24.52.52v.85c0,.29-.24.52-.52.52Z"/>
        <path class="cls-2" d="m30.62,36.68c-.29,0-.52-.24-.52-.52v-.85c0-.29.24-.52.52-.52s.52.24.52.52v.85c0,.29-.24.52-.52.52Z"/>
      </g>
      <g>
        <path class="cls-2" d="m14.9,19.8c-1.16,0-1.84-.85-1.87-.89-.18-.23-.14-.56.09-.74s.56-.14.74.09c.01.02.41.49,1.05.49.25,0,.45-.08.6-.23.15-.16.24-.39.23-.63,0-.32-.12-.74-.96-1.1-.08-.04-.18-.07-.27-.11-.59-.22-1.58-.58-1.58-1.9,0-.55.2-1.04.56-1.4.35-.35.84-.55,1.38-.55h.01c1.04,0,1.8.64,1.83.67.22.19.25.52.06.74-.19.22-.52.25-.74.06-.01,0-.52-.42-1.16-.42-.24.04-.49.08-.65.24-.16.16-.25.4-.25.66,0,.54.25.68.89.92.11.04.23.08.33.13,1.03.45,1.56,1.13,1.59,2.04.01.53-.18,1.03-.53,1.39-.35.35-.81.54-1.35.54Z"/>
        <path class="cls-2" d="m14.91,13.88c-.29,0-.52-.24-.52-.52v-1.04c0-.29.24-.52.52-.52s.52.24.52.52v1.04c0,.29-.24.52-.52.52Z"/>
        <path class="cls-2" d="m14.9,20.76h0c-.29,0-.52-.24-.52-.53v-.96c0-.29.24-.52.53-.52h0c.29,0,.52.24.52.53v.96c0,.29-.24.52-.53.52Z"/>
      </g>
      <path class="cls-2" d="m37.95,47.5H11.81c-1.43,0-2.59-1.16-2.59-2.59V5.09c0-1.43,1.16-2.59,2.59-2.59h26.37c1.43,0,2.59,1.16,2.59,2.59v39.58c0,1.56-1.27,2.83-2.83,2.83ZM11.81,3.55c-.85,0-1.54.69-1.54,1.54v39.82c0,.85.69,1.54,1.54,1.54h26.14c.98,0,1.78-.8,1.78-1.78V5.09c0-.85-.69-1.54-1.54-1.54H11.81Z"/>
      <path class="cls-2" d="m40.25,8.82H9.75c-.29,0-.52-.24-.52-.52s.24-.52.52-.52h30.5c.29,0,.52.24.52.52s-.24.52-.52.52Z"/>
      <path class="cls-2" d="m35.16,18.46h-13.91c-.29,0-.52-.24-.52-.52s.24-.52.52-.52h13.91c.29,0,.52.24.52.52s-.24.52-.52.52Z"/>
      <path class="cls-2" d="m35.16,13.9h-15.81c-.29,0-.52-.24-.52-.52s.24-.52.52-.52h15.81c.29,0,.52.24.52.52s-.24.52-.52.52Z"/>
    </g>
  </g>
  <g id="guias">
    <rect class="cls-1" x="47.5" y="47.5" width="2.5" height="2.5"/>
    <rect class="cls-1" x="47.5" width="2.5" height="2.5"/>
    <rect class="cls-1" y="47.5" width="2.5" height="2.5"/>
    <rect class="cls-1" width="2.5" height="2.5"/>
  </g>
</svg>