<?xml version="1.0" encoding="UTF-8"?>
<svg xmlns="http://www.w3.org/2000/svg" viewBox="0 0 50 50">
  <defs>
    <style>
      .cls-1 {
        fill: none;
        stroke: #000;
        stroke-miterlimit: 10;
        stroke-width: .21px;
      }

      .cls-2 {
        fill: #1e1f22;
        stroke-width: 0px;
      }
    </style>
  </defs>
  <g id="iconos">
    <g>
      <g id="pensiones-voluntarias-icono">
        <path class="cls-2" d="m19.22,34.54c-.25,0-.5-.08-.71-.22-5.01-3.34-6.94-8.21-7.28-9.15-.11-.3.05-.62.34-.73.29-.1.62.05.73.34.19.54,2.03,5.38,6.84,8.58l.48.47-.32-.47c5-3.34,6.77-8.36,6.84-8.57.1-.3.44-.46.72-.35.3.1.46.42.35.72-.2.57-2.06,5.66-7.29,9.15-.21.14-.46.22-.71.22Z"/>
        <path class="cls-2" d="m19.23,31.5c-.31,0-.57-.26-.57-.57v-6.06c0-.31.26-.57.57-.57s.57.26.57.57v6.06c0,.31-.26.57-.57.57Z"/>
        <path class="cls-2" d="m19.23,47.02s-.09,0-.14-.02l-13.48-3.42c-.38.02-.98-.22-1.37-.65-.38-.42-.57-.99-.52-1.56l1.54-12.57c0-1.63,1.09-3.1,2.72-3.59l4.63-1.39.4-.8c.06-.12.13-.22.22-.31-1.54-1.45-2.58-3.53-2.83-5.69-.95-.4-1.64-1.24-1.8-2.24-.08-.51-.03-1.03.14-1.51-.85-.64-1.36-1.64-1.36-2.72s.48-2.01,1.29-2.65c-.01-.1-.02-.2-.02-.31,0-1.64,1.33-2.98,2.97-2.98.26,0,.52.03.77.1,1.45-1.21,3.26-1.86,5.15-1.86h3.38c1.89,0,3.71.66,5.15,1.86.25-.07.51-.1.77-.1,1.64,0,2.97,1.34,2.97,2.98,0,.1,0,.21-.02.31.8.64,1.29,1.62,1.29,2.65,0,1.08-.51,2.08-1.36,2.72.18.48.23,1,.14,1.51-.16.99-.85,1.83-1.8,2.23-.25,2.19-1.28,4.24-2.83,5.69.09.09.16.2.22.31l.4.8,4.44,1.35c.3.09.47.41.38.71-.09.3-.42.46-.71.38l-4.68-1.42c-.15-.04-.28-.15-.34-.29l-.51-1.02c-.03-.07-.11-.09-.17-.07-.27.08-.56-.04-.68-.29-.12-.25-.05-.55.18-.72,1.81-1.3,3.03-3.56,3.21-5.89.02-.24.18-.44.41-.51.72-.2,1.25-.77,1.36-1.45.07-.43-.01-.87-.24-1.25-.08-.14-.1-.3-.06-.45.04-.15.14-.28.28-.35.75-.39,1.22-1.16,1.22-2,0-.77-.41-1.5-1.07-1.91-.21-.13-.31-.38-.25-.62.03-.14.05-.29.05-.43,0-1.01-.82-1.84-1.84-1.84-.24,0-.47.04-.68.13-.2.08-.44.04-.6-.1-1.27-1.15-2.92-1.79-4.64-1.79h-3.38c-1.72,0-3.37.64-4.64,1.79-.16.15-.39.19-.6.1-.22-.09-.45-.13-.68-.13-1.01,0-1.84.82-1.84,1.84,0,.15.02.29.05.43.06.24-.04.49-.25.62-.66.41-1.07,1.14-1.07,1.91,0,.84.47,1.61,1.22,2,.14.07.24.2.28.35.04.15.02.31-.06.45-.22.37-.31.82-.24,1.25.11.68.64,1.25,1.36,1.45.23.06.4.27.41.51.17,2.33,1.4,4.59,3.2,5.89.22.16.3.46.18.71-.13.25-.41.38-.67.29-.07-.02-.14.01-.17.08l-.51,1.02c-.07.14-.2.25-.34.29l-4.86,1.46c-1.15.34-1.91,1.38-1.91,2.57l-1.54,12.62c-.02.24.06.48.23.67.17.19.41.29.66.29l13.45,3.39,8.48-3.08c.29-.1.62.05.73.34.11.29-.05.62-.34.73l-8.65,3.14c-.06.02-.13.03-.19.03Z"/>
        <path class="cls-2" d="m19.23,25.01c-4.77,0-8.66-3.88-8.66-8.65,0-.15-.12-.27-.27-.27-.89,0-1.67-.61-1.8-1.42-.15-.92.42-1.76,1.31-1.96,1.34-.31,2.24-1.43,2.24-2.71,0-.42-.1-.84-.29-1.21-.11-.22-.07-.48.11-.66.43-.42.67-1,.67-1.6,0-.44-.12-.86-.36-1.23-.16-.24-.11-.56.11-.75,1.38-1.17,3.13-1.81,4.94-1.81h3.96c1.84,0,3.55.62,4.94,1.81.22.18.27.5.11.74-.24.37-.36.79-.36,1.23,0,.59.24,1.18.67,1.6.18.17.22.44.11.66-.19.38-.29.8-.29,1.21,0,1.31.93,2.45,2.22,2.7.02,0,.12.04.14.04.71.21,1.36.94,1.19,1.93-.13.81-.9,1.42-1.8,1.42-.15,0-.27.12-.27.27,0,4.77-3.88,8.65-8.65,8.65Zm-6.28-16.38c.16.43.25.9.25,1.36,0,1.8-1.28,3.4-3.03,3.79-.4.09-.58.38-.53.69.04.26.34.47.67.47.77,0,1.41.63,1.41,1.41,0,4.14,3.37,7.52,7.52,7.52s7.52-3.37,7.52-7.52c0-.78.63-1.41,1.41-1.41.34,0,.63-.2.67-.47.07-.41-.23-.61-.4-.66-.02,0-.12-.04-.14-.05-1.71-.32-3.03-1.93-3.03-3.78,0-.46.08-.92.25-1.36-.48-.6-.74-1.35-.74-2.11,0-.48.1-.95.3-1.39-1.12-.82-2.44-1.25-3.85-1.25h-3.96c-1.39,0-2.73.44-3.85,1.26.19.43.3.9.3,1.39,0,.76-.27,1.51-.74,2.11Z"/>
        <path class="cls-2" d="m16.33,28.24c-.17,0-.38-.1-.52-.27l-3.07-3.84c-.14-.18-.16-.43-.05-.63,0-.05.06-.2.09-.25l.29-.58c.14-.28.49-.39.76-.26l4.69,2.34c.15.08.26.21.3.38.04.16,0,.34-.1.47l-1.75,2.33c-.14.2-.38.28-.64.3Zm-.27-.98s0,0,0,.01h0Zm-2.2-3.55l2.51,3.14,1.03-1.37-3.54-1.77Z"/>
        <path class="cls-2" d="m22.05,28.24s-.05,0-.08,0c-.2-.01-.39-.1-.53-.3l-1.74-2.32c-.1-.14-.14-.31-.1-.47.04-.16.15-.3.3-.38l4.69-2.34c.28-.13.62-.03.76.26l.29.58s.04.1.05.15c.11.2.13.55-.02.73l-3.06,3.83c-.15.18-.35.27-.56.27Zm.3-.99h0s0,0,0,0Zm-1.33-1.77l1.03,1.37,2.51-3.14-3.54,1.77Z"/>
        <path class="cls-2" d="m19.23,20.66c-1.03,0-2.01-.48-2.69-1.32-.2-.24-.16-.6.08-.8.24-.19.6-.16.8.08.93,1.15,2.68,1.15,3.61,0,.2-.24.56-.28.8-.08.24.2.28.56.08.8-.68.84-1.66,1.32-2.69,1.32Z"/>
        <path class="cls-2" d="m15.84,16.15c-.31,0-.57-.26-.57-.57v-1.47c0-.31.26-.57.57-.57s.57.26.57.57v1.47c0,.31-.26.57-.57.57Z"/>
        <path class="cls-2" d="m22.69,16.15c-.31,0-.57-.26-.57-.57v-1.47c0-.31.26-.57.57-.57s.57.26.57.57v1.47c0,.31-.26.57-.57.57Z"/>
      </g>
      <path class="cls-2" d="m35.47,41.39c-1.6,0-2.54-1.17-2.57-1.23-.2-.25-.15-.6.1-.8.25-.2.61-.15.8.1.02.03.65.79,1.68.79.42,0,.76-.13,1.01-.39.26-.27.4-.66.4-1.07-.02-.78-.49-1.33-1.52-1.78-.13-.06-.27-.11-.41-.16-.86-.32-2.17-.8-2.17-2.6,0-.74.27-1.42.76-1.91.48-.48,1.15-.74,1.88-.74h.01c1.45,0,2.51.89,2.55.93.24.2.27.56.06.8-.2.24-.56.27-.8.07,0,0-.8-.66-1.82-.66h0c-.44,0-.8.14-1.08.41-.27.27-.42.67-.42,1.11,0,.95.54,1.2,1.43,1.53.16.06.32.12.47.18,1.43.62,2.17,1.56,2.21,2.79.02.72-.25,1.41-.72,1.89-.47.48-1.1.73-1.83.73Z"/>
      <path class="cls-2" d="m35.48,32.75c-.31,0-.57-.26-.57-.57v-1.52c0-.31.26-.57.57-.57s.57.26.57.57v1.52c0,.31-.26.57-.57.57Z"/>
      <path class="cls-2" d="m35.47,42.8h0c-.32,0-.57-.26-.57-.57v-1.41c0-.32.26-.57.57-.57h0c.32,0,.57.26.57.57v1.41c0,.32-.26.57-.57.57Z"/>
      <path class="cls-2" d="m35.48,47.26c-5.97,0-10.82-4.85-10.82-10.81s4.85-10.81,10.82-10.81,10.81,4.85,10.81,10.81-4.85,10.81-10.81,10.81Zm0-20.49c-5.34,0-9.68,4.34-9.68,9.68s4.34,9.68,9.68,9.68,9.67-4.34,9.67-9.68-4.34-9.68-9.67-9.68Z"/>
    </g>
  </g>
  <g id="guias">
    <rect class="cls-1" x="47.5" y="47.5" width="2.5" height="2.5"/>
    <rect class="cls-1" x="47.5" width="2.5" height="2.5"/>
    <rect class="cls-1" y="47.5" width="2.5" height="2.5"/>
    <rect class="cls-1" width="2.5" height="2.5"/>
    <rect class="cls-1" x="47.5" y="35" width="2.5" height="2.5"/>
    <rect class="cls-1" y="35" width="2.5" height="2.5"/>
  </g>
</svg>