<?xml version="1.0" encoding="UTF-8"?>
<svg xmlns="http://www.w3.org/2000/svg" viewBox="0 0 50 50">
  <defs>
    <style>
      .cls-1 {
        fill: none;
        stroke: #000;
        stroke-miterlimit: 10;
        stroke-width: .21px;
      }

      .cls-2 {
        fill: #1e1f22;
        stroke-width: 0px;
      }
    </style>
  </defs>
  <g id="iconos">
    <g>
      <g id="seguros-personas-icono-cross-selling">
        <path class="cls-2" d="m25,47.5s-.09,0-.14-.02C1.6,40.6,5.07,8.72,5.11,8.4c.03-.27.28-.46.54-.43,11.6,1.36,18.95-5.28,19.02-5.35.19-.17.48-.17.66,0,.07.07,7.4,6.71,19.02,5.35.25-.04.51.16.54.43.04.32,3.52,32.2-19.75,39.08-.05.01-.09.02-.14.02ZM6.03,9c-.33,3.97-1.82,31.24,18.97,37.51,20.79-6.27,19.3-33.54,18.97-37.51-10.38,1.03-17.4-4.1-18.97-5.37-1.57,1.27-8.58,6.4-18.97,5.37Z"/>
      </g>
      <g>
        <path class="cls-2" d="m27.63,34.22c-.13,0-.26,0-.39-.02l-1.54-.21c-.55-.08-1.11-.08-1.66,0l-1.54.21c-.84.12-1.7-.15-2.34-.71l-.29-.25c-1.58-1.38-2.07-3.68-1.2-5.59l.53-1.17c.34-.74.73-1.47,1.16-2.17l.98-1.75c.55-.98,1.35-1.67,2.25-1.95.84-.26,1.71-.25,2.54,0,.9.28,1.7.98,2.25,1.96l.99,1.77c.42.68.81,1.41,1.15,2.16l.54,1.17c.89,1.94.4,4.18-1.2,5.59l-.29.25c-.54.48-1.24.73-1.95.73Zm-2.75-1.26c.32,0,.64.02.96.06l1.54.21c.56.07,1.14-.1,1.57-.47l.29-.25c1.28-1.12,1.66-2.9.95-4.45l-.54-1.17h0c-.32-.71-.69-1.41-1.1-2.07l-1-1.79c-.43-.76-1.03-1.29-1.69-1.5-.64-.2-1.32-.2-1.96,0-.66.21-1.26.74-1.69,1.5l-.99,1.77c-.42.69-.79,1.38-1.11,2.08l-.53,1.17c-.71,1.54-.33,3.33.95,4.45l.29.25c.43.38,1.02.55,1.57.47l1.54-.21c.32-.04.64-.06.96-.06Z"/>
        <path class="cls-2" d="m33.08,26.06c-.25,0-.5-.05-.74-.14l-.13-.05c-.38-.15-.68-.45-.82-.83l-.2-.54c-.06-.17-.14-.33-.25-.47l-.33-.47c-.24-.33-.32-.75-.22-1.14l.03-.14c.21-.89.99-1.55,1.91-1.6l.48-.03c.32-.02.64-.02.95,0l.73.02c.49.01.94.18,1.24.49.27.27.46.62.53,1,.08.42-.02.88-.29,1.3l-.41.64c-.15.25-.33.52-.52.77h0s-.29.38-.29.38c-.4.52-1.02.81-1.66.81Zm.18-4.44c-.14,0-.27,0-.4.01l-.48.03c-.49.03-.9.38-1.02.85l-.03.14c-.03.12,0,.25.07.35l.33.47c.16.22.28.45.37.71l.2.54c.04.12.14.21.25.25l.13.05c.47.18.99.03,1.28-.36l.29-.38c.17-.22.33-.46.47-.69l.42-.65c.08-.12.2-.36.15-.59-.03-.18-.13-.35-.25-.48-.18-.17-.44-.2-.58-.21l-.75-.02c-.15,0-.3-.02-.45-.02Zm1.38,2.95h.01-.01Z"/>
        <path class="cls-2" d="m16.91,26.06c-.63,0-1.24-.29-1.65-.82l-.29-.38h0c-.19-.25-.37-.52-.53-.79l-.4-.62c-.27-.42-.37-.88-.29-1.3.07-.38.25-.72.53-.99.31-.3.75-.48,1.24-.49l.75-.02c.3-.02.61-.02.93,0l.48.03c.91.05,1.69.71,1.91,1.6l.03.14c.09.39.01.81-.22,1.14l-.34.47c-.1.14-.19.3-.25.47l-.2.54c-.14.38-.44.68-.81.83l-.14.05c-.24.1-.5.14-.74.14Zm-1.16-1.79l.29.38c.3.39.81.53,1.27.36l.14-.05c.11-.04.2-.14.24-.25l.2-.54c.09-.25.22-.49.37-.7l.33-.47c.07-.1.1-.23.07-.35l-.03-.14c-.11-.47-.53-.82-1.02-.85l-.48-.03c-.28-.02-.56-.02-.84,0l-.77.02c-.14,0-.41.03-.58.21-.13.13-.22.3-.26.48-.04.24.08.48.16.6l.41.63c.15.25.31.49.48.71Z"/>
        <path class="cls-2" d="m28.81,20.29c-.29,0-.58-.09-.82-.26l-.47-.33c-.15-.1-.31-.19-.48-.25l-.54-.2c-.38-.14-.68-.44-.83-.82l-.05-.13c-.33-.87-.06-1.83.68-2.4l.38-.29c.25-.19.51-.37.79-.53l.62-.4c.41-.27.87-.37,1.3-.3.38.07.72.25.99.53.3.3.48.74.49,1.24l.02.75c.02.3.02.62,0,.93l-.03.48c-.05.91-.71,1.7-1.6,1.91l-.14.03c-.1.02-.21.04-.32.04Zm.3-4.96c-.2,0-.39.1-.49.17l-.63.41c-.25.15-.49.31-.71.48l-.38.29c-.39.3-.54.81-.36,1.27l.05.13c.05.12.14.21.26.25l.54.2c.25.09.49.22.7.37l.47.33c.1.07.23.1.35.07l.14-.03c.47-.11.82-.53.85-1.02l.03-.48h0c.02-.28.02-.56,0-.84l-.02-.77c0-.24-.08-.45-.21-.58s-.3-.22-.49-.26c-.03,0-.07,0-.1,0Z"/>
        <path class="cls-2" d="m20.94,20.29c-.11,0-.22-.01-.32-.04l-.14-.03c-.89-.21-1.55-1-1.6-1.91l-.03-.48h0c-.02-.32-.02-.64,0-.95l.02-.73c.01-.5.19-.94.49-1.24.27-.27.62-.45.99-.53.43-.08.89.02,1.3.3l.63.41c.26.15.52.33.77.52l.38.29c.73.56,1.01,1.53.67,2.39l-.05.13c-.15.38-.45.68-.83.82l-.55.2c-.17.06-.33.15-.47.25l-.47.33c-.24.17-.53.26-.82.26Zm-1.12-2.51l.03.48c.03.49.38.91.85,1.02l.14.03c.12.03.25,0,.35-.07l.47-.33c.21-.15.45-.28.7-.37l.55-.2c.11-.04.21-.14.25-.25l.05-.13c.18-.47.03-.98-.36-1.28l-.38-.29c-.22-.17-.45-.32-.69-.47l-.65-.42c-.12-.08-.36-.2-.59-.16-.18.03-.35.12-.49.26-.13.13-.2.33-.21.58l-.02.75c-.02.3-.02.58,0,.86Z"/>
      </g>
    </g>
  </g>
  <g id="guias">
    <rect class="cls-1" x="47.5" y="47.5" width="2.5" height="2.5"/>
    <rect class="cls-1" x="47.5" width="2.5" height="2.5"/>
    <rect class="cls-1" y="47.5" width="2.5" height="2.5"/>
    <rect class="cls-1" width="2.5" height="2.5"/>
  </g>
</svg>