<?xml version="1.0" encoding="UTF-8"?>
<svg xmlns="http://www.w3.org/2000/svg" viewBox="0 0 50 50">
  <defs>
    <style>
      .cls-1 {
        fill: none;
        stroke: #000;
        stroke-miterlimit: 10;
        stroke-width: .21px;
      }

      .cls-2 {
        fill: #1e1f22;
        fill-rule: evenodd;
        stroke-width: 0px;
      }
    </style>
  </defs>
  <g id="iconos">
    <path class="cls-2" d="m36.33,45.61c-1.56.06-3.05-.29-4.54-.72-10.04-2.87-17.56-9.13-23.61-17.39-2.28-3.13-4.4-6.33-5.11-10.22-.83-4.63.5-8.59,3.95-11.77,1.11-1.03,4.46-1.48,5.8-.82.49.24.82.68,1.02,1.16,1.27,2.99,2.52,5.99,3.76,9,.23.56.13,1.14-.13,1.72-.64,1.39-1.66,2.49-2.7,3.6-.79.82-.82,1.55-.24,2.52,3.55,5.88,8.45,10.17,14.85,12.74.96.38,1.68.26,2.31-.55,1.06-1.33,2.2-2.63,3.21-4.01.69-.95,1.48-1.09,2.46-.66,2.13.98,4.24,1.99,6.35,2.99.48.23.94.46,1.42.68,2.15,1.07,2.12,1.09,1.94,3.45-.36,4.63-3.83,6.91-7.94,8.05-.91.24-1.87.28-2.81.23Z"/>
  </g>
  <g id="guias">
    <rect class="cls-1" x="47.5" y="47.5" width="2.5" height="2.5"/>
    <rect class="cls-1" x="47.5" width="2.5" height="2.5"/>
    <rect class="cls-1" y="47.5" width="2.5" height="2.5"/>
    <rect class="cls-1" width="2.5" height="2.5"/>
  </g>
</svg>