<?xml version="1.0" encoding="UTF-8"?>
<svg xmlns="http://www.w3.org/2000/svg" viewBox="0 0 50 50">
  <defs>
    <style>
      .cls-1 {
        fill: none;
        stroke: #000;
        stroke-miterlimit: 10;
        stroke-width: .21px;
      }

      .cls-2 {
        fill: #1e1f22;
        stroke-width: 0px;
      }
    </style>
  </defs>
  <g id="iconos">
    <g>
      <path class="cls-2" d="m41.65,30.84c-.86,0-1.74-.19-2.57-.6-.26-.13-.37-.45-.24-.71.13-.26.45-.37.71-.24,2.36,1.16,5.24.19,6.4-2.18,1.16-2.36.18-5.24-2.18-6.4-2.36-1.16-5.23-.18-6.4,2.18-.13.26-.45.37-.71.24s-.37-.45-.24-.71c1.42-2.89,4.92-4.08,7.82-2.66,2.89,1.42,4.08,4.93,2.66,7.82-1.01,2.06-3.09,3.26-5.25,3.26Z"/>
      <g>
        <path class="cls-2" d="m11.44,19.34c1.28,0,2.29.35,3.02,1.05.73.7,1.1,1.65,1.1,2.85s-.37,2.12-1.11,2.82c-.74.71-1.77,1.07-3.07,1.07h-2.01v3.71h-2.91v-11.5h4.97Zm-.6,5.3c.58,0,1-.14,1.25-.43.26-.29.39-.63.39-1.03,0-.14-.03-.27-.08-.42-.05-.14-.14-.29-.25-.43-.12-.14-.29-.26-.52-.35-.23-.09-.49-.14-.8-.14h-1.47v2.79h1.47Z"/>
        <path class="cls-2" d="m19.95,30.83h-2.91v-11.5h2.91v11.5Z"/>
        <path class="cls-2" d="m25.11,28.21h4.68v2.62h-7.63v-11.5h2.94v8.88Z"/>
        <path class="cls-2" d="m30.36,30.83l4.29-11.5h2.76l4.26,11.5h-3.09l-.79-2.24h-3.58l-.81,2.24h-3.03Zm4.68-4.66h1.92l-.29-.81c-.07-.19-.16-.46-.26-.8-.11-.34-.19-.63-.26-.86-.07-.24-.11-.36-.11-.36,0,0-.03.12-.11.36s-.18.53-.29.86c-.11.33-.21.6-.28.81l-.31.81Z"/>
      </g>
      <g>
        <path class="cls-2" d="m41.88,27.46c-.82,0-1.31-.58-1.36-.65-.18-.23-.14-.56.09-.74.23-.18.56-.14.74.09,0,0,.21.25.53.25.11,0,.2-.03.26-.09.06-.06.1-.17.1-.27,0-.11-.01-.33-.51-.55l-.17-.07c-.37-.14-1.15-.43-1.15-1.42,0-.83.63-1.46,1.46-1.46.73,0,1.26.43,1.32.48.22.19.25.52.06.75s-.52.25-.74.07c-.02-.01-.3-.23-.64-.23-.25,0-.39.15-.39.4,0,.22.06.27.46.42.08.03.16.06.23.09.74.32,1.13.82,1.15,1.49,0,.39-.14.77-.4,1.04-.26.27-.61.41-1.01.41Z"/>
        <path class="cls-2" d="m41.88,23.6c-.29,0-.53-.24-.53-.53v-.68c0-.29.24-.53.53-.53s.53.24.53.53v.68c0,.29-.24.53-.53.53Z"/>
        <path class="cls-2" d="m41.88,28.09c-.29,0-.53-.24-.53-.53v-.63c0-.29.24-.53.53-.53s.53.24.53.53v.63c0,.29-.24.53-.53.53Z"/>
      </g>
      <circle class="cls-2" cx="4.05" cy="20.89" r="1.55"/>
      <circle class="cls-2" cx="4.05" cy="25.09" r="1.55"/>
      <circle class="cls-2" cx="4.05" cy="29.28" r="1.55"/>
    </g>
  </g>
  <g id="guias">
    <g>
      <rect class="cls-1" x="47.5" y="47.5" width="2.5" height="2.5"/>
      <rect class="cls-1" x="47.5" width="2.5" height="2.5"/>
      <rect class="cls-1" y="47.5" width="2.5" height="2.5"/>
      <rect class="cls-1" width="2.5" height="2.5"/>
    </g>
  </g>
</svg>