<?xml version="1.0" encoding="UTF-8"?>
<svg xmlns="http://www.w3.org/2000/svg" viewBox="0 0 50 50">
  <defs>
    <style>
      .cls-1 {
        fill: none;
        stroke: #000;
        stroke-miterlimit: 10;
        stroke-width: .21px;
      }

      .cls-2 {
        fill: #1e1f22;
        stroke-width: 0px;
      }
    </style>
  </defs>
  <g id="iconos">
    <g>
      <g>
        <path class="cls-2" d="m28.17,35.25c-.24,0-.46-.17-.51-.42l-.82-3.95c-.03-.14,0-.28.08-.39.08-.12.19-.2.33-.23l5.39-1.12c.28-.05.56.12.62.41l.82,3.95c.03.14,0,.28-.08.39-.08.12-.19.2-.33.23l-5.39,1.12s-.07.01-.11.01Zm-.2-4.07l.61,2.93,4.37-.91-.61-2.93-4.37.91Z"/>
        <path class="cls-2" d="m29.77,36.3c-.1,0-.2-.03-.29-.09-.12-.08-.2-.19-.23-.33l-.28-1.33c-.06-.28.12-.56.41-.62.28-.05.56.12.62.41l.17.81,4.37-.91-.61-2.93-.81.17c-.28.04-.56-.12-.62-.41-.06-.28.12-.56.41-.62l1.32-.28c.13-.02.28,0,.39.08.12.08.2.19.23.33l.82,3.95c.06.28-.12.56-.41.62l-5.39,1.12s-.07.01-.11.01Z"/>
        <path class="cls-2" d="m29.54,41.82c-.24,0-.46-.17-.51-.42l-2.19-10.53c-.06-.28.12-.56.41-.62.28-.05.56.12.62.41l2.19,10.53c.06.28-.12.56-.41.62-.03,0-.07.01-.11.01Z"/>
      </g>
      <g>
        <path class="cls-2" d="m14.9,19.8c-1.16,0-1.84-.85-1.87-.89-.18-.23-.14-.56.09-.74.23-.18.56-.14.74.09.01.02.41.49,1.05.49.25,0,.45-.08.6-.23.15-.16.24-.39.23-.63,0-.32-.12-.74-.96-1.1-.08-.04-.18-.07-.27-.11-.59-.22-1.58-.58-1.58-1.9,0-.55.2-1.04.56-1.4.35-.35.84-.55,1.38-.55h.01c1.04,0,1.8.64,1.83.67.22.19.25.52.06.74-.19.22-.52.24-.74.06-.01,0-.54-.47-1.16-.42-.26,0-.48.08-.64.24-.16.16-.25.4-.25.66,0,.54.25.68.89.92.11.04.23.08.33.13,1.03.45,1.56,1.13,1.59,2.04.01.53-.18,1.03-.53,1.39-.35.35-.81.54-1.35.54Z"/>
        <path class="cls-2" d="m14.91,13.88c-.29,0-.52-.24-.52-.52v-1.04c0-.29.24-.52.52-.52s.52.24.52.52v1.04c0,.29-.24.52-.52.52Z"/>
        <path class="cls-2" d="m14.9,20.76h0c-.29,0-.52-.24-.52-.53v-.96c0-.29.24-.52.53-.52h0c.29,0,.52.24.52.53v.96c0,.29-.24.52-.53.52Z"/>
      </g>
      <path class="cls-2" d="m37.95,47.5H11.81c-1.43,0-2.59-1.16-2.59-2.59V5.09c0-1.43,1.16-2.59,2.59-2.59h26.37c1.43,0,2.59,1.16,2.59,2.59v39.58c0,1.56-1.27,2.83-2.83,2.83ZM11.81,3.55c-.85,0-1.54.69-1.54,1.54v39.82c0,.85.69,1.54,1.54,1.54h26.14c.98,0,1.78-.8,1.78-1.78V5.09c0-.85-.69-1.54-1.54-1.54H11.81Z"/>
      <path class="cls-2" d="m40.25,8.82H9.75c-.29,0-.52-.24-.52-.52s.24-.52.52-.52h30.5c.29,0,.52.24.52.52s-.24.52-.52.52Z"/>
      <path class="cls-2" d="m35.16,18.46h-13.91c-.29,0-.52-.24-.52-.52s.24-.52.52-.52h13.91c.29,0,.52.24.52.52s-.24.52-.52.52Z"/>
      <path class="cls-2" d="m35.16,13.9h-15.81c-.29,0-.52-.24-.52-.52s.24-.52.52-.52h15.81c.29,0,.52.24.52.52s-.24.52-.52.52Z"/>
    </g>
  </g>
  <g id="guias">
    <rect class="cls-1" x="47.5" y="47.5" width="2.5" height="2.5"/>
    <rect class="cls-1" x="47.5" width="2.5" height="2.5"/>
    <rect class="cls-1" y="47.5" width="2.5" height="2.5"/>
    <rect class="cls-1" width="2.5" height="2.5"/>
  </g>
</svg>