<?xml version="1.0" encoding="UTF-8"?>
<svg id="iconos" xmlns="http://www.w3.org/2000/svg" viewBox="0 0 50 50">
  <defs>
    <style>
      .cls-1 {
        fill: #1e1f22;
        stroke-width: 0px;
      }
    </style>
  </defs>
  <path class="cls-1" d="m46.18,40.28H3.82c-.73,0-1.32-.59-1.32-1.32v-2.6c0-.29.24-.52.52-.52h43.95c.29,0,.52.24.52.52v2.6c0,.73-.59,1.32-1.32,1.32Zm-42.63-3.4v2.08c0,.15.12.27.27.27h42.36c.15,0,.27-.12.27-.27v-2.08H3.55Z"/>
  <path class="cls-1" d="m44.11,36.88H5.89c-.29,0-.52-.24-.52-.52V11.01c0-.71.57-1.28,1.28-1.28h36.71c.71,0,1.28.58,1.28,1.28v25.35c0,.29-.24.52-.52.52Zm-37.7-1.05h37.18V11.01c0-.13-.11-.24-.24-.24H6.65c-.13,0-.24.11-.24.24v24.82Z"/>
  <rect class="cls-1" x="22.63" y="37.28" width="4.75" height="1.55" rx=".52" ry=".52"/>
  <path class="cls-1" d="m42.18,21.1c-.29,0-.52-.24-.52-.52v-8.03l-9.01.02c-.29,0-.52-.24-.52-.52s.24-.52.52-.52h9.03c.57,0,1.03.46,1.03,1.02v8.03c0,.29-.24.52-.52.52Z"/>
  <path class="cls-1" d="m16.67,35.06h-7.83c-.68,0-1.23-.55-1.23-1.23v-8.83c0-.29.24-.52.52-.52s.52.24.52.52v8.83c0,.1.08.18.18.18h7.83c.29,0,.52.24.52.52s-.24.52-.52.52Z"/>
</svg>