<?xml version="1.0" encoding="UTF-8"?>
<svg xmlns="http://www.w3.org/2000/svg" viewBox="0 0 50 50">
  <defs>
    <style>
      .cls-1 {
        fill: none;
        stroke: #000;
        stroke-miterlimit: 10;
        stroke-width: .21px;
      }

      .cls-2 {
        fill: #1e1f22;
        stroke-width: 0px;
      }
    </style>
  </defs>
  <g id="iconos">
    <g>
      <g id="cuenta-activa-cupo-credito-rotativo-icono">
        <path class="cls-2" d="m43.73,34.36H6.26c-.29,0-.53-.24-.53-.53V11.85c0-.29.24-.53.53-.53h5.67c.29,0,.53.24.53.53s-.24.53-.53.53h-5.14v20.93h36.41V12.38h-5.14c-.29,0-.53-.24-.53-.53s.24-.53.53-.53h5.67c.29,0,.53.24.53.53v21.98c0,.29-.24.53-.53.53Z"/>
        <path class="cls-2" d="m38.06,33.18c-.29,0-.53-.24-.53-.53V4.34H12.46v28.31c0,.29-.24.53-.53.53s-.53-.24-.53-.53V3.82c0-.29.24-.53.53-.53h26.13c.29,0,.53.24.53.53v28.84c0,.29-.24.53-.53.53Z"/>
        <path class="cls-2" d="m31.09,41.68h-12.47c-.29,0-.53-.24-.53-.53v-2.51c0-.29.24-.53.53-.53h12.47c.29,0,.53.24.53.53v2.51c0,.29-.24.53-.53.53Zm-11.94-1.06h11.41v-1.45h-11.41v1.45Z"/>
        <path class="cls-2" d="m15.1,42.84c-.11,0-.22-.04-.31-.1-.14-.1-.22-.26-.22-.43v-4.83c0-.17.08-.33.22-.43.14-.1.31-.13.47-.07l3.52,1.16c.22.07.36.27.36.5v2.51c0,.23-.15.43-.36.5l-3.52,1.16c-.05.02-.11.03-.16.03Zm.53-4.63v3.37l2.47-.81v-1.74l-2.47-.81Zm2.99,2.94h.01-.01Z"/>
        <path class="cls-2" d="m34.61,42.84c-.06,0-.11,0-.16-.03l-3.52-1.16c-.22-.07-.36-.27-.36-.5v-2.51c0-.23.15-.43.36-.5l3.52-1.16c.16-.06.34-.02.47.07s.22.26.22.43v4.83c0,.17-.08.33-.22.43-.09.07-.2.1-.31.1Zm-2.99-2.07l2.46.81v-3.37l-2.46.81v1.74Z"/>
        <g>
          <path class="cls-2" d="m11.94,42.56h-4.89c-.29,0-.53-.24-.53-.53v-4.13c0-.29.24-.53.53-.53h4.89c.29,0,.53.24.53.53v4.13c0,.29-.24.53-.53.53Zm-4.36-1.06h3.84v-3.08h-3.84v3.08Z"/>
          <path class="cls-2" d="m9.49,42.56c-.29,0-.53-.24-.53-.53v-4.13c0-.29.24-.53.53-.53s.53.24.53.53v4.13c0,.29-.24.53-.53.53Z"/>
        </g>
        <g>
          <path class="cls-2" d="m42.96,42.56h-4.89c-.29,0-.53-.24-.53-.53v-4.13c0-.29.24-.53.53-.53h4.89c.29,0,.53.24.53.53v4.13c0,.29-.24.53-.53.53Zm-4.36-1.06h3.84v-3.08h-3.84v3.08Z"/>
          <path class="cls-2" d="m40.51,42.56c-.29,0-.53-.24-.53-.53v-4.13c0-.29.24-.53.53-.53s.53.24.53.53v4.13c0,.29-.24.53-.53.53Z"/>
        </g>
        <path class="cls-2" d="m46.97,46.71H3.03c-.29,0-.53-.24-.53-.53v-12.35c0-.29.24-.53.53-.53h43.94c.29,0,.53.24.53.53v12.35c0,.29-.24.53-.53.53Zm-43.42-1.06h42.89v-11.29H3.56v11.29Z"/>
      </g>
      <g>
        <polygon class="cls-2" points="22 19.84 25 22.84 28 19.84 27.3 19.14 25 21.44 23.4 19.84 25 18.23 25.68 18.92 26.38 18.22 25 16.84 22 19.84"/>
        <polygon class="cls-2" points="28 18.22 25 15.22 22 18.22 22.7 18.92 25 16.62 26.6 18.22 25 19.83 24.32 19.14 23.62 19.84 25 21.22 28 18.22"/>
      </g>
    </g>
  </g>
  <g id="guias">
    <rect class="cls-1" x="47.5" y="47.5" width="2.5" height="2.5"/>
    <rect class="cls-1" x="47.5" width="2.5" height="2.5"/>
    <rect class="cls-1" y="47.5" width="2.5" height="2.5"/>
    <rect class="cls-1" width="2.5" height="2.5"/>
  </g>
</svg>