<?xml version="1.0" encoding="UTF-8"?>
<svg xmlns="http://www.w3.org/2000/svg" viewBox="0 0 50 50">
  <defs>
    <style>
      .cls-1 {
        fill: none;
        stroke: #000;
        stroke-miterlimit: 10;
        stroke-width: .21px;
      }

      .cls-2 {
        fill: #8b8d8f;
        stroke-width: 0px;
      }
    </style>
  </defs>
  <g id="iconos">
    <g>
      <path class="cls-2" d="m29.31,25.31c-.12-.11-.28-.17-.48-.17s-.37.06-.49.17c-.13.11-.2.26-.21.45h1.37c0-.19-.07-.34-.19-.45Z"/>
      <path class="cls-2" d="m18.92,25.31c-.12-.11-.28-.17-.48-.17s-.37.06-.49.17c-.13.11-.2.26-.21.45h1.37c0-.19-.07-.34-.19-.45Z"/>
      <path class="cls-2" d="m24.08,25.31c-.12-.11-.28-.17-.48-.17s-.37.06-.49.17c-.13.11-.2.26-.21.45h1.37c0-.19-.07-.34-.19-.45Z"/>
      <path class="cls-2" d="m46.78,23.33L26.67,3.22c-.92-.92-2.41-.92-3.33,0L3.22,23.33c-.92.92-.92,2.41,0,3.33l20.12,20.12c.92.92,2.41.92,3.33,0l20.12-20.12c.92-.92.92-2.41,0-3.33Zm-32.48,2.36c-.24.24-.57.36-.98.36h-.89v1.35h-.72v-3.94h1.62c.41,0,.74.12.97.35.24.23.36.54.36.94s-.12.7-.36.93Zm2.45-.44c-.29-.03-.52.02-.68.16-.16.14-.24.34-.24.62v1.38h-.69v-2.74h.62l.06.39c.04-.14.12-.24.25-.31.12-.07.27-.11.43-.11.08,0,.17,0,.26.03v.58Zm2.59,1.98c-.25.17-.54.26-.88.26-.43,0-.77-.14-1.03-.4-.26-.27-.39-.62-.39-1.06s.13-.79.39-1.05c.26-.27.6-.4,1.01-.4s.73.12.98.37c.25.24.37.56.37.94,0,.14-.01.25-.03.34h-2.05c.01.21.08.37.22.5.14.13.31.19.53.19.16,0,.3-.03.42-.1s.2-.16.25-.27h.67c-.06.28-.22.5-.46.68Zm2.59-3.47s-.1-.02-.19-.02-.17.01-.23.04c-.06.03-.11.06-.14.09-.03.03-.06.08-.07.13-.02.05-.03.1-.03.14,0,.04,0,.08,0,.13v.4h.67v.56h-.67v2.18h-.68v-2.18h-.5v-.56h.5v-.52c0-.66.34-.99,1.02-.99.13,0,.24,0,.33.03v.56Zm2.57,3.47c-.25.17-.54.26-.88.26-.43,0-.77-.14-1.03-.4-.26-.27-.39-.62-.39-1.06s.13-.79.39-1.05c.26-.27.6-.4,1.01-.4s.73.12.98.37c.25.24.37.56.37.94,0,.14-.01.25-.03.34h-2.05c.01.21.08.37.22.5.14.13.31.19.53.19.16,0,.3-.03.42-.1s.2-.16.25-.27h.67c-.06.28-.22.5-.46.68Zm2.64-1.98c-.29-.03-.52.02-.68.16-.16.14-.24.34-.24.62v1.38h-.69v-2.74h.62l.06.39c.04-.14.12-.24.25-.31.12-.07.27-.11.43-.11.08,0,.17,0,.26.03v.58Zm2.59,1.98c-.25.17-.54.26-.88.26-.43,0-.77-.14-1.03-.4-.26-.27-.39-.62-.39-1.06s.13-.79.39-1.05c.26-.27.6-.4,1.01-.4s.73.12.98.37c.25.24.37.56.37.94,0,.14-.01.25-.03.34h-2.05c.01.21.08.37.22.5.14.13.31.19.53.19.16,0,.3-.03.42-.1s.2-.16.25-.27h.67c-.06.28-.22.5-.46.68Zm3.55.18h-.69v-1.54c0-.45-.18-.67-.55-.67-.19,0-.35.06-.45.17-.11.11-.16.27-.16.46v1.57h-.68v-2.74h.57l.05.33c.09-.13.21-.22.36-.3.16-.07.33-.11.51-.11.32,0,.57.1.75.3.18.2.28.48.28.83v1.69Zm2.18-2.18h-.52v2.18h-.69v-2.18h-.52v-.56h.52v-.72h.69v.72h.52v.56Zm2.59,2c-.25.17-.54.26-.88.26-.43,0-.77-.14-1.03-.4-.26-.27-.39-.62-.39-1.06s.13-.79.39-1.05c.26-.27.6-.4,1.01-.4s.73.12.98.37c.25.24.37.56.37.94,0,.14-.01.25-.03.34h-2.05c.01.21.08.37.22.5.14.13.31.19.53.19.16,0,.3-.03.42-.1s.2-.16.25-.27h.67c-.06.28-.22.5-.46.68Z"/>
      <path class="cls-2" d="m37.64,25.31c-.12-.11-.28-.17-.48-.17s-.37.06-.49.17c-.13.11-.2.26-.21.45h1.37c0-.19-.07-.34-.19-.45Z"/>
      <path class="cls-2" d="m13.21,24.1h-.77v1.33h.75c.24,0,.42-.07.54-.2.12-.13.18-.29.18-.49,0-.18-.06-.34-.18-.46-.12-.12-.3-.18-.53-.18Z"/>
    </g>
  </g>
  <g id="guias">
    <g>
      <rect class="cls-1" x="47.5" y="47.5" width="2.5" height="2.5"/>
      <rect class="cls-1" x="47.5" width="2.5" height="2.5"/>
      <rect class="cls-1" y="47.5" width="2.5" height="2.5"/>
      <rect class="cls-1" width="2.5" height="2.5"/>
    </g>
  </g>
</svg>