<?xml version="1.0" encoding="UTF-8"?>
<svg xmlns="http://www.w3.org/2000/svg" viewBox="0 0 50 50">
  <defs>
    <style>
      .cls-1 {
        fill: none;
        stroke: #000;
        stroke-miterlimit: 10;
        stroke-width: .21px;
      }

      .cls-2 {
        fill: #1e1f22;
        stroke-width: 0px;
      }
    </style>
  </defs>
  <g id="iconos">
    <g>
      <g>
        <path class="cls-2" d="m37.97,21.47c-.26,0-.47-.21-.47-.47v-5.75c0-.26.21-.47.47-.47s.47.21.47.47v5.75c0,.26-.21.47-.47.47Z"/>
        <path class="cls-2" d="m40.84,18.6h-5.75c-.26,0-.47-.21-.47-.47s.21-.47.47-.47h5.75c.26,0,.47.21.47.47s-.21.47-.47.47Z"/>
      </g>
      <g>
        <path class="cls-2" d="m11.74,36.37h-5.31c-.26,0-.47-.21-.47-.47s.21-.47.47-.47h5.31c.26,0,.47.21.47.47s-.21.47-.47.47Z"/>
        <path class="cls-2" d="m18.87,36.37h-5.31c-.26,0-.47-.21-.47-.47s.21-.47.47-.47h5.31c.26,0,.47.21.47.47s-.21.47-.47.47Z"/>
        <path class="cls-2" d="m26.01,36.37h-5.31c-.26,0-.47-.21-.47-.47s.21-.47.47-.47h5.31c.26,0,.47.21.47.47s-.21.47-.47.47Z"/>
        <path class="cls-2" d="m33.14,36.37h-5.31c-.26,0-.47-.21-.47-.47s.21-.47.47-.47h5.31c.26,0,.47.21.47.47s-.21.47-.47.47Z"/>
        <path class="cls-2" d="m10.56,27.06h-3.9c-.39,0-.71-.32-.71-.71v-2.38c0-.39.32-.71.71-.71h3.9c.39,0,.71.32.71.71v2.38c0,.39-.32.71-.71.71Zm-3.9-3.33c-.13,0-.24.11-.24.24v2.38c0,.13.11.24.24.24h3.9c.13,0,.24-.11.24-.24v-2.38c0-.13-.11-.24-.24-.24h-3.9Z"/>
        <path class="cls-2" d="m34.52,41.39H5.25c-1.52,0-2.75-1.23-2.75-2.75v-16.68c0-1.52,1.23-2.75,2.75-2.75h29.26c1.52,0,2.75,1.23,2.75,2.75v16.68c0,1.52-1.23,2.75-2.75,2.75ZM5.25,20.15c-1,0-1.81.81-1.81,1.81v16.68c0,1,.81,1.81,1.81,1.81h29.26c1,0,1.81-.81,1.81-1.81v-16.68c0-1-.81-1.81-1.81-1.81H5.25Z"/>
        <path class="cls-2" d="m9.28,26.44h-1.43c-.13,0-.24-.11-.24-.24v-2.03c0-.13.11-.24.24-.24h1.43c.13,0,.24.11.24.24v2.03c0,.13-.11.24-.24.24Zm-1.2-.47h.96v-1.56h-.96v1.56Z"/>
        <g>
          <path class="cls-2" d="m11.03,26.01h-1.75c-.13,0-.24-.11-.24-.24v-1.19c0-.13.11-.24.24-.24h1.75c.13,0,.24.11.24.24v1.19c0,.13-.11.24-.24.24Zm-1.51-.47h1.28v-.72h-1.28v.72Z"/>
          <path class="cls-2" d="m7.85,26.02h-1.66c-.13,0-.24-.11-.24-.24v-1.19c0-.13.11-.24.24-.24h1.66c.13,0,.24.11.24.24v1.19c0,.13-.11.24-.24.24Zm-1.43-.47h1.19v-.72h-1.19v.72Z"/>
        </g>
        <path class="cls-2" d="m8.57,24.41c-.13,0-.24-.11-.24-.24v-.68c0-.13.11-.24.24-.24s.24.11.24.24v.68c0,.13-.11.24-.24.24Z"/>
        <path class="cls-2" d="m8.57,27.06c-.13,0-.24-.11-.24-.24v-.62c0-.13.11-.24.24-.24s.24.11.24.24v.62c0,.13-.11.24-.24.24Z"/>
        <g>
          <polygon class="cls-2" points="28.72 25.55 31.17 28 33.62 25.55 33.05 24.98 31.17 26.86 29.86 25.55 31.17 24.24 31.73 24.8 32.3 24.23 31.17 23.1 28.72 25.55"/>
          <polygon class="cls-2" points="33.62 24.23 31.17 21.79 28.72 24.23 29.29 24.8 31.17 22.92 32.48 24.23 31.17 25.54 30.61 24.98 30.04 25.55 31.17 26.68 33.62 24.23"/>
        </g>
      </g>
      <path class="cls-2" d="m34.52,41.39H5.25c-1.52,0-2.75-1.23-2.75-2.75v-16.68c0-1.52,1.23-2.75,2.75-2.75h29.26c1.52,0,2.75,1.23,2.75,2.75v16.68c0,1.52-1.23,2.75-2.75,2.75ZM5.25,20.15c-1,0-1.81.81-1.81,1.81v16.68c0,1,.81,1.81,1.81,1.81h29.26c1,0,1.81-.81,1.81-1.81v-16.68c0-1-.81-1.81-1.81-1.81H5.25Z"/>
      <path class="cls-2" d="m38.64,27.64c-.25,0-.45-.19-.47-.44-.02-.26.18-.48.43-.5,4.46-.34,7.95-4.09,7.95-8.54,0-4.74-3.86-8.6-8.6-8.6s-8.41,3.65-8.57,8.3c0,.26-.23.48-.49.46-.26,0-.46-.23-.46-.49.18-5.16,4.36-9.21,9.52-9.21s9.55,4.28,9.55,9.55c0,4.94-3.88,9.1-8.83,9.48-.01,0-.02,0-.04,0Z"/>
    </g>
  </g>
  <g id="guias">
    <rect class="cls-1" x="47.5" y="47.5" width="2.5" height="2.5"/>
    <rect class="cls-1" x="47.5" width="2.5" height="2.5"/>
    <rect class="cls-1" y="47.5" width="2.5" height="2.5"/>
    <rect class="cls-1" width="2.5" height="2.5"/>
  </g>
</svg>