<?xml version="1.0" encoding="UTF-8"?>
<svg xmlns="http://www.w3.org/2000/svg" viewBox="0 0 50 50">
  <defs>
    <style>
      .cls-1 {
        fill: none;
        stroke: #000;
        stroke-miterlimit: 10;
        stroke-width: .21px;
      }

      .cls-2 {
        fill: #1e1f22;
        stroke-width: 0px;
      }
    </style>
  </defs>
  <g id="iconos">
    <g>
      <path class="cls-2" d="m25,47.5c-.15,0-.3-.06-.41-.18l-4.31-4.73-6.09,1.94c-.15.04-.31.03-.44-.05-.13-.08-.23-.21-.26-.36l-1.37-6.25-6.25-1.37c-.15-.03-.28-.13-.36-.26s-.09-.29-.05-.44l1.94-6.09-4.73-4.31c-.12-.1-.18-.25-.18-.41s.06-.3.18-.41l4.73-4.31-1.94-6.09c-.05-.15-.03-.31.05-.44s.21-.23.36-.26l6.25-1.37,1.37-6.25c.03-.15.13-.28.26-.36.13-.08.29-.09.44-.05l6.09,1.94,4.31-4.73c.21-.23.6-.23.81,0l4.31,4.73,6.09-1.94c.15-.05.31-.03.44.05.13.08.23.21.26.36l1.37,6.25,6.25,1.37c.15.03.28.13.36.26s.09.29.05.44l-1.94,6.09,4.73,4.31c.12.1.18.25.18.41s-.06.3-.18.41l-4.73,4.31,1.94,6.09c.05.15.03.31-.05.44s-.21.23-.36.26l-6.25,1.37-1.37,6.25c-.03.15-.13.28-.26.36-.13.08-.29.09-.44.05l-6.09-1.94-4.31,4.73c-.1.12-.25.18-.41.18Zm-4.54-6.09c.15,0,.3.06.41.18l4.14,4.54,4.14-4.54c.14-.16.36-.22.57-.15l5.86,1.87,1.31-6.01c.05-.21.21-.37.42-.42l6-1.31-1.86-5.85c-.06-.21,0-.43.15-.57l4.54-4.14-4.54-4.14c-.16-.14-.22-.37-.15-.57l1.86-5.86-6-1.31c-.21-.05-.37-.21-.42-.42l-1.31-6.01-5.86,1.87c-.21.06-.43,0-.57-.15l-4.14-4.54-4.14,4.54c-.14.16-.36.22-.57.15l-5.86-1.87-1.31,6.01c-.05.21-.21.37-.42.42l-6,1.31,1.86,5.86c.06.21,0,.43-.15.57l-4.54,4.14,4.54,4.14c.16.14.22.37.15.57l-1.86,5.85,6,1.31c.21.05.37.21.42.42l1.31,6.01,5.86-1.87c.06-.02.11-.03.17-.03Z"/>
      <path class="cls-2" d="m23.44,20.41c0,3.61-1.87,5.4-4.08,5.4s-3.97-1.71-4-5.13c0-3.42,1.84-5.34,4.16-5.34s3.92,1.84,3.92,5.08Zm-6.27.16c-.05,2.18.79,3.84,2.24,3.84,1.53,0,2.21-1.63,2.21-3.87,0-2.11-.6-3.82-2.24-3.82-1.42,0-2.21,1.71-2.21,3.84Zm2,12.48l10.08-17.74h1.47l-10.08,17.74h-1.47Zm15.43-5.53c0,3.61-1.87,5.4-4.08,5.4s-3.97-1.71-4-5.16c0-3.42,1.84-5.35,4.16-5.35s3.92,1.84,3.92,5.11Zm-6.27.16c-.05,2.18.79,3.84,2.24,3.84,1.53,0,2.21-1.63,2.21-3.9,0-2.08-.61-3.82-2.24-3.82-1.42,0-2.21,1.71-2.21,3.87Z"/>
    </g>
  </g>
  <g id="guias">
    <rect class="cls-1" x="47.5" y="47.5" width="2.5" height="2.5"/>
    <rect class="cls-1" x="47.5" width="2.5" height="2.5"/>
    <rect class="cls-1" y="47.5" width="2.5" height="2.5"/>
    <rect class="cls-1" width="2.5" height="2.5"/>
  </g>
</svg>