<?xml version="1.0" encoding="UTF-8"?>
<svg xmlns="http://www.w3.org/2000/svg" viewBox="0 0 50 50">
  <defs>
    <style>
      .cls-1 {
        fill: none;
        stroke: #000;
        stroke-miterlimit: 10;
        stroke-width: .21px;
      }

      .cls-2 {
        fill: #1e1f22;
        stroke-width: 0px;
      }
    </style>
  </defs>
  <g id="iconos">
    <g>
      <g>
        <path class="cls-2" d="m34.75,29.96h-5.73c-.18,0-.33-.15-.33-.33s.15-.33.33-.33h5.7c.22-.05,1.72-.43,1.79-2.19.07-1.75-.94-1.93-1.1-1.95,0,0-3.68,0-3.68,0-1.48-.25-1.78-1.57-1.74-2.28,0-1.83,1.54-2.65,2.36-2.83.02,0,.05,0,.07,0h5.16c.18,0,.33.15.33.33s-.15.33-.33.33h-5.12c-.25.06-1.83.53-1.82,2.2,0,0,0,.02,0,.02,0,.06-.07,1.37,1.17,1.6,0,0,3.63,0,3.63,0,.02,0,1.82.14,1.72,2.62-.07,1.92-1.57,2.68-2.36,2.82-.02,0-.04,0-.05,0Z"/>
        <path class="cls-2" d="m34.75,30.28h-5.73c-.36,0-.65-.29-.65-.65s.29-.65.65-.65h5.7c.18-.04,1.41-.38,1.47-1.88.05-1.45-.67-1.6-.81-1.61h-3.65c-1.75-.29-2.11-1.84-2.06-2.62-.01-2.02,1.7-2.93,2.61-3.13h.14s5.16-.01,5.16-.01c.36,0,.65.29.65.65s-.29.65-.65.65h-5.08c-.34.09-1.55.53-1.54,1.87,0,.16-.04,1.13.91,1.31h3.58c.12,0,2.14.23,2.04,2.95-.08,2.13-1.75,2.97-2.62,3.12h-.11Zm.66-5.43c.18.02,1.5.21,1.42,2.28-.08,2.02-1.84,2.45-2.04,2.49h-5.77s5.73.02,5.73.02c.7-.12,2.03-.79,2.09-2.51.08-2.08-1.27-2.27-1.43-2.29h-3.6c-1.28-.23-1.53-1.37-1.49-1.94-.01-1.87,1.71-2.42,2.06-2.51h.08s5.12-.01,5.12-.01h-5.16c-.73.15-2.12.88-2.11,2.51,0,.09-.08,1.7,1.47,1.96h3.63Z"/>
      </g>
      <g>
        <path class="cls-2" d="m45.55,30h-5.29s-.02,0-.03,0c-.7-.07-2.02-.56-2.05-1.86-.03-1.38.9-5.59.94-5.77,0-.01,0-.03.01-.04.03-.09.81-2.13,2.53-2.13h3.81s.06,0,.09.01c.07.02,1.63.49,1.63,1.83,0,1.13-.33,3.04-.35,3.12-.03.15-.16.27-.32.27l-7.36.06c-.19,1.05-.34,2.1-.33,2.64.02,1.01,1.29,1.21,1.46,1.23h5.27c.18,0,.33.15.33.33s-.15.33-.33.33Zm-5.81-7.47c-.04.17-.25,1.17-.47,2.3l6.96-.06c.09-.57.29-1.91.29-2.74,0-.76-.91-1.12-1.12-1.19h-3.75c-1.2,0-1.84,1.5-1.91,1.69Z"/>
        <path class="cls-2" d="m45.55,30.32h-5.29c-.86-.09-2.37-.65-2.41-2.18-.03-1.46.93-5.8.94-5.85l.03-.09c.09-.24.94-2.34,2.83-2.34h3.81c.06,0,.12,0,.18.03.08.02,1.86.54,1.86,2.14,0,1.19-.35,3.16-.35,3.18-.05.3-.32.53-.63.53l-7.1.06c-.24,1.39-.28,2.02-.28,2.31.02.75,1.06.9,1.17.92h5.23c.36,0,.65.29.65.64s-.29.65-.65.65Zm-3.9-9.81c-1.46,0-2.16,1.73-2.23,1.92-.01.04-.96,4.33-.93,5.69.02,1.08,1.17,1.49,1.77,1.55h5.29s0,0,0,0h-5.28c-.83-.11-1.75-.57-1.78-1.55-.01-.48.1-1.39.33-2.7l.05-.26,7.63-.06s.34-1.95.34-3.07-1.38-1.52-1.4-1.52h-3.81Zm-2.77,4.64l.07-.38c.19-1.02.39-1.92.45-2.23l.04-.14c.13-.32.83-1.89,2.21-1.89l3.86.02c.64.22,1.34.73,1.34,1.49,0,.9-.23,2.36-.29,2.79l-.04.27-7.62.06Zm1.16-2.53v.05c-.07.26-.22.98-.39,1.83l6.3-.05c.09-.58.24-1.7.24-2.42,0-.5-.63-.79-.85-.87h-3.7c-.95,0-1.51,1.23-1.61,1.46Z"/>
      </g>
      <g>
        <path class="cls-2" d="m19.09,34.27s-.04,0-.06,0c-.18-.03-.29-.2-.26-.38,0,0,.52-2.87,1.04-5.74.26-1.43.52-2.87.72-3.94.1-.54.18-.99.24-1.3.05-.26.08-.43.12-.54h0c.37-1.01,1.51-2.08,2.36-2.22.03,0,.06,0,.09,0,.22,0,2.28,0,3.64,0h0c.32,0,2,.63,1.81,1.97,0,.01,0,.02,0,.04l-.91,5.54s0,.02,0,.04c-.02.07-.5,1.71-2.08,2.18-.03,0-.06.01-.08.01l-3.35.1s-.03,0-.04,0c-.05,0-1.11-.12-1.96-1.19-.36,1.98-.72,3.96-.94,5.18-.03.16-.17.27-.32.27Zm1.43-6.38c.66,1.26,1.68,1.45,1.84,1.47l3.28-.09c1.14-.37,1.55-1.56,1.6-1.71l.9-5.5c.09-.61-.85-1.27-1.23-1.27-.24,0-1,0-1.76,0-.46,0-.92,0-1.27,0-.24,0-.41,0-.53,0-.55.09-1.53.97-1.84,1.79-.06.26-.5,2.67-.98,5.32Z"/>
        <path class="cls-2" d="m19.09,34.59h-.13c-.34-.08-.57-.41-.51-.76l1.04-5.74c.26-1.44.52-2.87.72-3.95l.24-1.3c.02-.11.04-.2.05-.27h-.03s.11-.32.11-.32c.41-1.11,1.65-2.27,2.61-2.42.06,0,.12,0,.16,0,.19,0,2.24,0,3.62,0h.01c.31,0,1.15.3,1.67.9.37.42.52.91.45,1.43l-.93,5.66c-.06.19-.61,1.89-2.3,2.4-.05.01-.1.02-.15.03l-3.38.1h-.06c-.17-.02-.96-.15-1.72-.83-.32,1.77-.63,3.47-.83,4.55-.05.31-.32.53-.63.53Zm2.13-12.21l-.03.09c-.03.09-.06.23-.09.44l-.25,1.36c-.2,1.08-.46,2.51-.72,3.94l-1.04,5.74h0s0,0,0,0c.22-1.21.58-3.2.94-5.18l.13-.69.44.55c.74.93,1.64,1.06,1.74,1.07l3.34-.1c1.37-.41,1.82-1.81,1.87-1.97l.91-5.54c.05-.35-.04-.64-.26-.91-.4-.48-1.07-.71-1.22-.72-1.16,0-3.42.01-3.66,0-.73.11-1.73,1.04-2.09,1.92Zm1.14,7.31c-.27-.03-1.4-.25-2.13-1.64l-.05-.1.02-.11c.62-3.41.93-5.11.98-5.33.33-.91,1.38-1.91,2.09-2.03.2,0,.36,0,.59,0h1.27c.76,0,1.52,0,1.76,0h0c.35,0,.87.3,1.21.69.27.31.38.64.34.95l-.9,5.51c-.09.3-.56,1.56-1.82,1.96l-.09.02-3.28.09Zm-1.51-1.85c.59,1.05,1.45,1.19,1.54,1.21l3.18-.1c.95-.33,1.31-1.37,1.35-1.49l.89-5.46c.02-.11-.05-.27-.19-.43-.25-.29-.61-.47-.72-.47h0c-.24,0-1,0-1.77,0h-1.27c-.25,0-.42,0-.55-.01-.33.06-1.24.83-1.51,1.58-.04.17-.36,1.91-.95,5.15Z"/>
      </g>
      <g>
        <path class="cls-2" d="m14.69,18.77c0,.5-.41.91-.91.91s-.91-.41-.91-.91.41-.91.91-.91.91.41.91.91Z"/>
        <path class="cls-2" d="m13.78,20c-.68,0-1.23-.55-1.23-1.23s.55-1.23,1.23-1.23,1.23.55,1.23,1.23-.55,1.23-1.23,1.23Zm0-1.82c-.32,0-.59.26-.59.59s.26.59.59.59.59-.26.59-.59-.26-.59-.59-.59Z"/>
      </g>
      <g>
        <circle class="cls-2" cx="11.72" cy="15.68" r=".91"/>
        <path class="cls-2" d="m11.72,16.91c-.68,0-1.23-.55-1.23-1.23s.55-1.23,1.23-1.23,1.23.55,1.23,1.23-.55,1.23-1.23,1.23Zm0-1.82c-.32,0-.59.26-.59.59s.26.59.59.59.59-.26.59-.59-.26-.59-.59-.59Z"/>
      </g>
      <g>
        <path class="cls-2" d="m10.57,18.77c0,.5-.41.91-.91.91s-.91-.41-.91-.91.41-.91.91-.91.91.41.91.91Z"/>
        <path class="cls-2" d="m9.66,20c-.68,0-1.23-.55-1.23-1.23s.55-1.23,1.23-1.23,1.23.55,1.23,1.23-.55,1.23-1.23,1.23Zm0-1.82c-.32,0-.59.26-.59.59s.26.59.59.59.59-.26.59-.59-.26-.59-.59-.59Z"/>
      </g>
      <g>
        <circle class="cls-2" cx="13.68" cy="31.14" r=".91"/>
        <path class="cls-2" d="m13.68,32.37c-.68,0-1.23-.55-1.23-1.23s.55-1.23,1.23-1.23,1.23.55,1.23,1.23-.55,1.23-1.23,1.23Zm0-1.82c-.32,0-.59.26-.59.59s.26.59.59.59.59-.26.59-.59-.26-.59-.59-.59Z"/>
      </g>
      <g>
        <circle class="cls-2" cx="11.72" cy="28.24" r=".91"/>
        <path class="cls-2" d="m11.72,29.47c-.68,0-1.23-.55-1.23-1.23s.55-1.23,1.23-1.23,1.23.55,1.23,1.23-.55,1.23-1.23,1.23Zm0-1.82c-.32,0-.59.26-.59.59s.26.59.59.59.59-.26.59-.59-.26-.59-.59-.59Z"/>
      </g>
      <g>
        <circle class="cls-2" cx="7.71" cy="28.24" r=".75"/>
        <path class="cls-2" d="m7.71,29.31c-.59,0-1.07-.48-1.07-1.07s.48-1.07,1.07-1.07,1.07.48,1.07,1.07-.48,1.07-1.07,1.07Zm0-1.5c-.24,0-.43.19-.43.43s.19.43.43.43.43-.19.43-.43-.19-.43-.43-.43Z"/>
      </g>
      <g>
        <path class="cls-2" d="m10.47,31.14c0,.41-.34.75-.75.75s-.75-.34-.75-.75.34-.75.75-.75.75.34.75.75Z"/>
        <path class="cls-2" d="m9.72,32.21c-.59,0-1.07-.48-1.07-1.07s.48-1.07,1.07-1.07,1.07.48,1.07,1.07-.48,1.07-1.07,1.07Zm0-1.5c-.24,0-.43.19-.43.43s.19.43.43.43.43-.19.43-.43-.19-.43-.43-.43Z"/>
      </g>
      <g>
        <circle class="cls-2" cx="7.66" cy="34.32" r=".75"/>
        <path class="cls-2" d="m7.66,35.39c-.59,0-1.07-.48-1.07-1.07s.48-1.07,1.07-1.07,1.07.48,1.07,1.07-.48,1.07-1.07,1.07Zm0-1.5c-.24,0-.43.19-.43.43s.19.43.43.43.43-.19.43-.43-.19-.43-.43-.43Z"/>
      </g>
      <g>
        <circle class="cls-2" cx="5.72" cy="31.14" r=".58"/>
        <path class="cls-2" d="m5.72,32.04c-.5,0-.9-.4-.9-.9s.4-.9.9-.9.9.4.9.9-.4.9-.9.9Zm0-1.16c-.14,0-.26.12-.26.26s.12.26.26.26.26-.12.26-.26-.12-.26-.26-.26Z"/>
      </g>
      <g>
        <circle class="cls-2" cx="3.6" cy="28.24" r=".75"/>
        <path class="cls-2" d="m3.6,29.31c-.59,0-1.07-.48-1.07-1.07s.48-1.07,1.07-1.07,1.07.48,1.07,1.07-.48,1.07-1.07,1.07Zm0-1.5c-.24,0-.43.19-.43.43s.19.43.43.43.43-.19.43-.43-.19-.43-.43-.43Z"/>
      </g>
      <g>
        <path class="cls-2" d="m4.32,21.95c0,.41-.34.75-.75.75s-.75-.34-.75-.75.34-.75.75-.75.75.34.75.75Z"/>
        <path class="cls-2" d="m3.57,23.02c-.59,0-1.07-.48-1.07-1.07s.48-1.07,1.07-1.07,1.07.48,1.07,1.07-.48,1.07-1.07,1.07Zm0-1.5c-.24,0-.43.19-.43.43s.19.43.43.43.43-.19.43-.43-.19-.43-.43-.43Z"/>
      </g>
      <g>
        <circle class="cls-2" cx="5.66" cy="18.77" r=".75"/>
        <path class="cls-2" d="m5.66,19.84c-.59,0-1.07-.48-1.07-1.07s.48-1.07,1.07-1.07,1.07.48,1.07,1.07-.48,1.07-1.07,1.07Zm0-1.5c-.24,0-.43.19-.43.43s.19.43.43.43.43-.19.43-.43-.19-.43-.43-.43Z"/>
      </g>
      <g>
        <circle class="cls-2" cx="7.63" cy="15.7" r=".75"/>
        <path class="cls-2" d="m7.63,16.77c-.59,0-1.07-.48-1.07-1.07s.48-1.07,1.07-1.07,1.07.48,1.07,1.07-.48,1.07-1.07,1.07Zm0-1.5c-.24,0-.43.19-.43.43s.19.43.43.43.43-.19.43-.43-.19-.43-.43-.43Z"/>
      </g>
      <g>
        <circle class="cls-2" cx="5.61" cy="25.06" r=".91"/>
        <path class="cls-2" d="m5.61,26.29c-.68,0-1.23-.55-1.23-1.23s.55-1.23,1.23-1.23,1.23.55,1.23,1.23-.55,1.23-1.23,1.23Zm0-1.82c-.33,0-.59.26-.59.59s.26.59.59.59.59-.26.59-.59-.26-.59-.59-.59Z"/>
      </g>
      <g>
        <circle class="cls-2" cx="7.63" cy="21.95" r=".91"/>
        <path class="cls-2" d="m7.63,23.18c-.68,0-1.23-.55-1.23-1.23s.55-1.23,1.23-1.23,1.23.55,1.23,1.23-.55,1.23-1.23,1.23Zm0-1.82c-.32,0-.59.26-.59.59s.26.59.59.59.59-.26.59-.59-.26-.59-.59-.59Z"/>
      </g>
      <g>
        <circle class="cls-2" cx="11.72" cy="34.32" r=".91"/>
        <path class="cls-2" d="m11.72,35.55c-.68,0-1.23-.55-1.23-1.23s.55-1.23,1.23-1.23,1.23.55,1.23,1.23-.55,1.23-1.23,1.23Zm0-1.82c-.32,0-.59.26-.59.59s.26.59.59.59.59-.26.59-.59-.26-.59-.59-.59Z"/>
      </g>
      <g>
        <rect class="cls-2" x="6.07" y="24.74" width="12.38" height=".56"/>
        <rect class="cls-2" x="5.75" y="24.42" width="13.02" height="1.2"/>
      </g>
      <g>
        <rect class="cls-2" x="8.3" y="21.67" width="4.23" height=".56"/>
        <rect class="cls-2" x="7.98" y="21.35" width="4.87" height="1.2"/>
      </g>
      <g>
        <polygon class="cls-2" points="14.35 25.26 12.02 21.67 12.67 21.67 15 25.26 14.35 25.26"/>
        <polygon class="cls-2" points="15.58 25.59 14.17 25.59 14.08 25.44 11.43 21.35 12.85 21.35 15.58 25.59"/>
      </g>
      <g>
        <rect class="cls-2" x="12.43" y="27.96" width="2.16" height=".56"/>
        <rect class="cls-2" x="12.11" y="27.64" width="2.8" height="1.2"/>
      </g>
      <g>
        <polygon class="cls-2" points="14.07 28.52 16 25.26 16.56 25.26 14.63 28.52 14.07 28.52"/>
        <polygon class="cls-2" points="14.81 28.84 13.51 28.84 15.82 24.94 17.12 24.94 14.81 28.84"/>
      </g>
    </g>
  </g>
  <g id="guias">
    <rect class="cls-1" x="47.5" y="47.5" width="2.5" height="2.5"/>
    <rect class="cls-1" x="47.5" width="2.5" height="2.5"/>
    <rect class="cls-1" y="47.5" width="2.5" height="2.5"/>
    <rect class="cls-1" width="2.5" height="2.5"/>
  </g>
</svg>