<?xml version="1.0" encoding="UTF-8"?>
<svg id="iconos" xmlns="http://www.w3.org/2000/svg" viewBox="0 0 50 50">
  <defs>
    <style>
      .cls-1 {
        fill: #1e1f22;
        stroke-width: 0px;
      }
    </style>
  </defs>
  <path class="cls-1" d="m46.98,47.45H3.02c-.29,0-.52-.23-.52-.52s.23-.52.52-.52h43.96c.29,0,.52.23.52.52s-.23.52-.52.52Z"/>
  <g>
    <path class="cls-1" d="m45.57,47.45H4.43c-.29,0-.52-.23-.52-.52v-23.13c0-.29.23-.52.52-.52s.52.23.52.52v22.61h40.1v-19.99c0-.29.23-.52.52-.52s.52.23.52.52v20.51c0,.29-.23.52-.52.52Z"/>
    <g>
      <path class="cls-1" d="m46.94,20.3c-.19,0-.38-.11-.47-.29l-4.14-8.3c-.37-1.14-1.25-1.85-2.24-1.85H9.9c-.99,0-1.87.71-2.21,1.78l-4.17,8.38c-.13.26-.45.36-.7.23-.26-.13-.36-.44-.23-.7l4.14-8.3c.44-1.42,1.73-2.43,3.17-2.43h30.19c1.44,0,2.73,1.01,3.2,2.51l4.11,8.23c.13.26.02.57-.23.7-.07.04-.15.06-.23.06Z"/>
      <g>
        <path class="cls-1" d="m30.66,26.39c-3.28,0-5.95-2.97-5.95-6.61,0-.29.23-.52.52-.52h10.86c.29,0,.52.23.52.52,0,3.64-2.67,6.61-5.95,6.61Zm-4.88-6.09c.23,2.82,2.33,5.04,4.88,5.04s4.65-2.22,4.88-5.04h-9.77Z"/>
        <path class="cls-1" d="m19.17,26.39c-3.28,0-5.95-2.97-5.95-6.61,0-.29.23-.52.52-.52h10.86c.29,0,.52.23.52.52,0,3.64-2.67,6.61-5.95,6.61Zm-4.88-6.09c.23,2.82,2.33,5.04,4.88,5.04s4.65-2.22,4.88-5.04h-9.77Z"/>
        <path class="cls-1" d="m8.49,26.39c-3.28,0-5.95-2.97-5.95-6.61,0-.29.23-.52.52-.52h10.86c.29,0,.52.23.52.52,0,3.64-2.67,6.61-5.95,6.61Zm-4.88-6.09c.23,2.82,2.33,5.04,4.88,5.04s4.65-2.22,4.88-5.04H3.6Z"/>
        <path class="cls-1" d="m41.51,26.39c-3.28,0-5.95-2.97-5.95-6.61,0-.29.23-.52.52-.52h10.85c.29,0,.52.23.52.52,0,3.64-2.67,6.61-5.95,6.61Zm-4.88-6.09c.23,2.82,2.33,5.04,4.88,5.04s4.65-2.22,4.88-5.04h-9.77Z"/>
      </g>
      <path class="cls-1" d="m13.91,20.3s-.07,0-.1-.01c-.28-.05-.47-.33-.41-.61l2-10.44c.05-.28.33-.49.61-.41.28.05.47.33.41.61l-2,10.44c-.05.25-.27.42-.51.42Z"/>
      <path class="cls-1" d="m36.08,20.3c-.25,0-.47-.17-.51-.42l-2-10.44c-.06-.28.13-.56.41-.61.28-.08.56.13.61.41l2,10.44c.06.28-.13.56-.41.61-.03,0-.07.01-.1.01Z"/>
      <path class="cls-1" d="m24.77,20.3c-.29,0-.52-.23-.52-.52v-10.44c0-.29.23-.52.52-.52s.52.23.52.52v10.44c0,.29-.23.52-.52.52Z"/>
    </g>
    <path class="cls-1" d="m18.94,47.45h-8.45c-.29,0-.52-.23-.52-.52v-15.31c0-.79.64-1.44,1.44-1.44h6.62c.79,0,1.44.64,1.44,1.44v15.31c0,.29-.23.52-.52.52Zm-7.93-1.04h7.4v-14.79c0-.22-.18-.39-.39-.39h-6.62c-.22,0-.39.18-.39.39v14.79Z"/>
    <path class="cls-1" d="m40.63,9.86c-.29,0-.52-.23-.52-.52v-4.31c0-.79-.64-1.43-1.43-1.43H11.33c-.79,0-1.43.64-1.43,1.43v2.41c0,.29-.23.52-.52.52s-.52-.23-.52-.52v-2.41c0-1.37,1.11-2.48,2.48-2.48h27.34c1.37,0,2.48,1.11,2.48,2.48v4.31c0,.29-.23.52-.52.52Z"/>
    <path class="cls-1" d="m40.63,41.19h-15.84c-.29,0-.52-.23-.52-.52v-9.96c0-.29.23-.52.52-.52h15.84c.29,0,.52.23.52.52v9.96c0,.29-.23.52-.52.52Zm-15.31-1.04h14.79v-8.91h-14.79v8.91Z"/>
  </g>
  <path class="cls-1" d="m39.13,35.32c-.13,0-.27-.05-.37-.15l-2.71-2.71c-.2-.2-.2-.53,0-.74s.53-.2.74,0l2.71,2.71c.2.2.2.53,0,.74-.1.1-.23.15-.37.15Z"/>
  <path class="cls-1" d="m38.6,39.21c-.13,0-.27-.05-.37-.15l-6.07-6.07c-.2-.2-.2-.53,0-.74s.53-.2.74,0l6.07,6.07c.2.2.2.53,0,.74-.1.1-.23.15-.37.15Z"/>
</svg>