<?xml version="1.0" encoding="UTF-8"?>
<svg id="iconos" xmlns="http://www.w3.org/2000/svg" viewBox="0 0 50 50">
  <defs>
    <style>
      .cls-1 {
        fill: #1e1f22;
        stroke-width: 0px;
      }
    </style>
  </defs>
  <path class="cls-1" d="m25.26,2.87c3.95,0,7.17,1.02,9.67,3.06,2.5,2.04,3.74,4.73,3.74,8.07,0,1.24-.21,2.42-.62,3.55-.41,1.13-.95,2.12-1.61,2.98-.66.86-1.4,1.68-2.21,2.47s-1.63,1.54-2.44,2.24c-.81.71-1.56,1.4-2.25,2.09-.68.68-1.26,1.42-1.72,2.21-.47.8-.72,1.59-.77,2.4v.85h-6.93v-.85c0-1.65.39-3.19,1.16-4.61.77-1.42,1.7-2.64,2.8-3.65,1.09-1.01,2.19-1.98,3.29-2.93,1.1-.94,2.03-1.95,2.8-3.03.77-1.08,1.16-2.19,1.16-3.34,0-1.63-.58-2.94-1.73-3.92-1.15-.99-2.66-1.48-4.52-1.48-2.04,0-3.68.63-4.91,1.89-1.24,1.26-1.82,2.83-1.76,4.72h-7.06c-.07-3.6,1.18-6.63,3.74-9.07,2.56-2.44,5.96-3.66,10.19-3.66Zm-1.53,34.11c1.48,0,2.73.48,3.78,1.43,1.04.95,1.56,2.19,1.56,3.71s-.52,2.7-1.55,3.63c-1.03.92-2.29,1.38-3.79,1.38s-2.76-.46-3.79-1.38c-1.03-.92-1.55-2.13-1.55-3.63s.52-2.76,1.55-3.71c1.03-.96,2.29-1.43,3.79-1.43Z"/>
</svg>