<?xml version="1.0" encoding="UTF-8"?>
<svg xmlns="http://www.w3.org/2000/svg" viewBox="0 0 50 50">
  <defs>
    <style>
      .cls-1 {
        fill: none;
        stroke: #000;
        stroke-miterlimit: 10;
        stroke-width: .21px;
      }

      .cls-2 {
        fill: #1e1f22;
        stroke-width: 0px;
      }
    </style>
  </defs>
  <g id="iconos">
    <g>
      <path class="cls-2" d="m28.23,18.41c.91.44,1.61,1.04,2.13,1.82.51.78.77,1.68.77,2.71s-.27,1.97-.82,2.73c-.54.76-1.31,1.59-2.31,2.49-.81.73-1.42,1.36-1.82,1.88s-.6,1.09-.63,1.71v.53h-2.44v-.53c0-1,.26-1.84.77-2.54.51-.7,1.26-1.47,2.24-2.33.85-.77,1.48-1.43,1.89-1.96.41-.53.61-1.14.61-1.82,0-.98-.32-1.75-.97-2.31-.65-.56-1.51-.85-2.6-.85s-2.03.34-2.72,1.03c-.68.69-1.01,1.57-.99,2.66h-2.47c0-1.08.25-2.07.76-2.97s1.24-1.61,2.21-2.13c.96-.52,2.06-.78,3.29-.78,1.16,0,2.19.22,3.1.66Zm-2.33,16.6c.41.39.61.88.61,1.48s-.2,1.07-.61,1.46-.91.59-1.49.59-1.08-.19-1.5-.58c-.42-.39-.63-.87-.63-1.46s.21-1.09.63-1.48.92-.58,1.5-.58,1.09.19,1.49.58Z"/>
      <g>
        <path class="cls-2" d="m46.37,44.08H3c-.27,0-.5-.22-.5-.5s.22-.5.5-.5h43.37c.27,0,.5.22.5.5s-.22.5-.5.5Z"/>
        <path class="cls-2" d="m40.41,44.08H7.34c-.27,0-.5-.22-.5-.5v-18.27h-3.85c-.27,0-.5-.22-.5-.5v-3.99c0-.17.09-.33.23-.42L24.73,6c.23-.15.54-.09.69.14.15.23.09.54-.14.69L3.5,21.1v3.22h3.85c.27,0,.5.22.5.5v18.27h32.57c.27,0,.5.22.5.5s-.22.5-.5.5Z"/>
        <path class="cls-2" d="m42.66,44.08c-.27,0-.5-.22-.5-.5v-18.77c0-.27.22-.5.5-.5h3.85v-3.22L24.73,6.83c-.23-.15-.3-.46-.14-.69s.46-.29.69-.14l22,14.41c.14.09.23.25.23.42v3.99c0,.27-.22.5-.5.5h-3.85v18.27c0,.27-.22.5-.5.5Z"/>
        <path class="cls-2" d="m11.43,15.67c-.27,0-.5-.22-.5-.5V6.94c0-.27.22-.5.5-.5h5.34c.27,0,.5.22.5.5v4.9c0,.27-.22.5-.5.5s-.5-.22-.5-.5v-4.4h-4.35v7.74c0,.27-.22.5-.5.5Z"/>
      </g>
    </g>
  </g>
  <g id="guias">
    <rect class="cls-1" x="47.5" y="47.5" width="2.5" height="2.5"/>
    <rect class="cls-1" x="47.5" width="2.5" height="2.5"/>
    <rect class="cls-1" y="47.5" width="2.5" height="2.5"/>
    <rect class="cls-1" width="2.5" height="2.5"/>
  </g>
</svg>