<?xml version="1.0" encoding="UTF-8"?>
<svg id="iconos" xmlns="http://www.w3.org/2000/svg" viewBox="0 0 50 50">
  <defs>
    <style>
      .cls-1 {
        fill: #1e1f22;
        stroke-width: 0px;
      }
    </style>
  </defs>
  <path class="cls-1" d="m39.98,28.09c-1.2,0-2.17-.97-2.17-2.17s.97-2.17,2.17-2.17,2.17.97,2.17,2.17-.97,2.17-2.17,2.17Zm0-3.29c-.62,0-1.12.5-1.12,1.12s.5,1.12,1.12,1.12,1.12-.5,1.12-1.12-.5-1.12-1.12-1.12Z"/>
  <path class="cls-1" d="m9.64,28.09c-1.2,0-2.17-.97-2.17-2.17s.97-2.17,2.17-2.17,2.17.97,2.17,2.17-.97,2.17-2.17,2.17Zm0-3.29c-.62,0-1.12.5-1.12,1.12s.5,1.12,1.12,1.12,1.12-.5,1.12-1.12-.5-1.12-1.12-1.12Z"/>
  <path class="cls-1" d="m47.01,38.43H2.99c-.29,0-.53-.24-.53-.53V12.68c0-.29.24-.53.53-.53h44.02c.29,0,.53.24.53.53v25.22c0,.29-.24.53-.53.53Zm-43.5-1.05h42.97V13.21H3.51v24.17Z"/>
  <path class="cls-1" d="m12.44,42.69c-.13,0-.25-.05-.35-.14-.22-.19-.23-.53-.04-.74l1.37-1.52c.1-.11.24-.17.39-.17h0c.15,0,.29.06.39.17l1.37,1.52c.19.22.18.55-.04.74-.22.19-.55.18-.74-.04l-.98-1.09-.99,1.09c-.1.11-.25.17-.39.17Z"/>
  <path class="cls-1" d="m8.29,47.5c-4.53,0-5.75-3.55-5.76-3.59-.09-.27.06-.57.33-.66.27-.09.57.06.66.33.05.14,1.11,3.28,5.59,2.82,4.24-.43,4.18-5.08,4.17-5.28,0-.29.22-.53.51-.54.27.02.53.22.54.51,0,.06.11,5.83-5.12,6.36-.33.03-.64.05-.93.05Z"/>
  <path class="cls-1" d="m36.02,9.88c-.15,0-.29-.06-.39-.17l-1.37-1.52c-.19-.22-.18-.55.04-.74s.55-.18.74.04l.99,1.09.98-1.09c.2-.22.53-.23.74-.04.21.19.23.53.04.74l-1.37,1.52c-.1.11-.24.17-.39.17Z"/>
  <path class="cls-1" d="m36.02,9.41c-.28,0-.52-.23-.53-.51,0-.06-.11-5.83,5.12-6.35,5.28-.52,6.68,3.5,6.69,3.54.09.27-.06.57-.33.66-.28.09-.57-.06-.66-.33-.05-.14-1.2-3.29-5.59-2.82-4.25.42-4.18,5.08-4.17,5.28,0,.29-.22.53-.51.54h-.01Z"/>
  <g>
    <path class="cls-1" d="m24.98,34.8c-5.5,0-9.98-4.41-9.98-9.83s4.48-9.83,9.98-9.83c1.18,0,2.34.2,3.44.6.27.1.41.4.32.67s-.4.41-.67.32c-.99-.36-2.03-.54-3.09-.54-4.92,0-8.93,3.94-8.93,8.78s4.01,8.78,8.93,8.78,8.93-3.94,8.93-8.78c0-2.61-1.17-5.07-3.21-6.75-.23-.18-.26-.52-.07-.74.18-.23.52-.26.74-.07,2.29,1.88,3.6,4.63,3.6,7.56,0,5.42-4.48,9.83-9.98,9.83Z"/>
    <g>
      <path class="cls-1" d="m24.98,29.23c-1.39,0-2.22-1.01-2.25-1.05-.18-.23-.15-.56.08-.74.23-.18.56-.15.74.08.02.02.56.66,1.43.66.36,0,.65-.11.87-.33s.33-.53.32-.87c-.01-.44-.17-1-1.29-1.48-.11-.05-.23-.09-.36-.14-.71-.26-1.91-.7-1.9-2.25,0-.64.23-1.22.66-1.65s1.01-.65,1.66-.65h0c1.26,0,2.19.76,2.23.8.22.18.25.52.07.74-.19.23-.51.25-.74.07,0,0-.69-.55-1.56-.55h0c-.37,0-.69.12-.92.35-.23.22-.35.55-.35.9,0,.78.44.98,1.21,1.27.14.05.28.1.41.16,1.25.54,1.9,1.35,1.93,2.42.01.62-.21,1.21-.62,1.63-.41.42-.97.64-1.62.64Z"/>
      <path class="cls-1" d="m24.99,21.86h0c-.29,0-.53-.24-.53-.53v-1.29c0-.29.24-.53.53-.53h0c.29,0,.53.24.53.53v1.29c0,.29-.24.53-.53.53Z"/>
      <path class="cls-1" d="m24.98,30.43h0c-.29,0-.53-.24-.53-.53v-1.2c0-.29.24-.53.53-.53h0c.29,0,.53.24.53.53v1.2c0,.29-.24.53-.53.53Z"/>
    </g>
  </g>
</svg>