<?xml version="1.0" encoding="UTF-8"?>
<svg xmlns="http://www.w3.org/2000/svg" viewBox="0 0 50 50">
  <defs>
    <style>
      .cls-1 {
        fill: none;
        stroke: #000;
        stroke-miterlimit: 10;
        stroke-width: .21px;
      }

      .cls-2 {
        fill: #1e1f22;
        stroke-width: 0px;
      }
    </style>
  </defs>
  <g id="iconos">
    <g>
      <g id="seguros-personas-icono-cross-selling">
        <path class="cls-2" d="m25,47.5s-.09,0-.14-.02C1.6,40.6,5.07,8.72,5.11,8.4c.03-.27.28-.46.54-.43,11.6,1.36,18.95-5.28,19.02-5.35.19-.17.48-.17.66,0,.07.07,7.4,6.71,19.02,5.35.26-.04.51.16.54.43.04.32,3.52,32.2-19.75,39.08-.05.01-.09.02-.14.02ZM6.03,9c-.33,3.97-1.82,31.24,18.97,37.51,20.79-6.27,19.3-33.54,18.97-37.51-10.38,1.03-17.4-4.1-18.97-5.37-1.57,1.27-8.58,6.4-18.97,5.37Z"/>
      </g>
      <g>
        <g>
          <path class="cls-2" d="m24.94,36.67s-.04,0-.06,0l-10.75-1.37c-.14-.02-.25-.09-.33-.2-.08-.11-.11-.25-.08-.38l.84-4.25c.21-1.05.78-2,1.6-2.67.53-.44,1.07-.72,1.62-.84l3.57-1.04c.15-.09.2-.17.21-.25l.14-1.17c-.91-.79-1.61-1.88-2-3.13-.72-.26-1.23-1.09-1.23-2.09s.53-1.89,1.32-2.12c.26-.08.53.08.6.33.07.26-.08.53-.33.6-.3.09-.61.52-.61,1.18,0,.62.31,1.16.69,1.19.21.02.37.16.43.36.33,1.26,1.02,2.35,1.95,3.07.14.1.21.27.18.44l-.17,1.43c-.04.37-.24.7-.55.91-.11.07-.23.13-.36.17l-3.6,1.05c-.42.09-.83.31-1.24.65-.65.54-1.1,1.29-1.26,2.11l-.74,3.74,10.17,1.3,10.29-1.3-.74-3.74c-.17-.83-.61-1.58-1.26-2.11-.41-.34-.81-.56-1.21-.64l-3.63-1.05c-.13-.04-.25-.09-.36-.17-.31-.21-.51-.54-.56-.91l-.17-1.43c-.02-.17.05-.33.18-.44.93-.72,1.62-1.81,1.95-3.07.05-.2.22-.34.43-.36.38-.03.69-.57.69-1.19,0-.66-.31-1.1-.61-1.18-.26-.07-.41-.34-.33-.6s.34-.41.6-.33c.79.22,1.32,1.08,1.32,2.12s-.51,1.83-1.23,2.09c-.38,1.25-1.08,2.35-2,3.13l.14,1.17c.01.09.06.17.13.21l3.68,1.08c.52.11,1.06.4,1.59.83.82.68,1.39,1.62,1.6,2.67l.84,4.25c.03.13,0,.27-.08.38-.08.11-.2.18-.33.2l-10.87,1.37s-.04,0-.06,0Z"/>
          <path class="cls-2" d="m19.92,18.1c-.26,0-.48-.2-.49-.47,0-.12-.12-3.09,1.7-4.99.96-1.01,2.28-1.52,3.9-1.52s2.94.51,3.9,1.52c1.81,1.9,1.68,4.86,1.67,4.98-.01.27-.27.45-.51.46-.27-.01-.48-.24-.46-.51,0-.03.11-2.68-1.41-4.27-.77-.8-1.84-1.21-3.19-1.21s-2.43.41-3.2,1.22c-1.53,1.6-1.43,4.25-1.43,4.27.01.27-.2.49-.47.51h-.02Z"/>
          <path class="cls-2" d="m27.43,16.06c-.26,0-.53-.02-.81-.05-.99-.11-1.8-.5-2.59-.89-.2-.1-.41-.2-.61-.29-.76-.35-1.39-.43-1.89-.25-.35.13-.65.38-.8.68-.12.24-.41.34-.65.22-.24-.12-.34-.41-.22-.65.25-.53.74-.95,1.34-1.17.74-.27,1.62-.17,2.62.29.22.1.43.2.64.3.75.36,1.45.7,2.27.8,1.07.11,1.96-.03,2.79-.45.24-.12.53-.03.65.21.12.24.03.53-.21.65-.79.4-1.61.6-2.53.6Z"/>
        </g>
        <path class="cls-2" d="m25.01,30.38c-.13,0-.25-.05-.34-.14l-2.8-2.8c-.19-.19-.19-.5,0-.69s.5-.19.69,0l2.46,2.46,2.31-2.31c.19-.19.5-.19.69,0s.19.5,0,.69l-2.66,2.66c-.1.1-.22.14-.34.14Z"/>
      </g>
    </g>
  </g>
  <g id="guias">
    <g>
      <rect class="cls-1" x="47.5" y="47.5" width="2.5" height="2.5"/>
      <rect class="cls-1" x="47.5" width="2.5" height="2.5"/>
      <rect class="cls-1" y="47.5" width="2.5" height="2.5"/>
      <rect class="cls-1" width="2.5" height="2.5"/>
    </g>
  </g>
</svg>