<?xml version="1.0" encoding="UTF-8"?>
<svg xmlns="http://www.w3.org/2000/svg" viewBox="0 0 50 50">
  <defs>
    <style>
      .cls-1 {
        fill: none;
        stroke: #000;
        stroke-miterlimit: 10;
        stroke-width: .21px;
      }

      .cls-2 {
        fill: #1e1f22;
        stroke-width: 0px;
      }
    </style>
  </defs>
  <g id="iconos">
    <g>
      <g id="seguros-personas-icono-cross-selling">
        <path class="cls-2" d="m36.5,24.62s-.09,0-.14-.02c-1.76-.52-3.31-1.36-4.62-2.51-.21-.18-.23-.49-.04-.7.18-.21.49-.22.7-.04,1.16,1.02,2.54,1.78,4.11,2.26,9.33-2.88,9.03-14.87,8.86-17.44-4.7.39-7.85-1.74-8.86-2.52-1.01.79-4.19,2.9-8.86,2.52-.04.56-.09,1.58-.04,2.85,0,.27-.2.5-.48.52h-.02c-.27,0-.49-.21-.5-.48-.08-2.04.08-3.43.09-3.49.02-.13.08-.25.18-.33.1-.08.24-.12.37-.1,5.43.65,8.88-2.47,8.92-2.5.19-.17.48-.17.67,0,.03.03,3.5,3.15,8.91,2.5.27-.04.52.16.55.43.02.16,1.71,15.67-9.66,19.03-.05.01-.09.02-.14.02Z"/>
      </g>
      <g>
        <g>
          <path class="cls-2" d="m20.9,47.5s-.04,0-.06,0l-16.81-2.15c-.14-.02-.26-.09-.34-.2-.08-.11-.11-.25-.08-.39l1.32-6.65c.31-1.57,1.17-3,2.41-4.02.79-.66,1.61-1.08,2.42-1.26l5.6-1.63c.07-.02.14-.05.21-.1.17-.12.29-.31.31-.52l.23-1.96c-1.48-1.23-2.6-2.98-3.19-5-1.09-.31-1.88-1.55-1.88-3.06s.77-2.74,1.87-3.06c.26-.08.54.08.61.34.08.26-.08.54-.34.61-.66.19-1.15,1.07-1.15,2.1,0,1.13.58,2.06,1.33,2.13.21.02.38.16.44.37.54,2.03,1.65,3.79,3.14,4.95.14.11.21.28.19.45l-.26,2.24c-.06.5-.33.95-.75,1.23-.16.1-.32.18-.49.23l-5.63,1.63c-.69.15-1.36.51-2.03,1.06-1.06.88-1.8,2.11-2.07,3.45l-1.22,6.13,16.22,2.07,16.4-2.07-1.22-6.12c-.27-1.35-1-2.57-2.07-3.45-.67-.55-1.35-.91-2-1.05l-5.66-1.64c-.17-.05-.33-.13-.48-.22-.42-.28-.69-.73-.75-1.23l-.26-2.24c-.02-.17.05-.34.19-.45,1.49-1.16,2.61-2.92,3.14-4.95.05-.2.23-.35.44-.37.74-.07,1.33-1,1.33-2.13,0-1.03-.48-1.91-1.15-2.1-.26-.07-.42-.35-.34-.61s.35-.42.61-.34c1.1.31,1.87,1.57,1.87,3.06s-.79,2.75-1.88,3.06c-.59,2.01-1.71,3.77-3.19,5l.23,1.96c.03.21.14.41.32.53.06.04.13.08.2.09l5.63,1.63c.78.17,1.59.59,2.39,1.25,1.24,1.03,2.1,2.46,2.41,4.03l1.32,6.65c.03.14,0,.28-.08.39-.08.11-.2.18-.34.2l-16.99,2.15s-.04,0-.06,0Z"/>
          <path class="cls-2" d="m13.04,18.48c-.26,0-.48-.21-.5-.47,0-.19-.18-4.72,2.58-7.61,1.45-1.52,3.44-2.29,5.91-2.29s4.46.77,5.91,2.29c2.75,2.89,2.55,7.4,2.54,7.59-.01.27-.23.47-.5.47h-.03c-.27-.01-.48-.25-.47-.52,0-.04.18-4.29-2.27-6.86-1.25-1.31-3-1.98-5.18-1.98s-3.93.67-5.19,1.98c-2.47,2.58-2.31,6.84-2.31,6.88.01.27-.2.5-.47.52h-.02Z"/>
          <path class="cls-2" d="m24.79,15.28c-.4,0-.81-.02-1.23-.07-1.5-.16-2.75-.77-3.95-1.36-.32-.16-.64-.31-.97-.46-1.25-.57-2.31-.71-3.15-.41-.62.22-1.14.67-1.39,1.19-.12.25-.42.35-.66.23-.25-.12-.35-.42-.23-.66.37-.76,1.08-1.38,1.95-1.69,1.09-.39,2.4-.25,3.9.44.34.16.67.32,1,.47,1.18.58,2.3,1.12,3.63,1.27,1.73.19,3.16-.04,4.52-.73.24-.12.54-.03.67.22.12.24.03.54-.22.67-1.19.61-2.43.9-3.84.9Z"/>
        </g>
        <path class="cls-2" d="m21.01,37.67c-.13,0-.25-.05-.35-.15l-4.38-4.38c-.19-.19-.19-.51,0-.7s.51-.19.7,0l4.03,4.03,3.8-3.8c.19-.19.51-.19.7,0s.19.51,0,.7l-4.15,4.15c-.1.1-.22.15-.35.15Z"/>
      </g>
    </g>
  </g>
  <g id="guias">
    <rect class="cls-1" x="47.5" y="47.5" width="2.5" height="2.5"/>
    <rect class="cls-1" x="47.5" width="2.5" height="2.5"/>
    <rect class="cls-1" y="47.5" width="2.5" height="2.5"/>
    <rect class="cls-1" width="2.5" height="2.5"/>
  </g>
</svg>