<?xml version="1.0" encoding="UTF-8"?>
<svg xmlns="http://www.w3.org/2000/svg" viewBox="0 0 50 50">
  <defs>
    <style>
      .cls-1 {
        fill: none;
        stroke: #000;
        stroke-miterlimit: 10;
        stroke-width: .21px;
      }

      .cls-2 {
        fill: #1e1f22;
        stroke-width: 0px;
      }
    </style>
  </defs>
  <g id="iconos">
    <g>
      <g>
        <path class="cls-2" d="m38.04,20.87c-1.04,0-1.66-.77-1.69-.8-.18-.23-.14-.56.09-.74.23-.18.56-.14.74.09.01.01.34.4.87.4.2,0,.36-.06.48-.18.12-.12.19-.31.19-.51,0-.27-.11-.6-.8-.9-.07-.03-.15-.06-.23-.09-.5-.18-1.43-.53-1.43-1.73,0-.49.18-.95.51-1.27.32-.32.77-.5,1.25-.5h0c.92,0,1.58.54,1.65.6.22.19.25.52.06.74-.19.22-.52.24-.74.06-.02-.02-.44-.35-.97-.35h0c-.21,0-.39.07-.52.19-.13.13-.2.32-.2.53,0,.44.19.55.74.75.1.04.2.07.29.11.93.41,1.41,1.02,1.43,1.84.01.48-.17.94-.49,1.27-.31.32-.74.49-1.22.49Z"/>
        <path class="cls-2" d="m38.05,15.68c-.29,0-.52-.23-.52-.52v-.91c0-.29.23-.52.52-.52s.52.23.52.52v.91c0,.29-.23.52-.52.52Z"/>
        <path class="cls-2" d="m38.04,21.71h0c-.29,0-.52-.23-.52-.53v-.84c0-.29.24-.52.53-.52h0c.29,0,.52.23.52.53v.84c0,.29-.24.52-.53.52Z"/>
      </g>
      <g>
        <g>
          <path class="cls-2" d="m11.77,36.4h-5.3c-.29,0-.52-.23-.52-.52s.23-.52.52-.52h5.3c.29,0,.52.23.52.52s-.23.52-.52.52Z"/>
          <path class="cls-2" d="m18.89,36.4h-5.3c-.29,0-.52-.23-.52-.52s.23-.52.52-.52h5.3c.29,0,.52.23.52.52s-.23.52-.52.52Z"/>
          <path class="cls-2" d="m26.01,36.4h-5.3c-.29,0-.52-.23-.52-.52s.23-.52.52-.52h5.3c.29,0,.52.23.52.52s-.23.52-.52.52Z"/>
          <path class="cls-2" d="m33.12,36.4h-5.3c-.29,0-.52-.23-.52-.52s.23-.52.52-.52h5.3c.29,0,.52.23.52.52s-.23.52-.52.52Z"/>
          <path class="cls-2" d="m10.59,27.08h-3.89c-.41,0-.74-.33-.74-.74v-2.38c0-.41.33-.74.74-.74h3.89c.41,0,.74.33.74.74v2.38c0,.41-.33.74-.74.74Zm-3.89-3.33c-.12,0-.21.09-.21.21v2.38c0,.12.09.21.21.21h3.89c.12,0,.21-.09.21-.21v-2.38c0-.12-.09-.21-.21-.21h-3.89Z"/>
          <path class="cls-2" d="m34.49,41.4H5.3c-1.54,0-2.8-1.25-2.8-2.8v-16.64c0-1.54,1.25-2.8,2.8-2.8h29.2c1.54,0,2.8,1.25,2.8,2.8v16.64c0,1.54-1.25,2.8-2.8,2.8ZM5.3,20.22c-.97,0-1.75.78-1.75,1.75v16.64c0,.97.78,1.75,1.75,1.75h29.2c.97,0,1.75-.78,1.75-1.75v-16.64c0-.97-.78-1.75-1.75-1.75H5.3Z"/>
          <path class="cls-2" d="m9.32,26.46h-1.43c-.15,0-.26-.12-.26-.26v-2.03c0-.15.12-.26.26-.26h1.43c.15,0,.26.12.26.26v2.03c0,.15-.12.26-.26.26Zm-1.17-.52h.91v-1.51h-.91v1.51Z"/>
          <g>
            <path class="cls-2" d="m11.07,26.04h-1.74c-.15,0-.26-.12-.26-.26v-1.18c0-.15.12-.26.26-.26h1.74c.15,0,.26.12.26.26v1.18c0,.15-.12.26-.26.26Zm-1.48-.52h1.22v-.66h-1.22v.66Z"/>
            <path class="cls-2" d="m7.89,26.04h-1.66c-.15,0-.26-.12-.26-.26v-1.19c0-.15.12-.26.26-.26h1.66c.15,0,.26.12.26.26v1.19c0,.15-.12.26-.26.26Zm-1.4-.52h1.14v-.66h-1.14v.66Z"/>
          </g>
          <path class="cls-2" d="m8.6,24.43c-.15,0-.26-.12-.26-.26v-.68c0-.15.12-.26.26-.26s.26.12.26.26v.68c0,.15-.12.26-.26.26Z"/>
          <path class="cls-2" d="m8.6,27.08c-.15,0-.26-.12-.26-.26v-.62c0-.15.12-.26.26-.26s.26.12.26.26v.62c0,.15-.12.26-.26.26Z"/>
          <g>
            <polygon class="cls-2" points="28.71 25.55 31.16 27.99 33.6 25.55 33.03 24.98 31.16 26.86 29.85 25.55 31.16 24.24 31.71 24.8 32.28 24.23 31.16 23.11 28.71 25.55"/>
            <polygon class="cls-2" points="33.6 24.23 31.16 21.79 28.71 24.23 29.28 24.8 31.16 22.93 32.46 24.23 31.16 25.54 30.6 24.98 30.03 25.55 31.16 26.67 33.6 24.23"/>
          </g>
        </g>
        <path class="cls-2" d="m34.49,41.4H5.3c-1.54,0-2.8-1.25-2.8-2.8v-16.64c0-1.54,1.25-2.8,2.8-2.8h29.2c1.54,0,2.8,1.25,2.8,2.8v16.64c0,1.54-1.25,2.8-2.8,2.8ZM5.3,20.22c-.97,0-1.75.78-1.75,1.75v16.64c0,.97.78,1.75,1.75,1.75h29.2c.97,0,1.75-.78,1.75-1.75v-16.64c0-.97-.78-1.75-1.75-1.75H5.3Z"/>
      </g>
      <path class="cls-2" d="m38.61,27.68c-.27,0-.5-.21-.52-.48-.02-.29.19-.54.48-.56,4.42-.34,7.89-4.06,7.89-8.46,0-4.71-3.83-8.53-8.53-8.53s-8.34,3.61-8.5,8.23c-.01.29-.29.55-.54.5-.29-.01-.51-.25-.5-.54.18-5.18,4.38-9.24,9.55-9.24s9.58,4.3,9.58,9.58c0,4.95-3.89,9.13-8.85,9.51-.01,0-.03,0-.04,0Z"/>
    </g>
  </g>
  <g id="guias">
    <rect class="cls-1" x="47.5" y="47.5" width="2.5" height="2.5"/>
    <rect class="cls-1" x="47.5" width="2.5" height="2.5"/>
    <rect class="cls-1" y="47.5" width="2.5" height="2.5"/>
    <rect class="cls-1" width="2.5" height="2.5"/>
  </g>
</svg>