<?xml version="1.0" encoding="UTF-8"?>
<svg xmlns="http://www.w3.org/2000/svg" viewBox="0 0 50 50">
  <defs>
    <style>
      .cls-1 {
        fill: none;
        stroke: #000;
        stroke-miterlimit: 10;
        stroke-width: .21px;
      }

      .cls-2 {
        fill: #1e1f22;
        stroke-width: 0px;
      }
    </style>
  </defs>
  <g id="iconos">
    <g>
      <path class="cls-2" d="m23.35,36.36c-7.91,0-14.35-6.44-14.35-14.35s6.44-14.35,14.35-14.35,14.35,6.44,14.35,14.35-6.44,14.35-14.35,14.35Zm0-27.66c-7.33,0-13.3,5.97-13.3,13.3s5.97,13.3,13.3,13.3,13.3-5.97,13.3-13.3-5.97-13.3-13.3-13.3Z"/>
      <g>
        <path class="cls-2" d="m23.35,29.42c-2.33,0-3.7-1.71-3.75-1.78-.18-.23-.14-.56.09-.73.23-.18.56-.14.74.08.01.01,1.12,1.38,2.93,1.38.75,0,1.39-.25,1.86-.72.48-.49.74-1.2.73-1.94-.04-1.37-.87-2.37-2.61-3.13-.21-.09-.43-.17-.66-.26-1.34-.5-3.18-1.17-3.18-3.74,0-1.07.39-2.05,1.09-2.74.68-.68,1.64-1.06,2.68-1.06h.02c2.14,0,3.7,1.31,3.77,1.37.22.19.25.52.06.74-.19.23-.52.25-.74.06-.01-.01-1.35-1.12-3.09-1.12h-.01c-.78,0-1.45.26-1.95.75-.5.5-.78,1.21-.78,2,0,1.83,1.21,2.28,2.5,2.75.25.09.49.18.71.28,2.13.93,3.19,2.26,3.24,4.06.02,1.03-.35,2.01-1.03,2.7-.66.68-1.56,1.04-2.61,1.04Z"/>
        <path class="cls-2" d="m23.36,15.83c-.29,0-.52-.24-.52-.52v-2.39c0-.29.24-.52.52-.52s.52.24.52.52v2.39c0,.29-.24.52-.52.52Z"/>
        <path class="cls-2" d="m23.34,31.63h0c-.29,0-.52-.24-.52-.52v-2.21c0-.29.24-.52.53-.52h0c.29,0,.52.24.52.52v2.21c0,.29-.24.52-.53.52Z"/>
      </g>
      <path class="cls-2" d="m46.98,23.58c-.14,0-.29-.06-.39-.17l-2.02-2.23-2.02,2.23c-.19.22-.52.23-.74.04-.22-.19-.23-.53-.04-.74l2.41-2.67c.1-.11.24-.17.39-.17h0c.15,0,.29.06.39.17l2.41,2.67c.19.21.18.55-.04.74-.1.09-.23.14-.35.14Z"/>
      <path class="cls-2" d="m23.32,42.34c-9.59,0-17.95-6.15-20.79-15.3-.09-.28.07-.57.34-.66s.57.07.66.34c2.71,8.71,10.66,14.56,19.79,14.56,11.43,0,20.73-9.3,20.73-20.72,0-.29.24-.52.52-.52s.52.24.52.52c0,12.01-9.77,21.77-21.78,21.77Z"/>
    </g>
  </g>
  <g id="guias">
    <g>
      <rect class="cls-1" x="47.5" y="47.5" width="2.5" height="2.5"/>
      <rect class="cls-1" x="47.5" width="2.5" height="2.5"/>
      <rect class="cls-1" y="47.5" width="2.5" height="2.5"/>
      <rect class="cls-1" width="2.5" height="2.5"/>
    </g>
  </g>
</svg>