<?xml version="1.0" encoding="UTF-8"?>
<svg xmlns="http://www.w3.org/2000/svg" viewBox="0 0 50 50">
  <defs>
    <style>
      .cls-1 {
        fill: none;
        stroke: #000;
        stroke-miterlimit: 10;
        stroke-width: .21px;
      }

      .cls-2 {
        fill: #1e1f22;
        stroke-width: 0px;
      }
    </style>
  </defs>
  <g id="iconos">
    <g>
      <path class="cls-2" d="m23.08,19.95c-4.54,0-8.24-3.7-8.24-8.24s3.7-8.24,8.24-8.24,8.24,3.7,8.24,8.24-3.7,8.24-8.24,8.24Zm0-15.49c-4,0-7.25,3.25-7.25,7.25s3.25,7.25,7.25,7.25,7.25-3.25,7.25-7.25-3.25-7.25-7.25-7.25Z"/>
      <path class="cls-2" d="m39.09,28.88c-1.14,0-2.07-.93-2.07-2.07,0-.27.22-.5.5-.5s.5.22.5.5c0,.59.48,1.08,1.08,1.08s1.08-.48,1.08-1.08c0-.27.22-.5.5-.5s.5.22.5.5c0,1.14-.93,2.07-2.07,2.07Z"/>
      <path class="cls-2" d="m16.79,21.52c-.16,0-.31-.07-.41-.21-.16-.22-.1-.53.12-.69,1.56-1.08,3.95-1.7,6.57-1.7s5,.62,6.56,1.7c.22.15.28.46.12.69-.15.23-.46.28-.69.12-1.37-.95-3.62-1.52-6-1.52s-4.62.57-6,1.52c-.09.06-.18.09-.28.09Z"/>
      <g>
        <path class="cls-2" d="m23.07,16.06c-1.4,0-2.23-1.03-2.26-1.07-.17-.21-.13-.53.08-.7.21-.17.53-.13.7.08.02.03.57.69,1.48.7.37,0,.67-.11.9-.34.23-.24.36-.58.35-.94-.02-.69-.43-1.18-1.34-1.57-.11-.05-.23-.09-.36-.14-.76-.28-1.91-.71-1.91-2.28,0-.65.24-1.25.67-1.68.42-.42,1.01-.65,1.65-.65h0c1.27,0,2.2.78,2.24.82.21.18.23.49.06.7-.18.21-.49.24-.7.06,0,0-.7-.58-1.6-.58h0c-.39,0-.71.13-.95.36-.24.24-.38.59-.38.98,0,.84.48,1.06,1.26,1.35.14.05.28.1.41.16,1.26.55,1.91,1.37,1.94,2.45.01.63-.22,1.24-.63,1.66-.41.42-.96.64-1.6.64Z"/>
        <path class="cls-2" d="m23.08,8.46c-.27,0-.5-.22-.5-.5v-1.34c0-.27.22-.5.5-.5s.5.22.5.5v1.34c0,.27-.22.5-.5.5Z"/>
        <path class="cls-2" d="m23.07,17.3h0c-.27,0-.5-.22-.5-.5v-1.24c0-.27.22-.5.5-.5h0c.27,0,.5.22.5.5v1.24c0,.27-.22.5-.5.5Z"/>
      </g>
      <path class="cls-2" d="m33.23,17.07s-.07,0-.1-.01c-1.15-.25-2.41-.37-3.74-.37-.27,0-.5-.22-.5-.5s.22-.5.5-.5c1.4,0,2.73.13,3.95.39.27.06.44.32.38.59-.05.23-.26.39-.48.39Z"/>
      <path class="cls-2" d="m33.57,46.53h-1.63c-.89,0-1.66-.61-1.87-1.48l-.64-2.76-7.41.12-.33,2.46c-.13.94-.94,1.66-1.9,1.66h-2.06c-.9,0-1.67-.62-1.87-1.5l-.97-4.3c-1.07-.78-6.75-5.3-6.75-12.74,0-8.12,8.79-11.61,8.88-11.64.25-.1.54.03.64.28.1.25-.03.54-.28.64-.08.03-8.24,3.29-8.24,10.72s6.41,12,6.48,12.04c.1.07.18.18.2.3l1.01,4.49c.09.42.47.72.9.72h2.06c.46,0,.86-.34.92-.8l.39-2.89c.03-.24.24-.42.48-.43l8.24-.13c.26.02.44.15.49.38l.74,3.15c.1.42.47.71.9.71h1.63c.42,0,.79-.28.89-.69l1.22-4.54c.04-.14.13-.25.26-.32.05-.02,4.81-2.45,5.68-5.49.05-.16.17-.28.32-.33l3.15-1.04c.76-.25,1.26-.95,1.26-1.75v-1.88c0-.73-.43-1.39-1.09-1.68l-2.42-1.08c-.15-.07-.26-.21-.29-.38,0-.03-.5-3.03-2.88-5.65-.18-.2-.17-.51.03-.7.2-.18.51-.17.7.03,2.19,2.41,2.89,5.05,3.07,5.89l2.18.97c1.02.45,1.68,1.47,1.68,2.59v1.88c0,1.23-.78,2.31-1.95,2.69l-2.91.96c-1.04,2.98-4.96,5.23-5.91,5.74l-1.16,4.33c-.22.84-.99,1.42-1.85,1.42Z"/>
      <path class="cls-2" d="m3.45,30.49c-.1,0-.21,0-.32,0-.27-.01-.49-.24-.47-.52.01-.27.24-.45.52-.47,1.45.07,2.45-.34,2.97-1.2-.51-.07-1.02-.22-1.45-.51-.62-.43-.96-1.09-1.03-1.94-.07-.91.41-1.66,1.21-1.92.81-.27,1.68.07,2.12.79.39.64.6,1.63.48,2.59.43-.05.8-.13,1.02-.19.26-.08.54.07.61.34.08.26-.08.54-.34.61-.05.02-.72.2-1.55.26-.06.15-.13.3-.22.44-.47.8-1.47,1.72-3.57,1.72Zm2-5.66c-.09,0-.18.01-.26.04-.17.06-.57.26-.53.9.04.55.24.94.6,1.2.33.23.77.33,1.23.37.13-.81-.05-1.66-.33-2.1-.18-.29-.45-.41-.71-.41Z"/>
      <path class="cls-2" d="m36.06,24.19c-.97,0-1.91-.31-2.7-.9-.97-.72-1.6-1.78-1.78-2.98-.18-1.2.13-2.4.85-3.37.6-.81,1.48-1.41,2.46-1.67.29-.08.67-.23,1.08-.4,1.35-.54,3.04-1.22,4.02-.48,1.01.75.83,2.61.69,4.09-.04.43-.08.82-.08,1.12.01,1-.3,1.96-.9,2.76-.72.97-1.78,1.6-2.98,1.78-.22.03-.45.05-.67.05Zm2.83-9.15c-.7,0-1.78.43-2.55.74-.46.18-.88.35-1.19.43-.78.21-1.44.66-1.92,1.31-.57.76-.8,1.7-.67,2.63.14.94.63,1.77,1.39,2.33.76.57,1.7.81,2.63.67.94-.14,1.77-.63,2.33-1.39h0c.47-.63.71-1.38.7-2.16,0-.32.03-.75.08-1.22.11-1.11.26-2.79-.3-3.21-.12-.09-.3-.13-.51-.13Z"/>
    </g>
  </g>
  <g id="guias">
    <rect class="cls-1" x="47.5" y="47.5" width="2.5" height="2.5"/>
    <rect class="cls-1" x="47.5" width="2.5" height="2.5"/>
    <rect class="cls-1" y="47.5" width="2.5" height="2.5"/>
    <rect class="cls-1" width="2.5" height="2.5"/>
  </g>
</svg>