<?xml version="1.0" encoding="UTF-8"?>
<svg xmlns="http://www.w3.org/2000/svg" viewBox="0 0 50 50">
  <defs>
    <style>
      .cls-1 {
        fill: none;
        stroke: #000;
        stroke-miterlimit: 10;
        stroke-width: .21px;
      }

      .cls-2 {
        fill: #1e1f22;
        stroke-width: 0px;
      }
    </style>
  </defs>
  <g id="iconos">
    <g>
      <path class="cls-2" d="m34.35,41.76H6.88c-2.42,0-4.38-1.97-4.38-4.38V13.24c0-2.42,1.96-4.38,4.38-4.38h33.93c2.42,0,4.38,1.97,4.38,4.38v18.9c0,.28-.23.5-.5.5s-.5-.23-.5-.5V13.24c0-1.86-1.51-3.38-3.37-3.38H6.88c-1.86,0-3.37,1.51-3.37,3.38v24.14c0,1.86,1.51,3.38,3.37,3.38h27.47c.28,0,.5.23.5.5s-.23.5-.5.5Z"/>
      <path class="cls-2" d="m40.11,44.87c-1.89,0-3.79-.72-5.23-2.16-1.4-1.4-2.17-3.25-2.17-5.23s.77-3.83,2.17-5.23c1.39-1.4,3.25-2.17,5.23-2.17s3.83.77,5.23,2.17h0c2.88,2.88,2.88,7.58,0,10.46-1.44,1.44-3.34,2.16-5.23,2.16Zm0-13.78c-1.71,0-3.31.66-4.51,1.87-1.21,1.21-1.87,2.81-1.87,4.52s.66,3.31,1.87,4.52c2.49,2.49,6.54,2.49,9.03,0,2.49-2.49,2.49-6.54,0-9.04h0c-1.21-1.21-2.81-1.87-4.52-1.87Z"/>
      <path class="cls-2" d="m44.68,16.8H3c-.28,0-.5-.23-.5-.5s.23-.5.5-.5h41.68c.28,0,.5.23.5.5s-.23.5-.5.5Z"/>
      <path class="cls-2" d="m11.64,12.76c-.28,0-.5-.23-.5-.5v-6.62c0-.28.23-.5.5-.5s.5.23.5.5v6.62c0,.28-.23.5-.5.5Z"/>
      <path class="cls-2" d="m23.84,12.76c-.28,0-.5-.23-.5-.5v-6.62c0-.28.23-.5.5-.5s.5.23.5.5v6.62c0,.28-.23.5-.5.5Z"/>
      <path class="cls-2" d="m36.04,12.76c-.28,0-.5-.23-.5-.5v-6.62c0-.28.23-.5.5-.5s.5.23.5.5v6.62c0,.28-.23.5-.5.5Z"/>
      <path class="cls-2" d="m40.58,40.39v.93h-.68v-.93c-1.11-.12-1.86-.81-1.91-1.82h1.21c.02.5.39.84,1.07.84s.97-.29.97-.71c0-.47-.38-.61-.89-.77l-.68-.21c-.59-.18-1.58-.55-1.58-1.7,0-.98.7-1.68,1.82-1.79v-.94h.68v.95c1.04.14,1.71.82,1.73,1.8h-1.2c0-.5-.37-.83-.97-.83-.56,0-.87.29-.87.71,0,.46.46.63.92.76l.85.25c1.04.31,1.43.94,1.43,1.69,0,1.04-.8,1.67-1.9,1.77Z"/>
    </g>
  </g>
  <g id="guias">
    <rect class="cls-1" x="47.5" y="47.5" width="2.5" height="2.5"/>
    <rect class="cls-1" x="47.5" width="2.5" height="2.5"/>
    <rect class="cls-1" y="47.5" width="2.5" height="2.5"/>
    <rect class="cls-1" width="2.5" height="2.5"/>
  </g>
</svg>