<?xml version="1.0" encoding="UTF-8"?>
<svg xmlns="http://www.w3.org/2000/svg" viewBox="0 0 50 50">
  <defs>
    <style>
      .cls-1 {
        fill: none;
        stroke: #000;
        stroke-miterlimit: 10;
        stroke-width: .21px;
      }

      .cls-2 {
        fill: #1e1f22;
        stroke-width: 0px;
      }
    </style>
  </defs>
  <g id="iconos">
    <g>
      <path class="cls-2" d="m29.06,32.58c-1.99,0-3.99-.76-5.5-2.28-3.03-3.04-3.03-7.98,0-11.01,3.03-3.03,7.97-3.03,11.01,0h0c3.03,3.03,3.03,7.97,0,11.01-1.52,1.52-3.51,2.28-5.51,2.28Zm0-14.54c-1.73,0-3.46.66-4.78,1.98-2.63,2.63-2.63,6.93,0,9.56,2.64,2.63,6.93,2.63,9.56,0,2.63-2.64,2.63-6.93,0-9.56-1.32-1.32-3.05-1.98-4.78-1.98Z"/>
      <path class="cls-2" d="m40.99,39.82c-.48,0-.95-.18-1.32-.55l-6.44-6.45c-.35-.36-.55-.83-.55-1.33,0-.5.2-.96.55-1.31.7-.7,1.93-.71,2.64,0l6.45,6.44h0c.73.73.73,1.91,0,2.64-.36.36-.84.55-1.32.55Zm-6.44-9.15c-.23,0-.44.09-.6.25-.16.16-.25.37-.25.59,0,.23.09.44.25.6l6.44,6.45c.33.33.87.33,1.2,0s.33-.86,0-1.19l-6.45-6.44c-.16-.16-.37-.25-.6-.25Z"/>
      <path class="cls-2" d="m27.78,28.31c-.13,0-.25-.05-.34-.13l-2.34-2.09c-.21-.19-.23-.51-.04-.72.19-.21.51-.23.72-.04l1.94,1.73,4.58-5.6c.18-.22.5-.25.72-.07.22.18.25.5.07.72l-4.92,6.01c-.09.11-.22.18-.36.19-.01,0-.03,0-.04,0Z"/>
      <path class="cls-2" d="m42.9,46.43H7.1c-2.54,0-4.6-2.07-4.6-4.6V8.17c0-2.54,2.07-4.6,4.6-4.6h35.8c2.54,0,4.6,2.07,4.6,4.6v33.65c0,2.54-2.07,4.6-4.6,4.6ZM7.1,4.59c-1.97,0-3.58,1.61-3.58,3.58v33.65c0,1.97,1.61,3.58,3.58,3.58h35.8c1.97,0,3.58-1.61,3.58-3.58V8.17c0-1.97-1.61-3.58-3.58-3.58H7.1Z"/>
    </g>
  </g>
  <g id="guias">
    <rect class="cls-1" x="47.5" y="47.5" width="2.5" height="2.5"/>
    <rect class="cls-1" x="47.5" width="2.5" height="2.5"/>
    <rect class="cls-1" y="47.5" width="2.5" height="2.5"/>
    <rect class="cls-1" width="2.5" height="2.5"/>
  </g>
</svg>