<?xml version="1.0" encoding="UTF-8"?>
<svg id="iconos" xmlns="http://www.w3.org/2000/svg" viewBox="0 0 50 50">
  <defs>
    <style>
      .cls-1 {
        fill: #1e1f22;
        stroke-width: 0px;
      }
    </style>
  </defs>
  <path class="cls-1" d="m39.85,41.97c-.54,0-1.09-.21-1.5-.62l-5.77-5.77c-2.65,2-5.86,3.09-9.23,3.09-4.09,0-7.94-1.59-10.84-4.49-2.85-2.85-4.49-6.8-4.49-10.84s1.6-7.94,4.49-10.84c1.43-1.43,3.1-2.55,4.97-3.32,3.74-1.55,7.99-1.55,11.73,0,1.87.78,3.55,1.89,4.97,3.32,1.43,1.43,2.54,3.1,3.32,4.97.78,1.87,1.17,3.85,1.17,5.87s-.39,3.99-1.17,5.86c-.5,1.21-1.15,2.34-1.93,3.37l5.77,5.77c.83.83.83,2.17,0,3-.41.41-.96.62-1.5.62ZM23.35,12.27c-1.46,0-2.89.28-4.24.84-1.36.56-2.56,1.37-3.59,2.4-2.09,2.1-3.25,4.88-3.25,7.84s1.18,5.77,3.25,7.84c2.09,2.09,4.87,3.24,7.84,3.24s5.74-1.15,7.84-3.24c1.03-1.03,1.84-2.24,2.4-3.6.56-1.35.84-2.78.84-4.24s-.28-2.89-.84-4.24c-.56-1.35-1.37-2.56-2.4-3.6-1.03-1.03-2.24-1.84-3.6-2.4-1.35-.56-2.78-.84-4.24-.84Z"/>
</svg>