<?xml version="1.0" encoding="UTF-8"?>
<svg xmlns="http://www.w3.org/2000/svg" viewBox="0 0 50 50">
  <defs>
    <style>
      .cls-1 {
        fill: none;
        stroke: #000;
        stroke-miterlimit: 10;
        stroke-width: .21px;
      }

      .cls-2 {
        fill: #1e1f22;
        stroke-width: 0px;
      }
    </style>
  </defs>
  <g id="iconos">
    <g>
      <path class="cls-2" d="m25,47.5s-.09,0-.14-.02C1.59,40.6,5.07,8.72,5.11,8.4c.03-.27.28-.44.54-.43,11.59,1.37,18.95-5.28,19.02-5.35.19-.17.47-.17.66,0,.07.07,7.45,6.72,19.02,5.35.26-.02.51.16.54.43.04.32,3.52,32.2-19.75,39.08-.05.02-.09.02-.14.02ZM6.03,8.99c-.33,3.97-1.82,31.24,18.97,37.51,20.8-6.27,19.31-33.55,18.97-37.51-10.41,1.02-17.41-4.1-18.97-5.37-1.57,1.27-8.59,6.39-18.97,5.37Z"/>
      <g id="avales-garantias_MEML-Standby-_cartas-de-compromiso-icon" data-name="avales-garantias MEML-Standby- cartas-de-compromiso-icon">
        <path class="cls-2" d="m25,33.43c-4.65,0-8.43-3.78-8.43-8.43s3.78-8.43,8.43-8.43,8.43,3.78,8.43,8.43-3.78,8.43-8.43,8.43Zm0-15.9c-4.11,0-7.46,3.35-7.46,7.46s3.35,7.46,7.46,7.46,7.46-3.35,7.46-7.46-3.35-7.46-7.46-7.46Z"/>
        <path class="cls-2" d="m23.56,28.85c-.12,0-.23-.04-.32-.12l-2.62-2.34c-.2-.18-.22-.49-.04-.69.18-.2.49-.22.69-.04l2.24,2,5.18-6.34c.17-.21.47-.24.68-.07.21.17.24.48.07.68l-5.5,6.73c-.08.1-.2.17-.34.18-.01,0-.02,0-.04,0Z"/>
      </g>
    </g>
  </g>
  <g id="guias">
    <rect class="cls-1" x="47.5" y="47.5" width="2.5" height="2.5"/>
    <rect class="cls-1" x="47.5" width="2.5" height="2.5"/>
    <rect class="cls-1" y="47.5" width="2.5" height="2.5"/>
    <rect class="cls-1" width="2.5" height="2.5"/>
  </g>
</svg>