<?xml version="1.0" encoding="UTF-8"?>
<svg id="iconos" xmlns="http://www.w3.org/2000/svg" viewBox="0 0 50 50">
  <defs>
    <style>
      .cls-1 {
        fill: #1e1f22;
        stroke-width: 0px;
      }
    </style>
  </defs>
  <g>
    <g>
      <path class="cls-1" d="m17.29,39.72h-2.02c-.85,0-1.54-.69-1.54-1.54v-4.35c0-.29.24-.52.52-.52s.52.24.52.52v4.35c0,.27.22.5.49.5h2.02c.27,0,.5-.22.5-.5v-2.43c0-.29.24-.52.52-.52s.52.24.52.52v2.43c0,.85-.69,1.54-1.54,1.54Z"/>
      <path class="cls-1" d="m33.31,36.27h-16.64c-.29,0-.52-.24-.52-.52s.24-.52.52-.52h16.64c.29,0,.52.24.52.52s-.24.52-.52.52Z"/>
      <path class="cls-1" d="m35.72,34.35c-.12,0-.24-.04-.34-.12-.22-.19-.25-.52-.06-.74.29-.34.44-.76.44-1.2v-2.85c0-.45-.17-.89-.47-1.23l-1.46-1.42c-.07-.07-.12-.15-.14-.24l-1.76-6.85c-.2-.36-.63-.65-1.31-.81-1.25-.28-3.45-.32-5.64-.32s-4.4.04-5.65.32c-.68.15-1.1.44-1.35.91l-1.72,6.74c-.02.09-.07.18-.14.24l-1.48,1.45c-.28.31-.44.75-.44,1.2v2.85c0,.44.16.86.44,1.2.19.22.16.55-.06.74-.22.19-.55.16-.74-.06-.45-.53-.69-1.19-.69-1.88v-2.85c0-.71.26-1.39.73-1.92l1.4-1.37,1.73-6.71c.43-.87,1.1-1.34,2.09-1.57,1.27-.28,3.27-.34,5.88-.34s4.6.06,5.87.34c.97.22,1.67.71,2.05,1.46l1.77,6.82,1.38,1.34c.49.56.75,1.24.75,1.95v2.85c0,.69-.25,1.35-.69,1.88-.1.12-.25.18-.4.18Z"/>
      <path class="cls-1" d="m27.22,33.31h-4.46c-.29,0-.52-.24-.52-.52s.24-.52.52-.52h4.46c.29,0,.52.24.52.52s-.24.52-.52.52Z"/>
      <path class="cls-1" d="m27.22,13.96h-4.46c-.29,0-.52-.24-.52-.52s.24-.52.52-.52h4.46c.29,0,.52.24.52.52s-.24.52-.52.52Z"/>
      <path class="cls-1" d="m34.7,39.72h-2.02c-.85,0-1.54-.69-1.54-1.54v-2.43c0-.29.24-.52.52-.52s.52.24.52.52v2.43c0,.27.22.5.5.5h2.02c.27,0,.5-.22.5-.5v-4.35c0-.29.24-.52.52-.52s.52.24.52.52v4.35c0,.85-.69,1.54-1.54,1.54Z"/>
      <path class="cls-1" d="m30.58,31.31c-.29,0-.52-.24-.52-.52,0-1.04.84-1.88,1.88-1.88h2.07c.29,0,.52.24.52.52s-.24.52-.52.52h-2.07c-.46,0-.83.37-.83.84,0,.29-.24.52-.52.52Z"/>
      <path class="cls-1" d="m24.99,26.75c-7.3,0-7.3-.31-7.3-.78.04-.26.73-4.49,1.06-5.89.06-.24.27-.4.51-.4h11.46c.24,0,.45.17.51.4.34,1.4,1.03,5.63,1.06,5.81,0,.55,0,.86-7.3.86Zm-6.17-1.24c.91.07,3.03.2,6.17.2s5.27-.12,6.18-.2c-.17-1.03-.59-3.5-.87-4.79h-10.62c-.27,1.27-.68,3.7-.86,4.79Z"/>
      <path class="cls-1" d="m19.4,31.31c-.29,0-.52-.24-.52-.52,0-.46-.37-.84-.84-.84h-2.07c-.29,0-.52-.24-.52-.52s.24-.52.52-.52h2.07c1.04,0,1.88.84,1.88,1.88,0,.29-.24.52-.52.52Z"/>
    </g>
    <path class="cls-1" d="m15,25.85h-.25c-.88,0-1.59-.71-1.59-1.59v-1.37c0-.88.71-1.59,1.59-1.59h.25c.88,0,1.59.71,1.59,1.59v1.37c0,.88-.71,1.59-1.59,1.59Zm-.25-3.5c-.3,0-.54.24-.54.54v1.37c0,.3.24.54.54.54h.25c.3,0,.54-.24.54-.54v-1.37c0-.3-.24-.54-.54-.54h-.25Z"/>
    <path class="cls-1" d="m35.08,25.85h-.25c-.88,0-1.59-.71-1.59-1.59v-1.37c0-.88.71-1.59,1.59-1.59h.25c.88,0,1.59.71,1.59,1.59v1.37c0,.88-.71,1.59-1.59,1.59Zm-.25-3.5c-.3,0-.54.24-.54.54v1.37c0,.3.24.54.54.54h.25c.3,0,.54-.24.54-.54v-1.37c0-.3-.24-.54-.54-.54h-.25Z"/>
    <path class="cls-1" d="m14.69,27.98c-.29,0-.52-.24-.52-.52v-2.14c0-.29.24-.52.52-.52s.52.24.52.52v2.14c0,.29-.24.52-.52.52Z"/>
    <path class="cls-1" d="m35.29,22.35c-.29,0-.52-.24-.52-.52v-10.5H15.21v8.7c0,.29-.24.52-.52.52s-.52-.24-.52-.52v-9.22c0-.29.24-.52.52-.52h20.6c.29,0,.52.24.52.52v11.02c0,.29-.24.52-.52.52Z"/>
    <path class="cls-1" d="m35.29,27.98c-.29,0-.52-.24-.52-.52v-2.14c0-.29.24-.52.52-.52s.52.24.52.52v2.14c0,.29-.24.52-.52.52Z"/>
  </g>
  <g id="seguros-personas-icono-cross-selling">
    <path class="cls-1" d="m24.99,47.49s-.09,0-.13-.02C-1.21,40.61,2.69,8.75,2.73,8.42c.04-.28.3-.5.57-.45,13.02,1.38,21.27-5.28,21.35-5.35.2-.16.47-.16.67,0,.08.07,8.33,6.72,21.35,5.35.27-.04.54.17.57.45,0,0,.04.28.08.8.03.29-.19.54-.47.57-.33.02-.54-.19-.57-.47,0-.09-.02-.18-.02-.26-11.83,1.08-19.6-4.12-21.28-5.37-1.68,1.25-9.44,6.44-21.27,5.37-.38,4.04-1.99,31.13,21.27,37.36,19.99-5.35,21.66-25.79,21.45-34.34,0-.29.22-.53.51-.54.34.02.53.22.54.51.22,8.82-1.53,29.93-22.36,35.42-.04.01-.09.02-.13.02Z"/>
  </g>
</svg>