<?xml version="1.0" encoding="UTF-8"?>
<svg xmlns="http://www.w3.org/2000/svg" viewBox="0 0 50 50">
  <defs>
    <style>
      .cls-1 {
        fill: none;
        stroke: #000;
        stroke-miterlimit: 10;
        stroke-width: .21px;
      }

      .cls-2 {
        fill: #1e1f22;
        stroke-width: 0px;
      }
    </style>
  </defs>
  <g id="iconos">
    <g>
      <g>
        <g>
          <path class="cls-2" d="m37.36,20.96h-17.32c-.29,0-.53-.24-.53-.53s.24-.53.53-.53h17.32c.29,0,.53.24.53.53s-.24.53-.53.53Z"/>
          <path class="cls-2" d="m13.86,22.42c-.13,0-.25-.05-.35-.13l-1.22-1.09c-.22-.19-.24-.53-.04-.75.19-.22.53-.24.75-.04l.81.72,1.81-2.22c.18-.23.52-.26.75-.07.23.18.26.52.07.75l-2.16,2.65c-.09.11-.22.18-.37.19-.01,0-.03,0-.04,0Z"/>
        </g>
        <g>
          <path class="cls-2" d="m37.36,29.84h-17.32c-.29,0-.53-.24-.53-.53s.24-.53.53-.53h17.32c.29,0,.53.24.53.53s-.24.53-.53.53Z"/>
          <path class="cls-2" d="m13.86,31.29c-.13,0-.25-.05-.35-.13l-1.22-1.09c-.22-.19-.24-.53-.04-.75.19-.22.53-.24.75-.04l.81.72,1.81-2.22c.18-.23.52-.26.75-.07.23.18.26.52.07.75l-2.16,2.65c-.09.11-.22.18-.37.19-.01,0-.03,0-.04,0Z"/>
        </g>
        <g>
          <path class="cls-2" d="m37.36,38.71h-17.32c-.29,0-.53-.24-.53-.53s.24-.53.53-.53h17.32c.29,0,.53.24.53.53s-.24.53-.53.53Z"/>
          <path class="cls-2" d="m13.86,40.16c-.13,0-.25-.05-.35-.13l-1.22-1.09c-.22-.19-.24-.53-.04-.75.19-.22.53-.24.75-.04l.81.72,1.81-2.22c.18-.23.52-.26.75-.07.23.18.26.52.07.75l-2.16,2.65c-.09.11-.22.18-.37.19-.01,0-.03,0-.04,0Z"/>
        </g>
      </g>
      <path class="cls-2" d="m40.05,47.5H9.52c-1.23,0-2.24-1-2.24-2.23V4.79c0-1.26,1.19-2.29,2.66-2.29h30.1c1.47,0,2.66,1.03,2.66,2.29v40.42c0,1.26-1.19,2.29-2.66,2.29ZM9.95,3.56c-.88,0-1.6.55-1.6,1.23v40.48c0,.65.53,1.17,1.17,1.17h30.53c.88,0,1.6-.55,1.6-1.23V4.79c0-.68-.72-1.23-1.6-1.23H9.95Z"/>
    </g>
  </g>
  <g id="guias">
    <rect class="cls-1" x="47.5" y="47.5" width="2.5" height="2.5"/>
    <rect class="cls-1" x="47.5" width="2.5" height="2.5"/>
    <rect class="cls-1" y="47.5" width="2.5" height="2.5"/>
    <rect class="cls-1" width="2.5" height="2.5"/>
  </g>
</svg>