<?xml version="1.0" encoding="UTF-8"?>
<svg xmlns="http://www.w3.org/2000/svg" viewBox="0 0 50 50">
  <defs>
    <style>
      .cls-1 {
        fill: none;
        stroke: #000;
        stroke-miterlimit: 10;
        stroke-width: .21px;
      }

      .cls-2 {
        fill: #1e1f22;
        stroke-width: 0px;
      }
    </style>
  </defs>
  <g id="iconos">
    <g>
      <polygon class="cls-2" points="11 37.58 11 37.58 11 37.58 11 37.58"/>
      <path class="cls-2" d="m37.16,12.82c.39.39.89.6,1.43.6h.01c.54,0,1.04-.22,1.41-.6l.8-.8c.19-.19.34-.41.43-.64.11-.25.16-.51.16-.79s-.05-.54-.16-.78c-.1-.24-.25-.47-.44-.65h0c-.78-.79-2.07-.8-2.88-.02l-.79.8c-.18.18-.33.4-.44.65-.1.25-.15.51-.15.78s.05.53.16.79c.1.24.25.46.46.67Z"/>
      <path class="cls-2" d="m9.21,12.02l.79.8c.39.39.89.6,1.43.6h0c.53,0,1.04-.21,1.45-.62.19-.19.34-.41.44-.66.1-.25.15-.51.15-.78s-.05-.53-.16-.78c-.1-.25-.25-.47-.44-.65l-.8-.8c-.76-.76-2.07-.78-2.87.02-.19.19-.34.41-.44.65-.1.25-.16.51-.16.78s.05.53.16.78c.1.25.25.47.44.66Z"/>
      <path class="cls-2" d="m6.68,22.95h-2.08c-1.11,0-2.02.91-2.02,2.05s.9,2.03,2.02,2.03h2.1c.53,0,1.03-.2,1.41-.57.38-.38.6-.89.6-1.46,0-1.15-.89-2.05-2.02-2.05Z"/>
      <path class="cls-2" d="m25.01,8.6h.04c.53,0,1.03-.2,1.41-.57.38-.38.6-.89.6-1.44v-1.99c0-1.12-.91-2.03-2.04-2.03s-2.04.89-2.04,2.03v1.96c0,1.12.91,2.03,2.04,2.03Z"/>
      <path class="cls-2" d="m39.99,37.18c-.76-.76-2.09-.76-2.85,0-.81.81-.82,2.08-.02,2.88l.8.8c.38.38.9.6,1.44.6s1.06-.22,1.44-.6c.39-.39.6-.9.6-1.44s-.21-1.06-.59-1.44l-.8-.8Z"/>
      <path class="cls-2" d="m25.01,12.72c-6.74,0-12.23,5.51-12.23,12.28s5.49,12.28,12.23,12.28,12.23-5.51,12.23-12.28-5.49-12.28-12.23-12.28Zm.03,20.86c-4.76,0-8.62-3.86-8.62-8.62s3.86-8.62,8.62-8.62,8.62,3.86,8.62,8.62-3.86,8.62-8.62,8.62Z"/>
      <path class="cls-2" d="m45.4,22.95h-2.06c-1.11,0-2.02.91-2.02,2.03v.02c0,1.12.9,2.03,2.02,2.03h2.06c1.11,0,2.02-.91,2.02-2.05s-.9-2.03-2.02-2.03Z"/>
      <path class="cls-2" d="m12.2,36.71c-.5-.2-1.04-.21-1.56,0-.25.1-.47.25-.65.44l-.81.81c-.77.82-.75,2.09.03,2.87.53.54,1.35.73,2.06.5l.16.16,1.32-1.32h0l.14-.14c.38-.39.58-.89.58-1.43s-.21-1.05-.61-1.45c-.19-.19-.41-.34-.67-.45Zm-1.19.86h0Z"/>
      <path class="cls-2" d="m24.99,41.4c-1.11,0-2.02.91-2.02,2.03v1.96c0,1.12.9,2.03,2.02,2.03h.02c1.11,0,2.02-.91,2.02-2.03v-1.96c0-1.12-.9-2.03-2.04-2.03Z"/>
    </g>
  </g>
  <g id="guias">
    <g>
      <rect class="cls-1" x="47.5" y="47.59" width="2.5" height="2.5"/>
      <rect class="cls-1" x="47.5" y=".09" width="2.5" height="2.5"/>
      <rect class="cls-1" y="47.59" width="2.5" height="2.5"/>
      <rect class="cls-1" y=".09" width="2.5" height="2.5"/>
    </g>
  </g>
</svg>