<?xml version="1.0" encoding="UTF-8"?>
<svg xmlns="http://www.w3.org/2000/svg" viewBox="0 0 50 50">
  <defs>
    <style>
      .cls-1 {
        fill: none;
        stroke: #000;
        stroke-miterlimit: 10;
        stroke-width: .21px;
      }

      .cls-2 {
        fill: #1e1f22;
        stroke-width: 0px;
      }
    </style>
  </defs>
  <g id="iconos">
    <path class="cls-2" d="m45.25,23.2h-2.2c-1.24,0-2.25.81-2.25,1.8s1.01,1.8,2.25,1.8h2.2c1.24,0,2.25-.8,2.25-1.8s-1.01-1.8-2.25-1.8Zm-20.25-10.57c-6.86,0-12.37,5.51-12.37,12.37s5.51,12.37,12.37,12.37,12.37-5.51,12.37-12.37-5.51-12.37-12.37-12.37Zm0,21.37c-4.97,0-9-4.03-9-9s4.03-9,9-9v18Zm-15.75-9c0-.99-1.01-1.8-2.25-1.8h-2.25c-1.24,0-2.25.81-2.25,1.8s1.01,1.8,2.25,1.8h2.25c1.24,0,2.25-.81,2.25-1.8Zm15.75-15.75c.99,0,1.8-1.01,1.8-2.25v-2.25c0-1.24-.81-2.25-1.8-2.25s-1.8,1.01-1.8,2.25v2.25c0,1.24.81,2.25,1.8,2.25Zm0,31.5c-.99,0-1.8,1.01-1.8,2.25v2.25c0,1.24.81,2.25,1.8,2.25s1.8-1.01,1.8-2.25v-2.25c0-1.24-.81-2.25-1.8-2.25Zm16.57-29.78c.88-.88,1.02-2.16.32-2.86-.7-.7-1.99-.56-2.86.32-.24.24-1.33,1.33-1.57,1.57-.88.88-1.02,2.16-.32,2.86s1.99.56,2.86-.32c.24-.24,1.33-1.33,1.57-1.57Zm-31.57,26.48c-.24.25-1.33,1.34-1.58,1.58-.88.88-1.02,2.16-.32,2.86.7.7,1.99.56,2.86-.32.24-.24,1.33-1.33,1.57-1.57.88-.88,1.02-2.16.32-2.87s-1.99-.56-2.86.32Zm.97-29.02c-.88-.88-2.16-1.02-2.86-.32-.7.7-.56,1.99.32,2.87.24.24,1.33,1.33,1.58,1.57.88.88,2.16,1.02,2.86.32.7-.7.56-1.99-.32-2.86-.24-.24-1.33-1.33-1.57-1.58Zm26.48,31.57c.24.24,1.33,1.33,1.58,1.57.88.88,2.16,1.02,2.86.32.7-.7.56-1.99-.32-2.86-.24-.24-1.33-1.33-1.57-1.57-.88-.88-2.16-1.02-2.87-.32s-.56,1.98.32,2.86Z"/>
  </g>
  <g id="guias">
    <g>
      <rect class="cls-1" x="47.5" y="47.5" width="2.5" height="2.5"/>
      <rect class="cls-1" x="47.5" width="2.5" height="2.5"/>
      <rect class="cls-1" y="47.5" width="2.5" height="2.5"/>
      <rect class="cls-1" width="2.5" height="2.5"/>
    </g>
  </g>
</svg>