<?xml version="1.0" encoding="UTF-8"?>
<svg xmlns="http://www.w3.org/2000/svg" viewBox="0 0 50 50">
  <defs>
    <style>
      .cls-1 {
        fill: none;
        stroke: #000;
        stroke-miterlimit: 10;
        stroke-width: .21px;
      }

      .cls-2 {
        fill: #1e1f22;
        stroke-width: 0px;
      }
    </style>
  </defs>
  <g id="iconos">
    <g>
      <path class="cls-2" d="m24.96,47.49c-4.68,0-9.37-1.43-13.33-4.36-.95-.72-1.8-1.46-2.54-2.2-4.25-4.25-6.59-9.9-6.59-15.91s2.34-11.66,6.59-15.91c1.68-1.69,3.61-3.08,5.73-4.14,7.47-3.82,16.38-3.16,23.24,1.73.24.17.29.5.13.73-.17.24-.5.29-.73.13-6.54-4.66-15.03-5.29-22.15-1.65-2.02,1.01-3.86,2.34-5.46,3.94-4.05,4.05-6.28,9.43-6.28,15.16s2.23,11.11,6.28,15.16c.71.71,1.52,1.42,2.43,2.1,8.45,6.26,20.46,5.36,27.92-2.1.18-.18.37-.37.53-.57,1.7-1.83,3.02-3.84,3.92-5.98,2.29-5.15,2.42-11.1.38-16.35-1.06-2.79-2.68-5.29-4.83-7.43-.21-.21-.21-.54,0-.74s.54-.21.74,0c2.25,2.25,3.96,4.87,5.06,7.8,2.15,5.5,2.01,11.75-.39,17.14-.95,2.25-2.33,4.35-4.09,6.24-.15.2-.38.42-.58.62-4.34,4.34-10.14,6.56-15.96,6.56Z"/>
      <path class="cls-2" d="m45.11,34.37c-.16,0-.31-.07-.42-.21-1.89-2.47-3.89-4.68-5.93-6.58-1.05-1.01-2.14-1.96-3.35-2.9-4.06-3.19-8.57-5.67-13.4-7.36-3.02-1.05-6.08-1.79-9.11-2.2-1.32-.17-2.56-.29-3.69-.33-.29-.01-.52-.26-.51-.55s.29-.54.55-.51c1.16.05,2.44.16,3.79.34,3.1.43,6.23,1.18,9.32,2.25,4.94,1.74,9.55,4.27,13.7,7.53,1.24.96,2.36,1.93,3.43,2.96,2.08,1.93,4.12,4.19,6.05,6.7.18.23.13.56-.1.74-.1.07-.21.11-.32.11Z"/>
      <path class="cls-2" d="m19.24,32.46c-4.73,0-9.94-.76-15.55-2.68-.28-.09-.42-.39-.33-.67s.4-.42.67-.33c25.21,8.66,42.23-6.86,42.4-7.02.21-.2.55-.19.74.02.2.21.19.54-.02.74-.14.13-10.87,9.93-27.91,9.93Z"/>
      <path class="cls-2" d="m15.96,22.11c-.13,0-.26-.05-.36-.15-.21-.2-.22-.53-.02-.74,1.92-2.01,4.06-3.64,6.36-4.86,3.18-1.72,6.68-2.61,10.4-2.65h0c.29,0,.52.23.53.52,0,.29-.23.53-.52.53-3.55.04-6.88.89-9.92,2.52-2.21,1.16-4.26,2.73-6.1,4.66-.1.11-.24.16-.38.16Z"/>
      <path class="cls-2" d="m45.49,17.63c-.07,0-.14-.01-.21-.04-2.92-1.24-5.81-2.1-8.56-2.53-.29-.05-.48-.31-.44-.6.05-.29.3-.49.6-.44,2.84.45,5.81,1.32,8.81,2.6.27.12.39.42.28.69-.09.2-.28.32-.48.32Z"/>
      <path class="cls-2" d="m8.28,35.44s-.09,0-.14-.02c-.28-.07-.45-.36-.37-.64.34-1.27.85-2.68,1.48-4.08.98-2.19,2.16-4.24,3.5-6.11.17-.24.5-.29.73-.12.24.17.29.5.12.73-1.3,1.81-2.44,3.8-3.4,5.93-.6,1.34-1.09,2.7-1.42,3.92-.06.24-.28.39-.51.39Z"/>
      <path class="cls-2" d="m13.44,21.33c-.24,0-.46-.17-.51-.41-.46-2.06-.62-4.2-.47-6.35.27-5.36,2.05-9.18,2.13-9.34.12-.26.44-.38.7-.25.26.12.38.44.25.7-.02.04-1.77,3.81-2.03,8.95-.14,2.06.01,4.1.45,6.07.06.28-.12.56-.4.63-.04,0-.08.01-.11.01Z"/>
      <path class="cls-2" d="m39.59,40.52c-2.02,0-5.74-.23-9.89-1.61-.28-.09-.43-.39-.33-.67.09-.28.39-.42.67-.33,5.87,1.96,10.99,1.52,11.04,1.51.27-.06.55.19.57.47.03.29-.18.55-.47.57-.07,0-.64.06-1.58.06Z"/>
      <path class="cls-2" d="m25.78,37.21c-.08,0-.16-.02-.24-.06-2.44-1.26-4.64-2.88-6.53-4.84-.68-.71-1.3-1.42-1.83-2.13-1.21-1.59-2.16-3.2-2.9-4.93-.12-.27,0-.58.28-.69.26-.11.58,0,.69.28.7,1.65,1.61,3.18,2.77,4.71.51.68,1.1,1.36,1.75,2.04,1.81,1.87,3.92,3.43,6.26,4.63.26.13.36.45.23.71-.09.18-.28.29-.47.29Z"/>
      <path class="cls-2" d="m29.7,37.23c-.14,0-.29-.06-.39-.17-.2-.22-.18-.55.04-.74,1.99-1.79,3.5-4.02,4.49-6.61l.25-.69c.56-1.61.94-3.23,1.13-4.81.34-2.61.2-5.21-.43-7.74-.07-.28.1-.57.38-.64.29-.09.57.1.64.38.66,2.66.81,5.39.45,8.12-.2,1.65-.6,3.34-1.18,5.03l-.26.7c-1.05,2.76-2.66,5.12-4.77,7.03-.1.09-.23.14-.35.14Z"/>
      <path class="cls-2" d="m12.36,43.23c-.24,0-.39,0-.43,0-.29-.01-.52-.25-.51-.54s.26-.51.54-.51c.07,0,7.49.22,13.86-3.36.25-.14.57-.06.72.2.14.25.05.58-.2.72-5.81,3.27-12.26,3.5-13.98,3.5Z"/>
      <path class="cls-2" d="m33.76,12.66c-.2,0-.39-.11-.48-.3-1.11-2.35-2.63-4.56-4.51-6.55-.2-.21-.19-.54.02-.74.21-.2.54-.19.74.02,1.96,2.08,3.55,4.37,4.7,6.83.12.26.01.58-.25.7-.07.03-.15.05-.22.05Z"/>
      <path class="cls-2" d="m34.6,16.97c-1.53,0-2.75-1.2-2.78-2.73,0-1.16.68-2.17,1.74-2.6.3-.09.65-.19,1.04-.19,1.52,0,2.76,1.24,2.76,2.76,0,.14,0,.28-.03.41-.15,1.01-.86,1.87-1.86,2.21-.3.09-.58.13-.86.13Zm0-4.46c-.2,0-.4.04-.69.13-.61.25-1.04.88-1.04,1.58.02,1.14,1.14,1.98,2.27,1.62.62-.21,1.05-.73,1.15-1.38.02-.1.01-.17.01-.24,0-.94-.76-1.7-1.7-1.7Z"/>
      <path class="cls-2" d="m27.72,40.53c-.77,0-1.51-.33-2.03-.91-.47-.52-.73-1.19-.73-1.87,0-.48.13-.93.37-1.34.47-.86,1.39-1.41,2.38-1.41s1.95.56,2.44,1.45c.23.42.34.86.34,1.3,0,.26-.04.51-.13.81-.34,1.16-1.43,1.97-2.65,1.97Zm0-4.48c-.61,0-1.18.34-1.47.88-.16.26-.23.53-.23.82,0,.42.16.84.46,1.16.32.36.78.56,1.25.56.75,0,1.43-.5,1.64-1.22.06-.2.09-.35.09-.5,0-.27-.07-.54-.21-.81-.3-.55-.88-.9-1.51-.9Z"/>
      <path class="cls-2" d="m14.17,25.66c-.43,0-.85-.1-1.22-.29-.94-.46-1.53-1.41-1.53-2.47,0-1.19.75-2.23,1.85-2.6,1.04-.38,2.42.01,3.12.97.36.5.54,1.05.54,1.64,0,1.24-.84,2.33-2.03,2.65-.19.07-.44.1-.73.1Zm0-4.46c-.19,0-.38.03-.56.1-.7.23-1.15.86-1.15,1.61,0,.66.36,1.24.94,1.52.39.2.89.22,1.18.12.77-.21,1.28-.88,1.28-1.65,0-.36-.12-.7-.34-1.02-.31-.43-.83-.69-1.36-.69Z"/>
    </g>
  </g>
  <g id="guias">
    <g>
      <rect class="cls-1" x="47.5" y="47.5" width="2.5" height="2.5"/>
      <rect class="cls-1" x="47.5" width="2.5" height="2.5"/>
      <rect class="cls-1" y="47.5" width="2.5" height="2.5"/>
      <rect class="cls-1" width="2.5" height="2.5"/>
    </g>
  </g>
</svg>