<?xml version="1.0" encoding="UTF-8"?>
<svg xmlns="http://www.w3.org/2000/svg" viewBox="0 0 50 50">
  <defs>
    <style>
      .cls-1 {
        fill: none;
        stroke: #000;
        stroke-miterlimit: 10;
        stroke-width: .21px;
      }

      .cls-2 {
        fill: #1e1f22;
        stroke-width: 0px;
      }
    </style>
  </defs>
  <g id="iconos">
    <g>
      <path class="cls-2" d="m8.31,36.41c-1.25,0-2.38-.88-2.64-2.15l-3.11-14.87c-.3-1.46.63-2.89,2.09-3.2l26.28-5.5c.7-.15,1.42,0,2.03.39.6.4,1.02,1,1.17,1.7l1.05,5.02c.05.25-.11.5-.36.55-.25.04-.5-.11-.55-.36l-1.05-5.02c-.1-.46-.37-.86-.77-1.12-.4-.26-.87-.35-1.33-.25l-26.28,5.5c-.46.1-.86.37-1.12.77s-.35.87-.25,1.34l3.11,14.87c.2.96,1.14,1.59,2.1,1.37l5.05-1.06c.25-.04.49.11.55.36.05.25-.11.5-.36.55l-5.05,1.06c-.19.04-.37.06-.56.06Z"/>
      <path class="cls-2" d="m24.89,18.48c-.22,0-.41-.15-.45-.37-.05-.25.11-.5.36-.55l9.33-1.95c.25-.04.5.11.55.36s-.11.5-.36.55l-9.33,1.95s-.06,0-.09,0Z"/>
      <path class="cls-2" d="m3.63,22.93c-.22,0-.41-.15-.45-.37-.05-.25.11-.5.36-.55l10.19-2.14c.25-.04.49.11.55.36.05.25-.11.5-.36.55l-10.19,2.14s-.06,0-.09,0Z"/>
      <path class="cls-2" d="m4.5,26.93c-.22,0-.41-.15-.45-.37-.05-.25.11-.5.36-.55l9.33-1.95c.25-.05.49.11.55.36.05.25-.11.5-.36.55l-9.33,1.95s-.06,0-.09,0Z"/>
      <path class="cls-2" d="m22.43,34.44h-5.21c-.26,0-.46-.21-.46-.46s.21-.46.46-.46h5.21c.26,0,.46.21.46.46s-.21.46-.46.46Z"/>
      <path class="cls-2" d="m29.44,34.44h-5.21c-.26,0-.46-.21-.46-.46s.21-.46.46-.46h5.21c.26,0,.46.21.46.46s-.21.46-.46.46Z"/>
      <path class="cls-2" d="m36.44,34.44h-5.21c-.26,0-.46-.21-.46-.46s.21-.46.46-.46h5.21c.26,0,.46.21.46.46s-.21.46-.46.46Z"/>
      <path class="cls-2" d="m43.45,34.44h-5.21c-.26,0-.46-.21-.46-.46s.21-.46.46-.46h5.21c.26,0,.46.21.46.46s-.21.46-.46.46Z"/>
      <path class="cls-2" d="m21.27,25.3h-3.82c-.39,0-.7-.31-.7-.7v-2.34c0-.39.31-.7.7-.7h3.82c.39,0,.7.31.7.7v2.34c0,.39-.31.7-.7.7Zm-3.82-3.27c-.13,0-.24.1-.24.24v2.34c0,.13.1.24.24.24h3.82c.13,0,.24-.1.24-.24v-2.34c0-.13-.1-.24-.24-.24h-3.82Z"/>
      <path class="cls-2" d="m44.8,39.37h-28.73c-1.49,0-2.7-1.21-2.7-2.7v-16.37c0-1.49,1.21-2.7,2.7-2.7h28.73c1.49,0,2.7,1.21,2.7,2.7v16.37c0,1.49-1.21,2.7-2.7,2.7Zm-28.73-20.85c-.98,0-1.78.8-1.78,1.78v16.37c0,.98.8,1.78,1.78,1.78h28.73c.98,0,1.78-.8,1.78-1.78v-16.37c0-.98-.8-1.78-1.78-1.78h-28.73Z"/>
      <path class="cls-2" d="m20.03,24.69h-1.41c-.13,0-.23-.1-.23-.23v-2c0-.13.1-.23.23-.23h1.41c.13,0,.23.1.23.23v2c0,.13-.1.23-.23.23Zm-1.18-.46h.95v-1.54h-.95v1.54Z"/>
      <g>
        <path class="cls-2" d="m21.74,24.27h-1.72c-.13,0-.23-.1-.23-.23v-1.17c0-.13.1-.23.23-.23h1.72c.13,0,.23.1.23.23v1.17c0,.13-.1.23-.23.23Zm-1.48-.46h1.25v-.7h-1.25v.7Z"/>
        <path class="cls-2" d="m18.62,24.28h-1.63c-.13,0-.23-.1-.23-.23v-1.17c0-.13.1-.23.23-.23h1.63c.13,0,.23.1.23.23v1.17c0,.13-.1.23-.23.23Zm-1.4-.46h1.17v-.71h-1.17v.71Z"/>
      </g>
      <path class="cls-2" d="m19.32,22.69c-.13,0-.23-.1-.23-.23v-.67c0-.13.1-.23.23-.23s.23.1.23.23v.67c0,.13-.1.23-.23.23Z"/>
      <path class="cls-2" d="m19.32,25.3c-.13,0-.23-.1-.23-.23v-.61c0-.13.1-.23.23-.23s.23.1.23.23v.61c0,.13-.1.23-.23.23Z"/>
      <g>
        <polygon class="cls-2" points="38.74 24.1 41.33 26.69 43.91 24.1 43.31 23.5 41.33 25.49 39.94 24.1 41.33 22.72 41.92 23.31 42.52 22.71 41.33 21.51 38.74 24.1"/>
        <polygon class="cls-2" points="43.91 22.71 41.33 20.12 38.74 22.71 39.34 23.31 41.33 21.32 42.71 22.71 41.33 24.09 40.74 23.5 40.13 24.1 41.33 25.29 43.91 22.71"/>
      </g>
    </g>
  </g>
  <g id="guias">
    <rect class="cls-1" x="47.5" y="47.5" width="2.5" height="2.5"/>
    <rect class="cls-1" x="47.5" width="2.5" height="2.5"/>
    <rect class="cls-1" y="47.5" width="2.5" height="2.5"/>
    <rect class="cls-1" width="2.5" height="2.5"/>
  </g>
</svg>