<?xml version="1.0" encoding="UTF-8"?>
<svg xmlns="http://www.w3.org/2000/svg" viewBox="0 0 50 50">
  <defs>
    <style>
      .cls-1 {
        fill: none;
        stroke: #000;
        stroke-miterlimit: 10;
        stroke-width: .21px;
      }

      .cls-2 {
        fill: #1e1f22;
        stroke-width: 0px;
      }
    </style>
  </defs>
  <g id="iconos">
    <g>
      <path class="cls-2" d="m29.07,28.41c-.29,0-.52-.23-.52-.52v-.83c0-1.63-1.33-2.96-2.96-2.96h-1.28c-.29,0-.52-.23-.52-.52s.23-.52.52-.52h1.28c2.21,0,4.01,1.8,4.01,4.01v.83c0,.29-.23.52-.52.52Z"/>
      <path class="cls-2" d="m33.83,28.41c-.29,0-.52-.23-.52-.52v-.83c0-1.63-1.33-2.96-2.96-2.96h-1.28c-.29,0-.52-.23-.52-.52s.23-.52.52-.52h1.28c2.21,0,4.01,1.8,4.01,4.01v.83c0,.29-.23.52-.52.52Z"/>
      <path class="cls-2" d="m34.85,47.5h-13.61c-.29,0-.52-.23-.52-.52v-1.27l-3.98-4.66c-1.46-1.71-2.61-3.64-3.42-5.74l-2.17-5.59c-.68-1.78-.03-3.82,1.56-4.87h0s.76-.66,1.8-.52c.71.1,1.33.54,1.84,1.32l2.27,3.09v-14.38c0-1.71,1.39-3.11,3.11-3.11s3.11,1.39,3.11,3.11v13.87c0,.29-.23.52-.52.52s-.52-.23-.52-.52v-13.87c0-1.14-.92-2.06-2.06-2.06s-2.06.92-2.06,2.06v15.98c0,.23-.15.43-.36.5-.22.07-.45,0-.58-.19l-3.23-4.4c-.35-.53-.73-.82-1.12-.88-.56-.08-1.03.31-1.04.32-1.23.82-1.72,2.34-1.21,3.65l2.17,5.59c.77,1.99,1.86,3.82,3.24,5.44l4.1,4.81c.08.09.12.21.12.34v.94h12.55l-.03-1.41c0-.32.14-.89,1.27-2.69,1.65-2.63,2.53-5.62,2.53-8.65v-6.64c0-1.63-1.33-2.96-2.96-2.96h-1.28c-.29,0-.52-.23-.52-.52s.23-.52.52-.52h1.28c2.21,0,4.01,1.8,4.01,4.01v6.64c0,3.22-.93,6.4-2.69,9.2-1.05,1.68-1.11,2.08-1.11,2.12l.05,1.94c0,.14-.05.28-.15.38-.1.1-.23.16-.37.16Z"/>
      <path class="cls-2" d="m26.36,13.84c-.07,0-.14-.01-.2-.04-.27-.11-.39-.42-.28-.69.24-.56.36-1.16.36-1.78,0-2.52-2.05-4.57-4.57-4.57s-4.57,2.05-4.57,4.57c0,.54.09,1.07.28,1.58.1.27-.04.57-.31.67-.28.1-.57-.04-.67-.31-.23-.62-.35-1.27-.35-1.94,0-3.1,2.52-5.61,5.61-5.61s5.61,2.52,5.61,5.61c0,.76-.15,1.49-.44,2.18-.09.2-.28.32-.48.32Z"/>
      <path class="cls-2" d="m26.76,18.44c-.16,0-.31-.07-.41-.2-.18-.23-.14-.56.09-.73,1.92-1.49,3.02-3.74,3.02-6.16,0-4.3-3.5-7.8-7.79-7.8s-7.79,3.5-7.79,7.8c0,2.43,1.1,4.67,3.02,6.16.23.18.27.5.09.73-.18.23-.51.27-.73.09-2.18-1.69-3.42-4.24-3.42-6.99,0-4.87,3.97-8.84,8.84-8.84s8.84,3.97,8.84,8.84c0,2.75-1.25,5.3-3.43,6.99-.1.07-.21.11-.32.11Z"/>
    </g>
  </g>
  <g id="guias">
    <rect class="cls-1" x="47.5" y="47.5" width="2.5" height="2.5"/>
    <rect class="cls-1" x="47.5" width="2.5" height="2.5"/>
    <rect class="cls-1" y="47.5" width="2.5" height="2.5"/>
    <rect class="cls-1" width="2.5" height="2.5"/>
  </g>
</svg>