<?xml version="1.0" encoding="UTF-8"?>
<svg xmlns="http://www.w3.org/2000/svg" viewBox="0 0 50 50">
  <defs>
    <style>
      .cls-1 {
        fill: none;
        stroke: #000;
        stroke-miterlimit: 10;
        stroke-width: .21px;
      }

      .cls-2 {
        fill: #1e1f22;
        stroke-width: 0px;
      }
    </style>
  </defs>
  <g id="iconos">
    <g id="next-day-icono">
      <path class="cls-2" d="m29.83,32.12c-3.93,0-7.12-3.2-7.12-7.12s3.2-7.12,7.12-7.12,7.12,3.19,7.12,7.12-3.19,7.12-7.12,7.12Zm0-13.2c-3.35,0-6.08,2.72-6.08,6.08s2.73,6.08,6.08,6.08,6.08-2.73,6.08-6.08-2.72-6.08-6.08-6.08Z"/>
      <path class="cls-2" d="m41.5,27.29c-1,0-1.81-.81-1.81-1.8s.81-1.81,1.81-1.81,1.8.81,1.8,1.81-.81,1.8-1.8,1.8Zm0-2.57c-.42,0-.76.34-.76.76s.34.76.76.76.76-.34.76-.76-.34-.76-.76-.76Z"/>
      <path class="cls-2" d="m17.87,27.29c-.99,0-1.8-.81-1.8-1.8s.81-1.81,1.8-1.81,1.81.81,1.81,1.81-.81,1.8-1.81,1.8Zm0-2.57c-.42,0-.76.34-.76.76s.34.76.76.76.76-.34.76-.76-.34-.76-.76-.76Z"/>
      <path class="cls-2" d="m12.54,19.91h-5.92c-.29,0-.52-.23-.52-.52s.23-.52.52-.52h5.92c.29,0,.52.23.52.52s-.23.52-.52.52Z"/>
      <path class="cls-2" d="m9.91,23.48H3.99c-.29,0-.52-.23-.52-.52s.23-.52.52-.52h5.92c.29,0,.52.23.52.52s-.23.52-.52.52Z"/>
      <path class="cls-2" d="m12.87,30.47h-5.92c-.29,0-.52-.23-.52-.52s.23-.52.52-.52h5.92c.29,0,.52.23.52.52s-.23.52-.52.52Z"/>
      <path class="cls-2" d="m4.95,19.91h-1.93c-.29,0-.52-.23-.52-.52s.23-.52.52-.52h1.93c.29,0,.52.23.52.52s-.23.52-.52.52Z"/>
      <g>
        <path class="cls-2" d="m29.83,28.65c-1.32,0-2.1-.97-2.13-1.01-.18-.23-.14-.56.09-.73.22-.18.56-.14.73.09.02.02.51.62,1.31.62.33,0,.59-.1.78-.3.2-.21.31-.5.3-.82-.01-.41-.16-.94-1.19-1.39-.1-.04-.22-.09-.33-.13-.67-.25-1.8-.67-1.8-2.16,0-1.28.93-2.21,2.21-2.21,1.19,0,2.07.73,2.11.77.22.19.25.52.06.74s-.51.25-.73.06h0s-.64-.52-1.44-.52c-.69,0-1.16.47-1.16,1.17,0,.73.4.91,1.12,1.18.14.05.27.1.39.15,1.18.51,1.79,1.29,1.82,2.32.01.6-.2,1.17-.6,1.58-.39.4-.92.61-1.53.61Z"/>
        <path class="cls-2" d="m29.84,21.64h0c-.29,0-.52-.23-.52-.52v-1.23c0-.29.24-.52.52-.52h0c.29,0,.52.23.52.52v1.23c0,.29-.24.52-.52.52Z"/>
        <path class="cls-2" d="m29.83,29.79h0c-.29,0-.52-.23-.52-.52v-1.14c0-.29.24-.52.52-.52h0c.29,0,.52.23.52.52v1.14c0,.29-.24.52-.52.52Z"/>
      </g>
      <path class="cls-2" d="m46.98,35.34H12.69c-.29,0-.52-.23-.52-.52v-3.36c0-.29.23-.52.52-.52s.52.23.52.52v2.84h33.24V15.7H13.21v12.56c0,.29-.23.52-.52.52s-.52-.23-.52-.52v-13.08c0-.29.23-.52.52-.52h34.29c.29,0,.52.23.52.52v19.64c0,.29-.23.52-.52.52Z"/>
    </g>
  </g>
  <g id="guias">
    <g>
      <rect class="cls-1" x="47.5" y="47.5" width="2.5" height="2.5"/>
      <rect class="cls-1" x="47.5" width="2.5" height="2.5"/>
      <rect class="cls-1" y="47.5" width="2.5" height="2.5"/>
      <rect class="cls-1" width="2.5" height="2.5"/>
    </g>
  </g>
</svg>