<?xml version="1.0" encoding="UTF-8"?>
<svg id="iconos" xmlns="http://www.w3.org/2000/svg" viewBox="0 0 50 50">
  <defs>
    <style>
      .cls-1 {
        fill: #1e1f22;
        stroke-width: 0px;
      }
    </style>
  </defs>
  <path class="cls-1" d="m12.25,41.19c-2.45,0-4.44-1.99-4.44-4.44s1.99-4.44,4.44-4.44,4.44,1.99,4.44,4.44-1.99,4.44-4.44,4.44Zm0-7.83c-1.87,0-3.39,1.52-3.39,3.39s1.52,3.39,3.39,3.39,3.39-1.52,3.39-3.39-1.52-3.39-3.39-3.39Z"/>
  <path class="cls-1" d="m39.32,41.19c-2.45,0-4.44-1.99-4.44-4.44s1.99-4.44,4.44-4.44,4.44,1.99,4.44,4.44-1.99,4.44-4.44,4.44Zm0-7.83c-1.87,0-3.39,1.52-3.39,3.39s1.52,3.39,3.39,3.39,3.39-1.52,3.39-3.39-1.52-3.39-3.39-3.39Z"/>
  <path class="cls-1" d="m8.34,37.27h-1.18c-1.38,0-2.5-1.12-2.5-2.5v-5.65c0-.29.23-.52.52-.52s.52.23.52.52v5.65c0,.8.65,1.46,1.46,1.46h1.18c.29,0,.52.23.52.52s-.23.52-.52.52Z"/>
  <path class="cls-1" d="m31.5,37.27h-15.34c-.29,0-.52-.23-.52-.52s.23-.52.52-.52h15.34c.8,0,1.46-.85,1.46-1.89V11.75c0-1.04-.65-1.89-1.46-1.89H7.16c-.8,0-1.46.85-1.46,1.89v6.7c0,.29-.23.52-.52.52s-.52-.23-.52-.52v-6.7c0-1.62,1.12-2.94,2.5-2.94h24.35c1.38,0,2.5,1.32,2.5,2.94v22.59c0,1.62-1.12,2.93-2.5,2.93Z"/>
  <path class="cls-1" d="m45,37.27h-1.76c-.29,0-.52-.23-.52-.52s.23-.52.52-.52h1.76c.8,0,1.46-.65,1.46-1.44v-9.86c0-1.04-.33-2.04-.93-2.82l-4.4-5.72c-.72-.94-1.78-1.48-2.89-1.48h-2.77c-.8,0-1.46.65-1.46,1.45v18.43c0,.8.65,1.44,1.46,1.44.29,0,.52.23.52.52s-.23.52-.52.52c-1.38,0-2.5-1.12-2.5-2.49v-18.43c0-1.37,1.12-2.49,2.5-2.49h2.77c1.44,0,2.79.69,3.72,1.89l4.4,5.72c.74.96,1.15,2.19,1.15,3.45v9.86c0,1.37-1.12,2.49-2.5,2.49Z"/>
  <path class="cls-1" d="m44.14,23.91h-5.51c-.29,0-.52-.23-.52-.52v-5.77c0-.29.23-.52.52-.52s.52.23.52.52v5.25h4.99c.29,0,.52.23.52.52s-.23.52-.52.52Z"/>
  <g>
    <path class="cls-1" d="m19.33,27.68c-1.49,0-2.37-1.09-2.41-1.14-.18-.23-.14-.56.08-.73.23-.18.56-.14.73.09,0,0,.62.74,1.59.74.4,0,.72-.12.96-.37.25-.25.38-.62.37-1.01-.02-.74-.46-1.26-1.43-1.68-.12-.05-.25-.1-.38-.15-.81-.3-2.04-.75-2.04-2.43,0-1.43,1.04-2.48,2.47-2.48,1.35,0,2.35.83,2.39.87.22.19.25.51.06.73-.19.22-.51.25-.73.07,0,0-.76-.62-1.72-.62-.85,0-1.42.58-1.42,1.44,0,.9.51,1.14,1.35,1.45.15.06.3.11.44.17,1.34.58,2.03,1.46,2.06,2.61.02.67-.22,1.31-.67,1.76-.43.45-1.03.69-1.71.69Z"/>
    <path class="cls-1" d="m19.33,19.56c-.29,0-.52-.23-.52-.52v-1.42c0-.29.23-.52.52-.52s.52.23.52.52v1.42c0,.29-.23.52-.52.52Z"/>
    <path class="cls-1" d="m19.33,28.99c-.29,0-.52-.23-.52-.52v-1.32c0-.29.23-.52.52-.52s.52.23.52.52v1.32c0,.29-.23.52-.52.52Z"/>
  </g>
  <path class="cls-1" d="m12.28,21.6H3.02c-.29,0-.52-.23-.52-.52s.23-.52.52-.52h9.26c.29,0,.52.23.52.52s-.23.52-.52.52Z"/>
  <path class="cls-1" d="m9.35,26.36H3.09c-.29,0-.52-.23-.52-.52s.23-.52.52-.52h6.26c.29,0,.52.23.52.52s-.23.52-.52.52Z"/>
</svg>