<?xml version="1.0" encoding="UTF-8"?>
<svg xmlns="http://www.w3.org/2000/svg" viewBox="0 0 50 50">
  <defs>
    <style>
      .cls-1 {
        fill: none;
        stroke: #000;
        stroke-miterlimit: 10;
        stroke-width: .21px;
      }

      .cls-2 {
        fill: #1e1f22;
        stroke-width: 0px;
      }
    </style>
  </defs>
  <g id="iconos">
    <g>
      <path class="cls-2" d="m33.77,45.49c-3.21,0-6.29-1.16-8.67-3.26-.22-.19-.23-.52-.04-.74.19-.21.52-.23.74-.04,2.18,1.93,5.01,3,7.97,3,6.52,0,11.83-5.15,11.83-11.48s-5.31-11.48-11.83-11.48c-2.18,0-4.43.65-6.34,1.82-.81.5-1.58,1.12-2.32,1.72-1.14.92-2.31,1.87-3.74,2.48-1.6.68-3.38,1.04-5.15,1.04-7.1,0-12.87-5.62-12.87-12.52S9.13,3.5,16.23,3.5c3.56,0,6.88,1.39,9.33,3.9.2.21.2.54,0,.74-.21.2-.54.2-.74,0-2.26-2.31-5.31-3.58-8.59-3.58-6.52,0-11.83,5.15-11.83,11.48s5.31,11.48,11.83,11.48c1.63,0,3.27-.33,4.74-.96,1.29-.55,2.36-1.41,3.49-2.32.77-.62,1.56-1.26,2.43-1.8,2.1-1.29,4.48-1.97,6.88-1.97,7.1,0,12.87,5.62,12.87,12.52s-5.78,12.52-12.87,12.52Z"/>
      <path class="cls-2" d="m26.17,9.31s-.02,0-.03,0l-5.92-.39c-.29-.02-.51-.27-.49-.56.02-.28.25-.49.52-.49.01,0,.02,0,.03,0l5.34.35-.18-5.19c-.01-.29.22-.53.5-.54.28.06.53.22.54.5l.2,5.77c0,.15-.05.29-.16.39-.1.09-.23.15-.36.15Z"/>
      <path class="cls-2" d="m27.03,47.5c-.19,0-.38-.1-.47-.29l-2.61-5.18c-.07-.13-.07-.29-.02-.43s.17-.25.31-.3l5.57-2c.27-.1.57.04.67.32.1.27-.04.57-.32.67l-5.01,1.8,2.35,4.65c.13.26.03.57-.23.7-.08.04-.16.06-.23.06Z"/>
      <g>
        <path class="cls-2" d="m34.77,39.09c-2.02,0-3.2-1.44-3.25-1.5-.18-.22-.15-.55.08-.73.23-.18.55-.15.74.07.01.01.94,1.11,2.44,1.12.63,0,1.17-.2,1.55-.59.38-.39.59-.94.58-1.52-.03-1.1-.72-1.89-2.17-2.5-.18-.08-.37-.14-.56-.21-1.1-.39-2.76-.99-2.76-3.17,0-.89.33-1.71.92-2.31.6-.6,1.44-.93,2.37-.93h.01c1.84,0,3.2,1.1,3.25,1.15.22.18.25.51.07.73-.18.22-.51.25-.74.07-.01-.01-1.13-.91-2.59-.91h-.01c-.66,0-1.22.21-1.63.62-.39.39-.61.95-.61,1.56,0,1.35.78,1.73,2.07,2.19.22.08.42.15.62.23,1.85.78,2.77,1.91,2.81,3.44.02.86-.3,1.69-.87,2.28-.58.59-1.37.91-2.3.91Z"/>
        <path class="cls-2" d="m34.78,27.85c-.29,0-.52-.23-.52-.52v-1.97c0-.29.23-.52.52-.52s.52.23.52.52v1.97c0,.29-.23.52-.52.52Z"/>
        <path class="cls-2" d="m34.77,40.92h0c-.29,0-.52-.23-.52-.52v-1.83c0-.29.24-.52.53-.52h0c.29,0,.52.23.52.52v1.83c0,.29-.24.52-.53.52Z"/>
      </g>
      <g>
        <path class="cls-2" d="m15.16,21.83c-2.01,0-3.2-1.44-3.25-1.5-.18-.22-.15-.55.08-.73.22-.18.55-.15.74.07.01.01.94,1.11,2.44,1.12.63,0,1.17-.2,1.55-.59.38-.39.59-.94.58-1.52-.03-1.09-.72-1.89-2.17-2.51-.17-.07-.36-.14-.56-.21-1.1-.39-2.76-.99-2.76-3.17,0-.9.33-1.72.92-2.31.6-.6,1.44-.92,2.36-.92h.02c1.84,0,3.2,1.1,3.25,1.15.22.18.25.51.07.73-.18.23-.51.26-.74.07-.01-.01-1.13-.91-2.59-.91h-.01c-.66,0-1.22.21-1.63.62-.4.39-.61.95-.61,1.57,0,1.35.78,1.73,2.07,2.19.21.08.42.15.61.23,1.85.78,2.77,1.91,2.81,3.44.02.86-.3,1.69-.87,2.28-.58.59-1.37.91-2.3.91Z"/>
        <path class="cls-2" d="m15.17,10.59c-.29,0-.52-.23-.52-.52v-1.97c0-.29.23-.52.52-.52s.52.23.52.52v1.97c0,.29-.23.52-.52.52Z"/>
        <path class="cls-2" d="m15.16,23.66h0c-.29,0-.52-.23-.52-.53v-1.83c0-.29.24-.52.53-.52h0c.29,0,.52.23.52.53v1.83c0,.29-.24.52-.53.52Z"/>
      </g>
    </g>
  </g>
  <g id="guias">
    <rect class="cls-1" x="47.5" y="47.5" width="2.5" height="2.5"/>
    <rect class="cls-1" x="47.5" width="2.5" height="2.5"/>
    <rect class="cls-1" y="47.5" width="2.5" height="2.5"/>
    <rect class="cls-1" width="2.5" height="2.5"/>
  </g>
</svg>