<?xml version="1.0" encoding="UTF-8"?>
<svg xmlns="http://www.w3.org/2000/svg" viewBox="0 0 50 50">
  <defs>
    <style>
      .cls-1 {
        fill: none;
        stroke: #000;
        stroke-miterlimit: 10;
        stroke-width: .21px;
      }

      .cls-2 {
        fill: #1e1f22;
        stroke-width: 0px;
      }
    </style>
  </defs>
  <g id="iconos">
    <g>
      <path class="cls-2" d="m38.42,44.48c-.09,0-.18-.02-.26-.07-2.02-1.26-3.42-3.31-4.18-6.08-.07-.26.08-.53.34-.6.26-.07.53.08.6.34.69,2.53,1.95,4.38,3.75,5.51.23.14.3.45.15.67-.09.15-.25.23-.41.23Z"/>
      <g>
        <path class="cls-2" d="m17.58,47.5c-.24,0-.48-.09-.66-.26l-5.16-4.76-1.06.92c-.34.34-.93.35-1.32,0l-2.1-1.94c-.36-.33-.41-.88-.13-1.28l.85-1.16-5.16-4.77c-.39-.36-.42-.97-.06-1.37l1.25-1.34c.38-.42.84-.72,1.37-.91.51-.18,1.06-.23,1.63-.14l6.5,1,6.16-8.4L5.49,14.38s-.16-.11-.18-.14c-.18-.16-.29-.4-.3-.66-.01-.26.08-.51.26-.69l3.32-3.6c.44-.48,1-.82,1.62-.98.61-.16,1.26-.14,1.88.06l16.27,5.16,7.68-8.32c.14-.15.29-.28.45-.41.18-.13.35-.24.54-.33l3.22-1.59c.66-.32,1.34-.44,2.01-.34.02,0,.04,0,.06.01.65.11,1.25.4,1.75.86l.32.29c.5.46.85,1.05,1,1.69.16.71.1,1.4-.15,2.04,0,.02-.01.03-.02.04l-1.32,3.33c-.08.2-.17.38-.28.55-.12.18-.24.34-.38.49l-7.68,8.32,3.98,9.77c.1.25-.02.54-.27.64-.26.1-.54-.02-.64-.27l-4.1-10.06c-.07-.18-.03-.38.09-.52l7.89-8.55c.1-.11.19-.22.27-.35.07-.11.14-.24.19-.39l1.34-3.37s.01-.03.02-.04c.17-.45.2-.92.1-1.38-.12-.48-.36-.9-.72-1.23l-.32-.29c-.36-.34-.81-.55-1.28-.62-.02,0-.03,0-.05,0-.46-.06-.93.03-1.36.24l-3.26,1.61c-.13.06-.26.14-.38.23-.11.09-.22.18-.32.29l-7.89,8.55c-.13.14-.33.19-.51.13l-16.56-5.26c-.45-.14-.91-.16-1.34-.04-.43.11-.83.35-1.14.7l-3.33,3.6,14.67,8.99c.12.07.2.19.22.32.03.13,0,.27-.09.38l-6.65,9.07c-.11.15-.29.23-.47.19l-6.79-1.05c-.4-.06-.79-.03-1.16.1-.37.13-.7.35-.97.65l-1.24,1.34,5.49,5.05c.18.17.21.45.06.65l-1.11,1.51,2.1,1.93,1.4-1.22c.19-.16.47-.16.65.01l5.48,5.06,1.23-1.34c.28-.3.47-.64.57-1.02.1-.37.1-.77,0-1.16l-1.59-6.69c-.04-.18.02-.36.16-.48l8.51-7.36c.1-.09.24-.13.37-.11.14.02.26.09.34.2l5.36,7.34c.16.22.11.52-.11.68-.22.15-.53.11-.68-.11l-5.04-6.91-7.88,6.81,1.52,6.4c.13.55.13,1.11,0,1.63-.14.53-.4,1.01-.79,1.43l-1.24,1.34c-.18.19-.42.3-.68.31h-.04Z"/>
        <path class="cls-2" d="m26.83,29.38c-.12,0-.24-.04-.33-.13-.2-.18-.21-.49-.03-.69l8.29-8.99c.18-.19.49-.21.69-.03.2.18.21.49.03.69l-8.29,8.99c-.1.1-.23.16-.36.16Z"/>
        <path class="cls-2" d="m20.33,23.39c-.12,0-.24-.04-.33-.13-.2-.18-.21-.49-.03-.69l8.29-8.99c.18-.19.49-.21.69-.03.2.18.21.49.03.69l-8.29,8.99c-.1.1-.23.16-.36.16Z"/>
        <path class="cls-2" d="m8.34,39.87c-.1,0-.2-.03-.29-.09-.22-.16-.27-.47-.11-.68l5.65-7.71c.16-.22.47-.27.68-.11.22.16.27.46.11.68l-5.65,7.71c-.1.13-.24.2-.4.2Z"/>
        <path class="cls-2" d="m11.36,42.67c-.14,0-.27-.06-.37-.17-.18-.2-.15-.51.05-.69l7.23-6.25c.21-.17.51-.15.69.05s.15.51-.05.69l-7.23,6.25c-.09.08-.21.12-.32.12Z"/>
      </g>
      <path class="cls-2" d="m39.49,47.09s-.09,0-.14-.02c-9.12-2.7-7.77-15.12-7.75-15.24.03-.27.27-.47.54-.43,4.28.5,6.99-1.94,7.02-1.96.19-.17.48-.17.66,0,.02.02,2.73,2.45,7.02,1.96.26-.04.51.16.54.43.02.13,1.37,12.55-7.75,15.24-.05.01-.09.02-.14.02Zm-6.96-14.67c-.14,2.21-.26,11.42,6.96,13.67,7.22-2.25,7.1-11.46,6.96-13.67-3.63.25-6.1-1.33-6.96-1.99-.86.66-3.32,2.27-6.96,1.99Z"/>
    </g>
  </g>
  <g id="guias">
    <rect class="cls-1" x="47.5" y="47.5" width="2.5" height="2.5"/>
    <rect class="cls-1" x="47.5" width="2.5" height="2.5"/>
    <rect class="cls-1" y="47.5" width="2.5" height="2.5"/>
    <rect class="cls-1" width="2.5" height="2.5"/>
  </g>
</svg>