<?xml version="1.0" encoding="UTF-8"?>
<svg xmlns="http://www.w3.org/2000/svg" viewBox="0 0 50 50">
  <defs>
    <style>
      .cls-1 {
        fill: none;
        stroke: #000;
        stroke-miterlimit: 10;
        stroke-width: .21px;
      }

      .cls-2 {
        fill: #1e1f22;
        stroke-width: 0px;
      }
    </style>
  </defs>
  <g id="iconos">
    <g>
      <g>
        <path class="cls-2" d="m21.57,36.08c-.17,0-.34-.06-.47-.18l-2.13-1.97-.29.25c-.24.24-.67.25-.94,0l-.94-.87c-.26-.24-.3-.63-.09-.92l.24-.33-2.13-1.97c-.28-.26-.3-.7-.04-.99l.56-.6c.2-.22.44-.38.72-.48.27-.1.56-.12.86-.07l2.74.42,2.48-3.39-6.1-3.74s-.08-.06-.1-.08c-.29-.27-.31-.72-.05-1l1.49-1.61c.23-.25.53-.43.85-.52.32-.09.66-.08.99.03l7.11,2.26,3.32-3.59c.08-.08.16-.15.24-.22.09-.07.18-.13.28-.17l1.43-.71c.34-.17.69-.22,1.05-.18.36.05.69.21.95.46l.14.13c.26.24.44.55.52.89.09.37.05.73-.08,1.07l-.6,1.51c-.04.11-.09.2-.15.29-.05.08-.12.17-.19.25l-3.32,3.59,2.81,6.9h0c.13.32.17.66.11.99-.06.32-.21.63-.45.88l-1.49,1.61c-.13.14-.3.22-.49.22-.13,0-.36-.06-.5-.19-.03-.03-.09-.1-.11-.13l-4.2-5.75-3.18,2.75.64,2.7c.07.29.06.58,0,.86-.07.28-.21.53-.42.76l-.56.6c-.14.15-.33.22-.52.22Zm-2.59-3.29c.12,0,.24.04.33.13l2.25,2.08.37-.4c.09-.1.16-.22.19-.34.03-.13.03-.26,0-.39l-.71-2.99c-.04-.18.02-.36.16-.48l3.8-3.29c.1-.09.24-.13.37-.11.13.02.26.09.34.2l4.34,5.95,1.26-1.37c.11-.12.18-.25.2-.4.03-.15,0-.3-.05-.45l-2.93-7.19c-.07-.17-.03-.38.09-.51l3.52-3.82s.06-.07.09-.11c.03-.05.05-.09.07-.14l.6-1.51c.06-.15.08-.32.04-.47-.04-.16-.12-.3-.24-.41l-.14-.13c-.12-.11-.27-.18-.43-.2-.17-.02-.33,0-.47.08l-1.46.72s-.08.04-.12.07c-.05.03-.08.07-.12.1l-3.52,3.82c-.13.14-.33.19-.5.13l-7.4-2.35c-.15-.05-.31-.05-.45-.01-.14.04-.27.12-.38.23l-1.27,1.37,6.28,3.85c.12.07.2.19.22.32.03.13,0,.27-.09.38l-2.97,4.05c-.11.15-.29.22-.46.19l-3.03-.47c-.13-.02-.27-.01-.39.03-.12.04-.23.12-.32.21l-.38.4,2.25,2.08c.18.17.21.44.06.64l-.35.48.58.54.45-.39c.09-.08.2-.12.32-.12Zm-.94.65s-.02.01-.02.02l.02-.02Zm-2.58-4.07h0s0,0,0,0Z"/>
        <path class="cls-2" d="m25.7,27.98c-.12,0-.24-.04-.33-.13-.2-.18-.21-.49-.03-.69l3.7-4.01c.18-.19.49-.21.69-.03.2.18.21.49.03.69l-3.7,4.01c-.09.1-.23.16-.36.16Z"/>
        <path class="cls-2" d="m22.8,25.3c-.12,0-.24-.04-.33-.13-.2-.18-.21-.49-.03-.69l3.71-4.01c.18-.19.49-.21.69-.03.2.18.21.49.03.69l-3.71,4.01c-.09.1-.23.16-.36.16Z"/>
        <path class="cls-2" d="m17.44,32.67c-.1,0-.2-.03-.29-.09-.22-.16-.26-.46-.1-.68l2.53-3.44c.16-.22.47-.26.68-.1.22.16.26.46.1.68l-2.53,3.44c-.09.13-.24.2-.39.2Z"/>
        <path class="cls-2" d="m18.79,33.92c-.14,0-.27-.06-.37-.17-.17-.2-.15-.51.05-.68l3.23-2.79c.21-.17.51-.15.69.05.17.2.15.51-.05.69l-3.23,2.79c-.09.08-.2.12-.32.12Z"/>
      </g>
      <g id="seguros-personas-icono-cross-selling">
        <path class="cls-2" d="m25,47.42s-.09,0-.14-.02C1.68,40.55,5.14,8.78,5.18,8.46c.03-.27.28-.46.54-.42,11.55,1.36,18.88-5.26,18.95-5.33.19-.17.47-.17.66,0,.07.07,7.38,6.68,18.95,5.33.26-.04.51.16.54.42.04.32,3.5,32.09-19.68,38.94-.05.01-.09.02-.14.02ZM6.1,9.05c-.33,3.96-1.81,31.13,18.9,37.38,20.72-6.25,19.23-33.42,18.9-37.38-10.35,1.02-17.34-4.08-18.9-5.35-1.56,1.27-8.56,6.38-18.9,5.35Z"/>
      </g>
    </g>
  </g>
  <g id="guias">
    <rect class="cls-1" x="47.5" y="47.5" width="2.5" height="2.5"/>
    <rect class="cls-1" x="47.5" width="2.5" height="2.5"/>
    <rect class="cls-1" y="47.5" width="2.5" height="2.5"/>
    <rect class="cls-1" width="2.5" height="2.5"/>
  </g>
</svg>