<?xml version="1.0" encoding="UTF-8"?>
<svg xmlns="http://www.w3.org/2000/svg" viewBox="0 0 50 50">
  <defs>
    <style>
      .cls-1 {
        fill: none;
        stroke: #000;
        stroke-miterlimit: 10;
        stroke-width: .21px;
      }

      .cls-2 {
        fill: #1e1f22;
        stroke-width: 0px;
      }
    </style>
  </defs>
  <g id="iconos">
    <g>
      <g>
        <path class="cls-2" d="m13.09,47.5h-3.13c-1.16,0-2.1-.94-2.1-2.1v-6.74c0-.29.23-.52.52-.52s.52.23.52.52v6.74c0,.58.47,1.06,1.05,1.06h3.13c.58,0,1.05-.47,1.05-1.06v-3.77c0-.29.23-.52.52-.52s.52.23.52.52v3.77c0,1.16-.94,2.1-2.1,2.1Z"/>
        <path class="cls-2" d="m37.88,42.15H12.12c-.29,0-.52-.23-.52-.52s.23-.52.52-.52h25.75c.29,0,.52.23.52.52s-.23.52-.52.52Z"/>
        <path class="cls-2" d="m41.62,39.18c-.12,0-.24-.04-.34-.12-.22-.19-.25-.52-.06-.74.49-.57.76-1.3.76-2.04v-4.41c0-.77-.28-1.51-.79-2.09l-2.27-2.21c-.07-.07-.12-.15-.14-.24l-2.73-10.6c-.38-.7-1.1-1.2-2.24-1.45-1.96-.44-5.39-.5-8.8-.5s-6.84.06-8.8.5c-1.14.26-1.86.75-2.28,1.56l-2.68,10.49c-.02.09-.07.18-.14.24l-2.3,2.24c-.48.55-.77,1.29-.77,2.06v4.41c0,.75.27,1.48.76,2.04.19.22.16.55-.06.74-.22.19-.55.17-.74-.06-.65-.76-1.01-1.72-1.01-2.72v-4.41c0-1.03.37-2.01,1.05-2.78l2.22-2.17,2.69-10.46c.61-1.2,1.58-1.89,3.02-2.21,2.16-.48,5.8-.53,9.03-.53s6.87.04,9.03.53c1.44.32,2.42,1.01,2.98,2.1l2.74,10.57,2.19,2.14c.71.79,1.08,1.78,1.08,2.81v4.41c0,1-.36,1.97-1.01,2.72-.1.12-.25.18-.4.18Z"/>
        <path class="cls-2" d="m28.45,37.58h-6.9c-.29,0-.52-.23-.52-.52s.23-.52.52-.52h6.9c.29,0,.52.23.52.52s-.23.52-.52.52Z"/>
        <path class="cls-2" d="m28.45,7.62h-6.9c-.29,0-.52-.23-.52-.52s.23-.52.52-.52h6.9c.29,0,.52.23.52.52s-.23.52-.52.52Z"/>
        <path class="cls-2" d="m40.04,47.5h-3.13c-1.16,0-2.1-.94-2.1-2.1v-3.77c0-.29.23-.52.52-.52s.52.23.52.52v3.77c0,.58.47,1.06,1.06,1.06h3.13c.58,0,1.05-.47,1.05-1.06v-6.74c0-.29.23-.52.52-.52s.52.23.52.52v6.74c0,1.16-.94,2.1-2.1,2.1Z"/>
        <path class="cls-2" d="m33.66,34.48c-.29,0-.52-.23-.52-.52,0-1.45,1.18-2.63,2.63-2.63h3.21c.29,0,.52.23.52.52s-.23.52-.52.52h-3.21c-.87,0-1.58.71-1.58,1.58,0,.29-.23.52-.52.52Z"/>
        <path class="cls-2" d="m25,27.42c-11.02,0-11.02-.55-11.02-.92.05-.36,1.12-6.9,1.64-9.06.06-.23.27-.4.51-.4h17.74c.24,0,.45.17.51.4.52,2.16,1.59,8.7,1.63,8.97,0,.45,0,1.01-11.01,1.01Zm-9.89-1.37c1.26.11,4.78.33,9.89.33s8.64-.22,9.89-.33c-.24-1.44-.99-5.91-1.44-7.96h-16.91c-.44,2.02-1.18,6.43-1.44,7.96Z"/>
        <path class="cls-2" d="m16.34,34.48c-.29,0-.52-.23-.52-.52,0-.87-.71-1.58-1.58-1.58h-3.21c-.29,0-.52-.23-.52-.52s.23-.52.52-.52h3.21c1.45,0,2.63,1.18,2.63,2.63,0,.29-.23.52-.52.52Z"/>
      </g>
      <path class="cls-2" d="m10.12,26.03h-1.55c-.88,0-1.59-.71-1.59-1.59v-3.29c0-.88.71-1.59,1.59-1.59h1.55c.88,0,1.59.71,1.59,1.59v3.29c0,.88-.71,1.59-1.59,1.59Zm-1.55-5.42c-.3,0-.54.24-.54.54v3.29c0,.3.24.54.54.54h1.55c.3,0,.54-.24.54-.54v-3.29c0-.3-.24-.54-.54-.54h-1.55Z"/>
      <path class="cls-2" d="m41.2,26.03h-1.55c-.88,0-1.59-.71-1.59-1.59v-3.29c0-.88.71-1.59,1.59-1.59h1.55c.88,0,1.59.71,1.59,1.59v3.29c0,.88-.71,1.59-1.59,1.59Zm-1.55-5.42c-.3,0-.54.24-.54.54v3.29c0,.3.24.54.54.54h1.55c.3,0,.55-.24.55-.54v-3.29c0-.3-.25-.54-.55-.54h-1.55Z"/>
      <path class="cls-2" d="m9.06,29.34c-.29,0-.52-.23-.52-.52v-3.31c0-.29.23-.52.52-.52s.52.23.52.52v3.31c0,.29-.23.52-.52.52Z"/>
      <path class="cls-2" d="m40.94,20.61c-.29,0-.52-.23-.52-.52V3.55H9.58v16.54c0,.29-.23.52-.52.52s-.52-.23-.52-.52V3.02c0-.29.23-.52.52-.52h31.89c.29,0,.52.23.52.52v17.06c0,.29-.23.52-.52.52Z"/>
      <path class="cls-2" d="m40.94,29.34c-.29,0-.52-.23-.52-.52v-3.31c0-.29.23-.52.52-.52s.52.23.52.52v3.31c0,.29-.23.52-.52.52Z"/>
    </g>
  </g>
  <g id="guias">
    <rect class="cls-1" x="47.5" y="47.5" width="2.5" height="2.5"/>
    <rect class="cls-1" x="47.5" width="2.5" height="2.5"/>
    <rect class="cls-1" y="47.5" width="2.5" height="2.5"/>
    <rect class="cls-1" width="2.5" height="2.5"/>
  </g>
</svg>