<?xml version="1.0" encoding="UTF-8"?>
<svg xmlns="http://www.w3.org/2000/svg" viewBox="0 0 50 50">
  <defs>
    <style>
      .cls-1 {
        fill: none;
        stroke: #000;
        stroke-miterlimit: 10;
        stroke-width: .21px;
      }

      .cls-2 {
        fill: #1e1f22;
        stroke-width: 0px;
      }
    </style>
  </defs>
  <g id="iconos">
    <g>
      <path class="cls-2" d="m37.61,22.61c2.21,0,4-1.79,4-4s-1.79-4-4-4h-8.61v4c0,2.21-1.79,4-4,4h-4v11.44c0,7.42,6.03,13.45,13.45,13.45,2.21,0,4-1.79,4-4s-1.79-4-4-4c-3.01,0-5.46-2.45-5.46-5.46v-11.44h8.61Z"/>
      <path class="cls-2" d="m25,14.61h4V6.5c0-2.21-1.79-4-4-4s-4,1.79-4,4v8.11h-8.61c-2.21,0-4,1.79-4,4s1.79,4,4,4h8.61v-4c0-2.21,1.79-4,4-4Z"/>
    </g>
  </g>
  <g id="guias">
    <rect class="cls-1" x="47.5" y="47.5" width="2.5" height="2.5"/>
    <rect class="cls-1" x="47.5" width="2.5" height="2.5"/>
    <rect class="cls-1" y="47.5" width="2.5" height="2.5"/>
    <rect class="cls-1" width="2.5" height="2.5"/>
  </g>
</svg>