<?xml version="1.0" encoding="UTF-8"?>
<svg xmlns="http://www.w3.org/2000/svg" viewBox="0 0 50 50">
  <defs>
    <style>
      .cls-1 {
        fill: none;
        stroke: #000;
        stroke-miterlimit: 10;
        stroke-width: .21px;
      }

      .cls-2 {
        stroke-width: 0px;
      }
    </style>
  </defs>
  <g id="iconos">
    <path class="cls-2" d="m42.87,15.92v1.19c.02,3.45-.64,6.87-1.95,10.06-1.31,3.19-3.24,6.09-5.68,8.53-2.44,2.44-5.34,4.37-8.53,5.68-3.19,1.31-6.61,1.97-10.06,1.95-5.02.01-9.93-1.42-14.16-4.13h2.28c4.14,0,8.16-1.39,11.42-3.95-1.93-.02-3.8-.65-5.35-1.79-1.55-1.15-2.7-2.76-3.28-4.6.58.09,1.17.14,1.76.14.82,0,1.63-.11,2.42-.3-2.06-.42-3.92-1.54-5.25-3.17-1.33-1.63-2.06-3.67-2.06-5.78,1.28.7,2.7,1.1,4.16,1.16-1.29-.85-2.34-2.01-3.06-3.37-.73-1.36-1.1-2.88-1.09-4.42,0-1.6.43-3.18,1.23-4.57,2.31,2.85,5.19,5.18,8.46,6.84,3.27,1.66,6.85,2.62,10.51,2.81-.14-.69-.22-1.39-.23-2.1-.06-1.88.46-3.73,1.49-5.3,1.03-1.57,2.52-2.79,4.27-3.48,1.75-.69,3.67-.83,5.5-.39,1.83.44,3.48,1.43,4.72,2.84,2.07-.42,4.04-1.19,5.84-2.28-.69,2.13-2.13,3.93-4.06,5.07,1.83-.2,3.63-.68,5.32-1.42-1.25,1.83-2.79,3.44-4.57,4.77h-.07Z"/>
  </g>
  <g id="guias">
    <rect class="cls-1" x="47.5" y="12.5" width="2.5" height="2.5"/>
    <rect class="cls-1" y="12.5" width="2.5" height="2.5"/>
    <rect class="cls-1" x="47.5" y="47.5" width="2.5" height="2.5"/>
    <rect class="cls-1" x="47.5" width="2.5" height="2.5"/>
    <rect class="cls-1" y="47.5" width="2.5" height="2.5"/>
    <rect class="cls-1" width="2.5" height="2.5"/>
  </g>
</svg>