<?xml version="1.0" encoding="UTF-8"?>
<svg xmlns="http://www.w3.org/2000/svg" viewBox="0 0 50 50">
  <defs>
    <style>
      .cls-1 {
        fill: none;
        stroke: #000;
        stroke-miterlimit: 10;
        stroke-width: .21px;
      }

      .cls-2 {
        fill: #1e1f22;
        stroke-width: 0px;
      }
    </style>
  </defs>
  <g id="iconos">
    <g>
      <g>
        <rect class="cls-2" x="22.61" y="33.32" width="1.79" height="1.62"/>
        <rect class="cls-2" x="22.78" y="36.81" width="1.49" height="7.92"/>
        <path class="cls-2" d="m11.5,36.81h1.49v7.92h-1.45v-1.15h-.04c-.6.98-1.62,1.4-2.72,1.4-1.66,0-2.6-1.28-2.6-2.85v-5.32h1.49v4.68c0,1.36.3,2.38,1.75,2.38.6,0,1.45-.3,1.75-1.15.3-.72.3-1.66.3-1.87v-4.04h.04Z"/>
        <path class="cls-2" d="m15.97,37.96c.55-.98,1.62-1.4,2.43-1.4.55,0,2.98.13,2.98,2.68v5.45h-1.49v-4.98c0-1.32-.55-2-1.83-2,0,0-.81-.04-1.45.6-.21.21-.64.55-.64,2.13v4.3h-1.49v-7.92h1.49v1.15Z"/>
        <path class="cls-2" d="m30.53,39.32c-.09-.98-.55-1.66-1.62-1.66-1.4,0-1.96,1.23-1.96,3.06s.55,3.06,1.96,3.06c.98,0,1.57-.64,1.66-1.79h1.49c-.13,1.79-1.45,2.85-3.19,2.85-2.51,0-3.53-1.79-3.53-4.09s1.15-4.21,3.66-4.21c1.66,0,2.89,1.06,2.98,2.77h-1.45Z"/>
        <path class="cls-2" d="m39.8,41.03v-.72c0-2.17-1.11-3.66-3.45-3.7-2.51,0-3.66,1.92-3.66,4.21s1.02,4.09,3.53,4.09c1.87,0,3.23-.89,3.49-2.68h-1.57c-.17,1.15-.77,1.62-1.92,1.62-1.49,0-2.09-1.45-1.96-2.81h5.53Zm-3.53-3.36c1.45,0,2.04,1.02,2,2.34h-3.96c0-1.28.72-2.34,1.96-2.34Z"/>
        <path class="cls-2" d="m41.51,44.65v-6.81h-1.36v-1.02h1.36v-1.7c.04-1.7,1.36-2.17,2.47-2.17.34,0,.72.09,1.06.17v1.23c-.26,0-.51-.04-.77-.04-.85,0-1.32.21-1.28,1.06v1.45h1.83v1.02h-1.83v6.81h-1.49Z"/>
      </g>
      <g>
        <path class="cls-2" d="m25.6,2.5c-6.26,0-11.35,5.09-11.35,11.35s5.09,11.35,11.35,11.35,11.35-5.09,11.35-11.35S31.86,2.5,25.6,2.5m8.85,5.02c-.58.39-1.2.75-1.83,1.06-.37-.75-.83-1.46-1.35-2.12.47-.28.91-.6,1.32-.95.7.59,1.33,1.27,1.86,2.01m-4.78-3.77c.91.37,1.76.86,2.54,1.46-.39.32-.81.62-1.25.88-.56-.64-1.19-1.22-1.87-1.73.21-.19.4-.4.58-.62m.88,2.58c-.61.33-1.26.6-1.91.8-.28-.63-.6-1.25-.94-1.85.36-.16.71-.36,1.03-.6.66.48,1.28,1.04,1.83,1.66m-1.34-2.75c-.15.18-.32.36-.5.51-.6-.41-1.24-.76-1.91-1.06.83.09,1.63.27,2.4.54m-.88.81c-.28.19-.57.36-.87.49-.33-.52-.7-1.03-1.1-1.52.69.28,1.35.63,1.97,1.04m-2.5-.96c.42.51.81,1.04,1.18,1.61-.39.12-.78.19-1.18.2v-1.81Zm0,2.28c.49-.02.97-.11,1.43-.26.34.58.66,1.18.93,1.8-.77.2-1.56.31-2.36.33v-1.87Zm-.47-2.26v1.79c-.4-.02-.78-.09-1.16-.2.35-.55.74-1.08,1.16-1.59m-1.6,1.42c-.31-.13-.6-.29-.87-.49.61-.41,1.27-.75,1.96-1.03-.39.48-.76.99-1.09,1.52m.65-1.84c-.67.29-1.31.65-1.91,1.06-.18-.16-.35-.33-.5-.51.77-.27,1.59-.45,2.41-.54m7.78,19.49c-1.51-.83-1.54-1.98-1.46-2.4.08-.43.38-.24.56-.24.99,0,2.03-.3,3.32-1.61,1.45-1.48,1.91-4.77-.32-6.91-2.4-2.31-4.96-1.91-6.6.17-.34.42-1.16.74-1.88.71-1.05-.04-.39.79-.39.96s-.16.3-.25.27c-.36-.1-.22.43-.22.59s-.15.24-.22.24c-.45,0-.33.4-.31.51.01.11-.03.29-.17.38-.14.08-.31.43-.31.7,0,.48.44.82,1.18,1.37.74.55.83,1.07.84,1.45.02.37.05.98.22,1.38.2.48.17,1.37-.85,1.41-1.24.05-3.46,1.04-3.65,1.11-.7.25-1.62.34-2.35.16-.39-.27-.76-.58-1.12-.9-.14-.5.11-1.04.36-1.4.42.41,1.03.39,1.38.4.35.01,2.05-.26,2.29-.34.24-.08.35-.05.5,0,.65.24,1.54.31,1.9-.94.36-1.25-.5-.9-.6-.84-.11.05-.25.04-.2-.07.16-.32-.08-.28-.22-.29-.35-.03-.81.33-.95.47-.15.13-.3.12-.35.09-.46-.23-1.84.1-2.26-.64.04-.2-.35-3.23-.55-3.75-.04-.11-.09-.29.05-.5.35-.52,1.31.04,1.84.03.63-.02.73-.28.9-.49.17-.21.29-.09.38-.15.11-.07,0-.22.04-.3.04-.08.09-.04.19-.13.11-.1-.01-.3.04-.38.15-.23.57-.05.32-.66-.14-.33.06-.7.24-.94.3-.39,1.47-2.04-.59-3.75-1.97-1.64-3.97-1.5-5.25-.11-1.29,1.39-.64,3.43-.51,3.96.14.54-.25,1.02-.7,1.23-.35.17-1.15.7-1.76,1.23.1-4.37,2.75-8.22,6.82-9.86.17.22.37.42.58.61-.45.33-1.44,1.22-1.44,1.22,0,0,.13.02.26.05.09.02.27.08.27.08,0,0,.87-.74,1.28-1.04.32.24.66.44,1.03.61-.2.34-.7,1.27-.7,1.27,0,0,.12.07.22.14.1.07.17.13.17.13,0,0,.54-1.02.75-1.36.45.15.93.24,1.41.26v1.87c-.27,0-.95-.04-1.23-.07h-.17s.1.13.1.13c.08.11.13.21.18.31l.02.04h.05c.2.02.82.04,1.06.05v3.4h.47v-.78c.69-.03,1.27-.08,1.96-.14h.03s.61-.55.61-.55l-.33.03c-.74.1-1.38.14-1.97.17,0,0-.2.01-.3.02v-2.16c.85-.02,1.71-.14,2.55-.36.23.56.66,1.93.66,1.93l.44-.14s-.43-1.35-.65-1.92c.71-.22,1.39-.51,2.04-.87.52.64.97,1.34,1.34,2.09-.33.15-.95.37-.95.37.49.05.86.17.86.17,0,0,.17-.07.28-.12.04.1.13.3.13.3l.61.27-.07-.17s-.2-.48-.25-.6c.65-.32,1.28-.68,1.9-1.1,1.16,1.77,1.77,3.83,1.77,5.95,0,3.53-1.69,6.67-4.3,8.67"/>
        <path class="cls-2" d="m13.22,5.51l-.18.16c-.66.59-2.19,2.14-1.95,3.85,0,0,.02.12.02.12,0,0,.07.34.07.34l.21-.2c.93-.85,1.63-2.3,1.92-3.96l.08-.47-.18.16"/>
        <path class="cls-2" d="m10.13,8.46l-.07.21c-.1.29-.3.88-.4,1.68-.14,1.13-.11,2.72.87,3.91,0,0,.11.14.11.14l.11.14.14-.72c.16-1.28-.05-3.96-.52-5.16l-.16-.41-.08.21"/>
        <path class="cls-2" d="m9,13.07l-.02.21c-.08,1.15-.02,3.98,2.27,5.48l.27.18v-.32c-.05-1.07-1.3-4.28-2.24-5.43l-.27-.32v.21"/>
        <path class="cls-2" d="m9.4,18.14l.04.19c.33,1.63,1.88,4.26,4.26,5.03l.33.11-.12-.32c-.44-1.22-2.74-4.05-4.22-4.99l-.33-.21.04.19"/>
        <path class="cls-2" d="m14.18,7.97l-.19.11c-1.77,1.08-2.6,2.39-2.54,4.01,0,0,.02.37.02.37l.26-.22c.96-.79,2.16-2.82,2.51-3.98l.13-.42-.19.11"/>
        <path class="cls-2" d="m13.14,11.51l-.13.13c-.45.43-1.92,2-1.8,3.93.02.3.09.61.2.95l.1.31.19-.26c.7-.99,1.63-3.6,1.58-4.81v-.37s-.15.13-.15.13"/>
        <path class="cls-2" d="m13.21,14.87l-.09.15c-.74,1.1-1.12,2.23-1.1,3.27.02.77.27,1.51.73,2.19l.16.23.13-.24c.32-.6.58-2.55.54-4.1-.01-.54-.07-.99-.16-1.3l-.09-.34-.11.15"/>
        <path class="cls-2" d="m14.08,18.46l-.05.15c-.23.72-.33,1.41-.31,2.08.04,1.5.71,2.67,1.98,3.49l.21.14.05-.29s.01-.23.01-.23c-.03-1.22-.94-4.29-1.65-5.23l-.19-.26-.05.15"/>
        <path class="cls-2" d="m11.58,23.21l.09.15c.96,1.6,2.58,3.67,5.61,3.13l.26-.04-.14-.21c-.57-.84-4.25-2.92-5.55-3.13l-.35-.06.09.15"/>
        <path class="cls-2" d="m16.06,27.28l-.48.13.46.19c1.93.79,4.34,1.02,5.74.55.53-.18.85-.47,1.24-.85,2.46.26,4.77,2.31,6.12,3.98l.07.09.1-.04c.15-.05.39-.23.48-.33l.1-.11-.09-.11c-1.4-1.84-3.6-2.97-3.7-3.02-1.98-.97-5.47-1.72-10.05-.48"/>
        <path class="cls-2" d="m16.16,22.15l.03.17c.29,1.81,1.03,4.2,4.09,3.93l.2-.02-.05-.19c-.21-.83-3.02-3.22-4-3.9l-.29-.15.03.16"/>
        <path class="cls-2" d="m37.85,5.36l.08.47c.29,1.67.98,3.11,1.91,3.96l.21.2s.08-.34.08-.34c0,0,.02-.12.02-.12.23-1.71-1.29-3.26-1.95-3.85l-.18-.16-.17-.16"/>
        <path class="cls-2" d="m41.04,8.26l-.16.41c-.47,1.2-.69,3.88-.52,5.16l.15.72.11-.14s.11-.14.11-.14c.98-1.19,1.01-2.78.87-3.91-.1-.8-.3-1.4-.4-1.68l-.07-.21-.08-.2"/>
        <path class="cls-2" d="m42.23,12.87l-.27.32c-.94,1.15-2.2,4.36-2.23,5.43l-.02.32.28-.18c2.29-1.5,2.35-4.33,2.27-5.48l-.02-.21-.02-.21"/>
        <path class="cls-2" d="m41.89,17.95l-.33.21c-1.48.93-3.77,3.77-4.22,4.99l-.12.32.33-.11c2.38-.77,3.93-3.4,4.26-5.03l.04-.19.04-.19"/>
        <path class="cls-2" d="m36.96,7.8l.12.42c.33,1.16,1.49,3.21,2.43,4.03l.25.22.02-.37c.09-1.62-.71-2.95-2.46-4.06l-.19-.12-.19-.12"/>
        <path class="cls-2" d="m37.97,11.38l-.02.37c-.04,1.21.88,3.82,1.59,4.81l.19.26.1-.31c.12-.33.18-.65.2-.95.13-1.94-1.34-3.5-1.8-3.93l-.13-.13-.14-.13"/>
        <path class="cls-2" d="m37.93,14.72l-.1.34c-.09.31-.15.76-.16,1.31-.04,1.54.22,3.5.54,4.1l.13.24.16-.23c.46-.68.71-1.42.73-2.19.03-1.04-.35-2.17-1.09-3.27l-.1-.15-.1-.15"/>
        <path class="cls-2" d="m37.12,18.3l-.2.26c-.71.94-1.62,4.01-1.65,5.23,0,0,.02.23.02.23l.04.29.22-.14c1.27-.81,1.93-1.99,1.98-3.49.01-.66-.09-1.36-.31-2.08l-.05-.15-.05-.15"/>
        <path class="cls-2" d="m39.76,23.06l-.35.06c-1.3.21-4.98,2.29-5.55,3.13l-.14.21.25.04c3.03.53,4.65-1.53,5.61-3.13l.09-.15.09-.15"/>
        <path class="cls-2" d="m25.13,27.76c-.1.05-2.3,1.18-3.7,3.02l-.08.11.1.1c.1.1.33.29.48.33l.11.04.07-.08c1.34-1.68,3.65-3.73,6.12-3.98.39.38.71.67,1.24.85,1.4.47,3.82.24,5.75-.55l.45-.19-.48-.13c-4.58-1.24-8.07-.49-10.05.48"/>
        <path class="cls-2" d="m35.11,21.99l-.29.15c-.98.68-3.79,3.08-4,3.9l-.05.19.19.02c3.07.26,3.8-2.12,4.09-3.93l.03-.17.02-.16"/>
      </g>
    </g>
  </g>
  <g id="guias">
    <g>
      <rect class="cls-1" x="47.5" y="47.5" width="2.5" height="2.5"/>
      <rect class="cls-1" x="47.5" width="2.5" height="2.5"/>
      <rect class="cls-1" y="47.5" width="2.5" height="2.5"/>
      <rect class="cls-1" width="2.5" height="2.5"/>
    </g>
  </g>
</svg>