<?xml version="1.0" encoding="UTF-8"?>
<svg xmlns="http://www.w3.org/2000/svg" viewBox="0 0 50 50">
  <defs>
    <style>
      .cls-1 {
        fill: none;
        stroke: #000;
        stroke-miterlimit: 10;
        stroke-width: .21px;
      }

      .cls-2 {
        fill: #1e1f22;
        stroke-width: 0px;
      }
    </style>
  </defs>
  <g id="iconos">
    <path class="cls-2" d="m11.22,36.43c1.9-1.46,4.03-2.61,6.39-3.45,2.35-.84,4.82-1.26,7.4-1.26s5.04.42,7.4,1.26,4.48,1.99,6.39,3.45c1.31-1.53,2.32-3.27,3.05-5.21.73-1.94,1.09-4.02,1.09-6.22,0-4.97-1.75-9.2-5.24-12.69-3.49-3.49-7.72-5.24-12.69-5.24s-9.2,1.75-12.69,5.24-5.24,7.72-5.24,12.69c0,2.2.36,4.28,1.09,6.22.73,1.94,1.75,3.68,3.05,5.21Zm13.78-9.19c-2.2,0-4.06-.76-5.58-2.27-1.51-1.51-2.27-3.37-2.27-5.58s.76-4.06,2.27-5.58c1.51-1.51,3.37-2.27,5.58-2.27s4.06.76,5.58,2.27c1.51,1.51,2.27,3.37,2.27,5.58s-.76,4.06-2.27,5.58c-1.51,1.51-3.37,2.27-5.58,2.27Zm0,20.17c-3.1,0-6.01-.59-8.74-1.77-2.73-1.18-5.1-2.77-7.12-4.79-2.02-2.02-3.61-4.39-4.79-7.12-1.18-2.73-1.77-5.64-1.77-8.74s.59-6.01,1.77-8.74c1.18-2.73,2.77-5.1,4.79-7.12,2.02-2.02,4.39-3.61,7.12-4.79,2.73-1.18,5.64-1.77,8.74-1.77s6.01.59,8.74,1.77c2.73,1.18,5.1,2.77,7.12,4.79,2.02,2.02,3.61,4.39,4.79,7.12,1.18,2.73,1.77,5.64,1.77,8.74s-.59,6.01-1.77,8.74c-1.18,2.73-2.77,5.1-4.79,7.12-2.02,2.02-4.39,3.61-7.12,4.79-2.73,1.18-5.64,1.77-8.74,1.77Zm0-4.48c1.98,0,3.85-.29,5.6-.87,1.76-.58,3.36-1.41,4.82-2.49-1.46-1.08-3.06-1.91-4.82-2.49-1.76-.58-3.62-.87-5.6-.87s-3.85.29-5.6.87c-1.76.58-3.36,1.41-4.82,2.49,1.46,1.08,3.06,1.91,4.82,2.49,1.76.58,3.62.87,5.6.87Zm0-20.17c.97,0,1.77-.32,2.41-.95s.95-1.44.95-2.41-.32-1.77-.95-2.41c-.63-.63-1.44-.95-2.41-.95s-1.77.32-2.41.95c-.63.63-.95,1.44-.95,2.41s.32,1.77.95,2.41c.63.63,1.44.95,2.41.95Z"/>
  </g>
  <g id="guias">
    <g>
      <rect class="cls-1" x="47.5" y="47.59" width="2.5" height="2.5"/>
      <rect class="cls-1" x="47.5" y=".09" width="2.5" height="2.5"/>
      <rect class="cls-1" y="47.59" width="2.5" height="2.5"/>
      <rect class="cls-1" y=".09" width="2.5" height="2.5"/>
    </g>
  </g>
</svg>