<?xml version="1.0" encoding="UTF-8"?>
<svg xmlns="http://www.w3.org/2000/svg" viewBox="0 0 50 50">
  <defs>
    <style>
      .cls-1 {
        fill: none;
        stroke: #000;
        stroke-miterlimit: 10;
        stroke-width: .21px;
      }

      .cls-2 {
        fill: #1e1f22;
        stroke-width: 0px;
      }
    </style>
  </defs>
  <g id="iconos">
    <g>
      <g>
        <path class="cls-2" d="m21.17,47.5s-.04,0-.06,0l-16.93-2.16c-.14-.02-.26-.09-.34-.2-.08-.11-.11-.25-.08-.39l1.33-6.7c.32-1.58,1.18-3.02,2.43-4.05.8-.66,1.62-1.09,2.44-1.27l5.64-1.64c.07-.02.14-.06.21-.1.17-.12.29-.31.32-.53l.23-1.98c-1.49-1.24-2.62-3.01-3.21-5.03-1.1-.31-1.89-1.56-1.89-3.08s.77-2.76,1.88-3.08c.27-.08.54.08.62.34.08.27-.08.54-.34.62-.67.19-1.16,1.08-1.16,2.12,0,1.14.59,2.08,1.34,2.15.21.02.38.17.44.37.54,2.04,1.66,3.81,3.16,4.98.14.11.21.28.19.45l-.26,2.25c-.06.51-.34.96-.76,1.24-.15.1-.31.18-.48.23l-5.68,1.65c-.69.15-1.37.51-2.05,1.07-1.07.88-1.81,2.12-2.08,3.48l-1.23,6.17,16.33,2.09,16.52-2.09-1.23-6.17c-.27-1.36-1.01-2.59-2.08-3.48-.68-.56-1.36-.92-2.02-1.06l-5.7-1.65c-.18-.05-.34-.13-.49-.23-.42-.29-.7-.74-.76-1.24l-.26-2.25c-.02-.17.05-.34.19-.45,1.5-1.17,2.62-2.94,3.16-4.98.05-.2.23-.35.44-.37.75-.07,1.34-1.01,1.34-2.15,0-1.04-.49-1.93-1.16-2.12-.27-.07-.42-.35-.34-.62.07-.27.35-.43.62-.34,1.11.31,1.88,1.58,1.88,3.08s-.79,2.77-1.89,3.08c-.6,2.02-1.72,3.79-3.21,5.03l.23,1.98c.03.21.14.41.32.53.06.04.13.07.21.1l5.67,1.64c.78.17,1.6.6,2.41,1.26,1.25,1.03,2.11,2.47,2.43,4.06l1.33,6.7c.03.14,0,.28-.08.39-.08.11-.21.19-.34.2l-17.12,2.16s-.04,0-.06,0Z"/>
        <path class="cls-2" d="m13.26,18.27c-.27,0-.49-.21-.5-.48,0-.19-.18-4.75,2.6-7.66,1.46-1.53,3.47-2.31,5.95-2.31s4.49.78,5.95,2.31c2.76,2.91,2.57,7.46,2.56,7.65-.01.28-.19.5-.53.47-.28-.01-.49-.25-.47-.53,0-.04.18-4.32-2.29-6.91-1.26-1.32-3.02-2-5.22-2s-3.96.67-5.23,2c-2.49,2.6-2.33,6.89-2.33,6.93.01.28-.2.51-.48.52h-.02Z"/>
        <path class="cls-2" d="m25.09,15.05c-.4,0-.81-.02-1.24-.07-1.51-.17-2.77-.78-3.99-1.37-.32-.16-.64-.31-.98-.46-1.27-.58-2.33-.71-3.17-.41-.62.22-1.15.68-1.41,1.2-.12.25-.43.35-.67.23-.25-.12-.35-.42-.23-.67.38-.77,1.09-1.39,1.96-1.7,1.09-.39,2.41-.25,3.92.44.34.16.67.32,1,.48,1.19.58,2.32,1.13,3.66,1.28,1.74.19,3.18-.04,4.55-.74.25-.12.55-.03.67.22s.03.55-.22.67c-1.2.61-2.45.91-3.87.91Z"/>
      </g>
      <path class="cls-2" d="m35.71,23.6c-.36,0-.72-.02-1.08-.05-.28-.03-.48-.27-.45-.55.03-.27.26-.48.55-.45.32.03.65.05.98.05,5.27,0,9.55-4.28,9.55-9.55s-4.28-9.55-9.55-9.55c-2.83,0-5.49,1.24-7.31,3.41-.18.21-.49.24-.7.06-.21-.18-.24-.49-.06-.7,2.01-2.39,4.95-3.76,8.08-3.76,5.82,0,10.55,4.73,10.55,10.55s-4.73,10.55-10.55,10.55Z"/>
      <path class="cls-2" d="m21.28,37.6c-.13,0-.26-.05-.35-.15l-4.41-4.41c-.2-.2-.2-.51,0-.71s.51-.19.71,0l4.06,4.06,3.83-3.83c.2-.2.51-.2.71,0s.2.51,0,.71l-4.18,4.18c-.1.1-.22.15-.35.15Z"/>
      <g>
        <path class="cls-2" d="m36.09,17.79c-.28,0-.5-.22-.5-.5v-8.48c0-.28.22-.5.5-.5s.5.22.5.5v8.48c0,.28-.22.5-.5.5Z"/>
        <path class="cls-2" d="m40.33,13.55h-8.48c-.28,0-.5-.22-.5-.5s.22-.5.5-.5h8.48c.28,0,.5.22.5.5s-.22.5-.5.5Z"/>
      </g>
    </g>
  </g>
  <g id="guias">
    <rect class="cls-1" x="47.5" y="47.5" width="2.5" height="2.5"/>
    <rect class="cls-1" x="47.5" width="2.5" height="2.5"/>
    <rect class="cls-1" y="47.5" width="2.5" height="2.5"/>
    <rect class="cls-1" width="2.5" height="2.5"/>
  </g>
</svg>