<?xml version="1.0" encoding="UTF-8"?>
<svg xmlns="http://www.w3.org/2000/svg" viewBox="0 0 50 50">
  <defs>
    <style>
      .cls-1 {
        fill: none;
        stroke: #000;
        stroke-miterlimit: 10;
        stroke-width: .21px;
      }

      .cls-2 {
        fill: #1e1f22;
        stroke-width: 0px;
      }
    </style>
  </defs>
  <g id="iconos">
    <g>
      <g id="seguros-personas-icono-cross-selling">
        <path class="cls-2" d="m25,47.5s-.09,0-.14-.02C1.6,40.6,5.07,8.72,5.11,8.4c.03-.27.28-.46.54-.43,11.6,1.36,18.95-5.28,19.02-5.35.19-.17.48-.17.66,0,.07.07,7.42,6.71,19.02,5.35.26-.04.51.16.54.43.04.32,3.52,32.2-19.75,39.08-.05.01-.09.02-.14.02ZM6.03,9c-.33,3.97-1.82,31.24,18.97,37.51,20.79-6.27,19.3-33.54,18.97-37.51-10.38,1.03-17.4-4.1-18.97-5.37-1.57,1.27-8.58,6.4-18.97,5.37Z"/>
      </g>
      <g>
        <path class="cls-2" d="m17.3,32.01h-2.02c-.83,0-1.51-.68-1.51-1.51v-3.28c0-.27.22-.49.49-.49s.49.22.49.49v3.28c0,.29.24.53.53.53h2.02c.29,0,.53-.24.53-.53v-1.36c0-.27.22-.49.49-.49s.49.22.49.49v1.36c0,.83-.68,1.51-1.51,1.51Z"/>
        <path class="cls-2" d="m35.74,27.71c-.11,0-.22-.04-.32-.12-.21-.18-.23-.48-.06-.69.29-.34.45-.78.45-1.23v-2.85c0-.46-.17-.91-.48-1.25l-1.46-1.42c-.19-.19-.2-.5,0-.69s.5-.2.69,0l1.48,1.45c.49.55.74,1.22.74,1.92v2.85c0,.68-.24,1.34-.68,1.86-.1.11-.23.17-.37.17Z"/>
        <path class="cls-2" d="m33.32,29.63h-16.64c-.27,0-.49-.22-.49-.49s.22-.49.49-.49h16.64c.27,0,.49.22.49.49s-.22.49-.49.49Z"/>
        <path class="cls-2" d="m14.26,27.71c-.14,0-.27-.06-.37-.17-.44-.52-.68-1.18-.68-1.86v-2.85c0-.7.25-1.37.72-1.9l1.51-1.47c.19-.19.5-.18.69,0,.19.19.18.5,0,.69l-1.48,1.45c-.28.32-.45.76-.45,1.23v2.85c0,.45.16.88.45,1.23.18.21.15.51-.06.69-.09.08-.2.12-.32.12Z"/>
        <path class="cls-2" d="m25,20.96c-1.62,0-9.71-.06-9.71-1.15,0-.35.43-.58.72-.43.41.12,3.25.6,9,.6s8.58-.49,8.99-.6c.29-.15.72.08.72.43,0,1.09-8.09,1.15-9.71,1.15Z"/>
        <path class="cls-2" d="m27.97,26.31h-5.94c-.27,0-.49-.22-.49-.49s.22-.49.49-.49h5.94c.27,0,.49.22.49.49s-.22.49-.49.49Z"/>
        <path class="cls-2" d="m34.72,32.01h-2.02c-.83,0-1.51-.68-1.51-1.51v-1.36c0-.27.22-.49.49-.49s.49.22.49.49v1.36c0,.29.24.53.53.53h2.02c.29,0,.53-.24.53-.53v-3.28c0-.27.22-.49.49-.49s.49.22.49.49v3.28c0,.83-.68,1.51-1.51,1.51Z"/>
        <path class="cls-2" d="m18.65,25.31c-.83,0-2.28-.13-3.13-1.55-.14-.23-.06-.53.17-.67.23-.14.53-.06.67.17.61,1.02,1.63,1.08,2.54,1.07h.19c.27,0,.49.22.49.49s-.22.49-.49.49h-.17c-.08,0-.17,0-.27,0Z"/>
        <path class="cls-2" d="m31.35,25.31c-.1,0-.19,0-.27,0h-.17c-.27,0-.49-.22-.49-.49s.22-.49.49-.49h.19c.91.02,1.93-.04,2.54-1.07.14-.23.44-.3.67-.17.23.14.31.44.17.67-.84,1.42-2.3,1.55-3.13,1.55Z"/>
        <path class="cls-2" d="m15.46,20.62c-.08,0-.15-.02-.22-.06l-1.51-.79c-.24-.12-.33-.42-.21-.66s.42-.33.66-.21l1.51.79c.24.12.33.42.21.66-.09.17-.26.26-.43.26Z"/>
        <path class="cls-2" d="m34.54,20.62c-.18,0-.35-.1-.43-.26-.12-.24-.03-.53.21-.66l1.52-.79c.24-.13.53-.03.66.21.12.24.03.53-.21.66l-1.52.79c-.07.04-.15.06-.22.06Z"/>
        <path class="cls-2" d="m15.78,20.3c-.07,0-.14-.02-.21-.05-.24-.12-.34-.41-.22-.65l1.76-3.62c.39-.76,1.05-1.23,2.03-1.45,1.41-.32,3.77-.34,5.87-.34s4.46.03,5.87.34c.98.22,1.64.69,2.03,1.43l1.77,3.63c.12.24.02.53-.22.65-.24.12-.53.02-.65-.22l-1.76-3.62c-.25-.47-.68-.77-1.37-.92-1.25-.28-3.45-.32-5.65-.32s-4.41.04-5.66.32c-.69.15-1.12.45-1.37.93l-1.76,3.61c-.08.17-.26.27-.44.27Z"/>
      </g>
    </g>
  </g>
  <g id="guias">
    <rect class="cls-1" x="47.5" y="47.5" width="2.5" height="2.5"/>
    <rect class="cls-1" x="47.5" width="2.5" height="2.5"/>
    <rect class="cls-1" y="47.5" width="2.5" height="2.5"/>
    <rect class="cls-1" width="2.5" height="2.5"/>
  </g>
</svg>