<?xml version="1.0" encoding="UTF-8"?>
<svg id="iconos" xmlns="http://www.w3.org/2000/svg" viewBox="0 0 50 50">
  <defs>
    <style>
      .cls-1 {
        fill: #1e1f22;
        stroke-width: 0px;
      }
    </style>
  </defs>
  <g id="occiauto-dinamico-icono">
    <path class="cls-1" d="m46.45,25.75v.41h-1.41c-.48,0-.88-.39-.88-.88s.39-.88.88-.88h.7s.05-.02.07-.03c.44.48.64.96.64,1.37Z"/>
    <path class="cls-1" d="m12.27,34.96c-2.4,0-4.35-1.95-4.35-4.36s1.95-4.36,4.35-4.36,4.36,1.96,4.36,4.36-1.96,4.36-4.36,4.36Zm0-7.63c-1.81,0-3.27,1.47-3.27,3.28s1.47,3.28,3.27,3.28,3.28-1.47,3.28-3.28-1.47-3.28-3.28-3.28Z"/>
    <path class="cls-1" d="m12.28,32.92c-1.27,0-2.31-1.04-2.31-2.31s1.04-2.31,2.31-2.31,2.31,1.04,2.31,2.31-1.04,2.31-2.31,2.31Zm0-3.55c-.68,0-1.23.55-1.23,1.23s.55,1.23,1.23,1.23,1.23-.55,1.23-1.23-.55-1.23-1.23-1.23Z"/>
    <path class="cls-1" d="m38.83,34.96c-2.4,0-4.36-1.95-4.36-4.36s1.95-4.36,4.36-4.36,4.36,1.96,4.36,4.36-1.96,4.36-4.36,4.36Zm0-7.63c-1.81,0-3.28,1.47-3.28,3.28s1.47,3.28,3.28,3.28,3.28-1.47,3.28-3.28-1.47-3.28-3.28-3.28Z"/>
    <path class="cls-1" d="m38.83,32.92c-1.27,0-2.31-1.04-2.31-2.31s1.04-2.31,2.31-2.31,2.31,1.04,2.31,2.31-1.04,2.31-2.31,2.31Zm0-3.55c-.68,0-1.23.55-1.23,1.23s.55,1.23,1.23,1.23,1.23-.55,1.23-1.23-.55-1.23-1.23-1.23Z"/>
    <path class="cls-1" d="m45.57,31.6h-2.57c-.3,0-.54-.24-.54-.54s.24-.54.54-.54h2.57c.47,0,.85-.38.85-.85v-3.93c0-1.14-1.47-2.78-5.63-3.65-4.07-.85-6.49-.66-6.51-.66-.14.02-.41-.02-.52-.12-1.12-.97-4.07-3.33-7.31-4.29-4.04-1.2-11.69-1.4-17,.4h0s-1.15,1.14-2.13,3c-.09.17-.26.28-.45.29-.18.01-.37-.08-.48-.24-.16-.23-.42-.37-.7-.37h-1.27c-.47,0-.85.38-.85.85v5.06c0,.25.11.47.31.64.15.12.22.31.19.5-.19,1.23.05,2.31.08,2.43.03.57.41.94.86.94h2.97c.3,0,.54.24.54.54s-.24.54-.54.54h-2.97c-1.04,0-1.9-.84-1.93-1.88-.04-.11-.26-1.17-.12-2.45-.31-.35-.48-.79-.48-1.26v-5.06c0-1.06.86-1.93,1.93-1.93h1.27c.36,0,.71.1,1.01.29.99-1.67,2.05-2.69,2.11-2.73.05-.05.21-.14.27-.17,5.52-1.86,13.47-1.66,17.67-.41,3.29.97,6.26,3.27,7.54,4.36.74-.04,3.08-.08,6.71.68,6.02,1.26,6.49,3.92,6.49,4.71v3.93c0,1.06-.86,1.93-1.93,1.93Z"/>
    <path class="cls-1" d="m34.83,31.6h-18.65c-.3,0-.54-.24-.54-.54s.24-.54.54-.54h18.65c.3,0,.54.24.54.54s-.24.54-.54.54Z"/>
    <path class="cls-1" d="m4.07,26.8l-.55-.03-.52-.14c.05-.22.09-.34.13-.46.48-1.39,1.24-2.44,2.11-2.95.18-.95.47-1.89.91-2.86.04-.19.17-.35.36-.41.23-.08.47,0,.61.19.07.1.12.22.12.34,0,.08-.02.15-.05.23-.47,1.01-.77,1.98-.93,2.96-.03.18-.15.34-.32.41-.7.31-1.36,1.22-1.79,2.44-.03.09-.05.19-.08.28Z"/>
    <path class="cls-1" d="m6.71,28.58c-.09,0-.18-.02-.26-.07-.26-.14-.36-.47-.22-.73,1.17-2.14,3.41-3.47,5.84-3.47,2.26,0,4.38,1.16,5.6,3.06h15.63c1.22-1.9,3.34-3.06,5.6-3.06,2.44,0,4.68,1.33,5.84,3.48.14.26.04.59-.22.73-.26.14-.59.05-.73-.22-.98-1.8-2.85-2.91-4.9-2.91s-3.84,1.07-4.83,2.79c-.1.17-.28.27-.47.27h-16.23c-.19,0-.37-.1-.47-.27-1-1.72-2.85-2.79-4.83-2.79s-3.92,1.12-4.9,2.91c-.1.18-.28.28-.47.28Z"/>
    <path class="cls-1" d="m13.11,22.27c-.05,0-.11,0-.17-.03-1.1-.36-1.78-1.39-2.06-2.24-.17-.52-.2-1-.09-1.3.06-.16.19-.28.35-.33,1.04-.32,2.29-.59,3.71-.8.2-.04.4.05.52.22.12.16.13.38.04.56l-1.81,3.62c-.09.19-.28.3-.48.3Zm-1.29-2.97c.01.1.04.23.09.37.16.48.5,1.02.96,1.34l1.1-2.2c-.79.14-1.5.3-2.15.49Z"/>
    <path class="cls-1" d="m22.32,22.3h-9.26c-.19,0-.36-.1-.46-.26-.1-.16-.11-.36-.02-.53l1.82-3.64c.08-.16.24-.27.42-.29,1.45-.18,2.96-.27,4.48-.27.96,0,1.96.05,3.07.14.28.02.49.26.49.54v3.77c0,.3-.24.54-.54.54Zm-8.39-1.08h7.85v-2.73c-2.45-.19-4.48-.11-6.55.13l-1.3,2.6Z"/>
    <path class="cls-1" d="m31.68,22.3h-9.36c-.3,0-.54-.24-.54-.54v-3.73c0-.15.07-.3.18-.4.11-.1.27-.15.42-.14,1.53.16,2.82.39,3.83.69,2.26.67,4.4,2.08,5.8,3.14.18.14.26.38.19.6-.08.22-.28.37-.51.37Zm-8.82-1.08h7.12c-1.18-.78-2.61-1.56-4.08-2-.82-.24-1.84-.44-3.04-.59v2.58Z"/>
  </g>
</svg>