<?xml version="1.0" encoding="UTF-8"?>
<svg xmlns="http://www.w3.org/2000/svg" viewBox="0 0 50 50">
  <defs>
    <style>
      .cls-1 {
        fill: none;
        stroke: #000;
        stroke-miterlimit: 10;
        stroke-width: .21px;
      }

      .cls-2 {
        isolation: isolate;
      }

      .cls-3 {
        fill: #1e1f22;
        stroke-width: 0px;
      }
    </style>
  </defs>
  <g id="iconos">
    <g>
      <g class="cls-2">
        <path class="cls-3" d="m25,43.31c-9.47,0-15.83-5.69-19.51-10.46-1.87-2.43-2.99-3.89-2.99-7.86s1.13-5.43,2.99-7.86c3.67-4.77,10.04-10.46,19.51-10.46s15.83,5.69,19.51,10.46c1.87,2.43,2.99,3.89,2.99,7.86s-1.13,5.43-2.99,7.86c-3.67,4.77-10.04,10.46-19.51,10.46ZM7.98,30.94c3.24,4.21,8.83,9.23,17.02,9.23s13.78-5.02,17.02-9.23c1.7-2.21,2.34-3.04,2.34-5.94s-.64-3.73-2.34-5.94c-3.24-4.21-8.83-9.23-17.02-9.23s-13.78,5.02-17.02,9.23c-1.7,2.21-2.34,3.04-2.34,5.94s.64,3.73,2.34,5.94Z"/>
      </g>
      <path class="cls-3" d="m25,32.85c-4.33,0-7.85-3.52-7.85-7.85s3.52-7.85,7.85-7.85,7.85,3.52,7.85,7.85-3.52,7.85-7.85,7.85Zm0-12.56c-2.6,0-4.71,2.11-4.71,4.71s2.11,4.71,4.71,4.71,4.71-2.11,4.71-4.71-2.11-4.71-4.71-4.71Z"/>
    </g>
  </g>
  <g id="guias">
    <g>
      <rect class="cls-1" x="47.5" y="47.5" width="2.5" height="2.5"/>
      <rect class="cls-1" x="47.5" width="2.5" height="2.5"/>
      <rect class="cls-1" y="47.5" width="2.5" height="2.5"/>
      <rect class="cls-1" width="2.5" height="2.5"/>
    </g>
  </g>
</svg>