<?xml version="1.0" encoding="UTF-8"?>
<svg xmlns="http://www.w3.org/2000/svg" viewBox="0 0 50 50">
  <defs>
    <style>
      .cls-1 {
        fill: none;
        stroke: #000;
        stroke-miterlimit: 10;
        stroke-width: .21px;
      }

      .cls-2 {
        fill-rule: evenodd;
      }

      .cls-2, .cls-3 {
        fill: #1e1f22;
        stroke-width: 0px;
      }
    </style>
  </defs>
  <g id="iconos">
    <g>
      <path class="cls-3" d="m19.94,25c0-2.8,2.27-5.06,5.06-5.06s5.06,2.27,5.06,5.06-2.27,5.06-5.06,5.06-5.06-2.27-5.06-5.06Z"/>
      <path class="cls-2" d="m2.5,25c0,3.69.96,4.93,2.87,7.42,3.82,4.96,10.22,10.58,19.63,10.58s15.81-5.62,19.63-10.58c1.91-2.48,2.87-3.73,2.87-7.42s-.96-4.93-2.87-7.42c-3.82-4.96-10.22-10.58-19.63-10.58s-15.81,5.62-19.63,10.58c-1.91,2.48-2.87,3.73-2.87,7.42Zm22.5-8.44c-4.66,0-8.44,3.78-8.44,8.44s3.78,8.44,8.44,8.44,8.44-3.78,8.44-8.44-3.78-8.44-8.44-8.44Z"/>
    </g>
  </g>
  <g id="guias">
    <g>
      <rect class="cls-1" x="47.5" y="47.5" width="2.5" height="2.5"/>
      <rect class="cls-1" x="47.5" width="2.5" height="2.5"/>
      <rect class="cls-1" y="47.5" width="2.5" height="2.5"/>
      <rect class="cls-1" width="2.5" height="2.5"/>
    </g>
  </g>
</svg>