<?xml version="1.0" encoding="UTF-8"?>
<svg xmlns="http://www.w3.org/2000/svg" viewBox="0 0 50 50">
  <defs>
    <style>
      .cls-1 {
        fill: none;
        stroke: #000;
        stroke-miterlimit: 10;
        stroke-width: .21px;
      }

      .cls-2 {
        fill: #1e1f22;
        stroke-width: 0px;
      }
    </style>
  </defs>
  <g id="iconos">
    <g>
      <path class="cls-2" d="m46.18,40.27H3.82c-.73,0-1.32-.59-1.32-1.32v-2.6c0-.29.24-.52.52-.52h43.95c.29,0,.52.24.52.52v2.6c0,.73-.59,1.32-1.32,1.32Zm-42.63-3.4v2.08c0,.15.12.27.27.27h42.36c.15,0,.27-.12.27-.27v-2.08H3.55Z"/>
      <path class="cls-2" d="m44.11,36.88H5.89c-.29,0-.52-.24-.52-.52V11.01c0-.71.57-1.28,1.28-1.28h36.71c.71,0,1.28.58,1.28,1.28v25.35c0,.29-.24.52-.52.52Zm-37.7-1.05h37.18V11.01c0-.13-.11-.24-.24-.24H6.65c-.13,0-.24.11-.24.24v24.82Z"/>
      <rect class="cls-2" x="22.63" y="37.28" width="4.75" height="1.55" rx=".52" ry=".52"/>
      <g>
        <polygon class="cls-2" points="20.25 24.58 25 29.33 29.75 24.58 28.65 23.48 25 27.12 22.46 24.58 25 22.04 26.08 23.13 27.19 22.02 25 19.83 20.25 24.58"/>
        <polygon class="cls-2" points="29.75 22.02 25 17.27 20.25 22.02 21.35 23.13 25 19.48 27.54 22.02 25 24.56 23.92 23.48 22.81 24.59 25 26.77 29.75 22.02"/>
      </g>
      <path class="cls-2" d="m42.18,21.1c-.29,0-.52-.24-.52-.52v-8.03l-9.01.02c-.29,0-.52-.24-.52-.52s.24-.52.52-.52h9.03c.57,0,1.03.46,1.03,1.03v8.03c0,.29-.24.52-.52.52Z"/>
      <path class="cls-2" d="m16.67,35.06h-7.83c-.68,0-1.23-.55-1.23-1.23v-8.83c0-.29.24-.52.52-.52s.52.24.52.52v8.83c0,.1.08.18.18.18h7.83c.29,0,.52.24.52.52s-.24.52-.52.52Z"/>
    </g>
  </g>
  <g id="guias">
    <g>
      <rect class="cls-1" x="47.5" y="47.5" width="2.5" height="2.5"/>
      <rect class="cls-1" x="47.5" width="2.5" height="2.5"/>
      <rect class="cls-1" y="47.5" width="2.5" height="2.5"/>
      <rect class="cls-1" width="2.5" height="2.5"/>
    </g>
  </g>
</svg>