<?xml version="1.0" encoding="UTF-8"?>
<svg xmlns="http://www.w3.org/2000/svg" viewBox="0 0 50 50">
  <defs>
    <style>
      .cls-1 {
        fill: none;
        stroke: #000;
        stroke-miterlimit: 10;
        stroke-width: .21px;
      }

      .cls-2 {
        fill: #1e1f22;
        stroke-width: 0px;
      }
    </style>
  </defs>
  <g id="iconos">
    <g id="pagos-aval-icono-cross-selling">
      <path class="cls-2" d="m14.92,22.16c-.27,0-.51-.21-.53-.49l-1.1-12.61c-.02-.29.19-.55.49-.58l4.55-.4c.28-.03.55.19.58.49.02.29-.19.55-.49.58l-4.02.35,1.06,12.08c.02.29-.19.55-.49.58-.01,0-.03,0-.05,0Z"/>
      <path class="cls-2" d="m17.06,22.11s-.04,0-.05,0c-.29-.03-.51-.29-.48-.59l1.55-15.29c.03-.29.25-.5.59-.48l4.19.42c.29.03.51.29.48.59-.03.29-.26.51-.59.48l-3.66-.37-1.5,14.76c-.03.27-.26.48-.53.48Z"/>
      <g>
        <path class="cls-2" d="m36.72,22.16c-.06,0-.13-.01-.2-.04-.27-.11-.41-.42-.3-.69l4.5-11.42-15.95-6.29-7.11,18.05c-.11.27-.41.41-.69.3-.27-.11-.41-.42-.3-.69L23.98,2.84c.05-.13.15-.24.28-.29.13-.05.28-.06.41,0l16.94,6.68c.13.05.24.15.29.28s.06.28,0,.41l-4.7,11.92c-.08.21-.28.34-.5.34Z"/>
        <path class="cls-2" d="m33.81,22.11s-.02,0-.03,0c-.29-.02-.52-.27-.5-.56.17-2.68-1.4-5.15-3.9-6.13-3.16-1.25-6.76.31-8,3.48-.33.84-.47,1.73-.42,2.63.02.29-.21.55-.5.56-.29,0-.54-.21-.56-.5-.06-1.05.1-2.09.49-3.08,1.46-3.71,5.67-5.54,9.39-4.08,2.93,1.16,4.77,4.05,4.57,7.19-.02.28-.25.5-.53.5Z"/>
        <path class="cls-2" d="m26.7,20.96s.06-.06.09-.09l.52-.49c.44-.42.87-.67,1.28-.74.41-.07.84-.02,1.31.16.48.19.83.5,1.07.94.04.08.11.24.11.24m-7.93,0c-.05-.29-.04-.59.04-.97l-.87-.35.39-.99.8.31c.11-.23.24-.42.35-.57.11-.16.23-.31.37-.45l.95.38c-.23.25-.31.36-.5.63-.21.31-.33.53-.42.76-.16.4-.18.77-.05,1.09.02.05.04.09.06.14h-1.12Zm6.64,0s-.17-.11-.28-.15c-.19-.08-.38-.11-.57-.1-.19,0-.36.06-.52.15-.04.02-.08.05-.13.08"/>
        <path class="cls-2" d="m31.5,12.13c-.11,0-.21-.02-.32-.06-.21-.09-.39-.25-.48-.46-.09-.21-.1-.45-.01-.67.17-.44.68-.66,1.13-.49,0,0,0,0,0,0,.22.09.39.25.48.46.09.21.1.45.01.67-.14.34-.46.55-.81.55Zm.07-1.05l-.14.36c.09.03.21,0,.25-.11.03-.09-.02-.22-.11-.25Zm-.05-.01c-.08,0-.17.05-.2.12-.03.09.02.22.11.25l.14-.36s-.04-.01-.05-.01Z"/>
      </g>
      <g>
        <g>
          <path class="cls-2" d="m36.19,47.5H11.57c-1.94,0-3.51-1.57-3.51-3.51v-19.43c0-1.94,1.58-3.51,3.51-3.51h24.62c1.94,0,3.51,1.58,3.51,3.51v6.81c0,.29-.24.53-.53.53s-.53-.24-.53-.53v-6.81c0-1.35-1.1-2.45-2.44-2.45H11.57c-1.35,0-2.45,1.1-2.45,2.45v19.43c0,1.35,1.1,2.44,2.45,2.44h24.62c1.35,0,2.44-1.1,2.44-2.44v-6.82c0-.29.24-.53.53-.53s.53.24.53.53v6.82c0,1.94-1.57,3.51-3.51,3.51Z"/>
          <path class="cls-2" d="m32.97,47.5c-.29,0-.53-.24-.53-.53s.24-.53.53-.53c1.35,0,2.44-1.1,2.44-2.44v-6.82c0-.29.24-.53.53-.53s.53.24.53.53v6.82c0,1.94-1.57,3.51-3.51,3.51Z"/>
          <path class="cls-2" d="m35.95,31.9c-.29,0-.53-.24-.53-.53v-6.81c0-1.35-1.1-2.45-2.44-2.45-.29,0-.53-.24-.53-.53s.24-.53.53-.53c1.94,0,3.51,1.58,3.51,3.51v6.81c0,.29-.24.53-.53.53Z"/>
          <path class="cls-2" d="m32.15,36.1c-1.01,0-1.83-.82-1.83-1.83s.82-1.83,1.83-1.83,1.83.82,1.83,1.83-.82,1.83-1.83,1.83Zm0-2.59c-.42,0-.76.34-.76.76s.34.76.76.76.76-.34.76-.76-.34-.76-.76-.76Z"/>
        </g>
        <path class="cls-2" d="m37.76,37.71h-5.82c-1.89,0-3.43-1.54-3.43-3.43s1.54-3.43,3.43-3.43h5.82c1.89,0,3.43,1.54,3.43,3.43s-1.54,3.43-3.43,3.43Zm-5.82-5.8c-1.3,0-2.37,1.06-2.37,2.37s1.06,2.37,2.37,2.37h5.82c1.31,0,2.37-1.06,2.37-2.37s-1.06-2.37-2.37-2.37h-5.82Z"/>
      </g>
      <path class="cls-2" d="m12.83,43.86c-.29,0-.53-.24-.53-.53v-17.98c0-.29.24-.53.53-.53s.53.24.53.53v17.98c0,.29-.24.53-.53.53Z"/>
    </g>
  </g>
  <g id="guias">
    <g>
      <rect class="cls-1" x="47.5" y="47.5" width="2.5" height="2.5"/>
      <rect class="cls-1" x="47.5" width="2.5" height="2.5"/>
      <rect class="cls-1" y="47.5" width="2.5" height="2.5"/>
      <rect class="cls-1" width="2.5" height="2.5"/>
    </g>
  </g>
</svg>