<?xml version="1.0" encoding="UTF-8"?>
<svg xmlns="http://www.w3.org/2000/svg" viewBox="0 0 50 50">
  <defs>
    <style>
      .cls-1 {
        fill: none;
        stroke: #000;
        stroke-miterlimit: 10;
        stroke-width: .21px;
      }

      .cls-2 {
        fill: #1e1f22;
        stroke-width: 0px;
      }
    </style>
  </defs>
  <g id="iconos">
    <g id="rotativo-monoproducto-icono">
      <g>
        <path class="cls-2" d="m23.41,19.94c-.13,0-.27-.05-.37-.15-.21-.21-.22-.54-.01-.76l11.48-11.87-2.27-2.19-14.19,14.67c-.2.22-.54.22-.76.01-.21-.21-.22-.54-.01-.76L31.83,3.83c.1-.1.23-.16.38-.16.13,0,.28.05.38.15l3.04,2.94c.21.21.22.54.01.76l-11.85,12.26c-.1.11-.24.16-.39.16Z"/>
        <path class="cls-2" d="m13.92,20.03c-.13,0-.27-.05-.37-.15-.21-.21-.22-.54-.01-.76L29.04,3.09c.74-.77,1.98-.79,2.75-.05l8.87,8.57c.77.75.79,1.98.05,2.75l-5.23,5.41c-.21.21-.54.22-.76.01s-.22-.54-.01-.76l5.23-5.41c.33-.35.32-.9-.02-1.24L31.04,3.81c-.35-.33-.9-.32-1.23.02l-15.5,16.03c-.1.11-.24.16-.39.16Z"/>
      </g>
      <g>
        <g>
          <path class="cls-2" d="m37.55,47.5H10.83c-2.08,0-3.77-1.69-3.77-3.77v-21.09c0-2.08,1.69-3.77,3.77-3.77h26.73c2.08,0,3.77,1.69,3.77,3.77v7.4c0,.3-.24.54-.54.54s-.54-.24-.54-.54v-7.4c0-1.49-1.21-2.7-2.7-2.7H10.83c-1.49,0-2.7,1.21-2.7,2.7v21.09c0,1.49,1.21,2.7,2.7,2.7h26.73c1.49,0,2.7-1.21,2.7-2.7v-7.4c0-.3.24-.54.54-.54s.54.24.54.54v7.4c0,2.08-1.69,3.77-3.77,3.77Z"/>
          <path class="cls-2" d="m34.06,47.5c-.3,0-.54-.24-.54-.54s.24-.54.54-.54c1.49,0,2.7-1.21,2.7-2.7v-7.4c0-.3.24-.54.54-.54s.54.24.54.54v7.4c0,2.08-1.69,3.77-3.77,3.77Z"/>
          <path class="cls-2" d="m37.3,30.57c-.3,0-.54-.24-.54-.54v-7.4c0-1.49-1.21-2.7-2.7-2.7-.3,0-.54-.24-.54-.54s.24-.54.54-.54c2.08,0,3.77,1.69,3.77,3.77v7.4c0,.3-.24.54-.54.54Z"/>
          <path class="cls-2" d="m33.17,35.12c-1.07,0-1.94-.87-1.94-1.94s.87-1.94,1.94-1.94,1.94.87,1.94,1.94-.87,1.94-1.94,1.94Zm0-2.81c-.48,0-.87.39-.87.87s.39.87.87.87.87-.39.87-.87-.39-.87-.87-.87Z"/>
        </g>
        <path class="cls-2" d="m39.26,36.87h-6.32c-2.03,0-3.69-1.65-3.69-3.68s1.65-3.69,3.69-3.69h6.32c2.03,0,3.69,1.65,3.69,3.69s-1.65,3.68-3.69,3.68Zm-6.32-6.3c-1.44,0-2.61,1.17-2.61,2.61s1.17,2.61,2.61,2.61h6.32c1.44,0,2.61-1.17,2.61-2.61s-1.17-2.61-2.61-2.61h-6.32Z"/>
      </g>
      <path class="cls-2" d="m12.19,43.54c-.3,0-.54-.24-.54-.54v-19.52c0-.3.24-.54.54-.54s.54.24.54.54v19.52c0,.3-.24.54-.54.54Z"/>
    </g>
  </g>
  <g id="guias">
    <g>
      <rect class="cls-1" x="47.5" y="47.5" width="2.5" height="2.5"/>
      <rect class="cls-1" x="47.5" width="2.5" height="2.5"/>
      <rect class="cls-1" y="47.5" width="2.5" height="2.5"/>
      <rect class="cls-1" width="2.5" height="2.5"/>
    </g>
  </g>
</svg>