<?xml version="1.0" encoding="UTF-8"?>
<svg xmlns="http://www.w3.org/2000/svg" viewBox="0 0 50 50">
  <defs>
    <style>
      .cls-1 {
        fill: none;
        stroke: #000;
        stroke-miterlimit: 10;
        stroke-width: .21px;
      }

      .cls-2 {
        fill: #1e1f22;
        stroke-width: 0px;
      }
    </style>
  </defs>
  <g id="iconos">
    <g id="pensiones-voluntarias-icono">
      <g>
        <g>
          <path class="cls-2" d="m42.04,35.33h-20.81c-.29,0-.52-.24-.52-.52s.24-.52.52-.52h20.81c1.52,0,2.76-1.24,2.76-2.76v-7.51c0-.29.24-.52.52-.52s.52.24.52.52v7.51c0,2.1-1.71,3.81-3.81,3.81Z"/>
          <path class="cls-2" d="m11.61,25.52c-.29,0-.52-.24-.52-.52v-14.9c0-2.1,1.71-3.81,3.81-3.81h27.15c2.1,0,3.81,1.71,3.81,3.81v7.51c0,.29-.24.52-.52.52s-.52-.24-.52-.52v-7.51c0-1.52-1.24-2.76-2.76-2.76H14.9c-1.52,0-2.76,1.24-2.76,2.76v14.9c0,.29-.24.52-.52.52Z"/>
          <path class="cls-2" d="m38.5,35.33c-.29,0-.52-.24-.52-.52s.24-.52.52-.52c1.52,0,2.76-1.24,2.76-2.76v-7.51c0-.29.24-.52.52-.52s.52.24.52.52v7.51c0,2.1-1.71,3.81-3.81,3.81Z"/>
          <path class="cls-2" d="m41.78,18.13c-.29,0-.52-.24-.52-.52v-7.51c0-1.52-1.24-2.76-2.76-2.76-.29,0-.52-.24-.52-.52s.24-.52.52-.52c2.1,0,3.81,1.71,3.81,3.81v7.51c0,.29-.24.52-.52.52Z"/>
          <path class="cls-2" d="m37.6,22.76c-1.08,0-1.95-.88-1.95-1.95s.88-1.95,1.95-1.95,1.95.88,1.95,1.95-.88,1.95-1.95,1.95Zm0-2.85c-.5,0-.9.4-.9.9s.4.9.9.9.9-.4.9-.9-.4-.9-.9-.9Z"/>
        </g>
        <path class="cls-2" d="m43.86,24.53h-6.59c-2,0-3.64-1.63-3.64-3.64v-.18c0-2,1.63-3.64,3.64-3.64h6.59c2,0,3.64,1.63,3.64,3.64v.17c0,2-1.63,3.64-3.64,3.64Zm-6.59-6.4c-1.43,0-2.59,1.16-2.59,2.59v.18c0,1.43,1.16,2.59,2.59,2.59h6.59c1.43,0,2.59-1.16,2.59-2.59v-.17c0-1.43-1.16-2.59-2.59-2.59h-6.59Z"/>
      </g>
      <path class="cls-2" d="m16.29,26.51c-.29,0-.52-.24-.52-.52v-15.03c0-.29.24-.52.52-.52s.52.24.52.52v15.03c0,.29-.24.52-.52.52Z"/>
      <g>
        <path class="cls-2" d="m12.13,38.91c-1.54,0-2.46-1.13-2.5-1.18-.18-.22-.14-.55.08-.73.22-.18.56-.14.73.08,0,0,.65.79,1.68.79.43,0,.77-.13,1.02-.39.26-.27.4-.66.39-1.07-.02-.79-.48-1.33-1.51-1.78-.12-.06-.26-.1-.4-.16-.84-.31-2.12-.78-2.12-2.52,0-1.49,1.08-2.57,2.56-2.57,1.4,0,2.44.86,2.48.9.22.19.25.51.06.73-.18.22-.51.25-.74.07,0,0-.8-.65-1.81-.65-.91,0-1.52.61-1.52,1.53,0,.96.54,1.21,1.43,1.53.16.06.32.12.46.18,1.39.61,2.11,1.52,2.14,2.71.02.69-.23,1.36-.69,1.83-.45.46-1.07.71-1.77.71Z"/>
        <path class="cls-2" d="m12.13,43.71c-5.31,0-9.63-4.32-9.63-9.63s4.32-9.63,9.63-9.63,9.63,4.32,9.63,9.63-4.32,9.63-9.63,9.63Zm0-18.21c-4.73,0-8.58,3.85-8.58,8.58s3.85,8.58,8.58,8.58,8.58-3.85,8.58-8.58-3.85-8.58-8.58-8.58Z"/>
        <path class="cls-2" d="m12.13,40.29c-.29,0-.52-.24-.52-.52v-1.38c0-.29.24-.52.52-.52s.52.24.52.52v1.38c0,.29-.24.52-.52.52Z"/>
        <path class="cls-2" d="m12.13,30.42c-.29,0-.52-.24-.52-.52v-1.49c0-.29.24-.52.52-.52s.52.24.52.52v1.49c0,.29-.24.52-.52.52Z"/>
      </g>
    </g>
  </g>
  <g id="guias">
    <rect class="cls-1" x="47.5" y="47.5" width="2.5" height="2.5"/>
    <rect class="cls-1" x="47.5" width="2.5" height="2.5"/>
    <rect class="cls-1" y="47.5" width="2.5" height="2.5"/>
    <rect class="cls-1" width="2.5" height="2.5"/>
  </g>
</svg>