<?xml version="1.0" encoding="UTF-8"?>
<svg xmlns="http://www.w3.org/2000/svg" viewBox="0 0 50 50">
  <defs>
    <style>
      .cls-1 {
        fill: none;
        stroke: #000;
        stroke-miterlimit: 10;
        stroke-width: .21px;
      }

      .cls-2 {
        fill: #1e1f22;
        stroke-width: 0px;
      }
    </style>
  </defs>
  <g id="iconos">
    <g>
      <path class="cls-2" d="m45.27,37.66c-.16,0-.33-.08-.43-.22C28.37,13.93,5.36,15.9,5.12,15.93c-.27.03-.54-.18-.57-.47s.18-.54.47-.57c.23-.01,23.84-2.08,40.68,21.95.17.24.11.56-.13.73-.09.06-.2.09-.3.09Z"/>
      <path class="cls-2" d="m18.77,35.54c-4.85,0-10.19-.84-15.93-2.98-.27-.1-.41-.4-.31-.67.1-.27.4-.41.67-.31,25.79,9.6,43.23-7.62,43.4-7.79.2-.21.53-.21.74,0,.2.2.21.53,0,.74-.14.14-11.13,11.01-28.58,11.01Z"/>
      <path class="cls-2" d="m45.66,19.09c-.07,0-.15-.02-.22-.05-2.1-.97-4.16-1.73-6.15-2.25-.24-.06-.47-.12-.71-.18-.28-.07-.46-.34-.39-.63.07-.28.35-.45.63-.39.25.06.49.12.74.18,2.04.54,4.17,1.32,6.32,2.32.26.12.38.43.25.69-.09.19-.28.3-.47.3Z"/>
      <path class="cls-2" d="m16.95,22.43c-.14,0-.27-.05-.38-.16-.2-.21-.19-.54.01-.74,4.5-4.34,9.75-6.59,15.6-6.69h.01c.28,0,.52.23.52.51,0,.29-.22.53-.51.53-5.58.1-10.6,2.26-14.89,6.4-.1.1-.23.15-.36.15Z"/>
      <path class="cls-2" d="m7.19,43.21c-.17,0-.34-.08-.44-.24-1.02-1.58.96-9.37,5.35-15.99.16-.24.49-.3.72-.15.24.16.31.48.15.72-4.51,6.81-5.89,13.99-5.34,14.84.16.24.09.57-.15.72-.09.06-.19.08-.29.08Z"/>
      <path class="cls-2" d="m12.81,23.13c-.25,0-.47-.17-.51-.42-1.77-9.23,1.57-16.98,1.71-17.3.11-.26.42-.39.69-.27.26.11.38.42.27.69-.03.08-3.34,7.79-1.64,16.69.06.28-.13.56-.41.61-.03,0-.07.01-.1.01Z"/>
      <path class="cls-2" d="m25.46,40.83c-.09,0-.18-.02-.26-.07-2.55-1.46-4.78-3.27-6.63-5.38-.68-.75-1.32-1.54-1.9-2.37-1.19-1.67-2.18-3.49-2.94-5.39-.11-.27.02-.57.29-.68.27-.1.57.02.68.29.73,1.83,1.68,3.57,2.83,5.18.55.79,1.16,1.55,1.82,2.27,1.81,2.06,3.89,3.74,6.37,5.17.25.14.34.46.19.71-.1.17-.27.26-.45.26Z"/>
      <path class="cls-2" d="m39.66,44.5c-2.06,0-5.9-.25-10.2-1.8-.27-.1-.41-.4-.31-.67.1-.27.4-.41.67-.31,6.01,2.17,11.26,1.7,11.31,1.69.31-.05.55.18.57.47s-.18.54-.47.57c-.07,0-.63.06-1.57.06Z"/>
      <path class="cls-2" d="m11.76,47.48c-.27,0-.43,0-.47,0-.29-.01-.51-.26-.5-.54.01-.29.26-.51.54-.5.09,0,7.66.26,14.19-3.71.25-.15.57-.07.72.18.15.25.07.57-.18.72-5.93,3.6-12.5,3.87-14.31,3.87Z"/>
      <path class="cls-2" d="m29.45,40.85c-.13,0-.27-.05-.37-.16-.2-.21-.2-.54,0-.74,2.09-2.04,3.65-4.53,4.64-7.39l.25-.75c.57-1.78.95-3.54,1.17-5.37.36-2.88.2-5.76-.45-8.58-.07-.28.11-.56.39-.63.29-.08.56.11.63.39.68,2.94.84,5.94.47,8.94-.22,1.9-.62,3.72-1.21,5.57l-.25.76c-1.05,3.02-2.69,5.64-4.9,7.8-.1.1-.23.15-.37.15Z"/>
      <path class="cls-2" d="m33.61,13.5c-.2,0-.39-.12-.48-.31-2.73-6.17-7.08-9.71-7.12-9.74-.22-.18-.26-.51-.08-.73.18-.22.51-.26.73-.08.19.15,4.6,3.73,7.43,10.13.12.27,0,.57-.27.69-.07.03-.14.04-.21.04Z"/>
      <path class="cls-2" d="m34.49,18.37c-1.55,0-2.81-1.35-2.81-3,0-1.23.69-2.33,1.76-2.79.33-.14.69-.22,1.05-.22,1.55,0,2.81,1.35,2.81,3,0,.14-.01.28-.03.41-.19,1.48-1.39,2.59-2.79,2.59Zm0-4.96c-.22,0-.43.04-.64.13-.68.29-1.13,1.02-1.13,1.83,0,1.08.79,1.96,1.77,1.96.87,0,1.63-.72,1.75-1.68.01-.09.02-.18.02-.28,0-1.08-.79-1.96-1.77-1.96Z"/>
      <path class="cls-2" d="m27.47,44.49c-.81,0-1.55-.35-2.07-.98-.48-.52-.75-1.24-.75-2.01,0-.51.12-.99.35-1.43.47-.97,1.42-1.57,2.47-1.57s2.02.64,2.46,1.62c.21.37.34.88.34,1.38,0,.28-.04.55-.12.85-.33,1.26-1.43,2.14-2.68,2.14Zm0-4.95c-.65,0-1.23.38-1.54,1-.16.31-.24.62-.24.96,0,.51.17.97.49,1.32.34.41.78.62,1.28.62.77,0,1.46-.56,1.67-1.37.06-.21.09-.4.09-.58,0-.33-.08-.66-.22-.91-.3-.65-.89-1.05-1.53-1.05Z"/>
      <path class="cls-2" d="m13.59,28c-1.55,0-2.81-1.35-2.81-3,0-1.26.74-2.39,1.85-2.82.31-.12.63-.18.96-.18,1.55,0,2.81,1.35,2.81,3s-1.26,3-2.81,3Zm0-4.96c-.2,0-.4.04-.59.11-.7.28-1.18,1.02-1.18,1.85,0,1.08.79,1.96,1.77,1.96s1.77-.88,1.77-1.96-.79-1.96-1.77-1.96Z"/>
    </g>
  </g>
  <g id="guias">
    <g>
      <rect class="cls-1" x="47.5" y="47.5" width="2.5" height="2.5"/>
      <rect class="cls-1" x="47.5" width="2.5" height="2.5"/>
      <rect class="cls-1" y="47.5" width="2.5" height="2.5"/>
      <rect class="cls-1" width="2.5" height="2.5"/>
    </g>
  </g>
</svg>