<?xml version="1.0" encoding="UTF-8"?>
<svg xmlns="http://www.w3.org/2000/svg" viewBox="0 0 50 50">
  <defs>
    <style>
      .cls-1 {
        fill: none;
        stroke: #000;
        stroke-miterlimit: 10;
        stroke-width: .21px;
      }

      .cls-2 {
        stroke-width: 0px;
      }
    </style>
  </defs>
  <g id="iconos">
    <g>
      <path class="cls-2" d="m35.26,29.55c-.57-.27-3.32-1.63-3.84-1.84s-.88-.27-1.27.3-1.45,1.81-1.78,2.2-.63.42-1.21,0c-1.65-.66-3.17-1.6-4.5-2.78-1.2-1.13-2.22-2.45-3.02-3.9-.33-.54,0-.85.24-1.15s.54-.63.85-.97c.22-.29.4-.6.54-.94.15-.31.15-.68,0-1,0-.27-1.27-3.02-1.75-4.14s-.91-.97-1.24-.97h-1.21c-.58.02-1.12.27-1.51.69-1.28,1.22-1.99,2.92-1.96,4.68.15,2.14.94,4.19,2.27,5.89,2.43,3.6,5.75,6.52,9.64,8.46,1.33.57,2.36.91,3.17,1.18,1.15.35,2.36.42,3.53.21,1.58-.32,2.96-1.28,3.81-2.66.35-.84.46-1.76.33-2.66-.15-.21-.51-.36-1.09-.63Z"/>
      <path class="cls-2" d="m40.86,8.93c-4.22-4.26-9.98-6.63-15.98-6.58C12.47,2.41,2.46,12.53,2.53,24.94c.02,3.89,1.05,7.71,2.99,11.09l-3.02,11.63,11.9-3.02c3.29,1.79,6.98,2.72,10.72,2.72h-.24c12.41.08,22.54-9.91,22.62-22.33.04-6.04-2.35-11.84-6.64-16.09h0Zm-15.98,34.55c-3.35,0-6.64-.91-9.51-2.63l-.66-.39-7.07,1.84,1.87-6.89-.42-.69c-5.44-8.76-2.75-20.27,6.01-25.7,7.34-4.56,16.85-3.48,22.99,2.6,3.52,3.49,5.49,8.24,5.47,13.2-.02,10.3-8.36,18.65-18.67,18.67Z"/>
    </g>
  </g>
  <g id="guias">
    <rect class="cls-1" x="47.5" y="47.5" width="2.5" height="2.5"/>
    <rect class="cls-1" x="47.5" width="2.5" height="2.5"/>
    <rect class="cls-1" y="47.5" width="2.5" height="2.5"/>
    <rect class="cls-1" width="2.5" height="2.5"/>
  </g>
</svg>