<?xml version="1.0" encoding="UTF-8"?>
<svg xmlns="http://www.w3.org/2000/svg" viewBox="0 0 50 50">
  <defs>
    <style>
      .cls-1 {
        fill: none;
        stroke: #000;
        stroke-miterlimit: 10;
        stroke-width: .21px;
      }

      .cls-2 {
        fill-rule: evenodd;
      }

      .cls-2, .cls-3 {
        fill: #1e1f22;
        stroke-width: 0px;
      }
    </style>
  </defs>
  <g id="iconos">
    <g>
      <g>
        <path class="cls-3" d="m17.74,33.43c-.13,0-.26-.05-.35-.14-.14-.13-.2-.32-.16-.5l.71-3.23c-2.1-3.22-1.76-7.41.85-10.27,3.14-3.42,8.47-3.65,11.89-.52,1.66,1.52,2.62,3.59,2.72,5.83.1,2.25-.69,4.4-2.2,6.05-2.61,2.85-6.76,3.56-10.15,1.74l-3.15.99c-.05.02-.1.02-.16.02Zm3.36-2.11c.09,0,.18.02.26.07,3,1.71,6.73,1.12,9.06-1.43,1.33-1.45,2.01-3.33,1.93-5.3-.08-1.97-.93-3.78-2.38-5.11-2.99-2.75-7.66-2.54-10.41.45-2.34,2.55-2.6,6.31-.64,9.16.08.12.11.27.08.41l-.57,2.56,2.5-.79c.05-.02.1-.02.16-.02Z"/>
        <path class="cls-2" d="m21.61,21.64c-.37.42-.5.96-.45,1.55-.22,2.36,3.34,6.06,5.67,5.83.74.06,1.39-.17,1.86-.83.21-.43.16-.68.1-.81-.19-.38-1.45-.8-1.86-.96-.24-.1-.79.26-.94.46-.15.2-.41.06-.41.06-.59-.3-2.16-2.02-2.4-2.64,0,0-.11-.27.1-.4.21-.13.63-.64.55-.89-.08-.25-.68-1.85-.68-1.85,0,0-.2-.35-.92-.08,0,0-.32.18-.62.57Z"/>
      </g>
      <g>
        <path class="cls-3" d="m33.66,47.5h-17.32c-2.48,0-4.51-2.02-4.51-4.51V7.01c0-2.48,2.02-4.51,4.51-4.51h17.32c2.48,0,4.51,2.02,4.51,4.51v35.98c0,2.48-2.02,4.51-4.51,4.51ZM16.34,3.55c-1.91,0-3.46,1.55-3.46,3.46v35.98c0,1.91,1.55,3.46,3.46,3.46h17.32c1.91,0,3.46-1.55,3.46-3.46V7.01c0-1.91-1.55-3.46-3.46-3.46h-17.32Z"/>
        <path class="cls-3" d="m25.4,43.6h-.8c-.29,0-.52-.24-.52-.52s.24-.52.52-.52h.8c.29,0,.52.24.52.52s-.24.52-.52.52Z"/>
        <path class="cls-3" d="m29.39,7.93h-8.86c-1.17,0-2.12-.95-2.12-2.12v-.27c0-.29.24-.52.52-.52s.52.24.52.52v.27c0,.59.48,1.07,1.07,1.07h8.86c.59,0,1.07-.48,1.07-1.07v-.27c0-.29.24-.52.52-.52s.52.24.52.52v.27c0,1.17-.95,2.12-2.12,2.12Z"/>
      </g>
    </g>
  </g>
  <g id="guias">
    <rect class="cls-1" x="47.5" y="47.5" width="2.5" height="2.5"/>
    <rect class="cls-1" x="47.5" width="2.5" height="2.5"/>
    <rect class="cls-1" y="47.5" width="2.5" height="2.5"/>
    <rect class="cls-1" width="2.5" height="2.5"/>
  </g>
</svg>