<?xml version="1.0" encoding="UTF-8"?>
<svg id="iconos" xmlns="http://www.w3.org/2000/svg" viewBox="0 0 50 50">
  <defs>
    <style>
      .cls-1 {
        fill: #1e1f22;
        stroke-width: 0px;
      }
    </style>
  </defs>
  <path class="cls-1" d="m33.19,41.3H8.94c-.29,0-.52-.24-.52-.52v-3.94c0-.29.24-.52.52-.52s.52.24.52.52v3.42h23.72c.29,0,.52.24.52.52s-.24.52-.52.52Z"/>
  <path class="cls-1" d="m46.99,41.3h-2.22c-.29,0-.52-.24-.52-.52s.24-.52.52-.52h1.7V9.83H3.01c-.29,0-.52-.24-.52-.52s.24-.52.52-.52h43.99c.29,0,.52.24.52.52v31.46c0,.29-.24.52-.52.52Z"/>
  <path class="cls-1" d="m31.67,35.36H3.01c-.29,0-.52-.24-.52-.52V3.02c0-.29.24-.52.52-.52h37.69c.29,0,.52.24.52.52v30.35c0,.29-.24.52-.52.52s-.52-.24-.52-.52V3.55H3.53v30.76h28.14c.29,0,.52.24.52.52s-.24.52-.52.52Z"/>
  <path class="cls-1" d="m45.34,47.5c-.14,0-.27-.05-.37-.15l-5.07-5.07-3.04,3.04c-.13.14-.32.18-.51.14-.18-.05-.32-.19-.37-.37l-3.1-11.57c-.05-.18,0-.37.14-.51s.33-.19.51-.14l11.57,3.1c.18.05.32.19.37.37.05.18,0,.37-.14.51l-3.04,3.04,5.07,5.07c.2.2.2.54,0,.74l-1.65,1.65c-.1.1-.24.15-.37.15Zm-5.44-6.49c.14,0,.27.05.37.15l5.07,5.07.91-.91-5.07-5.07c-.2-.2-.2-.54,0-.74l2.76-2.77-9.81-2.63,2.63,9.81,2.77-2.76c.1-.1.24-.15.37-.15Z"/>
  <path class="cls-1" d="m19.75,18.15c-.29,0-.52-.24-.52-.52v-3.65h-9.46v3.65c0,.29-.24.52-.52.52s-.52-.24-.52-.52v-4.17c0-.29.24-.52.52-.52h10.51c.29,0,.52.24.52.52v4.17c0,.29-.24.52-.52.52Z"/>
  <path class="cls-1" d="m19.75,21.6h-10.51c-.29,0-.52-.24-.52-.52s.24-.52.52-.52h10.51c.29,0,.52.24.52.52s-.24.52-.52.52Z"/>
  <path class="cls-1" d="m19.75,24.35h-10.51c-.29,0-.52-.24-.52-.52s.24-.52.52-.52h10.51c.29,0,.52.24.52.52s-.24.52-.52.52Z"/>
  <path class="cls-1" d="m19.75,27.1h-10.51c-.29,0-.52-.24-.52-.52s.24-.52.52-.52h10.51c.29,0,.52.24.52.52s-.24.52-.52.52Z"/>
</svg>