<?xml version="1.0" encoding="UTF-8"?>
<svg xmlns="http://www.w3.org/2000/svg" viewBox="0 0 50 50">
  <defs>
    <style>
      .cls-1 {
        fill: none;
        stroke: #000;
        stroke-miterlimit: 10;
        stroke-width: .21px;
      }

      .cls-2 {
        fill: #1e1f22;
        stroke-width: 0px;
      }
    </style>
  </defs>
  <g id="iconos">
    <g>
      <path class="cls-2" d="m8.51,19s0-.03,0-.03l.02-.13h-.83c-.75,0-.98,0-1,.01-.01,0-.27.99-.73,2.77-.22.85-.41,1.53-.41,1.51s-.27-.99-.59-2.16c-.32-1.17-.58-2.12-.59-2.13-.01-.01-1.02-.02-1.83,0-.12,0-.18-.23,1.05,3.7.17.54.43,1.31.57,1.71.16.46.28.81.36,1.11.14.56.15.91.11,1.33-.04.47-.04,3.83,0,3.88.03.04,1.6.06,1.75.02.02,0,.04-.03.05-.16.04-.11.04-.54.04-2.34v-2.3l.1-.32c.07-.21.23-.75.37-1.21s.3-1.01.37-1.22c.59-1.93,1.16-3.83,1.17-3.94v-.09s.01,0,.01,0Z"/>
      <path class="cls-2" d="m17.31,21.79v.12h-.02v3.31s-.02,3.21-.02,3.21l-.26.26c-.29.29-.52.4-.73.35-.23-.06-.22.03-.24-3.76l-.02-3.49h-1.65v.12h-.02v3.79q0,4.06.21,4.47c.16.32.4.48.81.54h0c.54.07,1.12-.17,1.66-.7l.23-.23v.39c0,.34,0,.4.07.41.1.03,1.35.03,1.49,0l.11-.02v-.12h.02v-8.68l-1.65.02h0Z"/>
      <path class="cls-2" d="m13.12,23.5c-.16-.67-.45-1.12-.93-1.44-.76-.49-1.62-.54-2.43-.15-.59.29-.96.77-1.16,1.47-.02.08-.04.15-.05.26-.05.25-.06.62-.07,2.35-.02,2.66.01,2.98.34,3.58.33.59,1.01,1.03,1.75,1.12.22.03.67-.02.93-.09.59-.16,1.15-.63,1.4-1.16.11-.23.17-.39.21-.68.07-.4.08-1.04.08-2.67,0-2.08,0-2.31-.08-2.61h0Zm-1.88,5.43c-.14.11-.38.15-.58.11-.15-.03-.36-.27-.42-.49-.08-.27-.08-4.03-.02-4.77.11-.37.42-.56.76-.47.27.07.4.24.48.59.06.26.06.58.05,2.48,0,1.26-.01,1.87-.05,2.2-.04.21-.11.26-.23.35h0Z"/>
      <path class="cls-2" d="m42.79,25.39h.8v-.72c-.03-.66-.03-.74-.12-.92-.14-.28-.35-.41-.67-.41-.39,0-.64.19-.76.58-.05.17-.1,1.31-.07,1.41.02.05.14.07.82.07h0Z"/>
      <path class="cls-2" d="m37.46,23.74c-.11-.21-.3-.32-.54-.31-.18,0-.38.08-.57.23l-.14.11v5.2l.14.11c.32.25.68.3.92.14.1-.06.16-.15.21-.3.06-.18.07-.42.06-2.61,0-2.28-.01-2.41-.09-2.56h0Z"/>
      <path class="cls-2" d="m47.36,21.4c-.16-1.91-.29-2.53-.68-3.32-.52-1.05-1.27-1.61-2.35-1.73-.83-.09-3.95-.23-6.84-.29-5-.11-13.21.1-14.26.37-.49.12-.85.33-1.23.71-.66.66-1.06,1.61-1.22,2.92-.36,2.99-.37,6.6-.02,9.7.15,1.33.46,2.2,1.04,2.91.36.45.99.82,1.55.94.39.08,2.36.19,5.22.29.43.02,1.55.04,2.51.06,1.99.04,5.64.01,7.72-.04,1.4-.04,3.96-.14,4.44-.18.13-.01.45-.03.69-.04.83-.05,1.36-.22,1.85-.61.64-.5,1.14-1.43,1.35-2.52.2-1.03.33-2.87.36-4.96.02-1.74,0-2.68-.13-4.2Zm-19.9-.69h-.93s-.04,9.92-.04,9.92h-.8c-.62.02-.81,0-.83-.03-.01-.03-.02-2.26-.03-4.96v-4.91s-1.82-.02-1.82-.02v-1.55l5.36.02.02,1.53h-.93Zm5.69,5.68v4.26h-1.47v-.45c0-.34-.01-.45-.05-.45-.03,0-.16.11-.3.25-.29.29-.63.53-.93.64-.61.23-1.18.09-1.43-.33-.22-.39-.23-.47-.23-4.49v-3.69h1.47v3.47c.02,3.41.02,3.48.11,3.62.11.18.27.23.54.16.15-.04.26-.12.51-.37l.32-.31v-6.57h1.47v4.26h0Zm5.72,3.65c-.13.29-.42.57-.65.64-.62.18-1.11.03-1.68-.5-.18-.17-.34-.3-.37-.3-.03,0-.05.13-.05.39v.39h-1.47v-11.49h1.47v1.87c0,1.03.01,1.87.03,1.87s.17-.14.34-.3c.4-.38.73-.55,1.15-.58.75-.06,1.2.33,1.4,1.21.06.28.07.59.07,3.14,0,3.11,0,3.12-.25,3.67h0Zm6.21-1.7c-.01.32-.05.69-.09.82-.2.76-.75,1.29-1.53,1.51-1.06.3-2.22-.19-2.69-1.12-.26-.52-.27-.63-.27-3.18,0-2.08,0-2.33.07-2.62.19-.8.66-1.32,1.45-1.61.23-.08.47-.13.71-.13.85-.02,1.7.44,2.05,1.19.24.5.27.72.29,2.14l.02,1.27-3.13.02v.86c-.03,1.21.05,1.58.38,1.8.27.18.7.17.92-.03.21-.19.28-.39.3-.98l.02-.52h1.51l-.02.58h0Z"/>
    </g>
  </g>
  <g id="guias">
    <g>
      <rect class="cls-1" x="47.5" y="47.59" width="2.5" height="2.5"/>
      <rect class="cls-1" x="47.5" y=".09" width="2.5" height="2.5"/>
      <rect class="cls-1" y="47.59" width="2.5" height="2.5"/>
      <rect class="cls-1" y=".09" width="2.5" height="2.5"/>
    </g>
  </g>
</svg>