<?xml version="1.0" encoding="UTF-8"?>
<svg xmlns="http://www.w3.org/2000/svg" viewBox="0 0 50 50">
  <defs>
    <style>
      .cls-1 {
        fill: none;
        stroke: #000;
        stroke-miterlimit: 10;
        stroke-width: .21px;
      }

      .cls-2 {
        fill-rule: evenodd;
        stroke-width: 0px;
      }
    </style>
  </defs>
  <g id="iconos">
    <g id="Page-1">
      <g id="Dribbble-Light-Preview">
        <g id="icons">
          <path id="youtube-_168_" data-name="youtube-[#168]" class="cls-2" d="m20.47,30.82v-12.63c4.48,2.11,7.95,4.15,12.06,6.34-3.39,1.88-7.58,3.98-12.06,6.28m24.98-18.91c-.77-1.02-2.09-1.81-3.49-2.07-4.12-.78-29.85-.78-33.97,0-1.13.21-2.13.72-2.99,1.51-3.63,3.37-2.49,21.42-1.62,24.34.37,1.27.84,2.18,1.44,2.78.77.79,1.83,1.34,3.04,1.58,3.4.7,20.89,1.1,34.02.11,1.21-.21,2.28-.77,3.13-1.6,3.35-3.35,3.12-22.42.44-26.64"/>
        </g>
      </g>
    </g>
  </g>
  <g id="guias">
    <rect class="cls-1" x="47.5" y="47.5" width="2.5" height="2.5"/>
    <rect class="cls-1" x="47.5" width="2.5" height="2.5"/>
    <rect class="cls-1" y="47.5" width="2.5" height="2.5"/>
    <rect class="cls-1" width="2.5" height="2.5"/>
    <rect class="cls-1" x="47.5" y="12.5" width="2.5" height="2.5"/>
    <rect class="cls-1" y="12.5" width="2.5" height="2.5"/>
  </g>
</svg>